<svg xmlns="http://www.w3.org/2000/svg" width="900" height="340" viewBox="0 0 900 340" role="img" aria-label="Contribution activity, last 6 months">
<defs>
<linearGradient id="bg" x1="0" y1="0" x2="0" y2="1"><stop offset="0" stop-color="#0F172A"/><stop offset="1" stop-color="#0B1120"/></linearGradient>
<linearGradient id="area" x1="0" y1="0" x2="0" y2="1"><stop offset="0" stop-color="#22C55E" stop-opacity="0.42"/><stop offset="0.7" stop-color="#22C55E" stop-opacity="0.08"/><stop offset="1" stop-color="#22C55E" stop-opacity="0"/></linearGradient>
</defs>
<rect x="0" y="0" width="900" height="340" rx="14" fill="url(#bg)"/>
<text x="450" y="32" text-anchor="middle" font-family="ui-monospace,Menlo,monospace" font-size="17" font-weight="700" fill="#F8FAFC" letter-spacing="0.5">last 6 months</text>
<text x="450" y="50" text-anchor="middle" font-family="ui-monospace,Menlo,monospace" font-size="11" fill="#94A3B8">4,025 contributions · peak 282</text>
<line x1="58" y1="302.0" x2="874" y2="302.0" stroke="#1E293B" stroke-width="1" stroke-dasharray="2 4"/>
<text x="48" y="305.5" text-anchor="end" font-family="ui-monospace,Menlo,monospace" font-size="10" fill="#94A3B8">0</text>
<line x1="58" y1="242.5" x2="874" y2="242.5" stroke="#1E293B" stroke-width="1" stroke-dasharray="2 4"/>
<text x="48" y="246.0" text-anchor="end" font-family="ui-monospace,Menlo,monospace" font-size="10" fill="#94A3B8">75</text>
<line x1="58" y1="183.0" x2="874" y2="183.0" stroke="#1E293B" stroke-width="1" stroke-dasharray="2 4"/>
<text x="48" y="186.5" text-anchor="end" font-family="ui-monospace,Menlo,monospace" font-size="10" fill="#94A3B8">150</text>
<line x1="58" y1="123.5" x2="874" y2="123.5" stroke="#1E293B" stroke-width="1" stroke-dasharray="2 4"/>
<text x="48" y="127.0" text-anchor="end" font-family="ui-monospace,Menlo,monospace" font-size="10" fill="#94A3B8">225</text>
<line x1="58" y1="64.0" x2="874" y2="64.0" stroke="#1E293B" stroke-width="1" stroke-dasharray="2 4"/>
<text x="48" y="67.5" text-anchor="end" font-family="ui-monospace,Menlo,monospace" font-size="10" fill="#94A3B8">300</text>
<line x1="188.7" y1="64" x2="188.7" y2="302" stroke="#1E293B" stroke-width="1" stroke-opacity="0.6"/>
<text x="188.7" y="322" text-anchor="middle" font-family="ui-monospace,Menlo,monospace" font-size="10" fill="#94A3B8">Feb</text>
<line x1="315.0" y1="64" x2="315.0" y2="302" stroke="#1E293B" stroke-width="1" stroke-opacity="0.6"/>
<text x="315.0" y="322" text-anchor="middle" font-family="ui-monospace,Menlo,monospace" font-size="10" fill="#94A3B8">Mar</text>
<line x1="454.7" y1="64" x2="454.7" y2="302" stroke="#1E293B" stroke-width="1" stroke-opacity="0.6"/>
<text x="454.7" y="322" text-anchor="middle" font-family="ui-monospace,Menlo,monospace" font-size="10" fill="#94A3B8">Apr</text>
<line x1="590.0" y1="64" x2="590.0" y2="302" stroke="#1E293B" stroke-width="1" stroke-opacity="0.6"/>
<text x="590.0" y="322" text-anchor="middle" font-family="ui-monospace,Menlo,monospace" font-size="10" fill="#94A3B8">May</text>
<line x1="729.7" y1="64" x2="729.7" y2="302" stroke="#1E293B" stroke-width="1" stroke-opacity="0.6"/>
<text x="729.7" y="322" text-anchor="middle" font-family="ui-monospace,Menlo,monospace" font-size="10" fill="#94A3B8">Jun</text>
<line x1="865.0" y1="64" x2="865.0" y2="302" stroke="#1E293B" stroke-width="1" stroke-opacity="0.6"/>
<text x="865.0" y="322" text-anchor="middle" font-family="ui-monospace,Menlo,monospace" font-size="10" fill="#94A3B8">Jul</text>
<path d="M 58.00 302.00 C 58.75 302.00 61.01 302.00 62.51 302.00 C 64.01 302.00 65.51 302.93 67.02 302.00 C 68.52 301.07 70.02 299.49 71.52 296.45 C 73.03 293.41 74.53 287.06 76.03 283.75 C 77.54 280.45 79.04 273.70 80.54 276.61 C 82.04 279.52 83.55 296.98 85.05 301.21 C 86.55 305.44 88.06 301.87 89.56 302.00 C 91.06 302.13 92.56 302.26 94.07 302.00 C 95.57 301.74 97.07 300.41 98.57 300.41 C 100.08 300.41 101.58 302.93 103.08 302.00 C 104.59 301.07 106.09 295.26 107.59 294.86 C 109.09 294.46 110.60 299.49 112.10 299.62 C 113.60 299.75 115.10 301.07 116.61 295.65 C 118.11 290.23 119.61 271.06 121.12 267.09 C 122.62 263.13 124.12 268.42 125.62 271.85 C 127.13 275.29 128.63 284.55 130.13 287.72 C 131.64 290.89 133.14 288.78 134.64 290.89 C 136.14 293.01 137.65 298.96 139.15 300.41 C 140.65 301.87 142.15 299.49 143.66 299.62 C 145.16 299.75 146.66 300.81 148.17 301.21 C 149.67 301.60 151.17 301.87 152.67 302.00 C 154.18 302.13 155.68 302.00 157.18 302.00 C 158.69 302.00 160.19 305.44 161.69 302.00 C 163.19 298.56 164.70 282.43 166.20 281.37 C 167.70 280.32 169.20 296.98 170.71 295.65 C 172.21 294.33 173.71 273.57 175.22 273.44 C 176.72 273.31 178.22 293.41 179.72 294.86 C 181.23 296.31 182.73 282.17 184.23 282.17 C 185.73 282.17 187.24 296.18 188.74 294.86 C 190.24 293.54 191.75 275.95 193.25 274.23 C 194.75 272.51 196.25 281.64 197.76 284.55 C 199.26 287.46 200.76 288.78 202.27 291.69 C 203.77 294.60 205.27 303.59 206.77 302.00 C 208.28 300.41 209.78 283.22 211.28 282.17 C 212.78 281.11 214.29 292.35 215.79 295.65 C 217.29 298.96 218.80 301.34 220.30 302.00 C 221.80 302.66 223.30 303.98 224.81 299.62 C 226.31 295.26 227.81 303.45 229.31 275.82 C 230.82 248.19 232.32 133.95 233.82 133.81 C 235.33 133.68 236.83 249.51 238.33 275.03 C 239.83 300.55 241.34 282.43 242.84 286.93 C 244.34 291.42 245.85 301.87 247.35 302.00 C 248.85 302.13 250.35 287.98 251.86 287.72 C 253.36 287.46 254.86 300.28 256.36 300.41 C 257.87 300.55 259.37 289.44 260.87 288.51 C 262.38 287.59 263.88 295.65 265.38 294.86 C 266.88 294.07 268.39 285.74 269.89 283.75 C 271.39 281.77 272.90 284.41 274.40 282.96 C 275.90 281.51 277.40 272.91 278.91 275.03 C 280.41 277.14 281.91 291.16 283.41 295.65 C 284.92 300.15 286.42 303.85 287.92 302.00 C 289.43 300.15 290.93 287.59 292.43 284.55 C 293.93 281.51 295.44 282.03 296.94 283.75 C 298.44 285.47 299.94 294.60 301.45 294.86 C 302.95 295.12 304.45 285.60 305.96 285.34 C 307.46 285.08 308.96 292.35 310.46 293.27 C 311.97 294.20 313.47 291.16 314.97 290.89 C 316.48 290.63 317.98 290.50 319.48 291.69 C 320.98 292.88 322.49 296.31 323.99 298.03 C 325.49 299.75 326.99 302.26 328.50 302.00 C 330.00 301.74 331.50 296.45 333.01 296.45 C 334.51 296.45 336.01 301.07 337.51 302.00 C 339.02 302.93 340.52 302.00 342.02 302.00 C 343.52 302.00 345.03 302.00 346.53 302.00 C 348.03 302.00 349.54 303.19 351.04 302.00 C 352.54 300.81 354.04 294.86 355.55 294.86 C 357.05 294.86 358.55 300.81 360.06 302.00 C 361.56 303.19 363.06 303.45 364.56 302.00 C 366.07 300.55 367.57 293.93 369.07 293.27 C 370.57 292.61 372.08 296.58 373.58 298.03 C 375.08 299.49 376.59 301.34 378.09 302.00 C 379.59 302.66 381.09 302.40 382.60 302.00 C 384.10 301.60 385.60 299.88 387.10 299.62 C 388.61 299.36 390.11 300.81 391.61 300.41 C 393.12 300.02 394.62 300.81 396.12 297.24 C 397.62 293.67 399.13 279.26 400.63 278.99 C 402.13 278.73 403.64 291.82 405.14 295.65 C 406.64 299.49 408.14 302.40 409.65 302.00 C 411.15 301.60 412.65 297.11 414.15 293.27 C 415.66 289.44 417.16 279.39 418.66 278.99 C 420.17 278.60 421.67 287.19 423.17 290.89 C 424.67 294.60 426.18 303.72 427.68 301.21 C 429.18 298.69 430.69 280.98 432.19 275.82 C 433.69 270.66 435.19 269.74 436.70 270.27 C 438.20 270.80 439.70 274.63 441.20 278.99 C 442.71 283.36 444.21 292.61 445.71 296.45 C 447.22 300.28 448.72 301.47 450.22 302.00 C 451.72 302.53 453.23 299.62 454.73 299.62 C 456.23 299.62 457.73 301.60 459.24 302.00 C 460.74 302.40 462.24 302.00 463.75 302.00 C 465.25 302.00 466.75 304.64 468.25 302.00 C 469.76 299.36 471.26 288.65 472.76 286.13 C 474.27 283.62 475.77 285.21 477.27 286.93 C 478.77 288.65 480.28 294.46 481.78 296.45 C 483.28 298.43 484.78 298.30 486.29 298.83 C 487.79 299.36 489.29 299.09 490.80 299.62 C 492.30 300.15 493.80 302.40 495.30 302.00 C 496.81 301.60 498.31 297.64 499.81 297.24 C 501.31 296.84 502.82 301.21 504.32 299.62 C 505.82 298.03 507.33 288.12 508.83 287.72 C 510.33 287.32 511.83 295.92 513.34 297.24 C 514.84 298.56 516.34 296.58 517.85 295.65 C 519.35 294.73 520.85 299.75 522.35 291.69 C 523.86 283.62 525.36 251.49 526.86 247.26 C 528.36 243.03 529.87 294.46 531.37 266.30 C 532.87 238.14 534.38 100.49 535.88 78.28 C 537.38 56.07 538.88 108.29 540.39 133.02 C 541.89 157.75 543.39 207.06 544.90 226.63 C 546.40 246.20 547.90 249.11 549.40 250.43 C 550.91 251.76 552.41 230.47 553.91 234.57 C 555.41 238.67 556.92 263.79 558.42 275.03 C 559.92 286.27 561.43 298.30 562.93 302.00 C 564.43 305.70 565.93 297.77 567.44 297.24 C 568.94 296.71 570.44 301.87 571.94 298.83 C 573.45 295.79 574.95 278.99 576.45 278.99 C 577.96 278.99 579.46 300.28 580.96 298.83 C 582.46 297.37 583.97 275.82 585.47 270.27 C 586.97 264.71 588.48 260.22 589.98 265.51 C 591.48 270.80 592.98 297.24 594.49 302.00 C 595.99 306.76 597.49 294.07 598.99 294.07 C 600.50 294.07 602.00 302.53 603.50 302.00 C 605.01 301.47 606.51 292.22 608.01 290.89 C 609.51 289.57 611.02 303.59 612.52 294.07 C 614.02 284.55 615.52 238.40 617.03 233.77 C 618.53 229.15 620.03 267.62 621.54 266.30 C 623.04 264.98 624.54 228.75 626.04 225.84 C 627.55 222.93 629.05 249.24 630.55 248.85 C 632.06 248.45 633.56 222.80 635.06 223.46 C 636.56 224.12 638.07 249.11 639.57 252.81 C 641.07 256.52 642.57 238.00 644.08 245.67 C 645.58 253.34 647.08 292.22 648.59 298.83 C 650.09 305.44 651.59 289.70 653.09 285.34 C 654.60 280.98 656.10 287.72 657.60 272.65 C 659.10 257.57 660.61 195.30 662.11 194.90 C 663.61 194.50 665.12 253.08 666.62 270.27 C 668.12 287.46 669.62 293.80 671.13 298.03 C 672.63 302.26 674.13 296.18 675.64 295.65 C 677.14 295.12 678.64 297.50 680.14 294.86 C 681.65 292.22 683.15 281.24 684.65 279.79 C 686.15 278.33 687.66 282.96 689.16 286.13 C 690.66 289.31 692.17 297.50 693.67 298.83 C 695.17 300.15 696.67 294.86 698.18 294.07 C 699.68 293.27 701.18 293.01 702.69 294.07 C 704.19 295.12 705.69 299.88 707.19 300.41 C 708.70 300.94 710.20 297.24 711.70 297.24 C 713.20 297.24 714.71 299.88 716.21 300.41 C 717.71 300.94 719.22 309.54 720.72 300.41 C 722.22 291.29 723.72 248.19 725.23 245.67 C 726.73 243.16 728.23 282.83 729.73 285.34 C 731.24 287.85 732.74 260.09 734.24 260.75 C 735.75 261.41 737.25 285.21 738.75 289.31 C 740.25 293.41 741.76 283.62 743.26 285.34 C 744.76 287.06 746.27 297.11 747.77 299.62 C 749.27 302.13 750.77 300.28 752.28 300.41 C 753.78 300.55 755.28 300.41 756.78 300.41 C 758.29 300.41 759.79 300.81 761.29 300.41 C 762.80 300.02 764.30 305.57 765.80 298.03 C 767.30 290.50 768.81 255.99 770.31 255.19 C 771.81 254.40 773.31 289.57 774.82 293.27 C 776.32 296.98 777.82 277.67 779.33 277.41 C 780.83 277.14 782.33 291.55 783.83 291.69 C 785.34 291.82 786.84 279.13 788.34 278.20 C 789.85 277.27 791.35 282.70 792.85 286.13 C 794.35 289.57 795.86 296.45 797.36 298.83 C 798.86 301.21 800.36 300.15 801.87 300.41 C 803.37 300.68 804.87 300.41 806.38 300.41 C 807.88 300.41 809.38 300.55 810.88 300.41 C 812.39 300.28 813.89 302.93 815.39 299.62 C 816.90 296.31 818.40 280.71 819.90 280.58 C 821.40 280.45 822.91 299.49 824.41 298.83 C 825.91 298.17 827.41 276.35 828.92 276.61 C 830.42 276.88 831.92 298.03 833.43 300.41 C 834.93 302.79 836.43 302.66 837.93 290.89 C 839.44 279.13 840.94 237.08 842.44 229.81 C 843.94 222.53 845.45 241.44 846.95 247.26 C 848.45 253.08 849.96 260.09 851.46 264.71 C 852.96 269.34 854.46 269.34 855.97 275.03 C 857.47 280.71 858.97 299.49 860.48 298.83 C 861.98 298.17 863.48 274.37 864.98 271.06 C 866.49 267.75 867.99 275.42 869.49 278.99 C 870.99 282.56 873.25 290.23 874.00 292.48 L 874.00 302.00 L 58.00 302.00 Z" fill="url(#area)"/>
<path d="M 58.00 302.00 C 58.75 302.00 61.01 302.00 62.51 302.00 C 64.01 302.00 65.51 302.93 67.02 302.00 C 68.52 301.07 70.02 299.49 71.52 296.45 C 73.03 293.41 74.53 287.06 76.03 283.75 C 77.54 280.45 79.04 273.70 80.54 276.61 C 82.04 279.52 83.55 296.98 85.05 301.21 C 86.55 305.44 88.06 301.87 89.56 302.00 C 91.06 302.13 92.56 302.26 94.07 302.00 C 95.57 301.74 97.07 300.41 98.57 300.41 C 100.08 300.41 101.58 302.93 103.08 302.00 C 104.59 301.07 106.09 295.26 107.59 294.86 C 109.09 294.46 110.60 299.49 112.10 299.62 C 113.60 299.75 115.10 301.07 116.61 295.65 C 118.11 290.23 119.61 271.06 121.12 267.09 C 122.62 263.13 124.12 268.42 125.62 271.85 C 127.13 275.29 128.63 284.55 130.13 287.72 C 131.64 290.89 133.14 288.78 134.64 290.89 C 136.14 293.01 137.65 298.96 139.15 300.41 C 140.65 301.87 142.15 299.49 143.66 299.62 C 145.16 299.75 146.66 300.81 148.17 301.21 C 149.67 301.60 151.17 301.87 152.67 302.00 C 154.18 302.13 155.68 302.00 157.18 302.00 C 158.69 302.00 160.19 305.44 161.69 302.00 C 163.19 298.56 164.70 282.43 166.20 281.37 C 167.70 280.32 169.20 296.98 170.71 295.65 C 172.21 294.33 173.71 273.57 175.22 273.44 C 176.72 273.31 178.22 293.41 179.72 294.86 C 181.23 296.31 182.73 282.17 184.23 282.17 C 185.73 282.17 187.24 296.18 188.74 294.86 C 190.24 293.54 191.75 275.95 193.25 274.23 C 194.75 272.51 196.25 281.64 197.76 284.55 C 199.26 287.46 200.76 288.78 202.27 291.69 C 203.77 294.60 205.27 303.59 206.77 302.00 C 208.28 300.41 209.78 283.22 211.28 282.17 C 212.78 281.11 214.29 292.35 215.79 295.65 C 217.29 298.96 218.80 301.34 220.30 302.00 C 221.80 302.66 223.30 303.98 224.81 299.62 C 226.31 295.26 227.81 303.45 229.31 275.82 C 230.82 248.19 232.32 133.95 233.82 133.81 C 235.33 133.68 236.83 249.51 238.33 275.03 C 239.83 300.55 241.34 282.43 242.84 286.93 C 244.34 291.42 245.85 301.87 247.35 302.00 C 248.85 302.13 250.35 287.98 251.86 287.72 C 253.36 287.46 254.86 300.28 256.36 300.41 C 257.87 300.55 259.37 289.44 260.87 288.51 C 262.38 287.59 263.88 295.65 265.38 294.86 C 266.88 294.07 268.39 285.74 269.89 283.75 C 271.39 281.77 272.90 284.41 274.40 282.96 C 275.90 281.51 277.40 272.91 278.91 275.03 C 280.41 277.14 281.91 291.16 283.41 295.65 C 284.92 300.15 286.42 303.85 287.92 302.00 C 289.43 300.15 290.93 287.59 292.43 284.55 C 293.93 281.51 295.44 282.03 296.94 283.75 C 298.44 285.47 299.94 294.60 301.45 294.86 C 302.95 295.12 304.45 285.60 305.96 285.34 C 307.46 285.08 308.96 292.35 310.46 293.27 C 311.97 294.20 313.47 291.16 314.97 290.89 C 316.48 290.63 317.98 290.50 319.48 291.69 C 320.98 292.88 322.49 296.31 323.99 298.03 C 325.49 299.75 326.99 302.26 328.50 302.00 C 330.00 301.74 331.50 296.45 333.01 296.45 C 334.51 296.45 336.01 301.07 337.51 302.00 C 339.02 302.93 340.52 302.00 342.02 302.00 C 343.52 302.00 345.03 302.00 346.53 302.00 C 348.03 302.00 349.54 303.19 351.04 302.00 C 352.54 300.81 354.04 294.86 355.55 294.86 C 357.05 294.86 358.55 300.81 360.06 302.00 C 361.56 303.19 363.06 303.45 364.56 302.00 C 366.07 300.55 367.57 293.93 369.07 293.27 C 370.57 292.61 372.08 296.58 373.58 298.03 C 375.08 299.49 376.59 301.34 378.09 302.00 C 379.59 302.66 381.09 302.40 382.60 302.00 C 384.10 301.60 385.60 299.88 387.10 299.62 C 388.61 299.36 390.11 300.81 391.61 300.41 C 393.12 300.02 394.62 300.81 396.12 297.24 C 397.62 293.67 399.13 279.26 400.63 278.99 C 402.13 278.73 403.64 291.82 405.14 295.65 C 406.64 299.49 408.14 302.40 409.65 302.00 C 411.15 301.60 412.65 297.11 414.15 293.27 C 415.66 289.44 417.16 279.39 418.66 278.99 C 420.17 278.60 421.67 287.19 423.17 290.89 C 424.67 294.60 426.18 303.72 427.68 301.21 C 429.18 298.69 430.69 280.98 432.19 275.82 C 433.69 270.66 435.19 269.74 436.70 270.27 C 438.20 270.80 439.70 274.63 441.20 278.99 C 442.71 283.36 444.21 292.61 445.71 296.45 C 447.22 300.28 448.72 301.47 450.22 302.00 C 451.72 302.53 453.23 299.62 454.73 299.62 C 456.23 299.62 457.73 301.60 459.24 302.00 C 460.74 302.40 462.24 302.00 463.75 302.00 C 465.25 302.00 466.75 304.64 468.25 302.00 C 469.76 299.36 471.26 288.65 472.76 286.13 C 474.27 283.62 475.77 285.21 477.27 286.93 C 478.77 288.65 480.28 294.46 481.78 296.45 C 483.28 298.43 484.78 298.30 486.29 298.83 C 487.79 299.36 489.29 299.09 490.80 299.62 C 492.30 300.15 493.80 302.40 495.30 302.00 C 496.81 301.60 498.31 297.64 499.81 297.24 C 501.31 296.84 502.82 301.21 504.32 299.62 C 505.82 298.03 507.33 288.12 508.83 287.72 C 510.33 287.32 511.83 295.92 513.34 297.24 C 514.84 298.56 516.34 296.58 517.85 295.65 C 519.35 294.73 520.85 299.75 522.35 291.69 C 523.86 283.62 525.36 251.49 526.86 247.26 C 528.36 243.03 529.87 294.46 531.37 266.30 C 532.87 238.14 534.38 100.49 535.88 78.28 C 537.38 56.07 538.88 108.29 540.39 133.02 C 541.89 157.75 543.39 207.06 544.90 226.63 C 546.40 246.20 547.90 249.11 549.40 250.43 C 550.91 251.76 552.41 230.47 553.91 234.57 C 555.41 238.67 556.92 263.79 558.42 275.03 C 559.92 286.27 561.43 298.30 562.93 302.00 C 564.43 305.70 565.93 297.77 567.44 297.24 C 568.94 296.71 570.44 301.87 571.94 298.83 C 573.45 295.79 574.95 278.99 576.45 278.99 C 577.96 278.99 579.46 300.28 580.96 298.83 C 582.46 297.37 583.97 275.82 585.47 270.27 C 586.97 264.71 588.48 260.22 589.98 265.51 C 591.48 270.80 592.98 297.24 594.49 302.00 C 595.99 306.76 597.49 294.07 598.99 294.07 C 600.50 294.07 602.00 302.53 603.50 302.00 C 605.01 301.47 606.51 292.22 608.01 290.89 C 609.51 289.57 611.02 303.59 612.52 294.07 C 614.02 284.55 615.52 238.40 617.03 233.77 C 618.53 229.15 620.03 267.62 621.54 266.30 C 623.04 264.98 624.54 228.75 626.04 225.84 C 627.55 222.93 629.05 249.24 630.55 248.85 C 632.06 248.45 633.56 222.80 635.06 223.46 C 636.56 224.12 638.07 249.11 639.57 252.81 C 641.07 256.52 642.57 238.00 644.08 245.67 C 645.58 253.34 647.08 292.22 648.59 298.83 C 650.09 305.44 651.59 289.70 653.09 285.34 C 654.60 280.98 656.10 287.72 657.60 272.65 C 659.10 257.57 660.61 195.30 662.11 194.90 C 663.61 194.50 665.12 253.08 666.62 270.27 C 668.12 287.46 669.62 293.80 671.13 298.03 C 672.63 302.26 674.13 296.18 675.64 295.65 C 677.14 295.12 678.64 297.50 680.14 294.86 C 681.65 292.22 683.15 281.24 684.65 279.79 C 686.15 278.33 687.66 282.96 689.16 286.13 C 690.66 289.31 692.17 297.50 693.67 298.83 C 695.17 300.15 696.67 294.86 698.18 294.07 C 699.68 293.27 701.18 293.01 702.69 294.07 C 704.19 295.12 705.69 299.88 707.19 300.41 C 708.70 300.94 710.20 297.24 711.70 297.24 C 713.20 297.24 714.71 299.88 716.21 300.41 C 717.71 300.94 719.22 309.54 720.72 300.41 C 722.22 291.29 723.72 248.19 725.23 245.67 C 726.73 243.16 728.23 282.83 729.73 285.34 C 731.24 287.85 732.74 260.09 734.24 260.75 C 735.75 261.41 737.25 285.21 738.75 289.31 C 740.25 293.41 741.76 283.62 743.26 285.34 C 744.76 287.06 746.27 297.11 747.77 299.62 C 749.27 302.13 750.77 300.28 752.28 300.41 C 753.78 300.55 755.28 300.41 756.78 300.41 C 758.29 300.41 759.79 300.81 761.29 300.41 C 762.80 300.02 764.30 305.57 765.80 298.03 C 767.30 290.50 768.81 255.99 770.31 255.19 C 771.81 254.40 773.31 289.57 774.82 293.27 C 776.32 296.98 777.82 277.67 779.33 277.41 C 780.83 277.14 782.33 291.55 783.83 291.69 C 785.34 291.82 786.84 279.13 788.34 278.20 C 789.85 277.27 791.35 282.70 792.85 286.13 C 794.35 289.57 795.86 296.45 797.36 298.83 C 798.86 301.21 800.36 300.15 801.87 300.41 C 803.37 300.68 804.87 300.41 806.38 300.41 C 807.88 300.41 809.38 300.55 810.88 300.41 C 812.39 300.28 813.89 302.93 815.39 299.62 C 816.90 296.31 818.40 280.71 819.90 280.58 C 821.40 280.45 822.91 299.49 824.41 298.83 C 825.91 298.17 827.41 276.35 828.92 276.61 C 830.42 276.88 831.92 298.03 833.43 300.41 C 834.93 302.79 836.43 302.66 837.93 290.89 C 839.44 279.13 840.94 237.08 842.44 229.81 C 843.94 222.53 845.45 241.44 846.95 247.26 C 848.45 253.08 849.96 260.09 851.46 264.71 C 852.96 269.34 854.46 269.34 855.97 275.03 C 857.47 280.71 858.97 299.49 860.48 298.83 C 861.98 298.17 863.48 274.37 864.98 271.06 C 866.49 267.75 867.99 275.42 869.49 278.99 C 870.99 282.56 873.25 290.23 874.00 292.48" fill="none" stroke="#22C55E" stroke-opacity="0.20" stroke-width="7" stroke-linecap="round" stroke-linejoin="round"/>
<path d="M 58.00 302.00 C 58.75 302.00 61.01 302.00 62.51 302.00 C 64.01 302.00 65.51 302.93 67.02 302.00 C 68.52 301.07 70.02 299.49 71.52 296.45 C 73.03 293.41 74.53 287.06 76.03 283.75 C 77.54 280.45 79.04 273.70 80.54 276.61 C 82.04 279.52 83.55 296.98 85.05 301.21 C 86.55 305.44 88.06 301.87 89.56 302.00 C 91.06 302.13 92.56 302.26 94.07 302.00 C 95.57 301.74 97.07 300.41 98.57 300.41 C 100.08 300.41 101.58 302.93 103.08 302.00 C 104.59 301.07 106.09 295.26 107.59 294.86 C 109.09 294.46 110.60 299.49 112.10 299.62 C 113.60 299.75 115.10 301.07 116.61 295.65 C 118.11 290.23 119.61 271.06 121.12 267.09 C 122.62 263.13 124.12 268.42 125.62 271.85 C 127.13 275.29 128.63 284.55 130.13 287.72 C 131.64 290.89 133.14 288.78 134.64 290.89 C 136.14 293.01 137.65 298.96 139.15 300.41 C 140.65 301.87 142.15 299.49 143.66 299.62 C 145.16 299.75 146.66 300.81 148.17 301.21 C 149.67 301.60 151.17 301.87 152.67 302.00 C 154.18 302.13 155.68 302.00 157.18 302.00 C 158.69 302.00 160.19 305.44 161.69 302.00 C 163.19 298.56 164.70 282.43 166.20 281.37 C 167.70 280.32 169.20 296.98 170.71 295.65 C 172.21 294.33 173.71 273.57 175.22 273.44 C 176.72 273.31 178.22 293.41 179.72 294.86 C 181.23 296.31 182.73 282.17 184.23 282.17 C 185.73 282.17 187.24 296.18 188.74 294.86 C 190.24 293.54 191.75 275.95 193.25 274.23 C 194.75 272.51 196.25 281.64 197.76 284.55 C 199.26 287.46 200.76 288.78 202.27 291.69 C 203.77 294.60 205.27 303.59 206.77 302.00 C 208.28 300.41 209.78 283.22 211.28 282.17 C 212.78 281.11 214.29 292.35 215.79 295.65 C 217.29 298.96 218.80 301.34 220.30 302.00 C 221.80 302.66 223.30 303.98 224.81 299.62 C 226.31 295.26 227.81 303.45 229.31 275.82 C 230.82 248.19 232.32 133.95 233.82 133.81 C 235.33 133.68 236.83 249.51 238.33 275.03 C 239.83 300.55 241.34 282.43 242.84 286.93 C 244.34 291.42 245.85 301.87 247.35 302.00 C 248.85 302.13 250.35 287.98 251.86 287.72 C 253.36 287.46 254.86 300.28 256.36 300.41 C 257.87 300.55 259.37 289.44 260.87 288.51 C 262.38 287.59 263.88 295.65 265.38 294.86 C 266.88 294.07 268.39 285.74 269.89 283.75 C 271.39 281.77 272.90 284.41 274.40 282.96 C 275.90 281.51 277.40 272.91 278.91 275.03 C 280.41 277.14 281.91 291.16 283.41 295.65 C 284.92 300.15 286.42 303.85 287.92 302.00 C 289.43 300.15 290.93 287.59 292.43 284.55 C 293.93 281.51 295.44 282.03 296.94 283.75 C 298.44 285.47 299.94 294.60 301.45 294.86 C 302.95 295.12 304.45 285.60 305.96 285.34 C 307.46 285.08 308.96 292.35 310.46 293.27 C 311.97 294.20 313.47 291.16 314.97 290.89 C 316.48 290.63 317.98 290.50 319.48 291.69 C 320.98 292.88 322.49 296.31 323.99 298.03 C 325.49 299.75 326.99 302.26 328.50 302.00 C 330.00 301.74 331.50 296.45 333.01 296.45 C 334.51 296.45 336.01 301.07 337.51 302.00 C 339.02 302.93 340.52 302.00 342.02 302.00 C 343.52 302.00 345.03 302.00 346.53 302.00 C 348.03 302.00 349.54 303.19 351.04 302.00 C 352.54 300.81 354.04 294.86 355.55 294.86 C 357.05 294.86 358.55 300.81 360.06 302.00 C 361.56 303.19 363.06 303.45 364.56 302.00 C 366.07 300.55 367.57 293.93 369.07 293.27 C 370.57 292.61 372.08 296.58 373.58 298.03 C 375.08 299.49 376.59 301.34 378.09 302.00 C 379.59 302.66 381.09 302.40 382.60 302.00 C 384.10 301.60 385.60 299.88 387.10 299.62 C 388.61 299.36 390.11 300.81 391.61 300.41 C 393.12 300.02 394.62 300.81 396.12 297.24 C 397.62 293.67 399.13 279.26 400.63 278.99 C 402.13 278.73 403.64 291.82 405.14 295.65 C 406.64 299.49 408.14 302.40 409.65 302.00 C 411.15 301.60 412.65 297.11 414.15 293.27 C 415.66 289.44 417.16 279.39 418.66 278.99 C 420.17 278.60 421.67 287.19 423.17 290.89 C 424.67 294.60 426.18 303.72 427.68 301.21 C 429.18 298.69 430.69 280.98 432.19 275.82 C 433.69 270.66 435.19 269.74 436.70 270.27 C 438.20 270.80 439.70 274.63 441.20 278.99 C 442.71 283.36 444.21 292.61 445.71 296.45 C 447.22 300.28 448.72 301.47 450.22 302.00 C 451.72 302.53 453.23 299.62 454.73 299.62 C 456.23 299.62 457.73 301.60 459.24 302.00 C 460.74 302.40 462.24 302.00 463.75 302.00 C 465.25 302.00 466.75 304.64 468.25 302.00 C 469.76 299.36 471.26 288.65 472.76 286.13 C 474.27 283.62 475.77 285.21 477.27 286.93 C 478.77 288.65 480.28 294.46 481.78 296.45 C 483.28 298.43 484.78 298.30 486.29 298.83 C 487.79 299.36 489.29 299.09 490.80 299.62 C 492.30 300.15 493.80 302.40 495.30 302.00 C 496.81 301.60 498.31 297.64 499.81 297.24 C 501.31 296.84 502.82 301.21 504.32 299.62 C 505.82 298.03 507.33 288.12 508.83 287.72 C 510.33 287.32 511.83 295.92 513.34 297.24 C 514.84 298.56 516.34 296.58 517.85 295.65 C 519.35 294.73 520.85 299.75 522.35 291.69 C 523.86 283.62 525.36 251.49 526.86 247.26 C 528.36 243.03 529.87 294.46 531.37 266.30 C 532.87 238.14 534.38 100.49 535.88 78.28 C 537.38 56.07 538.88 108.29 540.39 133.02 C 541.89 157.75 543.39 207.06 544.90 226.63 C 546.40 246.20 547.90 249.11 549.40 250.43 C 550.91 251.76 552.41 230.47 553.91 234.57 C 555.41 238.67 556.92 263.79 558.42 275.03 C 559.92 286.27 561.43 298.30 562.93 302.00 C 564.43 305.70 565.93 297.77 567.44 297.24 C 568.94 296.71 570.44 301.87 571.94 298.83 C 573.45 295.79 574.95 278.99 576.45 278.99 C 577.96 278.99 579.46 300.28 580.96 298.83 C 582.46 297.37 583.97 275.82 585.47 270.27 C 586.97 264.71 588.48 260.22 589.98 265.51 C 591.48 270.80 592.98 297.24 594.49 302.00 C 595.99 306.76 597.49 294.07 598.99 294.07 C 600.50 294.07 602.00 302.53 603.50 302.00 C 605.01 301.47 606.51 292.22 608.01 290.89 C 609.51 289.57 611.02 303.59 612.52 294.07 C 614.02 284.55 615.52 238.40 617.03 233.77 C 618.53 229.15 620.03 267.62 621.54 266.30 C 623.04 264.98 624.54 228.75 626.04 225.84 C 627.55 222.93 629.05 249.24 630.55 248.85 C 632.06 248.45 633.56 222.80 635.06 223.46 C 636.56 224.12 638.07 249.11 639.57 252.81 C 641.07 256.52 642.57 238.00 644.08 245.67 C 645.58 253.34 647.08 292.22 648.59 298.83 C 650.09 305.44 651.59 289.70 653.09 285.34 C 654.60 280.98 656.10 287.72 657.60 272.65 C 659.10 257.57 660.61 195.30 662.11 194.90 C 663.61 194.50 665.12 253.08 666.62 270.27 C 668.12 287.46 669.62 293.80 671.13 298.03 C 672.63 302.26 674.13 296.18 675.64 295.65 C 677.14 295.12 678.64 297.50 680.14 294.86 C 681.65 292.22 683.15 281.24 684.65 279.79 C 686.15 278.33 687.66 282.96 689.16 286.13 C 690.66 289.31 692.17 297.50 693.67 298.83 C 695.17 300.15 696.67 294.86 698.18 294.07 C 699.68 293.27 701.18 293.01 702.69 294.07 C 704.19 295.12 705.69 299.88 707.19 300.41 C 708.70 300.94 710.20 297.24 711.70 297.24 C 713.20 297.24 714.71 299.88 716.21 300.41 C 717.71 300.94 719.22 309.54 720.72 300.41 C 722.22 291.29 723.72 248.19 725.23 245.67 C 726.73 243.16 728.23 282.83 729.73 285.34 C 731.24 287.85 732.74 260.09 734.24 260.75 C 735.75 261.41 737.25 285.21 738.75 289.31 C 740.25 293.41 741.76 283.62 743.26 285.34 C 744.76 287.06 746.27 297.11 747.77 299.62 C 749.27 302.13 750.77 300.28 752.28 300.41 C 753.78 300.55 755.28 300.41 756.78 300.41 C 758.29 300.41 759.79 300.81 761.29 300.41 C 762.80 300.02 764.30 305.57 765.80 298.03 C 767.30 290.50 768.81 255.99 770.31 255.19 C 771.81 254.40 773.31 289.57 774.82 293.27 C 776.32 296.98 777.82 277.67 779.33 277.41 C 780.83 277.14 782.33 291.55 783.83 291.69 C 785.34 291.82 786.84 279.13 788.34 278.20 C 789.85 277.27 791.35 282.70 792.85 286.13 C 794.35 289.57 795.86 296.45 797.36 298.83 C 798.86 301.21 800.36 300.15 801.87 300.41 C 803.37 300.68 804.87 300.41 806.38 300.41 C 807.88 300.41 809.38 300.55 810.88 300.41 C 812.39 300.28 813.89 302.93 815.39 299.62 C 816.90 296.31 818.40 280.71 819.90 280.58 C 821.40 280.45 822.91 299.49 824.41 298.83 C 825.91 298.17 827.41 276.35 828.92 276.61 C 830.42 276.88 831.92 298.03 833.43 300.41 C 834.93 302.79 836.43 302.66 837.93 290.89 C 839.44 279.13 840.94 237.08 842.44 229.81 C 843.94 222.53 845.45 241.44 846.95 247.26 C 848.45 253.08 849.96 260.09 851.46 264.71 C 852.96 269.34 854.46 269.34 855.97 275.03 C 857.47 280.71 858.97 299.49 860.48 298.83 C 861.98 298.17 863.48 274.37 864.98 271.06 C 866.49 267.75 867.99 275.42 869.49 278.99 C 870.99 282.56 873.25 290.23 874.00 292.48" fill="none" stroke="#22C55E" stroke-width="2.4" stroke-linecap="round" stroke-linejoin="round"/>
<circle cx="535.9" cy="78.3" r="4.5" fill="#4ADE80" stroke="#0B1120" stroke-width="2"/>
<text x="535.9" y="68.3" text-anchor="middle" font-family="ui-monospace,Menlo,monospace" font-size="10" font-weight="700" fill="#4ADE80">282</text>
<circle cx="874.0" cy="292.5" r="3.5" fill="#F8FAFC"/>
<text x="16" y="183" text-anchor="middle" font-family="ui-monospace,Menlo,monospace" font-size="10" fill="#94A3B8" transform="rotate(-90 16 183)">Contributions</text>
</svg>