<svg xmlns="http://www.w3.org/2000/svg" width="900" height="340" viewBox="0 0 900 340" role="img" aria-label="Contribution activity, last 6 months">
<defs>
<linearGradient id="bg" x1="0" y1="0" x2="0" y2="1"><stop offset="0" stop-color="#0F172A"/><stop offset="1" stop-color="#0B1120"/></linearGradient>
<linearGradient id="area" x1="0" y1="0" x2="0" y2="1"><stop offset="0" stop-color="#22C55E" stop-opacity="0.42"/><stop offset="0.7" stop-color="#22C55E" stop-opacity="0.08"/><stop offset="1" stop-color="#22C55E" stop-opacity="0"/></linearGradient>
</defs>
<rect x="0" y="0" width="900" height="340" rx="14" fill="url(#bg)"/>
<text x="450" y="32" text-anchor="middle" font-family="ui-monospace,Menlo,monospace" font-size="17" font-weight="700" fill="#F8FAFC" letter-spacing="0.5">last 6 months</text>
<text x="450" y="50" text-anchor="middle" font-family="ui-monospace,Menlo,monospace" font-size="11" fill="#94A3B8">3,962 contributions · peak 282</text>
<line x1="58" y1="302.0" x2="874" y2="302.0" stroke="#1E293B" stroke-width="1" stroke-dasharray="2 4"/>
<text x="48" y="305.5" text-anchor="end" font-family="ui-monospace,Menlo,monospace" font-size="10" fill="#94A3B8">0</text>
<line x1="58" y1="242.5" x2="874" y2="242.5" stroke="#1E293B" stroke-width="1" stroke-dasharray="2 4"/>
<text x="48" y="246.0" text-anchor="end" font-family="ui-monospace,Menlo,monospace" font-size="10" fill="#94A3B8">75</text>
<line x1="58" y1="183.0" x2="874" y2="183.0" stroke="#1E293B" stroke-width="1" stroke-dasharray="2 4"/>
<text x="48" y="186.5" text-anchor="end" font-family="ui-monospace,Menlo,monospace" font-size="10" fill="#94A3B8">150</text>
<line x1="58" y1="123.5" x2="874" y2="123.5" stroke="#1E293B" stroke-width="1" stroke-dasharray="2 4"/>
<text x="48" y="127.0" text-anchor="end" font-family="ui-monospace,Menlo,monospace" font-size="10" fill="#94A3B8">225</text>
<line x1="58" y1="64.0" x2="874" y2="64.0" stroke="#1E293B" stroke-width="1" stroke-dasharray="2 4"/>
<text x="48" y="67.5" text-anchor="end" font-family="ui-monospace,Menlo,monospace" font-size="10" fill="#94A3B8">300</text>
<line x1="58.0" y1="64" x2="58.0" y2="302" stroke="#1E293B" stroke-width="1" stroke-opacity="0.6"/>
<text x="58.0" y="322" text-anchor="middle" font-family="ui-monospace,Menlo,monospace" font-size="10" fill="#94A3B8">Jan</text>
<line x1="197.8" y1="64" x2="197.8" y2="302" stroke="#1E293B" stroke-width="1" stroke-opacity="0.6"/>
<text x="197.8" y="322" text-anchor="middle" font-family="ui-monospace,Menlo,monospace" font-size="10" fill="#94A3B8">Feb</text>
<line x1="324.0" y1="64" x2="324.0" y2="302" stroke="#1E293B" stroke-width="1" stroke-opacity="0.6"/>
<text x="324.0" y="322" text-anchor="middle" font-family="ui-monospace,Menlo,monospace" font-size="10" fill="#94A3B8">Mar</text>
<line x1="463.7" y1="64" x2="463.7" y2="302" stroke="#1E293B" stroke-width="1" stroke-opacity="0.6"/>
<text x="463.7" y="322" text-anchor="middle" font-family="ui-monospace,Menlo,monospace" font-size="10" fill="#94A3B8">Apr</text>
<line x1="599.0" y1="64" x2="599.0" y2="302" stroke="#1E293B" stroke-width="1" stroke-opacity="0.6"/>
<text x="599.0" y="322" text-anchor="middle" font-family="ui-monospace,Menlo,monospace" font-size="10" fill="#94A3B8">May</text>
<line x1="738.8" y1="64" x2="738.8" y2="302" stroke="#1E293B" stroke-width="1" stroke-opacity="0.6"/>
<text x="738.8" y="322" text-anchor="middle" font-family="ui-monospace,Menlo,monospace" font-size="10" fill="#94A3B8">Jun</text>
<line x1="874.0" y1="64" x2="874.0" y2="302" stroke="#1E293B" stroke-width="1" stroke-opacity="0.6"/>
<text x="874.0" y="322" text-anchor="middle" font-family="ui-monospace,Menlo,monospace" font-size="10" fill="#94A3B8">Jul</text>
<path d="M 58.00 302.00 C 58.75 302.00 61.01 302.00 62.51 302.00 C 64.01 302.00 65.51 302.00 67.02 302.00 C 68.52 302.00 70.02 302.00 71.52 302.00 C 73.03 302.00 74.53 302.93 76.03 302.00 C 77.54 301.07 79.04 299.49 80.54 296.45 C 82.04 293.41 83.55 287.06 85.05 283.75 C 86.55 280.45 88.06 273.70 89.56 276.61 C 91.06 279.52 92.56 296.98 94.07 301.21 C 95.57 305.44 97.07 301.87 98.57 302.00 C 100.08 302.13 101.58 302.26 103.08 302.00 C 104.59 301.74 106.09 300.41 107.59 300.41 C 109.09 300.41 110.60 302.93 112.10 302.00 C 113.60 301.07 115.10 295.26 116.61 294.86 C 118.11 294.46 119.61 299.49 121.12 299.62 C 122.62 299.75 124.12 301.07 125.62 295.65 C 127.13 290.23 128.63 271.06 130.13 267.09 C 131.64 263.13 133.14 268.42 134.64 271.85 C 136.14 275.29 137.65 284.55 139.15 287.72 C 140.65 290.89 142.15 288.78 143.66 290.89 C 145.16 293.01 146.66 298.96 148.17 300.41 C 149.67 301.87 151.17 299.49 152.67 299.62 C 154.18 299.75 155.68 300.81 157.18 301.21 C 158.69 301.60 160.19 301.87 161.69 302.00 C 163.19 302.13 164.70 302.00 166.20 302.00 C 167.70 302.00 169.20 305.44 170.71 302.00 C 172.21 298.56 173.71 282.43 175.22 281.37 C 176.72 280.32 178.22 296.98 179.72 295.65 C 181.23 294.33 182.73 273.57 184.23 273.44 C 185.73 273.31 187.24 293.41 188.74 294.86 C 190.24 296.31 191.75 282.17 193.25 282.17 C 194.75 282.17 196.25 296.18 197.76 294.86 C 199.26 293.54 200.76 275.95 202.27 274.23 C 203.77 272.51 205.27 281.64 206.77 284.55 C 208.28 287.46 209.78 288.78 211.28 291.69 C 212.78 294.60 214.29 303.59 215.79 302.00 C 217.29 300.41 218.80 283.22 220.30 282.17 C 221.80 281.11 223.30 292.35 224.81 295.65 C 226.31 298.96 227.81 301.34 229.31 302.00 C 230.82 302.66 232.32 303.98 233.82 299.62 C 235.33 295.26 236.83 303.45 238.33 275.82 C 239.83 248.19 241.34 133.95 242.84 133.81 C 244.34 133.68 245.85 249.51 247.35 275.03 C 248.85 300.55 250.35 282.43 251.86 286.93 C 253.36 291.42 254.86 301.87 256.36 302.00 C 257.87 302.13 259.37 287.98 260.87 287.72 C 262.38 287.46 263.88 300.28 265.38 300.41 C 266.88 300.55 268.39 289.44 269.89 288.51 C 271.39 287.59 272.90 295.65 274.40 294.86 C 275.90 294.07 277.40 285.74 278.91 283.75 C 280.41 281.77 281.91 284.41 283.41 282.96 C 284.92 281.51 286.42 272.91 287.92 275.03 C 289.43 277.14 290.93 291.16 292.43 295.65 C 293.93 300.15 295.44 303.85 296.94 302.00 C 298.44 300.15 299.94 287.59 301.45 284.55 C 302.95 281.51 304.45 282.03 305.96 283.75 C 307.46 285.47 308.96 294.60 310.46 294.86 C 311.97 295.12 313.47 285.60 314.97 285.34 C 316.48 285.08 317.98 292.35 319.48 293.27 C 320.98 294.20 322.49 291.16 323.99 290.89 C 325.49 290.63 326.99 290.50 328.50 291.69 C 330.00 292.88 331.50 296.31 333.01 298.03 C 334.51 299.75 336.01 302.26 337.51 302.00 C 339.02 301.74 340.52 296.45 342.02 296.45 C 343.52 296.45 345.03 301.07 346.53 302.00 C 348.03 302.93 349.54 302.00 351.04 302.00 C 352.54 302.00 354.04 302.00 355.55 302.00 C 357.05 302.00 358.55 303.19 360.06 302.00 C 361.56 300.81 363.06 294.86 364.56 294.86 C 366.07 294.86 367.57 300.81 369.07 302.00 C 370.57 303.19 372.08 303.45 373.58 302.00 C 375.08 300.55 376.59 293.93 378.09 293.27 C 379.59 292.61 381.09 296.58 382.60 298.03 C 384.10 299.49 385.60 301.34 387.10 302.00 C 388.61 302.66 390.11 302.40 391.61 302.00 C 393.12 301.60 394.62 299.88 396.12 299.62 C 397.62 299.36 399.13 300.81 400.63 300.41 C 402.13 300.02 403.64 300.81 405.14 297.24 C 406.64 293.67 408.14 279.26 409.65 278.99 C 411.15 278.73 412.65 291.82 414.15 295.65 C 415.66 299.49 417.16 302.40 418.66 302.00 C 420.17 301.60 421.67 297.11 423.17 293.27 C 424.67 289.44 426.18 279.39 427.68 278.99 C 429.18 278.60 430.69 287.19 432.19 290.89 C 433.69 294.60 435.19 303.72 436.70 301.21 C 438.20 298.69 439.70 280.98 441.20 275.82 C 442.71 270.66 444.21 269.74 445.71 270.27 C 447.22 270.80 448.72 274.63 450.22 278.99 C 451.72 283.36 453.23 292.61 454.73 296.45 C 456.23 300.28 457.73 301.47 459.24 302.00 C 460.74 302.53 462.24 299.62 463.75 299.62 C 465.25 299.62 466.75 301.60 468.25 302.00 C 469.76 302.40 471.26 302.00 472.76 302.00 C 474.27 302.00 475.77 304.64 477.27 302.00 C 478.77 299.36 480.28 288.65 481.78 286.13 C 483.28 283.62 484.78 285.21 486.29 286.93 C 487.79 288.65 489.29 294.46 490.80 296.45 C 492.30 298.43 493.80 298.30 495.30 298.83 C 496.81 299.36 498.31 299.09 499.81 299.62 C 501.31 300.15 502.82 302.40 504.32 302.00 C 505.82 301.60 507.33 297.64 508.83 297.24 C 510.33 296.84 511.83 301.21 513.34 299.62 C 514.84 298.03 516.34 288.12 517.85 287.72 C 519.35 287.32 520.85 295.92 522.35 297.24 C 523.86 298.56 525.36 296.58 526.86 295.65 C 528.36 294.73 529.87 299.75 531.37 291.69 C 532.87 283.62 534.38 251.49 535.88 247.26 C 537.38 243.03 538.88 294.46 540.39 266.30 C 541.89 238.14 543.39 100.49 544.90 78.28 C 546.40 56.07 547.90 108.29 549.40 133.02 C 550.91 157.75 552.41 207.06 553.91 226.63 C 555.41 246.20 556.92 249.11 558.42 250.43 C 559.92 251.76 561.43 230.47 562.93 234.57 C 564.43 238.67 565.93 263.79 567.44 275.03 C 568.94 286.27 570.44 298.30 571.94 302.00 C 573.45 305.70 574.95 297.77 576.45 297.24 C 577.96 296.71 579.46 301.87 580.96 298.83 C 582.46 295.79 583.97 278.99 585.47 278.99 C 586.97 278.99 588.48 300.28 589.98 298.83 C 591.48 297.37 592.98 275.82 594.49 270.27 C 595.99 264.71 597.49 260.22 598.99 265.51 C 600.50 270.80 602.00 297.24 603.50 302.00 C 605.01 306.76 606.51 294.07 608.01 294.07 C 609.51 294.07 611.02 302.53 612.52 302.00 C 614.02 301.47 615.52 292.22 617.03 290.89 C 618.53 289.57 620.03 303.59 621.54 294.07 C 623.04 284.55 624.54 238.40 626.04 233.77 C 627.55 229.15 629.05 267.62 630.55 266.30 C 632.06 264.98 633.56 228.75 635.06 225.84 C 636.56 222.93 638.07 249.24 639.57 248.85 C 641.07 248.45 642.57 222.80 644.08 223.46 C 645.58 224.12 647.08 249.11 648.59 252.81 C 650.09 256.52 651.59 238.00 653.09 245.67 C 654.60 253.34 656.10 292.22 657.60 298.83 C 659.10 305.44 660.61 289.70 662.11 285.34 C 663.61 280.98 665.12 287.72 666.62 272.65 C 668.12 257.57 669.62 195.30 671.13 194.90 C 672.63 194.50 674.13 253.08 675.64 270.27 C 677.14 287.46 678.64 293.80 680.14 298.03 C 681.65 302.26 683.15 296.18 684.65 295.65 C 686.15 295.12 687.66 297.50 689.16 294.86 C 690.66 292.22 692.17 281.24 693.67 279.79 C 695.17 278.33 696.67 282.96 698.18 286.13 C 699.68 289.31 701.18 297.50 702.69 298.83 C 704.19 300.15 705.69 294.86 707.19 294.07 C 708.70 293.27 710.20 293.01 711.70 294.07 C 713.20 295.12 714.71 299.88 716.21 300.41 C 717.71 300.94 719.22 297.24 720.72 297.24 C 722.22 297.24 723.72 299.88 725.23 300.41 C 726.73 300.94 728.23 309.54 729.73 300.41 C 731.24 291.29 732.74 248.19 734.24 245.67 C 735.75 243.16 737.25 282.83 738.75 285.34 C 740.25 287.85 741.76 260.09 743.26 260.75 C 744.76 261.41 746.27 285.21 747.77 289.31 C 749.27 293.41 750.77 283.62 752.28 285.34 C 753.78 287.06 755.28 297.11 756.78 299.62 C 758.29 302.13 759.79 300.28 761.29 300.41 C 762.80 300.55 764.30 300.41 765.80 300.41 C 767.30 300.41 768.81 300.81 770.31 300.41 C 771.81 300.02 773.31 305.57 774.82 298.03 C 776.32 290.50 777.82 255.99 779.33 255.19 C 780.83 254.40 782.33 289.57 783.83 293.27 C 785.34 296.98 786.84 277.67 788.34 277.41 C 789.85 277.14 791.35 291.55 792.85 291.69 C 794.35 291.82 795.86 279.13 797.36 278.20 C 798.86 277.27 800.36 282.70 801.87 286.13 C 803.37 289.57 804.87 296.45 806.38 298.83 C 807.88 301.21 809.38 300.15 810.88 300.41 C 812.39 300.68 813.89 300.41 815.39 300.41 C 816.90 300.41 818.40 300.55 819.90 300.41 C 821.40 300.28 822.91 302.93 824.41 299.62 C 825.91 296.31 827.41 280.71 828.92 280.58 C 830.42 280.45 831.92 299.49 833.43 298.83 C 834.93 298.17 836.43 276.35 837.93 276.61 C 839.44 276.88 840.94 298.03 842.44 300.41 C 843.94 302.79 845.45 302.66 846.95 290.89 C 848.45 279.13 849.96 237.08 851.46 229.81 C 852.96 222.53 854.46 241.44 855.97 247.26 C 857.47 253.08 858.97 260.09 860.48 264.71 C 861.98 269.34 863.48 269.34 864.98 275.03 C 866.49 280.71 867.99 296.58 869.49 298.83 C 870.99 301.07 873.25 290.23 874.00 288.51 L 874.00 302.00 L 58.00 302.00 Z" fill="url(#area)"/>
<path d="M 58.00 302.00 C 58.75 302.00 61.01 302.00 62.51 302.00 C 64.01 302.00 65.51 302.00 67.02 302.00 C 68.52 302.00 70.02 302.00 71.52 302.00 C 73.03 302.00 74.53 302.93 76.03 302.00 C 77.54 301.07 79.04 299.49 80.54 296.45 C 82.04 293.41 83.55 287.06 85.05 283.75 C 86.55 280.45 88.06 273.70 89.56 276.61 C 91.06 279.52 92.56 296.98 94.07 301.21 C 95.57 305.44 97.07 301.87 98.57 302.00 C 100.08 302.13 101.58 302.26 103.08 302.00 C 104.59 301.74 106.09 300.41 107.59 300.41 C 109.09 300.41 110.60 302.93 112.10 302.00 C 113.60 301.07 115.10 295.26 116.61 294.86 C 118.11 294.46 119.61 299.49 121.12 299.62 C 122.62 299.75 124.12 301.07 125.62 295.65 C 127.13 290.23 128.63 271.06 130.13 267.09 C 131.64 263.13 133.14 268.42 134.64 271.85 C 136.14 275.29 137.65 284.55 139.15 287.72 C 140.65 290.89 142.15 288.78 143.66 290.89 C 145.16 293.01 146.66 298.96 148.17 300.41 C 149.67 301.87 151.17 299.49 152.67 299.62 C 154.18 299.75 155.68 300.81 157.18 301.21 C 158.69 301.60 160.19 301.87 161.69 302.00 C 163.19 302.13 164.70 302.00 166.20 302.00 C 167.70 302.00 169.20 305.44 170.71 302.00 C 172.21 298.56 173.71 282.43 175.22 281.37 C 176.72 280.32 178.22 296.98 179.72 295.65 C 181.23 294.33 182.73 273.57 184.23 273.44 C 185.73 273.31 187.24 293.41 188.74 294.86 C 190.24 296.31 191.75 282.17 193.25 282.17 C 194.75 282.17 196.25 296.18 197.76 294.86 C 199.26 293.54 200.76 275.95 202.27 274.23 C 203.77 272.51 205.27 281.64 206.77 284.55 C 208.28 287.46 209.78 288.78 211.28 291.69 C 212.78 294.60 214.29 303.59 215.79 302.00 C 217.29 300.41 218.80 283.22 220.30 282.17 C 221.80 281.11 223.30 292.35 224.81 295.65 C 226.31 298.96 227.81 301.34 229.31 302.00 C 230.82 302.66 232.32 303.98 233.82 299.62 C 235.33 295.26 236.83 303.45 238.33 275.82 C 239.83 248.19 241.34 133.95 242.84 133.81 C 244.34 133.68 245.85 249.51 247.35 275.03 C 248.85 300.55 250.35 282.43 251.86 286.93 C 253.36 291.42 254.86 301.87 256.36 302.00 C 257.87 302.13 259.37 287.98 260.87 287.72 C 262.38 287.46 263.88 300.28 265.38 300.41 C 266.88 300.55 268.39 289.44 269.89 288.51 C 271.39 287.59 272.90 295.65 274.40 294.86 C 275.90 294.07 277.40 285.74 278.91 283.75 C 280.41 281.77 281.91 284.41 283.41 282.96 C 284.92 281.51 286.42 272.91 287.92 275.03 C 289.43 277.14 290.93 291.16 292.43 295.65 C 293.93 300.15 295.44 303.85 296.94 302.00 C 298.44 300.15 299.94 287.59 301.45 284.55 C 302.95 281.51 304.45 282.03 305.96 283.75 C 307.46 285.47 308.96 294.60 310.46 294.86 C 311.97 295.12 313.47 285.60 314.97 285.34 C 316.48 285.08 317.98 292.35 319.48 293.27 C 320.98 294.20 322.49 291.16 323.99 290.89 C 325.49 290.63 326.99 290.50 328.50 291.69 C 330.00 292.88 331.50 296.31 333.01 298.03 C 334.51 299.75 336.01 302.26 337.51 302.00 C 339.02 301.74 340.52 296.45 342.02 296.45 C 343.52 296.45 345.03 301.07 346.53 302.00 C 348.03 302.93 349.54 302.00 351.04 302.00 C 352.54 302.00 354.04 302.00 355.55 302.00 C 357.05 302.00 358.55 303.19 360.06 302.00 C 361.56 300.81 363.06 294.86 364.56 294.86 C 366.07 294.86 367.57 300.81 369.07 302.00 C 370.57 303.19 372.08 303.45 373.58 302.00 C 375.08 300.55 376.59 293.93 378.09 293.27 C 379.59 292.61 381.09 296.58 382.60 298.03 C 384.10 299.49 385.60 301.34 387.10 302.00 C 388.61 302.66 390.11 302.40 391.61 302.00 C 393.12 301.60 394.62 299.88 396.12 299.62 C 397.62 299.36 399.13 300.81 400.63 300.41 C 402.13 300.02 403.64 300.81 405.14 297.24 C 406.64 293.67 408.14 279.26 409.65 278.99 C 411.15 278.73 412.65 291.82 414.15 295.65 C 415.66 299.49 417.16 302.40 418.66 302.00 C 420.17 301.60 421.67 297.11 423.17 293.27 C 424.67 289.44 426.18 279.39 427.68 278.99 C 429.18 278.60 430.69 287.19 432.19 290.89 C 433.69 294.60 435.19 303.72 436.70 301.21 C 438.20 298.69 439.70 280.98 441.20 275.82 C 442.71 270.66 444.21 269.74 445.71 270.27 C 447.22 270.80 448.72 274.63 450.22 278.99 C 451.72 283.36 453.23 292.61 454.73 296.45 C 456.23 300.28 457.73 301.47 459.24 302.00 C 460.74 302.53 462.24 299.62 463.75 299.62 C 465.25 299.62 466.75 301.60 468.25 302.00 C 469.76 302.40 471.26 302.00 472.76 302.00 C 474.27 302.00 475.77 304.64 477.27 302.00 C 478.77 299.36 480.28 288.65 481.78 286.13 C 483.28 283.62 484.78 285.21 486.29 286.93 C 487.79 288.65 489.29 294.46 490.80 296.45 C 492.30 298.43 493.80 298.30 495.30 298.83 C 496.81 299.36 498.31 299.09 499.81 299.62 C 501.31 300.15 502.82 302.40 504.32 302.00 C 505.82 301.60 507.33 297.64 508.83 297.24 C 510.33 296.84 511.83 301.21 513.34 299.62 C 514.84 298.03 516.34 288.12 517.85 287.72 C 519.35 287.32 520.85 295.92 522.35 297.24 C 523.86 298.56 525.36 296.58 526.86 295.65 C 528.36 294.73 529.87 299.75 531.37 291.69 C 532.87 283.62 534.38 251.49 535.88 247.26 C 537.38 243.03 538.88 294.46 540.39 266.30 C 541.89 238.14 543.39 100.49 544.90 78.28 C 546.40 56.07 547.90 108.29 549.40 133.02 C 550.91 157.75 552.41 207.06 553.91 226.63 C 555.41 246.20 556.92 249.11 558.42 250.43 C 559.92 251.76 561.43 230.47 562.93 234.57 C 564.43 238.67 565.93 263.79 567.44 275.03 C 568.94 286.27 570.44 298.30 571.94 302.00 C 573.45 305.70 574.95 297.77 576.45 297.24 C 577.96 296.71 579.46 301.87 580.96 298.83 C 582.46 295.79 583.97 278.99 585.47 278.99 C 586.97 278.99 588.48 300.28 589.98 298.83 C 591.48 297.37 592.98 275.82 594.49 270.27 C 595.99 264.71 597.49 260.22 598.99 265.51 C 600.50 270.80 602.00 297.24 603.50 302.00 C 605.01 306.76 606.51 294.07 608.01 294.07 C 609.51 294.07 611.02 302.53 612.52 302.00 C 614.02 301.47 615.52 292.22 617.03 290.89 C 618.53 289.57 620.03 303.59 621.54 294.07 C 623.04 284.55 624.54 238.40 626.04 233.77 C 627.55 229.15 629.05 267.62 630.55 266.30 C 632.06 264.98 633.56 228.75 635.06 225.84 C 636.56 222.93 638.07 249.24 639.57 248.85 C 641.07 248.45 642.57 222.80 644.08 223.46 C 645.58 224.12 647.08 249.11 648.59 252.81 C 650.09 256.52 651.59 238.00 653.09 245.67 C 654.60 253.34 656.10 292.22 657.60 298.83 C 659.10 305.44 660.61 289.70 662.11 285.34 C 663.61 280.98 665.12 287.72 666.62 272.65 C 668.12 257.57 669.62 195.30 671.13 194.90 C 672.63 194.50 674.13 253.08 675.64 270.27 C 677.14 287.46 678.64 293.80 680.14 298.03 C 681.65 302.26 683.15 296.18 684.65 295.65 C 686.15 295.12 687.66 297.50 689.16 294.86 C 690.66 292.22 692.17 281.24 693.67 279.79 C 695.17 278.33 696.67 282.96 698.18 286.13 C 699.68 289.31 701.18 297.50 702.69 298.83 C 704.19 300.15 705.69 294.86 707.19 294.07 C 708.70 293.27 710.20 293.01 711.70 294.07 C 713.20 295.12 714.71 299.88 716.21 300.41 C 717.71 300.94 719.22 297.24 720.72 297.24 C 722.22 297.24 723.72 299.88 725.23 300.41 C 726.73 300.94 728.23 309.54 729.73 300.41 C 731.24 291.29 732.74 248.19 734.24 245.67 C 735.75 243.16 737.25 282.83 738.75 285.34 C 740.25 287.85 741.76 260.09 743.26 260.75 C 744.76 261.41 746.27 285.21 747.77 289.31 C 749.27 293.41 750.77 283.62 752.28 285.34 C 753.78 287.06 755.28 297.11 756.78 299.62 C 758.29 302.13 759.79 300.28 761.29 300.41 C 762.80 300.55 764.30 300.41 765.80 300.41 C 767.30 300.41 768.81 300.81 770.31 300.41 C 771.81 300.02 773.31 305.57 774.82 298.03 C 776.32 290.50 777.82 255.99 779.33 255.19 C 780.83 254.40 782.33 289.57 783.83 293.27 C 785.34 296.98 786.84 277.67 788.34 277.41 C 789.85 277.14 791.35 291.55 792.85 291.69 C 794.35 291.82 795.86 279.13 797.36 278.20 C 798.86 277.27 800.36 282.70 801.87 286.13 C 803.37 289.57 804.87 296.45 806.38 298.83 C 807.88 301.21 809.38 300.15 810.88 300.41 C 812.39 300.68 813.89 300.41 815.39 300.41 C 816.90 300.41 818.40 300.55 819.90 300.41 C 821.40 300.28 822.91 302.93 824.41 299.62 C 825.91 296.31 827.41 280.71 828.92 280.58 C 830.42 280.45 831.92 299.49 833.43 298.83 C 834.93 298.17 836.43 276.35 837.93 276.61 C 839.44 276.88 840.94 298.03 842.44 300.41 C 843.94 302.79 845.45 302.66 846.95 290.89 C 848.45 279.13 849.96 237.08 851.46 229.81 C 852.96 222.53 854.46 241.44 855.97 247.26 C 857.47 253.08 858.97 260.09 860.48 264.71 C 861.98 269.34 863.48 269.34 864.98 275.03 C 866.49 280.71 867.99 296.58 869.49 298.83 C 870.99 301.07 873.25 290.23 874.00 288.51" fill="none" stroke="#22C55E" stroke-opacity="0.20" stroke-width="7" stroke-linecap="round" stroke-linejoin="round"/>
<path d="M 58.00 302.00 C 58.75 302.00 61.01 302.00 62.51 302.00 C 64.01 302.00 65.51 302.00 67.02 302.00 C 68.52 302.00 70.02 302.00 71.52 302.00 C 73.03 302.00 74.53 302.93 76.03 302.00 C 77.54 301.07 79.04 299.49 80.54 296.45 C 82.04 293.41 83.55 287.06 85.05 283.75 C 86.55 280.45 88.06 273.70 89.56 276.61 C 91.06 279.52 92.56 296.98 94.07 301.21 C 95.57 305.44 97.07 301.87 98.57 302.00 C 100.08 302.13 101.58 302.26 103.08 302.00 C 104.59 301.74 106.09 300.41 107.59 300.41 C 109.09 300.41 110.60 302.93 112.10 302.00 C 113.60 301.07 115.10 295.26 116.61 294.86 C 118.11 294.46 119.61 299.49 121.12 299.62 C 122.62 299.75 124.12 301.07 125.62 295.65 C 127.13 290.23 128.63 271.06 130.13 267.09 C 131.64 263.13 133.14 268.42 134.64 271.85 C 136.14 275.29 137.65 284.55 139.15 287.72 C 140.65 290.89 142.15 288.78 143.66 290.89 C 145.16 293.01 146.66 298.96 148.17 300.41 C 149.67 301.87 151.17 299.49 152.67 299.62 C 154.18 299.75 155.68 300.81 157.18 301.21 C 158.69 301.60 160.19 301.87 161.69 302.00 C 163.19 302.13 164.70 302.00 166.20 302.00 C 167.70 302.00 169.20 305.44 170.71 302.00 C 172.21 298.56 173.71 282.43 175.22 281.37 C 176.72 280.32 178.22 296.98 179.72 295.65 C 181.23 294.33 182.73 273.57 184.23 273.44 C 185.73 273.31 187.24 293.41 188.74 294.86 C 190.24 296.31 191.75 282.17 193.25 282.17 C 194.75 282.17 196.25 296.18 197.76 294.86 C 199.26 293.54 200.76 275.95 202.27 274.23 C 203.77 272.51 205.27 281.64 206.77 284.55 C 208.28 287.46 209.78 288.78 211.28 291.69 C 212.78 294.60 214.29 303.59 215.79 302.00 C 217.29 300.41 218.80 283.22 220.30 282.17 C 221.80 281.11 223.30 292.35 224.81 295.65 C 226.31 298.96 227.81 301.34 229.31 302.00 C 230.82 302.66 232.32 303.98 233.82 299.62 C 235.33 295.26 236.83 303.45 238.33 275.82 C 239.83 248.19 241.34 133.95 242.84 133.81 C 244.34 133.68 245.85 249.51 247.35 275.03 C 248.85 300.55 250.35 282.43 251.86 286.93 C 253.36 291.42 254.86 301.87 256.36 302.00 C 257.87 302.13 259.37 287.98 260.87 287.72 C 262.38 287.46 263.88 300.28 265.38 300.41 C 266.88 300.55 268.39 289.44 269.89 288.51 C 271.39 287.59 272.90 295.65 274.40 294.86 C 275.90 294.07 277.40 285.74 278.91 283.75 C 280.41 281.77 281.91 284.41 283.41 282.96 C 284.92 281.51 286.42 272.91 287.92 275.03 C 289.43 277.14 290.93 291.16 292.43 295.65 C 293.93 300.15 295.44 303.85 296.94 302.00 C 298.44 300.15 299.94 287.59 301.45 284.55 C 302.95 281.51 304.45 282.03 305.96 283.75 C 307.46 285.47 308.96 294.60 310.46 294.86 C 311.97 295.12 313.47 285.60 314.97 285.34 C 316.48 285.08 317.98 292.35 319.48 293.27 C 320.98 294.20 322.49 291.16 323.99 290.89 C 325.49 290.63 326.99 290.50 328.50 291.69 C 330.00 292.88 331.50 296.31 333.01 298.03 C 334.51 299.75 336.01 302.26 337.51 302.00 C 339.02 301.74 340.52 296.45 342.02 296.45 C 343.52 296.45 345.03 301.07 346.53 302.00 C 348.03 302.93 349.54 302.00 351.04 302.00 C 352.54 302.00 354.04 302.00 355.55 302.00 C 357.05 302.00 358.55 303.19 360.06 302.00 C 361.56 300.81 363.06 294.86 364.56 294.86 C 366.07 294.86 367.57 300.81 369.07 302.00 C 370.57 303.19 372.08 303.45 373.58 302.00 C 375.08 300.55 376.59 293.93 378.09 293.27 C 379.59 292.61 381.09 296.58 382.60 298.03 C 384.10 299.49 385.60 301.34 387.10 302.00 C 388.61 302.66 390.11 302.40 391.61 302.00 C 393.12 301.60 394.62 299.88 396.12 299.62 C 397.62 299.36 399.13 300.81 400.63 300.41 C 402.13 300.02 403.64 300.81 405.14 297.24 C 406.64 293.67 408.14 279.26 409.65 278.99 C 411.15 278.73 412.65 291.82 414.15 295.65 C 415.66 299.49 417.16 302.40 418.66 302.00 C 420.17 301.60 421.67 297.11 423.17 293.27 C 424.67 289.44 426.18 279.39 427.68 278.99 C 429.18 278.60 430.69 287.19 432.19 290.89 C 433.69 294.60 435.19 303.72 436.70 301.21 C 438.20 298.69 439.70 280.98 441.20 275.82 C 442.71 270.66 444.21 269.74 445.71 270.27 C 447.22 270.80 448.72 274.63 450.22 278.99 C 451.72 283.36 453.23 292.61 454.73 296.45 C 456.23 300.28 457.73 301.47 459.24 302.00 C 460.74 302.53 462.24 299.62 463.75 299.62 C 465.25 299.62 466.75 301.60 468.25 302.00 C 469.76 302.40 471.26 302.00 472.76 302.00 C 474.27 302.00 475.77 304.64 477.27 302.00 C 478.77 299.36 480.28 288.65 481.78 286.13 C 483.28 283.62 484.78 285.21 486.29 286.93 C 487.79 288.65 489.29 294.46 490.80 296.45 C 492.30 298.43 493.80 298.30 495.30 298.83 C 496.81 299.36 498.31 299.09 499.81 299.62 C 501.31 300.15 502.82 302.40 504.32 302.00 C 505.82 301.60 507.33 297.64 508.83 297.24 C 510.33 296.84 511.83 301.21 513.34 299.62 C 514.84 298.03 516.34 288.12 517.85 287.72 C 519.35 287.32 520.85 295.92 522.35 297.24 C 523.86 298.56 525.36 296.58 526.86 295.65 C 528.36 294.73 529.87 299.75 531.37 291.69 C 532.87 283.62 534.38 251.49 535.88 247.26 C 537.38 243.03 538.88 294.46 540.39 266.30 C 541.89 238.14 543.39 100.49 544.90 78.28 C 546.40 56.07 547.90 108.29 549.40 133.02 C 550.91 157.75 552.41 207.06 553.91 226.63 C 555.41 246.20 556.92 249.11 558.42 250.43 C 559.92 251.76 561.43 230.47 562.93 234.57 C 564.43 238.67 565.93 263.79 567.44 275.03 C 568.94 286.27 570.44 298.30 571.94 302.00 C 573.45 305.70 574.95 297.77 576.45 297.24 C 577.96 296.71 579.46 301.87 580.96 298.83 C 582.46 295.79 583.97 278.99 585.47 278.99 C 586.97 278.99 588.48 300.28 589.98 298.83 C 591.48 297.37 592.98 275.82 594.49 270.27 C 595.99 264.71 597.49 260.22 598.99 265.51 C 600.50 270.80 602.00 297.24 603.50 302.00 C 605.01 306.76 606.51 294.07 608.01 294.07 C 609.51 294.07 611.02 302.53 612.52 302.00 C 614.02 301.47 615.52 292.22 617.03 290.89 C 618.53 289.57 620.03 303.59 621.54 294.07 C 623.04 284.55 624.54 238.40 626.04 233.77 C 627.55 229.15 629.05 267.62 630.55 266.30 C 632.06 264.98 633.56 228.75 635.06 225.84 C 636.56 222.93 638.07 249.24 639.57 248.85 C 641.07 248.45 642.57 222.80 644.08 223.46 C 645.58 224.12 647.08 249.11 648.59 252.81 C 650.09 256.52 651.59 238.00 653.09 245.67 C 654.60 253.34 656.10 292.22 657.60 298.83 C 659.10 305.44 660.61 289.70 662.11 285.34 C 663.61 280.98 665.12 287.72 666.62 272.65 C 668.12 257.57 669.62 195.30 671.13 194.90 C 672.63 194.50 674.13 253.08 675.64 270.27 C 677.14 287.46 678.64 293.80 680.14 298.03 C 681.65 302.26 683.15 296.18 684.65 295.65 C 686.15 295.12 687.66 297.50 689.16 294.86 C 690.66 292.22 692.17 281.24 693.67 279.79 C 695.17 278.33 696.67 282.96 698.18 286.13 C 699.68 289.31 701.18 297.50 702.69 298.83 C 704.19 300.15 705.69 294.86 707.19 294.07 C 708.70 293.27 710.20 293.01 711.70 294.07 C 713.20 295.12 714.71 299.88 716.21 300.41 C 717.71 300.94 719.22 297.24 720.72 297.24 C 722.22 297.24 723.72 299.88 725.23 300.41 C 726.73 300.94 728.23 309.54 729.73 300.41 C 731.24 291.29 732.74 248.19 734.24 245.67 C 735.75 243.16 737.25 282.83 738.75 285.34 C 740.25 287.85 741.76 260.09 743.26 260.75 C 744.76 261.41 746.27 285.21 747.77 289.31 C 749.27 293.41 750.77 283.62 752.28 285.34 C 753.78 287.06 755.28 297.11 756.78 299.62 C 758.29 302.13 759.79 300.28 761.29 300.41 C 762.80 300.55 764.30 300.41 765.80 300.41 C 767.30 300.41 768.81 300.81 770.31 300.41 C 771.81 300.02 773.31 305.57 774.82 298.03 C 776.32 290.50 777.82 255.99 779.33 255.19 C 780.83 254.40 782.33 289.57 783.83 293.27 C 785.34 296.98 786.84 277.67 788.34 277.41 C 789.85 277.14 791.35 291.55 792.85 291.69 C 794.35 291.82 795.86 279.13 797.36 278.20 C 798.86 277.27 800.36 282.70 801.87 286.13 C 803.37 289.57 804.87 296.45 806.38 298.83 C 807.88 301.21 809.38 300.15 810.88 300.41 C 812.39 300.68 813.89 300.41 815.39 300.41 C 816.90 300.41 818.40 300.55 819.90 300.41 C 821.40 300.28 822.91 302.93 824.41 299.62 C 825.91 296.31 827.41 280.71 828.92 280.58 C 830.42 280.45 831.92 299.49 833.43 298.83 C 834.93 298.17 836.43 276.35 837.93 276.61 C 839.44 276.88 840.94 298.03 842.44 300.41 C 843.94 302.79 845.45 302.66 846.95 290.89 C 848.45 279.13 849.96 237.08 851.46 229.81 C 852.96 222.53 854.46 241.44 855.97 247.26 C 857.47 253.08 858.97 260.09 860.48 264.71 C 861.98 269.34 863.48 269.34 864.98 275.03 C 866.49 280.71 867.99 296.58 869.49 298.83 C 870.99 301.07 873.25 290.23 874.00 288.51" fill="none" stroke="#22C55E" stroke-width="2.4" stroke-linecap="round" stroke-linejoin="round"/>
<circle cx="544.9" cy="78.3" r="4.5" fill="#4ADE80" stroke="#0B1120" stroke-width="2"/>
<text x="544.9" y="68.3" text-anchor="middle" font-family="ui-monospace,Menlo,monospace" font-size="10" font-weight="700" fill="#4ADE80">282</text>
<circle cx="874.0" cy="288.5" r="3.5" fill="#F8FAFC"/>
<text x="16" y="183" text-anchor="middle" font-family="ui-monospace,Menlo,monospace" font-size="10" fill="#94A3B8" transform="rotate(-90 16 183)">Contributions</text>
</svg>