<svg xmlns="http://www.w3.org/2000/svg" width="900" height="340" viewBox="0 0 900 340" role="img" aria-label="Contribution activity, last 6 months">
<defs>
<linearGradient id="bg" x1="0" y1="0" x2="0" y2="1"><stop offset="0" stop-color="#0F172A"/><stop offset="1" stop-color="#0B1120"/></linearGradient>
<linearGradient id="area" x1="0" y1="0" x2="0" y2="1"><stop offset="0" stop-color="#22C55E" stop-opacity="0.42"/><stop offset="0.7" stop-color="#22C55E" stop-opacity="0.08"/><stop offset="1" stop-color="#22C55E" stop-opacity="0"/></linearGradient>
</defs>
<rect x="0" y="0" width="900" height="340" rx="14" fill="url(#bg)"/>
<text x="450" y="32" text-anchor="middle" font-family="ui-monospace,Menlo,monospace" font-size="17" font-weight="700" fill="#F8FAFC" letter-spacing="0.5">last 6 months</text>
<text x="450" y="50" text-anchor="middle" font-family="ui-monospace,Menlo,monospace" font-size="11" fill="#94A3B8">4,444 contributions · peak 282</text>
<line x1="58" y1="302.0" x2="874" y2="302.0" stroke="#1E293B" stroke-width="1" stroke-dasharray="2 4"/>
<text x="48" y="305.5" text-anchor="end" font-family="ui-monospace,Menlo,monospace" font-size="10" fill="#94A3B8">0</text>
<line x1="58" y1="242.5" x2="874" y2="242.5" stroke="#1E293B" stroke-width="1" stroke-dasharray="2 4"/>
<text x="48" y="246.0" text-anchor="end" font-family="ui-monospace,Menlo,monospace" font-size="10" fill="#94A3B8">75</text>
<line x1="58" y1="183.0" x2="874" y2="183.0" stroke="#1E293B" stroke-width="1" stroke-dasharray="2 4"/>
<text x="48" y="186.5" text-anchor="end" font-family="ui-monospace,Menlo,monospace" font-size="10" fill="#94A3B8">150</text>
<line x1="58" y1="123.5" x2="874" y2="123.5" stroke="#1E293B" stroke-width="1" stroke-dasharray="2 4"/>
<text x="48" y="127.0" text-anchor="end" font-family="ui-monospace,Menlo,monospace" font-size="10" fill="#94A3B8">225</text>
<line x1="58" y1="64.0" x2="874" y2="64.0" stroke="#1E293B" stroke-width="1" stroke-dasharray="2 4"/>
<text x="48" y="67.5" text-anchor="end" font-family="ui-monospace,Menlo,monospace" font-size="10" fill="#94A3B8">300</text>
<line x1="184.2" y1="64" x2="184.2" y2="302" stroke="#1E293B" stroke-width="1" stroke-opacity="0.6"/>
<text x="184.2" y="322" text-anchor="middle" font-family="ui-monospace,Menlo,monospace" font-size="10" fill="#94A3B8">May</text>
<line x1="324.0" y1="64" x2="324.0" y2="302" stroke="#1E293B" stroke-width="1" stroke-opacity="0.6"/>
<text x="324.0" y="322" text-anchor="middle" font-family="ui-monospace,Menlo,monospace" font-size="10" fill="#94A3B8">Jun</text>
<line x1="459.2" y1="64" x2="459.2" y2="302" stroke="#1E293B" stroke-width="1" stroke-opacity="0.6"/>
<text x="459.2" y="322" text-anchor="middle" font-family="ui-monospace,Menlo,monospace" font-size="10" fill="#94A3B8">Jul</text>
<line x1="599.0" y1="64" x2="599.0" y2="302" stroke="#1E293B" stroke-width="1" stroke-opacity="0.6"/>
<text x="599.0" y="322" text-anchor="middle" font-family="ui-monospace,Menlo,monospace" font-size="10" fill="#94A3B8">Aug</text>
<line x1="738.8" y1="64" x2="738.8" y2="302" stroke="#1E293B" stroke-width="1" stroke-opacity="0.6"/>
<text x="738.8" y="322" text-anchor="middle" font-family="ui-monospace,Menlo,monospace" font-size="10" fill="#94A3B8">Sep</text>
<line x1="874.0" y1="64" x2="874.0" y2="302" stroke="#1E293B" stroke-width="1" stroke-opacity="0.6"/>
<text x="874.0" y="322" text-anchor="middle" font-family="ui-monospace,Menlo,monospace" font-size="10" fill="#94A3B8">Oct</text>
<path d="M 58.00 302.00 C 58.75 302.00 61.01 304.64 62.51 302.00 C 64.01 299.36 65.51 288.65 67.02 286.13 C 68.52 283.62 70.02 285.21 71.52 286.93 C 73.03 288.65 74.53 294.46 76.03 296.45 C 77.54 298.43 79.04 298.30 80.54 298.83 C 82.04 299.36 83.55 299.09 85.05 299.62 C 86.55 300.15 88.06 302.40 89.56 302.00 C 91.06 301.60 92.56 297.64 94.07 297.24 C 95.57 296.84 97.07 301.21 98.57 299.62 C 100.08 298.03 101.58 288.12 103.08 287.72 C 104.59 287.32 106.09 295.92 107.59 297.24 C 109.09 298.56 110.60 296.58 112.10 295.65 C 113.60 294.73 115.10 299.75 116.61 291.69 C 118.11 283.62 119.61 251.49 121.12 247.26 C 122.62 243.03 124.12 294.46 125.62 266.30 C 127.13 238.14 128.63 100.49 130.13 78.28 C 131.64 56.07 133.14 108.29 134.64 133.02 C 136.14 157.75 137.65 207.06 139.15 226.63 C 140.65 246.20 142.15 249.11 143.66 250.43 C 145.16 251.76 146.66 230.47 148.17 234.57 C 149.67 238.67 151.17 263.79 152.67 275.03 C 154.18 286.27 155.68 298.30 157.18 302.00 C 158.69 305.70 160.19 297.77 161.69 297.24 C 163.19 296.71 164.70 301.87 166.20 298.83 C 167.70 295.79 169.20 278.99 170.71 278.99 C 172.21 278.99 173.71 300.28 175.22 298.83 C 176.72 297.37 178.22 275.82 179.72 270.27 C 181.23 264.71 182.73 260.22 184.23 265.51 C 185.73 270.80 187.24 297.24 188.74 302.00 C 190.24 306.76 191.75 294.07 193.25 294.07 C 194.75 294.07 196.25 302.53 197.76 302.00 C 199.26 301.47 200.76 292.22 202.27 290.89 C 203.77 289.57 205.27 303.59 206.77 294.07 C 208.28 284.55 209.78 238.40 211.28 233.77 C 212.78 229.15 214.29 267.62 215.79 266.30 C 217.29 264.98 218.80 228.75 220.30 225.84 C 221.80 222.93 223.30 249.24 224.81 248.85 C 226.31 248.45 227.81 222.80 229.31 223.46 C 230.82 224.12 232.32 249.11 233.82 252.81 C 235.33 256.52 236.83 238.00 238.33 245.67 C 239.83 253.34 241.34 292.22 242.84 298.83 C 244.34 305.44 245.85 289.70 247.35 285.34 C 248.85 280.98 250.35 287.72 251.86 272.65 C 253.36 257.57 254.86 195.30 256.36 194.90 C 257.87 194.50 259.37 253.08 260.87 270.27 C 262.38 287.46 263.88 293.80 265.38 298.03 C 266.88 302.26 268.39 296.18 269.89 295.65 C 271.39 295.12 272.90 297.50 274.40 294.86 C 275.90 292.22 277.40 281.24 278.91 279.79 C 280.41 278.33 281.91 282.96 283.41 286.13 C 284.92 289.31 286.42 297.50 287.92 298.83 C 289.43 300.15 290.93 294.86 292.43 294.07 C 293.93 293.27 295.44 293.01 296.94 294.07 C 298.44 295.12 299.94 299.88 301.45 300.41 C 302.95 300.94 304.45 297.24 305.96 297.24 C 307.46 297.24 308.96 299.88 310.46 300.41 C 311.97 300.94 313.47 309.54 314.97 300.41 C 316.48 291.29 317.98 248.19 319.48 245.67 C 320.98 243.16 322.49 282.83 323.99 285.34 C 325.49 287.85 326.99 260.09 328.50 260.75 C 330.00 261.41 331.50 285.21 333.01 289.31 C 334.51 293.41 336.01 283.62 337.51 285.34 C 339.02 287.06 340.52 297.11 342.02 299.62 C 343.52 302.13 345.03 300.28 346.53 300.41 C 348.03 300.55 349.54 300.41 351.04 300.41 C 352.54 300.41 354.04 300.81 355.55 300.41 C 357.05 300.02 358.55 305.57 360.06 298.03 C 361.56 290.50 363.06 255.99 364.56 255.19 C 366.07 254.40 367.57 289.57 369.07 293.27 C 370.57 296.98 372.08 277.54 373.58 277.41 C 375.08 277.27 376.59 292.35 378.09 292.48 C 379.59 292.61 381.09 279.26 382.60 278.20 C 384.10 277.14 385.60 282.70 387.10 286.13 C 388.61 289.57 390.11 296.45 391.61 298.83 C 393.12 301.21 394.62 300.15 396.12 300.41 C 397.62 300.68 399.13 300.41 400.63 300.41 C 402.13 300.41 403.64 300.55 405.14 300.41 C 406.64 300.28 408.14 302.93 409.65 299.62 C 411.15 296.31 412.65 280.71 414.15 280.58 C 415.66 280.45 417.16 299.49 418.66 298.83 C 420.17 298.17 421.67 276.35 423.17 276.61 C 424.67 276.88 426.18 298.03 427.68 300.41 C 429.18 302.79 430.69 302.66 432.19 290.89 C 433.69 279.13 435.19 237.08 436.70 229.81 C 438.20 222.53 439.70 241.44 441.20 247.26 C 442.71 253.08 444.21 260.09 445.71 264.71 C 447.22 269.34 448.72 269.34 450.22 275.03 C 451.72 280.71 453.23 299.49 454.73 298.83 C 456.23 298.17 457.73 275.29 459.24 271.06 C 460.74 266.83 462.24 272.38 463.75 273.44 C 465.25 274.50 466.75 274.63 468.25 277.41 C 469.76 280.18 471.26 287.59 472.76 290.10 C 474.27 292.61 475.77 291.03 477.27 292.48 C 478.77 293.93 480.28 300.28 481.78 298.83 C 483.28 297.37 484.78 284.55 486.29 283.75 C 487.79 282.96 489.29 293.93 490.80 294.07 C 492.30 294.20 493.80 284.28 495.30 284.55 C 496.81 284.81 498.31 293.01 499.81 295.65 C 501.31 298.30 502.82 304.12 504.32 300.41 C 505.82 296.71 507.33 279.52 508.83 273.44 C 510.33 267.36 511.83 261.01 513.34 263.92 C 514.84 266.83 516.34 284.81 517.85 290.89 C 519.35 296.98 520.85 298.83 522.35 300.41 C 523.86 302.00 525.36 302.66 526.86 300.41 C 528.36 298.17 529.87 289.57 531.37 286.93 C 532.87 284.28 534.38 282.30 535.88 284.55 C 537.38 286.79 538.88 297.50 540.39 300.41 C 541.89 303.32 543.39 301.74 544.90 302.00 C 546.40 302.26 547.90 302.00 549.40 302.00 C 550.91 302.00 552.41 303.59 553.91 302.00 C 555.41 300.41 556.92 296.71 558.42 292.48 C 559.92 288.25 561.43 275.42 562.93 276.61 C 564.43 277.80 565.93 296.58 567.44 299.62 C 568.94 302.66 570.44 294.73 571.94 294.86 C 573.45 294.99 574.95 299.88 576.45 300.41 C 577.96 300.94 579.46 298.03 580.96 298.03 C 582.46 298.03 583.97 300.81 585.47 300.41 C 586.97 300.02 588.48 298.17 589.98 295.65 C 591.48 293.14 592.98 291.16 594.49 285.34 C 595.99 279.52 597.49 258.50 598.99 260.75 C 600.50 262.99 602.00 297.50 603.50 298.83 C 605.01 300.15 606.51 273.97 608.01 268.68 C 609.51 263.39 611.02 261.80 612.52 267.09 C 614.02 272.38 615.52 295.92 617.03 300.41 C 618.53 304.91 620.03 294.86 621.54 294.07 C 623.04 293.27 624.54 296.71 626.04 295.65 C 627.55 294.60 629.05 291.82 630.55 287.72 C 632.06 283.62 633.56 268.94 635.06 271.06 C 636.56 273.18 638.07 297.24 639.57 300.41 C 641.07 303.59 642.57 293.14 644.08 290.10 C 645.58 287.06 647.08 280.58 648.59 282.17 C 650.09 283.75 651.59 299.62 653.09 299.62 C 654.60 299.62 656.10 289.17 657.60 282.17 C 659.10 275.16 660.61 255.85 662.11 257.57 C 663.61 259.29 665.12 285.74 666.62 292.48 C 668.12 299.22 669.62 296.98 671.13 298.03 C 672.63 299.09 674.13 302.00 675.64 298.83 C 677.14 295.65 678.64 283.75 680.14 278.99 C 681.65 274.23 683.15 266.70 684.65 270.27 C 686.15 273.84 687.66 295.39 689.16 300.41 C 690.66 305.44 692.17 302.26 693.67 300.41 C 695.17 298.56 696.67 291.69 698.18 289.31 C 699.68 286.93 701.18 284.55 702.69 286.13 C 704.19 287.72 705.69 296.84 707.19 298.83 C 708.70 300.81 710.20 298.17 711.70 298.03 C 713.20 297.90 714.71 298.96 716.21 298.03 C 717.71 297.11 719.22 293.14 720.72 292.48 C 722.22 291.82 723.72 296.58 725.23 294.07 C 726.73 291.55 728.23 277.41 729.73 277.41 C 731.24 277.41 732.74 292.22 734.24 294.07 C 735.75 295.92 737.25 287.72 738.75 288.51 C 740.25 289.31 741.76 296.98 743.26 298.83 C 744.76 300.68 746.27 299.49 747.77 299.62 C 749.27 299.75 750.77 299.62 752.28 299.62 C 753.78 299.62 755.28 299.62 756.78 299.62 C 758.29 299.62 759.79 299.49 761.29 299.62 C 762.80 299.75 764.30 303.85 765.80 300.41 C 767.30 296.98 768.81 283.22 770.31 278.99 C 771.81 274.76 773.31 275.03 774.82 275.03 C 776.32 275.03 777.82 279.13 779.33 278.99 C 780.83 278.86 782.33 270.53 783.83 274.23 C 785.34 277.94 786.84 296.84 788.34 301.21 C 789.85 305.57 791.35 300.41 792.85 300.41 C 794.35 300.41 795.86 301.07 797.36 301.21 C 798.86 301.34 800.36 301.21 801.87 301.21 C 803.37 301.21 804.87 301.21 806.38 301.21 C 807.88 301.21 809.38 301.21 810.88 301.21 C 812.39 301.21 813.89 301.21 815.39 301.21 C 816.90 301.21 818.40 301.21 819.90 301.21 C 821.40 301.21 822.91 302.93 824.41 301.21 C 825.91 299.49 827.41 292.22 828.92 290.89 C 830.42 289.57 831.92 293.93 833.43 293.27 C 834.93 292.61 836.43 291.03 837.93 286.93 C 839.44 282.83 840.94 271.72 842.44 268.68 C 843.94 265.64 845.45 282.56 846.95 268.68 C 848.45 254.80 849.96 201.38 851.46 185.38 C 852.96 169.38 854.46 166.08 855.97 172.69 C 857.47 179.30 858.97 206.01 860.48 225.05 C 861.98 244.09 863.48 274.37 864.98 286.93 C 866.49 299.49 867.99 298.03 869.49 300.41 C 870.99 302.79 873.25 301.07 874.00 301.21 L 874.00 302.00 L 58.00 302.00 Z" fill="url(#area)"/>
<path d="M 58.00 302.00 C 58.75 302.00 61.01 304.64 62.51 302.00 C 64.01 299.36 65.51 288.65 67.02 286.13 C 68.52 283.62 70.02 285.21 71.52 286.93 C 73.03 288.65 74.53 294.46 76.03 296.45 C 77.54 298.43 79.04 298.30 80.54 298.83 C 82.04 299.36 83.55 299.09 85.05 299.62 C 86.55 300.15 88.06 302.40 89.56 302.00 C 91.06 301.60 92.56 297.64 94.07 297.24 C 95.57 296.84 97.07 301.21 98.57 299.62 C 100.08 298.03 101.58 288.12 103.08 287.72 C 104.59 287.32 106.09 295.92 107.59 297.24 C 109.09 298.56 110.60 296.58 112.10 295.65 C 113.60 294.73 115.10 299.75 116.61 291.69 C 118.11 283.62 119.61 251.49 121.12 247.26 C 122.62 243.03 124.12 294.46 125.62 266.30 C 127.13 238.14 128.63 100.49 130.13 78.28 C 131.64 56.07 133.14 108.29 134.64 133.02 C 136.14 157.75 137.65 207.06 139.15 226.63 C 140.65 246.20 142.15 249.11 143.66 250.43 C 145.16 251.76 146.66 230.47 148.17 234.57 C 149.67 238.67 151.17 263.79 152.67 275.03 C 154.18 286.27 155.68 298.30 157.18 302.00 C 158.69 305.70 160.19 297.77 161.69 297.24 C 163.19 296.71 164.70 301.87 166.20 298.83 C 167.70 295.79 169.20 278.99 170.71 278.99 C 172.21 278.99 173.71 300.28 175.22 298.83 C 176.72 297.37 178.22 275.82 179.72 270.27 C 181.23 264.71 182.73 260.22 184.23 265.51 C 185.73 270.80 187.24 297.24 188.74 302.00 C 190.24 306.76 191.75 294.07 193.25 294.07 C 194.75 294.07 196.25 302.53 197.76 302.00 C 199.26 301.47 200.76 292.22 202.27 290.89 C 203.77 289.57 205.27 303.59 206.77 294.07 C 208.28 284.55 209.78 238.40 211.28 233.77 C 212.78 229.15 214.29 267.62 215.79 266.30 C 217.29 264.98 218.80 228.75 220.30 225.84 C 221.80 222.93 223.30 249.24 224.81 248.85 C 226.31 248.45 227.81 222.80 229.31 223.46 C 230.82 224.12 232.32 249.11 233.82 252.81 C 235.33 256.52 236.83 238.00 238.33 245.67 C 239.83 253.34 241.34 292.22 242.84 298.83 C 244.34 305.44 245.85 289.70 247.35 285.34 C 248.85 280.98 250.35 287.72 251.86 272.65 C 253.36 257.57 254.86 195.30 256.36 194.90 C 257.87 194.50 259.37 253.08 260.87 270.27 C 262.38 287.46 263.88 293.80 265.38 298.03 C 266.88 302.26 268.39 296.18 269.89 295.65 C 271.39 295.12 272.90 297.50 274.40 294.86 C 275.90 292.22 277.40 281.24 278.91 279.79 C 280.41 278.33 281.91 282.96 283.41 286.13 C 284.92 289.31 286.42 297.50 287.92 298.83 C 289.43 300.15 290.93 294.86 292.43 294.07 C 293.93 293.27 295.44 293.01 296.94 294.07 C 298.44 295.12 299.94 299.88 301.45 300.41 C 302.95 300.94 304.45 297.24 305.96 297.24 C 307.46 297.24 308.96 299.88 310.46 300.41 C 311.97 300.94 313.47 309.54 314.97 300.41 C 316.48 291.29 317.98 248.19 319.48 245.67 C 320.98 243.16 322.49 282.83 323.99 285.34 C 325.49 287.85 326.99 260.09 328.50 260.75 C 330.00 261.41 331.50 285.21 333.01 289.31 C 334.51 293.41 336.01 283.62 337.51 285.34 C 339.02 287.06 340.52 297.11 342.02 299.62 C 343.52 302.13 345.03 300.28 346.53 300.41 C 348.03 300.55 349.54 300.41 351.04 300.41 C 352.54 300.41 354.04 300.81 355.55 300.41 C 357.05 300.02 358.55 305.57 360.06 298.03 C 361.56 290.50 363.06 255.99 364.56 255.19 C 366.07 254.40 367.57 289.57 369.07 293.27 C 370.57 296.98 372.08 277.54 373.58 277.41 C 375.08 277.27 376.59 292.35 378.09 292.48 C 379.59 292.61 381.09 279.26 382.60 278.20 C 384.10 277.14 385.60 282.70 387.10 286.13 C 388.61 289.57 390.11 296.45 391.61 298.83 C 393.12 301.21 394.62 300.15 396.12 300.41 C 397.62 300.68 399.13 300.41 400.63 300.41 C 402.13 300.41 403.64 300.55 405.14 300.41 C 406.64 300.28 408.14 302.93 409.65 299.62 C 411.15 296.31 412.65 280.71 414.15 280.58 C 415.66 280.45 417.16 299.49 418.66 298.83 C 420.17 298.17 421.67 276.35 423.17 276.61 C 424.67 276.88 426.18 298.03 427.68 300.41 C 429.18 302.79 430.69 302.66 432.19 290.89 C 433.69 279.13 435.19 237.08 436.70 229.81 C 438.20 222.53 439.70 241.44 441.20 247.26 C 442.71 253.08 444.21 260.09 445.71 264.71 C 447.22 269.34 448.72 269.34 450.22 275.03 C 451.72 280.71 453.23 299.49 454.73 298.83 C 456.23 298.17 457.73 275.29 459.24 271.06 C 460.74 266.83 462.24 272.38 463.75 273.44 C 465.25 274.50 466.75 274.63 468.25 277.41 C 469.76 280.18 471.26 287.59 472.76 290.10 C 474.27 292.61 475.77 291.03 477.27 292.48 C 478.77 293.93 480.28 300.28 481.78 298.83 C 483.28 297.37 484.78 284.55 486.29 283.75 C 487.79 282.96 489.29 293.93 490.80 294.07 C 492.30 294.20 493.80 284.28 495.30 284.55 C 496.81 284.81 498.31 293.01 499.81 295.65 C 501.31 298.30 502.82 304.12 504.32 300.41 C 505.82 296.71 507.33 279.52 508.83 273.44 C 510.33 267.36 511.83 261.01 513.34 263.92 C 514.84 266.83 516.34 284.81 517.85 290.89 C 519.35 296.98 520.85 298.83 522.35 300.41 C 523.86 302.00 525.36 302.66 526.86 300.41 C 528.36 298.17 529.87 289.57 531.37 286.93 C 532.87 284.28 534.38 282.30 535.88 284.55 C 537.38 286.79 538.88 297.50 540.39 300.41 C 541.89 303.32 543.39 301.74 544.90 302.00 C 546.40 302.26 547.90 302.00 549.40 302.00 C 550.91 302.00 552.41 303.59 553.91 302.00 C 555.41 300.41 556.92 296.71 558.42 292.48 C 559.92 288.25 561.43 275.42 562.93 276.61 C 564.43 277.80 565.93 296.58 567.44 299.62 C 568.94 302.66 570.44 294.73 571.94 294.86 C 573.45 294.99 574.95 299.88 576.45 300.41 C 577.96 300.94 579.46 298.03 580.96 298.03 C 582.46 298.03 583.97 300.81 585.47 300.41 C 586.97 300.02 588.48 298.17 589.98 295.65 C 591.48 293.14 592.98 291.16 594.49 285.34 C 595.99 279.52 597.49 258.50 598.99 260.75 C 600.50 262.99 602.00 297.50 603.50 298.83 C 605.01 300.15 606.51 273.97 608.01 268.68 C 609.51 263.39 611.02 261.80 612.52 267.09 C 614.02 272.38 615.52 295.92 617.03 300.41 C 618.53 304.91 620.03 294.86 621.54 294.07 C 623.04 293.27 624.54 296.71 626.04 295.65 C 627.55 294.60 629.05 291.82 630.55 287.72 C 632.06 283.62 633.56 268.94 635.06 271.06 C 636.56 273.18 638.07 297.24 639.57 300.41 C 641.07 303.59 642.57 293.14 644.08 290.10 C 645.58 287.06 647.08 280.58 648.59 282.17 C 650.09 283.75 651.59 299.62 653.09 299.62 C 654.60 299.62 656.10 289.17 657.60 282.17 C 659.10 275.16 660.61 255.85 662.11 257.57 C 663.61 259.29 665.12 285.74 666.62 292.48 C 668.12 299.22 669.62 296.98 671.13 298.03 C 672.63 299.09 674.13 302.00 675.64 298.83 C 677.14 295.65 678.64 283.75 680.14 278.99 C 681.65 274.23 683.15 266.70 684.65 270.27 C 686.15 273.84 687.66 295.39 689.16 300.41 C 690.66 305.44 692.17 302.26 693.67 300.41 C 695.17 298.56 696.67 291.69 698.18 289.31 C 699.68 286.93 701.18 284.55 702.69 286.13 C 704.19 287.72 705.69 296.84 707.19 298.83 C 708.70 300.81 710.20 298.17 711.70 298.03 C 713.20 297.90 714.71 298.96 716.21 298.03 C 717.71 297.11 719.22 293.14 720.72 292.48 C 722.22 291.82 723.72 296.58 725.23 294.07 C 726.73 291.55 728.23 277.41 729.73 277.41 C 731.24 277.41 732.74 292.22 734.24 294.07 C 735.75 295.92 737.25 287.72 738.75 288.51 C 740.25 289.31 741.76 296.98 743.26 298.83 C 744.76 300.68 746.27 299.49 747.77 299.62 C 749.27 299.75 750.77 299.62 752.28 299.62 C 753.78 299.62 755.28 299.62 756.78 299.62 C 758.29 299.62 759.79 299.49 761.29 299.62 C 762.80 299.75 764.30 303.85 765.80 300.41 C 767.30 296.98 768.81 283.22 770.31 278.99 C 771.81 274.76 773.31 275.03 774.82 275.03 C 776.32 275.03 777.82 279.13 779.33 278.99 C 780.83 278.86 782.33 270.53 783.83 274.23 C 785.34 277.94 786.84 296.84 788.34 301.21 C 789.85 305.57 791.35 300.41 792.85 300.41 C 794.35 300.41 795.86 301.07 797.36 301.21 C 798.86 301.34 800.36 301.21 801.87 301.21 C 803.37 301.21 804.87 301.21 806.38 301.21 C 807.88 301.21 809.38 301.21 810.88 301.21 C 812.39 301.21 813.89 301.21 815.39 301.21 C 816.90 301.21 818.40 301.21 819.90 301.21 C 821.40 301.21 822.91 302.93 824.41 301.21 C 825.91 299.49 827.41 292.22 828.92 290.89 C 830.42 289.57 831.92 293.93 833.43 293.27 C 834.93 292.61 836.43 291.03 837.93 286.93 C 839.44 282.83 840.94 271.72 842.44 268.68 C 843.94 265.64 845.45 282.56 846.95 268.68 C 848.45 254.80 849.96 201.38 851.46 185.38 C 852.96 169.38 854.46 166.08 855.97 172.69 C 857.47 179.30 858.97 206.01 860.48 225.05 C 861.98 244.09 863.48 274.37 864.98 286.93 C 866.49 299.49 867.99 298.03 869.49 300.41 C 870.99 302.79 873.25 301.07 874.00 301.21" fill="none" stroke="#22C55E" stroke-opacity="0.20" stroke-width="7" stroke-linecap="round" stroke-linejoin="round"/>
<path d="M 58.00 302.00 C 58.75 302.00 61.01 304.64 62.51 302.00 C 64.01 299.36 65.51 288.65 67.02 286.13 C 68.52 283.62 70.02 285.21 71.52 286.93 C 73.03 288.65 74.53 294.46 76.03 296.45 C 77.54 298.43 79.04 298.30 80.54 298.83 C 82.04 299.36 83.55 299.09 85.05 299.62 C 86.55 300.15 88.06 302.40 89.56 302.00 C 91.06 301.60 92.56 297.64 94.07 297.24 C 95.57 296.84 97.07 301.21 98.57 299.62 C 100.08 298.03 101.58 288.12 103.08 287.72 C 104.59 287.32 106.09 295.92 107.59 297.24 C 109.09 298.56 110.60 296.58 112.10 295.65 C 113.60 294.73 115.10 299.75 116.61 291.69 C 118.11 283.62 119.61 251.49 121.12 247.26 C 122.62 243.03 124.12 294.46 125.62 266.30 C 127.13 238.14 128.63 100.49 130.13 78.28 C 131.64 56.07 133.14 108.29 134.64 133.02 C 136.14 157.75 137.65 207.06 139.15 226.63 C 140.65 246.20 142.15 249.11 143.66 250.43 C 145.16 251.76 146.66 230.47 148.17 234.57 C 149.67 238.67 151.17 263.79 152.67 275.03 C 154.18 286.27 155.68 298.30 157.18 302.00 C 158.69 305.70 160.19 297.77 161.69 297.24 C 163.19 296.71 164.70 301.87 166.20 298.83 C 167.70 295.79 169.20 278.99 170.71 278.99 C 172.21 278.99 173.71 300.28 175.22 298.83 C 176.72 297.37 178.22 275.82 179.72 270.27 C 181.23 264.71 182.73 260.22 184.23 265.51 C 185.73 270.80 187.24 297.24 188.74 302.00 C 190.24 306.76 191.75 294.07 193.25 294.07 C 194.75 294.07 196.25 302.53 197.76 302.00 C 199.26 301.47 200.76 292.22 202.27 290.89 C 203.77 289.57 205.27 303.59 206.77 294.07 C 208.28 284.55 209.78 238.40 211.28 233.77 C 212.78 229.15 214.29 267.62 215.79 266.30 C 217.29 264.98 218.80 228.75 220.30 225.84 C 221.80 222.93 223.30 249.24 224.81 248.85 C 226.31 248.45 227.81 222.80 229.31 223.46 C 230.82 224.12 232.32 249.11 233.82 252.81 C 235.33 256.52 236.83 238.00 238.33 245.67 C 239.83 253.34 241.34 292.22 242.84 298.83 C 244.34 305.44 245.85 289.70 247.35 285.34 C 248.85 280.98 250.35 287.72 251.86 272.65 C 253.36 257.57 254.86 195.30 256.36 194.90 C 257.87 194.50 259.37 253.08 260.87 270.27 C 262.38 287.46 263.88 293.80 265.38 298.03 C 266.88 302.26 268.39 296.18 269.89 295.65 C 271.39 295.12 272.90 297.50 274.40 294.86 C 275.90 292.22 277.40 281.24 278.91 279.79 C 280.41 278.33 281.91 282.96 283.41 286.13 C 284.92 289.31 286.42 297.50 287.92 298.83 C 289.43 300.15 290.93 294.86 292.43 294.07 C 293.93 293.27 295.44 293.01 296.94 294.07 C 298.44 295.12 299.94 299.88 301.45 300.41 C 302.95 300.94 304.45 297.24 305.96 297.24 C 307.46 297.24 308.96 299.88 310.46 300.41 C 311.97 300.94 313.47 309.54 314.97 300.41 C 316.48 291.29 317.98 248.19 319.48 245.67 C 320.98 243.16 322.49 282.83 323.99 285.34 C 325.49 287.85 326.99 260.09 328.50 260.75 C 330.00 261.41 331.50 285.21 333.01 289.31 C 334.51 293.41 336.01 283.62 337.51 285.34 C 339.02 287.06 340.52 297.11 342.02 299.62 C 343.52 302.13 345.03 300.28 346.53 300.41 C 348.03 300.55 349.54 300.41 351.04 300.41 C 352.54 300.41 354.04 300.81 355.55 300.41 C 357.05 300.02 358.55 305.57 360.06 298.03 C 361.56 290.50 363.06 255.99 364.56 255.19 C 366.07 254.40 367.57 289.57 369.07 293.27 C 370.57 296.98 372.08 277.54 373.58 277.41 C 375.08 277.27 376.59 292.35 378.09 292.48 C 379.59 292.61 381.09 279.26 382.60 278.20 C 384.10 277.14 385.60 282.70 387.10 286.13 C 388.61 289.57 390.11 296.45 391.61 298.83 C 393.12 301.21 394.62 300.15 396.12 300.41 C 397.62 300.68 399.13 300.41 400.63 300.41 C 402.13 300.41 403.64 300.55 405.14 300.41 C 406.64 300.28 408.14 302.93 409.65 299.62 C 411.15 296.31 412.65 280.71 414.15 280.58 C 415.66 280.45 417.16 299.49 418.66 298.83 C 420.17 298.17 421.67 276.35 423.17 276.61 C 424.67 276.88 426.18 298.03 427.68 300.41 C 429.18 302.79 430.69 302.66 432.19 290.89 C 433.69 279.13 435.19 237.08 436.70 229.81 C 438.20 222.53 439.70 241.44 441.20 247.26 C 442.71 253.08 444.21 260.09 445.71 264.71 C 447.22 269.34 448.72 269.34 450.22 275.03 C 451.72 280.71 453.23 299.49 454.73 298.83 C 456.23 298.17 457.73 275.29 459.24 271.06 C 460.74 266.83 462.24 272.38 463.75 273.44 C 465.25 274.50 466.75 274.63 468.25 277.41 C 469.76 280.18 471.26 287.59 472.76 290.10 C 474.27 292.61 475.77 291.03 477.27 292.48 C 478.77 293.93 480.28 300.28 481.78 298.83 C 483.28 297.37 484.78 284.55 486.29 283.75 C 487.79 282.96 489.29 293.93 490.80 294.07 C 492.30 294.20 493.80 284.28 495.30 284.55 C 496.81 284.81 498.31 293.01 499.81 295.65 C 501.31 298.30 502.82 304.12 504.32 300.41 C 505.82 296.71 507.33 279.52 508.83 273.44 C 510.33 267.36 511.83 261.01 513.34 263.92 C 514.84 266.83 516.34 284.81 517.85 290.89 C 519.35 296.98 520.85 298.83 522.35 300.41 C 523.86 302.00 525.36 302.66 526.86 300.41 C 528.36 298.17 529.87 289.57 531.37 286.93 C 532.87 284.28 534.38 282.30 535.88 284.55 C 537.38 286.79 538.88 297.50 540.39 300.41 C 541.89 303.32 543.39 301.74 544.90 302.00 C 546.40 302.26 547.90 302.00 549.40 302.00 C 550.91 302.00 552.41 303.59 553.91 302.00 C 555.41 300.41 556.92 296.71 558.42 292.48 C 559.92 288.25 561.43 275.42 562.93 276.61 C 564.43 277.80 565.93 296.58 567.44 299.62 C 568.94 302.66 570.44 294.73 571.94 294.86 C 573.45 294.99 574.95 299.88 576.45 300.41 C 577.96 300.94 579.46 298.03 580.96 298.03 C 582.46 298.03 583.97 300.81 585.47 300.41 C 586.97 300.02 588.48 298.17 589.98 295.65 C 591.48 293.14 592.98 291.16 594.49 285.34 C 595.99 279.52 597.49 258.50 598.99 260.75 C 600.50 262.99 602.00 297.50 603.50 298.83 C 605.01 300.15 606.51 273.97 608.01 268.68 C 609.51 263.39 611.02 261.80 612.52 267.09 C 614.02 272.38 615.52 295.92 617.03 300.41 C 618.53 304.91 620.03 294.86 621.54 294.07 C 623.04 293.27 624.54 296.71 626.04 295.65 C 627.55 294.60 629.05 291.82 630.55 287.72 C 632.06 283.62 633.56 268.94 635.06 271.06 C 636.56 273.18 638.07 297.24 639.57 300.41 C 641.07 303.59 642.57 293.14 644.08 290.10 C 645.58 287.06 647.08 280.58 648.59 282.17 C 650.09 283.75 651.59 299.62 653.09 299.62 C 654.60 299.62 656.10 289.17 657.60 282.17 C 659.10 275.16 660.61 255.85 662.11 257.57 C 663.61 259.29 665.12 285.74 666.62 292.48 C 668.12 299.22 669.62 296.98 671.13 298.03 C 672.63 299.09 674.13 302.00 675.64 298.83 C 677.14 295.65 678.64 283.75 680.14 278.99 C 681.65 274.23 683.15 266.70 684.65 270.27 C 686.15 273.84 687.66 295.39 689.16 300.41 C 690.66 305.44 692.17 302.26 693.67 300.41 C 695.17 298.56 696.67 291.69 698.18 289.31 C 699.68 286.93 701.18 284.55 702.69 286.13 C 704.19 287.72 705.69 296.84 707.19 298.83 C 708.70 300.81 710.20 298.17 711.70 298.03 C 713.20 297.90 714.71 298.96 716.21 298.03 C 717.71 297.11 719.22 293.14 720.72 292.48 C 722.22 291.82 723.72 296.58 725.23 294.07 C 726.73 291.55 728.23 277.41 729.73 277.41 C 731.24 277.41 732.74 292.22 734.24 294.07 C 735.75 295.92 737.25 287.72 738.75 288.51 C 740.25 289.31 741.76 296.98 743.26 298.83 C 744.76 300.68 746.27 299.49 747.77 299.62 C 749.27 299.75 750.77 299.62 752.28 299.62 C 753.78 299.62 755.28 299.62 756.78 299.62 C 758.29 299.62 759.79 299.49 761.29 299.62 C 762.80 299.75 764.30 303.85 765.80 300.41 C 767.30 296.98 768.81 283.22 770.31 278.99 C 771.81 274.76 773.31 275.03 774.82 275.03 C 776.32 275.03 777.82 279.13 779.33 278.99 C 780.83 278.86 782.33 270.53 783.83 274.23 C 785.34 277.94 786.84 296.84 788.34 301.21 C 789.85 305.57 791.35 300.41 792.85 300.41 C 794.35 300.41 795.86 301.07 797.36 301.21 C 798.86 301.34 800.36 301.21 801.87 301.21 C 803.37 301.21 804.87 301.21 806.38 301.21 C 807.88 301.21 809.38 301.21 810.88 301.21 C 812.39 301.21 813.89 301.21 815.39 301.21 C 816.90 301.21 818.40 301.21 819.90 301.21 C 821.40 301.21 822.91 302.93 824.41 301.21 C 825.91 299.49 827.41 292.22 828.92 290.89 C 830.42 289.57 831.92 293.93 833.43 293.27 C 834.93 292.61 836.43 291.03 837.93 286.93 C 839.44 282.83 840.94 271.72 842.44 268.68 C 843.94 265.64 845.45 282.56 846.95 268.68 C 848.45 254.80 849.96 201.38 851.46 185.38 C 852.96 169.38 854.46 166.08 855.97 172.69 C 857.47 179.30 858.97 206.01 860.48 225.05 C 861.98 244.09 863.48 274.37 864.98 286.93 C 866.49 299.49 867.99 298.03 869.49 300.41 C 870.99 302.79 873.25 301.07 874.00 301.21" fill="none" stroke="#22C55E" stroke-width="2.4" stroke-linecap="round" stroke-linejoin="round"/>
<circle cx="130.1" cy="78.3" r="4.5" fill="#4ADE80" stroke="#0B1120" stroke-width="2"/>
<text x="130.1" y="68.3" text-anchor="middle" font-family="ui-monospace,Menlo,monospace" font-size="10" font-weight="700" fill="#4ADE80">282</text>
<circle cx="874.0" cy="301.2" r="3.5" fill="#F8FAFC"/>
<text x="16" y="183" text-anchor="middle" font-family="ui-monospace,Menlo,monospace" font-size="10" fill="#94A3B8" transform="rotate(-90 16 183)">Contributions</text>
</svg>