<svg xmlns="http://www.w3.org/2000/svg" width="900" height="340" viewBox="0 0 900 340" role="img" aria-label="Contribution activity, last 6 months">
<defs>
<linearGradient id="bg" x1="0" y1="0" x2="0" y2="1"><stop offset="0" stop-color="#0F172A"/><stop offset="1" stop-color="#0B1120"/></linearGradient>
<linearGradient id="area" x1="0" y1="0" x2="0" y2="1"><stop offset="0" stop-color="#22C55E" stop-opacity="0.42"/><stop offset="0.7" stop-color="#22C55E" stop-opacity="0.08"/><stop offset="1" stop-color="#22C55E" stop-opacity="0"/></linearGradient>
</defs>
<rect x="0" y="0" width="900" height="340" rx="14" fill="url(#bg)"/>
<text x="450" y="32" text-anchor="middle" font-family="ui-monospace,Menlo,monospace" font-size="17" font-weight="700" fill="#F8FAFC" letter-spacing="0.5">last 6 months</text>
<text x="450" y="50" text-anchor="middle" font-family="ui-monospace,Menlo,monospace" font-size="11" fill="#94A3B8">4,073 contributions · peak 282</text>
<line x1="58" y1="302.0" x2="874" y2="302.0" stroke="#1E293B" stroke-width="1" stroke-dasharray="2 4"/>
<text x="48" y="305.5" text-anchor="end" font-family="ui-monospace,Menlo,monospace" font-size="10" fill="#94A3B8">0</text>
<line x1="58" y1="242.5" x2="874" y2="242.5" stroke="#1E293B" stroke-width="1" stroke-dasharray="2 4"/>
<text x="48" y="246.0" text-anchor="end" font-family="ui-monospace,Menlo,monospace" font-size="10" fill="#94A3B8">75</text>
<line x1="58" y1="183.0" x2="874" y2="183.0" stroke="#1E293B" stroke-width="1" stroke-dasharray="2 4"/>
<text x="48" y="186.5" text-anchor="end" font-family="ui-monospace,Menlo,monospace" font-size="10" fill="#94A3B8">150</text>
<line x1="58" y1="123.5" x2="874" y2="123.5" stroke="#1E293B" stroke-width="1" stroke-dasharray="2 4"/>
<text x="48" y="127.0" text-anchor="end" font-family="ui-monospace,Menlo,monospace" font-size="10" fill="#94A3B8">225</text>
<line x1="58" y1="64.0" x2="874" y2="64.0" stroke="#1E293B" stroke-width="1" stroke-dasharray="2 4"/>
<text x="48" y="67.5" text-anchor="end" font-family="ui-monospace,Menlo,monospace" font-size="10" fill="#94A3B8">300</text>
<line x1="170.7" y1="64" x2="170.7" y2="302" stroke="#1E293B" stroke-width="1" stroke-opacity="0.6"/>
<text x="170.7" y="322" text-anchor="middle" font-family="ui-monospace,Menlo,monospace" font-size="10" fill="#94A3B8">Feb</text>
<line x1="296.9" y1="64" x2="296.9" y2="302" stroke="#1E293B" stroke-width="1" stroke-opacity="0.6"/>
<text x="296.9" y="322" text-anchor="middle" font-family="ui-monospace,Menlo,monospace" font-size="10" fill="#94A3B8">Mar</text>
<line x1="436.7" y1="64" x2="436.7" y2="302" stroke="#1E293B" stroke-width="1" stroke-opacity="0.6"/>
<text x="436.7" y="322" text-anchor="middle" font-family="ui-monospace,Menlo,monospace" font-size="10" fill="#94A3B8">Apr</text>
<line x1="571.9" y1="64" x2="571.9" y2="302" stroke="#1E293B" stroke-width="1" stroke-opacity="0.6"/>
<text x="571.9" y="322" text-anchor="middle" font-family="ui-monospace,Menlo,monospace" font-size="10" fill="#94A3B8">May</text>
<line x1="711.7" y1="64" x2="711.7" y2="302" stroke="#1E293B" stroke-width="1" stroke-opacity="0.6"/>
<text x="711.7" y="322" text-anchor="middle" font-family="ui-monospace,Menlo,monospace" font-size="10" fill="#94A3B8">Jun</text>
<line x1="847.0" y1="64" x2="847.0" y2="302" stroke="#1E293B" stroke-width="1" stroke-opacity="0.6"/>
<text x="847.0" y="322" text-anchor="middle" font-family="ui-monospace,Menlo,monospace" font-size="10" fill="#94A3B8">Jul</text>
<path d="M 58.00 283.75 C 58.75 282.56 61.01 273.70 62.51 276.61 C 64.01 279.52 65.51 296.98 67.02 301.21 C 68.52 305.44 70.02 301.87 71.52 302.00 C 73.03 302.13 74.53 302.26 76.03 302.00 C 77.54 301.74 79.04 300.41 80.54 300.41 C 82.04 300.41 83.55 302.93 85.05 302.00 C 86.55 301.07 88.06 295.26 89.56 294.86 C 91.06 294.46 92.56 299.49 94.07 299.62 C 95.57 299.75 97.07 301.07 98.57 295.65 C 100.08 290.23 101.58 271.06 103.08 267.09 C 104.59 263.13 106.09 268.42 107.59 271.85 C 109.09 275.29 110.60 284.55 112.10 287.72 C 113.60 290.89 115.10 288.78 116.61 290.89 C 118.11 293.01 119.61 298.96 121.12 300.41 C 122.62 301.87 124.12 299.49 125.62 299.62 C 127.13 299.75 128.63 300.81 130.13 301.21 C 131.64 301.60 133.14 301.87 134.64 302.00 C 136.14 302.13 137.65 302.00 139.15 302.00 C 140.65 302.00 142.15 305.44 143.66 302.00 C 145.16 298.56 146.66 282.43 148.17 281.37 C 149.67 280.32 151.17 296.98 152.67 295.65 C 154.18 294.33 155.68 273.57 157.18 273.44 C 158.69 273.31 160.19 293.41 161.69 294.86 C 163.19 296.31 164.70 282.17 166.20 282.17 C 167.70 282.17 169.20 296.18 170.71 294.86 C 172.21 293.54 173.71 275.95 175.22 274.23 C 176.72 272.51 178.22 281.64 179.72 284.55 C 181.23 287.46 182.73 288.78 184.23 291.69 C 185.73 294.60 187.24 303.59 188.74 302.00 C 190.24 300.41 191.75 283.22 193.25 282.17 C 194.75 281.11 196.25 292.35 197.76 295.65 C 199.26 298.96 200.76 301.34 202.27 302.00 C 203.77 302.66 205.27 303.98 206.77 299.62 C 208.28 295.26 209.78 303.45 211.28 275.82 C 212.78 248.19 214.29 133.95 215.79 133.81 C 217.29 133.68 218.80 249.51 220.30 275.03 C 221.80 300.55 223.30 282.43 224.81 286.93 C 226.31 291.42 227.81 301.87 229.31 302.00 C 230.82 302.13 232.32 287.98 233.82 287.72 C 235.33 287.46 236.83 300.28 238.33 300.41 C 239.83 300.55 241.34 289.44 242.84 288.51 C 244.34 287.59 245.85 295.65 247.35 294.86 C 248.85 294.07 250.35 285.74 251.86 283.75 C 253.36 281.77 254.86 284.41 256.36 282.96 C 257.87 281.51 259.37 272.91 260.87 275.03 C 262.38 277.14 263.88 291.16 265.38 295.65 C 266.88 300.15 268.39 303.85 269.89 302.00 C 271.39 300.15 272.90 287.59 274.40 284.55 C 275.90 281.51 277.40 282.03 278.91 283.75 C 280.41 285.47 281.91 294.60 283.41 294.86 C 284.92 295.12 286.42 285.60 287.92 285.34 C 289.43 285.08 290.93 292.35 292.43 293.27 C 293.93 294.20 295.44 291.16 296.94 290.89 C 298.44 290.63 299.94 290.50 301.45 291.69 C 302.95 292.88 304.45 296.31 305.96 298.03 C 307.46 299.75 308.96 302.26 310.46 302.00 C 311.97 301.74 313.47 296.45 314.97 296.45 C 316.48 296.45 317.98 301.07 319.48 302.00 C 320.98 302.93 322.49 302.00 323.99 302.00 C 325.49 302.00 326.99 302.00 328.50 302.00 C 330.00 302.00 331.50 303.19 333.01 302.00 C 334.51 300.81 336.01 294.86 337.51 294.86 C 339.02 294.86 340.52 300.81 342.02 302.00 C 343.52 303.19 345.03 303.45 346.53 302.00 C 348.03 300.55 349.54 293.93 351.04 293.27 C 352.54 292.61 354.04 296.58 355.55 298.03 C 357.05 299.49 358.55 301.34 360.06 302.00 C 361.56 302.66 363.06 302.40 364.56 302.00 C 366.07 301.60 367.57 299.88 369.07 299.62 C 370.57 299.36 372.08 300.81 373.58 300.41 C 375.08 300.02 376.59 300.81 378.09 297.24 C 379.59 293.67 381.09 279.26 382.60 278.99 C 384.10 278.73 385.60 291.82 387.10 295.65 C 388.61 299.49 390.11 302.40 391.61 302.00 C 393.12 301.60 394.62 297.11 396.12 293.27 C 397.62 289.44 399.13 279.39 400.63 278.99 C 402.13 278.60 403.64 287.19 405.14 290.89 C 406.64 294.60 408.14 303.72 409.65 301.21 C 411.15 298.69 412.65 280.98 414.15 275.82 C 415.66 270.66 417.16 269.74 418.66 270.27 C 420.17 270.80 421.67 274.63 423.17 278.99 C 424.67 283.36 426.18 292.61 427.68 296.45 C 429.18 300.28 430.69 301.47 432.19 302.00 C 433.69 302.53 435.19 299.62 436.70 299.62 C 438.20 299.62 439.70 301.60 441.20 302.00 C 442.71 302.40 444.21 302.00 445.71 302.00 C 447.22 302.00 448.72 304.64 450.22 302.00 C 451.72 299.36 453.23 288.65 454.73 286.13 C 456.23 283.62 457.73 285.21 459.24 286.93 C 460.74 288.65 462.24 294.46 463.75 296.45 C 465.25 298.43 466.75 298.30 468.25 298.83 C 469.76 299.36 471.26 299.09 472.76 299.62 C 474.27 300.15 475.77 302.40 477.27 302.00 C 478.77 301.60 480.28 297.64 481.78 297.24 C 483.28 296.84 484.78 301.21 486.29 299.62 C 487.79 298.03 489.29 288.12 490.80 287.72 C 492.30 287.32 493.80 295.92 495.30 297.24 C 496.81 298.56 498.31 296.58 499.81 295.65 C 501.31 294.73 502.82 299.75 504.32 291.69 C 505.82 283.62 507.33 251.49 508.83 247.26 C 510.33 243.03 511.83 294.46 513.34 266.30 C 514.84 238.14 516.34 100.49 517.85 78.28 C 519.35 56.07 520.85 108.29 522.35 133.02 C 523.86 157.75 525.36 207.06 526.86 226.63 C 528.36 246.20 529.87 249.11 531.37 250.43 C 532.87 251.76 534.38 230.47 535.88 234.57 C 537.38 238.67 538.88 263.79 540.39 275.03 C 541.89 286.27 543.39 298.30 544.90 302.00 C 546.40 305.70 547.90 297.77 549.40 297.24 C 550.91 296.71 552.41 301.87 553.91 298.83 C 555.41 295.79 556.92 278.99 558.42 278.99 C 559.92 278.99 561.43 300.28 562.93 298.83 C 564.43 297.37 565.93 275.82 567.44 270.27 C 568.94 264.71 570.44 260.22 571.94 265.51 C 573.45 270.80 574.95 297.24 576.45 302.00 C 577.96 306.76 579.46 294.07 580.96 294.07 C 582.46 294.07 583.97 302.53 585.47 302.00 C 586.97 301.47 588.48 292.22 589.98 290.89 C 591.48 289.57 592.98 303.59 594.49 294.07 C 595.99 284.55 597.49 238.40 598.99 233.77 C 600.50 229.15 602.00 267.62 603.50 266.30 C 605.01 264.98 606.51 228.75 608.01 225.84 C 609.51 222.93 611.02 249.24 612.52 248.85 C 614.02 248.45 615.52 222.80 617.03 223.46 C 618.53 224.12 620.03 249.11 621.54 252.81 C 623.04 256.52 624.54 238.00 626.04 245.67 C 627.55 253.34 629.05 292.22 630.55 298.83 C 632.06 305.44 633.56 289.70 635.06 285.34 C 636.56 280.98 638.07 287.72 639.57 272.65 C 641.07 257.57 642.57 195.30 644.08 194.90 C 645.58 194.50 647.08 253.08 648.59 270.27 C 650.09 287.46 651.59 293.80 653.09 298.03 C 654.60 302.26 656.10 296.18 657.60 295.65 C 659.10 295.12 660.61 297.50 662.11 294.86 C 663.61 292.22 665.12 281.24 666.62 279.79 C 668.12 278.33 669.62 282.96 671.13 286.13 C 672.63 289.31 674.13 297.50 675.64 298.83 C 677.14 300.15 678.64 294.86 680.14 294.07 C 681.65 293.27 683.15 293.01 684.65 294.07 C 686.15 295.12 687.66 299.88 689.16 300.41 C 690.66 300.94 692.17 297.24 693.67 297.24 C 695.17 297.24 696.67 299.88 698.18 300.41 C 699.68 300.94 701.18 309.54 702.69 300.41 C 704.19 291.29 705.69 248.19 707.19 245.67 C 708.70 243.16 710.20 282.83 711.70 285.34 C 713.20 287.85 714.71 260.09 716.21 260.75 C 717.71 261.41 719.22 285.21 720.72 289.31 C 722.22 293.41 723.72 283.62 725.23 285.34 C 726.73 287.06 728.23 297.11 729.73 299.62 C 731.24 302.13 732.74 300.28 734.24 300.41 C 735.75 300.55 737.25 300.41 738.75 300.41 C 740.25 300.41 741.76 300.81 743.26 300.41 C 744.76 300.02 746.27 305.57 747.77 298.03 C 749.27 290.50 750.77 255.99 752.28 255.19 C 753.78 254.40 755.28 289.57 756.78 293.27 C 758.29 296.98 759.79 277.67 761.29 277.41 C 762.80 277.14 764.30 291.55 765.80 291.69 C 767.30 291.82 768.81 279.13 770.31 278.20 C 771.81 277.27 773.31 282.70 774.82 286.13 C 776.32 289.57 777.82 296.45 779.33 298.83 C 780.83 301.21 782.33 300.15 783.83 300.41 C 785.34 300.68 786.84 300.41 788.34 300.41 C 789.85 300.41 791.35 300.55 792.85 300.41 C 794.35 300.28 795.86 302.93 797.36 299.62 C 798.86 296.31 800.36 280.71 801.87 280.58 C 803.37 280.45 804.87 299.49 806.38 298.83 C 807.88 298.17 809.38 276.35 810.88 276.61 C 812.39 276.88 813.89 298.03 815.39 300.41 C 816.90 302.79 818.40 302.66 819.90 290.89 C 821.40 279.13 822.91 237.08 824.41 229.81 C 825.91 222.53 827.41 241.44 828.92 247.26 C 830.42 253.08 831.92 260.09 833.43 264.71 C 834.93 269.34 836.43 269.34 837.93 275.03 C 839.44 280.71 840.94 299.49 842.44 298.83 C 843.94 298.17 845.45 274.37 846.95 271.06 C 848.45 267.75 849.96 277.80 851.46 278.99 C 852.96 280.18 854.46 276.35 855.97 278.20 C 857.47 280.05 858.97 287.72 860.48 290.10 C 861.98 292.48 863.48 291.03 864.98 292.48 C 866.49 293.93 867.99 298.03 869.49 298.83 C 870.99 299.62 873.25 297.50 874.00 297.24 L 874.00 302.00 L 58.00 302.00 Z" fill="url(#area)"/>
<path d="M 58.00 283.75 C 58.75 282.56 61.01 273.70 62.51 276.61 C 64.01 279.52 65.51 296.98 67.02 301.21 C 68.52 305.44 70.02 301.87 71.52 302.00 C 73.03 302.13 74.53 302.26 76.03 302.00 C 77.54 301.74 79.04 300.41 80.54 300.41 C 82.04 300.41 83.55 302.93 85.05 302.00 C 86.55 301.07 88.06 295.26 89.56 294.86 C 91.06 294.46 92.56 299.49 94.07 299.62 C 95.57 299.75 97.07 301.07 98.57 295.65 C 100.08 290.23 101.58 271.06 103.08 267.09 C 104.59 263.13 106.09 268.42 107.59 271.85 C 109.09 275.29 110.60 284.55 112.10 287.72 C 113.60 290.89 115.10 288.78 116.61 290.89 C 118.11 293.01 119.61 298.96 121.12 300.41 C 122.62 301.87 124.12 299.49 125.62 299.62 C 127.13 299.75 128.63 300.81 130.13 301.21 C 131.64 301.60 133.14 301.87 134.64 302.00 C 136.14 302.13 137.65 302.00 139.15 302.00 C 140.65 302.00 142.15 305.44 143.66 302.00 C 145.16 298.56 146.66 282.43 148.17 281.37 C 149.67 280.32 151.17 296.98 152.67 295.65 C 154.18 294.33 155.68 273.57 157.18 273.44 C 158.69 273.31 160.19 293.41 161.69 294.86 C 163.19 296.31 164.70 282.17 166.20 282.17 C 167.70 282.17 169.20 296.18 170.71 294.86 C 172.21 293.54 173.71 275.95 175.22 274.23 C 176.72 272.51 178.22 281.64 179.72 284.55 C 181.23 287.46 182.73 288.78 184.23 291.69 C 185.73 294.60 187.24 303.59 188.74 302.00 C 190.24 300.41 191.75 283.22 193.25 282.17 C 194.75 281.11 196.25 292.35 197.76 295.65 C 199.26 298.96 200.76 301.34 202.27 302.00 C 203.77 302.66 205.27 303.98 206.77 299.62 C 208.28 295.26 209.78 303.45 211.28 275.82 C 212.78 248.19 214.29 133.95 215.79 133.81 C 217.29 133.68 218.80 249.51 220.30 275.03 C 221.80 300.55 223.30 282.43 224.81 286.93 C 226.31 291.42 227.81 301.87 229.31 302.00 C 230.82 302.13 232.32 287.98 233.82 287.72 C 235.33 287.46 236.83 300.28 238.33 300.41 C 239.83 300.55 241.34 289.44 242.84 288.51 C 244.34 287.59 245.85 295.65 247.35 294.86 C 248.85 294.07 250.35 285.74 251.86 283.75 C 253.36 281.77 254.86 284.41 256.36 282.96 C 257.87 281.51 259.37 272.91 260.87 275.03 C 262.38 277.14 263.88 291.16 265.38 295.65 C 266.88 300.15 268.39 303.85 269.89 302.00 C 271.39 300.15 272.90 287.59 274.40 284.55 C 275.90 281.51 277.40 282.03 278.91 283.75 C 280.41 285.47 281.91 294.60 283.41 294.86 C 284.92 295.12 286.42 285.60 287.92 285.34 C 289.43 285.08 290.93 292.35 292.43 293.27 C 293.93 294.20 295.44 291.16 296.94 290.89 C 298.44 290.63 299.94 290.50 301.45 291.69 C 302.95 292.88 304.45 296.31 305.96 298.03 C 307.46 299.75 308.96 302.26 310.46 302.00 C 311.97 301.74 313.47 296.45 314.97 296.45 C 316.48 296.45 317.98 301.07 319.48 302.00 C 320.98 302.93 322.49 302.00 323.99 302.00 C 325.49 302.00 326.99 302.00 328.50 302.00 C 330.00 302.00 331.50 303.19 333.01 302.00 C 334.51 300.81 336.01 294.86 337.51 294.86 C 339.02 294.86 340.52 300.81 342.02 302.00 C 343.52 303.19 345.03 303.45 346.53 302.00 C 348.03 300.55 349.54 293.93 351.04 293.27 C 352.54 292.61 354.04 296.58 355.55 298.03 C 357.05 299.49 358.55 301.34 360.06 302.00 C 361.56 302.66 363.06 302.40 364.56 302.00 C 366.07 301.60 367.57 299.88 369.07 299.62 C 370.57 299.36 372.08 300.81 373.58 300.41 C 375.08 300.02 376.59 300.81 378.09 297.24 C 379.59 293.67 381.09 279.26 382.60 278.99 C 384.10 278.73 385.60 291.82 387.10 295.65 C 388.61 299.49 390.11 302.40 391.61 302.00 C 393.12 301.60 394.62 297.11 396.12 293.27 C 397.62 289.44 399.13 279.39 400.63 278.99 C 402.13 278.60 403.64 287.19 405.14 290.89 C 406.64 294.60 408.14 303.72 409.65 301.21 C 411.15 298.69 412.65 280.98 414.15 275.82 C 415.66 270.66 417.16 269.74 418.66 270.27 C 420.17 270.80 421.67 274.63 423.17 278.99 C 424.67 283.36 426.18 292.61 427.68 296.45 C 429.18 300.28 430.69 301.47 432.19 302.00 C 433.69 302.53 435.19 299.62 436.70 299.62 C 438.20 299.62 439.70 301.60 441.20 302.00 C 442.71 302.40 444.21 302.00 445.71 302.00 C 447.22 302.00 448.72 304.64 450.22 302.00 C 451.72 299.36 453.23 288.65 454.73 286.13 C 456.23 283.62 457.73 285.21 459.24 286.93 C 460.74 288.65 462.24 294.46 463.75 296.45 C 465.25 298.43 466.75 298.30 468.25 298.83 C 469.76 299.36 471.26 299.09 472.76 299.62 C 474.27 300.15 475.77 302.40 477.27 302.00 C 478.77 301.60 480.28 297.64 481.78 297.24 C 483.28 296.84 484.78 301.21 486.29 299.62 C 487.79 298.03 489.29 288.12 490.80 287.72 C 492.30 287.32 493.80 295.92 495.30 297.24 C 496.81 298.56 498.31 296.58 499.81 295.65 C 501.31 294.73 502.82 299.75 504.32 291.69 C 505.82 283.62 507.33 251.49 508.83 247.26 C 510.33 243.03 511.83 294.46 513.34 266.30 C 514.84 238.14 516.34 100.49 517.85 78.28 C 519.35 56.07 520.85 108.29 522.35 133.02 C 523.86 157.75 525.36 207.06 526.86 226.63 C 528.36 246.20 529.87 249.11 531.37 250.43 C 532.87 251.76 534.38 230.47 535.88 234.57 C 537.38 238.67 538.88 263.79 540.39 275.03 C 541.89 286.27 543.39 298.30 544.90 302.00 C 546.40 305.70 547.90 297.77 549.40 297.24 C 550.91 296.71 552.41 301.87 553.91 298.83 C 555.41 295.79 556.92 278.99 558.42 278.99 C 559.92 278.99 561.43 300.28 562.93 298.83 C 564.43 297.37 565.93 275.82 567.44 270.27 C 568.94 264.71 570.44 260.22 571.94 265.51 C 573.45 270.80 574.95 297.24 576.45 302.00 C 577.96 306.76 579.46 294.07 580.96 294.07 C 582.46 294.07 583.97 302.53 585.47 302.00 C 586.97 301.47 588.48 292.22 589.98 290.89 C 591.48 289.57 592.98 303.59 594.49 294.07 C 595.99 284.55 597.49 238.40 598.99 233.77 C 600.50 229.15 602.00 267.62 603.50 266.30 C 605.01 264.98 606.51 228.75 608.01 225.84 C 609.51 222.93 611.02 249.24 612.52 248.85 C 614.02 248.45 615.52 222.80 617.03 223.46 C 618.53 224.12 620.03 249.11 621.54 252.81 C 623.04 256.52 624.54 238.00 626.04 245.67 C 627.55 253.34 629.05 292.22 630.55 298.83 C 632.06 305.44 633.56 289.70 635.06 285.34 C 636.56 280.98 638.07 287.72 639.57 272.65 C 641.07 257.57 642.57 195.30 644.08 194.90 C 645.58 194.50 647.08 253.08 648.59 270.27 C 650.09 287.46 651.59 293.80 653.09 298.03 C 654.60 302.26 656.10 296.18 657.60 295.65 C 659.10 295.12 660.61 297.50 662.11 294.86 C 663.61 292.22 665.12 281.24 666.62 279.79 C 668.12 278.33 669.62 282.96 671.13 286.13 C 672.63 289.31 674.13 297.50 675.64 298.83 C 677.14 300.15 678.64 294.86 680.14 294.07 C 681.65 293.27 683.15 293.01 684.65 294.07 C 686.15 295.12 687.66 299.88 689.16 300.41 C 690.66 300.94 692.17 297.24 693.67 297.24 C 695.17 297.24 696.67 299.88 698.18 300.41 C 699.68 300.94 701.18 309.54 702.69 300.41 C 704.19 291.29 705.69 248.19 707.19 245.67 C 708.70 243.16 710.20 282.83 711.70 285.34 C 713.20 287.85 714.71 260.09 716.21 260.75 C 717.71 261.41 719.22 285.21 720.72 289.31 C 722.22 293.41 723.72 283.62 725.23 285.34 C 726.73 287.06 728.23 297.11 729.73 299.62 C 731.24 302.13 732.74 300.28 734.24 300.41 C 735.75 300.55 737.25 300.41 738.75 300.41 C 740.25 300.41 741.76 300.81 743.26 300.41 C 744.76 300.02 746.27 305.57 747.77 298.03 C 749.27 290.50 750.77 255.99 752.28 255.19 C 753.78 254.40 755.28 289.57 756.78 293.27 C 758.29 296.98 759.79 277.67 761.29 277.41 C 762.80 277.14 764.30 291.55 765.80 291.69 C 767.30 291.82 768.81 279.13 770.31 278.20 C 771.81 277.27 773.31 282.70 774.82 286.13 C 776.32 289.57 777.82 296.45 779.33 298.83 C 780.83 301.21 782.33 300.15 783.83 300.41 C 785.34 300.68 786.84 300.41 788.34 300.41 C 789.85 300.41 791.35 300.55 792.85 300.41 C 794.35 300.28 795.86 302.93 797.36 299.62 C 798.86 296.31 800.36 280.71 801.87 280.58 C 803.37 280.45 804.87 299.49 806.38 298.83 C 807.88 298.17 809.38 276.35 810.88 276.61 C 812.39 276.88 813.89 298.03 815.39 300.41 C 816.90 302.79 818.40 302.66 819.90 290.89 C 821.40 279.13 822.91 237.08 824.41 229.81 C 825.91 222.53 827.41 241.44 828.92 247.26 C 830.42 253.08 831.92 260.09 833.43 264.71 C 834.93 269.34 836.43 269.34 837.93 275.03 C 839.44 280.71 840.94 299.49 842.44 298.83 C 843.94 298.17 845.45 274.37 846.95 271.06 C 848.45 267.75 849.96 277.80 851.46 278.99 C 852.96 280.18 854.46 276.35 855.97 278.20 C 857.47 280.05 858.97 287.72 860.48 290.10 C 861.98 292.48 863.48 291.03 864.98 292.48 C 866.49 293.93 867.99 298.03 869.49 298.83 C 870.99 299.62 873.25 297.50 874.00 297.24" fill="none" stroke="#22C55E" stroke-opacity="0.20" stroke-width="7" stroke-linecap="round" stroke-linejoin="round"/>
<path d="M 58.00 283.75 C 58.75 282.56 61.01 273.70 62.51 276.61 C 64.01 279.52 65.51 296.98 67.02 301.21 C 68.52 305.44 70.02 301.87 71.52 302.00 C 73.03 302.13 74.53 302.26 76.03 302.00 C 77.54 301.74 79.04 300.41 80.54 300.41 C 82.04 300.41 83.55 302.93 85.05 302.00 C 86.55 301.07 88.06 295.26 89.56 294.86 C 91.06 294.46 92.56 299.49 94.07 299.62 C 95.57 299.75 97.07 301.07 98.57 295.65 C 100.08 290.23 101.58 271.06 103.08 267.09 C 104.59 263.13 106.09 268.42 107.59 271.85 C 109.09 275.29 110.60 284.55 112.10 287.72 C 113.60 290.89 115.10 288.78 116.61 290.89 C 118.11 293.01 119.61 298.96 121.12 300.41 C 122.62 301.87 124.12 299.49 125.62 299.62 C 127.13 299.75 128.63 300.81 130.13 301.21 C 131.64 301.60 133.14 301.87 134.64 302.00 C 136.14 302.13 137.65 302.00 139.15 302.00 C 140.65 302.00 142.15 305.44 143.66 302.00 C 145.16 298.56 146.66 282.43 148.17 281.37 C 149.67 280.32 151.17 296.98 152.67 295.65 C 154.18 294.33 155.68 273.57 157.18 273.44 C 158.69 273.31 160.19 293.41 161.69 294.86 C 163.19 296.31 164.70 282.17 166.20 282.17 C 167.70 282.17 169.20 296.18 170.71 294.86 C 172.21 293.54 173.71 275.95 175.22 274.23 C 176.72 272.51 178.22 281.64 179.72 284.55 C 181.23 287.46 182.73 288.78 184.23 291.69 C 185.73 294.60 187.24 303.59 188.74 302.00 C 190.24 300.41 191.75 283.22 193.25 282.17 C 194.75 281.11 196.25 292.35 197.76 295.65 C 199.26 298.96 200.76 301.34 202.27 302.00 C 203.77 302.66 205.27 303.98 206.77 299.62 C 208.28 295.26 209.78 303.45 211.28 275.82 C 212.78 248.19 214.29 133.95 215.79 133.81 C 217.29 133.68 218.80 249.51 220.30 275.03 C 221.80 300.55 223.30 282.43 224.81 286.93 C 226.31 291.42 227.81 301.87 229.31 302.00 C 230.82 302.13 232.32 287.98 233.82 287.72 C 235.33 287.46 236.83 300.28 238.33 300.41 C 239.83 300.55 241.34 289.44 242.84 288.51 C 244.34 287.59 245.85 295.65 247.35 294.86 C 248.85 294.07 250.35 285.74 251.86 283.75 C 253.36 281.77 254.86 284.41 256.36 282.96 C 257.87 281.51 259.37 272.91 260.87 275.03 C 262.38 277.14 263.88 291.16 265.38 295.65 C 266.88 300.15 268.39 303.85 269.89 302.00 C 271.39 300.15 272.90 287.59 274.40 284.55 C 275.90 281.51 277.40 282.03 278.91 283.75 C 280.41 285.47 281.91 294.60 283.41 294.86 C 284.92 295.12 286.42 285.60 287.92 285.34 C 289.43 285.08 290.93 292.35 292.43 293.27 C 293.93 294.20 295.44 291.16 296.94 290.89 C 298.44 290.63 299.94 290.50 301.45 291.69 C 302.95 292.88 304.45 296.31 305.96 298.03 C 307.46 299.75 308.96 302.26 310.46 302.00 C 311.97 301.74 313.47 296.45 314.97 296.45 C 316.48 296.45 317.98 301.07 319.48 302.00 C 320.98 302.93 322.49 302.00 323.99 302.00 C 325.49 302.00 326.99 302.00 328.50 302.00 C 330.00 302.00 331.50 303.19 333.01 302.00 C 334.51 300.81 336.01 294.86 337.51 294.86 C 339.02 294.86 340.52 300.81 342.02 302.00 C 343.52 303.19 345.03 303.45 346.53 302.00 C 348.03 300.55 349.54 293.93 351.04 293.27 C 352.54 292.61 354.04 296.58 355.55 298.03 C 357.05 299.49 358.55 301.34 360.06 302.00 C 361.56 302.66 363.06 302.40 364.56 302.00 C 366.07 301.60 367.57 299.88 369.07 299.62 C 370.57 299.36 372.08 300.81 373.58 300.41 C 375.08 300.02 376.59 300.81 378.09 297.24 C 379.59 293.67 381.09 279.26 382.60 278.99 C 384.10 278.73 385.60 291.82 387.10 295.65 C 388.61 299.49 390.11 302.40 391.61 302.00 C 393.12 301.60 394.62 297.11 396.12 293.27 C 397.62 289.44 399.13 279.39 400.63 278.99 C 402.13 278.60 403.64 287.19 405.14 290.89 C 406.64 294.60 408.14 303.72 409.65 301.21 C 411.15 298.69 412.65 280.98 414.15 275.82 C 415.66 270.66 417.16 269.74 418.66 270.27 C 420.17 270.80 421.67 274.63 423.17 278.99 C 424.67 283.36 426.18 292.61 427.68 296.45 C 429.18 300.28 430.69 301.47 432.19 302.00 C 433.69 302.53 435.19 299.62 436.70 299.62 C 438.20 299.62 439.70 301.60 441.20 302.00 C 442.71 302.40 444.21 302.00 445.71 302.00 C 447.22 302.00 448.72 304.64 450.22 302.00 C 451.72 299.36 453.23 288.65 454.73 286.13 C 456.23 283.62 457.73 285.21 459.24 286.93 C 460.74 288.65 462.24 294.46 463.75 296.45 C 465.25 298.43 466.75 298.30 468.25 298.83 C 469.76 299.36 471.26 299.09 472.76 299.62 C 474.27 300.15 475.77 302.40 477.27 302.00 C 478.77 301.60 480.28 297.64 481.78 297.24 C 483.28 296.84 484.78 301.21 486.29 299.62 C 487.79 298.03 489.29 288.12 490.80 287.72 C 492.30 287.32 493.80 295.92 495.30 297.24 C 496.81 298.56 498.31 296.58 499.81 295.65 C 501.31 294.73 502.82 299.75 504.32 291.69 C 505.82 283.62 507.33 251.49 508.83 247.26 C 510.33 243.03 511.83 294.46 513.34 266.30 C 514.84 238.14 516.34 100.49 517.85 78.28 C 519.35 56.07 520.85 108.29 522.35 133.02 C 523.86 157.75 525.36 207.06 526.86 226.63 C 528.36 246.20 529.87 249.11 531.37 250.43 C 532.87 251.76 534.38 230.47 535.88 234.57 C 537.38 238.67 538.88 263.79 540.39 275.03 C 541.89 286.27 543.39 298.30 544.90 302.00 C 546.40 305.70 547.90 297.77 549.40 297.24 C 550.91 296.71 552.41 301.87 553.91 298.83 C 555.41 295.79 556.92 278.99 558.42 278.99 C 559.92 278.99 561.43 300.28 562.93 298.83 C 564.43 297.37 565.93 275.82 567.44 270.27 C 568.94 264.71 570.44 260.22 571.94 265.51 C 573.45 270.80 574.95 297.24 576.45 302.00 C 577.96 306.76 579.46 294.07 580.96 294.07 C 582.46 294.07 583.97 302.53 585.47 302.00 C 586.97 301.47 588.48 292.22 589.98 290.89 C 591.48 289.57 592.98 303.59 594.49 294.07 C 595.99 284.55 597.49 238.40 598.99 233.77 C 600.50 229.15 602.00 267.62 603.50 266.30 C 605.01 264.98 606.51 228.75 608.01 225.84 C 609.51 222.93 611.02 249.24 612.52 248.85 C 614.02 248.45 615.52 222.80 617.03 223.46 C 618.53 224.12 620.03 249.11 621.54 252.81 C 623.04 256.52 624.54 238.00 626.04 245.67 C 627.55 253.34 629.05 292.22 630.55 298.83 C 632.06 305.44 633.56 289.70 635.06 285.34 C 636.56 280.98 638.07 287.72 639.57 272.65 C 641.07 257.57 642.57 195.30 644.08 194.90 C 645.58 194.50 647.08 253.08 648.59 270.27 C 650.09 287.46 651.59 293.80 653.09 298.03 C 654.60 302.26 656.10 296.18 657.60 295.65 C 659.10 295.12 660.61 297.50 662.11 294.86 C 663.61 292.22 665.12 281.24 666.62 279.79 C 668.12 278.33 669.62 282.96 671.13 286.13 C 672.63 289.31 674.13 297.50 675.64 298.83 C 677.14 300.15 678.64 294.86 680.14 294.07 C 681.65 293.27 683.15 293.01 684.65 294.07 C 686.15 295.12 687.66 299.88 689.16 300.41 C 690.66 300.94 692.17 297.24 693.67 297.24 C 695.17 297.24 696.67 299.88 698.18 300.41 C 699.68 300.94 701.18 309.54 702.69 300.41 C 704.19 291.29 705.69 248.19 707.19 245.67 C 708.70 243.16 710.20 282.83 711.70 285.34 C 713.20 287.85 714.71 260.09 716.21 260.75 C 717.71 261.41 719.22 285.21 720.72 289.31 C 722.22 293.41 723.72 283.62 725.23 285.34 C 726.73 287.06 728.23 297.11 729.73 299.62 C 731.24 302.13 732.74 300.28 734.24 300.41 C 735.75 300.55 737.25 300.41 738.75 300.41 C 740.25 300.41 741.76 300.81 743.26 300.41 C 744.76 300.02 746.27 305.57 747.77 298.03 C 749.27 290.50 750.77 255.99 752.28 255.19 C 753.78 254.40 755.28 289.57 756.78 293.27 C 758.29 296.98 759.79 277.67 761.29 277.41 C 762.80 277.14 764.30 291.55 765.80 291.69 C 767.30 291.82 768.81 279.13 770.31 278.20 C 771.81 277.27 773.31 282.70 774.82 286.13 C 776.32 289.57 777.82 296.45 779.33 298.83 C 780.83 301.21 782.33 300.15 783.83 300.41 C 785.34 300.68 786.84 300.41 788.34 300.41 C 789.85 300.41 791.35 300.55 792.85 300.41 C 794.35 300.28 795.86 302.93 797.36 299.62 C 798.86 296.31 800.36 280.71 801.87 280.58 C 803.37 280.45 804.87 299.49 806.38 298.83 C 807.88 298.17 809.38 276.35 810.88 276.61 C 812.39 276.88 813.89 298.03 815.39 300.41 C 816.90 302.79 818.40 302.66 819.90 290.89 C 821.40 279.13 822.91 237.08 824.41 229.81 C 825.91 222.53 827.41 241.44 828.92 247.26 C 830.42 253.08 831.92 260.09 833.43 264.71 C 834.93 269.34 836.43 269.34 837.93 275.03 C 839.44 280.71 840.94 299.49 842.44 298.83 C 843.94 298.17 845.45 274.37 846.95 271.06 C 848.45 267.75 849.96 277.80 851.46 278.99 C 852.96 280.18 854.46 276.35 855.97 278.20 C 857.47 280.05 858.97 287.72 860.48 290.10 C 861.98 292.48 863.48 291.03 864.98 292.48 C 866.49 293.93 867.99 298.03 869.49 298.83 C 870.99 299.62 873.25 297.50 874.00 297.24" fill="none" stroke="#22C55E" stroke-width="2.4" stroke-linecap="round" stroke-linejoin="round"/>
<circle cx="517.8" cy="78.3" r="4.5" fill="#4ADE80" stroke="#0B1120" stroke-width="2"/>
<text x="517.8" y="68.3" text-anchor="middle" font-family="ui-monospace,Menlo,monospace" font-size="10" font-weight="700" fill="#4ADE80">282</text>
<circle cx="874.0" cy="297.2" r="3.5" fill="#F8FAFC"/>
<text x="16" y="183" text-anchor="middle" font-family="ui-monospace,Menlo,monospace" font-size="10" fill="#94A3B8" transform="rotate(-90 16 183)">Contributions</text>
</svg>