<svg xmlns="http://www.w3.org/2000/svg" width="900" height="340" viewBox="0 0 900 340" role="img" aria-label="Contribution activity, last 6 months">
<defs>
<linearGradient id="bg" x1="0" y1="0" x2="0" y2="1"><stop offset="0" stop-color="#0F172A"/><stop offset="1" stop-color="#0B1120"/></linearGradient>
<linearGradient id="area" x1="0" y1="0" x2="0" y2="1"><stop offset="0" stop-color="#22C55E" stop-opacity="0.42"/><stop offset="0.7" stop-color="#22C55E" stop-opacity="0.08"/><stop offset="1" stop-color="#22C55E" stop-opacity="0"/></linearGradient>
</defs>
<rect x="0" y="0" width="900" height="340" rx="14" fill="url(#bg)"/>
<text x="450" y="32" text-anchor="middle" font-family="ui-monospace,Menlo,monospace" font-size="17" font-weight="700" fill="#F8FAFC" letter-spacing="0.5">last 6 months</text>
<text x="450" y="50" text-anchor="middle" font-family="ui-monospace,Menlo,monospace" font-size="11" fill="#94A3B8">4,074 contributions · peak 282</text>
<line x1="58" y1="302.0" x2="874" y2="302.0" stroke="#1E293B" stroke-width="1" stroke-dasharray="2 4"/>
<text x="48" y="305.5" text-anchor="end" font-family="ui-monospace,Menlo,monospace" font-size="10" fill="#94A3B8">0</text>
<line x1="58" y1="242.5" x2="874" y2="242.5" stroke="#1E293B" stroke-width="1" stroke-dasharray="2 4"/>
<text x="48" y="246.0" text-anchor="end" font-family="ui-monospace,Menlo,monospace" font-size="10" fill="#94A3B8">75</text>
<line x1="58" y1="183.0" x2="874" y2="183.0" stroke="#1E293B" stroke-width="1" stroke-dasharray="2 4"/>
<text x="48" y="186.5" text-anchor="end" font-family="ui-monospace,Menlo,monospace" font-size="10" fill="#94A3B8">150</text>
<line x1="58" y1="123.5" x2="874" y2="123.5" stroke="#1E293B" stroke-width="1" stroke-dasharray="2 4"/>
<text x="48" y="127.0" text-anchor="end" font-family="ui-monospace,Menlo,monospace" font-size="10" fill="#94A3B8">225</text>
<line x1="58" y1="64.0" x2="874" y2="64.0" stroke="#1E293B" stroke-width="1" stroke-dasharray="2 4"/>
<text x="48" y="67.5" text-anchor="end" font-family="ui-monospace,Menlo,monospace" font-size="10" fill="#94A3B8">300</text>
<line x1="152.7" y1="64" x2="152.7" y2="302" stroke="#1E293B" stroke-width="1" stroke-opacity="0.6"/>
<text x="152.7" y="322" text-anchor="middle" font-family="ui-monospace,Menlo,monospace" font-size="10" fill="#94A3B8">Feb</text>
<line x1="278.9" y1="64" x2="278.9" y2="302" stroke="#1E293B" stroke-width="1" stroke-opacity="0.6"/>
<text x="278.9" y="322" text-anchor="middle" font-family="ui-monospace,Menlo,monospace" font-size="10" fill="#94A3B8">Mar</text>
<line x1="418.7" y1="64" x2="418.7" y2="302" stroke="#1E293B" stroke-width="1" stroke-opacity="0.6"/>
<text x="418.7" y="322" text-anchor="middle" font-family="ui-monospace,Menlo,monospace" font-size="10" fill="#94A3B8">Apr</text>
<line x1="553.9" y1="64" x2="553.9" y2="302" stroke="#1E293B" stroke-width="1" stroke-opacity="0.6"/>
<text x="553.9" y="322" text-anchor="middle" font-family="ui-monospace,Menlo,monospace" font-size="10" fill="#94A3B8">May</text>
<line x1="693.7" y1="64" x2="693.7" y2="302" stroke="#1E293B" stroke-width="1" stroke-opacity="0.6"/>
<text x="693.7" y="322" text-anchor="middle" font-family="ui-monospace,Menlo,monospace" font-size="10" fill="#94A3B8">Jun</text>
<line x1="828.9" y1="64" x2="828.9" y2="302" stroke="#1E293B" stroke-width="1" stroke-opacity="0.6"/>
<text x="828.9" y="322" text-anchor="middle" font-family="ui-monospace,Menlo,monospace" font-size="10" fill="#94A3B8">Jul</text>
<path d="M 58.00 302.00 C 58.75 301.74 61.01 300.41 62.51 300.41 C 64.01 300.41 65.51 302.93 67.02 302.00 C 68.52 301.07 70.02 295.26 71.52 294.86 C 73.03 294.46 74.53 299.49 76.03 299.62 C 77.54 299.75 79.04 301.07 80.54 295.65 C 82.04 290.23 83.55 271.06 85.05 267.09 C 86.55 263.13 88.06 268.42 89.56 271.85 C 91.06 275.29 92.56 284.55 94.07 287.72 C 95.57 290.89 97.07 288.78 98.57 290.89 C 100.08 293.01 101.58 298.96 103.08 300.41 C 104.59 301.87 106.09 299.49 107.59 299.62 C 109.09 299.75 110.60 300.81 112.10 301.21 C 113.60 301.60 115.10 301.87 116.61 302.00 C 118.11 302.13 119.61 302.00 121.12 302.00 C 122.62 302.00 124.12 305.44 125.62 302.00 C 127.13 298.56 128.63 282.43 130.13 281.37 C 131.64 280.32 133.14 296.98 134.64 295.65 C 136.14 294.33 137.65 273.57 139.15 273.44 C 140.65 273.31 142.15 293.41 143.66 294.86 C 145.16 296.31 146.66 282.17 148.17 282.17 C 149.67 282.17 151.17 296.18 152.67 294.86 C 154.18 293.54 155.68 275.95 157.18 274.23 C 158.69 272.51 160.19 281.64 161.69 284.55 C 163.19 287.46 164.70 288.78 166.20 291.69 C 167.70 294.60 169.20 303.59 170.71 302.00 C 172.21 300.41 173.71 283.22 175.22 282.17 C 176.72 281.11 178.22 292.35 179.72 295.65 C 181.23 298.96 182.73 301.34 184.23 302.00 C 185.73 302.66 187.24 303.98 188.74 299.62 C 190.24 295.26 191.75 303.45 193.25 275.82 C 194.75 248.19 196.25 133.95 197.76 133.81 C 199.26 133.68 200.76 249.51 202.27 275.03 C 203.77 300.55 205.27 282.43 206.77 286.93 C 208.28 291.42 209.78 301.87 211.28 302.00 C 212.78 302.13 214.29 287.98 215.79 287.72 C 217.29 287.46 218.80 300.28 220.30 300.41 C 221.80 300.55 223.30 289.44 224.81 288.51 C 226.31 287.59 227.81 295.65 229.31 294.86 C 230.82 294.07 232.32 285.74 233.82 283.75 C 235.33 281.77 236.83 284.41 238.33 282.96 C 239.83 281.51 241.34 272.91 242.84 275.03 C 244.34 277.14 245.85 291.16 247.35 295.65 C 248.85 300.15 250.35 303.85 251.86 302.00 C 253.36 300.15 254.86 287.59 256.36 284.55 C 257.87 281.51 259.37 282.03 260.87 283.75 C 262.38 285.47 263.88 294.60 265.38 294.86 C 266.88 295.12 268.39 285.60 269.89 285.34 C 271.39 285.08 272.90 292.35 274.40 293.27 C 275.90 294.20 277.40 291.16 278.91 290.89 C 280.41 290.63 281.91 290.50 283.41 291.69 C 284.92 292.88 286.42 296.31 287.92 298.03 C 289.43 299.75 290.93 302.26 292.43 302.00 C 293.93 301.74 295.44 296.45 296.94 296.45 C 298.44 296.45 299.94 301.07 301.45 302.00 C 302.95 302.93 304.45 302.00 305.96 302.00 C 307.46 302.00 308.96 302.00 310.46 302.00 C 311.97 302.00 313.47 303.19 314.97 302.00 C 316.48 300.81 317.98 294.86 319.48 294.86 C 320.98 294.86 322.49 300.81 323.99 302.00 C 325.49 303.19 326.99 303.45 328.50 302.00 C 330.00 300.55 331.50 293.93 333.01 293.27 C 334.51 292.61 336.01 296.58 337.51 298.03 C 339.02 299.49 340.52 301.34 342.02 302.00 C 343.52 302.66 345.03 302.40 346.53 302.00 C 348.03 301.60 349.54 299.88 351.04 299.62 C 352.54 299.36 354.04 300.81 355.55 300.41 C 357.05 300.02 358.55 300.81 360.06 297.24 C 361.56 293.67 363.06 279.26 364.56 278.99 C 366.07 278.73 367.57 291.82 369.07 295.65 C 370.57 299.49 372.08 302.40 373.58 302.00 C 375.08 301.60 376.59 297.11 378.09 293.27 C 379.59 289.44 381.09 279.39 382.60 278.99 C 384.10 278.60 385.60 287.19 387.10 290.89 C 388.61 294.60 390.11 303.72 391.61 301.21 C 393.12 298.69 394.62 280.98 396.12 275.82 C 397.62 270.66 399.13 269.74 400.63 270.27 C 402.13 270.80 403.64 274.63 405.14 278.99 C 406.64 283.36 408.14 292.61 409.65 296.45 C 411.15 300.28 412.65 301.47 414.15 302.00 C 415.66 302.53 417.16 299.62 418.66 299.62 C 420.17 299.62 421.67 301.60 423.17 302.00 C 424.67 302.40 426.18 302.00 427.68 302.00 C 429.18 302.00 430.69 304.64 432.19 302.00 C 433.69 299.36 435.19 288.65 436.70 286.13 C 438.20 283.62 439.70 285.21 441.20 286.93 C 442.71 288.65 444.21 294.46 445.71 296.45 C 447.22 298.43 448.72 298.30 450.22 298.83 C 451.72 299.36 453.23 299.09 454.73 299.62 C 456.23 300.15 457.73 302.40 459.24 302.00 C 460.74 301.60 462.24 297.64 463.75 297.24 C 465.25 296.84 466.75 301.21 468.25 299.62 C 469.76 298.03 471.26 288.12 472.76 287.72 C 474.27 287.32 475.77 295.92 477.27 297.24 C 478.77 298.56 480.28 296.58 481.78 295.65 C 483.28 294.73 484.78 299.75 486.29 291.69 C 487.79 283.62 489.29 251.49 490.80 247.26 C 492.30 243.03 493.80 294.46 495.30 266.30 C 496.81 238.14 498.31 100.49 499.81 78.28 C 501.31 56.07 502.82 108.29 504.32 133.02 C 505.82 157.75 507.33 207.06 508.83 226.63 C 510.33 246.20 511.83 249.11 513.34 250.43 C 514.84 251.76 516.34 230.47 517.85 234.57 C 519.35 238.67 520.85 263.79 522.35 275.03 C 523.86 286.27 525.36 298.30 526.86 302.00 C 528.36 305.70 529.87 297.77 531.37 297.24 C 532.87 296.71 534.38 301.87 535.88 298.83 C 537.38 295.79 538.88 278.99 540.39 278.99 C 541.89 278.99 543.39 300.28 544.90 298.83 C 546.40 297.37 547.90 275.82 549.40 270.27 C 550.91 264.71 552.41 260.22 553.91 265.51 C 555.41 270.80 556.92 297.24 558.42 302.00 C 559.92 306.76 561.43 294.07 562.93 294.07 C 564.43 294.07 565.93 302.53 567.44 302.00 C 568.94 301.47 570.44 292.22 571.94 290.89 C 573.45 289.57 574.95 303.59 576.45 294.07 C 577.96 284.55 579.46 238.40 580.96 233.77 C 582.46 229.15 583.97 267.62 585.47 266.30 C 586.97 264.98 588.48 228.75 589.98 225.84 C 591.48 222.93 592.98 249.24 594.49 248.85 C 595.99 248.45 597.49 222.80 598.99 223.46 C 600.50 224.12 602.00 249.11 603.50 252.81 C 605.01 256.52 606.51 238.00 608.01 245.67 C 609.51 253.34 611.02 292.22 612.52 298.83 C 614.02 305.44 615.52 289.70 617.03 285.34 C 618.53 280.98 620.03 287.72 621.54 272.65 C 623.04 257.57 624.54 195.30 626.04 194.90 C 627.55 194.50 629.05 253.08 630.55 270.27 C 632.06 287.46 633.56 293.80 635.06 298.03 C 636.56 302.26 638.07 296.18 639.57 295.65 C 641.07 295.12 642.57 297.50 644.08 294.86 C 645.58 292.22 647.08 281.24 648.59 279.79 C 650.09 278.33 651.59 282.96 653.09 286.13 C 654.60 289.31 656.10 297.50 657.60 298.83 C 659.10 300.15 660.61 294.86 662.11 294.07 C 663.61 293.27 665.12 293.01 666.62 294.07 C 668.12 295.12 669.62 299.88 671.13 300.41 C 672.63 300.94 674.13 297.24 675.64 297.24 C 677.14 297.24 678.64 299.88 680.14 300.41 C 681.65 300.94 683.15 309.54 684.65 300.41 C 686.15 291.29 687.66 248.19 689.16 245.67 C 690.66 243.16 692.17 282.83 693.67 285.34 C 695.17 287.85 696.67 260.09 698.18 260.75 C 699.68 261.41 701.18 285.21 702.69 289.31 C 704.19 293.41 705.69 283.62 707.19 285.34 C 708.70 287.06 710.20 297.11 711.70 299.62 C 713.20 302.13 714.71 300.28 716.21 300.41 C 717.71 300.55 719.22 300.41 720.72 300.41 C 722.22 300.41 723.72 300.81 725.23 300.41 C 726.73 300.02 728.23 305.57 729.73 298.03 C 731.24 290.50 732.74 255.99 734.24 255.19 C 735.75 254.40 737.25 289.57 738.75 293.27 C 740.25 296.98 741.76 277.67 743.26 277.41 C 744.76 277.14 746.27 291.55 747.77 291.69 C 749.27 291.82 750.77 279.13 752.28 278.20 C 753.78 277.27 755.28 282.70 756.78 286.13 C 758.29 289.57 759.79 296.45 761.29 298.83 C 762.80 301.21 764.30 300.15 765.80 300.41 C 767.30 300.68 768.81 300.41 770.31 300.41 C 771.81 300.41 773.31 300.55 774.82 300.41 C 776.32 300.28 777.82 302.93 779.33 299.62 C 780.83 296.31 782.33 280.71 783.83 280.58 C 785.34 280.45 786.84 299.49 788.34 298.83 C 789.85 298.17 791.35 276.35 792.85 276.61 C 794.35 276.88 795.86 298.03 797.36 300.41 C 798.86 302.79 800.36 302.66 801.87 290.89 C 803.37 279.13 804.87 237.08 806.38 229.81 C 807.88 222.53 809.38 241.44 810.88 247.26 C 812.39 253.08 813.89 260.09 815.39 264.71 C 816.90 269.34 818.40 269.34 819.90 275.03 C 821.40 280.71 822.91 299.49 824.41 298.83 C 825.91 298.17 827.41 274.37 828.92 271.06 C 830.42 267.75 831.92 277.80 833.43 278.99 C 834.93 280.18 836.43 276.35 837.93 278.20 C 839.44 280.05 840.94 287.72 842.44 290.10 C 843.94 292.48 845.45 291.03 846.95 292.48 C 848.45 293.93 849.96 300.28 851.46 298.83 C 852.96 297.37 854.46 284.55 855.97 283.75 C 857.47 282.96 858.97 293.93 860.48 294.07 C 861.98 294.20 863.48 284.28 864.98 284.55 C 866.49 284.81 867.99 292.74 869.49 295.65 C 870.99 298.56 873.25 300.94 874.00 302.00 L 874.00 302.00 L 58.00 302.00 Z" fill="url(#area)"/>
<path d="M 58.00 302.00 C 58.75 301.74 61.01 300.41 62.51 300.41 C 64.01 300.41 65.51 302.93 67.02 302.00 C 68.52 301.07 70.02 295.26 71.52 294.86 C 73.03 294.46 74.53 299.49 76.03 299.62 C 77.54 299.75 79.04 301.07 80.54 295.65 C 82.04 290.23 83.55 271.06 85.05 267.09 C 86.55 263.13 88.06 268.42 89.56 271.85 C 91.06 275.29 92.56 284.55 94.07 287.72 C 95.57 290.89 97.07 288.78 98.57 290.89 C 100.08 293.01 101.58 298.96 103.08 300.41 C 104.59 301.87 106.09 299.49 107.59 299.62 C 109.09 299.75 110.60 300.81 112.10 301.21 C 113.60 301.60 115.10 301.87 116.61 302.00 C 118.11 302.13 119.61 302.00 121.12 302.00 C 122.62 302.00 124.12 305.44 125.62 302.00 C 127.13 298.56 128.63 282.43 130.13 281.37 C 131.64 280.32 133.14 296.98 134.64 295.65 C 136.14 294.33 137.65 273.57 139.15 273.44 C 140.65 273.31 142.15 293.41 143.66 294.86 C 145.16 296.31 146.66 282.17 148.17 282.17 C 149.67 282.17 151.17 296.18 152.67 294.86 C 154.18 293.54 155.68 275.95 157.18 274.23 C 158.69 272.51 160.19 281.64 161.69 284.55 C 163.19 287.46 164.70 288.78 166.20 291.69 C 167.70 294.60 169.20 303.59 170.71 302.00 C 172.21 300.41 173.71 283.22 175.22 282.17 C 176.72 281.11 178.22 292.35 179.72 295.65 C 181.23 298.96 182.73 301.34 184.23 302.00 C 185.73 302.66 187.24 303.98 188.74 299.62 C 190.24 295.26 191.75 303.45 193.25 275.82 C 194.75 248.19 196.25 133.95 197.76 133.81 C 199.26 133.68 200.76 249.51 202.27 275.03 C 203.77 300.55 205.27 282.43 206.77 286.93 C 208.28 291.42 209.78 301.87 211.28 302.00 C 212.78 302.13 214.29 287.98 215.79 287.72 C 217.29 287.46 218.80 300.28 220.30 300.41 C 221.80 300.55 223.30 289.44 224.81 288.51 C 226.31 287.59 227.81 295.65 229.31 294.86 C 230.82 294.07 232.32 285.74 233.82 283.75 C 235.33 281.77 236.83 284.41 238.33 282.96 C 239.83 281.51 241.34 272.91 242.84 275.03 C 244.34 277.14 245.85 291.16 247.35 295.65 C 248.85 300.15 250.35 303.85 251.86 302.00 C 253.36 300.15 254.86 287.59 256.36 284.55 C 257.87 281.51 259.37 282.03 260.87 283.75 C 262.38 285.47 263.88 294.60 265.38 294.86 C 266.88 295.12 268.39 285.60 269.89 285.34 C 271.39 285.08 272.90 292.35 274.40 293.27 C 275.90 294.20 277.40 291.16 278.91 290.89 C 280.41 290.63 281.91 290.50 283.41 291.69 C 284.92 292.88 286.42 296.31 287.92 298.03 C 289.43 299.75 290.93 302.26 292.43 302.00 C 293.93 301.74 295.44 296.45 296.94 296.45 C 298.44 296.45 299.94 301.07 301.45 302.00 C 302.95 302.93 304.45 302.00 305.96 302.00 C 307.46 302.00 308.96 302.00 310.46 302.00 C 311.97 302.00 313.47 303.19 314.97 302.00 C 316.48 300.81 317.98 294.86 319.48 294.86 C 320.98 294.86 322.49 300.81 323.99 302.00 C 325.49 303.19 326.99 303.45 328.50 302.00 C 330.00 300.55 331.50 293.93 333.01 293.27 C 334.51 292.61 336.01 296.58 337.51 298.03 C 339.02 299.49 340.52 301.34 342.02 302.00 C 343.52 302.66 345.03 302.40 346.53 302.00 C 348.03 301.60 349.54 299.88 351.04 299.62 C 352.54 299.36 354.04 300.81 355.55 300.41 C 357.05 300.02 358.55 300.81 360.06 297.24 C 361.56 293.67 363.06 279.26 364.56 278.99 C 366.07 278.73 367.57 291.82 369.07 295.65 C 370.57 299.49 372.08 302.40 373.58 302.00 C 375.08 301.60 376.59 297.11 378.09 293.27 C 379.59 289.44 381.09 279.39 382.60 278.99 C 384.10 278.60 385.60 287.19 387.10 290.89 C 388.61 294.60 390.11 303.72 391.61 301.21 C 393.12 298.69 394.62 280.98 396.12 275.82 C 397.62 270.66 399.13 269.74 400.63 270.27 C 402.13 270.80 403.64 274.63 405.14 278.99 C 406.64 283.36 408.14 292.61 409.65 296.45 C 411.15 300.28 412.65 301.47 414.15 302.00 C 415.66 302.53 417.16 299.62 418.66 299.62 C 420.17 299.62 421.67 301.60 423.17 302.00 C 424.67 302.40 426.18 302.00 427.68 302.00 C 429.18 302.00 430.69 304.64 432.19 302.00 C 433.69 299.36 435.19 288.65 436.70 286.13 C 438.20 283.62 439.70 285.21 441.20 286.93 C 442.71 288.65 444.21 294.46 445.71 296.45 C 447.22 298.43 448.72 298.30 450.22 298.83 C 451.72 299.36 453.23 299.09 454.73 299.62 C 456.23 300.15 457.73 302.40 459.24 302.00 C 460.74 301.60 462.24 297.64 463.75 297.24 C 465.25 296.84 466.75 301.21 468.25 299.62 C 469.76 298.03 471.26 288.12 472.76 287.72 C 474.27 287.32 475.77 295.92 477.27 297.24 C 478.77 298.56 480.28 296.58 481.78 295.65 C 483.28 294.73 484.78 299.75 486.29 291.69 C 487.79 283.62 489.29 251.49 490.80 247.26 C 492.30 243.03 493.80 294.46 495.30 266.30 C 496.81 238.14 498.31 100.49 499.81 78.28 C 501.31 56.07 502.82 108.29 504.32 133.02 C 505.82 157.75 507.33 207.06 508.83 226.63 C 510.33 246.20 511.83 249.11 513.34 250.43 C 514.84 251.76 516.34 230.47 517.85 234.57 C 519.35 238.67 520.85 263.79 522.35 275.03 C 523.86 286.27 525.36 298.30 526.86 302.00 C 528.36 305.70 529.87 297.77 531.37 297.24 C 532.87 296.71 534.38 301.87 535.88 298.83 C 537.38 295.79 538.88 278.99 540.39 278.99 C 541.89 278.99 543.39 300.28 544.90 298.83 C 546.40 297.37 547.90 275.82 549.40 270.27 C 550.91 264.71 552.41 260.22 553.91 265.51 C 555.41 270.80 556.92 297.24 558.42 302.00 C 559.92 306.76 561.43 294.07 562.93 294.07 C 564.43 294.07 565.93 302.53 567.44 302.00 C 568.94 301.47 570.44 292.22 571.94 290.89 C 573.45 289.57 574.95 303.59 576.45 294.07 C 577.96 284.55 579.46 238.40 580.96 233.77 C 582.46 229.15 583.97 267.62 585.47 266.30 C 586.97 264.98 588.48 228.75 589.98 225.84 C 591.48 222.93 592.98 249.24 594.49 248.85 C 595.99 248.45 597.49 222.80 598.99 223.46 C 600.50 224.12 602.00 249.11 603.50 252.81 C 605.01 256.52 606.51 238.00 608.01 245.67 C 609.51 253.34 611.02 292.22 612.52 298.83 C 614.02 305.44 615.52 289.70 617.03 285.34 C 618.53 280.98 620.03 287.72 621.54 272.65 C 623.04 257.57 624.54 195.30 626.04 194.90 C 627.55 194.50 629.05 253.08 630.55 270.27 C 632.06 287.46 633.56 293.80 635.06 298.03 C 636.56 302.26 638.07 296.18 639.57 295.65 C 641.07 295.12 642.57 297.50 644.08 294.86 C 645.58 292.22 647.08 281.24 648.59 279.79 C 650.09 278.33 651.59 282.96 653.09 286.13 C 654.60 289.31 656.10 297.50 657.60 298.83 C 659.10 300.15 660.61 294.86 662.11 294.07 C 663.61 293.27 665.12 293.01 666.62 294.07 C 668.12 295.12 669.62 299.88 671.13 300.41 C 672.63 300.94 674.13 297.24 675.64 297.24 C 677.14 297.24 678.64 299.88 680.14 300.41 C 681.65 300.94 683.15 309.54 684.65 300.41 C 686.15 291.29 687.66 248.19 689.16 245.67 C 690.66 243.16 692.17 282.83 693.67 285.34 C 695.17 287.85 696.67 260.09 698.18 260.75 C 699.68 261.41 701.18 285.21 702.69 289.31 C 704.19 293.41 705.69 283.62 707.19 285.34 C 708.70 287.06 710.20 297.11 711.70 299.62 C 713.20 302.13 714.71 300.28 716.21 300.41 C 717.71 300.55 719.22 300.41 720.72 300.41 C 722.22 300.41 723.72 300.81 725.23 300.41 C 726.73 300.02 728.23 305.57 729.73 298.03 C 731.24 290.50 732.74 255.99 734.24 255.19 C 735.75 254.40 737.25 289.57 738.75 293.27 C 740.25 296.98 741.76 277.67 743.26 277.41 C 744.76 277.14 746.27 291.55 747.77 291.69 C 749.27 291.82 750.77 279.13 752.28 278.20 C 753.78 277.27 755.28 282.70 756.78 286.13 C 758.29 289.57 759.79 296.45 761.29 298.83 C 762.80 301.21 764.30 300.15 765.80 300.41 C 767.30 300.68 768.81 300.41 770.31 300.41 C 771.81 300.41 773.31 300.55 774.82 300.41 C 776.32 300.28 777.82 302.93 779.33 299.62 C 780.83 296.31 782.33 280.71 783.83 280.58 C 785.34 280.45 786.84 299.49 788.34 298.83 C 789.85 298.17 791.35 276.35 792.85 276.61 C 794.35 276.88 795.86 298.03 797.36 300.41 C 798.86 302.79 800.36 302.66 801.87 290.89 C 803.37 279.13 804.87 237.08 806.38 229.81 C 807.88 222.53 809.38 241.44 810.88 247.26 C 812.39 253.08 813.89 260.09 815.39 264.71 C 816.90 269.34 818.40 269.34 819.90 275.03 C 821.40 280.71 822.91 299.49 824.41 298.83 C 825.91 298.17 827.41 274.37 828.92 271.06 C 830.42 267.75 831.92 277.80 833.43 278.99 C 834.93 280.18 836.43 276.35 837.93 278.20 C 839.44 280.05 840.94 287.72 842.44 290.10 C 843.94 292.48 845.45 291.03 846.95 292.48 C 848.45 293.93 849.96 300.28 851.46 298.83 C 852.96 297.37 854.46 284.55 855.97 283.75 C 857.47 282.96 858.97 293.93 860.48 294.07 C 861.98 294.20 863.48 284.28 864.98 284.55 C 866.49 284.81 867.99 292.74 869.49 295.65 C 870.99 298.56 873.25 300.94 874.00 302.00" fill="none" stroke="#22C55E" stroke-opacity="0.20" stroke-width="7" stroke-linecap="round" stroke-linejoin="round"/>
<path d="M 58.00 302.00 C 58.75 301.74 61.01 300.41 62.51 300.41 C 64.01 300.41 65.51 302.93 67.02 302.00 C 68.52 301.07 70.02 295.26 71.52 294.86 C 73.03 294.46 74.53 299.49 76.03 299.62 C 77.54 299.75 79.04 301.07 80.54 295.65 C 82.04 290.23 83.55 271.06 85.05 267.09 C 86.55 263.13 88.06 268.42 89.56 271.85 C 91.06 275.29 92.56 284.55 94.07 287.72 C 95.57 290.89 97.07 288.78 98.57 290.89 C 100.08 293.01 101.58 298.96 103.08 300.41 C 104.59 301.87 106.09 299.49 107.59 299.62 C 109.09 299.75 110.60 300.81 112.10 301.21 C 113.60 301.60 115.10 301.87 116.61 302.00 C 118.11 302.13 119.61 302.00 121.12 302.00 C 122.62 302.00 124.12 305.44 125.62 302.00 C 127.13 298.56 128.63 282.43 130.13 281.37 C 131.64 280.32 133.14 296.98 134.64 295.65 C 136.14 294.33 137.65 273.57 139.15 273.44 C 140.65 273.31 142.15 293.41 143.66 294.86 C 145.16 296.31 146.66 282.17 148.17 282.17 C 149.67 282.17 151.17 296.18 152.67 294.86 C 154.18 293.54 155.68 275.95 157.18 274.23 C 158.69 272.51 160.19 281.64 161.69 284.55 C 163.19 287.46 164.70 288.78 166.20 291.69 C 167.70 294.60 169.20 303.59 170.71 302.00 C 172.21 300.41 173.71 283.22 175.22 282.17 C 176.72 281.11 178.22 292.35 179.72 295.65 C 181.23 298.96 182.73 301.34 184.23 302.00 C 185.73 302.66 187.24 303.98 188.74 299.62 C 190.24 295.26 191.75 303.45 193.25 275.82 C 194.75 248.19 196.25 133.95 197.76 133.81 C 199.26 133.68 200.76 249.51 202.27 275.03 C 203.77 300.55 205.27 282.43 206.77 286.93 C 208.28 291.42 209.78 301.87 211.28 302.00 C 212.78 302.13 214.29 287.98 215.79 287.72 C 217.29 287.46 218.80 300.28 220.30 300.41 C 221.80 300.55 223.30 289.44 224.81 288.51 C 226.31 287.59 227.81 295.65 229.31 294.86 C 230.82 294.07 232.32 285.74 233.82 283.75 C 235.33 281.77 236.83 284.41 238.33 282.96 C 239.83 281.51 241.34 272.91 242.84 275.03 C 244.34 277.14 245.85 291.16 247.35 295.65 C 248.85 300.15 250.35 303.85 251.86 302.00 C 253.36 300.15 254.86 287.59 256.36 284.55 C 257.87 281.51 259.37 282.03 260.87 283.75 C 262.38 285.47 263.88 294.60 265.38 294.86 C 266.88 295.12 268.39 285.60 269.89 285.34 C 271.39 285.08 272.90 292.35 274.40 293.27 C 275.90 294.20 277.40 291.16 278.91 290.89 C 280.41 290.63 281.91 290.50 283.41 291.69 C 284.92 292.88 286.42 296.31 287.92 298.03 C 289.43 299.75 290.93 302.26 292.43 302.00 C 293.93 301.74 295.44 296.45 296.94 296.45 C 298.44 296.45 299.94 301.07 301.45 302.00 C 302.95 302.93 304.45 302.00 305.96 302.00 C 307.46 302.00 308.96 302.00 310.46 302.00 C 311.97 302.00 313.47 303.19 314.97 302.00 C 316.48 300.81 317.98 294.86 319.48 294.86 C 320.98 294.86 322.49 300.81 323.99 302.00 C 325.49 303.19 326.99 303.45 328.50 302.00 C 330.00 300.55 331.50 293.93 333.01 293.27 C 334.51 292.61 336.01 296.58 337.51 298.03 C 339.02 299.49 340.52 301.34 342.02 302.00 C 343.52 302.66 345.03 302.40 346.53 302.00 C 348.03 301.60 349.54 299.88 351.04 299.62 C 352.54 299.36 354.04 300.81 355.55 300.41 C 357.05 300.02 358.55 300.81 360.06 297.24 C 361.56 293.67 363.06 279.26 364.56 278.99 C 366.07 278.73 367.57 291.82 369.07 295.65 C 370.57 299.49 372.08 302.40 373.58 302.00 C 375.08 301.60 376.59 297.11 378.09 293.27 C 379.59 289.44 381.09 279.39 382.60 278.99 C 384.10 278.60 385.60 287.19 387.10 290.89 C 388.61 294.60 390.11 303.72 391.61 301.21 C 393.12 298.69 394.62 280.98 396.12 275.82 C 397.62 270.66 399.13 269.74 400.63 270.27 C 402.13 270.80 403.64 274.63 405.14 278.99 C 406.64 283.36 408.14 292.61 409.65 296.45 C 411.15 300.28 412.65 301.47 414.15 302.00 C 415.66 302.53 417.16 299.62 418.66 299.62 C 420.17 299.62 421.67 301.60 423.17 302.00 C 424.67 302.40 426.18 302.00 427.68 302.00 C 429.18 302.00 430.69 304.64 432.19 302.00 C 433.69 299.36 435.19 288.65 436.70 286.13 C 438.20 283.62 439.70 285.21 441.20 286.93 C 442.71 288.65 444.21 294.46 445.71 296.45 C 447.22 298.43 448.72 298.30 450.22 298.83 C 451.72 299.36 453.23 299.09 454.73 299.62 C 456.23 300.15 457.73 302.40 459.24 302.00 C 460.74 301.60 462.24 297.64 463.75 297.24 C 465.25 296.84 466.75 301.21 468.25 299.62 C 469.76 298.03 471.26 288.12 472.76 287.72 C 474.27 287.32 475.77 295.92 477.27 297.24 C 478.77 298.56 480.28 296.58 481.78 295.65 C 483.28 294.73 484.78 299.75 486.29 291.69 C 487.79 283.62 489.29 251.49 490.80 247.26 C 492.30 243.03 493.80 294.46 495.30 266.30 C 496.81 238.14 498.31 100.49 499.81 78.28 C 501.31 56.07 502.82 108.29 504.32 133.02 C 505.82 157.75 507.33 207.06 508.83 226.63 C 510.33 246.20 511.83 249.11 513.34 250.43 C 514.84 251.76 516.34 230.47 517.85 234.57 C 519.35 238.67 520.85 263.79 522.35 275.03 C 523.86 286.27 525.36 298.30 526.86 302.00 C 528.36 305.70 529.87 297.77 531.37 297.24 C 532.87 296.71 534.38 301.87 535.88 298.83 C 537.38 295.79 538.88 278.99 540.39 278.99 C 541.89 278.99 543.39 300.28 544.90 298.83 C 546.40 297.37 547.90 275.82 549.40 270.27 C 550.91 264.71 552.41 260.22 553.91 265.51 C 555.41 270.80 556.92 297.24 558.42 302.00 C 559.92 306.76 561.43 294.07 562.93 294.07 C 564.43 294.07 565.93 302.53 567.44 302.00 C 568.94 301.47 570.44 292.22 571.94 290.89 C 573.45 289.57 574.95 303.59 576.45 294.07 C 577.96 284.55 579.46 238.40 580.96 233.77 C 582.46 229.15 583.97 267.62 585.47 266.30 C 586.97 264.98 588.48 228.75 589.98 225.84 C 591.48 222.93 592.98 249.24 594.49 248.85 C 595.99 248.45 597.49 222.80 598.99 223.46 C 600.50 224.12 602.00 249.11 603.50 252.81 C 605.01 256.52 606.51 238.00 608.01 245.67 C 609.51 253.34 611.02 292.22 612.52 298.83 C 614.02 305.44 615.52 289.70 617.03 285.34 C 618.53 280.98 620.03 287.72 621.54 272.65 C 623.04 257.57 624.54 195.30 626.04 194.90 C 627.55 194.50 629.05 253.08 630.55 270.27 C 632.06 287.46 633.56 293.80 635.06 298.03 C 636.56 302.26 638.07 296.18 639.57 295.65 C 641.07 295.12 642.57 297.50 644.08 294.86 C 645.58 292.22 647.08 281.24 648.59 279.79 C 650.09 278.33 651.59 282.96 653.09 286.13 C 654.60 289.31 656.10 297.50 657.60 298.83 C 659.10 300.15 660.61 294.86 662.11 294.07 C 663.61 293.27 665.12 293.01 666.62 294.07 C 668.12 295.12 669.62 299.88 671.13 300.41 C 672.63 300.94 674.13 297.24 675.64 297.24 C 677.14 297.24 678.64 299.88 680.14 300.41 C 681.65 300.94 683.15 309.54 684.65 300.41 C 686.15 291.29 687.66 248.19 689.16 245.67 C 690.66 243.16 692.17 282.83 693.67 285.34 C 695.17 287.85 696.67 260.09 698.18 260.75 C 699.68 261.41 701.18 285.21 702.69 289.31 C 704.19 293.41 705.69 283.62 707.19 285.34 C 708.70 287.06 710.20 297.11 711.70 299.62 C 713.20 302.13 714.71 300.28 716.21 300.41 C 717.71 300.55 719.22 300.41 720.72 300.41 C 722.22 300.41 723.72 300.81 725.23 300.41 C 726.73 300.02 728.23 305.57 729.73 298.03 C 731.24 290.50 732.74 255.99 734.24 255.19 C 735.75 254.40 737.25 289.57 738.75 293.27 C 740.25 296.98 741.76 277.67 743.26 277.41 C 744.76 277.14 746.27 291.55 747.77 291.69 C 749.27 291.82 750.77 279.13 752.28 278.20 C 753.78 277.27 755.28 282.70 756.78 286.13 C 758.29 289.57 759.79 296.45 761.29 298.83 C 762.80 301.21 764.30 300.15 765.80 300.41 C 767.30 300.68 768.81 300.41 770.31 300.41 C 771.81 300.41 773.31 300.55 774.82 300.41 C 776.32 300.28 777.82 302.93 779.33 299.62 C 780.83 296.31 782.33 280.71 783.83 280.58 C 785.34 280.45 786.84 299.49 788.34 298.83 C 789.85 298.17 791.35 276.35 792.85 276.61 C 794.35 276.88 795.86 298.03 797.36 300.41 C 798.86 302.79 800.36 302.66 801.87 290.89 C 803.37 279.13 804.87 237.08 806.38 229.81 C 807.88 222.53 809.38 241.44 810.88 247.26 C 812.39 253.08 813.89 260.09 815.39 264.71 C 816.90 269.34 818.40 269.34 819.90 275.03 C 821.40 280.71 822.91 299.49 824.41 298.83 C 825.91 298.17 827.41 274.37 828.92 271.06 C 830.42 267.75 831.92 277.80 833.43 278.99 C 834.93 280.18 836.43 276.35 837.93 278.20 C 839.44 280.05 840.94 287.72 842.44 290.10 C 843.94 292.48 845.45 291.03 846.95 292.48 C 848.45 293.93 849.96 300.28 851.46 298.83 C 852.96 297.37 854.46 284.55 855.97 283.75 C 857.47 282.96 858.97 293.93 860.48 294.07 C 861.98 294.20 863.48 284.28 864.98 284.55 C 866.49 284.81 867.99 292.74 869.49 295.65 C 870.99 298.56 873.25 300.94 874.00 302.00" fill="none" stroke="#22C55E" stroke-width="2.4" stroke-linecap="round" stroke-linejoin="round"/>
<circle cx="499.8" cy="78.3" r="4.5" fill="#4ADE80" stroke="#0B1120" stroke-width="2"/>
<text x="499.8" y="68.3" text-anchor="middle" font-family="ui-monospace,Menlo,monospace" font-size="10" font-weight="700" fill="#4ADE80">282</text>
<circle cx="874.0" cy="302.0" r="3.5" fill="#F8FAFC"/>
<text x="16" y="183" text-anchor="middle" font-family="ui-monospace,Menlo,monospace" font-size="10" fill="#94A3B8" transform="rotate(-90 16 183)">Contributions</text>
</svg>