<svg xmlns="http://www.w3.org/2000/svg" width="900" height="340" viewBox="0 0 900 340" role="img" aria-label="Contribution activity, last 6 months">
<defs>
<linearGradient id="bg" x1="0" y1="0" x2="0" y2="1"><stop offset="0" stop-color="#0F172A"/><stop offset="1" stop-color="#0B1120"/></linearGradient>
<linearGradient id="area" x1="0" y1="0" x2="0" y2="1"><stop offset="0" stop-color="#22C55E" stop-opacity="0.42"/><stop offset="0.7" stop-color="#22C55E" stop-opacity="0.08"/><stop offset="1" stop-color="#22C55E" stop-opacity="0"/></linearGradient>
</defs>
<rect x="0" y="0" width="900" height="340" rx="14" fill="url(#bg)"/>
<text x="450" y="32" text-anchor="middle" font-family="ui-monospace,Menlo,monospace" font-size="17" font-weight="700" fill="#F8FAFC" letter-spacing="0.5">last 6 months</text>
<text x="450" y="50" text-anchor="middle" font-family="ui-monospace,Menlo,monospace" font-size="11" fill="#94A3B8">4,162 contributions · peak 282</text>
<line x1="58" y1="302.0" x2="874" y2="302.0" stroke="#1E293B" stroke-width="1" stroke-dasharray="2 4"/>
<text x="48" y="305.5" text-anchor="end" font-family="ui-monospace,Menlo,monospace" font-size="10" fill="#94A3B8">0</text>
<line x1="58" y1="242.5" x2="874" y2="242.5" stroke="#1E293B" stroke-width="1" stroke-dasharray="2 4"/>
<text x="48" y="246.0" text-anchor="end" font-family="ui-monospace,Menlo,monospace" font-size="10" fill="#94A3B8">75</text>
<line x1="58" y1="183.0" x2="874" y2="183.0" stroke="#1E293B" stroke-width="1" stroke-dasharray="2 4"/>
<text x="48" y="186.5" text-anchor="end" font-family="ui-monospace,Menlo,monospace" font-size="10" fill="#94A3B8">150</text>
<line x1="58" y1="123.5" x2="874" y2="123.5" stroke="#1E293B" stroke-width="1" stroke-dasharray="2 4"/>
<text x="48" y="127.0" text-anchor="end" font-family="ui-monospace,Menlo,monospace" font-size="10" fill="#94A3B8">225</text>
<line x1="58" y1="64.0" x2="874" y2="64.0" stroke="#1E293B" stroke-width="1" stroke-dasharray="2 4"/>
<text x="48" y="67.5" text-anchor="end" font-family="ui-monospace,Menlo,monospace" font-size="10" fill="#94A3B8">300</text>
<line x1="130.1" y1="64" x2="130.1" y2="302" stroke="#1E293B" stroke-width="1" stroke-opacity="0.6"/>
<text x="130.1" y="322" text-anchor="middle" font-family="ui-monospace,Menlo,monospace" font-size="10" fill="#94A3B8">Feb</text>
<line x1="256.4" y1="64" x2="256.4" y2="302" stroke="#1E293B" stroke-width="1" stroke-opacity="0.6"/>
<text x="256.4" y="322" text-anchor="middle" font-family="ui-monospace,Menlo,monospace" font-size="10" fill="#94A3B8">Mar</text>
<line x1="396.1" y1="64" x2="396.1" y2="302" stroke="#1E293B" stroke-width="1" stroke-opacity="0.6"/>
<text x="396.1" y="322" text-anchor="middle" font-family="ui-monospace,Menlo,monospace" font-size="10" fill="#94A3B8">Apr</text>
<line x1="531.4" y1="64" x2="531.4" y2="302" stroke="#1E293B" stroke-width="1" stroke-opacity="0.6"/>
<text x="531.4" y="322" text-anchor="middle" font-family="ui-monospace,Menlo,monospace" font-size="10" fill="#94A3B8">May</text>
<line x1="671.1" y1="64" x2="671.1" y2="302" stroke="#1E293B" stroke-width="1" stroke-opacity="0.6"/>
<text x="671.1" y="322" text-anchor="middle" font-family="ui-monospace,Menlo,monospace" font-size="10" fill="#94A3B8">Jun</text>
<line x1="806.4" y1="64" x2="806.4" y2="302" stroke="#1E293B" stroke-width="1" stroke-opacity="0.6"/>
<text x="806.4" y="322" text-anchor="middle" font-family="ui-monospace,Menlo,monospace" font-size="10" fill="#94A3B8">Jul</text>
<path d="M 58.00 295.65 C 58.75 290.89 61.01 271.06 62.51 267.09 C 64.01 263.13 65.51 268.42 67.02 271.85 C 68.52 275.29 70.02 284.55 71.52 287.72 C 73.03 290.89 74.53 288.78 76.03 290.89 C 77.54 293.01 79.04 298.96 80.54 300.41 C 82.04 301.87 83.55 299.49 85.05 299.62 C 86.55 299.75 88.06 300.81 89.56 301.21 C 91.06 301.60 92.56 301.87 94.07 302.00 C 95.57 302.13 97.07 302.00 98.57 302.00 C 100.08 302.00 101.58 305.44 103.08 302.00 C 104.59 298.56 106.09 282.43 107.59 281.37 C 109.09 280.32 110.60 296.98 112.10 295.65 C 113.60 294.33 115.10 273.57 116.61 273.44 C 118.11 273.31 119.61 293.41 121.12 294.86 C 122.62 296.31 124.12 282.17 125.62 282.17 C 127.13 282.17 128.63 296.18 130.13 294.86 C 131.64 293.54 133.14 275.95 134.64 274.23 C 136.14 272.51 137.65 281.64 139.15 284.55 C 140.65 287.46 142.15 288.78 143.66 291.69 C 145.16 294.60 146.66 303.59 148.17 302.00 C 149.67 300.41 151.17 283.22 152.67 282.17 C 154.18 281.11 155.68 292.35 157.18 295.65 C 158.69 298.96 160.19 301.34 161.69 302.00 C 163.19 302.66 164.70 303.98 166.20 299.62 C 167.70 295.26 169.20 303.45 170.71 275.82 C 172.21 248.19 173.71 133.95 175.22 133.81 C 176.72 133.68 178.22 249.51 179.72 275.03 C 181.23 300.55 182.73 282.43 184.23 286.93 C 185.73 291.42 187.24 301.87 188.74 302.00 C 190.24 302.13 191.75 287.98 193.25 287.72 C 194.75 287.46 196.25 300.28 197.76 300.41 C 199.26 300.55 200.76 289.44 202.27 288.51 C 203.77 287.59 205.27 295.65 206.77 294.86 C 208.28 294.07 209.78 285.74 211.28 283.75 C 212.78 281.77 214.29 284.41 215.79 282.96 C 217.29 281.51 218.80 272.91 220.30 275.03 C 221.80 277.14 223.30 291.16 224.81 295.65 C 226.31 300.15 227.81 303.85 229.31 302.00 C 230.82 300.15 232.32 287.59 233.82 284.55 C 235.33 281.51 236.83 282.03 238.33 283.75 C 239.83 285.47 241.34 294.60 242.84 294.86 C 244.34 295.12 245.85 285.60 247.35 285.34 C 248.85 285.08 250.35 292.35 251.86 293.27 C 253.36 294.20 254.86 291.16 256.36 290.89 C 257.87 290.63 259.37 290.50 260.87 291.69 C 262.38 292.88 263.88 296.31 265.38 298.03 C 266.88 299.75 268.39 302.26 269.89 302.00 C 271.39 301.74 272.90 296.45 274.40 296.45 C 275.90 296.45 277.40 301.07 278.91 302.00 C 280.41 302.93 281.91 302.00 283.41 302.00 C 284.92 302.00 286.42 302.00 287.92 302.00 C 289.43 302.00 290.93 303.19 292.43 302.00 C 293.93 300.81 295.44 294.86 296.94 294.86 C 298.44 294.86 299.94 300.81 301.45 302.00 C 302.95 303.19 304.45 303.45 305.96 302.00 C 307.46 300.55 308.96 293.93 310.46 293.27 C 311.97 292.61 313.47 296.58 314.97 298.03 C 316.48 299.49 317.98 301.34 319.48 302.00 C 320.98 302.66 322.49 302.40 323.99 302.00 C 325.49 301.60 326.99 299.88 328.50 299.62 C 330.00 299.36 331.50 300.81 333.01 300.41 C 334.51 300.02 336.01 300.81 337.51 297.24 C 339.02 293.67 340.52 279.26 342.02 278.99 C 343.52 278.73 345.03 291.82 346.53 295.65 C 348.03 299.49 349.54 302.40 351.04 302.00 C 352.54 301.60 354.04 297.11 355.55 293.27 C 357.05 289.44 358.55 279.39 360.06 278.99 C 361.56 278.60 363.06 287.19 364.56 290.89 C 366.07 294.60 367.57 303.72 369.07 301.21 C 370.57 298.69 372.08 280.98 373.58 275.82 C 375.08 270.66 376.59 269.74 378.09 270.27 C 379.59 270.80 381.09 274.63 382.60 278.99 C 384.10 283.36 385.60 292.61 387.10 296.45 C 388.61 300.28 390.11 301.47 391.61 302.00 C 393.12 302.53 394.62 299.62 396.12 299.62 C 397.62 299.62 399.13 301.60 400.63 302.00 C 402.13 302.40 403.64 302.00 405.14 302.00 C 406.64 302.00 408.14 304.64 409.65 302.00 C 411.15 299.36 412.65 288.65 414.15 286.13 C 415.66 283.62 417.16 285.21 418.66 286.93 C 420.17 288.65 421.67 294.46 423.17 296.45 C 424.67 298.43 426.18 298.30 427.68 298.83 C 429.18 299.36 430.69 299.09 432.19 299.62 C 433.69 300.15 435.19 302.40 436.70 302.00 C 438.20 301.60 439.70 297.64 441.20 297.24 C 442.71 296.84 444.21 301.21 445.71 299.62 C 447.22 298.03 448.72 288.12 450.22 287.72 C 451.72 287.32 453.23 295.92 454.73 297.24 C 456.23 298.56 457.73 296.58 459.24 295.65 C 460.74 294.73 462.24 299.75 463.75 291.69 C 465.25 283.62 466.75 251.49 468.25 247.26 C 469.76 243.03 471.26 294.46 472.76 266.30 C 474.27 238.14 475.77 100.49 477.27 78.28 C 478.77 56.07 480.28 108.29 481.78 133.02 C 483.28 157.75 484.78 207.06 486.29 226.63 C 487.79 246.20 489.29 249.11 490.80 250.43 C 492.30 251.76 493.80 230.47 495.30 234.57 C 496.81 238.67 498.31 263.79 499.81 275.03 C 501.31 286.27 502.82 298.30 504.32 302.00 C 505.82 305.70 507.33 297.77 508.83 297.24 C 510.33 296.71 511.83 301.87 513.34 298.83 C 514.84 295.79 516.34 278.99 517.85 278.99 C 519.35 278.99 520.85 300.28 522.35 298.83 C 523.86 297.37 525.36 275.82 526.86 270.27 C 528.36 264.71 529.87 260.22 531.37 265.51 C 532.87 270.80 534.38 297.24 535.88 302.00 C 537.38 306.76 538.88 294.07 540.39 294.07 C 541.89 294.07 543.39 302.53 544.90 302.00 C 546.40 301.47 547.90 292.22 549.40 290.89 C 550.91 289.57 552.41 303.59 553.91 294.07 C 555.41 284.55 556.92 238.40 558.42 233.77 C 559.92 229.15 561.43 267.62 562.93 266.30 C 564.43 264.98 565.93 228.75 567.44 225.84 C 568.94 222.93 570.44 249.24 571.94 248.85 C 573.45 248.45 574.95 222.80 576.45 223.46 C 577.96 224.12 579.46 249.11 580.96 252.81 C 582.46 256.52 583.97 238.00 585.47 245.67 C 586.97 253.34 588.48 292.22 589.98 298.83 C 591.48 305.44 592.98 289.70 594.49 285.34 C 595.99 280.98 597.49 287.72 598.99 272.65 C 600.50 257.57 602.00 195.30 603.50 194.90 C 605.01 194.50 606.51 253.08 608.01 270.27 C 609.51 287.46 611.02 293.80 612.52 298.03 C 614.02 302.26 615.52 296.18 617.03 295.65 C 618.53 295.12 620.03 297.50 621.54 294.86 C 623.04 292.22 624.54 281.24 626.04 279.79 C 627.55 278.33 629.05 282.96 630.55 286.13 C 632.06 289.31 633.56 297.50 635.06 298.83 C 636.56 300.15 638.07 294.86 639.57 294.07 C 641.07 293.27 642.57 293.01 644.08 294.07 C 645.58 295.12 647.08 299.88 648.59 300.41 C 650.09 300.94 651.59 297.24 653.09 297.24 C 654.60 297.24 656.10 299.88 657.60 300.41 C 659.10 300.94 660.61 309.54 662.11 300.41 C 663.61 291.29 665.12 248.19 666.62 245.67 C 668.12 243.16 669.62 282.83 671.13 285.34 C 672.63 287.85 674.13 260.09 675.64 260.75 C 677.14 261.41 678.64 285.21 680.14 289.31 C 681.65 293.41 683.15 283.62 684.65 285.34 C 686.15 287.06 687.66 297.11 689.16 299.62 C 690.66 302.13 692.17 300.28 693.67 300.41 C 695.17 300.55 696.67 300.41 698.18 300.41 C 699.68 300.41 701.18 300.81 702.69 300.41 C 704.19 300.02 705.69 305.57 707.19 298.03 C 708.70 290.50 710.20 255.99 711.70 255.19 C 713.20 254.40 714.71 289.57 716.21 293.27 C 717.71 296.98 719.22 277.67 720.72 277.41 C 722.22 277.14 723.72 291.55 725.23 291.69 C 726.73 291.82 728.23 279.13 729.73 278.20 C 731.24 277.27 732.74 282.70 734.24 286.13 C 735.75 289.57 737.25 296.45 738.75 298.83 C 740.25 301.21 741.76 300.15 743.26 300.41 C 744.76 300.68 746.27 300.41 747.77 300.41 C 749.27 300.41 750.77 300.55 752.28 300.41 C 753.78 300.28 755.28 302.93 756.78 299.62 C 758.29 296.31 759.79 280.71 761.29 280.58 C 762.80 280.45 764.30 299.49 765.80 298.83 C 767.30 298.17 768.81 276.35 770.31 276.61 C 771.81 276.88 773.31 298.03 774.82 300.41 C 776.32 302.79 777.82 302.66 779.33 290.89 C 780.83 279.13 782.33 237.08 783.83 229.81 C 785.34 222.53 786.84 241.44 788.34 247.26 C 789.85 253.08 791.35 260.09 792.85 264.71 C 794.35 269.34 795.86 269.34 797.36 275.03 C 798.86 280.71 800.36 299.49 801.87 298.83 C 803.37 298.17 804.87 274.37 806.38 271.06 C 807.88 267.75 809.38 277.80 810.88 278.99 C 812.39 280.18 813.89 276.35 815.39 278.20 C 816.90 280.05 818.40 287.72 819.90 290.10 C 821.40 292.48 822.91 291.03 824.41 292.48 C 825.91 293.93 827.41 300.28 828.92 298.83 C 830.42 297.37 831.92 284.55 833.43 283.75 C 834.93 282.96 836.43 293.93 837.93 294.07 C 839.44 294.20 840.94 284.28 842.44 284.55 C 843.94 284.81 845.45 293.01 846.95 295.65 C 848.45 298.30 849.96 304.12 851.46 300.41 C 852.96 296.71 854.46 279.52 855.97 273.44 C 857.47 267.36 858.97 261.01 860.48 263.92 C 861.98 266.83 863.48 284.81 864.98 290.89 C 866.49 296.98 867.99 298.56 869.49 300.41 C 870.99 302.26 873.25 301.74 874.00 302.00 L 874.00 302.00 L 58.00 302.00 Z" fill="url(#area)"/>
<path d="M 58.00 295.65 C 58.75 290.89 61.01 271.06 62.51 267.09 C 64.01 263.13 65.51 268.42 67.02 271.85 C 68.52 275.29 70.02 284.55 71.52 287.72 C 73.03 290.89 74.53 288.78 76.03 290.89 C 77.54 293.01 79.04 298.96 80.54 300.41 C 82.04 301.87 83.55 299.49 85.05 299.62 C 86.55 299.75 88.06 300.81 89.56 301.21 C 91.06 301.60 92.56 301.87 94.07 302.00 C 95.57 302.13 97.07 302.00 98.57 302.00 C 100.08 302.00 101.58 305.44 103.08 302.00 C 104.59 298.56 106.09 282.43 107.59 281.37 C 109.09 280.32 110.60 296.98 112.10 295.65 C 113.60 294.33 115.10 273.57 116.61 273.44 C 118.11 273.31 119.61 293.41 121.12 294.86 C 122.62 296.31 124.12 282.17 125.62 282.17 C 127.13 282.17 128.63 296.18 130.13 294.86 C 131.64 293.54 133.14 275.95 134.64 274.23 C 136.14 272.51 137.65 281.64 139.15 284.55 C 140.65 287.46 142.15 288.78 143.66 291.69 C 145.16 294.60 146.66 303.59 148.17 302.00 C 149.67 300.41 151.17 283.22 152.67 282.17 C 154.18 281.11 155.68 292.35 157.18 295.65 C 158.69 298.96 160.19 301.34 161.69 302.00 C 163.19 302.66 164.70 303.98 166.20 299.62 C 167.70 295.26 169.20 303.45 170.71 275.82 C 172.21 248.19 173.71 133.95 175.22 133.81 C 176.72 133.68 178.22 249.51 179.72 275.03 C 181.23 300.55 182.73 282.43 184.23 286.93 C 185.73 291.42 187.24 301.87 188.74 302.00 C 190.24 302.13 191.75 287.98 193.25 287.72 C 194.75 287.46 196.25 300.28 197.76 300.41 C 199.26 300.55 200.76 289.44 202.27 288.51 C 203.77 287.59 205.27 295.65 206.77 294.86 C 208.28 294.07 209.78 285.74 211.28 283.75 C 212.78 281.77 214.29 284.41 215.79 282.96 C 217.29 281.51 218.80 272.91 220.30 275.03 C 221.80 277.14 223.30 291.16 224.81 295.65 C 226.31 300.15 227.81 303.85 229.31 302.00 C 230.82 300.15 232.32 287.59 233.82 284.55 C 235.33 281.51 236.83 282.03 238.33 283.75 C 239.83 285.47 241.34 294.60 242.84 294.86 C 244.34 295.12 245.85 285.60 247.35 285.34 C 248.85 285.08 250.35 292.35 251.86 293.27 C 253.36 294.20 254.86 291.16 256.36 290.89 C 257.87 290.63 259.37 290.50 260.87 291.69 C 262.38 292.88 263.88 296.31 265.38 298.03 C 266.88 299.75 268.39 302.26 269.89 302.00 C 271.39 301.74 272.90 296.45 274.40 296.45 C 275.90 296.45 277.40 301.07 278.91 302.00 C 280.41 302.93 281.91 302.00 283.41 302.00 C 284.92 302.00 286.42 302.00 287.92 302.00 C 289.43 302.00 290.93 303.19 292.43 302.00 C 293.93 300.81 295.44 294.86 296.94 294.86 C 298.44 294.86 299.94 300.81 301.45 302.00 C 302.95 303.19 304.45 303.45 305.96 302.00 C 307.46 300.55 308.96 293.93 310.46 293.27 C 311.97 292.61 313.47 296.58 314.97 298.03 C 316.48 299.49 317.98 301.34 319.48 302.00 C 320.98 302.66 322.49 302.40 323.99 302.00 C 325.49 301.60 326.99 299.88 328.50 299.62 C 330.00 299.36 331.50 300.81 333.01 300.41 C 334.51 300.02 336.01 300.81 337.51 297.24 C 339.02 293.67 340.52 279.26 342.02 278.99 C 343.52 278.73 345.03 291.82 346.53 295.65 C 348.03 299.49 349.54 302.40 351.04 302.00 C 352.54 301.60 354.04 297.11 355.55 293.27 C 357.05 289.44 358.55 279.39 360.06 278.99 C 361.56 278.60 363.06 287.19 364.56 290.89 C 366.07 294.60 367.57 303.72 369.07 301.21 C 370.57 298.69 372.08 280.98 373.58 275.82 C 375.08 270.66 376.59 269.74 378.09 270.27 C 379.59 270.80 381.09 274.63 382.60 278.99 C 384.10 283.36 385.60 292.61 387.10 296.45 C 388.61 300.28 390.11 301.47 391.61 302.00 C 393.12 302.53 394.62 299.62 396.12 299.62 C 397.62 299.62 399.13 301.60 400.63 302.00 C 402.13 302.40 403.64 302.00 405.14 302.00 C 406.64 302.00 408.14 304.64 409.65 302.00 C 411.15 299.36 412.65 288.65 414.15 286.13 C 415.66 283.62 417.16 285.21 418.66 286.93 C 420.17 288.65 421.67 294.46 423.17 296.45 C 424.67 298.43 426.18 298.30 427.68 298.83 C 429.18 299.36 430.69 299.09 432.19 299.62 C 433.69 300.15 435.19 302.40 436.70 302.00 C 438.20 301.60 439.70 297.64 441.20 297.24 C 442.71 296.84 444.21 301.21 445.71 299.62 C 447.22 298.03 448.72 288.12 450.22 287.72 C 451.72 287.32 453.23 295.92 454.73 297.24 C 456.23 298.56 457.73 296.58 459.24 295.65 C 460.74 294.73 462.24 299.75 463.75 291.69 C 465.25 283.62 466.75 251.49 468.25 247.26 C 469.76 243.03 471.26 294.46 472.76 266.30 C 474.27 238.14 475.77 100.49 477.27 78.28 C 478.77 56.07 480.28 108.29 481.78 133.02 C 483.28 157.75 484.78 207.06 486.29 226.63 C 487.79 246.20 489.29 249.11 490.80 250.43 C 492.30 251.76 493.80 230.47 495.30 234.57 C 496.81 238.67 498.31 263.79 499.81 275.03 C 501.31 286.27 502.82 298.30 504.32 302.00 C 505.82 305.70 507.33 297.77 508.83 297.24 C 510.33 296.71 511.83 301.87 513.34 298.83 C 514.84 295.79 516.34 278.99 517.85 278.99 C 519.35 278.99 520.85 300.28 522.35 298.83 C 523.86 297.37 525.36 275.82 526.86 270.27 C 528.36 264.71 529.87 260.22 531.37 265.51 C 532.87 270.80 534.38 297.24 535.88 302.00 C 537.38 306.76 538.88 294.07 540.39 294.07 C 541.89 294.07 543.39 302.53 544.90 302.00 C 546.40 301.47 547.90 292.22 549.40 290.89 C 550.91 289.57 552.41 303.59 553.91 294.07 C 555.41 284.55 556.92 238.40 558.42 233.77 C 559.92 229.15 561.43 267.62 562.93 266.30 C 564.43 264.98 565.93 228.75 567.44 225.84 C 568.94 222.93 570.44 249.24 571.94 248.85 C 573.45 248.45 574.95 222.80 576.45 223.46 C 577.96 224.12 579.46 249.11 580.96 252.81 C 582.46 256.52 583.97 238.00 585.47 245.67 C 586.97 253.34 588.48 292.22 589.98 298.83 C 591.48 305.44 592.98 289.70 594.49 285.34 C 595.99 280.98 597.49 287.72 598.99 272.65 C 600.50 257.57 602.00 195.30 603.50 194.90 C 605.01 194.50 606.51 253.08 608.01 270.27 C 609.51 287.46 611.02 293.80 612.52 298.03 C 614.02 302.26 615.52 296.18 617.03 295.65 C 618.53 295.12 620.03 297.50 621.54 294.86 C 623.04 292.22 624.54 281.24 626.04 279.79 C 627.55 278.33 629.05 282.96 630.55 286.13 C 632.06 289.31 633.56 297.50 635.06 298.83 C 636.56 300.15 638.07 294.86 639.57 294.07 C 641.07 293.27 642.57 293.01 644.08 294.07 C 645.58 295.12 647.08 299.88 648.59 300.41 C 650.09 300.94 651.59 297.24 653.09 297.24 C 654.60 297.24 656.10 299.88 657.60 300.41 C 659.10 300.94 660.61 309.54 662.11 300.41 C 663.61 291.29 665.12 248.19 666.62 245.67 C 668.12 243.16 669.62 282.83 671.13 285.34 C 672.63 287.85 674.13 260.09 675.64 260.75 C 677.14 261.41 678.64 285.21 680.14 289.31 C 681.65 293.41 683.15 283.62 684.65 285.34 C 686.15 287.06 687.66 297.11 689.16 299.62 C 690.66 302.13 692.17 300.28 693.67 300.41 C 695.17 300.55 696.67 300.41 698.18 300.41 C 699.68 300.41 701.18 300.81 702.69 300.41 C 704.19 300.02 705.69 305.57 707.19 298.03 C 708.70 290.50 710.20 255.99 711.70 255.19 C 713.20 254.40 714.71 289.57 716.21 293.27 C 717.71 296.98 719.22 277.67 720.72 277.41 C 722.22 277.14 723.72 291.55 725.23 291.69 C 726.73 291.82 728.23 279.13 729.73 278.20 C 731.24 277.27 732.74 282.70 734.24 286.13 C 735.75 289.57 737.25 296.45 738.75 298.83 C 740.25 301.21 741.76 300.15 743.26 300.41 C 744.76 300.68 746.27 300.41 747.77 300.41 C 749.27 300.41 750.77 300.55 752.28 300.41 C 753.78 300.28 755.28 302.93 756.78 299.62 C 758.29 296.31 759.79 280.71 761.29 280.58 C 762.80 280.45 764.30 299.49 765.80 298.83 C 767.30 298.17 768.81 276.35 770.31 276.61 C 771.81 276.88 773.31 298.03 774.82 300.41 C 776.32 302.79 777.82 302.66 779.33 290.89 C 780.83 279.13 782.33 237.08 783.83 229.81 C 785.34 222.53 786.84 241.44 788.34 247.26 C 789.85 253.08 791.35 260.09 792.85 264.71 C 794.35 269.34 795.86 269.34 797.36 275.03 C 798.86 280.71 800.36 299.49 801.87 298.83 C 803.37 298.17 804.87 274.37 806.38 271.06 C 807.88 267.75 809.38 277.80 810.88 278.99 C 812.39 280.18 813.89 276.35 815.39 278.20 C 816.90 280.05 818.40 287.72 819.90 290.10 C 821.40 292.48 822.91 291.03 824.41 292.48 C 825.91 293.93 827.41 300.28 828.92 298.83 C 830.42 297.37 831.92 284.55 833.43 283.75 C 834.93 282.96 836.43 293.93 837.93 294.07 C 839.44 294.20 840.94 284.28 842.44 284.55 C 843.94 284.81 845.45 293.01 846.95 295.65 C 848.45 298.30 849.96 304.12 851.46 300.41 C 852.96 296.71 854.46 279.52 855.97 273.44 C 857.47 267.36 858.97 261.01 860.48 263.92 C 861.98 266.83 863.48 284.81 864.98 290.89 C 866.49 296.98 867.99 298.56 869.49 300.41 C 870.99 302.26 873.25 301.74 874.00 302.00" fill="none" stroke="#22C55E" stroke-opacity="0.20" stroke-width="7" stroke-linecap="round" stroke-linejoin="round"/>
<path d="M 58.00 295.65 C 58.75 290.89 61.01 271.06 62.51 267.09 C 64.01 263.13 65.51 268.42 67.02 271.85 C 68.52 275.29 70.02 284.55 71.52 287.72 C 73.03 290.89 74.53 288.78 76.03 290.89 C 77.54 293.01 79.04 298.96 80.54 300.41 C 82.04 301.87 83.55 299.49 85.05 299.62 C 86.55 299.75 88.06 300.81 89.56 301.21 C 91.06 301.60 92.56 301.87 94.07 302.00 C 95.57 302.13 97.07 302.00 98.57 302.00 C 100.08 302.00 101.58 305.44 103.08 302.00 C 104.59 298.56 106.09 282.43 107.59 281.37 C 109.09 280.32 110.60 296.98 112.10 295.65 C 113.60 294.33 115.10 273.57 116.61 273.44 C 118.11 273.31 119.61 293.41 121.12 294.86 C 122.62 296.31 124.12 282.17 125.62 282.17 C 127.13 282.17 128.63 296.18 130.13 294.86 C 131.64 293.54 133.14 275.95 134.64 274.23 C 136.14 272.51 137.65 281.64 139.15 284.55 C 140.65 287.46 142.15 288.78 143.66 291.69 C 145.16 294.60 146.66 303.59 148.17 302.00 C 149.67 300.41 151.17 283.22 152.67 282.17 C 154.18 281.11 155.68 292.35 157.18 295.65 C 158.69 298.96 160.19 301.34 161.69 302.00 C 163.19 302.66 164.70 303.98 166.20 299.62 C 167.70 295.26 169.20 303.45 170.71 275.82 C 172.21 248.19 173.71 133.95 175.22 133.81 C 176.72 133.68 178.22 249.51 179.72 275.03 C 181.23 300.55 182.73 282.43 184.23 286.93 C 185.73 291.42 187.24 301.87 188.74 302.00 C 190.24 302.13 191.75 287.98 193.25 287.72 C 194.75 287.46 196.25 300.28 197.76 300.41 C 199.26 300.55 200.76 289.44 202.27 288.51 C 203.77 287.59 205.27 295.65 206.77 294.86 C 208.28 294.07 209.78 285.74 211.28 283.75 C 212.78 281.77 214.29 284.41 215.79 282.96 C 217.29 281.51 218.80 272.91 220.30 275.03 C 221.80 277.14 223.30 291.16 224.81 295.65 C 226.31 300.15 227.81 303.85 229.31 302.00 C 230.82 300.15 232.32 287.59 233.82 284.55 C 235.33 281.51 236.83 282.03 238.33 283.75 C 239.83 285.47 241.34 294.60 242.84 294.86 C 244.34 295.12 245.85 285.60 247.35 285.34 C 248.85 285.08 250.35 292.35 251.86 293.27 C 253.36 294.20 254.86 291.16 256.36 290.89 C 257.87 290.63 259.37 290.50 260.87 291.69 C 262.38 292.88 263.88 296.31 265.38 298.03 C 266.88 299.75 268.39 302.26 269.89 302.00 C 271.39 301.74 272.90 296.45 274.40 296.45 C 275.90 296.45 277.40 301.07 278.91 302.00 C 280.41 302.93 281.91 302.00 283.41 302.00 C 284.92 302.00 286.42 302.00 287.92 302.00 C 289.43 302.00 290.93 303.19 292.43 302.00 C 293.93 300.81 295.44 294.86 296.94 294.86 C 298.44 294.86 299.94 300.81 301.45 302.00 C 302.95 303.19 304.45 303.45 305.96 302.00 C 307.46 300.55 308.96 293.93 310.46 293.27 C 311.97 292.61 313.47 296.58 314.97 298.03 C 316.48 299.49 317.98 301.34 319.48 302.00 C 320.98 302.66 322.49 302.40 323.99 302.00 C 325.49 301.60 326.99 299.88 328.50 299.62 C 330.00 299.36 331.50 300.81 333.01 300.41 C 334.51 300.02 336.01 300.81 337.51 297.24 C 339.02 293.67 340.52 279.26 342.02 278.99 C 343.52 278.73 345.03 291.82 346.53 295.65 C 348.03 299.49 349.54 302.40 351.04 302.00 C 352.54 301.60 354.04 297.11 355.55 293.27 C 357.05 289.44 358.55 279.39 360.06 278.99 C 361.56 278.60 363.06 287.19 364.56 290.89 C 366.07 294.60 367.57 303.72 369.07 301.21 C 370.57 298.69 372.08 280.98 373.58 275.82 C 375.08 270.66 376.59 269.74 378.09 270.27 C 379.59 270.80 381.09 274.63 382.60 278.99 C 384.10 283.36 385.60 292.61 387.10 296.45 C 388.61 300.28 390.11 301.47 391.61 302.00 C 393.12 302.53 394.62 299.62 396.12 299.62 C 397.62 299.62 399.13 301.60 400.63 302.00 C 402.13 302.40 403.64 302.00 405.14 302.00 C 406.64 302.00 408.14 304.64 409.65 302.00 C 411.15 299.36 412.65 288.65 414.15 286.13 C 415.66 283.62 417.16 285.21 418.66 286.93 C 420.17 288.65 421.67 294.46 423.17 296.45 C 424.67 298.43 426.18 298.30 427.68 298.83 C 429.18 299.36 430.69 299.09 432.19 299.62 C 433.69 300.15 435.19 302.40 436.70 302.00 C 438.20 301.60 439.70 297.64 441.20 297.24 C 442.71 296.84 444.21 301.21 445.71 299.62 C 447.22 298.03 448.72 288.12 450.22 287.72 C 451.72 287.32 453.23 295.92 454.73 297.24 C 456.23 298.56 457.73 296.58 459.24 295.65 C 460.74 294.73 462.24 299.75 463.75 291.69 C 465.25 283.62 466.75 251.49 468.25 247.26 C 469.76 243.03 471.26 294.46 472.76 266.30 C 474.27 238.14 475.77 100.49 477.27 78.28 C 478.77 56.07 480.28 108.29 481.78 133.02 C 483.28 157.75 484.78 207.06 486.29 226.63 C 487.79 246.20 489.29 249.11 490.80 250.43 C 492.30 251.76 493.80 230.47 495.30 234.57 C 496.81 238.67 498.31 263.79 499.81 275.03 C 501.31 286.27 502.82 298.30 504.32 302.00 C 505.82 305.70 507.33 297.77 508.83 297.24 C 510.33 296.71 511.83 301.87 513.34 298.83 C 514.84 295.79 516.34 278.99 517.85 278.99 C 519.35 278.99 520.85 300.28 522.35 298.83 C 523.86 297.37 525.36 275.82 526.86 270.27 C 528.36 264.71 529.87 260.22 531.37 265.51 C 532.87 270.80 534.38 297.24 535.88 302.00 C 537.38 306.76 538.88 294.07 540.39 294.07 C 541.89 294.07 543.39 302.53 544.90 302.00 C 546.40 301.47 547.90 292.22 549.40 290.89 C 550.91 289.57 552.41 303.59 553.91 294.07 C 555.41 284.55 556.92 238.40 558.42 233.77 C 559.92 229.15 561.43 267.62 562.93 266.30 C 564.43 264.98 565.93 228.75 567.44 225.84 C 568.94 222.93 570.44 249.24 571.94 248.85 C 573.45 248.45 574.95 222.80 576.45 223.46 C 577.96 224.12 579.46 249.11 580.96 252.81 C 582.46 256.52 583.97 238.00 585.47 245.67 C 586.97 253.34 588.48 292.22 589.98 298.83 C 591.48 305.44 592.98 289.70 594.49 285.34 C 595.99 280.98 597.49 287.72 598.99 272.65 C 600.50 257.57 602.00 195.30 603.50 194.90 C 605.01 194.50 606.51 253.08 608.01 270.27 C 609.51 287.46 611.02 293.80 612.52 298.03 C 614.02 302.26 615.52 296.18 617.03 295.65 C 618.53 295.12 620.03 297.50 621.54 294.86 C 623.04 292.22 624.54 281.24 626.04 279.79 C 627.55 278.33 629.05 282.96 630.55 286.13 C 632.06 289.31 633.56 297.50 635.06 298.83 C 636.56 300.15 638.07 294.86 639.57 294.07 C 641.07 293.27 642.57 293.01 644.08 294.07 C 645.58 295.12 647.08 299.88 648.59 300.41 C 650.09 300.94 651.59 297.24 653.09 297.24 C 654.60 297.24 656.10 299.88 657.60 300.41 C 659.10 300.94 660.61 309.54 662.11 300.41 C 663.61 291.29 665.12 248.19 666.62 245.67 C 668.12 243.16 669.62 282.83 671.13 285.34 C 672.63 287.85 674.13 260.09 675.64 260.75 C 677.14 261.41 678.64 285.21 680.14 289.31 C 681.65 293.41 683.15 283.62 684.65 285.34 C 686.15 287.06 687.66 297.11 689.16 299.62 C 690.66 302.13 692.17 300.28 693.67 300.41 C 695.17 300.55 696.67 300.41 698.18 300.41 C 699.68 300.41 701.18 300.81 702.69 300.41 C 704.19 300.02 705.69 305.57 707.19 298.03 C 708.70 290.50 710.20 255.99 711.70 255.19 C 713.20 254.40 714.71 289.57 716.21 293.27 C 717.71 296.98 719.22 277.67 720.72 277.41 C 722.22 277.14 723.72 291.55 725.23 291.69 C 726.73 291.82 728.23 279.13 729.73 278.20 C 731.24 277.27 732.74 282.70 734.24 286.13 C 735.75 289.57 737.25 296.45 738.75 298.83 C 740.25 301.21 741.76 300.15 743.26 300.41 C 744.76 300.68 746.27 300.41 747.77 300.41 C 749.27 300.41 750.77 300.55 752.28 300.41 C 753.78 300.28 755.28 302.93 756.78 299.62 C 758.29 296.31 759.79 280.71 761.29 280.58 C 762.80 280.45 764.30 299.49 765.80 298.83 C 767.30 298.17 768.81 276.35 770.31 276.61 C 771.81 276.88 773.31 298.03 774.82 300.41 C 776.32 302.79 777.82 302.66 779.33 290.89 C 780.83 279.13 782.33 237.08 783.83 229.81 C 785.34 222.53 786.84 241.44 788.34 247.26 C 789.85 253.08 791.35 260.09 792.85 264.71 C 794.35 269.34 795.86 269.34 797.36 275.03 C 798.86 280.71 800.36 299.49 801.87 298.83 C 803.37 298.17 804.87 274.37 806.38 271.06 C 807.88 267.75 809.38 277.80 810.88 278.99 C 812.39 280.18 813.89 276.35 815.39 278.20 C 816.90 280.05 818.40 287.72 819.90 290.10 C 821.40 292.48 822.91 291.03 824.41 292.48 C 825.91 293.93 827.41 300.28 828.92 298.83 C 830.42 297.37 831.92 284.55 833.43 283.75 C 834.93 282.96 836.43 293.93 837.93 294.07 C 839.44 294.20 840.94 284.28 842.44 284.55 C 843.94 284.81 845.45 293.01 846.95 295.65 C 848.45 298.30 849.96 304.12 851.46 300.41 C 852.96 296.71 854.46 279.52 855.97 273.44 C 857.47 267.36 858.97 261.01 860.48 263.92 C 861.98 266.83 863.48 284.81 864.98 290.89 C 866.49 296.98 867.99 298.56 869.49 300.41 C 870.99 302.26 873.25 301.74 874.00 302.00" fill="none" stroke="#22C55E" stroke-width="2.4" stroke-linecap="round" stroke-linejoin="round"/>
<circle cx="477.3" cy="78.3" r="4.5" fill="#4ADE80" stroke="#0B1120" stroke-width="2"/>
<text x="477.3" y="68.3" text-anchor="middle" font-family="ui-monospace,Menlo,monospace" font-size="10" font-weight="700" fill="#4ADE80">282</text>
<circle cx="874.0" cy="302.0" r="3.5" fill="#F8FAFC"/>
<text x="16" y="183" text-anchor="middle" font-family="ui-monospace,Menlo,monospace" font-size="10" fill="#94A3B8" transform="rotate(-90 16 183)">Contributions</text>
</svg>