<svg xmlns="http://www.w3.org/2000/svg" width="900" height="340" viewBox="0 0 900 340" role="img" aria-label="Contribution activity, last 6 months">
<defs>
<linearGradient id="bg" x1="0" y1="0" x2="0" y2="1"><stop offset="0" stop-color="#0F172A"/><stop offset="1" stop-color="#0B1120"/></linearGradient>
<linearGradient id="area" x1="0" y1="0" x2="0" y2="1"><stop offset="0" stop-color="#22C55E" stop-opacity="0.42"/><stop offset="0.7" stop-color="#22C55E" stop-opacity="0.08"/><stop offset="1" stop-color="#22C55E" stop-opacity="0"/></linearGradient>
</defs>
<rect x="0" y="0" width="900" height="340" rx="14" fill="url(#bg)"/>
<text x="450" y="32" text-anchor="middle" font-family="ui-monospace,Menlo,monospace" font-size="17" font-weight="700" fill="#F8FAFC" letter-spacing="0.5">last 6 months</text>
<text x="450" y="50" text-anchor="middle" font-family="ui-monospace,Menlo,monospace" font-size="11" fill="#94A3B8">4,146 contributions · peak 282</text>
<line x1="58" y1="302.0" x2="874" y2="302.0" stroke="#1E293B" stroke-width="1" stroke-dasharray="2 4"/>
<text x="48" y="305.5" text-anchor="end" font-family="ui-monospace,Menlo,monospace" font-size="10" fill="#94A3B8">0</text>
<line x1="58" y1="242.5" x2="874" y2="242.5" stroke="#1E293B" stroke-width="1" stroke-dasharray="2 4"/>
<text x="48" y="246.0" text-anchor="end" font-family="ui-monospace,Menlo,monospace" font-size="10" fill="#94A3B8">75</text>
<line x1="58" y1="183.0" x2="874" y2="183.0" stroke="#1E293B" stroke-width="1" stroke-dasharray="2 4"/>
<text x="48" y="186.5" text-anchor="end" font-family="ui-monospace,Menlo,monospace" font-size="10" fill="#94A3B8">150</text>
<line x1="58" y1="123.5" x2="874" y2="123.5" stroke="#1E293B" stroke-width="1" stroke-dasharray="2 4"/>
<text x="48" y="127.0" text-anchor="end" font-family="ui-monospace,Menlo,monospace" font-size="10" fill="#94A3B8">225</text>
<line x1="58" y1="64.0" x2="874" y2="64.0" stroke="#1E293B" stroke-width="1" stroke-dasharray="2 4"/>
<text x="48" y="67.5" text-anchor="end" font-family="ui-monospace,Menlo,monospace" font-size="10" fill="#94A3B8">300</text>
<line x1="121.1" y1="64" x2="121.1" y2="302" stroke="#1E293B" stroke-width="1" stroke-opacity="0.6"/>
<text x="121.1" y="322" text-anchor="middle" font-family="ui-monospace,Menlo,monospace" font-size="10" fill="#94A3B8">Feb</text>
<line x1="247.3" y1="64" x2="247.3" y2="302" stroke="#1E293B" stroke-width="1" stroke-opacity="0.6"/>
<text x="247.3" y="322" text-anchor="middle" font-family="ui-monospace,Menlo,monospace" font-size="10" fill="#94A3B8">Mar</text>
<line x1="387.1" y1="64" x2="387.1" y2="302" stroke="#1E293B" stroke-width="1" stroke-opacity="0.6"/>
<text x="387.1" y="322" text-anchor="middle" font-family="ui-monospace,Menlo,monospace" font-size="10" fill="#94A3B8">Apr</text>
<line x1="522.4" y1="64" x2="522.4" y2="302" stroke="#1E293B" stroke-width="1" stroke-opacity="0.6"/>
<text x="522.4" y="322" text-anchor="middle" font-family="ui-monospace,Menlo,monospace" font-size="10" fill="#94A3B8">May</text>
<line x1="662.1" y1="64" x2="662.1" y2="302" stroke="#1E293B" stroke-width="1" stroke-opacity="0.6"/>
<text x="662.1" y="322" text-anchor="middle" font-family="ui-monospace,Menlo,monospace" font-size="10" fill="#94A3B8">Jun</text>
<line x1="797.4" y1="64" x2="797.4" y2="302" stroke="#1E293B" stroke-width="1" stroke-opacity="0.6"/>
<text x="797.4" y="322" text-anchor="middle" font-family="ui-monospace,Menlo,monospace" font-size="10" fill="#94A3B8">Jul</text>
<path d="M 58.00 271.85 C 58.75 274.50 61.01 284.55 62.51 287.72 C 64.01 290.89 65.51 288.78 67.02 290.89 C 68.52 293.01 70.02 298.96 71.52 300.41 C 73.03 301.87 74.53 299.49 76.03 299.62 C 77.54 299.75 79.04 300.81 80.54 301.21 C 82.04 301.60 83.55 301.87 85.05 302.00 C 86.55 302.13 88.06 302.00 89.56 302.00 C 91.06 302.00 92.56 305.44 94.07 302.00 C 95.57 298.56 97.07 282.43 98.57 281.37 C 100.08 280.32 101.58 296.98 103.08 295.65 C 104.59 294.33 106.09 273.57 107.59 273.44 C 109.09 273.31 110.60 293.41 112.10 294.86 C 113.60 296.31 115.10 282.17 116.61 282.17 C 118.11 282.17 119.61 296.18 121.12 294.86 C 122.62 293.54 124.12 275.95 125.62 274.23 C 127.13 272.51 128.63 281.64 130.13 284.55 C 131.64 287.46 133.14 288.78 134.64 291.69 C 136.14 294.60 137.65 303.59 139.15 302.00 C 140.65 300.41 142.15 283.22 143.66 282.17 C 145.16 281.11 146.66 292.35 148.17 295.65 C 149.67 298.96 151.17 301.34 152.67 302.00 C 154.18 302.66 155.68 303.98 157.18 299.62 C 158.69 295.26 160.19 303.45 161.69 275.82 C 163.19 248.19 164.70 133.95 166.20 133.81 C 167.70 133.68 169.20 249.51 170.71 275.03 C 172.21 300.55 173.71 282.43 175.22 286.93 C 176.72 291.42 178.22 301.87 179.72 302.00 C 181.23 302.13 182.73 287.98 184.23 287.72 C 185.73 287.46 187.24 300.28 188.74 300.41 C 190.24 300.55 191.75 289.44 193.25 288.51 C 194.75 287.59 196.25 295.65 197.76 294.86 C 199.26 294.07 200.76 285.74 202.27 283.75 C 203.77 281.77 205.27 284.41 206.77 282.96 C 208.28 281.51 209.78 272.91 211.28 275.03 C 212.78 277.14 214.29 291.16 215.79 295.65 C 217.29 300.15 218.80 303.85 220.30 302.00 C 221.80 300.15 223.30 287.59 224.81 284.55 C 226.31 281.51 227.81 282.03 229.31 283.75 C 230.82 285.47 232.32 294.60 233.82 294.86 C 235.33 295.12 236.83 285.60 238.33 285.34 C 239.83 285.08 241.34 292.35 242.84 293.27 C 244.34 294.20 245.85 291.16 247.35 290.89 C 248.85 290.63 250.35 290.50 251.86 291.69 C 253.36 292.88 254.86 296.31 256.36 298.03 C 257.87 299.75 259.37 302.26 260.87 302.00 C 262.38 301.74 263.88 296.45 265.38 296.45 C 266.88 296.45 268.39 301.07 269.89 302.00 C 271.39 302.93 272.90 302.00 274.40 302.00 C 275.90 302.00 277.40 302.00 278.91 302.00 C 280.41 302.00 281.91 303.19 283.41 302.00 C 284.92 300.81 286.42 294.86 287.92 294.86 C 289.43 294.86 290.93 300.81 292.43 302.00 C 293.93 303.19 295.44 303.45 296.94 302.00 C 298.44 300.55 299.94 293.93 301.45 293.27 C 302.95 292.61 304.45 296.58 305.96 298.03 C 307.46 299.49 308.96 301.34 310.46 302.00 C 311.97 302.66 313.47 302.40 314.97 302.00 C 316.48 301.60 317.98 299.88 319.48 299.62 C 320.98 299.36 322.49 300.81 323.99 300.41 C 325.49 300.02 326.99 300.81 328.50 297.24 C 330.00 293.67 331.50 279.26 333.01 278.99 C 334.51 278.73 336.01 291.82 337.51 295.65 C 339.02 299.49 340.52 302.40 342.02 302.00 C 343.52 301.60 345.03 297.11 346.53 293.27 C 348.03 289.44 349.54 279.39 351.04 278.99 C 352.54 278.60 354.04 287.19 355.55 290.89 C 357.05 294.60 358.55 303.72 360.06 301.21 C 361.56 298.69 363.06 280.98 364.56 275.82 C 366.07 270.66 367.57 269.74 369.07 270.27 C 370.57 270.80 372.08 274.63 373.58 278.99 C 375.08 283.36 376.59 292.61 378.09 296.45 C 379.59 300.28 381.09 301.47 382.60 302.00 C 384.10 302.53 385.60 299.62 387.10 299.62 C 388.61 299.62 390.11 301.60 391.61 302.00 C 393.12 302.40 394.62 302.00 396.12 302.00 C 397.62 302.00 399.13 304.64 400.63 302.00 C 402.13 299.36 403.64 288.65 405.14 286.13 C 406.64 283.62 408.14 285.21 409.65 286.93 C 411.15 288.65 412.65 294.46 414.15 296.45 C 415.66 298.43 417.16 298.30 418.66 298.83 C 420.17 299.36 421.67 299.09 423.17 299.62 C 424.67 300.15 426.18 302.40 427.68 302.00 C 429.18 301.60 430.69 297.64 432.19 297.24 C 433.69 296.84 435.19 301.21 436.70 299.62 C 438.20 298.03 439.70 288.12 441.20 287.72 C 442.71 287.32 444.21 295.92 445.71 297.24 C 447.22 298.56 448.72 296.58 450.22 295.65 C 451.72 294.73 453.23 299.75 454.73 291.69 C 456.23 283.62 457.73 251.49 459.24 247.26 C 460.74 243.03 462.24 294.46 463.75 266.30 C 465.25 238.14 466.75 100.49 468.25 78.28 C 469.76 56.07 471.26 108.29 472.76 133.02 C 474.27 157.75 475.77 207.06 477.27 226.63 C 478.77 246.20 480.28 249.11 481.78 250.43 C 483.28 251.76 484.78 230.47 486.29 234.57 C 487.79 238.67 489.29 263.79 490.80 275.03 C 492.30 286.27 493.80 298.30 495.30 302.00 C 496.81 305.70 498.31 297.77 499.81 297.24 C 501.31 296.71 502.82 301.87 504.32 298.83 C 505.82 295.79 507.33 278.99 508.83 278.99 C 510.33 278.99 511.83 300.28 513.34 298.83 C 514.84 297.37 516.34 275.82 517.85 270.27 C 519.35 264.71 520.85 260.22 522.35 265.51 C 523.86 270.80 525.36 297.24 526.86 302.00 C 528.36 306.76 529.87 294.07 531.37 294.07 C 532.87 294.07 534.38 302.53 535.88 302.00 C 537.38 301.47 538.88 292.22 540.39 290.89 C 541.89 289.57 543.39 303.59 544.90 294.07 C 546.40 284.55 547.90 238.40 549.40 233.77 C 550.91 229.15 552.41 267.62 553.91 266.30 C 555.41 264.98 556.92 228.75 558.42 225.84 C 559.92 222.93 561.43 249.24 562.93 248.85 C 564.43 248.45 565.93 222.80 567.44 223.46 C 568.94 224.12 570.44 249.11 571.94 252.81 C 573.45 256.52 574.95 238.00 576.45 245.67 C 577.96 253.34 579.46 292.22 580.96 298.83 C 582.46 305.44 583.97 289.70 585.47 285.34 C 586.97 280.98 588.48 287.72 589.98 272.65 C 591.48 257.57 592.98 195.30 594.49 194.90 C 595.99 194.50 597.49 253.08 598.99 270.27 C 600.50 287.46 602.00 293.80 603.50 298.03 C 605.01 302.26 606.51 296.18 608.01 295.65 C 609.51 295.12 611.02 297.50 612.52 294.86 C 614.02 292.22 615.52 281.24 617.03 279.79 C 618.53 278.33 620.03 282.96 621.54 286.13 C 623.04 289.31 624.54 297.50 626.04 298.83 C 627.55 300.15 629.05 294.86 630.55 294.07 C 632.06 293.27 633.56 293.01 635.06 294.07 C 636.56 295.12 638.07 299.88 639.57 300.41 C 641.07 300.94 642.57 297.24 644.08 297.24 C 645.58 297.24 647.08 299.88 648.59 300.41 C 650.09 300.94 651.59 309.54 653.09 300.41 C 654.60 291.29 656.10 248.19 657.60 245.67 C 659.10 243.16 660.61 282.83 662.11 285.34 C 663.61 287.85 665.12 260.09 666.62 260.75 C 668.12 261.41 669.62 285.21 671.13 289.31 C 672.63 293.41 674.13 283.62 675.64 285.34 C 677.14 287.06 678.64 297.11 680.14 299.62 C 681.65 302.13 683.15 300.28 684.65 300.41 C 686.15 300.55 687.66 300.41 689.16 300.41 C 690.66 300.41 692.17 300.81 693.67 300.41 C 695.17 300.02 696.67 305.57 698.18 298.03 C 699.68 290.50 701.18 255.99 702.69 255.19 C 704.19 254.40 705.69 289.57 707.19 293.27 C 708.70 296.98 710.20 277.67 711.70 277.41 C 713.20 277.14 714.71 291.55 716.21 291.69 C 717.71 291.82 719.22 279.13 720.72 278.20 C 722.22 277.27 723.72 282.70 725.23 286.13 C 726.73 289.57 728.23 296.45 729.73 298.83 C 731.24 301.21 732.74 300.15 734.24 300.41 C 735.75 300.68 737.25 300.41 738.75 300.41 C 740.25 300.41 741.76 300.55 743.26 300.41 C 744.76 300.28 746.27 302.93 747.77 299.62 C 749.27 296.31 750.77 280.71 752.28 280.58 C 753.78 280.45 755.28 299.49 756.78 298.83 C 758.29 298.17 759.79 276.35 761.29 276.61 C 762.80 276.88 764.30 298.03 765.80 300.41 C 767.30 302.79 768.81 302.66 770.31 290.89 C 771.81 279.13 773.31 237.08 774.82 229.81 C 776.32 222.53 777.82 241.44 779.33 247.26 C 780.83 253.08 782.33 260.09 783.83 264.71 C 785.34 269.34 786.84 269.34 788.34 275.03 C 789.85 280.71 791.35 299.49 792.85 298.83 C 794.35 298.17 795.86 274.37 797.36 271.06 C 798.86 267.75 800.36 277.80 801.87 278.99 C 803.37 280.18 804.87 276.35 806.38 278.20 C 807.88 280.05 809.38 287.72 810.88 290.10 C 812.39 292.48 813.89 291.03 815.39 292.48 C 816.90 293.93 818.40 300.28 819.90 298.83 C 821.40 297.37 822.91 284.55 824.41 283.75 C 825.91 282.96 827.41 293.93 828.92 294.07 C 830.42 294.20 831.92 284.28 833.43 284.55 C 834.93 284.81 836.43 293.01 837.93 295.65 C 839.44 298.30 840.94 304.12 842.44 300.41 C 843.94 296.71 845.45 279.52 846.95 273.44 C 848.45 267.36 849.96 261.01 851.46 263.92 C 852.96 266.83 854.46 284.81 855.97 290.89 C 857.47 296.98 858.97 298.83 860.48 300.41 C 861.98 302.00 863.48 302.66 864.98 300.41 C 866.49 298.17 867.99 288.65 869.49 286.93 C 870.99 285.21 873.25 289.57 874.00 290.10 L 874.00 302.00 L 58.00 302.00 Z" fill="url(#area)"/>
<path d="M 58.00 271.85 C 58.75 274.50 61.01 284.55 62.51 287.72 C 64.01 290.89 65.51 288.78 67.02 290.89 C 68.52 293.01 70.02 298.96 71.52 300.41 C 73.03 301.87 74.53 299.49 76.03 299.62 C 77.54 299.75 79.04 300.81 80.54 301.21 C 82.04 301.60 83.55 301.87 85.05 302.00 C 86.55 302.13 88.06 302.00 89.56 302.00 C 91.06 302.00 92.56 305.44 94.07 302.00 C 95.57 298.56 97.07 282.43 98.57 281.37 C 100.08 280.32 101.58 296.98 103.08 295.65 C 104.59 294.33 106.09 273.57 107.59 273.44 C 109.09 273.31 110.60 293.41 112.10 294.86 C 113.60 296.31 115.10 282.17 116.61 282.17 C 118.11 282.17 119.61 296.18 121.12 294.86 C 122.62 293.54 124.12 275.95 125.62 274.23 C 127.13 272.51 128.63 281.64 130.13 284.55 C 131.64 287.46 133.14 288.78 134.64 291.69 C 136.14 294.60 137.65 303.59 139.15 302.00 C 140.65 300.41 142.15 283.22 143.66 282.17 C 145.16 281.11 146.66 292.35 148.17 295.65 C 149.67 298.96 151.17 301.34 152.67 302.00 C 154.18 302.66 155.68 303.98 157.18 299.62 C 158.69 295.26 160.19 303.45 161.69 275.82 C 163.19 248.19 164.70 133.95 166.20 133.81 C 167.70 133.68 169.20 249.51 170.71 275.03 C 172.21 300.55 173.71 282.43 175.22 286.93 C 176.72 291.42 178.22 301.87 179.72 302.00 C 181.23 302.13 182.73 287.98 184.23 287.72 C 185.73 287.46 187.24 300.28 188.74 300.41 C 190.24 300.55 191.75 289.44 193.25 288.51 C 194.75 287.59 196.25 295.65 197.76 294.86 C 199.26 294.07 200.76 285.74 202.27 283.75 C 203.77 281.77 205.27 284.41 206.77 282.96 C 208.28 281.51 209.78 272.91 211.28 275.03 C 212.78 277.14 214.29 291.16 215.79 295.65 C 217.29 300.15 218.80 303.85 220.30 302.00 C 221.80 300.15 223.30 287.59 224.81 284.55 C 226.31 281.51 227.81 282.03 229.31 283.75 C 230.82 285.47 232.32 294.60 233.82 294.86 C 235.33 295.12 236.83 285.60 238.33 285.34 C 239.83 285.08 241.34 292.35 242.84 293.27 C 244.34 294.20 245.85 291.16 247.35 290.89 C 248.85 290.63 250.35 290.50 251.86 291.69 C 253.36 292.88 254.86 296.31 256.36 298.03 C 257.87 299.75 259.37 302.26 260.87 302.00 C 262.38 301.74 263.88 296.45 265.38 296.45 C 266.88 296.45 268.39 301.07 269.89 302.00 C 271.39 302.93 272.90 302.00 274.40 302.00 C 275.90 302.00 277.40 302.00 278.91 302.00 C 280.41 302.00 281.91 303.19 283.41 302.00 C 284.92 300.81 286.42 294.86 287.92 294.86 C 289.43 294.86 290.93 300.81 292.43 302.00 C 293.93 303.19 295.44 303.45 296.94 302.00 C 298.44 300.55 299.94 293.93 301.45 293.27 C 302.95 292.61 304.45 296.58 305.96 298.03 C 307.46 299.49 308.96 301.34 310.46 302.00 C 311.97 302.66 313.47 302.40 314.97 302.00 C 316.48 301.60 317.98 299.88 319.48 299.62 C 320.98 299.36 322.49 300.81 323.99 300.41 C 325.49 300.02 326.99 300.81 328.50 297.24 C 330.00 293.67 331.50 279.26 333.01 278.99 C 334.51 278.73 336.01 291.82 337.51 295.65 C 339.02 299.49 340.52 302.40 342.02 302.00 C 343.52 301.60 345.03 297.11 346.53 293.27 C 348.03 289.44 349.54 279.39 351.04 278.99 C 352.54 278.60 354.04 287.19 355.55 290.89 C 357.05 294.60 358.55 303.72 360.06 301.21 C 361.56 298.69 363.06 280.98 364.56 275.82 C 366.07 270.66 367.57 269.74 369.07 270.27 C 370.57 270.80 372.08 274.63 373.58 278.99 C 375.08 283.36 376.59 292.61 378.09 296.45 C 379.59 300.28 381.09 301.47 382.60 302.00 C 384.10 302.53 385.60 299.62 387.10 299.62 C 388.61 299.62 390.11 301.60 391.61 302.00 C 393.12 302.40 394.62 302.00 396.12 302.00 C 397.62 302.00 399.13 304.64 400.63 302.00 C 402.13 299.36 403.64 288.65 405.14 286.13 C 406.64 283.62 408.14 285.21 409.65 286.93 C 411.15 288.65 412.65 294.46 414.15 296.45 C 415.66 298.43 417.16 298.30 418.66 298.83 C 420.17 299.36 421.67 299.09 423.17 299.62 C 424.67 300.15 426.18 302.40 427.68 302.00 C 429.18 301.60 430.69 297.64 432.19 297.24 C 433.69 296.84 435.19 301.21 436.70 299.62 C 438.20 298.03 439.70 288.12 441.20 287.72 C 442.71 287.32 444.21 295.92 445.71 297.24 C 447.22 298.56 448.72 296.58 450.22 295.65 C 451.72 294.73 453.23 299.75 454.73 291.69 C 456.23 283.62 457.73 251.49 459.24 247.26 C 460.74 243.03 462.24 294.46 463.75 266.30 C 465.25 238.14 466.75 100.49 468.25 78.28 C 469.76 56.07 471.26 108.29 472.76 133.02 C 474.27 157.75 475.77 207.06 477.27 226.63 C 478.77 246.20 480.28 249.11 481.78 250.43 C 483.28 251.76 484.78 230.47 486.29 234.57 C 487.79 238.67 489.29 263.79 490.80 275.03 C 492.30 286.27 493.80 298.30 495.30 302.00 C 496.81 305.70 498.31 297.77 499.81 297.24 C 501.31 296.71 502.82 301.87 504.32 298.83 C 505.82 295.79 507.33 278.99 508.83 278.99 C 510.33 278.99 511.83 300.28 513.34 298.83 C 514.84 297.37 516.34 275.82 517.85 270.27 C 519.35 264.71 520.85 260.22 522.35 265.51 C 523.86 270.80 525.36 297.24 526.86 302.00 C 528.36 306.76 529.87 294.07 531.37 294.07 C 532.87 294.07 534.38 302.53 535.88 302.00 C 537.38 301.47 538.88 292.22 540.39 290.89 C 541.89 289.57 543.39 303.59 544.90 294.07 C 546.40 284.55 547.90 238.40 549.40 233.77 C 550.91 229.15 552.41 267.62 553.91 266.30 C 555.41 264.98 556.92 228.75 558.42 225.84 C 559.92 222.93 561.43 249.24 562.93 248.85 C 564.43 248.45 565.93 222.80 567.44 223.46 C 568.94 224.12 570.44 249.11 571.94 252.81 C 573.45 256.52 574.95 238.00 576.45 245.67 C 577.96 253.34 579.46 292.22 580.96 298.83 C 582.46 305.44 583.97 289.70 585.47 285.34 C 586.97 280.98 588.48 287.72 589.98 272.65 C 591.48 257.57 592.98 195.30 594.49 194.90 C 595.99 194.50 597.49 253.08 598.99 270.27 C 600.50 287.46 602.00 293.80 603.50 298.03 C 605.01 302.26 606.51 296.18 608.01 295.65 C 609.51 295.12 611.02 297.50 612.52 294.86 C 614.02 292.22 615.52 281.24 617.03 279.79 C 618.53 278.33 620.03 282.96 621.54 286.13 C 623.04 289.31 624.54 297.50 626.04 298.83 C 627.55 300.15 629.05 294.86 630.55 294.07 C 632.06 293.27 633.56 293.01 635.06 294.07 C 636.56 295.12 638.07 299.88 639.57 300.41 C 641.07 300.94 642.57 297.24 644.08 297.24 C 645.58 297.24 647.08 299.88 648.59 300.41 C 650.09 300.94 651.59 309.54 653.09 300.41 C 654.60 291.29 656.10 248.19 657.60 245.67 C 659.10 243.16 660.61 282.83 662.11 285.34 C 663.61 287.85 665.12 260.09 666.62 260.75 C 668.12 261.41 669.62 285.21 671.13 289.31 C 672.63 293.41 674.13 283.62 675.64 285.34 C 677.14 287.06 678.64 297.11 680.14 299.62 C 681.65 302.13 683.15 300.28 684.65 300.41 C 686.15 300.55 687.66 300.41 689.16 300.41 C 690.66 300.41 692.17 300.81 693.67 300.41 C 695.17 300.02 696.67 305.57 698.18 298.03 C 699.68 290.50 701.18 255.99 702.69 255.19 C 704.19 254.40 705.69 289.57 707.19 293.27 C 708.70 296.98 710.20 277.67 711.70 277.41 C 713.20 277.14 714.71 291.55 716.21 291.69 C 717.71 291.82 719.22 279.13 720.72 278.20 C 722.22 277.27 723.72 282.70 725.23 286.13 C 726.73 289.57 728.23 296.45 729.73 298.83 C 731.24 301.21 732.74 300.15 734.24 300.41 C 735.75 300.68 737.25 300.41 738.75 300.41 C 740.25 300.41 741.76 300.55 743.26 300.41 C 744.76 300.28 746.27 302.93 747.77 299.62 C 749.27 296.31 750.77 280.71 752.28 280.58 C 753.78 280.45 755.28 299.49 756.78 298.83 C 758.29 298.17 759.79 276.35 761.29 276.61 C 762.80 276.88 764.30 298.03 765.80 300.41 C 767.30 302.79 768.81 302.66 770.31 290.89 C 771.81 279.13 773.31 237.08 774.82 229.81 C 776.32 222.53 777.82 241.44 779.33 247.26 C 780.83 253.08 782.33 260.09 783.83 264.71 C 785.34 269.34 786.84 269.34 788.34 275.03 C 789.85 280.71 791.35 299.49 792.85 298.83 C 794.35 298.17 795.86 274.37 797.36 271.06 C 798.86 267.75 800.36 277.80 801.87 278.99 C 803.37 280.18 804.87 276.35 806.38 278.20 C 807.88 280.05 809.38 287.72 810.88 290.10 C 812.39 292.48 813.89 291.03 815.39 292.48 C 816.90 293.93 818.40 300.28 819.90 298.83 C 821.40 297.37 822.91 284.55 824.41 283.75 C 825.91 282.96 827.41 293.93 828.92 294.07 C 830.42 294.20 831.92 284.28 833.43 284.55 C 834.93 284.81 836.43 293.01 837.93 295.65 C 839.44 298.30 840.94 304.12 842.44 300.41 C 843.94 296.71 845.45 279.52 846.95 273.44 C 848.45 267.36 849.96 261.01 851.46 263.92 C 852.96 266.83 854.46 284.81 855.97 290.89 C 857.47 296.98 858.97 298.83 860.48 300.41 C 861.98 302.00 863.48 302.66 864.98 300.41 C 866.49 298.17 867.99 288.65 869.49 286.93 C 870.99 285.21 873.25 289.57 874.00 290.10" fill="none" stroke="#22C55E" stroke-opacity="0.20" stroke-width="7" stroke-linecap="round" stroke-linejoin="round"/>
<path d="M 58.00 271.85 C 58.75 274.50 61.01 284.55 62.51 287.72 C 64.01 290.89 65.51 288.78 67.02 290.89 C 68.52 293.01 70.02 298.96 71.52 300.41 C 73.03 301.87 74.53 299.49 76.03 299.62 C 77.54 299.75 79.04 300.81 80.54 301.21 C 82.04 301.60 83.55 301.87 85.05 302.00 C 86.55 302.13 88.06 302.00 89.56 302.00 C 91.06 302.00 92.56 305.44 94.07 302.00 C 95.57 298.56 97.07 282.43 98.57 281.37 C 100.08 280.32 101.58 296.98 103.08 295.65 C 104.59 294.33 106.09 273.57 107.59 273.44 C 109.09 273.31 110.60 293.41 112.10 294.86 C 113.60 296.31 115.10 282.17 116.61 282.17 C 118.11 282.17 119.61 296.18 121.12 294.86 C 122.62 293.54 124.12 275.95 125.62 274.23 C 127.13 272.51 128.63 281.64 130.13 284.55 C 131.64 287.46 133.14 288.78 134.64 291.69 C 136.14 294.60 137.65 303.59 139.15 302.00 C 140.65 300.41 142.15 283.22 143.66 282.17 C 145.16 281.11 146.66 292.35 148.17 295.65 C 149.67 298.96 151.17 301.34 152.67 302.00 C 154.18 302.66 155.68 303.98 157.18 299.62 C 158.69 295.26 160.19 303.45 161.69 275.82 C 163.19 248.19 164.70 133.95 166.20 133.81 C 167.70 133.68 169.20 249.51 170.71 275.03 C 172.21 300.55 173.71 282.43 175.22 286.93 C 176.72 291.42 178.22 301.87 179.72 302.00 C 181.23 302.13 182.73 287.98 184.23 287.72 C 185.73 287.46 187.24 300.28 188.74 300.41 C 190.24 300.55 191.75 289.44 193.25 288.51 C 194.75 287.59 196.25 295.65 197.76 294.86 C 199.26 294.07 200.76 285.74 202.27 283.75 C 203.77 281.77 205.27 284.41 206.77 282.96 C 208.28 281.51 209.78 272.91 211.28 275.03 C 212.78 277.14 214.29 291.16 215.79 295.65 C 217.29 300.15 218.80 303.85 220.30 302.00 C 221.80 300.15 223.30 287.59 224.81 284.55 C 226.31 281.51 227.81 282.03 229.31 283.75 C 230.82 285.47 232.32 294.60 233.82 294.86 C 235.33 295.12 236.83 285.60 238.33 285.34 C 239.83 285.08 241.34 292.35 242.84 293.27 C 244.34 294.20 245.85 291.16 247.35 290.89 C 248.85 290.63 250.35 290.50 251.86 291.69 C 253.36 292.88 254.86 296.31 256.36 298.03 C 257.87 299.75 259.37 302.26 260.87 302.00 C 262.38 301.74 263.88 296.45 265.38 296.45 C 266.88 296.45 268.39 301.07 269.89 302.00 C 271.39 302.93 272.90 302.00 274.40 302.00 C 275.90 302.00 277.40 302.00 278.91 302.00 C 280.41 302.00 281.91 303.19 283.41 302.00 C 284.92 300.81 286.42 294.86 287.92 294.86 C 289.43 294.86 290.93 300.81 292.43 302.00 C 293.93 303.19 295.44 303.45 296.94 302.00 C 298.44 300.55 299.94 293.93 301.45 293.27 C 302.95 292.61 304.45 296.58 305.96 298.03 C 307.46 299.49 308.96 301.34 310.46 302.00 C 311.97 302.66 313.47 302.40 314.97 302.00 C 316.48 301.60 317.98 299.88 319.48 299.62 C 320.98 299.36 322.49 300.81 323.99 300.41 C 325.49 300.02 326.99 300.81 328.50 297.24 C 330.00 293.67 331.50 279.26 333.01 278.99 C 334.51 278.73 336.01 291.82 337.51 295.65 C 339.02 299.49 340.52 302.40 342.02 302.00 C 343.52 301.60 345.03 297.11 346.53 293.27 C 348.03 289.44 349.54 279.39 351.04 278.99 C 352.54 278.60 354.04 287.19 355.55 290.89 C 357.05 294.60 358.55 303.72 360.06 301.21 C 361.56 298.69 363.06 280.98 364.56 275.82 C 366.07 270.66 367.57 269.74 369.07 270.27 C 370.57 270.80 372.08 274.63 373.58 278.99 C 375.08 283.36 376.59 292.61 378.09 296.45 C 379.59 300.28 381.09 301.47 382.60 302.00 C 384.10 302.53 385.60 299.62 387.10 299.62 C 388.61 299.62 390.11 301.60 391.61 302.00 C 393.12 302.40 394.62 302.00 396.12 302.00 C 397.62 302.00 399.13 304.64 400.63 302.00 C 402.13 299.36 403.64 288.65 405.14 286.13 C 406.64 283.62 408.14 285.21 409.65 286.93 C 411.15 288.65 412.65 294.46 414.15 296.45 C 415.66 298.43 417.16 298.30 418.66 298.83 C 420.17 299.36 421.67 299.09 423.17 299.62 C 424.67 300.15 426.18 302.40 427.68 302.00 C 429.18 301.60 430.69 297.64 432.19 297.24 C 433.69 296.84 435.19 301.21 436.70 299.62 C 438.20 298.03 439.70 288.12 441.20 287.72 C 442.71 287.32 444.21 295.92 445.71 297.24 C 447.22 298.56 448.72 296.58 450.22 295.65 C 451.72 294.73 453.23 299.75 454.73 291.69 C 456.23 283.62 457.73 251.49 459.24 247.26 C 460.74 243.03 462.24 294.46 463.75 266.30 C 465.25 238.14 466.75 100.49 468.25 78.28 C 469.76 56.07 471.26 108.29 472.76 133.02 C 474.27 157.75 475.77 207.06 477.27 226.63 C 478.77 246.20 480.28 249.11 481.78 250.43 C 483.28 251.76 484.78 230.47 486.29 234.57 C 487.79 238.67 489.29 263.79 490.80 275.03 C 492.30 286.27 493.80 298.30 495.30 302.00 C 496.81 305.70 498.31 297.77 499.81 297.24 C 501.31 296.71 502.82 301.87 504.32 298.83 C 505.82 295.79 507.33 278.99 508.83 278.99 C 510.33 278.99 511.83 300.28 513.34 298.83 C 514.84 297.37 516.34 275.82 517.85 270.27 C 519.35 264.71 520.85 260.22 522.35 265.51 C 523.86 270.80 525.36 297.24 526.86 302.00 C 528.36 306.76 529.87 294.07 531.37 294.07 C 532.87 294.07 534.38 302.53 535.88 302.00 C 537.38 301.47 538.88 292.22 540.39 290.89 C 541.89 289.57 543.39 303.59 544.90 294.07 C 546.40 284.55 547.90 238.40 549.40 233.77 C 550.91 229.15 552.41 267.62 553.91 266.30 C 555.41 264.98 556.92 228.75 558.42 225.84 C 559.92 222.93 561.43 249.24 562.93 248.85 C 564.43 248.45 565.93 222.80 567.44 223.46 C 568.94 224.12 570.44 249.11 571.94 252.81 C 573.45 256.52 574.95 238.00 576.45 245.67 C 577.96 253.34 579.46 292.22 580.96 298.83 C 582.46 305.44 583.97 289.70 585.47 285.34 C 586.97 280.98 588.48 287.72 589.98 272.65 C 591.48 257.57 592.98 195.30 594.49 194.90 C 595.99 194.50 597.49 253.08 598.99 270.27 C 600.50 287.46 602.00 293.80 603.50 298.03 C 605.01 302.26 606.51 296.18 608.01 295.65 C 609.51 295.12 611.02 297.50 612.52 294.86 C 614.02 292.22 615.52 281.24 617.03 279.79 C 618.53 278.33 620.03 282.96 621.54 286.13 C 623.04 289.31 624.54 297.50 626.04 298.83 C 627.55 300.15 629.05 294.86 630.55 294.07 C 632.06 293.27 633.56 293.01 635.06 294.07 C 636.56 295.12 638.07 299.88 639.57 300.41 C 641.07 300.94 642.57 297.24 644.08 297.24 C 645.58 297.24 647.08 299.88 648.59 300.41 C 650.09 300.94 651.59 309.54 653.09 300.41 C 654.60 291.29 656.10 248.19 657.60 245.67 C 659.10 243.16 660.61 282.83 662.11 285.34 C 663.61 287.85 665.12 260.09 666.62 260.75 C 668.12 261.41 669.62 285.21 671.13 289.31 C 672.63 293.41 674.13 283.62 675.64 285.34 C 677.14 287.06 678.64 297.11 680.14 299.62 C 681.65 302.13 683.15 300.28 684.65 300.41 C 686.15 300.55 687.66 300.41 689.16 300.41 C 690.66 300.41 692.17 300.81 693.67 300.41 C 695.17 300.02 696.67 305.57 698.18 298.03 C 699.68 290.50 701.18 255.99 702.69 255.19 C 704.19 254.40 705.69 289.57 707.19 293.27 C 708.70 296.98 710.20 277.67 711.70 277.41 C 713.20 277.14 714.71 291.55 716.21 291.69 C 717.71 291.82 719.22 279.13 720.72 278.20 C 722.22 277.27 723.72 282.70 725.23 286.13 C 726.73 289.57 728.23 296.45 729.73 298.83 C 731.24 301.21 732.74 300.15 734.24 300.41 C 735.75 300.68 737.25 300.41 738.75 300.41 C 740.25 300.41 741.76 300.55 743.26 300.41 C 744.76 300.28 746.27 302.93 747.77 299.62 C 749.27 296.31 750.77 280.71 752.28 280.58 C 753.78 280.45 755.28 299.49 756.78 298.83 C 758.29 298.17 759.79 276.35 761.29 276.61 C 762.80 276.88 764.30 298.03 765.80 300.41 C 767.30 302.79 768.81 302.66 770.31 290.89 C 771.81 279.13 773.31 237.08 774.82 229.81 C 776.32 222.53 777.82 241.44 779.33 247.26 C 780.83 253.08 782.33 260.09 783.83 264.71 C 785.34 269.34 786.84 269.34 788.34 275.03 C 789.85 280.71 791.35 299.49 792.85 298.83 C 794.35 298.17 795.86 274.37 797.36 271.06 C 798.86 267.75 800.36 277.80 801.87 278.99 C 803.37 280.18 804.87 276.35 806.38 278.20 C 807.88 280.05 809.38 287.72 810.88 290.10 C 812.39 292.48 813.89 291.03 815.39 292.48 C 816.90 293.93 818.40 300.28 819.90 298.83 C 821.40 297.37 822.91 284.55 824.41 283.75 C 825.91 282.96 827.41 293.93 828.92 294.07 C 830.42 294.20 831.92 284.28 833.43 284.55 C 834.93 284.81 836.43 293.01 837.93 295.65 C 839.44 298.30 840.94 304.12 842.44 300.41 C 843.94 296.71 845.45 279.52 846.95 273.44 C 848.45 267.36 849.96 261.01 851.46 263.92 C 852.96 266.83 854.46 284.81 855.97 290.89 C 857.47 296.98 858.97 298.83 860.48 300.41 C 861.98 302.00 863.48 302.66 864.98 300.41 C 866.49 298.17 867.99 288.65 869.49 286.93 C 870.99 285.21 873.25 289.57 874.00 290.10" fill="none" stroke="#22C55E" stroke-width="2.4" stroke-linecap="round" stroke-linejoin="round"/>
<circle cx="468.3" cy="78.3" r="4.5" fill="#4ADE80" stroke="#0B1120" stroke-width="2"/>
<text x="468.3" y="68.3" text-anchor="middle" font-family="ui-monospace,Menlo,monospace" font-size="10" font-weight="700" fill="#4ADE80">282</text>
<circle cx="874.0" cy="290.1" r="3.5" fill="#F8FAFC"/>
<text x="16" y="183" text-anchor="middle" font-family="ui-monospace,Menlo,monospace" font-size="10" fill="#94A3B8" transform="rotate(-90 16 183)">Contributions</text>
</svg>