<svg xmlns="http://www.w3.org/2000/svg" width="900" height="340" viewBox="0 0 900 340" role="img" aria-label="Contribution activity, last 6 months">
<defs>
<linearGradient id="bg" x1="0" y1="0" x2="0" y2="1"><stop offset="0" stop-color="#0F172A"/><stop offset="1" stop-color="#0B1120"/></linearGradient>
<linearGradient id="area" x1="0" y1="0" x2="0" y2="1"><stop offset="0" stop-color="#22C55E" stop-opacity="0.42"/><stop offset="0.7" stop-color="#22C55E" stop-opacity="0.08"/><stop offset="1" stop-color="#22C55E" stop-opacity="0"/></linearGradient>
</defs>
<rect x="0" y="0" width="900" height="340" rx="14" fill="url(#bg)"/>
<text x="450" y="32" text-anchor="middle" font-family="ui-monospace,Menlo,monospace" font-size="17" font-weight="700" fill="#F8FAFC" letter-spacing="0.5">last 6 months</text>
<text x="450" y="50" text-anchor="middle" font-family="ui-monospace,Menlo,monospace" font-size="11" fill="#94A3B8">4,063 contributions · peak 282</text>
<line x1="58" y1="302.0" x2="874" y2="302.0" stroke="#1E293B" stroke-width="1" stroke-dasharray="2 4"/>
<text x="48" y="305.5" text-anchor="end" font-family="ui-monospace,Menlo,monospace" font-size="10" fill="#94A3B8">0</text>
<line x1="58" y1="242.5" x2="874" y2="242.5" stroke="#1E293B" stroke-width="1" stroke-dasharray="2 4"/>
<text x="48" y="246.0" text-anchor="end" font-family="ui-monospace,Menlo,monospace" font-size="10" fill="#94A3B8">75</text>
<line x1="58" y1="183.0" x2="874" y2="183.0" stroke="#1E293B" stroke-width="1" stroke-dasharray="2 4"/>
<text x="48" y="186.5" text-anchor="end" font-family="ui-monospace,Menlo,monospace" font-size="10" fill="#94A3B8">150</text>
<line x1="58" y1="123.5" x2="874" y2="123.5" stroke="#1E293B" stroke-width="1" stroke-dasharray="2 4"/>
<text x="48" y="127.0" text-anchor="end" font-family="ui-monospace,Menlo,monospace" font-size="10" fill="#94A3B8">225</text>
<line x1="58" y1="64.0" x2="874" y2="64.0" stroke="#1E293B" stroke-width="1" stroke-dasharray="2 4"/>
<text x="48" y="67.5" text-anchor="end" font-family="ui-monospace,Menlo,monospace" font-size="10" fill="#94A3B8">300</text>
<line x1="161.7" y1="64" x2="161.7" y2="302" stroke="#1E293B" stroke-width="1" stroke-opacity="0.6"/>
<text x="161.7" y="322" text-anchor="middle" font-family="ui-monospace,Menlo,monospace" font-size="10" fill="#94A3B8">Feb</text>
<line x1="287.9" y1="64" x2="287.9" y2="302" stroke="#1E293B" stroke-width="1" stroke-opacity="0.6"/>
<text x="287.9" y="322" text-anchor="middle" font-family="ui-monospace,Menlo,monospace" font-size="10" fill="#94A3B8">Mar</text>
<line x1="427.7" y1="64" x2="427.7" y2="302" stroke="#1E293B" stroke-width="1" stroke-opacity="0.6"/>
<text x="427.7" y="322" text-anchor="middle" font-family="ui-monospace,Menlo,monospace" font-size="10" fill="#94A3B8">Apr</text>
<line x1="562.9" y1="64" x2="562.9" y2="302" stroke="#1E293B" stroke-width="1" stroke-opacity="0.6"/>
<text x="562.9" y="322" text-anchor="middle" font-family="ui-monospace,Menlo,monospace" font-size="10" fill="#94A3B8">May</text>
<line x1="702.7" y1="64" x2="702.7" y2="302" stroke="#1E293B" stroke-width="1" stroke-opacity="0.6"/>
<text x="702.7" y="322" text-anchor="middle" font-family="ui-monospace,Menlo,monospace" font-size="10" fill="#94A3B8">Jun</text>
<line x1="837.9" y1="64" x2="837.9" y2="302" stroke="#1E293B" stroke-width="1" stroke-opacity="0.6"/>
<text x="837.9" y="322" text-anchor="middle" font-family="ui-monospace,Menlo,monospace" font-size="10" fill="#94A3B8">Jul</text>
<path d="M 58.00 301.21 C 58.75 301.34 61.01 301.87 62.51 302.00 C 64.01 302.13 65.51 302.26 67.02 302.00 C 68.52 301.74 70.02 300.41 71.52 300.41 C 73.03 300.41 74.53 302.93 76.03 302.00 C 77.54 301.07 79.04 295.26 80.54 294.86 C 82.04 294.46 83.55 299.49 85.05 299.62 C 86.55 299.75 88.06 301.07 89.56 295.65 C 91.06 290.23 92.56 271.06 94.07 267.09 C 95.57 263.13 97.07 268.42 98.57 271.85 C 100.08 275.29 101.58 284.55 103.08 287.72 C 104.59 290.89 106.09 288.78 107.59 290.89 C 109.09 293.01 110.60 298.96 112.10 300.41 C 113.60 301.87 115.10 299.49 116.61 299.62 C 118.11 299.75 119.61 300.81 121.12 301.21 C 122.62 301.60 124.12 301.87 125.62 302.00 C 127.13 302.13 128.63 302.00 130.13 302.00 C 131.64 302.00 133.14 305.44 134.64 302.00 C 136.14 298.56 137.65 282.43 139.15 281.37 C 140.65 280.32 142.15 296.98 143.66 295.65 C 145.16 294.33 146.66 273.57 148.17 273.44 C 149.67 273.31 151.17 293.41 152.67 294.86 C 154.18 296.31 155.68 282.17 157.18 282.17 C 158.69 282.17 160.19 296.18 161.69 294.86 C 163.19 293.54 164.70 275.95 166.20 274.23 C 167.70 272.51 169.20 281.64 170.71 284.55 C 172.21 287.46 173.71 288.78 175.22 291.69 C 176.72 294.60 178.22 303.59 179.72 302.00 C 181.23 300.41 182.73 283.22 184.23 282.17 C 185.73 281.11 187.24 292.35 188.74 295.65 C 190.24 298.96 191.75 301.34 193.25 302.00 C 194.75 302.66 196.25 303.98 197.76 299.62 C 199.26 295.26 200.76 303.45 202.27 275.82 C 203.77 248.19 205.27 133.95 206.77 133.81 C 208.28 133.68 209.78 249.51 211.28 275.03 C 212.78 300.55 214.29 282.43 215.79 286.93 C 217.29 291.42 218.80 301.87 220.30 302.00 C 221.80 302.13 223.30 287.98 224.81 287.72 C 226.31 287.46 227.81 300.28 229.31 300.41 C 230.82 300.55 232.32 289.44 233.82 288.51 C 235.33 287.59 236.83 295.65 238.33 294.86 C 239.83 294.07 241.34 285.74 242.84 283.75 C 244.34 281.77 245.85 284.41 247.35 282.96 C 248.85 281.51 250.35 272.91 251.86 275.03 C 253.36 277.14 254.86 291.16 256.36 295.65 C 257.87 300.15 259.37 303.85 260.87 302.00 C 262.38 300.15 263.88 287.59 265.38 284.55 C 266.88 281.51 268.39 282.03 269.89 283.75 C 271.39 285.47 272.90 294.60 274.40 294.86 C 275.90 295.12 277.40 285.60 278.91 285.34 C 280.41 285.08 281.91 292.35 283.41 293.27 C 284.92 294.20 286.42 291.16 287.92 290.89 C 289.43 290.63 290.93 290.50 292.43 291.69 C 293.93 292.88 295.44 296.31 296.94 298.03 C 298.44 299.75 299.94 302.26 301.45 302.00 C 302.95 301.74 304.45 296.45 305.96 296.45 C 307.46 296.45 308.96 301.07 310.46 302.00 C 311.97 302.93 313.47 302.00 314.97 302.00 C 316.48 302.00 317.98 302.00 319.48 302.00 C 320.98 302.00 322.49 303.19 323.99 302.00 C 325.49 300.81 326.99 294.86 328.50 294.86 C 330.00 294.86 331.50 300.81 333.01 302.00 C 334.51 303.19 336.01 303.45 337.51 302.00 C 339.02 300.55 340.52 293.93 342.02 293.27 C 343.52 292.61 345.03 296.58 346.53 298.03 C 348.03 299.49 349.54 301.34 351.04 302.00 C 352.54 302.66 354.04 302.40 355.55 302.00 C 357.05 301.60 358.55 299.88 360.06 299.62 C 361.56 299.36 363.06 300.81 364.56 300.41 C 366.07 300.02 367.57 300.81 369.07 297.24 C 370.57 293.67 372.08 279.26 373.58 278.99 C 375.08 278.73 376.59 291.82 378.09 295.65 C 379.59 299.49 381.09 302.40 382.60 302.00 C 384.10 301.60 385.60 297.11 387.10 293.27 C 388.61 289.44 390.11 279.39 391.61 278.99 C 393.12 278.60 394.62 287.19 396.12 290.89 C 397.62 294.60 399.13 303.72 400.63 301.21 C 402.13 298.69 403.64 280.98 405.14 275.82 C 406.64 270.66 408.14 269.74 409.65 270.27 C 411.15 270.80 412.65 274.63 414.15 278.99 C 415.66 283.36 417.16 292.61 418.66 296.45 C 420.17 300.28 421.67 301.47 423.17 302.00 C 424.67 302.53 426.18 299.62 427.68 299.62 C 429.18 299.62 430.69 301.60 432.19 302.00 C 433.69 302.40 435.19 302.00 436.70 302.00 C 438.20 302.00 439.70 304.64 441.20 302.00 C 442.71 299.36 444.21 288.65 445.71 286.13 C 447.22 283.62 448.72 285.21 450.22 286.93 C 451.72 288.65 453.23 294.46 454.73 296.45 C 456.23 298.43 457.73 298.30 459.24 298.83 C 460.74 299.36 462.24 299.09 463.75 299.62 C 465.25 300.15 466.75 302.40 468.25 302.00 C 469.76 301.60 471.26 297.64 472.76 297.24 C 474.27 296.84 475.77 301.21 477.27 299.62 C 478.77 298.03 480.28 288.12 481.78 287.72 C 483.28 287.32 484.78 295.92 486.29 297.24 C 487.79 298.56 489.29 296.58 490.80 295.65 C 492.30 294.73 493.80 299.75 495.30 291.69 C 496.81 283.62 498.31 251.49 499.81 247.26 C 501.31 243.03 502.82 294.46 504.32 266.30 C 505.82 238.14 507.33 100.49 508.83 78.28 C 510.33 56.07 511.83 108.29 513.34 133.02 C 514.84 157.75 516.34 207.06 517.85 226.63 C 519.35 246.20 520.85 249.11 522.35 250.43 C 523.86 251.76 525.36 230.47 526.86 234.57 C 528.36 238.67 529.87 263.79 531.37 275.03 C 532.87 286.27 534.38 298.30 535.88 302.00 C 537.38 305.70 538.88 297.77 540.39 297.24 C 541.89 296.71 543.39 301.87 544.90 298.83 C 546.40 295.79 547.90 278.99 549.40 278.99 C 550.91 278.99 552.41 300.28 553.91 298.83 C 555.41 297.37 556.92 275.82 558.42 270.27 C 559.92 264.71 561.43 260.22 562.93 265.51 C 564.43 270.80 565.93 297.24 567.44 302.00 C 568.94 306.76 570.44 294.07 571.94 294.07 C 573.45 294.07 574.95 302.53 576.45 302.00 C 577.96 301.47 579.46 292.22 580.96 290.89 C 582.46 289.57 583.97 303.59 585.47 294.07 C 586.97 284.55 588.48 238.40 589.98 233.77 C 591.48 229.15 592.98 267.62 594.49 266.30 C 595.99 264.98 597.49 228.75 598.99 225.84 C 600.50 222.93 602.00 249.24 603.50 248.85 C 605.01 248.45 606.51 222.80 608.01 223.46 C 609.51 224.12 611.02 249.11 612.52 252.81 C 614.02 256.52 615.52 238.00 617.03 245.67 C 618.53 253.34 620.03 292.22 621.54 298.83 C 623.04 305.44 624.54 289.70 626.04 285.34 C 627.55 280.98 629.05 287.72 630.55 272.65 C 632.06 257.57 633.56 195.30 635.06 194.90 C 636.56 194.50 638.07 253.08 639.57 270.27 C 641.07 287.46 642.57 293.80 644.08 298.03 C 645.58 302.26 647.08 296.18 648.59 295.65 C 650.09 295.12 651.59 297.50 653.09 294.86 C 654.60 292.22 656.10 281.24 657.60 279.79 C 659.10 278.33 660.61 282.96 662.11 286.13 C 663.61 289.31 665.12 297.50 666.62 298.83 C 668.12 300.15 669.62 294.86 671.13 294.07 C 672.63 293.27 674.13 293.01 675.64 294.07 C 677.14 295.12 678.64 299.88 680.14 300.41 C 681.65 300.94 683.15 297.24 684.65 297.24 C 686.15 297.24 687.66 299.88 689.16 300.41 C 690.66 300.94 692.17 309.54 693.67 300.41 C 695.17 291.29 696.67 248.19 698.18 245.67 C 699.68 243.16 701.18 282.83 702.69 285.34 C 704.19 287.85 705.69 260.09 707.19 260.75 C 708.70 261.41 710.20 285.21 711.70 289.31 C 713.20 293.41 714.71 283.62 716.21 285.34 C 717.71 287.06 719.22 297.11 720.72 299.62 C 722.22 302.13 723.72 300.28 725.23 300.41 C 726.73 300.55 728.23 300.41 729.73 300.41 C 731.24 300.41 732.74 300.81 734.24 300.41 C 735.75 300.02 737.25 305.57 738.75 298.03 C 740.25 290.50 741.76 255.99 743.26 255.19 C 744.76 254.40 746.27 289.57 747.77 293.27 C 749.27 296.98 750.77 277.67 752.28 277.41 C 753.78 277.14 755.28 291.55 756.78 291.69 C 758.29 291.82 759.79 279.13 761.29 278.20 C 762.80 277.27 764.30 282.70 765.80 286.13 C 767.30 289.57 768.81 296.45 770.31 298.83 C 771.81 301.21 773.31 300.15 774.82 300.41 C 776.32 300.68 777.82 300.41 779.33 300.41 C 780.83 300.41 782.33 300.55 783.83 300.41 C 785.34 300.28 786.84 302.93 788.34 299.62 C 789.85 296.31 791.35 280.71 792.85 280.58 C 794.35 280.45 795.86 299.49 797.36 298.83 C 798.86 298.17 800.36 276.35 801.87 276.61 C 803.37 276.88 804.87 298.03 806.38 300.41 C 807.88 302.79 809.38 302.66 810.88 290.89 C 812.39 279.13 813.89 237.08 815.39 229.81 C 816.90 222.53 818.40 241.44 819.90 247.26 C 821.40 253.08 822.91 260.09 824.41 264.71 C 825.91 269.34 827.41 269.34 828.92 275.03 C 830.42 280.71 831.92 299.49 833.43 298.83 C 834.93 298.17 836.43 274.37 837.93 271.06 C 839.44 267.75 840.94 277.80 842.44 278.99 C 843.94 280.18 845.45 276.35 846.95 278.20 C 848.45 280.05 849.96 287.72 851.46 290.10 C 852.96 292.48 854.46 291.03 855.97 292.48 C 857.47 293.93 858.97 300.28 860.48 298.83 C 861.98 297.37 863.48 284.55 864.98 283.75 C 866.49 282.96 867.99 293.41 869.49 294.07 C 870.99 294.73 873.25 288.78 874.00 287.72 L 874.00 302.00 L 58.00 302.00 Z" fill="url(#area)"/>
<path d="M 58.00 301.21 C 58.75 301.34 61.01 301.87 62.51 302.00 C 64.01 302.13 65.51 302.26 67.02 302.00 C 68.52 301.74 70.02 300.41 71.52 300.41 C 73.03 300.41 74.53 302.93 76.03 302.00 C 77.54 301.07 79.04 295.26 80.54 294.86 C 82.04 294.46 83.55 299.49 85.05 299.62 C 86.55 299.75 88.06 301.07 89.56 295.65 C 91.06 290.23 92.56 271.06 94.07 267.09 C 95.57 263.13 97.07 268.42 98.57 271.85 C 100.08 275.29 101.58 284.55 103.08 287.72 C 104.59 290.89 106.09 288.78 107.59 290.89 C 109.09 293.01 110.60 298.96 112.10 300.41 C 113.60 301.87 115.10 299.49 116.61 299.62 C 118.11 299.75 119.61 300.81 121.12 301.21 C 122.62 301.60 124.12 301.87 125.62 302.00 C 127.13 302.13 128.63 302.00 130.13 302.00 C 131.64 302.00 133.14 305.44 134.64 302.00 C 136.14 298.56 137.65 282.43 139.15 281.37 C 140.65 280.32 142.15 296.98 143.66 295.65 C 145.16 294.33 146.66 273.57 148.17 273.44 C 149.67 273.31 151.17 293.41 152.67 294.86 C 154.18 296.31 155.68 282.17 157.18 282.17 C 158.69 282.17 160.19 296.18 161.69 294.86 C 163.19 293.54 164.70 275.95 166.20 274.23 C 167.70 272.51 169.20 281.64 170.71 284.55 C 172.21 287.46 173.71 288.78 175.22 291.69 C 176.72 294.60 178.22 303.59 179.72 302.00 C 181.23 300.41 182.73 283.22 184.23 282.17 C 185.73 281.11 187.24 292.35 188.74 295.65 C 190.24 298.96 191.75 301.34 193.25 302.00 C 194.75 302.66 196.25 303.98 197.76 299.62 C 199.26 295.26 200.76 303.45 202.27 275.82 C 203.77 248.19 205.27 133.95 206.77 133.81 C 208.28 133.68 209.78 249.51 211.28 275.03 C 212.78 300.55 214.29 282.43 215.79 286.93 C 217.29 291.42 218.80 301.87 220.30 302.00 C 221.80 302.13 223.30 287.98 224.81 287.72 C 226.31 287.46 227.81 300.28 229.31 300.41 C 230.82 300.55 232.32 289.44 233.82 288.51 C 235.33 287.59 236.83 295.65 238.33 294.86 C 239.83 294.07 241.34 285.74 242.84 283.75 C 244.34 281.77 245.85 284.41 247.35 282.96 C 248.85 281.51 250.35 272.91 251.86 275.03 C 253.36 277.14 254.86 291.16 256.36 295.65 C 257.87 300.15 259.37 303.85 260.87 302.00 C 262.38 300.15 263.88 287.59 265.38 284.55 C 266.88 281.51 268.39 282.03 269.89 283.75 C 271.39 285.47 272.90 294.60 274.40 294.86 C 275.90 295.12 277.40 285.60 278.91 285.34 C 280.41 285.08 281.91 292.35 283.41 293.27 C 284.92 294.20 286.42 291.16 287.92 290.89 C 289.43 290.63 290.93 290.50 292.43 291.69 C 293.93 292.88 295.44 296.31 296.94 298.03 C 298.44 299.75 299.94 302.26 301.45 302.00 C 302.95 301.74 304.45 296.45 305.96 296.45 C 307.46 296.45 308.96 301.07 310.46 302.00 C 311.97 302.93 313.47 302.00 314.97 302.00 C 316.48 302.00 317.98 302.00 319.48 302.00 C 320.98 302.00 322.49 303.19 323.99 302.00 C 325.49 300.81 326.99 294.86 328.50 294.86 C 330.00 294.86 331.50 300.81 333.01 302.00 C 334.51 303.19 336.01 303.45 337.51 302.00 C 339.02 300.55 340.52 293.93 342.02 293.27 C 343.52 292.61 345.03 296.58 346.53 298.03 C 348.03 299.49 349.54 301.34 351.04 302.00 C 352.54 302.66 354.04 302.40 355.55 302.00 C 357.05 301.60 358.55 299.88 360.06 299.62 C 361.56 299.36 363.06 300.81 364.56 300.41 C 366.07 300.02 367.57 300.81 369.07 297.24 C 370.57 293.67 372.08 279.26 373.58 278.99 C 375.08 278.73 376.59 291.82 378.09 295.65 C 379.59 299.49 381.09 302.40 382.60 302.00 C 384.10 301.60 385.60 297.11 387.10 293.27 C 388.61 289.44 390.11 279.39 391.61 278.99 C 393.12 278.60 394.62 287.19 396.12 290.89 C 397.62 294.60 399.13 303.72 400.63 301.21 C 402.13 298.69 403.64 280.98 405.14 275.82 C 406.64 270.66 408.14 269.74 409.65 270.27 C 411.15 270.80 412.65 274.63 414.15 278.99 C 415.66 283.36 417.16 292.61 418.66 296.45 C 420.17 300.28 421.67 301.47 423.17 302.00 C 424.67 302.53 426.18 299.62 427.68 299.62 C 429.18 299.62 430.69 301.60 432.19 302.00 C 433.69 302.40 435.19 302.00 436.70 302.00 C 438.20 302.00 439.70 304.64 441.20 302.00 C 442.71 299.36 444.21 288.65 445.71 286.13 C 447.22 283.62 448.72 285.21 450.22 286.93 C 451.72 288.65 453.23 294.46 454.73 296.45 C 456.23 298.43 457.73 298.30 459.24 298.83 C 460.74 299.36 462.24 299.09 463.75 299.62 C 465.25 300.15 466.75 302.40 468.25 302.00 C 469.76 301.60 471.26 297.64 472.76 297.24 C 474.27 296.84 475.77 301.21 477.27 299.62 C 478.77 298.03 480.28 288.12 481.78 287.72 C 483.28 287.32 484.78 295.92 486.29 297.24 C 487.79 298.56 489.29 296.58 490.80 295.65 C 492.30 294.73 493.80 299.75 495.30 291.69 C 496.81 283.62 498.31 251.49 499.81 247.26 C 501.31 243.03 502.82 294.46 504.32 266.30 C 505.82 238.14 507.33 100.49 508.83 78.28 C 510.33 56.07 511.83 108.29 513.34 133.02 C 514.84 157.75 516.34 207.06 517.85 226.63 C 519.35 246.20 520.85 249.11 522.35 250.43 C 523.86 251.76 525.36 230.47 526.86 234.57 C 528.36 238.67 529.87 263.79 531.37 275.03 C 532.87 286.27 534.38 298.30 535.88 302.00 C 537.38 305.70 538.88 297.77 540.39 297.24 C 541.89 296.71 543.39 301.87 544.90 298.83 C 546.40 295.79 547.90 278.99 549.40 278.99 C 550.91 278.99 552.41 300.28 553.91 298.83 C 555.41 297.37 556.92 275.82 558.42 270.27 C 559.92 264.71 561.43 260.22 562.93 265.51 C 564.43 270.80 565.93 297.24 567.44 302.00 C 568.94 306.76 570.44 294.07 571.94 294.07 C 573.45 294.07 574.95 302.53 576.45 302.00 C 577.96 301.47 579.46 292.22 580.96 290.89 C 582.46 289.57 583.97 303.59 585.47 294.07 C 586.97 284.55 588.48 238.40 589.98 233.77 C 591.48 229.15 592.98 267.62 594.49 266.30 C 595.99 264.98 597.49 228.75 598.99 225.84 C 600.50 222.93 602.00 249.24 603.50 248.85 C 605.01 248.45 606.51 222.80 608.01 223.46 C 609.51 224.12 611.02 249.11 612.52 252.81 C 614.02 256.52 615.52 238.00 617.03 245.67 C 618.53 253.34 620.03 292.22 621.54 298.83 C 623.04 305.44 624.54 289.70 626.04 285.34 C 627.55 280.98 629.05 287.72 630.55 272.65 C 632.06 257.57 633.56 195.30 635.06 194.90 C 636.56 194.50 638.07 253.08 639.57 270.27 C 641.07 287.46 642.57 293.80 644.08 298.03 C 645.58 302.26 647.08 296.18 648.59 295.65 C 650.09 295.12 651.59 297.50 653.09 294.86 C 654.60 292.22 656.10 281.24 657.60 279.79 C 659.10 278.33 660.61 282.96 662.11 286.13 C 663.61 289.31 665.12 297.50 666.62 298.83 C 668.12 300.15 669.62 294.86 671.13 294.07 C 672.63 293.27 674.13 293.01 675.64 294.07 C 677.14 295.12 678.64 299.88 680.14 300.41 C 681.65 300.94 683.15 297.24 684.65 297.24 C 686.15 297.24 687.66 299.88 689.16 300.41 C 690.66 300.94 692.17 309.54 693.67 300.41 C 695.17 291.29 696.67 248.19 698.18 245.67 C 699.68 243.16 701.18 282.83 702.69 285.34 C 704.19 287.85 705.69 260.09 707.19 260.75 C 708.70 261.41 710.20 285.21 711.70 289.31 C 713.20 293.41 714.71 283.62 716.21 285.34 C 717.71 287.06 719.22 297.11 720.72 299.62 C 722.22 302.13 723.72 300.28 725.23 300.41 C 726.73 300.55 728.23 300.41 729.73 300.41 C 731.24 300.41 732.74 300.81 734.24 300.41 C 735.75 300.02 737.25 305.57 738.75 298.03 C 740.25 290.50 741.76 255.99 743.26 255.19 C 744.76 254.40 746.27 289.57 747.77 293.27 C 749.27 296.98 750.77 277.67 752.28 277.41 C 753.78 277.14 755.28 291.55 756.78 291.69 C 758.29 291.82 759.79 279.13 761.29 278.20 C 762.80 277.27 764.30 282.70 765.80 286.13 C 767.30 289.57 768.81 296.45 770.31 298.83 C 771.81 301.21 773.31 300.15 774.82 300.41 C 776.32 300.68 777.82 300.41 779.33 300.41 C 780.83 300.41 782.33 300.55 783.83 300.41 C 785.34 300.28 786.84 302.93 788.34 299.62 C 789.85 296.31 791.35 280.71 792.85 280.58 C 794.35 280.45 795.86 299.49 797.36 298.83 C 798.86 298.17 800.36 276.35 801.87 276.61 C 803.37 276.88 804.87 298.03 806.38 300.41 C 807.88 302.79 809.38 302.66 810.88 290.89 C 812.39 279.13 813.89 237.08 815.39 229.81 C 816.90 222.53 818.40 241.44 819.90 247.26 C 821.40 253.08 822.91 260.09 824.41 264.71 C 825.91 269.34 827.41 269.34 828.92 275.03 C 830.42 280.71 831.92 299.49 833.43 298.83 C 834.93 298.17 836.43 274.37 837.93 271.06 C 839.44 267.75 840.94 277.80 842.44 278.99 C 843.94 280.18 845.45 276.35 846.95 278.20 C 848.45 280.05 849.96 287.72 851.46 290.10 C 852.96 292.48 854.46 291.03 855.97 292.48 C 857.47 293.93 858.97 300.28 860.48 298.83 C 861.98 297.37 863.48 284.55 864.98 283.75 C 866.49 282.96 867.99 293.41 869.49 294.07 C 870.99 294.73 873.25 288.78 874.00 287.72" fill="none" stroke="#22C55E" stroke-opacity="0.20" stroke-width="7" stroke-linecap="round" stroke-linejoin="round"/>
<path d="M 58.00 301.21 C 58.75 301.34 61.01 301.87 62.51 302.00 C 64.01 302.13 65.51 302.26 67.02 302.00 C 68.52 301.74 70.02 300.41 71.52 300.41 C 73.03 300.41 74.53 302.93 76.03 302.00 C 77.54 301.07 79.04 295.26 80.54 294.86 C 82.04 294.46 83.55 299.49 85.05 299.62 C 86.55 299.75 88.06 301.07 89.56 295.65 C 91.06 290.23 92.56 271.06 94.07 267.09 C 95.57 263.13 97.07 268.42 98.57 271.85 C 100.08 275.29 101.58 284.55 103.08 287.72 C 104.59 290.89 106.09 288.78 107.59 290.89 C 109.09 293.01 110.60 298.96 112.10 300.41 C 113.60 301.87 115.10 299.49 116.61 299.62 C 118.11 299.75 119.61 300.81 121.12 301.21 C 122.62 301.60 124.12 301.87 125.62 302.00 C 127.13 302.13 128.63 302.00 130.13 302.00 C 131.64 302.00 133.14 305.44 134.64 302.00 C 136.14 298.56 137.65 282.43 139.15 281.37 C 140.65 280.32 142.15 296.98 143.66 295.65 C 145.16 294.33 146.66 273.57 148.17 273.44 C 149.67 273.31 151.17 293.41 152.67 294.86 C 154.18 296.31 155.68 282.17 157.18 282.17 C 158.69 282.17 160.19 296.18 161.69 294.86 C 163.19 293.54 164.70 275.95 166.20 274.23 C 167.70 272.51 169.20 281.64 170.71 284.55 C 172.21 287.46 173.71 288.78 175.22 291.69 C 176.72 294.60 178.22 303.59 179.72 302.00 C 181.23 300.41 182.73 283.22 184.23 282.17 C 185.73 281.11 187.24 292.35 188.74 295.65 C 190.24 298.96 191.75 301.34 193.25 302.00 C 194.75 302.66 196.25 303.98 197.76 299.62 C 199.26 295.26 200.76 303.45 202.27 275.82 C 203.77 248.19 205.27 133.95 206.77 133.81 C 208.28 133.68 209.78 249.51 211.28 275.03 C 212.78 300.55 214.29 282.43 215.79 286.93 C 217.29 291.42 218.80 301.87 220.30 302.00 C 221.80 302.13 223.30 287.98 224.81 287.72 C 226.31 287.46 227.81 300.28 229.31 300.41 C 230.82 300.55 232.32 289.44 233.82 288.51 C 235.33 287.59 236.83 295.65 238.33 294.86 C 239.83 294.07 241.34 285.74 242.84 283.75 C 244.34 281.77 245.85 284.41 247.35 282.96 C 248.85 281.51 250.35 272.91 251.86 275.03 C 253.36 277.14 254.86 291.16 256.36 295.65 C 257.87 300.15 259.37 303.85 260.87 302.00 C 262.38 300.15 263.88 287.59 265.38 284.55 C 266.88 281.51 268.39 282.03 269.89 283.75 C 271.39 285.47 272.90 294.60 274.40 294.86 C 275.90 295.12 277.40 285.60 278.91 285.34 C 280.41 285.08 281.91 292.35 283.41 293.27 C 284.92 294.20 286.42 291.16 287.92 290.89 C 289.43 290.63 290.93 290.50 292.43 291.69 C 293.93 292.88 295.44 296.31 296.94 298.03 C 298.44 299.75 299.94 302.26 301.45 302.00 C 302.95 301.74 304.45 296.45 305.96 296.45 C 307.46 296.45 308.96 301.07 310.46 302.00 C 311.97 302.93 313.47 302.00 314.97 302.00 C 316.48 302.00 317.98 302.00 319.48 302.00 C 320.98 302.00 322.49 303.19 323.99 302.00 C 325.49 300.81 326.99 294.86 328.50 294.86 C 330.00 294.86 331.50 300.81 333.01 302.00 C 334.51 303.19 336.01 303.45 337.51 302.00 C 339.02 300.55 340.52 293.93 342.02 293.27 C 343.52 292.61 345.03 296.58 346.53 298.03 C 348.03 299.49 349.54 301.34 351.04 302.00 C 352.54 302.66 354.04 302.40 355.55 302.00 C 357.05 301.60 358.55 299.88 360.06 299.62 C 361.56 299.36 363.06 300.81 364.56 300.41 C 366.07 300.02 367.57 300.81 369.07 297.24 C 370.57 293.67 372.08 279.26 373.58 278.99 C 375.08 278.73 376.59 291.82 378.09 295.65 C 379.59 299.49 381.09 302.40 382.60 302.00 C 384.10 301.60 385.60 297.11 387.10 293.27 C 388.61 289.44 390.11 279.39 391.61 278.99 C 393.12 278.60 394.62 287.19 396.12 290.89 C 397.62 294.60 399.13 303.72 400.63 301.21 C 402.13 298.69 403.64 280.98 405.14 275.82 C 406.64 270.66 408.14 269.74 409.65 270.27 C 411.15 270.80 412.65 274.63 414.15 278.99 C 415.66 283.36 417.16 292.61 418.66 296.45 C 420.17 300.28 421.67 301.47 423.17 302.00 C 424.67 302.53 426.18 299.62 427.68 299.62 C 429.18 299.62 430.69 301.60 432.19 302.00 C 433.69 302.40 435.19 302.00 436.70 302.00 C 438.20 302.00 439.70 304.64 441.20 302.00 C 442.71 299.36 444.21 288.65 445.71 286.13 C 447.22 283.62 448.72 285.21 450.22 286.93 C 451.72 288.65 453.23 294.46 454.73 296.45 C 456.23 298.43 457.73 298.30 459.24 298.83 C 460.74 299.36 462.24 299.09 463.75 299.62 C 465.25 300.15 466.75 302.40 468.25 302.00 C 469.76 301.60 471.26 297.64 472.76 297.24 C 474.27 296.84 475.77 301.21 477.27 299.62 C 478.77 298.03 480.28 288.12 481.78 287.72 C 483.28 287.32 484.78 295.92 486.29 297.24 C 487.79 298.56 489.29 296.58 490.80 295.65 C 492.30 294.73 493.80 299.75 495.30 291.69 C 496.81 283.62 498.31 251.49 499.81 247.26 C 501.31 243.03 502.82 294.46 504.32 266.30 C 505.82 238.14 507.33 100.49 508.83 78.28 C 510.33 56.07 511.83 108.29 513.34 133.02 C 514.84 157.75 516.34 207.06 517.85 226.63 C 519.35 246.20 520.85 249.11 522.35 250.43 C 523.86 251.76 525.36 230.47 526.86 234.57 C 528.36 238.67 529.87 263.79 531.37 275.03 C 532.87 286.27 534.38 298.30 535.88 302.00 C 537.38 305.70 538.88 297.77 540.39 297.24 C 541.89 296.71 543.39 301.87 544.90 298.83 C 546.40 295.79 547.90 278.99 549.40 278.99 C 550.91 278.99 552.41 300.28 553.91 298.83 C 555.41 297.37 556.92 275.82 558.42 270.27 C 559.92 264.71 561.43 260.22 562.93 265.51 C 564.43 270.80 565.93 297.24 567.44 302.00 C 568.94 306.76 570.44 294.07 571.94 294.07 C 573.45 294.07 574.95 302.53 576.45 302.00 C 577.96 301.47 579.46 292.22 580.96 290.89 C 582.46 289.57 583.97 303.59 585.47 294.07 C 586.97 284.55 588.48 238.40 589.98 233.77 C 591.48 229.15 592.98 267.62 594.49 266.30 C 595.99 264.98 597.49 228.75 598.99 225.84 C 600.50 222.93 602.00 249.24 603.50 248.85 C 605.01 248.45 606.51 222.80 608.01 223.46 C 609.51 224.12 611.02 249.11 612.52 252.81 C 614.02 256.52 615.52 238.00 617.03 245.67 C 618.53 253.34 620.03 292.22 621.54 298.83 C 623.04 305.44 624.54 289.70 626.04 285.34 C 627.55 280.98 629.05 287.72 630.55 272.65 C 632.06 257.57 633.56 195.30 635.06 194.90 C 636.56 194.50 638.07 253.08 639.57 270.27 C 641.07 287.46 642.57 293.80 644.08 298.03 C 645.58 302.26 647.08 296.18 648.59 295.65 C 650.09 295.12 651.59 297.50 653.09 294.86 C 654.60 292.22 656.10 281.24 657.60 279.79 C 659.10 278.33 660.61 282.96 662.11 286.13 C 663.61 289.31 665.12 297.50 666.62 298.83 C 668.12 300.15 669.62 294.86 671.13 294.07 C 672.63 293.27 674.13 293.01 675.64 294.07 C 677.14 295.12 678.64 299.88 680.14 300.41 C 681.65 300.94 683.15 297.24 684.65 297.24 C 686.15 297.24 687.66 299.88 689.16 300.41 C 690.66 300.94 692.17 309.54 693.67 300.41 C 695.17 291.29 696.67 248.19 698.18 245.67 C 699.68 243.16 701.18 282.83 702.69 285.34 C 704.19 287.85 705.69 260.09 707.19 260.75 C 708.70 261.41 710.20 285.21 711.70 289.31 C 713.20 293.41 714.71 283.62 716.21 285.34 C 717.71 287.06 719.22 297.11 720.72 299.62 C 722.22 302.13 723.72 300.28 725.23 300.41 C 726.73 300.55 728.23 300.41 729.73 300.41 C 731.24 300.41 732.74 300.81 734.24 300.41 C 735.75 300.02 737.25 305.57 738.75 298.03 C 740.25 290.50 741.76 255.99 743.26 255.19 C 744.76 254.40 746.27 289.57 747.77 293.27 C 749.27 296.98 750.77 277.67 752.28 277.41 C 753.78 277.14 755.28 291.55 756.78 291.69 C 758.29 291.82 759.79 279.13 761.29 278.20 C 762.80 277.27 764.30 282.70 765.80 286.13 C 767.30 289.57 768.81 296.45 770.31 298.83 C 771.81 301.21 773.31 300.15 774.82 300.41 C 776.32 300.68 777.82 300.41 779.33 300.41 C 780.83 300.41 782.33 300.55 783.83 300.41 C 785.34 300.28 786.84 302.93 788.34 299.62 C 789.85 296.31 791.35 280.71 792.85 280.58 C 794.35 280.45 795.86 299.49 797.36 298.83 C 798.86 298.17 800.36 276.35 801.87 276.61 C 803.37 276.88 804.87 298.03 806.38 300.41 C 807.88 302.79 809.38 302.66 810.88 290.89 C 812.39 279.13 813.89 237.08 815.39 229.81 C 816.90 222.53 818.40 241.44 819.90 247.26 C 821.40 253.08 822.91 260.09 824.41 264.71 C 825.91 269.34 827.41 269.34 828.92 275.03 C 830.42 280.71 831.92 299.49 833.43 298.83 C 834.93 298.17 836.43 274.37 837.93 271.06 C 839.44 267.75 840.94 277.80 842.44 278.99 C 843.94 280.18 845.45 276.35 846.95 278.20 C 848.45 280.05 849.96 287.72 851.46 290.10 C 852.96 292.48 854.46 291.03 855.97 292.48 C 857.47 293.93 858.97 300.28 860.48 298.83 C 861.98 297.37 863.48 284.55 864.98 283.75 C 866.49 282.96 867.99 293.41 869.49 294.07 C 870.99 294.73 873.25 288.78 874.00 287.72" fill="none" stroke="#22C55E" stroke-width="2.4" stroke-linecap="round" stroke-linejoin="round"/>
<circle cx="508.8" cy="78.3" r="4.5" fill="#4ADE80" stroke="#0B1120" stroke-width="2"/>
<text x="508.8" y="68.3" text-anchor="middle" font-family="ui-monospace,Menlo,monospace" font-size="10" font-weight="700" fill="#4ADE80">282</text>
<circle cx="874.0" cy="287.7" r="3.5" fill="#F8FAFC"/>
<text x="16" y="183" text-anchor="middle" font-family="ui-monospace,Menlo,monospace" font-size="10" fill="#94A3B8" transform="rotate(-90 16 183)">Contributions</text>
</svg>