<svg xmlns="http://www.w3.org/2000/svg" width="900" height="340" viewBox="0 0 900 340" role="img" aria-label="Contribution activity, last 6 months">
<defs>
<linearGradient id="bg" x1="0" y1="0" x2="0" y2="1"><stop offset="0" stop-color="#0F172A"/><stop offset="1" stop-color="#0B1120"/></linearGradient>
<linearGradient id="area" x1="0" y1="0" x2="0" y2="1"><stop offset="0" stop-color="#22C55E" stop-opacity="0.42"/><stop offset="0.7" stop-color="#22C55E" stop-opacity="0.08"/><stop offset="1" stop-color="#22C55E" stop-opacity="0"/></linearGradient>
</defs>
<rect x="0" y="0" width="900" height="340" rx="14" fill="url(#bg)"/>
<text x="450" y="32" text-anchor="middle" font-family="ui-monospace,Menlo,monospace" font-size="17" font-weight="700" fill="#F8FAFC" letter-spacing="0.5">last 6 months</text>
<text x="450" y="50" text-anchor="middle" font-family="ui-monospace,Menlo,monospace" font-size="11" fill="#94A3B8">4,164 contributions · peak 282</text>
<line x1="58" y1="302.0" x2="874" y2="302.0" stroke="#1E293B" stroke-width="1" stroke-dasharray="2 4"/>
<text x="48" y="305.5" text-anchor="end" font-family="ui-monospace,Menlo,monospace" font-size="10" fill="#94A3B8">0</text>
<line x1="58" y1="242.5" x2="874" y2="242.5" stroke="#1E293B" stroke-width="1" stroke-dasharray="2 4"/>
<text x="48" y="246.0" text-anchor="end" font-family="ui-monospace,Menlo,monospace" font-size="10" fill="#94A3B8">75</text>
<line x1="58" y1="183.0" x2="874" y2="183.0" stroke="#1E293B" stroke-width="1" stroke-dasharray="2 4"/>
<text x="48" y="186.5" text-anchor="end" font-family="ui-monospace,Menlo,monospace" font-size="10" fill="#94A3B8">150</text>
<line x1="58" y1="123.5" x2="874" y2="123.5" stroke="#1E293B" stroke-width="1" stroke-dasharray="2 4"/>
<text x="48" y="127.0" text-anchor="end" font-family="ui-monospace,Menlo,monospace" font-size="10" fill="#94A3B8">225</text>
<line x1="58" y1="64.0" x2="874" y2="64.0" stroke="#1E293B" stroke-width="1" stroke-dasharray="2 4"/>
<text x="48" y="67.5" text-anchor="end" font-family="ui-monospace,Menlo,monospace" font-size="10" fill="#94A3B8">300</text>
<line x1="134.6" y1="64" x2="134.6" y2="302" stroke="#1E293B" stroke-width="1" stroke-opacity="0.6"/>
<text x="134.6" y="322" text-anchor="middle" font-family="ui-monospace,Menlo,monospace" font-size="10" fill="#94A3B8">Feb</text>
<line x1="260.9" y1="64" x2="260.9" y2="302" stroke="#1E293B" stroke-width="1" stroke-opacity="0.6"/>
<text x="260.9" y="322" text-anchor="middle" font-family="ui-monospace,Menlo,monospace" font-size="10" fill="#94A3B8">Mar</text>
<line x1="400.6" y1="64" x2="400.6" y2="302" stroke="#1E293B" stroke-width="1" stroke-opacity="0.6"/>
<text x="400.6" y="322" text-anchor="middle" font-family="ui-monospace,Menlo,monospace" font-size="10" fill="#94A3B8">Apr</text>
<line x1="535.9" y1="64" x2="535.9" y2="302" stroke="#1E293B" stroke-width="1" stroke-opacity="0.6"/>
<text x="535.9" y="322" text-anchor="middle" font-family="ui-monospace,Menlo,monospace" font-size="10" fill="#94A3B8">May</text>
<line x1="675.6" y1="64" x2="675.6" y2="302" stroke="#1E293B" stroke-width="1" stroke-opacity="0.6"/>
<text x="675.6" y="322" text-anchor="middle" font-family="ui-monospace,Menlo,monospace" font-size="10" fill="#94A3B8">Jun</text>
<line x1="810.9" y1="64" x2="810.9" y2="302" stroke="#1E293B" stroke-width="1" stroke-opacity="0.6"/>
<text x="810.9" y="322" text-anchor="middle" font-family="ui-monospace,Menlo,monospace" font-size="10" fill="#94A3B8">Jul</text>
<path d="M 58.00 299.62 C 58.75 298.96 61.01 301.07 62.51 295.65 C 64.01 290.23 65.51 271.06 67.02 267.09 C 68.52 263.13 70.02 268.42 71.52 271.85 C 73.03 275.29 74.53 284.55 76.03 287.72 C 77.54 290.89 79.04 288.78 80.54 290.89 C 82.04 293.01 83.55 298.96 85.05 300.41 C 86.55 301.87 88.06 299.49 89.56 299.62 C 91.06 299.75 92.56 300.81 94.07 301.21 C 95.57 301.60 97.07 301.87 98.57 302.00 C 100.08 302.13 101.58 302.00 103.08 302.00 C 104.59 302.00 106.09 305.44 107.59 302.00 C 109.09 298.56 110.60 282.43 112.10 281.37 C 113.60 280.32 115.10 296.98 116.61 295.65 C 118.11 294.33 119.61 273.57 121.12 273.44 C 122.62 273.31 124.12 293.41 125.62 294.86 C 127.13 296.31 128.63 282.17 130.13 282.17 C 131.64 282.17 133.14 296.18 134.64 294.86 C 136.14 293.54 137.65 275.95 139.15 274.23 C 140.65 272.51 142.15 281.64 143.66 284.55 C 145.16 287.46 146.66 288.78 148.17 291.69 C 149.67 294.60 151.17 303.59 152.67 302.00 C 154.18 300.41 155.68 283.22 157.18 282.17 C 158.69 281.11 160.19 292.35 161.69 295.65 C 163.19 298.96 164.70 301.34 166.20 302.00 C 167.70 302.66 169.20 303.98 170.71 299.62 C 172.21 295.26 173.71 303.45 175.22 275.82 C 176.72 248.19 178.22 133.95 179.72 133.81 C 181.23 133.68 182.73 249.51 184.23 275.03 C 185.73 300.55 187.24 282.43 188.74 286.93 C 190.24 291.42 191.75 301.87 193.25 302.00 C 194.75 302.13 196.25 287.98 197.76 287.72 C 199.26 287.46 200.76 300.28 202.27 300.41 C 203.77 300.55 205.27 289.44 206.77 288.51 C 208.28 287.59 209.78 295.65 211.28 294.86 C 212.78 294.07 214.29 285.74 215.79 283.75 C 217.29 281.77 218.80 284.41 220.30 282.96 C 221.80 281.51 223.30 272.91 224.81 275.03 C 226.31 277.14 227.81 291.16 229.31 295.65 C 230.82 300.15 232.32 303.85 233.82 302.00 C 235.33 300.15 236.83 287.59 238.33 284.55 C 239.83 281.51 241.34 282.03 242.84 283.75 C 244.34 285.47 245.85 294.60 247.35 294.86 C 248.85 295.12 250.35 285.60 251.86 285.34 C 253.36 285.08 254.86 292.35 256.36 293.27 C 257.87 294.20 259.37 291.16 260.87 290.89 C 262.38 290.63 263.88 290.50 265.38 291.69 C 266.88 292.88 268.39 296.31 269.89 298.03 C 271.39 299.75 272.90 302.26 274.40 302.00 C 275.90 301.74 277.40 296.45 278.91 296.45 C 280.41 296.45 281.91 301.07 283.41 302.00 C 284.92 302.93 286.42 302.00 287.92 302.00 C 289.43 302.00 290.93 302.00 292.43 302.00 C 293.93 302.00 295.44 303.19 296.94 302.00 C 298.44 300.81 299.94 294.86 301.45 294.86 C 302.95 294.86 304.45 300.81 305.96 302.00 C 307.46 303.19 308.96 303.45 310.46 302.00 C 311.97 300.55 313.47 293.93 314.97 293.27 C 316.48 292.61 317.98 296.58 319.48 298.03 C 320.98 299.49 322.49 301.34 323.99 302.00 C 325.49 302.66 326.99 302.40 328.50 302.00 C 330.00 301.60 331.50 299.88 333.01 299.62 C 334.51 299.36 336.01 300.81 337.51 300.41 C 339.02 300.02 340.52 300.81 342.02 297.24 C 343.52 293.67 345.03 279.26 346.53 278.99 C 348.03 278.73 349.54 291.82 351.04 295.65 C 352.54 299.49 354.04 302.40 355.55 302.00 C 357.05 301.60 358.55 297.11 360.06 293.27 C 361.56 289.44 363.06 279.39 364.56 278.99 C 366.07 278.60 367.57 287.19 369.07 290.89 C 370.57 294.60 372.08 303.72 373.58 301.21 C 375.08 298.69 376.59 280.98 378.09 275.82 C 379.59 270.66 381.09 269.74 382.60 270.27 C 384.10 270.80 385.60 274.63 387.10 278.99 C 388.61 283.36 390.11 292.61 391.61 296.45 C 393.12 300.28 394.62 301.47 396.12 302.00 C 397.62 302.53 399.13 299.62 400.63 299.62 C 402.13 299.62 403.64 301.60 405.14 302.00 C 406.64 302.40 408.14 302.00 409.65 302.00 C 411.15 302.00 412.65 304.64 414.15 302.00 C 415.66 299.36 417.16 288.65 418.66 286.13 C 420.17 283.62 421.67 285.21 423.17 286.93 C 424.67 288.65 426.18 294.46 427.68 296.45 C 429.18 298.43 430.69 298.30 432.19 298.83 C 433.69 299.36 435.19 299.09 436.70 299.62 C 438.20 300.15 439.70 302.40 441.20 302.00 C 442.71 301.60 444.21 297.64 445.71 297.24 C 447.22 296.84 448.72 301.21 450.22 299.62 C 451.72 298.03 453.23 288.12 454.73 287.72 C 456.23 287.32 457.73 295.92 459.24 297.24 C 460.74 298.56 462.24 296.58 463.75 295.65 C 465.25 294.73 466.75 299.75 468.25 291.69 C 469.76 283.62 471.26 251.49 472.76 247.26 C 474.27 243.03 475.77 294.46 477.27 266.30 C 478.77 238.14 480.28 100.49 481.78 78.28 C 483.28 56.07 484.78 108.29 486.29 133.02 C 487.79 157.75 489.29 207.06 490.80 226.63 C 492.30 246.20 493.80 249.11 495.30 250.43 C 496.81 251.76 498.31 230.47 499.81 234.57 C 501.31 238.67 502.82 263.79 504.32 275.03 C 505.82 286.27 507.33 298.30 508.83 302.00 C 510.33 305.70 511.83 297.77 513.34 297.24 C 514.84 296.71 516.34 301.87 517.85 298.83 C 519.35 295.79 520.85 278.99 522.35 278.99 C 523.86 278.99 525.36 300.28 526.86 298.83 C 528.36 297.37 529.87 275.82 531.37 270.27 C 532.87 264.71 534.38 260.22 535.88 265.51 C 537.38 270.80 538.88 297.24 540.39 302.00 C 541.89 306.76 543.39 294.07 544.90 294.07 C 546.40 294.07 547.90 302.53 549.40 302.00 C 550.91 301.47 552.41 292.22 553.91 290.89 C 555.41 289.57 556.92 303.59 558.42 294.07 C 559.92 284.55 561.43 238.40 562.93 233.77 C 564.43 229.15 565.93 267.62 567.44 266.30 C 568.94 264.98 570.44 228.75 571.94 225.84 C 573.45 222.93 574.95 249.24 576.45 248.85 C 577.96 248.45 579.46 222.80 580.96 223.46 C 582.46 224.12 583.97 249.11 585.47 252.81 C 586.97 256.52 588.48 238.00 589.98 245.67 C 591.48 253.34 592.98 292.22 594.49 298.83 C 595.99 305.44 597.49 289.70 598.99 285.34 C 600.50 280.98 602.00 287.72 603.50 272.65 C 605.01 257.57 606.51 195.30 608.01 194.90 C 609.51 194.50 611.02 253.08 612.52 270.27 C 614.02 287.46 615.52 293.80 617.03 298.03 C 618.53 302.26 620.03 296.18 621.54 295.65 C 623.04 295.12 624.54 297.50 626.04 294.86 C 627.55 292.22 629.05 281.24 630.55 279.79 C 632.06 278.33 633.56 282.96 635.06 286.13 C 636.56 289.31 638.07 297.50 639.57 298.83 C 641.07 300.15 642.57 294.86 644.08 294.07 C 645.58 293.27 647.08 293.01 648.59 294.07 C 650.09 295.12 651.59 299.88 653.09 300.41 C 654.60 300.94 656.10 297.24 657.60 297.24 C 659.10 297.24 660.61 299.88 662.11 300.41 C 663.61 300.94 665.12 309.54 666.62 300.41 C 668.12 291.29 669.62 248.19 671.13 245.67 C 672.63 243.16 674.13 282.83 675.64 285.34 C 677.14 287.85 678.64 260.09 680.14 260.75 C 681.65 261.41 683.15 285.21 684.65 289.31 C 686.15 293.41 687.66 283.62 689.16 285.34 C 690.66 287.06 692.17 297.11 693.67 299.62 C 695.17 302.13 696.67 300.28 698.18 300.41 C 699.68 300.55 701.18 300.41 702.69 300.41 C 704.19 300.41 705.69 300.81 707.19 300.41 C 708.70 300.02 710.20 305.57 711.70 298.03 C 713.20 290.50 714.71 255.99 716.21 255.19 C 717.71 254.40 719.22 289.57 720.72 293.27 C 722.22 296.98 723.72 277.67 725.23 277.41 C 726.73 277.14 728.23 291.55 729.73 291.69 C 731.24 291.82 732.74 279.13 734.24 278.20 C 735.75 277.27 737.25 282.70 738.75 286.13 C 740.25 289.57 741.76 296.45 743.26 298.83 C 744.76 301.21 746.27 300.15 747.77 300.41 C 749.27 300.68 750.77 300.41 752.28 300.41 C 753.78 300.41 755.28 300.55 756.78 300.41 C 758.29 300.28 759.79 302.93 761.29 299.62 C 762.80 296.31 764.30 280.71 765.80 280.58 C 767.30 280.45 768.81 299.49 770.31 298.83 C 771.81 298.17 773.31 276.35 774.82 276.61 C 776.32 276.88 777.82 298.03 779.33 300.41 C 780.83 302.79 782.33 302.66 783.83 290.89 C 785.34 279.13 786.84 237.08 788.34 229.81 C 789.85 222.53 791.35 241.44 792.85 247.26 C 794.35 253.08 795.86 260.09 797.36 264.71 C 798.86 269.34 800.36 269.34 801.87 275.03 C 803.37 280.71 804.87 299.49 806.38 298.83 C 807.88 298.17 809.38 274.37 810.88 271.06 C 812.39 267.75 813.89 277.80 815.39 278.99 C 816.90 280.18 818.40 276.35 819.90 278.20 C 821.40 280.05 822.91 287.72 824.41 290.10 C 825.91 292.48 827.41 291.03 828.92 292.48 C 830.42 293.93 831.92 300.28 833.43 298.83 C 834.93 297.37 836.43 284.55 837.93 283.75 C 839.44 282.96 840.94 293.93 842.44 294.07 C 843.94 294.20 845.45 284.28 846.95 284.55 C 848.45 284.81 849.96 293.01 851.46 295.65 C 852.96 298.30 854.46 304.12 855.97 300.41 C 857.47 296.71 858.97 279.52 860.48 273.44 C 861.98 267.36 863.48 261.01 864.98 263.92 C 866.49 266.83 867.99 284.68 869.49 290.89 C 870.99 297.11 873.25 299.49 874.00 301.21 L 874.00 302.00 L 58.00 302.00 Z" fill="url(#area)"/>
<path d="M 58.00 299.62 C 58.75 298.96 61.01 301.07 62.51 295.65 C 64.01 290.23 65.51 271.06 67.02 267.09 C 68.52 263.13 70.02 268.42 71.52 271.85 C 73.03 275.29 74.53 284.55 76.03 287.72 C 77.54 290.89 79.04 288.78 80.54 290.89 C 82.04 293.01 83.55 298.96 85.05 300.41 C 86.55 301.87 88.06 299.49 89.56 299.62 C 91.06 299.75 92.56 300.81 94.07 301.21 C 95.57 301.60 97.07 301.87 98.57 302.00 C 100.08 302.13 101.58 302.00 103.08 302.00 C 104.59 302.00 106.09 305.44 107.59 302.00 C 109.09 298.56 110.60 282.43 112.10 281.37 C 113.60 280.32 115.10 296.98 116.61 295.65 C 118.11 294.33 119.61 273.57 121.12 273.44 C 122.62 273.31 124.12 293.41 125.62 294.86 C 127.13 296.31 128.63 282.17 130.13 282.17 C 131.64 282.17 133.14 296.18 134.64 294.86 C 136.14 293.54 137.65 275.95 139.15 274.23 C 140.65 272.51 142.15 281.64 143.66 284.55 C 145.16 287.46 146.66 288.78 148.17 291.69 C 149.67 294.60 151.17 303.59 152.67 302.00 C 154.18 300.41 155.68 283.22 157.18 282.17 C 158.69 281.11 160.19 292.35 161.69 295.65 C 163.19 298.96 164.70 301.34 166.20 302.00 C 167.70 302.66 169.20 303.98 170.71 299.62 C 172.21 295.26 173.71 303.45 175.22 275.82 C 176.72 248.19 178.22 133.95 179.72 133.81 C 181.23 133.68 182.73 249.51 184.23 275.03 C 185.73 300.55 187.24 282.43 188.74 286.93 C 190.24 291.42 191.75 301.87 193.25 302.00 C 194.75 302.13 196.25 287.98 197.76 287.72 C 199.26 287.46 200.76 300.28 202.27 300.41 C 203.77 300.55 205.27 289.44 206.77 288.51 C 208.28 287.59 209.78 295.65 211.28 294.86 C 212.78 294.07 214.29 285.74 215.79 283.75 C 217.29 281.77 218.80 284.41 220.30 282.96 C 221.80 281.51 223.30 272.91 224.81 275.03 C 226.31 277.14 227.81 291.16 229.31 295.65 C 230.82 300.15 232.32 303.85 233.82 302.00 C 235.33 300.15 236.83 287.59 238.33 284.55 C 239.83 281.51 241.34 282.03 242.84 283.75 C 244.34 285.47 245.85 294.60 247.35 294.86 C 248.85 295.12 250.35 285.60 251.86 285.34 C 253.36 285.08 254.86 292.35 256.36 293.27 C 257.87 294.20 259.37 291.16 260.87 290.89 C 262.38 290.63 263.88 290.50 265.38 291.69 C 266.88 292.88 268.39 296.31 269.89 298.03 C 271.39 299.75 272.90 302.26 274.40 302.00 C 275.90 301.74 277.40 296.45 278.91 296.45 C 280.41 296.45 281.91 301.07 283.41 302.00 C 284.92 302.93 286.42 302.00 287.92 302.00 C 289.43 302.00 290.93 302.00 292.43 302.00 C 293.93 302.00 295.44 303.19 296.94 302.00 C 298.44 300.81 299.94 294.86 301.45 294.86 C 302.95 294.86 304.45 300.81 305.96 302.00 C 307.46 303.19 308.96 303.45 310.46 302.00 C 311.97 300.55 313.47 293.93 314.97 293.27 C 316.48 292.61 317.98 296.58 319.48 298.03 C 320.98 299.49 322.49 301.34 323.99 302.00 C 325.49 302.66 326.99 302.40 328.50 302.00 C 330.00 301.60 331.50 299.88 333.01 299.62 C 334.51 299.36 336.01 300.81 337.51 300.41 C 339.02 300.02 340.52 300.81 342.02 297.24 C 343.52 293.67 345.03 279.26 346.53 278.99 C 348.03 278.73 349.54 291.82 351.04 295.65 C 352.54 299.49 354.04 302.40 355.55 302.00 C 357.05 301.60 358.55 297.11 360.06 293.27 C 361.56 289.44 363.06 279.39 364.56 278.99 C 366.07 278.60 367.57 287.19 369.07 290.89 C 370.57 294.60 372.08 303.72 373.58 301.21 C 375.08 298.69 376.59 280.98 378.09 275.82 C 379.59 270.66 381.09 269.74 382.60 270.27 C 384.10 270.80 385.60 274.63 387.10 278.99 C 388.61 283.36 390.11 292.61 391.61 296.45 C 393.12 300.28 394.62 301.47 396.12 302.00 C 397.62 302.53 399.13 299.62 400.63 299.62 C 402.13 299.62 403.64 301.60 405.14 302.00 C 406.64 302.40 408.14 302.00 409.65 302.00 C 411.15 302.00 412.65 304.64 414.15 302.00 C 415.66 299.36 417.16 288.65 418.66 286.13 C 420.17 283.62 421.67 285.21 423.17 286.93 C 424.67 288.65 426.18 294.46 427.68 296.45 C 429.18 298.43 430.69 298.30 432.19 298.83 C 433.69 299.36 435.19 299.09 436.70 299.62 C 438.20 300.15 439.70 302.40 441.20 302.00 C 442.71 301.60 444.21 297.64 445.71 297.24 C 447.22 296.84 448.72 301.21 450.22 299.62 C 451.72 298.03 453.23 288.12 454.73 287.72 C 456.23 287.32 457.73 295.92 459.24 297.24 C 460.74 298.56 462.24 296.58 463.75 295.65 C 465.25 294.73 466.75 299.75 468.25 291.69 C 469.76 283.62 471.26 251.49 472.76 247.26 C 474.27 243.03 475.77 294.46 477.27 266.30 C 478.77 238.14 480.28 100.49 481.78 78.28 C 483.28 56.07 484.78 108.29 486.29 133.02 C 487.79 157.75 489.29 207.06 490.80 226.63 C 492.30 246.20 493.80 249.11 495.30 250.43 C 496.81 251.76 498.31 230.47 499.81 234.57 C 501.31 238.67 502.82 263.79 504.32 275.03 C 505.82 286.27 507.33 298.30 508.83 302.00 C 510.33 305.70 511.83 297.77 513.34 297.24 C 514.84 296.71 516.34 301.87 517.85 298.83 C 519.35 295.79 520.85 278.99 522.35 278.99 C 523.86 278.99 525.36 300.28 526.86 298.83 C 528.36 297.37 529.87 275.82 531.37 270.27 C 532.87 264.71 534.38 260.22 535.88 265.51 C 537.38 270.80 538.88 297.24 540.39 302.00 C 541.89 306.76 543.39 294.07 544.90 294.07 C 546.40 294.07 547.90 302.53 549.40 302.00 C 550.91 301.47 552.41 292.22 553.91 290.89 C 555.41 289.57 556.92 303.59 558.42 294.07 C 559.92 284.55 561.43 238.40 562.93 233.77 C 564.43 229.15 565.93 267.62 567.44 266.30 C 568.94 264.98 570.44 228.75 571.94 225.84 C 573.45 222.93 574.95 249.24 576.45 248.85 C 577.96 248.45 579.46 222.80 580.96 223.46 C 582.46 224.12 583.97 249.11 585.47 252.81 C 586.97 256.52 588.48 238.00 589.98 245.67 C 591.48 253.34 592.98 292.22 594.49 298.83 C 595.99 305.44 597.49 289.70 598.99 285.34 C 600.50 280.98 602.00 287.72 603.50 272.65 C 605.01 257.57 606.51 195.30 608.01 194.90 C 609.51 194.50 611.02 253.08 612.52 270.27 C 614.02 287.46 615.52 293.80 617.03 298.03 C 618.53 302.26 620.03 296.18 621.54 295.65 C 623.04 295.12 624.54 297.50 626.04 294.86 C 627.55 292.22 629.05 281.24 630.55 279.79 C 632.06 278.33 633.56 282.96 635.06 286.13 C 636.56 289.31 638.07 297.50 639.57 298.83 C 641.07 300.15 642.57 294.86 644.08 294.07 C 645.58 293.27 647.08 293.01 648.59 294.07 C 650.09 295.12 651.59 299.88 653.09 300.41 C 654.60 300.94 656.10 297.24 657.60 297.24 C 659.10 297.24 660.61 299.88 662.11 300.41 C 663.61 300.94 665.12 309.54 666.62 300.41 C 668.12 291.29 669.62 248.19 671.13 245.67 C 672.63 243.16 674.13 282.83 675.64 285.34 C 677.14 287.85 678.64 260.09 680.14 260.75 C 681.65 261.41 683.15 285.21 684.65 289.31 C 686.15 293.41 687.66 283.62 689.16 285.34 C 690.66 287.06 692.17 297.11 693.67 299.62 C 695.17 302.13 696.67 300.28 698.18 300.41 C 699.68 300.55 701.18 300.41 702.69 300.41 C 704.19 300.41 705.69 300.81 707.19 300.41 C 708.70 300.02 710.20 305.57 711.70 298.03 C 713.20 290.50 714.71 255.99 716.21 255.19 C 717.71 254.40 719.22 289.57 720.72 293.27 C 722.22 296.98 723.72 277.67 725.23 277.41 C 726.73 277.14 728.23 291.55 729.73 291.69 C 731.24 291.82 732.74 279.13 734.24 278.20 C 735.75 277.27 737.25 282.70 738.75 286.13 C 740.25 289.57 741.76 296.45 743.26 298.83 C 744.76 301.21 746.27 300.15 747.77 300.41 C 749.27 300.68 750.77 300.41 752.28 300.41 C 753.78 300.41 755.28 300.55 756.78 300.41 C 758.29 300.28 759.79 302.93 761.29 299.62 C 762.80 296.31 764.30 280.71 765.80 280.58 C 767.30 280.45 768.81 299.49 770.31 298.83 C 771.81 298.17 773.31 276.35 774.82 276.61 C 776.32 276.88 777.82 298.03 779.33 300.41 C 780.83 302.79 782.33 302.66 783.83 290.89 C 785.34 279.13 786.84 237.08 788.34 229.81 C 789.85 222.53 791.35 241.44 792.85 247.26 C 794.35 253.08 795.86 260.09 797.36 264.71 C 798.86 269.34 800.36 269.34 801.87 275.03 C 803.37 280.71 804.87 299.49 806.38 298.83 C 807.88 298.17 809.38 274.37 810.88 271.06 C 812.39 267.75 813.89 277.80 815.39 278.99 C 816.90 280.18 818.40 276.35 819.90 278.20 C 821.40 280.05 822.91 287.72 824.41 290.10 C 825.91 292.48 827.41 291.03 828.92 292.48 C 830.42 293.93 831.92 300.28 833.43 298.83 C 834.93 297.37 836.43 284.55 837.93 283.75 C 839.44 282.96 840.94 293.93 842.44 294.07 C 843.94 294.20 845.45 284.28 846.95 284.55 C 848.45 284.81 849.96 293.01 851.46 295.65 C 852.96 298.30 854.46 304.12 855.97 300.41 C 857.47 296.71 858.97 279.52 860.48 273.44 C 861.98 267.36 863.48 261.01 864.98 263.92 C 866.49 266.83 867.99 284.68 869.49 290.89 C 870.99 297.11 873.25 299.49 874.00 301.21" fill="none" stroke="#22C55E" stroke-opacity="0.20" stroke-width="7" stroke-linecap="round" stroke-linejoin="round"/>
<path d="M 58.00 299.62 C 58.75 298.96 61.01 301.07 62.51 295.65 C 64.01 290.23 65.51 271.06 67.02 267.09 C 68.52 263.13 70.02 268.42 71.52 271.85 C 73.03 275.29 74.53 284.55 76.03 287.72 C 77.54 290.89 79.04 288.78 80.54 290.89 C 82.04 293.01 83.55 298.96 85.05 300.41 C 86.55 301.87 88.06 299.49 89.56 299.62 C 91.06 299.75 92.56 300.81 94.07 301.21 C 95.57 301.60 97.07 301.87 98.57 302.00 C 100.08 302.13 101.58 302.00 103.08 302.00 C 104.59 302.00 106.09 305.44 107.59 302.00 C 109.09 298.56 110.60 282.43 112.10 281.37 C 113.60 280.32 115.10 296.98 116.61 295.65 C 118.11 294.33 119.61 273.57 121.12 273.44 C 122.62 273.31 124.12 293.41 125.62 294.86 C 127.13 296.31 128.63 282.17 130.13 282.17 C 131.64 282.17 133.14 296.18 134.64 294.86 C 136.14 293.54 137.65 275.95 139.15 274.23 C 140.65 272.51 142.15 281.64 143.66 284.55 C 145.16 287.46 146.66 288.78 148.17 291.69 C 149.67 294.60 151.17 303.59 152.67 302.00 C 154.18 300.41 155.68 283.22 157.18 282.17 C 158.69 281.11 160.19 292.35 161.69 295.65 C 163.19 298.96 164.70 301.34 166.20 302.00 C 167.70 302.66 169.20 303.98 170.71 299.62 C 172.21 295.26 173.71 303.45 175.22 275.82 C 176.72 248.19 178.22 133.95 179.72 133.81 C 181.23 133.68 182.73 249.51 184.23 275.03 C 185.73 300.55 187.24 282.43 188.74 286.93 C 190.24 291.42 191.75 301.87 193.25 302.00 C 194.75 302.13 196.25 287.98 197.76 287.72 C 199.26 287.46 200.76 300.28 202.27 300.41 C 203.77 300.55 205.27 289.44 206.77 288.51 C 208.28 287.59 209.78 295.65 211.28 294.86 C 212.78 294.07 214.29 285.74 215.79 283.75 C 217.29 281.77 218.80 284.41 220.30 282.96 C 221.80 281.51 223.30 272.91 224.81 275.03 C 226.31 277.14 227.81 291.16 229.31 295.65 C 230.82 300.15 232.32 303.85 233.82 302.00 C 235.33 300.15 236.83 287.59 238.33 284.55 C 239.83 281.51 241.34 282.03 242.84 283.75 C 244.34 285.47 245.85 294.60 247.35 294.86 C 248.85 295.12 250.35 285.60 251.86 285.34 C 253.36 285.08 254.86 292.35 256.36 293.27 C 257.87 294.20 259.37 291.16 260.87 290.89 C 262.38 290.63 263.88 290.50 265.38 291.69 C 266.88 292.88 268.39 296.31 269.89 298.03 C 271.39 299.75 272.90 302.26 274.40 302.00 C 275.90 301.74 277.40 296.45 278.91 296.45 C 280.41 296.45 281.91 301.07 283.41 302.00 C 284.92 302.93 286.42 302.00 287.92 302.00 C 289.43 302.00 290.93 302.00 292.43 302.00 C 293.93 302.00 295.44 303.19 296.94 302.00 C 298.44 300.81 299.94 294.86 301.45 294.86 C 302.95 294.86 304.45 300.81 305.96 302.00 C 307.46 303.19 308.96 303.45 310.46 302.00 C 311.97 300.55 313.47 293.93 314.97 293.27 C 316.48 292.61 317.98 296.58 319.48 298.03 C 320.98 299.49 322.49 301.34 323.99 302.00 C 325.49 302.66 326.99 302.40 328.50 302.00 C 330.00 301.60 331.50 299.88 333.01 299.62 C 334.51 299.36 336.01 300.81 337.51 300.41 C 339.02 300.02 340.52 300.81 342.02 297.24 C 343.52 293.67 345.03 279.26 346.53 278.99 C 348.03 278.73 349.54 291.82 351.04 295.65 C 352.54 299.49 354.04 302.40 355.55 302.00 C 357.05 301.60 358.55 297.11 360.06 293.27 C 361.56 289.44 363.06 279.39 364.56 278.99 C 366.07 278.60 367.57 287.19 369.07 290.89 C 370.57 294.60 372.08 303.72 373.58 301.21 C 375.08 298.69 376.59 280.98 378.09 275.82 C 379.59 270.66 381.09 269.74 382.60 270.27 C 384.10 270.80 385.60 274.63 387.10 278.99 C 388.61 283.36 390.11 292.61 391.61 296.45 C 393.12 300.28 394.62 301.47 396.12 302.00 C 397.62 302.53 399.13 299.62 400.63 299.62 C 402.13 299.62 403.64 301.60 405.14 302.00 C 406.64 302.40 408.14 302.00 409.65 302.00 C 411.15 302.00 412.65 304.64 414.15 302.00 C 415.66 299.36 417.16 288.65 418.66 286.13 C 420.17 283.62 421.67 285.21 423.17 286.93 C 424.67 288.65 426.18 294.46 427.68 296.45 C 429.18 298.43 430.69 298.30 432.19 298.83 C 433.69 299.36 435.19 299.09 436.70 299.62 C 438.20 300.15 439.70 302.40 441.20 302.00 C 442.71 301.60 444.21 297.64 445.71 297.24 C 447.22 296.84 448.72 301.21 450.22 299.62 C 451.72 298.03 453.23 288.12 454.73 287.72 C 456.23 287.32 457.73 295.92 459.24 297.24 C 460.74 298.56 462.24 296.58 463.75 295.65 C 465.25 294.73 466.75 299.75 468.25 291.69 C 469.76 283.62 471.26 251.49 472.76 247.26 C 474.27 243.03 475.77 294.46 477.27 266.30 C 478.77 238.14 480.28 100.49 481.78 78.28 C 483.28 56.07 484.78 108.29 486.29 133.02 C 487.79 157.75 489.29 207.06 490.80 226.63 C 492.30 246.20 493.80 249.11 495.30 250.43 C 496.81 251.76 498.31 230.47 499.81 234.57 C 501.31 238.67 502.82 263.79 504.32 275.03 C 505.82 286.27 507.33 298.30 508.83 302.00 C 510.33 305.70 511.83 297.77 513.34 297.24 C 514.84 296.71 516.34 301.87 517.85 298.83 C 519.35 295.79 520.85 278.99 522.35 278.99 C 523.86 278.99 525.36 300.28 526.86 298.83 C 528.36 297.37 529.87 275.82 531.37 270.27 C 532.87 264.71 534.38 260.22 535.88 265.51 C 537.38 270.80 538.88 297.24 540.39 302.00 C 541.89 306.76 543.39 294.07 544.90 294.07 C 546.40 294.07 547.90 302.53 549.40 302.00 C 550.91 301.47 552.41 292.22 553.91 290.89 C 555.41 289.57 556.92 303.59 558.42 294.07 C 559.92 284.55 561.43 238.40 562.93 233.77 C 564.43 229.15 565.93 267.62 567.44 266.30 C 568.94 264.98 570.44 228.75 571.94 225.84 C 573.45 222.93 574.95 249.24 576.45 248.85 C 577.96 248.45 579.46 222.80 580.96 223.46 C 582.46 224.12 583.97 249.11 585.47 252.81 C 586.97 256.52 588.48 238.00 589.98 245.67 C 591.48 253.34 592.98 292.22 594.49 298.83 C 595.99 305.44 597.49 289.70 598.99 285.34 C 600.50 280.98 602.00 287.72 603.50 272.65 C 605.01 257.57 606.51 195.30 608.01 194.90 C 609.51 194.50 611.02 253.08 612.52 270.27 C 614.02 287.46 615.52 293.80 617.03 298.03 C 618.53 302.26 620.03 296.18 621.54 295.65 C 623.04 295.12 624.54 297.50 626.04 294.86 C 627.55 292.22 629.05 281.24 630.55 279.79 C 632.06 278.33 633.56 282.96 635.06 286.13 C 636.56 289.31 638.07 297.50 639.57 298.83 C 641.07 300.15 642.57 294.86 644.08 294.07 C 645.58 293.27 647.08 293.01 648.59 294.07 C 650.09 295.12 651.59 299.88 653.09 300.41 C 654.60 300.94 656.10 297.24 657.60 297.24 C 659.10 297.24 660.61 299.88 662.11 300.41 C 663.61 300.94 665.12 309.54 666.62 300.41 C 668.12 291.29 669.62 248.19 671.13 245.67 C 672.63 243.16 674.13 282.83 675.64 285.34 C 677.14 287.85 678.64 260.09 680.14 260.75 C 681.65 261.41 683.15 285.21 684.65 289.31 C 686.15 293.41 687.66 283.62 689.16 285.34 C 690.66 287.06 692.17 297.11 693.67 299.62 C 695.17 302.13 696.67 300.28 698.18 300.41 C 699.68 300.55 701.18 300.41 702.69 300.41 C 704.19 300.41 705.69 300.81 707.19 300.41 C 708.70 300.02 710.20 305.57 711.70 298.03 C 713.20 290.50 714.71 255.99 716.21 255.19 C 717.71 254.40 719.22 289.57 720.72 293.27 C 722.22 296.98 723.72 277.67 725.23 277.41 C 726.73 277.14 728.23 291.55 729.73 291.69 C 731.24 291.82 732.74 279.13 734.24 278.20 C 735.75 277.27 737.25 282.70 738.75 286.13 C 740.25 289.57 741.76 296.45 743.26 298.83 C 744.76 301.21 746.27 300.15 747.77 300.41 C 749.27 300.68 750.77 300.41 752.28 300.41 C 753.78 300.41 755.28 300.55 756.78 300.41 C 758.29 300.28 759.79 302.93 761.29 299.62 C 762.80 296.31 764.30 280.71 765.80 280.58 C 767.30 280.45 768.81 299.49 770.31 298.83 C 771.81 298.17 773.31 276.35 774.82 276.61 C 776.32 276.88 777.82 298.03 779.33 300.41 C 780.83 302.79 782.33 302.66 783.83 290.89 C 785.34 279.13 786.84 237.08 788.34 229.81 C 789.85 222.53 791.35 241.44 792.85 247.26 C 794.35 253.08 795.86 260.09 797.36 264.71 C 798.86 269.34 800.36 269.34 801.87 275.03 C 803.37 280.71 804.87 299.49 806.38 298.83 C 807.88 298.17 809.38 274.37 810.88 271.06 C 812.39 267.75 813.89 277.80 815.39 278.99 C 816.90 280.18 818.40 276.35 819.90 278.20 C 821.40 280.05 822.91 287.72 824.41 290.10 C 825.91 292.48 827.41 291.03 828.92 292.48 C 830.42 293.93 831.92 300.28 833.43 298.83 C 834.93 297.37 836.43 284.55 837.93 283.75 C 839.44 282.96 840.94 293.93 842.44 294.07 C 843.94 294.20 845.45 284.28 846.95 284.55 C 848.45 284.81 849.96 293.01 851.46 295.65 C 852.96 298.30 854.46 304.12 855.97 300.41 C 857.47 296.71 858.97 279.52 860.48 273.44 C 861.98 267.36 863.48 261.01 864.98 263.92 C 866.49 266.83 867.99 284.68 869.49 290.89 C 870.99 297.11 873.25 299.49 874.00 301.21" fill="none" stroke="#22C55E" stroke-width="2.4" stroke-linecap="round" stroke-linejoin="round"/>
<circle cx="481.8" cy="78.3" r="4.5" fill="#4ADE80" stroke="#0B1120" stroke-width="2"/>
<text x="481.8" y="68.3" text-anchor="middle" font-family="ui-monospace,Menlo,monospace" font-size="10" font-weight="700" fill="#4ADE80">282</text>
<circle cx="874.0" cy="301.2" r="3.5" fill="#F8FAFC"/>
<text x="16" y="183" text-anchor="middle" font-family="ui-monospace,Menlo,monospace" font-size="10" fill="#94A3B8" transform="rotate(-90 16 183)">Contributions</text>
</svg>