<svg xmlns="http://www.w3.org/2000/svg" width="900" height="340" viewBox="0 0 900 340" role="img" aria-label="Contribution activity, last 6 months">
<defs>
<linearGradient id="bg" x1="0" y1="0" x2="0" y2="1"><stop offset="0" stop-color="#0F172A"/><stop offset="1" stop-color="#0B1120"/></linearGradient>
<linearGradient id="area" x1="0" y1="0" x2="0" y2="1"><stop offset="0" stop-color="#22C55E" stop-opacity="0.42"/><stop offset="0.7" stop-color="#22C55E" stop-opacity="0.08"/><stop offset="1" stop-color="#22C55E" stop-opacity="0"/></linearGradient>
</defs>
<rect x="0" y="0" width="900" height="340" rx="14" fill="url(#bg)"/>
<text x="450" y="32" text-anchor="middle" font-family="ui-monospace,Menlo,monospace" font-size="17" font-weight="700" fill="#F8FAFC" letter-spacing="0.5">last 6 months</text>
<text x="450" y="50" text-anchor="middle" font-family="ui-monospace,Menlo,monospace" font-size="11" fill="#94A3B8">4,121 contributions · peak 282</text>
<line x1="58" y1="302.0" x2="874" y2="302.0" stroke="#1E293B" stroke-width="1" stroke-dasharray="2 4"/>
<text x="48" y="305.5" text-anchor="end" font-family="ui-monospace,Menlo,monospace" font-size="10" fill="#94A3B8">0</text>
<line x1="58" y1="242.5" x2="874" y2="242.5" stroke="#1E293B" stroke-width="1" stroke-dasharray="2 4"/>
<text x="48" y="246.0" text-anchor="end" font-family="ui-monospace,Menlo,monospace" font-size="10" fill="#94A3B8">75</text>
<line x1="58" y1="183.0" x2="874" y2="183.0" stroke="#1E293B" stroke-width="1" stroke-dasharray="2 4"/>
<text x="48" y="186.5" text-anchor="end" font-family="ui-monospace,Menlo,monospace" font-size="10" fill="#94A3B8">150</text>
<line x1="58" y1="123.5" x2="874" y2="123.5" stroke="#1E293B" stroke-width="1" stroke-dasharray="2 4"/>
<text x="48" y="127.0" text-anchor="end" font-family="ui-monospace,Menlo,monospace" font-size="10" fill="#94A3B8">225</text>
<line x1="58" y1="64.0" x2="874" y2="64.0" stroke="#1E293B" stroke-width="1" stroke-dasharray="2 4"/>
<text x="48" y="67.5" text-anchor="end" font-family="ui-monospace,Menlo,monospace" font-size="10" fill="#94A3B8">300</text>
<line x1="143.7" y1="64" x2="143.7" y2="302" stroke="#1E293B" stroke-width="1" stroke-opacity="0.6"/>
<text x="143.7" y="322" text-anchor="middle" font-family="ui-monospace,Menlo,monospace" font-size="10" fill="#94A3B8">Feb</text>
<line x1="269.9" y1="64" x2="269.9" y2="302" stroke="#1E293B" stroke-width="1" stroke-opacity="0.6"/>
<text x="269.9" y="322" text-anchor="middle" font-family="ui-monospace,Menlo,monospace" font-size="10" fill="#94A3B8">Mar</text>
<line x1="409.6" y1="64" x2="409.6" y2="302" stroke="#1E293B" stroke-width="1" stroke-opacity="0.6"/>
<text x="409.6" y="322" text-anchor="middle" font-family="ui-monospace,Menlo,monospace" font-size="10" fill="#94A3B8">Apr</text>
<line x1="544.9" y1="64" x2="544.9" y2="302" stroke="#1E293B" stroke-width="1" stroke-opacity="0.6"/>
<text x="544.9" y="322" text-anchor="middle" font-family="ui-monospace,Menlo,monospace" font-size="10" fill="#94A3B8">May</text>
<line x1="684.7" y1="64" x2="684.7" y2="302" stroke="#1E293B" stroke-width="1" stroke-opacity="0.6"/>
<text x="684.7" y="322" text-anchor="middle" font-family="ui-monospace,Menlo,monospace" font-size="10" fill="#94A3B8">Jun</text>
<line x1="819.9" y1="64" x2="819.9" y2="302" stroke="#1E293B" stroke-width="1" stroke-opacity="0.6"/>
<text x="819.9" y="322" text-anchor="middle" font-family="ui-monospace,Menlo,monospace" font-size="10" fill="#94A3B8">Jul</text>
<path d="M 58.00 302.00 C 58.75 300.81 61.01 295.26 62.51 294.86 C 64.01 294.46 65.51 299.49 67.02 299.62 C 68.52 299.75 70.02 301.07 71.52 295.65 C 73.03 290.23 74.53 271.06 76.03 267.09 C 77.54 263.13 79.04 268.42 80.54 271.85 C 82.04 275.29 83.55 284.55 85.05 287.72 C 86.55 290.89 88.06 288.78 89.56 290.89 C 91.06 293.01 92.56 298.96 94.07 300.41 C 95.57 301.87 97.07 299.49 98.57 299.62 C 100.08 299.75 101.58 300.81 103.08 301.21 C 104.59 301.60 106.09 301.87 107.59 302.00 C 109.09 302.13 110.60 302.00 112.10 302.00 C 113.60 302.00 115.10 305.44 116.61 302.00 C 118.11 298.56 119.61 282.43 121.12 281.37 C 122.62 280.32 124.12 296.98 125.62 295.65 C 127.13 294.33 128.63 273.57 130.13 273.44 C 131.64 273.31 133.14 293.41 134.64 294.86 C 136.14 296.31 137.65 282.17 139.15 282.17 C 140.65 282.17 142.15 296.18 143.66 294.86 C 145.16 293.54 146.66 275.95 148.17 274.23 C 149.67 272.51 151.17 281.64 152.67 284.55 C 154.18 287.46 155.68 288.78 157.18 291.69 C 158.69 294.60 160.19 303.59 161.69 302.00 C 163.19 300.41 164.70 283.22 166.20 282.17 C 167.70 281.11 169.20 292.35 170.71 295.65 C 172.21 298.96 173.71 301.34 175.22 302.00 C 176.72 302.66 178.22 303.98 179.72 299.62 C 181.23 295.26 182.73 303.45 184.23 275.82 C 185.73 248.19 187.24 133.95 188.74 133.81 C 190.24 133.68 191.75 249.51 193.25 275.03 C 194.75 300.55 196.25 282.43 197.76 286.93 C 199.26 291.42 200.76 301.87 202.27 302.00 C 203.77 302.13 205.27 287.98 206.77 287.72 C 208.28 287.46 209.78 300.28 211.28 300.41 C 212.78 300.55 214.29 289.44 215.79 288.51 C 217.29 287.59 218.80 295.65 220.30 294.86 C 221.80 294.07 223.30 285.74 224.81 283.75 C 226.31 281.77 227.81 284.41 229.31 282.96 C 230.82 281.51 232.32 272.91 233.82 275.03 C 235.33 277.14 236.83 291.16 238.33 295.65 C 239.83 300.15 241.34 303.85 242.84 302.00 C 244.34 300.15 245.85 287.59 247.35 284.55 C 248.85 281.51 250.35 282.03 251.86 283.75 C 253.36 285.47 254.86 294.60 256.36 294.86 C 257.87 295.12 259.37 285.60 260.87 285.34 C 262.38 285.08 263.88 292.35 265.38 293.27 C 266.88 294.20 268.39 291.16 269.89 290.89 C 271.39 290.63 272.90 290.50 274.40 291.69 C 275.90 292.88 277.40 296.31 278.91 298.03 C 280.41 299.75 281.91 302.26 283.41 302.00 C 284.92 301.74 286.42 296.45 287.92 296.45 C 289.43 296.45 290.93 301.07 292.43 302.00 C 293.93 302.93 295.44 302.00 296.94 302.00 C 298.44 302.00 299.94 302.00 301.45 302.00 C 302.95 302.00 304.45 303.19 305.96 302.00 C 307.46 300.81 308.96 294.86 310.46 294.86 C 311.97 294.86 313.47 300.81 314.97 302.00 C 316.48 303.19 317.98 303.45 319.48 302.00 C 320.98 300.55 322.49 293.93 323.99 293.27 C 325.49 292.61 326.99 296.58 328.50 298.03 C 330.00 299.49 331.50 301.34 333.01 302.00 C 334.51 302.66 336.01 302.40 337.51 302.00 C 339.02 301.60 340.52 299.88 342.02 299.62 C 343.52 299.36 345.03 300.81 346.53 300.41 C 348.03 300.02 349.54 300.81 351.04 297.24 C 352.54 293.67 354.04 279.26 355.55 278.99 C 357.05 278.73 358.55 291.82 360.06 295.65 C 361.56 299.49 363.06 302.40 364.56 302.00 C 366.07 301.60 367.57 297.11 369.07 293.27 C 370.57 289.44 372.08 279.39 373.58 278.99 C 375.08 278.60 376.59 287.19 378.09 290.89 C 379.59 294.60 381.09 303.72 382.60 301.21 C 384.10 298.69 385.60 280.98 387.10 275.82 C 388.61 270.66 390.11 269.74 391.61 270.27 C 393.12 270.80 394.62 274.63 396.12 278.99 C 397.62 283.36 399.13 292.61 400.63 296.45 C 402.13 300.28 403.64 301.47 405.14 302.00 C 406.64 302.53 408.14 299.62 409.65 299.62 C 411.15 299.62 412.65 301.60 414.15 302.00 C 415.66 302.40 417.16 302.00 418.66 302.00 C 420.17 302.00 421.67 304.64 423.17 302.00 C 424.67 299.36 426.18 288.65 427.68 286.13 C 429.18 283.62 430.69 285.21 432.19 286.93 C 433.69 288.65 435.19 294.46 436.70 296.45 C 438.20 298.43 439.70 298.30 441.20 298.83 C 442.71 299.36 444.21 299.09 445.71 299.62 C 447.22 300.15 448.72 302.40 450.22 302.00 C 451.72 301.60 453.23 297.64 454.73 297.24 C 456.23 296.84 457.73 301.21 459.24 299.62 C 460.74 298.03 462.24 288.12 463.75 287.72 C 465.25 287.32 466.75 295.92 468.25 297.24 C 469.76 298.56 471.26 296.58 472.76 295.65 C 474.27 294.73 475.77 299.75 477.27 291.69 C 478.77 283.62 480.28 251.49 481.78 247.26 C 483.28 243.03 484.78 294.46 486.29 266.30 C 487.79 238.14 489.29 100.49 490.80 78.28 C 492.30 56.07 493.80 108.29 495.30 133.02 C 496.81 157.75 498.31 207.06 499.81 226.63 C 501.31 246.20 502.82 249.11 504.32 250.43 C 505.82 251.76 507.33 230.47 508.83 234.57 C 510.33 238.67 511.83 263.79 513.34 275.03 C 514.84 286.27 516.34 298.30 517.85 302.00 C 519.35 305.70 520.85 297.77 522.35 297.24 C 523.86 296.71 525.36 301.87 526.86 298.83 C 528.36 295.79 529.87 278.99 531.37 278.99 C 532.87 278.99 534.38 300.28 535.88 298.83 C 537.38 297.37 538.88 275.82 540.39 270.27 C 541.89 264.71 543.39 260.22 544.90 265.51 C 546.40 270.80 547.90 297.24 549.40 302.00 C 550.91 306.76 552.41 294.07 553.91 294.07 C 555.41 294.07 556.92 302.53 558.42 302.00 C 559.92 301.47 561.43 292.22 562.93 290.89 C 564.43 289.57 565.93 303.59 567.44 294.07 C 568.94 284.55 570.44 238.40 571.94 233.77 C 573.45 229.15 574.95 267.62 576.45 266.30 C 577.96 264.98 579.46 228.75 580.96 225.84 C 582.46 222.93 583.97 249.24 585.47 248.85 C 586.97 248.45 588.48 222.80 589.98 223.46 C 591.48 224.12 592.98 249.11 594.49 252.81 C 595.99 256.52 597.49 238.00 598.99 245.67 C 600.50 253.34 602.00 292.22 603.50 298.83 C 605.01 305.44 606.51 289.70 608.01 285.34 C 609.51 280.98 611.02 287.72 612.52 272.65 C 614.02 257.57 615.52 195.30 617.03 194.90 C 618.53 194.50 620.03 253.08 621.54 270.27 C 623.04 287.46 624.54 293.80 626.04 298.03 C 627.55 302.26 629.05 296.18 630.55 295.65 C 632.06 295.12 633.56 297.50 635.06 294.86 C 636.56 292.22 638.07 281.24 639.57 279.79 C 641.07 278.33 642.57 282.96 644.08 286.13 C 645.58 289.31 647.08 297.50 648.59 298.83 C 650.09 300.15 651.59 294.86 653.09 294.07 C 654.60 293.27 656.10 293.01 657.60 294.07 C 659.10 295.12 660.61 299.88 662.11 300.41 C 663.61 300.94 665.12 297.24 666.62 297.24 C 668.12 297.24 669.62 299.88 671.13 300.41 C 672.63 300.94 674.13 309.54 675.64 300.41 C 677.14 291.29 678.64 248.19 680.14 245.67 C 681.65 243.16 683.15 282.83 684.65 285.34 C 686.15 287.85 687.66 260.09 689.16 260.75 C 690.66 261.41 692.17 285.21 693.67 289.31 C 695.17 293.41 696.67 283.62 698.18 285.34 C 699.68 287.06 701.18 297.11 702.69 299.62 C 704.19 302.13 705.69 300.28 707.19 300.41 C 708.70 300.55 710.20 300.41 711.70 300.41 C 713.20 300.41 714.71 300.81 716.21 300.41 C 717.71 300.02 719.22 305.57 720.72 298.03 C 722.22 290.50 723.72 255.99 725.23 255.19 C 726.73 254.40 728.23 289.57 729.73 293.27 C 731.24 296.98 732.74 277.67 734.24 277.41 C 735.75 277.14 737.25 291.55 738.75 291.69 C 740.25 291.82 741.76 279.13 743.26 278.20 C 744.76 277.27 746.27 282.70 747.77 286.13 C 749.27 289.57 750.77 296.45 752.28 298.83 C 753.78 301.21 755.28 300.15 756.78 300.41 C 758.29 300.68 759.79 300.41 761.29 300.41 C 762.80 300.41 764.30 300.55 765.80 300.41 C 767.30 300.28 768.81 302.93 770.31 299.62 C 771.81 296.31 773.31 280.71 774.82 280.58 C 776.32 280.45 777.82 299.49 779.33 298.83 C 780.83 298.17 782.33 276.35 783.83 276.61 C 785.34 276.88 786.84 298.03 788.34 300.41 C 789.85 302.79 791.35 302.66 792.85 290.89 C 794.35 279.13 795.86 237.08 797.36 229.81 C 798.86 222.53 800.36 241.44 801.87 247.26 C 803.37 253.08 804.87 260.09 806.38 264.71 C 807.88 269.34 809.38 269.34 810.88 275.03 C 812.39 280.71 813.89 299.49 815.39 298.83 C 816.90 298.17 818.40 274.37 819.90 271.06 C 821.40 267.75 822.91 277.80 824.41 278.99 C 825.91 280.18 827.41 276.35 828.92 278.20 C 830.42 280.05 831.92 287.72 833.43 290.10 C 834.93 292.48 836.43 291.03 837.93 292.48 C 839.44 293.93 840.94 300.28 842.44 298.83 C 843.94 297.37 845.45 284.55 846.95 283.75 C 848.45 282.96 849.96 293.93 851.46 294.07 C 852.96 294.20 854.46 284.28 855.97 284.55 C 857.47 284.81 858.97 293.01 860.48 295.65 C 861.98 298.30 863.48 304.12 864.98 300.41 C 866.49 296.71 867.99 274.63 869.49 273.44 C 870.99 272.25 873.25 289.97 874.00 293.27 L 874.00 302.00 L 58.00 302.00 Z" fill="url(#area)"/>
<path d="M 58.00 302.00 C 58.75 300.81 61.01 295.26 62.51 294.86 C 64.01 294.46 65.51 299.49 67.02 299.62 C 68.52 299.75 70.02 301.07 71.52 295.65 C 73.03 290.23 74.53 271.06 76.03 267.09 C 77.54 263.13 79.04 268.42 80.54 271.85 C 82.04 275.29 83.55 284.55 85.05 287.72 C 86.55 290.89 88.06 288.78 89.56 290.89 C 91.06 293.01 92.56 298.96 94.07 300.41 C 95.57 301.87 97.07 299.49 98.57 299.62 C 100.08 299.75 101.58 300.81 103.08 301.21 C 104.59 301.60 106.09 301.87 107.59 302.00 C 109.09 302.13 110.60 302.00 112.10 302.00 C 113.60 302.00 115.10 305.44 116.61 302.00 C 118.11 298.56 119.61 282.43 121.12 281.37 C 122.62 280.32 124.12 296.98 125.62 295.65 C 127.13 294.33 128.63 273.57 130.13 273.44 C 131.64 273.31 133.14 293.41 134.64 294.86 C 136.14 296.31 137.65 282.17 139.15 282.17 C 140.65 282.17 142.15 296.18 143.66 294.86 C 145.16 293.54 146.66 275.95 148.17 274.23 C 149.67 272.51 151.17 281.64 152.67 284.55 C 154.18 287.46 155.68 288.78 157.18 291.69 C 158.69 294.60 160.19 303.59 161.69 302.00 C 163.19 300.41 164.70 283.22 166.20 282.17 C 167.70 281.11 169.20 292.35 170.71 295.65 C 172.21 298.96 173.71 301.34 175.22 302.00 C 176.72 302.66 178.22 303.98 179.72 299.62 C 181.23 295.26 182.73 303.45 184.23 275.82 C 185.73 248.19 187.24 133.95 188.74 133.81 C 190.24 133.68 191.75 249.51 193.25 275.03 C 194.75 300.55 196.25 282.43 197.76 286.93 C 199.26 291.42 200.76 301.87 202.27 302.00 C 203.77 302.13 205.27 287.98 206.77 287.72 C 208.28 287.46 209.78 300.28 211.28 300.41 C 212.78 300.55 214.29 289.44 215.79 288.51 C 217.29 287.59 218.80 295.65 220.30 294.86 C 221.80 294.07 223.30 285.74 224.81 283.75 C 226.31 281.77 227.81 284.41 229.31 282.96 C 230.82 281.51 232.32 272.91 233.82 275.03 C 235.33 277.14 236.83 291.16 238.33 295.65 C 239.83 300.15 241.34 303.85 242.84 302.00 C 244.34 300.15 245.85 287.59 247.35 284.55 C 248.85 281.51 250.35 282.03 251.86 283.75 C 253.36 285.47 254.86 294.60 256.36 294.86 C 257.87 295.12 259.37 285.60 260.87 285.34 C 262.38 285.08 263.88 292.35 265.38 293.27 C 266.88 294.20 268.39 291.16 269.89 290.89 C 271.39 290.63 272.90 290.50 274.40 291.69 C 275.90 292.88 277.40 296.31 278.91 298.03 C 280.41 299.75 281.91 302.26 283.41 302.00 C 284.92 301.74 286.42 296.45 287.92 296.45 C 289.43 296.45 290.93 301.07 292.43 302.00 C 293.93 302.93 295.44 302.00 296.94 302.00 C 298.44 302.00 299.94 302.00 301.45 302.00 C 302.95 302.00 304.45 303.19 305.96 302.00 C 307.46 300.81 308.96 294.86 310.46 294.86 C 311.97 294.86 313.47 300.81 314.97 302.00 C 316.48 303.19 317.98 303.45 319.48 302.00 C 320.98 300.55 322.49 293.93 323.99 293.27 C 325.49 292.61 326.99 296.58 328.50 298.03 C 330.00 299.49 331.50 301.34 333.01 302.00 C 334.51 302.66 336.01 302.40 337.51 302.00 C 339.02 301.60 340.52 299.88 342.02 299.62 C 343.52 299.36 345.03 300.81 346.53 300.41 C 348.03 300.02 349.54 300.81 351.04 297.24 C 352.54 293.67 354.04 279.26 355.55 278.99 C 357.05 278.73 358.55 291.82 360.06 295.65 C 361.56 299.49 363.06 302.40 364.56 302.00 C 366.07 301.60 367.57 297.11 369.07 293.27 C 370.57 289.44 372.08 279.39 373.58 278.99 C 375.08 278.60 376.59 287.19 378.09 290.89 C 379.59 294.60 381.09 303.72 382.60 301.21 C 384.10 298.69 385.60 280.98 387.10 275.82 C 388.61 270.66 390.11 269.74 391.61 270.27 C 393.12 270.80 394.62 274.63 396.12 278.99 C 397.62 283.36 399.13 292.61 400.63 296.45 C 402.13 300.28 403.64 301.47 405.14 302.00 C 406.64 302.53 408.14 299.62 409.65 299.62 C 411.15 299.62 412.65 301.60 414.15 302.00 C 415.66 302.40 417.16 302.00 418.66 302.00 C 420.17 302.00 421.67 304.64 423.17 302.00 C 424.67 299.36 426.18 288.65 427.68 286.13 C 429.18 283.62 430.69 285.21 432.19 286.93 C 433.69 288.65 435.19 294.46 436.70 296.45 C 438.20 298.43 439.70 298.30 441.20 298.83 C 442.71 299.36 444.21 299.09 445.71 299.62 C 447.22 300.15 448.72 302.40 450.22 302.00 C 451.72 301.60 453.23 297.64 454.73 297.24 C 456.23 296.84 457.73 301.21 459.24 299.62 C 460.74 298.03 462.24 288.12 463.75 287.72 C 465.25 287.32 466.75 295.92 468.25 297.24 C 469.76 298.56 471.26 296.58 472.76 295.65 C 474.27 294.73 475.77 299.75 477.27 291.69 C 478.77 283.62 480.28 251.49 481.78 247.26 C 483.28 243.03 484.78 294.46 486.29 266.30 C 487.79 238.14 489.29 100.49 490.80 78.28 C 492.30 56.07 493.80 108.29 495.30 133.02 C 496.81 157.75 498.31 207.06 499.81 226.63 C 501.31 246.20 502.82 249.11 504.32 250.43 C 505.82 251.76 507.33 230.47 508.83 234.57 C 510.33 238.67 511.83 263.79 513.34 275.03 C 514.84 286.27 516.34 298.30 517.85 302.00 C 519.35 305.70 520.85 297.77 522.35 297.24 C 523.86 296.71 525.36 301.87 526.86 298.83 C 528.36 295.79 529.87 278.99 531.37 278.99 C 532.87 278.99 534.38 300.28 535.88 298.83 C 537.38 297.37 538.88 275.82 540.39 270.27 C 541.89 264.71 543.39 260.22 544.90 265.51 C 546.40 270.80 547.90 297.24 549.40 302.00 C 550.91 306.76 552.41 294.07 553.91 294.07 C 555.41 294.07 556.92 302.53 558.42 302.00 C 559.92 301.47 561.43 292.22 562.93 290.89 C 564.43 289.57 565.93 303.59 567.44 294.07 C 568.94 284.55 570.44 238.40 571.94 233.77 C 573.45 229.15 574.95 267.62 576.45 266.30 C 577.96 264.98 579.46 228.75 580.96 225.84 C 582.46 222.93 583.97 249.24 585.47 248.85 C 586.97 248.45 588.48 222.80 589.98 223.46 C 591.48 224.12 592.98 249.11 594.49 252.81 C 595.99 256.52 597.49 238.00 598.99 245.67 C 600.50 253.34 602.00 292.22 603.50 298.83 C 605.01 305.44 606.51 289.70 608.01 285.34 C 609.51 280.98 611.02 287.72 612.52 272.65 C 614.02 257.57 615.52 195.30 617.03 194.90 C 618.53 194.50 620.03 253.08 621.54 270.27 C 623.04 287.46 624.54 293.80 626.04 298.03 C 627.55 302.26 629.05 296.18 630.55 295.65 C 632.06 295.12 633.56 297.50 635.06 294.86 C 636.56 292.22 638.07 281.24 639.57 279.79 C 641.07 278.33 642.57 282.96 644.08 286.13 C 645.58 289.31 647.08 297.50 648.59 298.83 C 650.09 300.15 651.59 294.86 653.09 294.07 C 654.60 293.27 656.10 293.01 657.60 294.07 C 659.10 295.12 660.61 299.88 662.11 300.41 C 663.61 300.94 665.12 297.24 666.62 297.24 C 668.12 297.24 669.62 299.88 671.13 300.41 C 672.63 300.94 674.13 309.54 675.64 300.41 C 677.14 291.29 678.64 248.19 680.14 245.67 C 681.65 243.16 683.15 282.83 684.65 285.34 C 686.15 287.85 687.66 260.09 689.16 260.75 C 690.66 261.41 692.17 285.21 693.67 289.31 C 695.17 293.41 696.67 283.62 698.18 285.34 C 699.68 287.06 701.18 297.11 702.69 299.62 C 704.19 302.13 705.69 300.28 707.19 300.41 C 708.70 300.55 710.20 300.41 711.70 300.41 C 713.20 300.41 714.71 300.81 716.21 300.41 C 717.71 300.02 719.22 305.57 720.72 298.03 C 722.22 290.50 723.72 255.99 725.23 255.19 C 726.73 254.40 728.23 289.57 729.73 293.27 C 731.24 296.98 732.74 277.67 734.24 277.41 C 735.75 277.14 737.25 291.55 738.75 291.69 C 740.25 291.82 741.76 279.13 743.26 278.20 C 744.76 277.27 746.27 282.70 747.77 286.13 C 749.27 289.57 750.77 296.45 752.28 298.83 C 753.78 301.21 755.28 300.15 756.78 300.41 C 758.29 300.68 759.79 300.41 761.29 300.41 C 762.80 300.41 764.30 300.55 765.80 300.41 C 767.30 300.28 768.81 302.93 770.31 299.62 C 771.81 296.31 773.31 280.71 774.82 280.58 C 776.32 280.45 777.82 299.49 779.33 298.83 C 780.83 298.17 782.33 276.35 783.83 276.61 C 785.34 276.88 786.84 298.03 788.34 300.41 C 789.85 302.79 791.35 302.66 792.85 290.89 C 794.35 279.13 795.86 237.08 797.36 229.81 C 798.86 222.53 800.36 241.44 801.87 247.26 C 803.37 253.08 804.87 260.09 806.38 264.71 C 807.88 269.34 809.38 269.34 810.88 275.03 C 812.39 280.71 813.89 299.49 815.39 298.83 C 816.90 298.17 818.40 274.37 819.90 271.06 C 821.40 267.75 822.91 277.80 824.41 278.99 C 825.91 280.18 827.41 276.35 828.92 278.20 C 830.42 280.05 831.92 287.72 833.43 290.10 C 834.93 292.48 836.43 291.03 837.93 292.48 C 839.44 293.93 840.94 300.28 842.44 298.83 C 843.94 297.37 845.45 284.55 846.95 283.75 C 848.45 282.96 849.96 293.93 851.46 294.07 C 852.96 294.20 854.46 284.28 855.97 284.55 C 857.47 284.81 858.97 293.01 860.48 295.65 C 861.98 298.30 863.48 304.12 864.98 300.41 C 866.49 296.71 867.99 274.63 869.49 273.44 C 870.99 272.25 873.25 289.97 874.00 293.27" fill="none" stroke="#22C55E" stroke-opacity="0.20" stroke-width="7" stroke-linecap="round" stroke-linejoin="round"/>
<path d="M 58.00 302.00 C 58.75 300.81 61.01 295.26 62.51 294.86 C 64.01 294.46 65.51 299.49 67.02 299.62 C 68.52 299.75 70.02 301.07 71.52 295.65 C 73.03 290.23 74.53 271.06 76.03 267.09 C 77.54 263.13 79.04 268.42 80.54 271.85 C 82.04 275.29 83.55 284.55 85.05 287.72 C 86.55 290.89 88.06 288.78 89.56 290.89 C 91.06 293.01 92.56 298.96 94.07 300.41 C 95.57 301.87 97.07 299.49 98.57 299.62 C 100.08 299.75 101.58 300.81 103.08 301.21 C 104.59 301.60 106.09 301.87 107.59 302.00 C 109.09 302.13 110.60 302.00 112.10 302.00 C 113.60 302.00 115.10 305.44 116.61 302.00 C 118.11 298.56 119.61 282.43 121.12 281.37 C 122.62 280.32 124.12 296.98 125.62 295.65 C 127.13 294.33 128.63 273.57 130.13 273.44 C 131.64 273.31 133.14 293.41 134.64 294.86 C 136.14 296.31 137.65 282.17 139.15 282.17 C 140.65 282.17 142.15 296.18 143.66 294.86 C 145.16 293.54 146.66 275.95 148.17 274.23 C 149.67 272.51 151.17 281.64 152.67 284.55 C 154.18 287.46 155.68 288.78 157.18 291.69 C 158.69 294.60 160.19 303.59 161.69 302.00 C 163.19 300.41 164.70 283.22 166.20 282.17 C 167.70 281.11 169.20 292.35 170.71 295.65 C 172.21 298.96 173.71 301.34 175.22 302.00 C 176.72 302.66 178.22 303.98 179.72 299.62 C 181.23 295.26 182.73 303.45 184.23 275.82 C 185.73 248.19 187.24 133.95 188.74 133.81 C 190.24 133.68 191.75 249.51 193.25 275.03 C 194.75 300.55 196.25 282.43 197.76 286.93 C 199.26 291.42 200.76 301.87 202.27 302.00 C 203.77 302.13 205.27 287.98 206.77 287.72 C 208.28 287.46 209.78 300.28 211.28 300.41 C 212.78 300.55 214.29 289.44 215.79 288.51 C 217.29 287.59 218.80 295.65 220.30 294.86 C 221.80 294.07 223.30 285.74 224.81 283.75 C 226.31 281.77 227.81 284.41 229.31 282.96 C 230.82 281.51 232.32 272.91 233.82 275.03 C 235.33 277.14 236.83 291.16 238.33 295.65 C 239.83 300.15 241.34 303.85 242.84 302.00 C 244.34 300.15 245.85 287.59 247.35 284.55 C 248.85 281.51 250.35 282.03 251.86 283.75 C 253.36 285.47 254.86 294.60 256.36 294.86 C 257.87 295.12 259.37 285.60 260.87 285.34 C 262.38 285.08 263.88 292.35 265.38 293.27 C 266.88 294.20 268.39 291.16 269.89 290.89 C 271.39 290.63 272.90 290.50 274.40 291.69 C 275.90 292.88 277.40 296.31 278.91 298.03 C 280.41 299.75 281.91 302.26 283.41 302.00 C 284.92 301.74 286.42 296.45 287.92 296.45 C 289.43 296.45 290.93 301.07 292.43 302.00 C 293.93 302.93 295.44 302.00 296.94 302.00 C 298.44 302.00 299.94 302.00 301.45 302.00 C 302.95 302.00 304.45 303.19 305.96 302.00 C 307.46 300.81 308.96 294.86 310.46 294.86 C 311.97 294.86 313.47 300.81 314.97 302.00 C 316.48 303.19 317.98 303.45 319.48 302.00 C 320.98 300.55 322.49 293.93 323.99 293.27 C 325.49 292.61 326.99 296.58 328.50 298.03 C 330.00 299.49 331.50 301.34 333.01 302.00 C 334.51 302.66 336.01 302.40 337.51 302.00 C 339.02 301.60 340.52 299.88 342.02 299.62 C 343.52 299.36 345.03 300.81 346.53 300.41 C 348.03 300.02 349.54 300.81 351.04 297.24 C 352.54 293.67 354.04 279.26 355.55 278.99 C 357.05 278.73 358.55 291.82 360.06 295.65 C 361.56 299.49 363.06 302.40 364.56 302.00 C 366.07 301.60 367.57 297.11 369.07 293.27 C 370.57 289.44 372.08 279.39 373.58 278.99 C 375.08 278.60 376.59 287.19 378.09 290.89 C 379.59 294.60 381.09 303.72 382.60 301.21 C 384.10 298.69 385.60 280.98 387.10 275.82 C 388.61 270.66 390.11 269.74 391.61 270.27 C 393.12 270.80 394.62 274.63 396.12 278.99 C 397.62 283.36 399.13 292.61 400.63 296.45 C 402.13 300.28 403.64 301.47 405.14 302.00 C 406.64 302.53 408.14 299.62 409.65 299.62 C 411.15 299.62 412.65 301.60 414.15 302.00 C 415.66 302.40 417.16 302.00 418.66 302.00 C 420.17 302.00 421.67 304.64 423.17 302.00 C 424.67 299.36 426.18 288.65 427.68 286.13 C 429.18 283.62 430.69 285.21 432.19 286.93 C 433.69 288.65 435.19 294.46 436.70 296.45 C 438.20 298.43 439.70 298.30 441.20 298.83 C 442.71 299.36 444.21 299.09 445.71 299.62 C 447.22 300.15 448.72 302.40 450.22 302.00 C 451.72 301.60 453.23 297.64 454.73 297.24 C 456.23 296.84 457.73 301.21 459.24 299.62 C 460.74 298.03 462.24 288.12 463.75 287.72 C 465.25 287.32 466.75 295.92 468.25 297.24 C 469.76 298.56 471.26 296.58 472.76 295.65 C 474.27 294.73 475.77 299.75 477.27 291.69 C 478.77 283.62 480.28 251.49 481.78 247.26 C 483.28 243.03 484.78 294.46 486.29 266.30 C 487.79 238.14 489.29 100.49 490.80 78.28 C 492.30 56.07 493.80 108.29 495.30 133.02 C 496.81 157.75 498.31 207.06 499.81 226.63 C 501.31 246.20 502.82 249.11 504.32 250.43 C 505.82 251.76 507.33 230.47 508.83 234.57 C 510.33 238.67 511.83 263.79 513.34 275.03 C 514.84 286.27 516.34 298.30 517.85 302.00 C 519.35 305.70 520.85 297.77 522.35 297.24 C 523.86 296.71 525.36 301.87 526.86 298.83 C 528.36 295.79 529.87 278.99 531.37 278.99 C 532.87 278.99 534.38 300.28 535.88 298.83 C 537.38 297.37 538.88 275.82 540.39 270.27 C 541.89 264.71 543.39 260.22 544.90 265.51 C 546.40 270.80 547.90 297.24 549.40 302.00 C 550.91 306.76 552.41 294.07 553.91 294.07 C 555.41 294.07 556.92 302.53 558.42 302.00 C 559.92 301.47 561.43 292.22 562.93 290.89 C 564.43 289.57 565.93 303.59 567.44 294.07 C 568.94 284.55 570.44 238.40 571.94 233.77 C 573.45 229.15 574.95 267.62 576.45 266.30 C 577.96 264.98 579.46 228.75 580.96 225.84 C 582.46 222.93 583.97 249.24 585.47 248.85 C 586.97 248.45 588.48 222.80 589.98 223.46 C 591.48 224.12 592.98 249.11 594.49 252.81 C 595.99 256.52 597.49 238.00 598.99 245.67 C 600.50 253.34 602.00 292.22 603.50 298.83 C 605.01 305.44 606.51 289.70 608.01 285.34 C 609.51 280.98 611.02 287.72 612.52 272.65 C 614.02 257.57 615.52 195.30 617.03 194.90 C 618.53 194.50 620.03 253.08 621.54 270.27 C 623.04 287.46 624.54 293.80 626.04 298.03 C 627.55 302.26 629.05 296.18 630.55 295.65 C 632.06 295.12 633.56 297.50 635.06 294.86 C 636.56 292.22 638.07 281.24 639.57 279.79 C 641.07 278.33 642.57 282.96 644.08 286.13 C 645.58 289.31 647.08 297.50 648.59 298.83 C 650.09 300.15 651.59 294.86 653.09 294.07 C 654.60 293.27 656.10 293.01 657.60 294.07 C 659.10 295.12 660.61 299.88 662.11 300.41 C 663.61 300.94 665.12 297.24 666.62 297.24 C 668.12 297.24 669.62 299.88 671.13 300.41 C 672.63 300.94 674.13 309.54 675.64 300.41 C 677.14 291.29 678.64 248.19 680.14 245.67 C 681.65 243.16 683.15 282.83 684.65 285.34 C 686.15 287.85 687.66 260.09 689.16 260.75 C 690.66 261.41 692.17 285.21 693.67 289.31 C 695.17 293.41 696.67 283.62 698.18 285.34 C 699.68 287.06 701.18 297.11 702.69 299.62 C 704.19 302.13 705.69 300.28 707.19 300.41 C 708.70 300.55 710.20 300.41 711.70 300.41 C 713.20 300.41 714.71 300.81 716.21 300.41 C 717.71 300.02 719.22 305.57 720.72 298.03 C 722.22 290.50 723.72 255.99 725.23 255.19 C 726.73 254.40 728.23 289.57 729.73 293.27 C 731.24 296.98 732.74 277.67 734.24 277.41 C 735.75 277.14 737.25 291.55 738.75 291.69 C 740.25 291.82 741.76 279.13 743.26 278.20 C 744.76 277.27 746.27 282.70 747.77 286.13 C 749.27 289.57 750.77 296.45 752.28 298.83 C 753.78 301.21 755.28 300.15 756.78 300.41 C 758.29 300.68 759.79 300.41 761.29 300.41 C 762.80 300.41 764.30 300.55 765.80 300.41 C 767.30 300.28 768.81 302.93 770.31 299.62 C 771.81 296.31 773.31 280.71 774.82 280.58 C 776.32 280.45 777.82 299.49 779.33 298.83 C 780.83 298.17 782.33 276.35 783.83 276.61 C 785.34 276.88 786.84 298.03 788.34 300.41 C 789.85 302.79 791.35 302.66 792.85 290.89 C 794.35 279.13 795.86 237.08 797.36 229.81 C 798.86 222.53 800.36 241.44 801.87 247.26 C 803.37 253.08 804.87 260.09 806.38 264.71 C 807.88 269.34 809.38 269.34 810.88 275.03 C 812.39 280.71 813.89 299.49 815.39 298.83 C 816.90 298.17 818.40 274.37 819.90 271.06 C 821.40 267.75 822.91 277.80 824.41 278.99 C 825.91 280.18 827.41 276.35 828.92 278.20 C 830.42 280.05 831.92 287.72 833.43 290.10 C 834.93 292.48 836.43 291.03 837.93 292.48 C 839.44 293.93 840.94 300.28 842.44 298.83 C 843.94 297.37 845.45 284.55 846.95 283.75 C 848.45 282.96 849.96 293.93 851.46 294.07 C 852.96 294.20 854.46 284.28 855.97 284.55 C 857.47 284.81 858.97 293.01 860.48 295.65 C 861.98 298.30 863.48 304.12 864.98 300.41 C 866.49 296.71 867.99 274.63 869.49 273.44 C 870.99 272.25 873.25 289.97 874.00 293.27" fill="none" stroke="#22C55E" stroke-width="2.4" stroke-linecap="round" stroke-linejoin="round"/>
<circle cx="490.8" cy="78.3" r="4.5" fill="#4ADE80" stroke="#0B1120" stroke-width="2"/>
<text x="490.8" y="68.3" text-anchor="middle" font-family="ui-monospace,Menlo,monospace" font-size="10" font-weight="700" fill="#4ADE80">282</text>
<circle cx="874.0" cy="293.3" r="3.5" fill="#F8FAFC"/>
<text x="16" y="183" text-anchor="middle" font-family="ui-monospace,Menlo,monospace" font-size="10" fill="#94A3B8" transform="rotate(-90 16 183)">Contributions</text>
</svg>