<svg xmlns="http://www.w3.org/2000/svg" width="900" height="340" viewBox="0 0 900 340" role="img" aria-label="Contribution activity, last 6 months">
<defs>
<linearGradient id="bg" x1="0" y1="0" x2="0" y2="1"><stop offset="0" stop-color="#0F172A"/><stop offset="1" stop-color="#0B1120"/></linearGradient>
<linearGradient id="area" x1="0" y1="0" x2="0" y2="1"><stop offset="0" stop-color="#22C55E" stop-opacity="0.42"/><stop offset="0.7" stop-color="#22C55E" stop-opacity="0.08"/><stop offset="1" stop-color="#22C55E" stop-opacity="0"/></linearGradient>
</defs>
<rect x="0" y="0" width="900" height="340" rx="14" fill="url(#bg)"/>
<text x="450" y="32" text-anchor="middle" font-family="ui-monospace,Menlo,monospace" font-size="17" font-weight="700" fill="#F8FAFC" letter-spacing="0.5">last 6 months</text>
<text x="450" y="50" text-anchor="middle" font-family="ui-monospace,Menlo,monospace" font-size="11" fill="#94A3B8">4,057 contributions · peak 282</text>
<line x1="58" y1="302.0" x2="874" y2="302.0" stroke="#1E293B" stroke-width="1" stroke-dasharray="2 4"/>
<text x="48" y="305.5" text-anchor="end" font-family="ui-monospace,Menlo,monospace" font-size="10" fill="#94A3B8">0</text>
<line x1="58" y1="242.5" x2="874" y2="242.5" stroke="#1E293B" stroke-width="1" stroke-dasharray="2 4"/>
<text x="48" y="246.0" text-anchor="end" font-family="ui-monospace,Menlo,monospace" font-size="10" fill="#94A3B8">75</text>
<line x1="58" y1="183.0" x2="874" y2="183.0" stroke="#1E293B" stroke-width="1" stroke-dasharray="2 4"/>
<text x="48" y="186.5" text-anchor="end" font-family="ui-monospace,Menlo,monospace" font-size="10" fill="#94A3B8">150</text>
<line x1="58" y1="123.5" x2="874" y2="123.5" stroke="#1E293B" stroke-width="1" stroke-dasharray="2 4"/>
<text x="48" y="127.0" text-anchor="end" font-family="ui-monospace,Menlo,monospace" font-size="10" fill="#94A3B8">225</text>
<line x1="58" y1="64.0" x2="874" y2="64.0" stroke="#1E293B" stroke-width="1" stroke-dasharray="2 4"/>
<text x="48" y="67.5" text-anchor="end" font-family="ui-monospace,Menlo,monospace" font-size="10" fill="#94A3B8">300</text>
<line x1="184.2" y1="64" x2="184.2" y2="302" stroke="#1E293B" stroke-width="1" stroke-opacity="0.6"/>
<text x="184.2" y="322" text-anchor="middle" font-family="ui-monospace,Menlo,monospace" font-size="10" fill="#94A3B8">Feb</text>
<line x1="310.5" y1="64" x2="310.5" y2="302" stroke="#1E293B" stroke-width="1" stroke-opacity="0.6"/>
<text x="310.5" y="322" text-anchor="middle" font-family="ui-monospace,Menlo,monospace" font-size="10" fill="#94A3B8">Mar</text>
<line x1="450.2" y1="64" x2="450.2" y2="302" stroke="#1E293B" stroke-width="1" stroke-opacity="0.6"/>
<text x="450.2" y="322" text-anchor="middle" font-family="ui-monospace,Menlo,monospace" font-size="10" fill="#94A3B8">Apr</text>
<line x1="585.5" y1="64" x2="585.5" y2="302" stroke="#1E293B" stroke-width="1" stroke-opacity="0.6"/>
<text x="585.5" y="322" text-anchor="middle" font-family="ui-monospace,Menlo,monospace" font-size="10" fill="#94A3B8">May</text>
<line x1="725.2" y1="64" x2="725.2" y2="302" stroke="#1E293B" stroke-width="1" stroke-opacity="0.6"/>
<text x="725.2" y="322" text-anchor="middle" font-family="ui-monospace,Menlo,monospace" font-size="10" fill="#94A3B8">Jun</text>
<line x1="860.5" y1="64" x2="860.5" y2="302" stroke="#1E293B" stroke-width="1" stroke-opacity="0.6"/>
<text x="860.5" y="322" text-anchor="middle" font-family="ui-monospace,Menlo,monospace" font-size="10" fill="#94A3B8">Jul</text>
<path d="M 58.00 302.00 C 58.75 302.00 61.01 302.93 62.51 302.00 C 64.01 301.07 65.51 299.49 67.02 296.45 C 68.52 293.41 70.02 287.06 71.52 283.75 C 73.03 280.45 74.53 273.70 76.03 276.61 C 77.54 279.52 79.04 296.98 80.54 301.21 C 82.04 305.44 83.55 301.87 85.05 302.00 C 86.55 302.13 88.06 302.26 89.56 302.00 C 91.06 301.74 92.56 300.41 94.07 300.41 C 95.57 300.41 97.07 302.93 98.57 302.00 C 100.08 301.07 101.58 295.26 103.08 294.86 C 104.59 294.46 106.09 299.49 107.59 299.62 C 109.09 299.75 110.60 301.07 112.10 295.65 C 113.60 290.23 115.10 271.06 116.61 267.09 C 118.11 263.13 119.61 268.42 121.12 271.85 C 122.62 275.29 124.12 284.55 125.62 287.72 C 127.13 290.89 128.63 288.78 130.13 290.89 C 131.64 293.01 133.14 298.96 134.64 300.41 C 136.14 301.87 137.65 299.49 139.15 299.62 C 140.65 299.75 142.15 300.81 143.66 301.21 C 145.16 301.60 146.66 301.87 148.17 302.00 C 149.67 302.13 151.17 302.00 152.67 302.00 C 154.18 302.00 155.68 305.44 157.18 302.00 C 158.69 298.56 160.19 282.43 161.69 281.37 C 163.19 280.32 164.70 296.98 166.20 295.65 C 167.70 294.33 169.20 273.57 170.71 273.44 C 172.21 273.31 173.71 293.41 175.22 294.86 C 176.72 296.31 178.22 282.17 179.72 282.17 C 181.23 282.17 182.73 296.18 184.23 294.86 C 185.73 293.54 187.24 275.95 188.74 274.23 C 190.24 272.51 191.75 281.64 193.25 284.55 C 194.75 287.46 196.25 288.78 197.76 291.69 C 199.26 294.60 200.76 303.59 202.27 302.00 C 203.77 300.41 205.27 283.22 206.77 282.17 C 208.28 281.11 209.78 292.35 211.28 295.65 C 212.78 298.96 214.29 301.34 215.79 302.00 C 217.29 302.66 218.80 303.98 220.30 299.62 C 221.80 295.26 223.30 303.45 224.81 275.82 C 226.31 248.19 227.81 133.95 229.31 133.81 C 230.82 133.68 232.32 249.51 233.82 275.03 C 235.33 300.55 236.83 282.43 238.33 286.93 C 239.83 291.42 241.34 301.87 242.84 302.00 C 244.34 302.13 245.85 287.98 247.35 287.72 C 248.85 287.46 250.35 300.28 251.86 300.41 C 253.36 300.55 254.86 289.44 256.36 288.51 C 257.87 287.59 259.37 295.65 260.87 294.86 C 262.38 294.07 263.88 285.74 265.38 283.75 C 266.88 281.77 268.39 284.41 269.89 282.96 C 271.39 281.51 272.90 272.91 274.40 275.03 C 275.90 277.14 277.40 291.16 278.91 295.65 C 280.41 300.15 281.91 303.85 283.41 302.00 C 284.92 300.15 286.42 287.59 287.92 284.55 C 289.43 281.51 290.93 282.03 292.43 283.75 C 293.93 285.47 295.44 294.60 296.94 294.86 C 298.44 295.12 299.94 285.60 301.45 285.34 C 302.95 285.08 304.45 292.35 305.96 293.27 C 307.46 294.20 308.96 291.16 310.46 290.89 C 311.97 290.63 313.47 290.50 314.97 291.69 C 316.48 292.88 317.98 296.31 319.48 298.03 C 320.98 299.75 322.49 302.26 323.99 302.00 C 325.49 301.74 326.99 296.45 328.50 296.45 C 330.00 296.45 331.50 301.07 333.01 302.00 C 334.51 302.93 336.01 302.00 337.51 302.00 C 339.02 302.00 340.52 302.00 342.02 302.00 C 343.52 302.00 345.03 303.19 346.53 302.00 C 348.03 300.81 349.54 294.86 351.04 294.86 C 352.54 294.86 354.04 300.81 355.55 302.00 C 357.05 303.19 358.55 303.45 360.06 302.00 C 361.56 300.55 363.06 293.93 364.56 293.27 C 366.07 292.61 367.57 296.58 369.07 298.03 C 370.57 299.49 372.08 301.34 373.58 302.00 C 375.08 302.66 376.59 302.40 378.09 302.00 C 379.59 301.60 381.09 299.88 382.60 299.62 C 384.10 299.36 385.60 300.81 387.10 300.41 C 388.61 300.02 390.11 300.81 391.61 297.24 C 393.12 293.67 394.62 279.26 396.12 278.99 C 397.62 278.73 399.13 291.82 400.63 295.65 C 402.13 299.49 403.64 302.40 405.14 302.00 C 406.64 301.60 408.14 297.11 409.65 293.27 C 411.15 289.44 412.65 279.39 414.15 278.99 C 415.66 278.60 417.16 287.19 418.66 290.89 C 420.17 294.60 421.67 303.72 423.17 301.21 C 424.67 298.69 426.18 280.98 427.68 275.82 C 429.18 270.66 430.69 269.74 432.19 270.27 C 433.69 270.80 435.19 274.63 436.70 278.99 C 438.20 283.36 439.70 292.61 441.20 296.45 C 442.71 300.28 444.21 301.47 445.71 302.00 C 447.22 302.53 448.72 299.62 450.22 299.62 C 451.72 299.62 453.23 301.60 454.73 302.00 C 456.23 302.40 457.73 302.00 459.24 302.00 C 460.74 302.00 462.24 304.64 463.75 302.00 C 465.25 299.36 466.75 288.65 468.25 286.13 C 469.76 283.62 471.26 285.21 472.76 286.93 C 474.27 288.65 475.77 294.46 477.27 296.45 C 478.77 298.43 480.28 298.30 481.78 298.83 C 483.28 299.36 484.78 299.09 486.29 299.62 C 487.79 300.15 489.29 302.40 490.80 302.00 C 492.30 301.60 493.80 297.64 495.30 297.24 C 496.81 296.84 498.31 301.21 499.81 299.62 C 501.31 298.03 502.82 288.12 504.32 287.72 C 505.82 287.32 507.33 295.92 508.83 297.24 C 510.33 298.56 511.83 296.58 513.34 295.65 C 514.84 294.73 516.34 299.75 517.85 291.69 C 519.35 283.62 520.85 251.49 522.35 247.26 C 523.86 243.03 525.36 294.46 526.86 266.30 C 528.36 238.14 529.87 100.49 531.37 78.28 C 532.87 56.07 534.38 108.29 535.88 133.02 C 537.38 157.75 538.88 207.06 540.39 226.63 C 541.89 246.20 543.39 249.11 544.90 250.43 C 546.40 251.76 547.90 230.47 549.40 234.57 C 550.91 238.67 552.41 263.79 553.91 275.03 C 555.41 286.27 556.92 298.30 558.42 302.00 C 559.92 305.70 561.43 297.77 562.93 297.24 C 564.43 296.71 565.93 301.87 567.44 298.83 C 568.94 295.79 570.44 278.99 571.94 278.99 C 573.45 278.99 574.95 300.28 576.45 298.83 C 577.96 297.37 579.46 275.82 580.96 270.27 C 582.46 264.71 583.97 260.22 585.47 265.51 C 586.97 270.80 588.48 297.24 589.98 302.00 C 591.48 306.76 592.98 294.07 594.49 294.07 C 595.99 294.07 597.49 302.53 598.99 302.00 C 600.50 301.47 602.00 292.22 603.50 290.89 C 605.01 289.57 606.51 303.59 608.01 294.07 C 609.51 284.55 611.02 238.40 612.52 233.77 C 614.02 229.15 615.52 267.62 617.03 266.30 C 618.53 264.98 620.03 228.75 621.54 225.84 C 623.04 222.93 624.54 249.24 626.04 248.85 C 627.55 248.45 629.05 222.80 630.55 223.46 C 632.06 224.12 633.56 249.11 635.06 252.81 C 636.56 256.52 638.07 238.00 639.57 245.67 C 641.07 253.34 642.57 292.22 644.08 298.83 C 645.58 305.44 647.08 289.70 648.59 285.34 C 650.09 280.98 651.59 287.72 653.09 272.65 C 654.60 257.57 656.10 195.30 657.60 194.90 C 659.10 194.50 660.61 253.08 662.11 270.27 C 663.61 287.46 665.12 293.80 666.62 298.03 C 668.12 302.26 669.62 296.18 671.13 295.65 C 672.63 295.12 674.13 297.50 675.64 294.86 C 677.14 292.22 678.64 281.24 680.14 279.79 C 681.65 278.33 683.15 282.96 684.65 286.13 C 686.15 289.31 687.66 297.50 689.16 298.83 C 690.66 300.15 692.17 294.86 693.67 294.07 C 695.17 293.27 696.67 293.01 698.18 294.07 C 699.68 295.12 701.18 299.88 702.69 300.41 C 704.19 300.94 705.69 297.24 707.19 297.24 C 708.70 297.24 710.20 299.88 711.70 300.41 C 713.20 300.94 714.71 309.54 716.21 300.41 C 717.71 291.29 719.22 248.19 720.72 245.67 C 722.22 243.16 723.72 282.83 725.23 285.34 C 726.73 287.85 728.23 260.09 729.73 260.75 C 731.24 261.41 732.74 285.21 734.24 289.31 C 735.75 293.41 737.25 283.62 738.75 285.34 C 740.25 287.06 741.76 297.11 743.26 299.62 C 744.76 302.13 746.27 300.28 747.77 300.41 C 749.27 300.55 750.77 300.41 752.28 300.41 C 753.78 300.41 755.28 300.81 756.78 300.41 C 758.29 300.02 759.79 305.57 761.29 298.03 C 762.80 290.50 764.30 255.99 765.80 255.19 C 767.30 254.40 768.81 289.57 770.31 293.27 C 771.81 296.98 773.31 277.67 774.82 277.41 C 776.32 277.14 777.82 291.55 779.33 291.69 C 780.83 291.82 782.33 279.13 783.83 278.20 C 785.34 277.27 786.84 282.70 788.34 286.13 C 789.85 289.57 791.35 296.45 792.85 298.83 C 794.35 301.21 795.86 300.15 797.36 300.41 C 798.86 300.68 800.36 300.41 801.87 300.41 C 803.37 300.41 804.87 300.55 806.38 300.41 C 807.88 300.28 809.38 302.93 810.88 299.62 C 812.39 296.31 813.89 280.71 815.39 280.58 C 816.90 280.45 818.40 299.49 819.90 298.83 C 821.40 298.17 822.91 276.35 824.41 276.61 C 825.91 276.88 827.41 298.03 828.92 300.41 C 830.42 302.79 831.92 302.66 833.43 290.89 C 834.93 279.13 836.43 237.08 837.93 229.81 C 839.44 222.53 840.94 241.44 842.44 247.26 C 843.94 253.08 845.45 260.09 846.95 264.71 C 848.45 269.34 849.96 269.34 851.46 275.03 C 852.96 280.71 854.46 299.49 855.97 298.83 C 857.47 298.17 858.97 274.37 860.48 271.06 C 861.98 267.75 863.48 277.80 864.98 278.99 C 866.49 280.18 867.99 276.22 869.49 278.20 C 870.99 280.18 873.25 288.78 874.00 290.89 L 874.00 302.00 L 58.00 302.00 Z" fill="url(#area)"/>
<path d="M 58.00 302.00 C 58.75 302.00 61.01 302.93 62.51 302.00 C 64.01 301.07 65.51 299.49 67.02 296.45 C 68.52 293.41 70.02 287.06 71.52 283.75 C 73.03 280.45 74.53 273.70 76.03 276.61 C 77.54 279.52 79.04 296.98 80.54 301.21 C 82.04 305.44 83.55 301.87 85.05 302.00 C 86.55 302.13 88.06 302.26 89.56 302.00 C 91.06 301.74 92.56 300.41 94.07 300.41 C 95.57 300.41 97.07 302.93 98.57 302.00 C 100.08 301.07 101.58 295.26 103.08 294.86 C 104.59 294.46 106.09 299.49 107.59 299.62 C 109.09 299.75 110.60 301.07 112.10 295.65 C 113.60 290.23 115.10 271.06 116.61 267.09 C 118.11 263.13 119.61 268.42 121.12 271.85 C 122.62 275.29 124.12 284.55 125.62 287.72 C 127.13 290.89 128.63 288.78 130.13 290.89 C 131.64 293.01 133.14 298.96 134.64 300.41 C 136.14 301.87 137.65 299.49 139.15 299.62 C 140.65 299.75 142.15 300.81 143.66 301.21 C 145.16 301.60 146.66 301.87 148.17 302.00 C 149.67 302.13 151.17 302.00 152.67 302.00 C 154.18 302.00 155.68 305.44 157.18 302.00 C 158.69 298.56 160.19 282.43 161.69 281.37 C 163.19 280.32 164.70 296.98 166.20 295.65 C 167.70 294.33 169.20 273.57 170.71 273.44 C 172.21 273.31 173.71 293.41 175.22 294.86 C 176.72 296.31 178.22 282.17 179.72 282.17 C 181.23 282.17 182.73 296.18 184.23 294.86 C 185.73 293.54 187.24 275.95 188.74 274.23 C 190.24 272.51 191.75 281.64 193.25 284.55 C 194.75 287.46 196.25 288.78 197.76 291.69 C 199.26 294.60 200.76 303.59 202.27 302.00 C 203.77 300.41 205.27 283.22 206.77 282.17 C 208.28 281.11 209.78 292.35 211.28 295.65 C 212.78 298.96 214.29 301.34 215.79 302.00 C 217.29 302.66 218.80 303.98 220.30 299.62 C 221.80 295.26 223.30 303.45 224.81 275.82 C 226.31 248.19 227.81 133.95 229.31 133.81 C 230.82 133.68 232.32 249.51 233.82 275.03 C 235.33 300.55 236.83 282.43 238.33 286.93 C 239.83 291.42 241.34 301.87 242.84 302.00 C 244.34 302.13 245.85 287.98 247.35 287.72 C 248.85 287.46 250.35 300.28 251.86 300.41 C 253.36 300.55 254.86 289.44 256.36 288.51 C 257.87 287.59 259.37 295.65 260.87 294.86 C 262.38 294.07 263.88 285.74 265.38 283.75 C 266.88 281.77 268.39 284.41 269.89 282.96 C 271.39 281.51 272.90 272.91 274.40 275.03 C 275.90 277.14 277.40 291.16 278.91 295.65 C 280.41 300.15 281.91 303.85 283.41 302.00 C 284.92 300.15 286.42 287.59 287.92 284.55 C 289.43 281.51 290.93 282.03 292.43 283.75 C 293.93 285.47 295.44 294.60 296.94 294.86 C 298.44 295.12 299.94 285.60 301.45 285.34 C 302.95 285.08 304.45 292.35 305.96 293.27 C 307.46 294.20 308.96 291.16 310.46 290.89 C 311.97 290.63 313.47 290.50 314.97 291.69 C 316.48 292.88 317.98 296.31 319.48 298.03 C 320.98 299.75 322.49 302.26 323.99 302.00 C 325.49 301.74 326.99 296.45 328.50 296.45 C 330.00 296.45 331.50 301.07 333.01 302.00 C 334.51 302.93 336.01 302.00 337.51 302.00 C 339.02 302.00 340.52 302.00 342.02 302.00 C 343.52 302.00 345.03 303.19 346.53 302.00 C 348.03 300.81 349.54 294.86 351.04 294.86 C 352.54 294.86 354.04 300.81 355.55 302.00 C 357.05 303.19 358.55 303.45 360.06 302.00 C 361.56 300.55 363.06 293.93 364.56 293.27 C 366.07 292.61 367.57 296.58 369.07 298.03 C 370.57 299.49 372.08 301.34 373.58 302.00 C 375.08 302.66 376.59 302.40 378.09 302.00 C 379.59 301.60 381.09 299.88 382.60 299.62 C 384.10 299.36 385.60 300.81 387.10 300.41 C 388.61 300.02 390.11 300.81 391.61 297.24 C 393.12 293.67 394.62 279.26 396.12 278.99 C 397.62 278.73 399.13 291.82 400.63 295.65 C 402.13 299.49 403.64 302.40 405.14 302.00 C 406.64 301.60 408.14 297.11 409.65 293.27 C 411.15 289.44 412.65 279.39 414.15 278.99 C 415.66 278.60 417.16 287.19 418.66 290.89 C 420.17 294.60 421.67 303.72 423.17 301.21 C 424.67 298.69 426.18 280.98 427.68 275.82 C 429.18 270.66 430.69 269.74 432.19 270.27 C 433.69 270.80 435.19 274.63 436.70 278.99 C 438.20 283.36 439.70 292.61 441.20 296.45 C 442.71 300.28 444.21 301.47 445.71 302.00 C 447.22 302.53 448.72 299.62 450.22 299.62 C 451.72 299.62 453.23 301.60 454.73 302.00 C 456.23 302.40 457.73 302.00 459.24 302.00 C 460.74 302.00 462.24 304.64 463.75 302.00 C 465.25 299.36 466.75 288.65 468.25 286.13 C 469.76 283.62 471.26 285.21 472.76 286.93 C 474.27 288.65 475.77 294.46 477.27 296.45 C 478.77 298.43 480.28 298.30 481.78 298.83 C 483.28 299.36 484.78 299.09 486.29 299.62 C 487.79 300.15 489.29 302.40 490.80 302.00 C 492.30 301.60 493.80 297.64 495.30 297.24 C 496.81 296.84 498.31 301.21 499.81 299.62 C 501.31 298.03 502.82 288.12 504.32 287.72 C 505.82 287.32 507.33 295.92 508.83 297.24 C 510.33 298.56 511.83 296.58 513.34 295.65 C 514.84 294.73 516.34 299.75 517.85 291.69 C 519.35 283.62 520.85 251.49 522.35 247.26 C 523.86 243.03 525.36 294.46 526.86 266.30 C 528.36 238.14 529.87 100.49 531.37 78.28 C 532.87 56.07 534.38 108.29 535.88 133.02 C 537.38 157.75 538.88 207.06 540.39 226.63 C 541.89 246.20 543.39 249.11 544.90 250.43 C 546.40 251.76 547.90 230.47 549.40 234.57 C 550.91 238.67 552.41 263.79 553.91 275.03 C 555.41 286.27 556.92 298.30 558.42 302.00 C 559.92 305.70 561.43 297.77 562.93 297.24 C 564.43 296.71 565.93 301.87 567.44 298.83 C 568.94 295.79 570.44 278.99 571.94 278.99 C 573.45 278.99 574.95 300.28 576.45 298.83 C 577.96 297.37 579.46 275.82 580.96 270.27 C 582.46 264.71 583.97 260.22 585.47 265.51 C 586.97 270.80 588.48 297.24 589.98 302.00 C 591.48 306.76 592.98 294.07 594.49 294.07 C 595.99 294.07 597.49 302.53 598.99 302.00 C 600.50 301.47 602.00 292.22 603.50 290.89 C 605.01 289.57 606.51 303.59 608.01 294.07 C 609.51 284.55 611.02 238.40 612.52 233.77 C 614.02 229.15 615.52 267.62 617.03 266.30 C 618.53 264.98 620.03 228.75 621.54 225.84 C 623.04 222.93 624.54 249.24 626.04 248.85 C 627.55 248.45 629.05 222.80 630.55 223.46 C 632.06 224.12 633.56 249.11 635.06 252.81 C 636.56 256.52 638.07 238.00 639.57 245.67 C 641.07 253.34 642.57 292.22 644.08 298.83 C 645.58 305.44 647.08 289.70 648.59 285.34 C 650.09 280.98 651.59 287.72 653.09 272.65 C 654.60 257.57 656.10 195.30 657.60 194.90 C 659.10 194.50 660.61 253.08 662.11 270.27 C 663.61 287.46 665.12 293.80 666.62 298.03 C 668.12 302.26 669.62 296.18 671.13 295.65 C 672.63 295.12 674.13 297.50 675.64 294.86 C 677.14 292.22 678.64 281.24 680.14 279.79 C 681.65 278.33 683.15 282.96 684.65 286.13 C 686.15 289.31 687.66 297.50 689.16 298.83 C 690.66 300.15 692.17 294.86 693.67 294.07 C 695.17 293.27 696.67 293.01 698.18 294.07 C 699.68 295.12 701.18 299.88 702.69 300.41 C 704.19 300.94 705.69 297.24 707.19 297.24 C 708.70 297.24 710.20 299.88 711.70 300.41 C 713.20 300.94 714.71 309.54 716.21 300.41 C 717.71 291.29 719.22 248.19 720.72 245.67 C 722.22 243.16 723.72 282.83 725.23 285.34 C 726.73 287.85 728.23 260.09 729.73 260.75 C 731.24 261.41 732.74 285.21 734.24 289.31 C 735.75 293.41 737.25 283.62 738.75 285.34 C 740.25 287.06 741.76 297.11 743.26 299.62 C 744.76 302.13 746.27 300.28 747.77 300.41 C 749.27 300.55 750.77 300.41 752.28 300.41 C 753.78 300.41 755.28 300.81 756.78 300.41 C 758.29 300.02 759.79 305.57 761.29 298.03 C 762.80 290.50 764.30 255.99 765.80 255.19 C 767.30 254.40 768.81 289.57 770.31 293.27 C 771.81 296.98 773.31 277.67 774.82 277.41 C 776.32 277.14 777.82 291.55 779.33 291.69 C 780.83 291.82 782.33 279.13 783.83 278.20 C 785.34 277.27 786.84 282.70 788.34 286.13 C 789.85 289.57 791.35 296.45 792.85 298.83 C 794.35 301.21 795.86 300.15 797.36 300.41 C 798.86 300.68 800.36 300.41 801.87 300.41 C 803.37 300.41 804.87 300.55 806.38 300.41 C 807.88 300.28 809.38 302.93 810.88 299.62 C 812.39 296.31 813.89 280.71 815.39 280.58 C 816.90 280.45 818.40 299.49 819.90 298.83 C 821.40 298.17 822.91 276.35 824.41 276.61 C 825.91 276.88 827.41 298.03 828.92 300.41 C 830.42 302.79 831.92 302.66 833.43 290.89 C 834.93 279.13 836.43 237.08 837.93 229.81 C 839.44 222.53 840.94 241.44 842.44 247.26 C 843.94 253.08 845.45 260.09 846.95 264.71 C 848.45 269.34 849.96 269.34 851.46 275.03 C 852.96 280.71 854.46 299.49 855.97 298.83 C 857.47 298.17 858.97 274.37 860.48 271.06 C 861.98 267.75 863.48 277.80 864.98 278.99 C 866.49 280.18 867.99 276.22 869.49 278.20 C 870.99 280.18 873.25 288.78 874.00 290.89" fill="none" stroke="#22C55E" stroke-opacity="0.20" stroke-width="7" stroke-linecap="round" stroke-linejoin="round"/>
<path d="M 58.00 302.00 C 58.75 302.00 61.01 302.93 62.51 302.00 C 64.01 301.07 65.51 299.49 67.02 296.45 C 68.52 293.41 70.02 287.06 71.52 283.75 C 73.03 280.45 74.53 273.70 76.03 276.61 C 77.54 279.52 79.04 296.98 80.54 301.21 C 82.04 305.44 83.55 301.87 85.05 302.00 C 86.55 302.13 88.06 302.26 89.56 302.00 C 91.06 301.74 92.56 300.41 94.07 300.41 C 95.57 300.41 97.07 302.93 98.57 302.00 C 100.08 301.07 101.58 295.26 103.08 294.86 C 104.59 294.46 106.09 299.49 107.59 299.62 C 109.09 299.75 110.60 301.07 112.10 295.65 C 113.60 290.23 115.10 271.06 116.61 267.09 C 118.11 263.13 119.61 268.42 121.12 271.85 C 122.62 275.29 124.12 284.55 125.62 287.72 C 127.13 290.89 128.63 288.78 130.13 290.89 C 131.64 293.01 133.14 298.96 134.64 300.41 C 136.14 301.87 137.65 299.49 139.15 299.62 C 140.65 299.75 142.15 300.81 143.66 301.21 C 145.16 301.60 146.66 301.87 148.17 302.00 C 149.67 302.13 151.17 302.00 152.67 302.00 C 154.18 302.00 155.68 305.44 157.18 302.00 C 158.69 298.56 160.19 282.43 161.69 281.37 C 163.19 280.32 164.70 296.98 166.20 295.65 C 167.70 294.33 169.20 273.57 170.71 273.44 C 172.21 273.31 173.71 293.41 175.22 294.86 C 176.72 296.31 178.22 282.17 179.72 282.17 C 181.23 282.17 182.73 296.18 184.23 294.86 C 185.73 293.54 187.24 275.95 188.74 274.23 C 190.24 272.51 191.75 281.64 193.25 284.55 C 194.75 287.46 196.25 288.78 197.76 291.69 C 199.26 294.60 200.76 303.59 202.27 302.00 C 203.77 300.41 205.27 283.22 206.77 282.17 C 208.28 281.11 209.78 292.35 211.28 295.65 C 212.78 298.96 214.29 301.34 215.79 302.00 C 217.29 302.66 218.80 303.98 220.30 299.62 C 221.80 295.26 223.30 303.45 224.81 275.82 C 226.31 248.19 227.81 133.95 229.31 133.81 C 230.82 133.68 232.32 249.51 233.82 275.03 C 235.33 300.55 236.83 282.43 238.33 286.93 C 239.83 291.42 241.34 301.87 242.84 302.00 C 244.34 302.13 245.85 287.98 247.35 287.72 C 248.85 287.46 250.35 300.28 251.86 300.41 C 253.36 300.55 254.86 289.44 256.36 288.51 C 257.87 287.59 259.37 295.65 260.87 294.86 C 262.38 294.07 263.88 285.74 265.38 283.75 C 266.88 281.77 268.39 284.41 269.89 282.96 C 271.39 281.51 272.90 272.91 274.40 275.03 C 275.90 277.14 277.40 291.16 278.91 295.65 C 280.41 300.15 281.91 303.85 283.41 302.00 C 284.92 300.15 286.42 287.59 287.92 284.55 C 289.43 281.51 290.93 282.03 292.43 283.75 C 293.93 285.47 295.44 294.60 296.94 294.86 C 298.44 295.12 299.94 285.60 301.45 285.34 C 302.95 285.08 304.45 292.35 305.96 293.27 C 307.46 294.20 308.96 291.16 310.46 290.89 C 311.97 290.63 313.47 290.50 314.97 291.69 C 316.48 292.88 317.98 296.31 319.48 298.03 C 320.98 299.75 322.49 302.26 323.99 302.00 C 325.49 301.74 326.99 296.45 328.50 296.45 C 330.00 296.45 331.50 301.07 333.01 302.00 C 334.51 302.93 336.01 302.00 337.51 302.00 C 339.02 302.00 340.52 302.00 342.02 302.00 C 343.52 302.00 345.03 303.19 346.53 302.00 C 348.03 300.81 349.54 294.86 351.04 294.86 C 352.54 294.86 354.04 300.81 355.55 302.00 C 357.05 303.19 358.55 303.45 360.06 302.00 C 361.56 300.55 363.06 293.93 364.56 293.27 C 366.07 292.61 367.57 296.58 369.07 298.03 C 370.57 299.49 372.08 301.34 373.58 302.00 C 375.08 302.66 376.59 302.40 378.09 302.00 C 379.59 301.60 381.09 299.88 382.60 299.62 C 384.10 299.36 385.60 300.81 387.10 300.41 C 388.61 300.02 390.11 300.81 391.61 297.24 C 393.12 293.67 394.62 279.26 396.12 278.99 C 397.62 278.73 399.13 291.82 400.63 295.65 C 402.13 299.49 403.64 302.40 405.14 302.00 C 406.64 301.60 408.14 297.11 409.65 293.27 C 411.15 289.44 412.65 279.39 414.15 278.99 C 415.66 278.60 417.16 287.19 418.66 290.89 C 420.17 294.60 421.67 303.72 423.17 301.21 C 424.67 298.69 426.18 280.98 427.68 275.82 C 429.18 270.66 430.69 269.74 432.19 270.27 C 433.69 270.80 435.19 274.63 436.70 278.99 C 438.20 283.36 439.70 292.61 441.20 296.45 C 442.71 300.28 444.21 301.47 445.71 302.00 C 447.22 302.53 448.72 299.62 450.22 299.62 C 451.72 299.62 453.23 301.60 454.73 302.00 C 456.23 302.40 457.73 302.00 459.24 302.00 C 460.74 302.00 462.24 304.64 463.75 302.00 C 465.25 299.36 466.75 288.65 468.25 286.13 C 469.76 283.62 471.26 285.21 472.76 286.93 C 474.27 288.65 475.77 294.46 477.27 296.45 C 478.77 298.43 480.28 298.30 481.78 298.83 C 483.28 299.36 484.78 299.09 486.29 299.62 C 487.79 300.15 489.29 302.40 490.80 302.00 C 492.30 301.60 493.80 297.64 495.30 297.24 C 496.81 296.84 498.31 301.21 499.81 299.62 C 501.31 298.03 502.82 288.12 504.32 287.72 C 505.82 287.32 507.33 295.92 508.83 297.24 C 510.33 298.56 511.83 296.58 513.34 295.65 C 514.84 294.73 516.34 299.75 517.85 291.69 C 519.35 283.62 520.85 251.49 522.35 247.26 C 523.86 243.03 525.36 294.46 526.86 266.30 C 528.36 238.14 529.87 100.49 531.37 78.28 C 532.87 56.07 534.38 108.29 535.88 133.02 C 537.38 157.75 538.88 207.06 540.39 226.63 C 541.89 246.20 543.39 249.11 544.90 250.43 C 546.40 251.76 547.90 230.47 549.40 234.57 C 550.91 238.67 552.41 263.79 553.91 275.03 C 555.41 286.27 556.92 298.30 558.42 302.00 C 559.92 305.70 561.43 297.77 562.93 297.24 C 564.43 296.71 565.93 301.87 567.44 298.83 C 568.94 295.79 570.44 278.99 571.94 278.99 C 573.45 278.99 574.95 300.28 576.45 298.83 C 577.96 297.37 579.46 275.82 580.96 270.27 C 582.46 264.71 583.97 260.22 585.47 265.51 C 586.97 270.80 588.48 297.24 589.98 302.00 C 591.48 306.76 592.98 294.07 594.49 294.07 C 595.99 294.07 597.49 302.53 598.99 302.00 C 600.50 301.47 602.00 292.22 603.50 290.89 C 605.01 289.57 606.51 303.59 608.01 294.07 C 609.51 284.55 611.02 238.40 612.52 233.77 C 614.02 229.15 615.52 267.62 617.03 266.30 C 618.53 264.98 620.03 228.75 621.54 225.84 C 623.04 222.93 624.54 249.24 626.04 248.85 C 627.55 248.45 629.05 222.80 630.55 223.46 C 632.06 224.12 633.56 249.11 635.06 252.81 C 636.56 256.52 638.07 238.00 639.57 245.67 C 641.07 253.34 642.57 292.22 644.08 298.83 C 645.58 305.44 647.08 289.70 648.59 285.34 C 650.09 280.98 651.59 287.72 653.09 272.65 C 654.60 257.57 656.10 195.30 657.60 194.90 C 659.10 194.50 660.61 253.08 662.11 270.27 C 663.61 287.46 665.12 293.80 666.62 298.03 C 668.12 302.26 669.62 296.18 671.13 295.65 C 672.63 295.12 674.13 297.50 675.64 294.86 C 677.14 292.22 678.64 281.24 680.14 279.79 C 681.65 278.33 683.15 282.96 684.65 286.13 C 686.15 289.31 687.66 297.50 689.16 298.83 C 690.66 300.15 692.17 294.86 693.67 294.07 C 695.17 293.27 696.67 293.01 698.18 294.07 C 699.68 295.12 701.18 299.88 702.69 300.41 C 704.19 300.94 705.69 297.24 707.19 297.24 C 708.70 297.24 710.20 299.88 711.70 300.41 C 713.20 300.94 714.71 309.54 716.21 300.41 C 717.71 291.29 719.22 248.19 720.72 245.67 C 722.22 243.16 723.72 282.83 725.23 285.34 C 726.73 287.85 728.23 260.09 729.73 260.75 C 731.24 261.41 732.74 285.21 734.24 289.31 C 735.75 293.41 737.25 283.62 738.75 285.34 C 740.25 287.06 741.76 297.11 743.26 299.62 C 744.76 302.13 746.27 300.28 747.77 300.41 C 749.27 300.55 750.77 300.41 752.28 300.41 C 753.78 300.41 755.28 300.81 756.78 300.41 C 758.29 300.02 759.79 305.57 761.29 298.03 C 762.80 290.50 764.30 255.99 765.80 255.19 C 767.30 254.40 768.81 289.57 770.31 293.27 C 771.81 296.98 773.31 277.67 774.82 277.41 C 776.32 277.14 777.82 291.55 779.33 291.69 C 780.83 291.82 782.33 279.13 783.83 278.20 C 785.34 277.27 786.84 282.70 788.34 286.13 C 789.85 289.57 791.35 296.45 792.85 298.83 C 794.35 301.21 795.86 300.15 797.36 300.41 C 798.86 300.68 800.36 300.41 801.87 300.41 C 803.37 300.41 804.87 300.55 806.38 300.41 C 807.88 300.28 809.38 302.93 810.88 299.62 C 812.39 296.31 813.89 280.71 815.39 280.58 C 816.90 280.45 818.40 299.49 819.90 298.83 C 821.40 298.17 822.91 276.35 824.41 276.61 C 825.91 276.88 827.41 298.03 828.92 300.41 C 830.42 302.79 831.92 302.66 833.43 290.89 C 834.93 279.13 836.43 237.08 837.93 229.81 C 839.44 222.53 840.94 241.44 842.44 247.26 C 843.94 253.08 845.45 260.09 846.95 264.71 C 848.45 269.34 849.96 269.34 851.46 275.03 C 852.96 280.71 854.46 299.49 855.97 298.83 C 857.47 298.17 858.97 274.37 860.48 271.06 C 861.98 267.75 863.48 277.80 864.98 278.99 C 866.49 280.18 867.99 276.22 869.49 278.20 C 870.99 280.18 873.25 288.78 874.00 290.89" fill="none" stroke="#22C55E" stroke-width="2.4" stroke-linecap="round" stroke-linejoin="round"/>
<circle cx="531.4" cy="78.3" r="4.5" fill="#4ADE80" stroke="#0B1120" stroke-width="2"/>
<text x="531.4" y="68.3" text-anchor="middle" font-family="ui-monospace,Menlo,monospace" font-size="10" font-weight="700" fill="#4ADE80">282</text>
<circle cx="874.0" cy="290.9" r="3.5" fill="#F8FAFC"/>
<text x="16" y="183" text-anchor="middle" font-family="ui-monospace,Menlo,monospace" font-size="10" fill="#94A3B8" transform="rotate(-90 16 183)">Contributions</text>
</svg>