<svg xmlns="http://www.w3.org/2000/svg" width="900" height="340" viewBox="0 0 900 340" role="img" aria-label="Contribution activity, last 6 months">
<defs>
<linearGradient id="bg" x1="0" y1="0" x2="0" y2="1"><stop offset="0" stop-color="#0F172A"/><stop offset="1" stop-color="#0B1120"/></linearGradient>
<linearGradient id="area" x1="0" y1="0" x2="0" y2="1"><stop offset="0" stop-color="#22C55E" stop-opacity="0.42"/><stop offset="0.7" stop-color="#22C55E" stop-opacity="0.08"/><stop offset="1" stop-color="#22C55E" stop-opacity="0"/></linearGradient>
</defs>
<rect x="0" y="0" width="900" height="340" rx="14" fill="url(#bg)"/>
<text x="450" y="32" text-anchor="middle" font-family="ui-monospace,Menlo,monospace" font-size="17" font-weight="700" fill="#F8FAFC" letter-spacing="0.5">last 6 months</text>
<text x="450" y="50" text-anchor="middle" font-family="ui-monospace,Menlo,monospace" font-size="11" fill="#94A3B8">4,066 contributions · peak 282</text>
<line x1="58" y1="302.0" x2="874" y2="302.0" stroke="#1E293B" stroke-width="1" stroke-dasharray="2 4"/>
<text x="48" y="305.5" text-anchor="end" font-family="ui-monospace,Menlo,monospace" font-size="10" fill="#94A3B8">0</text>
<line x1="58" y1="242.5" x2="874" y2="242.5" stroke="#1E293B" stroke-width="1" stroke-dasharray="2 4"/>
<text x="48" y="246.0" text-anchor="end" font-family="ui-monospace,Menlo,monospace" font-size="10" fill="#94A3B8">75</text>
<line x1="58" y1="183.0" x2="874" y2="183.0" stroke="#1E293B" stroke-width="1" stroke-dasharray="2 4"/>
<text x="48" y="186.5" text-anchor="end" font-family="ui-monospace,Menlo,monospace" font-size="10" fill="#94A3B8">150</text>
<line x1="58" y1="123.5" x2="874" y2="123.5" stroke="#1E293B" stroke-width="1" stroke-dasharray="2 4"/>
<text x="48" y="127.0" text-anchor="end" font-family="ui-monospace,Menlo,monospace" font-size="10" fill="#94A3B8">225</text>
<line x1="58" y1="64.0" x2="874" y2="64.0" stroke="#1E293B" stroke-width="1" stroke-dasharray="2 4"/>
<text x="48" y="67.5" text-anchor="end" font-family="ui-monospace,Menlo,monospace" font-size="10" fill="#94A3B8">300</text>
<line x1="157.2" y1="64" x2="157.2" y2="302" stroke="#1E293B" stroke-width="1" stroke-opacity="0.6"/>
<text x="157.2" y="322" text-anchor="middle" font-family="ui-monospace,Menlo,monospace" font-size="10" fill="#94A3B8">Feb</text>
<line x1="283.4" y1="64" x2="283.4" y2="302" stroke="#1E293B" stroke-width="1" stroke-opacity="0.6"/>
<text x="283.4" y="322" text-anchor="middle" font-family="ui-monospace,Menlo,monospace" font-size="10" fill="#94A3B8">Mar</text>
<line x1="423.2" y1="64" x2="423.2" y2="302" stroke="#1E293B" stroke-width="1" stroke-opacity="0.6"/>
<text x="423.2" y="322" text-anchor="middle" font-family="ui-monospace,Menlo,monospace" font-size="10" fill="#94A3B8">Apr</text>
<line x1="558.4" y1="64" x2="558.4" y2="302" stroke="#1E293B" stroke-width="1" stroke-opacity="0.6"/>
<text x="558.4" y="322" text-anchor="middle" font-family="ui-monospace,Menlo,monospace" font-size="10" fill="#94A3B8">May</text>
<line x1="698.2" y1="64" x2="698.2" y2="302" stroke="#1E293B" stroke-width="1" stroke-opacity="0.6"/>
<text x="698.2" y="322" text-anchor="middle" font-family="ui-monospace,Menlo,monospace" font-size="10" fill="#94A3B8">Jun</text>
<line x1="833.4" y1="64" x2="833.4" y2="302" stroke="#1E293B" stroke-width="1" stroke-opacity="0.6"/>
<text x="833.4" y="322" text-anchor="middle" font-family="ui-monospace,Menlo,monospace" font-size="10" fill="#94A3B8">Jul</text>
<path d="M 58.00 302.00 C 58.75 302.00 61.01 302.26 62.51 302.00 C 64.01 301.74 65.51 300.41 67.02 300.41 C 68.52 300.41 70.02 302.93 71.52 302.00 C 73.03 301.07 74.53 295.26 76.03 294.86 C 77.54 294.46 79.04 299.49 80.54 299.62 C 82.04 299.75 83.55 301.07 85.05 295.65 C 86.55 290.23 88.06 271.06 89.56 267.09 C 91.06 263.13 92.56 268.42 94.07 271.85 C 95.57 275.29 97.07 284.55 98.57 287.72 C 100.08 290.89 101.58 288.78 103.08 290.89 C 104.59 293.01 106.09 298.96 107.59 300.41 C 109.09 301.87 110.60 299.49 112.10 299.62 C 113.60 299.75 115.10 300.81 116.61 301.21 C 118.11 301.60 119.61 301.87 121.12 302.00 C 122.62 302.13 124.12 302.00 125.62 302.00 C 127.13 302.00 128.63 305.44 130.13 302.00 C 131.64 298.56 133.14 282.43 134.64 281.37 C 136.14 280.32 137.65 296.98 139.15 295.65 C 140.65 294.33 142.15 273.57 143.66 273.44 C 145.16 273.31 146.66 293.41 148.17 294.86 C 149.67 296.31 151.17 282.17 152.67 282.17 C 154.18 282.17 155.68 296.18 157.18 294.86 C 158.69 293.54 160.19 275.95 161.69 274.23 C 163.19 272.51 164.70 281.64 166.20 284.55 C 167.70 287.46 169.20 288.78 170.71 291.69 C 172.21 294.60 173.71 303.59 175.22 302.00 C 176.72 300.41 178.22 283.22 179.72 282.17 C 181.23 281.11 182.73 292.35 184.23 295.65 C 185.73 298.96 187.24 301.34 188.74 302.00 C 190.24 302.66 191.75 303.98 193.25 299.62 C 194.75 295.26 196.25 303.45 197.76 275.82 C 199.26 248.19 200.76 133.95 202.27 133.81 C 203.77 133.68 205.27 249.51 206.77 275.03 C 208.28 300.55 209.78 282.43 211.28 286.93 C 212.78 291.42 214.29 301.87 215.79 302.00 C 217.29 302.13 218.80 287.98 220.30 287.72 C 221.80 287.46 223.30 300.28 224.81 300.41 C 226.31 300.55 227.81 289.44 229.31 288.51 C 230.82 287.59 232.32 295.65 233.82 294.86 C 235.33 294.07 236.83 285.74 238.33 283.75 C 239.83 281.77 241.34 284.41 242.84 282.96 C 244.34 281.51 245.85 272.91 247.35 275.03 C 248.85 277.14 250.35 291.16 251.86 295.65 C 253.36 300.15 254.86 303.85 256.36 302.00 C 257.87 300.15 259.37 287.59 260.87 284.55 C 262.38 281.51 263.88 282.03 265.38 283.75 C 266.88 285.47 268.39 294.60 269.89 294.86 C 271.39 295.12 272.90 285.60 274.40 285.34 C 275.90 285.08 277.40 292.35 278.91 293.27 C 280.41 294.20 281.91 291.16 283.41 290.89 C 284.92 290.63 286.42 290.50 287.92 291.69 C 289.43 292.88 290.93 296.31 292.43 298.03 C 293.93 299.75 295.44 302.26 296.94 302.00 C 298.44 301.74 299.94 296.45 301.45 296.45 C 302.95 296.45 304.45 301.07 305.96 302.00 C 307.46 302.93 308.96 302.00 310.46 302.00 C 311.97 302.00 313.47 302.00 314.97 302.00 C 316.48 302.00 317.98 303.19 319.48 302.00 C 320.98 300.81 322.49 294.86 323.99 294.86 C 325.49 294.86 326.99 300.81 328.50 302.00 C 330.00 303.19 331.50 303.45 333.01 302.00 C 334.51 300.55 336.01 293.93 337.51 293.27 C 339.02 292.61 340.52 296.58 342.02 298.03 C 343.52 299.49 345.03 301.34 346.53 302.00 C 348.03 302.66 349.54 302.40 351.04 302.00 C 352.54 301.60 354.04 299.88 355.55 299.62 C 357.05 299.36 358.55 300.81 360.06 300.41 C 361.56 300.02 363.06 300.81 364.56 297.24 C 366.07 293.67 367.57 279.26 369.07 278.99 C 370.57 278.73 372.08 291.82 373.58 295.65 C 375.08 299.49 376.59 302.40 378.09 302.00 C 379.59 301.60 381.09 297.11 382.60 293.27 C 384.10 289.44 385.60 279.39 387.10 278.99 C 388.61 278.60 390.11 287.19 391.61 290.89 C 393.12 294.60 394.62 303.72 396.12 301.21 C 397.62 298.69 399.13 280.98 400.63 275.82 C 402.13 270.66 403.64 269.74 405.14 270.27 C 406.64 270.80 408.14 274.63 409.65 278.99 C 411.15 283.36 412.65 292.61 414.15 296.45 C 415.66 300.28 417.16 301.47 418.66 302.00 C 420.17 302.53 421.67 299.62 423.17 299.62 C 424.67 299.62 426.18 301.60 427.68 302.00 C 429.18 302.40 430.69 302.00 432.19 302.00 C 433.69 302.00 435.19 304.64 436.70 302.00 C 438.20 299.36 439.70 288.65 441.20 286.13 C 442.71 283.62 444.21 285.21 445.71 286.93 C 447.22 288.65 448.72 294.46 450.22 296.45 C 451.72 298.43 453.23 298.30 454.73 298.83 C 456.23 299.36 457.73 299.09 459.24 299.62 C 460.74 300.15 462.24 302.40 463.75 302.00 C 465.25 301.60 466.75 297.64 468.25 297.24 C 469.76 296.84 471.26 301.21 472.76 299.62 C 474.27 298.03 475.77 288.12 477.27 287.72 C 478.77 287.32 480.28 295.92 481.78 297.24 C 483.28 298.56 484.78 296.58 486.29 295.65 C 487.79 294.73 489.29 299.75 490.80 291.69 C 492.30 283.62 493.80 251.49 495.30 247.26 C 496.81 243.03 498.31 294.46 499.81 266.30 C 501.31 238.14 502.82 100.49 504.32 78.28 C 505.82 56.07 507.33 108.29 508.83 133.02 C 510.33 157.75 511.83 207.06 513.34 226.63 C 514.84 246.20 516.34 249.11 517.85 250.43 C 519.35 251.76 520.85 230.47 522.35 234.57 C 523.86 238.67 525.36 263.79 526.86 275.03 C 528.36 286.27 529.87 298.30 531.37 302.00 C 532.87 305.70 534.38 297.77 535.88 297.24 C 537.38 296.71 538.88 301.87 540.39 298.83 C 541.89 295.79 543.39 278.99 544.90 278.99 C 546.40 278.99 547.90 300.28 549.40 298.83 C 550.91 297.37 552.41 275.82 553.91 270.27 C 555.41 264.71 556.92 260.22 558.42 265.51 C 559.92 270.80 561.43 297.24 562.93 302.00 C 564.43 306.76 565.93 294.07 567.44 294.07 C 568.94 294.07 570.44 302.53 571.94 302.00 C 573.45 301.47 574.95 292.22 576.45 290.89 C 577.96 289.57 579.46 303.59 580.96 294.07 C 582.46 284.55 583.97 238.40 585.47 233.77 C 586.97 229.15 588.48 267.62 589.98 266.30 C 591.48 264.98 592.98 228.75 594.49 225.84 C 595.99 222.93 597.49 249.24 598.99 248.85 C 600.50 248.45 602.00 222.80 603.50 223.46 C 605.01 224.12 606.51 249.11 608.01 252.81 C 609.51 256.52 611.02 238.00 612.52 245.67 C 614.02 253.34 615.52 292.22 617.03 298.83 C 618.53 305.44 620.03 289.70 621.54 285.34 C 623.04 280.98 624.54 287.72 626.04 272.65 C 627.55 257.57 629.05 195.30 630.55 194.90 C 632.06 194.50 633.56 253.08 635.06 270.27 C 636.56 287.46 638.07 293.80 639.57 298.03 C 641.07 302.26 642.57 296.18 644.08 295.65 C 645.58 295.12 647.08 297.50 648.59 294.86 C 650.09 292.22 651.59 281.24 653.09 279.79 C 654.60 278.33 656.10 282.96 657.60 286.13 C 659.10 289.31 660.61 297.50 662.11 298.83 C 663.61 300.15 665.12 294.86 666.62 294.07 C 668.12 293.27 669.62 293.01 671.13 294.07 C 672.63 295.12 674.13 299.88 675.64 300.41 C 677.14 300.94 678.64 297.24 680.14 297.24 C 681.65 297.24 683.15 299.88 684.65 300.41 C 686.15 300.94 687.66 309.54 689.16 300.41 C 690.66 291.29 692.17 248.19 693.67 245.67 C 695.17 243.16 696.67 282.83 698.18 285.34 C 699.68 287.85 701.18 260.09 702.69 260.75 C 704.19 261.41 705.69 285.21 707.19 289.31 C 708.70 293.41 710.20 283.62 711.70 285.34 C 713.20 287.06 714.71 297.11 716.21 299.62 C 717.71 302.13 719.22 300.28 720.72 300.41 C 722.22 300.55 723.72 300.41 725.23 300.41 C 726.73 300.41 728.23 300.81 729.73 300.41 C 731.24 300.02 732.74 305.57 734.24 298.03 C 735.75 290.50 737.25 255.99 738.75 255.19 C 740.25 254.40 741.76 289.57 743.26 293.27 C 744.76 296.98 746.27 277.67 747.77 277.41 C 749.27 277.14 750.77 291.55 752.28 291.69 C 753.78 291.82 755.28 279.13 756.78 278.20 C 758.29 277.27 759.79 282.70 761.29 286.13 C 762.80 289.57 764.30 296.45 765.80 298.83 C 767.30 301.21 768.81 300.15 770.31 300.41 C 771.81 300.68 773.31 300.41 774.82 300.41 C 776.32 300.41 777.82 300.55 779.33 300.41 C 780.83 300.28 782.33 302.93 783.83 299.62 C 785.34 296.31 786.84 280.71 788.34 280.58 C 789.85 280.45 791.35 299.49 792.85 298.83 C 794.35 298.17 795.86 276.35 797.36 276.61 C 798.86 276.88 800.36 298.03 801.87 300.41 C 803.37 302.79 804.87 302.66 806.38 290.89 C 807.88 279.13 809.38 237.08 810.88 229.81 C 812.39 222.53 813.89 241.44 815.39 247.26 C 816.90 253.08 818.40 260.09 819.90 264.71 C 821.40 269.34 822.91 269.34 824.41 275.03 C 825.91 280.71 827.41 299.49 828.92 298.83 C 830.42 298.17 831.92 274.37 833.43 271.06 C 834.93 267.75 836.43 277.80 837.93 278.99 C 839.44 280.18 840.94 276.35 842.44 278.20 C 843.94 280.05 845.45 287.72 846.95 290.10 C 848.45 292.48 849.96 291.03 851.46 292.48 C 852.96 293.93 854.46 300.28 855.97 298.83 C 857.47 297.37 858.97 284.55 860.48 283.75 C 861.98 282.96 863.48 293.93 864.98 294.07 C 866.49 294.20 867.99 283.22 869.49 284.55 C 870.99 285.87 873.25 299.09 874.00 302.00 L 874.00 302.00 L 58.00 302.00 Z" fill="url(#area)"/>
<path d="M 58.00 302.00 C 58.75 302.00 61.01 302.26 62.51 302.00 C 64.01 301.74 65.51 300.41 67.02 300.41 C 68.52 300.41 70.02 302.93 71.52 302.00 C 73.03 301.07 74.53 295.26 76.03 294.86 C 77.54 294.46 79.04 299.49 80.54 299.62 C 82.04 299.75 83.55 301.07 85.05 295.65 C 86.55 290.23 88.06 271.06 89.56 267.09 C 91.06 263.13 92.56 268.42 94.07 271.85 C 95.57 275.29 97.07 284.55 98.57 287.72 C 100.08 290.89 101.58 288.78 103.08 290.89 C 104.59 293.01 106.09 298.96 107.59 300.41 C 109.09 301.87 110.60 299.49 112.10 299.62 C 113.60 299.75 115.10 300.81 116.61 301.21 C 118.11 301.60 119.61 301.87 121.12 302.00 C 122.62 302.13 124.12 302.00 125.62 302.00 C 127.13 302.00 128.63 305.44 130.13 302.00 C 131.64 298.56 133.14 282.43 134.64 281.37 C 136.14 280.32 137.65 296.98 139.15 295.65 C 140.65 294.33 142.15 273.57 143.66 273.44 C 145.16 273.31 146.66 293.41 148.17 294.86 C 149.67 296.31 151.17 282.17 152.67 282.17 C 154.18 282.17 155.68 296.18 157.18 294.86 C 158.69 293.54 160.19 275.95 161.69 274.23 C 163.19 272.51 164.70 281.64 166.20 284.55 C 167.70 287.46 169.20 288.78 170.71 291.69 C 172.21 294.60 173.71 303.59 175.22 302.00 C 176.72 300.41 178.22 283.22 179.72 282.17 C 181.23 281.11 182.73 292.35 184.23 295.65 C 185.73 298.96 187.24 301.34 188.74 302.00 C 190.24 302.66 191.75 303.98 193.25 299.62 C 194.75 295.26 196.25 303.45 197.76 275.82 C 199.26 248.19 200.76 133.95 202.27 133.81 C 203.77 133.68 205.27 249.51 206.77 275.03 C 208.28 300.55 209.78 282.43 211.28 286.93 C 212.78 291.42 214.29 301.87 215.79 302.00 C 217.29 302.13 218.80 287.98 220.30 287.72 C 221.80 287.46 223.30 300.28 224.81 300.41 C 226.31 300.55 227.81 289.44 229.31 288.51 C 230.82 287.59 232.32 295.65 233.82 294.86 C 235.33 294.07 236.83 285.74 238.33 283.75 C 239.83 281.77 241.34 284.41 242.84 282.96 C 244.34 281.51 245.85 272.91 247.35 275.03 C 248.85 277.14 250.35 291.16 251.86 295.65 C 253.36 300.15 254.86 303.85 256.36 302.00 C 257.87 300.15 259.37 287.59 260.87 284.55 C 262.38 281.51 263.88 282.03 265.38 283.75 C 266.88 285.47 268.39 294.60 269.89 294.86 C 271.39 295.12 272.90 285.60 274.40 285.34 C 275.90 285.08 277.40 292.35 278.91 293.27 C 280.41 294.20 281.91 291.16 283.41 290.89 C 284.92 290.63 286.42 290.50 287.92 291.69 C 289.43 292.88 290.93 296.31 292.43 298.03 C 293.93 299.75 295.44 302.26 296.94 302.00 C 298.44 301.74 299.94 296.45 301.45 296.45 C 302.95 296.45 304.45 301.07 305.96 302.00 C 307.46 302.93 308.96 302.00 310.46 302.00 C 311.97 302.00 313.47 302.00 314.97 302.00 C 316.48 302.00 317.98 303.19 319.48 302.00 C 320.98 300.81 322.49 294.86 323.99 294.86 C 325.49 294.86 326.99 300.81 328.50 302.00 C 330.00 303.19 331.50 303.45 333.01 302.00 C 334.51 300.55 336.01 293.93 337.51 293.27 C 339.02 292.61 340.52 296.58 342.02 298.03 C 343.52 299.49 345.03 301.34 346.53 302.00 C 348.03 302.66 349.54 302.40 351.04 302.00 C 352.54 301.60 354.04 299.88 355.55 299.62 C 357.05 299.36 358.55 300.81 360.06 300.41 C 361.56 300.02 363.06 300.81 364.56 297.24 C 366.07 293.67 367.57 279.26 369.07 278.99 C 370.57 278.73 372.08 291.82 373.58 295.65 C 375.08 299.49 376.59 302.40 378.09 302.00 C 379.59 301.60 381.09 297.11 382.60 293.27 C 384.10 289.44 385.60 279.39 387.10 278.99 C 388.61 278.60 390.11 287.19 391.61 290.89 C 393.12 294.60 394.62 303.72 396.12 301.21 C 397.62 298.69 399.13 280.98 400.63 275.82 C 402.13 270.66 403.64 269.74 405.14 270.27 C 406.64 270.80 408.14 274.63 409.65 278.99 C 411.15 283.36 412.65 292.61 414.15 296.45 C 415.66 300.28 417.16 301.47 418.66 302.00 C 420.17 302.53 421.67 299.62 423.17 299.62 C 424.67 299.62 426.18 301.60 427.68 302.00 C 429.18 302.40 430.69 302.00 432.19 302.00 C 433.69 302.00 435.19 304.64 436.70 302.00 C 438.20 299.36 439.70 288.65 441.20 286.13 C 442.71 283.62 444.21 285.21 445.71 286.93 C 447.22 288.65 448.72 294.46 450.22 296.45 C 451.72 298.43 453.23 298.30 454.73 298.83 C 456.23 299.36 457.73 299.09 459.24 299.62 C 460.74 300.15 462.24 302.40 463.75 302.00 C 465.25 301.60 466.75 297.64 468.25 297.24 C 469.76 296.84 471.26 301.21 472.76 299.62 C 474.27 298.03 475.77 288.12 477.27 287.72 C 478.77 287.32 480.28 295.92 481.78 297.24 C 483.28 298.56 484.78 296.58 486.29 295.65 C 487.79 294.73 489.29 299.75 490.80 291.69 C 492.30 283.62 493.80 251.49 495.30 247.26 C 496.81 243.03 498.31 294.46 499.81 266.30 C 501.31 238.14 502.82 100.49 504.32 78.28 C 505.82 56.07 507.33 108.29 508.83 133.02 C 510.33 157.75 511.83 207.06 513.34 226.63 C 514.84 246.20 516.34 249.11 517.85 250.43 C 519.35 251.76 520.85 230.47 522.35 234.57 C 523.86 238.67 525.36 263.79 526.86 275.03 C 528.36 286.27 529.87 298.30 531.37 302.00 C 532.87 305.70 534.38 297.77 535.88 297.24 C 537.38 296.71 538.88 301.87 540.39 298.83 C 541.89 295.79 543.39 278.99 544.90 278.99 C 546.40 278.99 547.90 300.28 549.40 298.83 C 550.91 297.37 552.41 275.82 553.91 270.27 C 555.41 264.71 556.92 260.22 558.42 265.51 C 559.92 270.80 561.43 297.24 562.93 302.00 C 564.43 306.76 565.93 294.07 567.44 294.07 C 568.94 294.07 570.44 302.53 571.94 302.00 C 573.45 301.47 574.95 292.22 576.45 290.89 C 577.96 289.57 579.46 303.59 580.96 294.07 C 582.46 284.55 583.97 238.40 585.47 233.77 C 586.97 229.15 588.48 267.62 589.98 266.30 C 591.48 264.98 592.98 228.75 594.49 225.84 C 595.99 222.93 597.49 249.24 598.99 248.85 C 600.50 248.45 602.00 222.80 603.50 223.46 C 605.01 224.12 606.51 249.11 608.01 252.81 C 609.51 256.52 611.02 238.00 612.52 245.67 C 614.02 253.34 615.52 292.22 617.03 298.83 C 618.53 305.44 620.03 289.70 621.54 285.34 C 623.04 280.98 624.54 287.72 626.04 272.65 C 627.55 257.57 629.05 195.30 630.55 194.90 C 632.06 194.50 633.56 253.08 635.06 270.27 C 636.56 287.46 638.07 293.80 639.57 298.03 C 641.07 302.26 642.57 296.18 644.08 295.65 C 645.58 295.12 647.08 297.50 648.59 294.86 C 650.09 292.22 651.59 281.24 653.09 279.79 C 654.60 278.33 656.10 282.96 657.60 286.13 C 659.10 289.31 660.61 297.50 662.11 298.83 C 663.61 300.15 665.12 294.86 666.62 294.07 C 668.12 293.27 669.62 293.01 671.13 294.07 C 672.63 295.12 674.13 299.88 675.64 300.41 C 677.14 300.94 678.64 297.24 680.14 297.24 C 681.65 297.24 683.15 299.88 684.65 300.41 C 686.15 300.94 687.66 309.54 689.16 300.41 C 690.66 291.29 692.17 248.19 693.67 245.67 C 695.17 243.16 696.67 282.83 698.18 285.34 C 699.68 287.85 701.18 260.09 702.69 260.75 C 704.19 261.41 705.69 285.21 707.19 289.31 C 708.70 293.41 710.20 283.62 711.70 285.34 C 713.20 287.06 714.71 297.11 716.21 299.62 C 717.71 302.13 719.22 300.28 720.72 300.41 C 722.22 300.55 723.72 300.41 725.23 300.41 C 726.73 300.41 728.23 300.81 729.73 300.41 C 731.24 300.02 732.74 305.57 734.24 298.03 C 735.75 290.50 737.25 255.99 738.75 255.19 C 740.25 254.40 741.76 289.57 743.26 293.27 C 744.76 296.98 746.27 277.67 747.77 277.41 C 749.27 277.14 750.77 291.55 752.28 291.69 C 753.78 291.82 755.28 279.13 756.78 278.20 C 758.29 277.27 759.79 282.70 761.29 286.13 C 762.80 289.57 764.30 296.45 765.80 298.83 C 767.30 301.21 768.81 300.15 770.31 300.41 C 771.81 300.68 773.31 300.41 774.82 300.41 C 776.32 300.41 777.82 300.55 779.33 300.41 C 780.83 300.28 782.33 302.93 783.83 299.62 C 785.34 296.31 786.84 280.71 788.34 280.58 C 789.85 280.45 791.35 299.49 792.85 298.83 C 794.35 298.17 795.86 276.35 797.36 276.61 C 798.86 276.88 800.36 298.03 801.87 300.41 C 803.37 302.79 804.87 302.66 806.38 290.89 C 807.88 279.13 809.38 237.08 810.88 229.81 C 812.39 222.53 813.89 241.44 815.39 247.26 C 816.90 253.08 818.40 260.09 819.90 264.71 C 821.40 269.34 822.91 269.34 824.41 275.03 C 825.91 280.71 827.41 299.49 828.92 298.83 C 830.42 298.17 831.92 274.37 833.43 271.06 C 834.93 267.75 836.43 277.80 837.93 278.99 C 839.44 280.18 840.94 276.35 842.44 278.20 C 843.94 280.05 845.45 287.72 846.95 290.10 C 848.45 292.48 849.96 291.03 851.46 292.48 C 852.96 293.93 854.46 300.28 855.97 298.83 C 857.47 297.37 858.97 284.55 860.48 283.75 C 861.98 282.96 863.48 293.93 864.98 294.07 C 866.49 294.20 867.99 283.22 869.49 284.55 C 870.99 285.87 873.25 299.09 874.00 302.00" fill="none" stroke="#22C55E" stroke-opacity="0.20" stroke-width="7" stroke-linecap="round" stroke-linejoin="round"/>
<path d="M 58.00 302.00 C 58.75 302.00 61.01 302.26 62.51 302.00 C 64.01 301.74 65.51 300.41 67.02 300.41 C 68.52 300.41 70.02 302.93 71.52 302.00 C 73.03 301.07 74.53 295.26 76.03 294.86 C 77.54 294.46 79.04 299.49 80.54 299.62 C 82.04 299.75 83.55 301.07 85.05 295.65 C 86.55 290.23 88.06 271.06 89.56 267.09 C 91.06 263.13 92.56 268.42 94.07 271.85 C 95.57 275.29 97.07 284.55 98.57 287.72 C 100.08 290.89 101.58 288.78 103.08 290.89 C 104.59 293.01 106.09 298.96 107.59 300.41 C 109.09 301.87 110.60 299.49 112.10 299.62 C 113.60 299.75 115.10 300.81 116.61 301.21 C 118.11 301.60 119.61 301.87 121.12 302.00 C 122.62 302.13 124.12 302.00 125.62 302.00 C 127.13 302.00 128.63 305.44 130.13 302.00 C 131.64 298.56 133.14 282.43 134.64 281.37 C 136.14 280.32 137.65 296.98 139.15 295.65 C 140.65 294.33 142.15 273.57 143.66 273.44 C 145.16 273.31 146.66 293.41 148.17 294.86 C 149.67 296.31 151.17 282.17 152.67 282.17 C 154.18 282.17 155.68 296.18 157.18 294.86 C 158.69 293.54 160.19 275.95 161.69 274.23 C 163.19 272.51 164.70 281.64 166.20 284.55 C 167.70 287.46 169.20 288.78 170.71 291.69 C 172.21 294.60 173.71 303.59 175.22 302.00 C 176.72 300.41 178.22 283.22 179.72 282.17 C 181.23 281.11 182.73 292.35 184.23 295.65 C 185.73 298.96 187.24 301.34 188.74 302.00 C 190.24 302.66 191.75 303.98 193.25 299.62 C 194.75 295.26 196.25 303.45 197.76 275.82 C 199.26 248.19 200.76 133.95 202.27 133.81 C 203.77 133.68 205.27 249.51 206.77 275.03 C 208.28 300.55 209.78 282.43 211.28 286.93 C 212.78 291.42 214.29 301.87 215.79 302.00 C 217.29 302.13 218.80 287.98 220.30 287.72 C 221.80 287.46 223.30 300.28 224.81 300.41 C 226.31 300.55 227.81 289.44 229.31 288.51 C 230.82 287.59 232.32 295.65 233.82 294.86 C 235.33 294.07 236.83 285.74 238.33 283.75 C 239.83 281.77 241.34 284.41 242.84 282.96 C 244.34 281.51 245.85 272.91 247.35 275.03 C 248.85 277.14 250.35 291.16 251.86 295.65 C 253.36 300.15 254.86 303.85 256.36 302.00 C 257.87 300.15 259.37 287.59 260.87 284.55 C 262.38 281.51 263.88 282.03 265.38 283.75 C 266.88 285.47 268.39 294.60 269.89 294.86 C 271.39 295.12 272.90 285.60 274.40 285.34 C 275.90 285.08 277.40 292.35 278.91 293.27 C 280.41 294.20 281.91 291.16 283.41 290.89 C 284.92 290.63 286.42 290.50 287.92 291.69 C 289.43 292.88 290.93 296.31 292.43 298.03 C 293.93 299.75 295.44 302.26 296.94 302.00 C 298.44 301.74 299.94 296.45 301.45 296.45 C 302.95 296.45 304.45 301.07 305.96 302.00 C 307.46 302.93 308.96 302.00 310.46 302.00 C 311.97 302.00 313.47 302.00 314.97 302.00 C 316.48 302.00 317.98 303.19 319.48 302.00 C 320.98 300.81 322.49 294.86 323.99 294.86 C 325.49 294.86 326.99 300.81 328.50 302.00 C 330.00 303.19 331.50 303.45 333.01 302.00 C 334.51 300.55 336.01 293.93 337.51 293.27 C 339.02 292.61 340.52 296.58 342.02 298.03 C 343.52 299.49 345.03 301.34 346.53 302.00 C 348.03 302.66 349.54 302.40 351.04 302.00 C 352.54 301.60 354.04 299.88 355.55 299.62 C 357.05 299.36 358.55 300.81 360.06 300.41 C 361.56 300.02 363.06 300.81 364.56 297.24 C 366.07 293.67 367.57 279.26 369.07 278.99 C 370.57 278.73 372.08 291.82 373.58 295.65 C 375.08 299.49 376.59 302.40 378.09 302.00 C 379.59 301.60 381.09 297.11 382.60 293.27 C 384.10 289.44 385.60 279.39 387.10 278.99 C 388.61 278.60 390.11 287.19 391.61 290.89 C 393.12 294.60 394.62 303.72 396.12 301.21 C 397.62 298.69 399.13 280.98 400.63 275.82 C 402.13 270.66 403.64 269.74 405.14 270.27 C 406.64 270.80 408.14 274.63 409.65 278.99 C 411.15 283.36 412.65 292.61 414.15 296.45 C 415.66 300.28 417.16 301.47 418.66 302.00 C 420.17 302.53 421.67 299.62 423.17 299.62 C 424.67 299.62 426.18 301.60 427.68 302.00 C 429.18 302.40 430.69 302.00 432.19 302.00 C 433.69 302.00 435.19 304.64 436.70 302.00 C 438.20 299.36 439.70 288.65 441.20 286.13 C 442.71 283.62 444.21 285.21 445.71 286.93 C 447.22 288.65 448.72 294.46 450.22 296.45 C 451.72 298.43 453.23 298.30 454.73 298.83 C 456.23 299.36 457.73 299.09 459.24 299.62 C 460.74 300.15 462.24 302.40 463.75 302.00 C 465.25 301.60 466.75 297.64 468.25 297.24 C 469.76 296.84 471.26 301.21 472.76 299.62 C 474.27 298.03 475.77 288.12 477.27 287.72 C 478.77 287.32 480.28 295.92 481.78 297.24 C 483.28 298.56 484.78 296.58 486.29 295.65 C 487.79 294.73 489.29 299.75 490.80 291.69 C 492.30 283.62 493.80 251.49 495.30 247.26 C 496.81 243.03 498.31 294.46 499.81 266.30 C 501.31 238.14 502.82 100.49 504.32 78.28 C 505.82 56.07 507.33 108.29 508.83 133.02 C 510.33 157.75 511.83 207.06 513.34 226.63 C 514.84 246.20 516.34 249.11 517.85 250.43 C 519.35 251.76 520.85 230.47 522.35 234.57 C 523.86 238.67 525.36 263.79 526.86 275.03 C 528.36 286.27 529.87 298.30 531.37 302.00 C 532.87 305.70 534.38 297.77 535.88 297.24 C 537.38 296.71 538.88 301.87 540.39 298.83 C 541.89 295.79 543.39 278.99 544.90 278.99 C 546.40 278.99 547.90 300.28 549.40 298.83 C 550.91 297.37 552.41 275.82 553.91 270.27 C 555.41 264.71 556.92 260.22 558.42 265.51 C 559.92 270.80 561.43 297.24 562.93 302.00 C 564.43 306.76 565.93 294.07 567.44 294.07 C 568.94 294.07 570.44 302.53 571.94 302.00 C 573.45 301.47 574.95 292.22 576.45 290.89 C 577.96 289.57 579.46 303.59 580.96 294.07 C 582.46 284.55 583.97 238.40 585.47 233.77 C 586.97 229.15 588.48 267.62 589.98 266.30 C 591.48 264.98 592.98 228.75 594.49 225.84 C 595.99 222.93 597.49 249.24 598.99 248.85 C 600.50 248.45 602.00 222.80 603.50 223.46 C 605.01 224.12 606.51 249.11 608.01 252.81 C 609.51 256.52 611.02 238.00 612.52 245.67 C 614.02 253.34 615.52 292.22 617.03 298.83 C 618.53 305.44 620.03 289.70 621.54 285.34 C 623.04 280.98 624.54 287.72 626.04 272.65 C 627.55 257.57 629.05 195.30 630.55 194.90 C 632.06 194.50 633.56 253.08 635.06 270.27 C 636.56 287.46 638.07 293.80 639.57 298.03 C 641.07 302.26 642.57 296.18 644.08 295.65 C 645.58 295.12 647.08 297.50 648.59 294.86 C 650.09 292.22 651.59 281.24 653.09 279.79 C 654.60 278.33 656.10 282.96 657.60 286.13 C 659.10 289.31 660.61 297.50 662.11 298.83 C 663.61 300.15 665.12 294.86 666.62 294.07 C 668.12 293.27 669.62 293.01 671.13 294.07 C 672.63 295.12 674.13 299.88 675.64 300.41 C 677.14 300.94 678.64 297.24 680.14 297.24 C 681.65 297.24 683.15 299.88 684.65 300.41 C 686.15 300.94 687.66 309.54 689.16 300.41 C 690.66 291.29 692.17 248.19 693.67 245.67 C 695.17 243.16 696.67 282.83 698.18 285.34 C 699.68 287.85 701.18 260.09 702.69 260.75 C 704.19 261.41 705.69 285.21 707.19 289.31 C 708.70 293.41 710.20 283.62 711.70 285.34 C 713.20 287.06 714.71 297.11 716.21 299.62 C 717.71 302.13 719.22 300.28 720.72 300.41 C 722.22 300.55 723.72 300.41 725.23 300.41 C 726.73 300.41 728.23 300.81 729.73 300.41 C 731.24 300.02 732.74 305.57 734.24 298.03 C 735.75 290.50 737.25 255.99 738.75 255.19 C 740.25 254.40 741.76 289.57 743.26 293.27 C 744.76 296.98 746.27 277.67 747.77 277.41 C 749.27 277.14 750.77 291.55 752.28 291.69 C 753.78 291.82 755.28 279.13 756.78 278.20 C 758.29 277.27 759.79 282.70 761.29 286.13 C 762.80 289.57 764.30 296.45 765.80 298.83 C 767.30 301.21 768.81 300.15 770.31 300.41 C 771.81 300.68 773.31 300.41 774.82 300.41 C 776.32 300.41 777.82 300.55 779.33 300.41 C 780.83 300.28 782.33 302.93 783.83 299.62 C 785.34 296.31 786.84 280.71 788.34 280.58 C 789.85 280.45 791.35 299.49 792.85 298.83 C 794.35 298.17 795.86 276.35 797.36 276.61 C 798.86 276.88 800.36 298.03 801.87 300.41 C 803.37 302.79 804.87 302.66 806.38 290.89 C 807.88 279.13 809.38 237.08 810.88 229.81 C 812.39 222.53 813.89 241.44 815.39 247.26 C 816.90 253.08 818.40 260.09 819.90 264.71 C 821.40 269.34 822.91 269.34 824.41 275.03 C 825.91 280.71 827.41 299.49 828.92 298.83 C 830.42 298.17 831.92 274.37 833.43 271.06 C 834.93 267.75 836.43 277.80 837.93 278.99 C 839.44 280.18 840.94 276.35 842.44 278.20 C 843.94 280.05 845.45 287.72 846.95 290.10 C 848.45 292.48 849.96 291.03 851.46 292.48 C 852.96 293.93 854.46 300.28 855.97 298.83 C 857.47 297.37 858.97 284.55 860.48 283.75 C 861.98 282.96 863.48 293.93 864.98 294.07 C 866.49 294.20 867.99 283.22 869.49 284.55 C 870.99 285.87 873.25 299.09 874.00 302.00" fill="none" stroke="#22C55E" stroke-width="2.4" stroke-linecap="round" stroke-linejoin="round"/>
<circle cx="504.3" cy="78.3" r="4.5" fill="#4ADE80" stroke="#0B1120" stroke-width="2"/>
<text x="504.3" y="68.3" text-anchor="middle" font-family="ui-monospace,Menlo,monospace" font-size="10" font-weight="700" fill="#4ADE80">282</text>
<circle cx="874.0" cy="302.0" r="3.5" fill="#F8FAFC"/>
<text x="16" y="183" text-anchor="middle" font-family="ui-monospace,Menlo,monospace" font-size="10" fill="#94A3B8" transform="rotate(-90 16 183)">Contributions</text>
</svg>