<svg xmlns="http://www.w3.org/2000/svg" width="900" height="340" viewBox="0 0 900 340" role="img" aria-label="Contribution activity, last 6 months">
<defs>
<linearGradient id="bg" x1="0" y1="0" x2="0" y2="1"><stop offset="0" stop-color="#0F172A"/><stop offset="1" stop-color="#0B1120"/></linearGradient>
<linearGradient id="area" x1="0" y1="0" x2="0" y2="1"><stop offset="0" stop-color="#22C55E" stop-opacity="0.42"/><stop offset="0.7" stop-color="#22C55E" stop-opacity="0.08"/><stop offset="1" stop-color="#22C55E" stop-opacity="0"/></linearGradient>
</defs>
<rect x="0" y="0" width="900" height="340" rx="14" fill="url(#bg)"/>
<text x="450" y="32" text-anchor="middle" font-family="ui-monospace,Menlo,monospace" font-size="17" font-weight="700" fill="#F8FAFC" letter-spacing="0.5">last 6 months</text>
<text x="450" y="50" text-anchor="middle" font-family="ui-monospace,Menlo,monospace" font-size="11" fill="#94A3B8">4,169 contributions · peak 282</text>
<line x1="58" y1="302.0" x2="874" y2="302.0" stroke="#1E293B" stroke-width="1" stroke-dasharray="2 4"/>
<text x="48" y="305.5" text-anchor="end" font-family="ui-monospace,Menlo,monospace" font-size="10" fill="#94A3B8">0</text>
<line x1="58" y1="242.5" x2="874" y2="242.5" stroke="#1E293B" stroke-width="1" stroke-dasharray="2 4"/>
<text x="48" y="246.0" text-anchor="end" font-family="ui-monospace,Menlo,monospace" font-size="10" fill="#94A3B8">75</text>
<line x1="58" y1="183.0" x2="874" y2="183.0" stroke="#1E293B" stroke-width="1" stroke-dasharray="2 4"/>
<text x="48" y="186.5" text-anchor="end" font-family="ui-monospace,Menlo,monospace" font-size="10" fill="#94A3B8">150</text>
<line x1="58" y1="123.5" x2="874" y2="123.5" stroke="#1E293B" stroke-width="1" stroke-dasharray="2 4"/>
<text x="48" y="127.0" text-anchor="end" font-family="ui-monospace,Menlo,monospace" font-size="10" fill="#94A3B8">225</text>
<line x1="58" y1="64.0" x2="874" y2="64.0" stroke="#1E293B" stroke-width="1" stroke-dasharray="2 4"/>
<text x="48" y="67.5" text-anchor="end" font-family="ui-monospace,Menlo,monospace" font-size="10" fill="#94A3B8">300</text>
<line x1="139.1" y1="64" x2="139.1" y2="302" stroke="#1E293B" stroke-width="1" stroke-opacity="0.6"/>
<text x="139.1" y="322" text-anchor="middle" font-family="ui-monospace,Menlo,monospace" font-size="10" fill="#94A3B8">Feb</text>
<line x1="265.4" y1="64" x2="265.4" y2="302" stroke="#1E293B" stroke-width="1" stroke-opacity="0.6"/>
<text x="265.4" y="322" text-anchor="middle" font-family="ui-monospace,Menlo,monospace" font-size="10" fill="#94A3B8">Mar</text>
<line x1="405.1" y1="64" x2="405.1" y2="302" stroke="#1E293B" stroke-width="1" stroke-opacity="0.6"/>
<text x="405.1" y="322" text-anchor="middle" font-family="ui-monospace,Menlo,monospace" font-size="10" fill="#94A3B8">Apr</text>
<line x1="540.4" y1="64" x2="540.4" y2="302" stroke="#1E293B" stroke-width="1" stroke-opacity="0.6"/>
<text x="540.4" y="322" text-anchor="middle" font-family="ui-monospace,Menlo,monospace" font-size="10" fill="#94A3B8">May</text>
<line x1="680.1" y1="64" x2="680.1" y2="302" stroke="#1E293B" stroke-width="1" stroke-opacity="0.6"/>
<text x="680.1" y="322" text-anchor="middle" font-family="ui-monospace,Menlo,monospace" font-size="10" fill="#94A3B8">Jun</text>
<line x1="815.4" y1="64" x2="815.4" y2="302" stroke="#1E293B" stroke-width="1" stroke-opacity="0.6"/>
<text x="815.4" y="322" text-anchor="middle" font-family="ui-monospace,Menlo,monospace" font-size="10" fill="#94A3B8">Jul</text>
<path d="M 58.00 294.86 C 58.75 295.65 61.01 299.49 62.51 299.62 C 64.01 299.75 65.51 301.07 67.02 295.65 C 68.52 290.23 70.02 271.06 71.52 267.09 C 73.03 263.13 74.53 268.42 76.03 271.85 C 77.54 275.29 79.04 284.55 80.54 287.72 C 82.04 290.89 83.55 288.78 85.05 290.89 C 86.55 293.01 88.06 298.96 89.56 300.41 C 91.06 301.87 92.56 299.49 94.07 299.62 C 95.57 299.75 97.07 300.81 98.57 301.21 C 100.08 301.60 101.58 301.87 103.08 302.00 C 104.59 302.13 106.09 302.00 107.59 302.00 C 109.09 302.00 110.60 305.44 112.10 302.00 C 113.60 298.56 115.10 282.43 116.61 281.37 C 118.11 280.32 119.61 296.98 121.12 295.65 C 122.62 294.33 124.12 273.57 125.62 273.44 C 127.13 273.31 128.63 293.41 130.13 294.86 C 131.64 296.31 133.14 282.17 134.64 282.17 C 136.14 282.17 137.65 296.18 139.15 294.86 C 140.65 293.54 142.15 275.95 143.66 274.23 C 145.16 272.51 146.66 281.64 148.17 284.55 C 149.67 287.46 151.17 288.78 152.67 291.69 C 154.18 294.60 155.68 303.59 157.18 302.00 C 158.69 300.41 160.19 283.22 161.69 282.17 C 163.19 281.11 164.70 292.35 166.20 295.65 C 167.70 298.96 169.20 301.34 170.71 302.00 C 172.21 302.66 173.71 303.98 175.22 299.62 C 176.72 295.26 178.22 303.45 179.72 275.82 C 181.23 248.19 182.73 133.95 184.23 133.81 C 185.73 133.68 187.24 249.51 188.74 275.03 C 190.24 300.55 191.75 282.43 193.25 286.93 C 194.75 291.42 196.25 301.87 197.76 302.00 C 199.26 302.13 200.76 287.98 202.27 287.72 C 203.77 287.46 205.27 300.28 206.77 300.41 C 208.28 300.55 209.78 289.44 211.28 288.51 C 212.78 287.59 214.29 295.65 215.79 294.86 C 217.29 294.07 218.80 285.74 220.30 283.75 C 221.80 281.77 223.30 284.41 224.81 282.96 C 226.31 281.51 227.81 272.91 229.31 275.03 C 230.82 277.14 232.32 291.16 233.82 295.65 C 235.33 300.15 236.83 303.85 238.33 302.00 C 239.83 300.15 241.34 287.59 242.84 284.55 C 244.34 281.51 245.85 282.03 247.35 283.75 C 248.85 285.47 250.35 294.60 251.86 294.86 C 253.36 295.12 254.86 285.60 256.36 285.34 C 257.87 285.08 259.37 292.35 260.87 293.27 C 262.38 294.20 263.88 291.16 265.38 290.89 C 266.88 290.63 268.39 290.50 269.89 291.69 C 271.39 292.88 272.90 296.31 274.40 298.03 C 275.90 299.75 277.40 302.26 278.91 302.00 C 280.41 301.74 281.91 296.45 283.41 296.45 C 284.92 296.45 286.42 301.07 287.92 302.00 C 289.43 302.93 290.93 302.00 292.43 302.00 C 293.93 302.00 295.44 302.00 296.94 302.00 C 298.44 302.00 299.94 303.19 301.45 302.00 C 302.95 300.81 304.45 294.86 305.96 294.86 C 307.46 294.86 308.96 300.81 310.46 302.00 C 311.97 303.19 313.47 303.45 314.97 302.00 C 316.48 300.55 317.98 293.93 319.48 293.27 C 320.98 292.61 322.49 296.58 323.99 298.03 C 325.49 299.49 326.99 301.34 328.50 302.00 C 330.00 302.66 331.50 302.40 333.01 302.00 C 334.51 301.60 336.01 299.88 337.51 299.62 C 339.02 299.36 340.52 300.81 342.02 300.41 C 343.52 300.02 345.03 300.81 346.53 297.24 C 348.03 293.67 349.54 279.26 351.04 278.99 C 352.54 278.73 354.04 291.82 355.55 295.65 C 357.05 299.49 358.55 302.40 360.06 302.00 C 361.56 301.60 363.06 297.11 364.56 293.27 C 366.07 289.44 367.57 279.39 369.07 278.99 C 370.57 278.60 372.08 287.19 373.58 290.89 C 375.08 294.60 376.59 303.72 378.09 301.21 C 379.59 298.69 381.09 280.98 382.60 275.82 C 384.10 270.66 385.60 269.74 387.10 270.27 C 388.61 270.80 390.11 274.63 391.61 278.99 C 393.12 283.36 394.62 292.61 396.12 296.45 C 397.62 300.28 399.13 301.47 400.63 302.00 C 402.13 302.53 403.64 299.62 405.14 299.62 C 406.64 299.62 408.14 301.60 409.65 302.00 C 411.15 302.40 412.65 302.00 414.15 302.00 C 415.66 302.00 417.16 304.64 418.66 302.00 C 420.17 299.36 421.67 288.65 423.17 286.13 C 424.67 283.62 426.18 285.21 427.68 286.93 C 429.18 288.65 430.69 294.46 432.19 296.45 C 433.69 298.43 435.19 298.30 436.70 298.83 C 438.20 299.36 439.70 299.09 441.20 299.62 C 442.71 300.15 444.21 302.40 445.71 302.00 C 447.22 301.60 448.72 297.64 450.22 297.24 C 451.72 296.84 453.23 301.21 454.73 299.62 C 456.23 298.03 457.73 288.12 459.24 287.72 C 460.74 287.32 462.24 295.92 463.75 297.24 C 465.25 298.56 466.75 296.58 468.25 295.65 C 469.76 294.73 471.26 299.75 472.76 291.69 C 474.27 283.62 475.77 251.49 477.27 247.26 C 478.77 243.03 480.28 294.46 481.78 266.30 C 483.28 238.14 484.78 100.49 486.29 78.28 C 487.79 56.07 489.29 108.29 490.80 133.02 C 492.30 157.75 493.80 207.06 495.30 226.63 C 496.81 246.20 498.31 249.11 499.81 250.43 C 501.31 251.76 502.82 230.47 504.32 234.57 C 505.82 238.67 507.33 263.79 508.83 275.03 C 510.33 286.27 511.83 298.30 513.34 302.00 C 514.84 305.70 516.34 297.77 517.85 297.24 C 519.35 296.71 520.85 301.87 522.35 298.83 C 523.86 295.79 525.36 278.99 526.86 278.99 C 528.36 278.99 529.87 300.28 531.37 298.83 C 532.87 297.37 534.38 275.82 535.88 270.27 C 537.38 264.71 538.88 260.22 540.39 265.51 C 541.89 270.80 543.39 297.24 544.90 302.00 C 546.40 306.76 547.90 294.07 549.40 294.07 C 550.91 294.07 552.41 302.53 553.91 302.00 C 555.41 301.47 556.92 292.22 558.42 290.89 C 559.92 289.57 561.43 303.59 562.93 294.07 C 564.43 284.55 565.93 238.40 567.44 233.77 C 568.94 229.15 570.44 267.62 571.94 266.30 C 573.45 264.98 574.95 228.75 576.45 225.84 C 577.96 222.93 579.46 249.24 580.96 248.85 C 582.46 248.45 583.97 222.80 585.47 223.46 C 586.97 224.12 588.48 249.11 589.98 252.81 C 591.48 256.52 592.98 238.00 594.49 245.67 C 595.99 253.34 597.49 292.22 598.99 298.83 C 600.50 305.44 602.00 289.70 603.50 285.34 C 605.01 280.98 606.51 287.72 608.01 272.65 C 609.51 257.57 611.02 195.30 612.52 194.90 C 614.02 194.50 615.52 253.08 617.03 270.27 C 618.53 287.46 620.03 293.80 621.54 298.03 C 623.04 302.26 624.54 296.18 626.04 295.65 C 627.55 295.12 629.05 297.50 630.55 294.86 C 632.06 292.22 633.56 281.24 635.06 279.79 C 636.56 278.33 638.07 282.96 639.57 286.13 C 641.07 289.31 642.57 297.50 644.08 298.83 C 645.58 300.15 647.08 294.86 648.59 294.07 C 650.09 293.27 651.59 293.01 653.09 294.07 C 654.60 295.12 656.10 299.88 657.60 300.41 C 659.10 300.94 660.61 297.24 662.11 297.24 C 663.61 297.24 665.12 299.88 666.62 300.41 C 668.12 300.94 669.62 309.54 671.13 300.41 C 672.63 291.29 674.13 248.19 675.64 245.67 C 677.14 243.16 678.64 282.83 680.14 285.34 C 681.65 287.85 683.15 260.09 684.65 260.75 C 686.15 261.41 687.66 285.21 689.16 289.31 C 690.66 293.41 692.17 283.62 693.67 285.34 C 695.17 287.06 696.67 297.11 698.18 299.62 C 699.68 302.13 701.18 300.28 702.69 300.41 C 704.19 300.55 705.69 300.41 707.19 300.41 C 708.70 300.41 710.20 300.81 711.70 300.41 C 713.20 300.02 714.71 305.57 716.21 298.03 C 717.71 290.50 719.22 255.99 720.72 255.19 C 722.22 254.40 723.72 289.57 725.23 293.27 C 726.73 296.98 728.23 277.67 729.73 277.41 C 731.24 277.14 732.74 291.55 734.24 291.69 C 735.75 291.82 737.25 279.13 738.75 278.20 C 740.25 277.27 741.76 282.70 743.26 286.13 C 744.76 289.57 746.27 296.45 747.77 298.83 C 749.27 301.21 750.77 300.15 752.28 300.41 C 753.78 300.68 755.28 300.41 756.78 300.41 C 758.29 300.41 759.79 300.55 761.29 300.41 C 762.80 300.28 764.30 302.93 765.80 299.62 C 767.30 296.31 768.81 280.71 770.31 280.58 C 771.81 280.45 773.31 299.49 774.82 298.83 C 776.32 298.17 777.82 276.35 779.33 276.61 C 780.83 276.88 782.33 298.03 783.83 300.41 C 785.34 302.79 786.84 302.66 788.34 290.89 C 789.85 279.13 791.35 237.08 792.85 229.81 C 794.35 222.53 795.86 241.44 797.36 247.26 C 798.86 253.08 800.36 260.09 801.87 264.71 C 803.37 269.34 804.87 269.34 806.38 275.03 C 807.88 280.71 809.38 299.49 810.88 298.83 C 812.39 298.17 813.89 274.37 815.39 271.06 C 816.90 267.75 818.40 277.80 819.90 278.99 C 821.40 280.18 822.91 276.35 824.41 278.20 C 825.91 280.05 827.41 287.72 828.92 290.10 C 830.42 292.48 831.92 291.03 833.43 292.48 C 834.93 293.93 836.43 300.28 837.93 298.83 C 839.44 297.37 840.94 284.55 842.44 283.75 C 843.94 282.96 845.45 293.93 846.95 294.07 C 848.45 294.20 849.96 284.28 851.46 284.55 C 852.96 284.81 854.46 293.01 855.97 295.65 C 857.47 298.30 858.97 304.12 860.48 300.41 C 861.98 296.71 863.48 279.52 864.98 273.44 C 866.49 267.36 867.99 260.61 869.49 263.92 C 870.99 267.23 873.25 288.38 874.00 293.27 L 874.00 302.00 L 58.00 302.00 Z" fill="url(#area)"/>
<path d="M 58.00 294.86 C 58.75 295.65 61.01 299.49 62.51 299.62 C 64.01 299.75 65.51 301.07 67.02 295.65 C 68.52 290.23 70.02 271.06 71.52 267.09 C 73.03 263.13 74.53 268.42 76.03 271.85 C 77.54 275.29 79.04 284.55 80.54 287.72 C 82.04 290.89 83.55 288.78 85.05 290.89 C 86.55 293.01 88.06 298.96 89.56 300.41 C 91.06 301.87 92.56 299.49 94.07 299.62 C 95.57 299.75 97.07 300.81 98.57 301.21 C 100.08 301.60 101.58 301.87 103.08 302.00 C 104.59 302.13 106.09 302.00 107.59 302.00 C 109.09 302.00 110.60 305.44 112.10 302.00 C 113.60 298.56 115.10 282.43 116.61 281.37 C 118.11 280.32 119.61 296.98 121.12 295.65 C 122.62 294.33 124.12 273.57 125.62 273.44 C 127.13 273.31 128.63 293.41 130.13 294.86 C 131.64 296.31 133.14 282.17 134.64 282.17 C 136.14 282.17 137.65 296.18 139.15 294.86 C 140.65 293.54 142.15 275.95 143.66 274.23 C 145.16 272.51 146.66 281.64 148.17 284.55 C 149.67 287.46 151.17 288.78 152.67 291.69 C 154.18 294.60 155.68 303.59 157.18 302.00 C 158.69 300.41 160.19 283.22 161.69 282.17 C 163.19 281.11 164.70 292.35 166.20 295.65 C 167.70 298.96 169.20 301.34 170.71 302.00 C 172.21 302.66 173.71 303.98 175.22 299.62 C 176.72 295.26 178.22 303.45 179.72 275.82 C 181.23 248.19 182.73 133.95 184.23 133.81 C 185.73 133.68 187.24 249.51 188.74 275.03 C 190.24 300.55 191.75 282.43 193.25 286.93 C 194.75 291.42 196.25 301.87 197.76 302.00 C 199.26 302.13 200.76 287.98 202.27 287.72 C 203.77 287.46 205.27 300.28 206.77 300.41 C 208.28 300.55 209.78 289.44 211.28 288.51 C 212.78 287.59 214.29 295.65 215.79 294.86 C 217.29 294.07 218.80 285.74 220.30 283.75 C 221.80 281.77 223.30 284.41 224.81 282.96 C 226.31 281.51 227.81 272.91 229.31 275.03 C 230.82 277.14 232.32 291.16 233.82 295.65 C 235.33 300.15 236.83 303.85 238.33 302.00 C 239.83 300.15 241.34 287.59 242.84 284.55 C 244.34 281.51 245.85 282.03 247.35 283.75 C 248.85 285.47 250.35 294.60 251.86 294.86 C 253.36 295.12 254.86 285.60 256.36 285.34 C 257.87 285.08 259.37 292.35 260.87 293.27 C 262.38 294.20 263.88 291.16 265.38 290.89 C 266.88 290.63 268.39 290.50 269.89 291.69 C 271.39 292.88 272.90 296.31 274.40 298.03 C 275.90 299.75 277.40 302.26 278.91 302.00 C 280.41 301.74 281.91 296.45 283.41 296.45 C 284.92 296.45 286.42 301.07 287.92 302.00 C 289.43 302.93 290.93 302.00 292.43 302.00 C 293.93 302.00 295.44 302.00 296.94 302.00 C 298.44 302.00 299.94 303.19 301.45 302.00 C 302.95 300.81 304.45 294.86 305.96 294.86 C 307.46 294.86 308.96 300.81 310.46 302.00 C 311.97 303.19 313.47 303.45 314.97 302.00 C 316.48 300.55 317.98 293.93 319.48 293.27 C 320.98 292.61 322.49 296.58 323.99 298.03 C 325.49 299.49 326.99 301.34 328.50 302.00 C 330.00 302.66 331.50 302.40 333.01 302.00 C 334.51 301.60 336.01 299.88 337.51 299.62 C 339.02 299.36 340.52 300.81 342.02 300.41 C 343.52 300.02 345.03 300.81 346.53 297.24 C 348.03 293.67 349.54 279.26 351.04 278.99 C 352.54 278.73 354.04 291.82 355.55 295.65 C 357.05 299.49 358.55 302.40 360.06 302.00 C 361.56 301.60 363.06 297.11 364.56 293.27 C 366.07 289.44 367.57 279.39 369.07 278.99 C 370.57 278.60 372.08 287.19 373.58 290.89 C 375.08 294.60 376.59 303.72 378.09 301.21 C 379.59 298.69 381.09 280.98 382.60 275.82 C 384.10 270.66 385.60 269.74 387.10 270.27 C 388.61 270.80 390.11 274.63 391.61 278.99 C 393.12 283.36 394.62 292.61 396.12 296.45 C 397.62 300.28 399.13 301.47 400.63 302.00 C 402.13 302.53 403.64 299.62 405.14 299.62 C 406.64 299.62 408.14 301.60 409.65 302.00 C 411.15 302.40 412.65 302.00 414.15 302.00 C 415.66 302.00 417.16 304.64 418.66 302.00 C 420.17 299.36 421.67 288.65 423.17 286.13 C 424.67 283.62 426.18 285.21 427.68 286.93 C 429.18 288.65 430.69 294.46 432.19 296.45 C 433.69 298.43 435.19 298.30 436.70 298.83 C 438.20 299.36 439.70 299.09 441.20 299.62 C 442.71 300.15 444.21 302.40 445.71 302.00 C 447.22 301.60 448.72 297.64 450.22 297.24 C 451.72 296.84 453.23 301.21 454.73 299.62 C 456.23 298.03 457.73 288.12 459.24 287.72 C 460.74 287.32 462.24 295.92 463.75 297.24 C 465.25 298.56 466.75 296.58 468.25 295.65 C 469.76 294.73 471.26 299.75 472.76 291.69 C 474.27 283.62 475.77 251.49 477.27 247.26 C 478.77 243.03 480.28 294.46 481.78 266.30 C 483.28 238.14 484.78 100.49 486.29 78.28 C 487.79 56.07 489.29 108.29 490.80 133.02 C 492.30 157.75 493.80 207.06 495.30 226.63 C 496.81 246.20 498.31 249.11 499.81 250.43 C 501.31 251.76 502.82 230.47 504.32 234.57 C 505.82 238.67 507.33 263.79 508.83 275.03 C 510.33 286.27 511.83 298.30 513.34 302.00 C 514.84 305.70 516.34 297.77 517.85 297.24 C 519.35 296.71 520.85 301.87 522.35 298.83 C 523.86 295.79 525.36 278.99 526.86 278.99 C 528.36 278.99 529.87 300.28 531.37 298.83 C 532.87 297.37 534.38 275.82 535.88 270.27 C 537.38 264.71 538.88 260.22 540.39 265.51 C 541.89 270.80 543.39 297.24 544.90 302.00 C 546.40 306.76 547.90 294.07 549.40 294.07 C 550.91 294.07 552.41 302.53 553.91 302.00 C 555.41 301.47 556.92 292.22 558.42 290.89 C 559.92 289.57 561.43 303.59 562.93 294.07 C 564.43 284.55 565.93 238.40 567.44 233.77 C 568.94 229.15 570.44 267.62 571.94 266.30 C 573.45 264.98 574.95 228.75 576.45 225.84 C 577.96 222.93 579.46 249.24 580.96 248.85 C 582.46 248.45 583.97 222.80 585.47 223.46 C 586.97 224.12 588.48 249.11 589.98 252.81 C 591.48 256.52 592.98 238.00 594.49 245.67 C 595.99 253.34 597.49 292.22 598.99 298.83 C 600.50 305.44 602.00 289.70 603.50 285.34 C 605.01 280.98 606.51 287.72 608.01 272.65 C 609.51 257.57 611.02 195.30 612.52 194.90 C 614.02 194.50 615.52 253.08 617.03 270.27 C 618.53 287.46 620.03 293.80 621.54 298.03 C 623.04 302.26 624.54 296.18 626.04 295.65 C 627.55 295.12 629.05 297.50 630.55 294.86 C 632.06 292.22 633.56 281.24 635.06 279.79 C 636.56 278.33 638.07 282.96 639.57 286.13 C 641.07 289.31 642.57 297.50 644.08 298.83 C 645.58 300.15 647.08 294.86 648.59 294.07 C 650.09 293.27 651.59 293.01 653.09 294.07 C 654.60 295.12 656.10 299.88 657.60 300.41 C 659.10 300.94 660.61 297.24 662.11 297.24 C 663.61 297.24 665.12 299.88 666.62 300.41 C 668.12 300.94 669.62 309.54 671.13 300.41 C 672.63 291.29 674.13 248.19 675.64 245.67 C 677.14 243.16 678.64 282.83 680.14 285.34 C 681.65 287.85 683.15 260.09 684.65 260.75 C 686.15 261.41 687.66 285.21 689.16 289.31 C 690.66 293.41 692.17 283.62 693.67 285.34 C 695.17 287.06 696.67 297.11 698.18 299.62 C 699.68 302.13 701.18 300.28 702.69 300.41 C 704.19 300.55 705.69 300.41 707.19 300.41 C 708.70 300.41 710.20 300.81 711.70 300.41 C 713.20 300.02 714.71 305.57 716.21 298.03 C 717.71 290.50 719.22 255.99 720.72 255.19 C 722.22 254.40 723.72 289.57 725.23 293.27 C 726.73 296.98 728.23 277.67 729.73 277.41 C 731.24 277.14 732.74 291.55 734.24 291.69 C 735.75 291.82 737.25 279.13 738.75 278.20 C 740.25 277.27 741.76 282.70 743.26 286.13 C 744.76 289.57 746.27 296.45 747.77 298.83 C 749.27 301.21 750.77 300.15 752.28 300.41 C 753.78 300.68 755.28 300.41 756.78 300.41 C 758.29 300.41 759.79 300.55 761.29 300.41 C 762.80 300.28 764.30 302.93 765.80 299.62 C 767.30 296.31 768.81 280.71 770.31 280.58 C 771.81 280.45 773.31 299.49 774.82 298.83 C 776.32 298.17 777.82 276.35 779.33 276.61 C 780.83 276.88 782.33 298.03 783.83 300.41 C 785.34 302.79 786.84 302.66 788.34 290.89 C 789.85 279.13 791.35 237.08 792.85 229.81 C 794.35 222.53 795.86 241.44 797.36 247.26 C 798.86 253.08 800.36 260.09 801.87 264.71 C 803.37 269.34 804.87 269.34 806.38 275.03 C 807.88 280.71 809.38 299.49 810.88 298.83 C 812.39 298.17 813.89 274.37 815.39 271.06 C 816.90 267.75 818.40 277.80 819.90 278.99 C 821.40 280.18 822.91 276.35 824.41 278.20 C 825.91 280.05 827.41 287.72 828.92 290.10 C 830.42 292.48 831.92 291.03 833.43 292.48 C 834.93 293.93 836.43 300.28 837.93 298.83 C 839.44 297.37 840.94 284.55 842.44 283.75 C 843.94 282.96 845.45 293.93 846.95 294.07 C 848.45 294.20 849.96 284.28 851.46 284.55 C 852.96 284.81 854.46 293.01 855.97 295.65 C 857.47 298.30 858.97 304.12 860.48 300.41 C 861.98 296.71 863.48 279.52 864.98 273.44 C 866.49 267.36 867.99 260.61 869.49 263.92 C 870.99 267.23 873.25 288.38 874.00 293.27" fill="none" stroke="#22C55E" stroke-opacity="0.20" stroke-width="7" stroke-linecap="round" stroke-linejoin="round"/>
<path d="M 58.00 294.86 C 58.75 295.65 61.01 299.49 62.51 299.62 C 64.01 299.75 65.51 301.07 67.02 295.65 C 68.52 290.23 70.02 271.06 71.52 267.09 C 73.03 263.13 74.53 268.42 76.03 271.85 C 77.54 275.29 79.04 284.55 80.54 287.72 C 82.04 290.89 83.55 288.78 85.05 290.89 C 86.55 293.01 88.06 298.96 89.56 300.41 C 91.06 301.87 92.56 299.49 94.07 299.62 C 95.57 299.75 97.07 300.81 98.57 301.21 C 100.08 301.60 101.58 301.87 103.08 302.00 C 104.59 302.13 106.09 302.00 107.59 302.00 C 109.09 302.00 110.60 305.44 112.10 302.00 C 113.60 298.56 115.10 282.43 116.61 281.37 C 118.11 280.32 119.61 296.98 121.12 295.65 C 122.62 294.33 124.12 273.57 125.62 273.44 C 127.13 273.31 128.63 293.41 130.13 294.86 C 131.64 296.31 133.14 282.17 134.64 282.17 C 136.14 282.17 137.65 296.18 139.15 294.86 C 140.65 293.54 142.15 275.95 143.66 274.23 C 145.16 272.51 146.66 281.64 148.17 284.55 C 149.67 287.46 151.17 288.78 152.67 291.69 C 154.18 294.60 155.68 303.59 157.18 302.00 C 158.69 300.41 160.19 283.22 161.69 282.17 C 163.19 281.11 164.70 292.35 166.20 295.65 C 167.70 298.96 169.20 301.34 170.71 302.00 C 172.21 302.66 173.71 303.98 175.22 299.62 C 176.72 295.26 178.22 303.45 179.72 275.82 C 181.23 248.19 182.73 133.95 184.23 133.81 C 185.73 133.68 187.24 249.51 188.74 275.03 C 190.24 300.55 191.75 282.43 193.25 286.93 C 194.75 291.42 196.25 301.87 197.76 302.00 C 199.26 302.13 200.76 287.98 202.27 287.72 C 203.77 287.46 205.27 300.28 206.77 300.41 C 208.28 300.55 209.78 289.44 211.28 288.51 C 212.78 287.59 214.29 295.65 215.79 294.86 C 217.29 294.07 218.80 285.74 220.30 283.75 C 221.80 281.77 223.30 284.41 224.81 282.96 C 226.31 281.51 227.81 272.91 229.31 275.03 C 230.82 277.14 232.32 291.16 233.82 295.65 C 235.33 300.15 236.83 303.85 238.33 302.00 C 239.83 300.15 241.34 287.59 242.84 284.55 C 244.34 281.51 245.85 282.03 247.35 283.75 C 248.85 285.47 250.35 294.60 251.86 294.86 C 253.36 295.12 254.86 285.60 256.36 285.34 C 257.87 285.08 259.37 292.35 260.87 293.27 C 262.38 294.20 263.88 291.16 265.38 290.89 C 266.88 290.63 268.39 290.50 269.89 291.69 C 271.39 292.88 272.90 296.31 274.40 298.03 C 275.90 299.75 277.40 302.26 278.91 302.00 C 280.41 301.74 281.91 296.45 283.41 296.45 C 284.92 296.45 286.42 301.07 287.92 302.00 C 289.43 302.93 290.93 302.00 292.43 302.00 C 293.93 302.00 295.44 302.00 296.94 302.00 C 298.44 302.00 299.94 303.19 301.45 302.00 C 302.95 300.81 304.45 294.86 305.96 294.86 C 307.46 294.86 308.96 300.81 310.46 302.00 C 311.97 303.19 313.47 303.45 314.97 302.00 C 316.48 300.55 317.98 293.93 319.48 293.27 C 320.98 292.61 322.49 296.58 323.99 298.03 C 325.49 299.49 326.99 301.34 328.50 302.00 C 330.00 302.66 331.50 302.40 333.01 302.00 C 334.51 301.60 336.01 299.88 337.51 299.62 C 339.02 299.36 340.52 300.81 342.02 300.41 C 343.52 300.02 345.03 300.81 346.53 297.24 C 348.03 293.67 349.54 279.26 351.04 278.99 C 352.54 278.73 354.04 291.82 355.55 295.65 C 357.05 299.49 358.55 302.40 360.06 302.00 C 361.56 301.60 363.06 297.11 364.56 293.27 C 366.07 289.44 367.57 279.39 369.07 278.99 C 370.57 278.60 372.08 287.19 373.58 290.89 C 375.08 294.60 376.59 303.72 378.09 301.21 C 379.59 298.69 381.09 280.98 382.60 275.82 C 384.10 270.66 385.60 269.74 387.10 270.27 C 388.61 270.80 390.11 274.63 391.61 278.99 C 393.12 283.36 394.62 292.61 396.12 296.45 C 397.62 300.28 399.13 301.47 400.63 302.00 C 402.13 302.53 403.64 299.62 405.14 299.62 C 406.64 299.62 408.14 301.60 409.65 302.00 C 411.15 302.40 412.65 302.00 414.15 302.00 C 415.66 302.00 417.16 304.64 418.66 302.00 C 420.17 299.36 421.67 288.65 423.17 286.13 C 424.67 283.62 426.18 285.21 427.68 286.93 C 429.18 288.65 430.69 294.46 432.19 296.45 C 433.69 298.43 435.19 298.30 436.70 298.83 C 438.20 299.36 439.70 299.09 441.20 299.62 C 442.71 300.15 444.21 302.40 445.71 302.00 C 447.22 301.60 448.72 297.64 450.22 297.24 C 451.72 296.84 453.23 301.21 454.73 299.62 C 456.23 298.03 457.73 288.12 459.24 287.72 C 460.74 287.32 462.24 295.92 463.75 297.24 C 465.25 298.56 466.75 296.58 468.25 295.65 C 469.76 294.73 471.26 299.75 472.76 291.69 C 474.27 283.62 475.77 251.49 477.27 247.26 C 478.77 243.03 480.28 294.46 481.78 266.30 C 483.28 238.14 484.78 100.49 486.29 78.28 C 487.79 56.07 489.29 108.29 490.80 133.02 C 492.30 157.75 493.80 207.06 495.30 226.63 C 496.81 246.20 498.31 249.11 499.81 250.43 C 501.31 251.76 502.82 230.47 504.32 234.57 C 505.82 238.67 507.33 263.79 508.83 275.03 C 510.33 286.27 511.83 298.30 513.34 302.00 C 514.84 305.70 516.34 297.77 517.85 297.24 C 519.35 296.71 520.85 301.87 522.35 298.83 C 523.86 295.79 525.36 278.99 526.86 278.99 C 528.36 278.99 529.87 300.28 531.37 298.83 C 532.87 297.37 534.38 275.82 535.88 270.27 C 537.38 264.71 538.88 260.22 540.39 265.51 C 541.89 270.80 543.39 297.24 544.90 302.00 C 546.40 306.76 547.90 294.07 549.40 294.07 C 550.91 294.07 552.41 302.53 553.91 302.00 C 555.41 301.47 556.92 292.22 558.42 290.89 C 559.92 289.57 561.43 303.59 562.93 294.07 C 564.43 284.55 565.93 238.40 567.44 233.77 C 568.94 229.15 570.44 267.62 571.94 266.30 C 573.45 264.98 574.95 228.75 576.45 225.84 C 577.96 222.93 579.46 249.24 580.96 248.85 C 582.46 248.45 583.97 222.80 585.47 223.46 C 586.97 224.12 588.48 249.11 589.98 252.81 C 591.48 256.52 592.98 238.00 594.49 245.67 C 595.99 253.34 597.49 292.22 598.99 298.83 C 600.50 305.44 602.00 289.70 603.50 285.34 C 605.01 280.98 606.51 287.72 608.01 272.65 C 609.51 257.57 611.02 195.30 612.52 194.90 C 614.02 194.50 615.52 253.08 617.03 270.27 C 618.53 287.46 620.03 293.80 621.54 298.03 C 623.04 302.26 624.54 296.18 626.04 295.65 C 627.55 295.12 629.05 297.50 630.55 294.86 C 632.06 292.22 633.56 281.24 635.06 279.79 C 636.56 278.33 638.07 282.96 639.57 286.13 C 641.07 289.31 642.57 297.50 644.08 298.83 C 645.58 300.15 647.08 294.86 648.59 294.07 C 650.09 293.27 651.59 293.01 653.09 294.07 C 654.60 295.12 656.10 299.88 657.60 300.41 C 659.10 300.94 660.61 297.24 662.11 297.24 C 663.61 297.24 665.12 299.88 666.62 300.41 C 668.12 300.94 669.62 309.54 671.13 300.41 C 672.63 291.29 674.13 248.19 675.64 245.67 C 677.14 243.16 678.64 282.83 680.14 285.34 C 681.65 287.85 683.15 260.09 684.65 260.75 C 686.15 261.41 687.66 285.21 689.16 289.31 C 690.66 293.41 692.17 283.62 693.67 285.34 C 695.17 287.06 696.67 297.11 698.18 299.62 C 699.68 302.13 701.18 300.28 702.69 300.41 C 704.19 300.55 705.69 300.41 707.19 300.41 C 708.70 300.41 710.20 300.81 711.70 300.41 C 713.20 300.02 714.71 305.57 716.21 298.03 C 717.71 290.50 719.22 255.99 720.72 255.19 C 722.22 254.40 723.72 289.57 725.23 293.27 C 726.73 296.98 728.23 277.67 729.73 277.41 C 731.24 277.14 732.74 291.55 734.24 291.69 C 735.75 291.82 737.25 279.13 738.75 278.20 C 740.25 277.27 741.76 282.70 743.26 286.13 C 744.76 289.57 746.27 296.45 747.77 298.83 C 749.27 301.21 750.77 300.15 752.28 300.41 C 753.78 300.68 755.28 300.41 756.78 300.41 C 758.29 300.41 759.79 300.55 761.29 300.41 C 762.80 300.28 764.30 302.93 765.80 299.62 C 767.30 296.31 768.81 280.71 770.31 280.58 C 771.81 280.45 773.31 299.49 774.82 298.83 C 776.32 298.17 777.82 276.35 779.33 276.61 C 780.83 276.88 782.33 298.03 783.83 300.41 C 785.34 302.79 786.84 302.66 788.34 290.89 C 789.85 279.13 791.35 237.08 792.85 229.81 C 794.35 222.53 795.86 241.44 797.36 247.26 C 798.86 253.08 800.36 260.09 801.87 264.71 C 803.37 269.34 804.87 269.34 806.38 275.03 C 807.88 280.71 809.38 299.49 810.88 298.83 C 812.39 298.17 813.89 274.37 815.39 271.06 C 816.90 267.75 818.40 277.80 819.90 278.99 C 821.40 280.18 822.91 276.35 824.41 278.20 C 825.91 280.05 827.41 287.72 828.92 290.10 C 830.42 292.48 831.92 291.03 833.43 292.48 C 834.93 293.93 836.43 300.28 837.93 298.83 C 839.44 297.37 840.94 284.55 842.44 283.75 C 843.94 282.96 845.45 293.93 846.95 294.07 C 848.45 294.20 849.96 284.28 851.46 284.55 C 852.96 284.81 854.46 293.01 855.97 295.65 C 857.47 298.30 858.97 304.12 860.48 300.41 C 861.98 296.71 863.48 279.52 864.98 273.44 C 866.49 267.36 867.99 260.61 869.49 263.92 C 870.99 267.23 873.25 288.38 874.00 293.27" fill="none" stroke="#22C55E" stroke-width="2.4" stroke-linecap="round" stroke-linejoin="round"/>
<circle cx="486.3" cy="78.3" r="4.5" fill="#4ADE80" stroke="#0B1120" stroke-width="2"/>
<text x="486.3" y="68.3" text-anchor="middle" font-family="ui-monospace,Menlo,monospace" font-size="10" font-weight="700" fill="#4ADE80">282</text>
<circle cx="874.0" cy="293.3" r="3.5" fill="#F8FAFC"/>
<text x="16" y="183" text-anchor="middle" font-family="ui-monospace,Menlo,monospace" font-size="10" fill="#94A3B8" transform="rotate(-90 16 183)">Contributions</text>
</svg>