<svg xmlns="http://www.w3.org/2000/svg" width="900" height="340" viewBox="0 0 900 340" role="img" aria-label="Contribution activity, last 6 months">
<defs>
<linearGradient id="bg" x1="0" y1="0" x2="0" y2="1"><stop offset="0" stop-color="#0F172A"/><stop offset="1" stop-color="#0B1120"/></linearGradient>
<linearGradient id="area" x1="0" y1="0" x2="0" y2="1"><stop offset="0" stop-color="#22C55E" stop-opacity="0.42"/><stop offset="0.7" stop-color="#22C55E" stop-opacity="0.08"/><stop offset="1" stop-color="#22C55E" stop-opacity="0"/></linearGradient>
</defs>
<rect x="0" y="0" width="900" height="340" rx="14" fill="url(#bg)"/>
<text x="450" y="32" text-anchor="middle" font-family="ui-monospace,Menlo,monospace" font-size="17" font-weight="700" fill="#F8FAFC" letter-spacing="0.5">last 6 months</text>
<text x="450" y="50" text-anchor="middle" font-family="ui-monospace,Menlo,monospace" font-size="11" fill="#94A3B8">4,157 contributions · peak 282</text>
<line x1="58" y1="302.0" x2="874" y2="302.0" stroke="#1E293B" stroke-width="1" stroke-dasharray="2 4"/>
<text x="48" y="305.5" text-anchor="end" font-family="ui-monospace,Menlo,monospace" font-size="10" fill="#94A3B8">0</text>
<line x1="58" y1="242.5" x2="874" y2="242.5" stroke="#1E293B" stroke-width="1" stroke-dasharray="2 4"/>
<text x="48" y="246.0" text-anchor="end" font-family="ui-monospace,Menlo,monospace" font-size="10" fill="#94A3B8">75</text>
<line x1="58" y1="183.0" x2="874" y2="183.0" stroke="#1E293B" stroke-width="1" stroke-dasharray="2 4"/>
<text x="48" y="186.5" text-anchor="end" font-family="ui-monospace,Menlo,monospace" font-size="10" fill="#94A3B8">150</text>
<line x1="58" y1="123.5" x2="874" y2="123.5" stroke="#1E293B" stroke-width="1" stroke-dasharray="2 4"/>
<text x="48" y="127.0" text-anchor="end" font-family="ui-monospace,Menlo,monospace" font-size="10" fill="#94A3B8">225</text>
<line x1="58" y1="64.0" x2="874" y2="64.0" stroke="#1E293B" stroke-width="1" stroke-dasharray="2 4"/>
<text x="48" y="67.5" text-anchor="end" font-family="ui-monospace,Menlo,monospace" font-size="10" fill="#94A3B8">300</text>
<line x1="125.6" y1="64" x2="125.6" y2="302" stroke="#1E293B" stroke-width="1" stroke-opacity="0.6"/>
<text x="125.6" y="322" text-anchor="middle" font-family="ui-monospace,Menlo,monospace" font-size="10" fill="#94A3B8">Feb</text>
<line x1="251.9" y1="64" x2="251.9" y2="302" stroke="#1E293B" stroke-width="1" stroke-opacity="0.6"/>
<text x="251.9" y="322" text-anchor="middle" font-family="ui-monospace,Menlo,monospace" font-size="10" fill="#94A3B8">Mar</text>
<line x1="391.6" y1="64" x2="391.6" y2="302" stroke="#1E293B" stroke-width="1" stroke-opacity="0.6"/>
<text x="391.6" y="322" text-anchor="middle" font-family="ui-monospace,Menlo,monospace" font-size="10" fill="#94A3B8">Apr</text>
<line x1="526.9" y1="64" x2="526.9" y2="302" stroke="#1E293B" stroke-width="1" stroke-opacity="0.6"/>
<text x="526.9" y="322" text-anchor="middle" font-family="ui-monospace,Menlo,monospace" font-size="10" fill="#94A3B8">May</text>
<line x1="666.6" y1="64" x2="666.6" y2="302" stroke="#1E293B" stroke-width="1" stroke-opacity="0.6"/>
<text x="666.6" y="322" text-anchor="middle" font-family="ui-monospace,Menlo,monospace" font-size="10" fill="#94A3B8">Jun</text>
<line x1="801.9" y1="64" x2="801.9" y2="302" stroke="#1E293B" stroke-width="1" stroke-opacity="0.6"/>
<text x="801.9" y="322" text-anchor="middle" font-family="ui-monospace,Menlo,monospace" font-size="10" fill="#94A3B8">Jul</text>
<path d="M 58.00 267.09 C 58.75 267.89 61.01 268.42 62.51 271.85 C 64.01 275.29 65.51 284.55 67.02 287.72 C 68.52 290.89 70.02 288.78 71.52 290.89 C 73.03 293.01 74.53 298.96 76.03 300.41 C 77.54 301.87 79.04 299.49 80.54 299.62 C 82.04 299.75 83.55 300.81 85.05 301.21 C 86.55 301.60 88.06 301.87 89.56 302.00 C 91.06 302.13 92.56 302.00 94.07 302.00 C 95.57 302.00 97.07 305.44 98.57 302.00 C 100.08 298.56 101.58 282.43 103.08 281.37 C 104.59 280.32 106.09 296.98 107.59 295.65 C 109.09 294.33 110.60 273.57 112.10 273.44 C 113.60 273.31 115.10 293.41 116.61 294.86 C 118.11 296.31 119.61 282.17 121.12 282.17 C 122.62 282.17 124.12 296.18 125.62 294.86 C 127.13 293.54 128.63 275.95 130.13 274.23 C 131.64 272.51 133.14 281.64 134.64 284.55 C 136.14 287.46 137.65 288.78 139.15 291.69 C 140.65 294.60 142.15 303.59 143.66 302.00 C 145.16 300.41 146.66 283.22 148.17 282.17 C 149.67 281.11 151.17 292.35 152.67 295.65 C 154.18 298.96 155.68 301.34 157.18 302.00 C 158.69 302.66 160.19 303.98 161.69 299.62 C 163.19 295.26 164.70 303.45 166.20 275.82 C 167.70 248.19 169.20 133.95 170.71 133.81 C 172.21 133.68 173.71 249.51 175.22 275.03 C 176.72 300.55 178.22 282.43 179.72 286.93 C 181.23 291.42 182.73 301.87 184.23 302.00 C 185.73 302.13 187.24 287.98 188.74 287.72 C 190.24 287.46 191.75 300.28 193.25 300.41 C 194.75 300.55 196.25 289.44 197.76 288.51 C 199.26 287.59 200.76 295.65 202.27 294.86 C 203.77 294.07 205.27 285.74 206.77 283.75 C 208.28 281.77 209.78 284.41 211.28 282.96 C 212.78 281.51 214.29 272.91 215.79 275.03 C 217.29 277.14 218.80 291.16 220.30 295.65 C 221.80 300.15 223.30 303.85 224.81 302.00 C 226.31 300.15 227.81 287.59 229.31 284.55 C 230.82 281.51 232.32 282.03 233.82 283.75 C 235.33 285.47 236.83 294.60 238.33 294.86 C 239.83 295.12 241.34 285.60 242.84 285.34 C 244.34 285.08 245.85 292.35 247.35 293.27 C 248.85 294.20 250.35 291.16 251.86 290.89 C 253.36 290.63 254.86 290.50 256.36 291.69 C 257.87 292.88 259.37 296.31 260.87 298.03 C 262.38 299.75 263.88 302.26 265.38 302.00 C 266.88 301.74 268.39 296.45 269.89 296.45 C 271.39 296.45 272.90 301.07 274.40 302.00 C 275.90 302.93 277.40 302.00 278.91 302.00 C 280.41 302.00 281.91 302.00 283.41 302.00 C 284.92 302.00 286.42 303.19 287.92 302.00 C 289.43 300.81 290.93 294.86 292.43 294.86 C 293.93 294.86 295.44 300.81 296.94 302.00 C 298.44 303.19 299.94 303.45 301.45 302.00 C 302.95 300.55 304.45 293.93 305.96 293.27 C 307.46 292.61 308.96 296.58 310.46 298.03 C 311.97 299.49 313.47 301.34 314.97 302.00 C 316.48 302.66 317.98 302.40 319.48 302.00 C 320.98 301.60 322.49 299.88 323.99 299.62 C 325.49 299.36 326.99 300.81 328.50 300.41 C 330.00 300.02 331.50 300.81 333.01 297.24 C 334.51 293.67 336.01 279.26 337.51 278.99 C 339.02 278.73 340.52 291.82 342.02 295.65 C 343.52 299.49 345.03 302.40 346.53 302.00 C 348.03 301.60 349.54 297.11 351.04 293.27 C 352.54 289.44 354.04 279.39 355.55 278.99 C 357.05 278.60 358.55 287.19 360.06 290.89 C 361.56 294.60 363.06 303.72 364.56 301.21 C 366.07 298.69 367.57 280.98 369.07 275.82 C 370.57 270.66 372.08 269.74 373.58 270.27 C 375.08 270.80 376.59 274.63 378.09 278.99 C 379.59 283.36 381.09 292.61 382.60 296.45 C 384.10 300.28 385.60 301.47 387.10 302.00 C 388.61 302.53 390.11 299.62 391.61 299.62 C 393.12 299.62 394.62 301.60 396.12 302.00 C 397.62 302.40 399.13 302.00 400.63 302.00 C 402.13 302.00 403.64 304.64 405.14 302.00 C 406.64 299.36 408.14 288.65 409.65 286.13 C 411.15 283.62 412.65 285.21 414.15 286.93 C 415.66 288.65 417.16 294.46 418.66 296.45 C 420.17 298.43 421.67 298.30 423.17 298.83 C 424.67 299.36 426.18 299.09 427.68 299.62 C 429.18 300.15 430.69 302.40 432.19 302.00 C 433.69 301.60 435.19 297.64 436.70 297.24 C 438.20 296.84 439.70 301.21 441.20 299.62 C 442.71 298.03 444.21 288.12 445.71 287.72 C 447.22 287.32 448.72 295.92 450.22 297.24 C 451.72 298.56 453.23 296.58 454.73 295.65 C 456.23 294.73 457.73 299.75 459.24 291.69 C 460.74 283.62 462.24 251.49 463.75 247.26 C 465.25 243.03 466.75 294.46 468.25 266.30 C 469.76 238.14 471.26 100.49 472.76 78.28 C 474.27 56.07 475.77 108.29 477.27 133.02 C 478.77 157.75 480.28 207.06 481.78 226.63 C 483.28 246.20 484.78 249.11 486.29 250.43 C 487.79 251.76 489.29 230.47 490.80 234.57 C 492.30 238.67 493.80 263.79 495.30 275.03 C 496.81 286.27 498.31 298.30 499.81 302.00 C 501.31 305.70 502.82 297.77 504.32 297.24 C 505.82 296.71 507.33 301.87 508.83 298.83 C 510.33 295.79 511.83 278.99 513.34 278.99 C 514.84 278.99 516.34 300.28 517.85 298.83 C 519.35 297.37 520.85 275.82 522.35 270.27 C 523.86 264.71 525.36 260.22 526.86 265.51 C 528.36 270.80 529.87 297.24 531.37 302.00 C 532.87 306.76 534.38 294.07 535.88 294.07 C 537.38 294.07 538.88 302.53 540.39 302.00 C 541.89 301.47 543.39 292.22 544.90 290.89 C 546.40 289.57 547.90 303.59 549.40 294.07 C 550.91 284.55 552.41 238.40 553.91 233.77 C 555.41 229.15 556.92 267.62 558.42 266.30 C 559.92 264.98 561.43 228.75 562.93 225.84 C 564.43 222.93 565.93 249.24 567.44 248.85 C 568.94 248.45 570.44 222.80 571.94 223.46 C 573.45 224.12 574.95 249.11 576.45 252.81 C 577.96 256.52 579.46 238.00 580.96 245.67 C 582.46 253.34 583.97 292.22 585.47 298.83 C 586.97 305.44 588.48 289.70 589.98 285.34 C 591.48 280.98 592.98 287.72 594.49 272.65 C 595.99 257.57 597.49 195.30 598.99 194.90 C 600.50 194.50 602.00 253.08 603.50 270.27 C 605.01 287.46 606.51 293.80 608.01 298.03 C 609.51 302.26 611.02 296.18 612.52 295.65 C 614.02 295.12 615.52 297.50 617.03 294.86 C 618.53 292.22 620.03 281.24 621.54 279.79 C 623.04 278.33 624.54 282.96 626.04 286.13 C 627.55 289.31 629.05 297.50 630.55 298.83 C 632.06 300.15 633.56 294.86 635.06 294.07 C 636.56 293.27 638.07 293.01 639.57 294.07 C 641.07 295.12 642.57 299.88 644.08 300.41 C 645.58 300.94 647.08 297.24 648.59 297.24 C 650.09 297.24 651.59 299.88 653.09 300.41 C 654.60 300.94 656.10 309.54 657.60 300.41 C 659.10 291.29 660.61 248.19 662.11 245.67 C 663.61 243.16 665.12 282.83 666.62 285.34 C 668.12 287.85 669.62 260.09 671.13 260.75 C 672.63 261.41 674.13 285.21 675.64 289.31 C 677.14 293.41 678.64 283.62 680.14 285.34 C 681.65 287.06 683.15 297.11 684.65 299.62 C 686.15 302.13 687.66 300.28 689.16 300.41 C 690.66 300.55 692.17 300.41 693.67 300.41 C 695.17 300.41 696.67 300.81 698.18 300.41 C 699.68 300.02 701.18 305.57 702.69 298.03 C 704.19 290.50 705.69 255.99 707.19 255.19 C 708.70 254.40 710.20 289.57 711.70 293.27 C 713.20 296.98 714.71 277.67 716.21 277.41 C 717.71 277.14 719.22 291.55 720.72 291.69 C 722.22 291.82 723.72 279.13 725.23 278.20 C 726.73 277.27 728.23 282.70 729.73 286.13 C 731.24 289.57 732.74 296.45 734.24 298.83 C 735.75 301.21 737.25 300.15 738.75 300.41 C 740.25 300.68 741.76 300.41 743.26 300.41 C 744.76 300.41 746.27 300.55 747.77 300.41 C 749.27 300.28 750.77 302.93 752.28 299.62 C 753.78 296.31 755.28 280.71 756.78 280.58 C 758.29 280.45 759.79 299.49 761.29 298.83 C 762.80 298.17 764.30 276.35 765.80 276.61 C 767.30 276.88 768.81 298.03 770.31 300.41 C 771.81 302.79 773.31 302.66 774.82 290.89 C 776.32 279.13 777.82 237.08 779.33 229.81 C 780.83 222.53 782.33 241.44 783.83 247.26 C 785.34 253.08 786.84 260.09 788.34 264.71 C 789.85 269.34 791.35 269.34 792.85 275.03 C 794.35 280.71 795.86 299.49 797.36 298.83 C 798.86 298.17 800.36 274.37 801.87 271.06 C 803.37 267.75 804.87 277.80 806.38 278.99 C 807.88 280.18 809.38 276.35 810.88 278.20 C 812.39 280.05 813.89 287.72 815.39 290.10 C 816.90 292.48 818.40 291.03 819.90 292.48 C 821.40 293.93 822.91 300.28 824.41 298.83 C 825.91 297.37 827.41 284.55 828.92 283.75 C 830.42 282.96 831.92 293.93 833.43 294.07 C 834.93 294.20 836.43 284.28 837.93 284.55 C 839.44 284.81 840.94 293.01 842.44 295.65 C 843.94 298.30 845.45 304.12 846.95 300.41 C 848.45 296.71 849.96 279.52 851.46 273.44 C 852.96 267.36 854.46 261.01 855.97 263.92 C 857.47 266.83 858.97 284.81 860.48 290.89 C 861.98 296.98 863.48 298.83 864.98 300.41 C 866.49 302.00 867.99 300.28 869.49 300.41 C 870.99 300.55 873.25 301.07 874.00 301.21 L 874.00 302.00 L 58.00 302.00 Z" fill="url(#area)"/>
<path d="M 58.00 267.09 C 58.75 267.89 61.01 268.42 62.51 271.85 C 64.01 275.29 65.51 284.55 67.02 287.72 C 68.52 290.89 70.02 288.78 71.52 290.89 C 73.03 293.01 74.53 298.96 76.03 300.41 C 77.54 301.87 79.04 299.49 80.54 299.62 C 82.04 299.75 83.55 300.81 85.05 301.21 C 86.55 301.60 88.06 301.87 89.56 302.00 C 91.06 302.13 92.56 302.00 94.07 302.00 C 95.57 302.00 97.07 305.44 98.57 302.00 C 100.08 298.56 101.58 282.43 103.08 281.37 C 104.59 280.32 106.09 296.98 107.59 295.65 C 109.09 294.33 110.60 273.57 112.10 273.44 C 113.60 273.31 115.10 293.41 116.61 294.86 C 118.11 296.31 119.61 282.17 121.12 282.17 C 122.62 282.17 124.12 296.18 125.62 294.86 C 127.13 293.54 128.63 275.95 130.13 274.23 C 131.64 272.51 133.14 281.64 134.64 284.55 C 136.14 287.46 137.65 288.78 139.15 291.69 C 140.65 294.60 142.15 303.59 143.66 302.00 C 145.16 300.41 146.66 283.22 148.17 282.17 C 149.67 281.11 151.17 292.35 152.67 295.65 C 154.18 298.96 155.68 301.34 157.18 302.00 C 158.69 302.66 160.19 303.98 161.69 299.62 C 163.19 295.26 164.70 303.45 166.20 275.82 C 167.70 248.19 169.20 133.95 170.71 133.81 C 172.21 133.68 173.71 249.51 175.22 275.03 C 176.72 300.55 178.22 282.43 179.72 286.93 C 181.23 291.42 182.73 301.87 184.23 302.00 C 185.73 302.13 187.24 287.98 188.74 287.72 C 190.24 287.46 191.75 300.28 193.25 300.41 C 194.75 300.55 196.25 289.44 197.76 288.51 C 199.26 287.59 200.76 295.65 202.27 294.86 C 203.77 294.07 205.27 285.74 206.77 283.75 C 208.28 281.77 209.78 284.41 211.28 282.96 C 212.78 281.51 214.29 272.91 215.79 275.03 C 217.29 277.14 218.80 291.16 220.30 295.65 C 221.80 300.15 223.30 303.85 224.81 302.00 C 226.31 300.15 227.81 287.59 229.31 284.55 C 230.82 281.51 232.32 282.03 233.82 283.75 C 235.33 285.47 236.83 294.60 238.33 294.86 C 239.83 295.12 241.34 285.60 242.84 285.34 C 244.34 285.08 245.85 292.35 247.35 293.27 C 248.85 294.20 250.35 291.16 251.86 290.89 C 253.36 290.63 254.86 290.50 256.36 291.69 C 257.87 292.88 259.37 296.31 260.87 298.03 C 262.38 299.75 263.88 302.26 265.38 302.00 C 266.88 301.74 268.39 296.45 269.89 296.45 C 271.39 296.45 272.90 301.07 274.40 302.00 C 275.90 302.93 277.40 302.00 278.91 302.00 C 280.41 302.00 281.91 302.00 283.41 302.00 C 284.92 302.00 286.42 303.19 287.92 302.00 C 289.43 300.81 290.93 294.86 292.43 294.86 C 293.93 294.86 295.44 300.81 296.94 302.00 C 298.44 303.19 299.94 303.45 301.45 302.00 C 302.95 300.55 304.45 293.93 305.96 293.27 C 307.46 292.61 308.96 296.58 310.46 298.03 C 311.97 299.49 313.47 301.34 314.97 302.00 C 316.48 302.66 317.98 302.40 319.48 302.00 C 320.98 301.60 322.49 299.88 323.99 299.62 C 325.49 299.36 326.99 300.81 328.50 300.41 C 330.00 300.02 331.50 300.81 333.01 297.24 C 334.51 293.67 336.01 279.26 337.51 278.99 C 339.02 278.73 340.52 291.82 342.02 295.65 C 343.52 299.49 345.03 302.40 346.53 302.00 C 348.03 301.60 349.54 297.11 351.04 293.27 C 352.54 289.44 354.04 279.39 355.55 278.99 C 357.05 278.60 358.55 287.19 360.06 290.89 C 361.56 294.60 363.06 303.72 364.56 301.21 C 366.07 298.69 367.57 280.98 369.07 275.82 C 370.57 270.66 372.08 269.74 373.58 270.27 C 375.08 270.80 376.59 274.63 378.09 278.99 C 379.59 283.36 381.09 292.61 382.60 296.45 C 384.10 300.28 385.60 301.47 387.10 302.00 C 388.61 302.53 390.11 299.62 391.61 299.62 C 393.12 299.62 394.62 301.60 396.12 302.00 C 397.62 302.40 399.13 302.00 400.63 302.00 C 402.13 302.00 403.64 304.64 405.14 302.00 C 406.64 299.36 408.14 288.65 409.65 286.13 C 411.15 283.62 412.65 285.21 414.15 286.93 C 415.66 288.65 417.16 294.46 418.66 296.45 C 420.17 298.43 421.67 298.30 423.17 298.83 C 424.67 299.36 426.18 299.09 427.68 299.62 C 429.18 300.15 430.69 302.40 432.19 302.00 C 433.69 301.60 435.19 297.64 436.70 297.24 C 438.20 296.84 439.70 301.21 441.20 299.62 C 442.71 298.03 444.21 288.12 445.71 287.72 C 447.22 287.32 448.72 295.92 450.22 297.24 C 451.72 298.56 453.23 296.58 454.73 295.65 C 456.23 294.73 457.73 299.75 459.24 291.69 C 460.74 283.62 462.24 251.49 463.75 247.26 C 465.25 243.03 466.75 294.46 468.25 266.30 C 469.76 238.14 471.26 100.49 472.76 78.28 C 474.27 56.07 475.77 108.29 477.27 133.02 C 478.77 157.75 480.28 207.06 481.78 226.63 C 483.28 246.20 484.78 249.11 486.29 250.43 C 487.79 251.76 489.29 230.47 490.80 234.57 C 492.30 238.67 493.80 263.79 495.30 275.03 C 496.81 286.27 498.31 298.30 499.81 302.00 C 501.31 305.70 502.82 297.77 504.32 297.24 C 505.82 296.71 507.33 301.87 508.83 298.83 C 510.33 295.79 511.83 278.99 513.34 278.99 C 514.84 278.99 516.34 300.28 517.85 298.83 C 519.35 297.37 520.85 275.82 522.35 270.27 C 523.86 264.71 525.36 260.22 526.86 265.51 C 528.36 270.80 529.87 297.24 531.37 302.00 C 532.87 306.76 534.38 294.07 535.88 294.07 C 537.38 294.07 538.88 302.53 540.39 302.00 C 541.89 301.47 543.39 292.22 544.90 290.89 C 546.40 289.57 547.90 303.59 549.40 294.07 C 550.91 284.55 552.41 238.40 553.91 233.77 C 555.41 229.15 556.92 267.62 558.42 266.30 C 559.92 264.98 561.43 228.75 562.93 225.84 C 564.43 222.93 565.93 249.24 567.44 248.85 C 568.94 248.45 570.44 222.80 571.94 223.46 C 573.45 224.12 574.95 249.11 576.45 252.81 C 577.96 256.52 579.46 238.00 580.96 245.67 C 582.46 253.34 583.97 292.22 585.47 298.83 C 586.97 305.44 588.48 289.70 589.98 285.34 C 591.48 280.98 592.98 287.72 594.49 272.65 C 595.99 257.57 597.49 195.30 598.99 194.90 C 600.50 194.50 602.00 253.08 603.50 270.27 C 605.01 287.46 606.51 293.80 608.01 298.03 C 609.51 302.26 611.02 296.18 612.52 295.65 C 614.02 295.12 615.52 297.50 617.03 294.86 C 618.53 292.22 620.03 281.24 621.54 279.79 C 623.04 278.33 624.54 282.96 626.04 286.13 C 627.55 289.31 629.05 297.50 630.55 298.83 C 632.06 300.15 633.56 294.86 635.06 294.07 C 636.56 293.27 638.07 293.01 639.57 294.07 C 641.07 295.12 642.57 299.88 644.08 300.41 C 645.58 300.94 647.08 297.24 648.59 297.24 C 650.09 297.24 651.59 299.88 653.09 300.41 C 654.60 300.94 656.10 309.54 657.60 300.41 C 659.10 291.29 660.61 248.19 662.11 245.67 C 663.61 243.16 665.12 282.83 666.62 285.34 C 668.12 287.85 669.62 260.09 671.13 260.75 C 672.63 261.41 674.13 285.21 675.64 289.31 C 677.14 293.41 678.64 283.62 680.14 285.34 C 681.65 287.06 683.15 297.11 684.65 299.62 C 686.15 302.13 687.66 300.28 689.16 300.41 C 690.66 300.55 692.17 300.41 693.67 300.41 C 695.17 300.41 696.67 300.81 698.18 300.41 C 699.68 300.02 701.18 305.57 702.69 298.03 C 704.19 290.50 705.69 255.99 707.19 255.19 C 708.70 254.40 710.20 289.57 711.70 293.27 C 713.20 296.98 714.71 277.67 716.21 277.41 C 717.71 277.14 719.22 291.55 720.72 291.69 C 722.22 291.82 723.72 279.13 725.23 278.20 C 726.73 277.27 728.23 282.70 729.73 286.13 C 731.24 289.57 732.74 296.45 734.24 298.83 C 735.75 301.21 737.25 300.15 738.75 300.41 C 740.25 300.68 741.76 300.41 743.26 300.41 C 744.76 300.41 746.27 300.55 747.77 300.41 C 749.27 300.28 750.77 302.93 752.28 299.62 C 753.78 296.31 755.28 280.71 756.78 280.58 C 758.29 280.45 759.79 299.49 761.29 298.83 C 762.80 298.17 764.30 276.35 765.80 276.61 C 767.30 276.88 768.81 298.03 770.31 300.41 C 771.81 302.79 773.31 302.66 774.82 290.89 C 776.32 279.13 777.82 237.08 779.33 229.81 C 780.83 222.53 782.33 241.44 783.83 247.26 C 785.34 253.08 786.84 260.09 788.34 264.71 C 789.85 269.34 791.35 269.34 792.85 275.03 C 794.35 280.71 795.86 299.49 797.36 298.83 C 798.86 298.17 800.36 274.37 801.87 271.06 C 803.37 267.75 804.87 277.80 806.38 278.99 C 807.88 280.18 809.38 276.35 810.88 278.20 C 812.39 280.05 813.89 287.72 815.39 290.10 C 816.90 292.48 818.40 291.03 819.90 292.48 C 821.40 293.93 822.91 300.28 824.41 298.83 C 825.91 297.37 827.41 284.55 828.92 283.75 C 830.42 282.96 831.92 293.93 833.43 294.07 C 834.93 294.20 836.43 284.28 837.93 284.55 C 839.44 284.81 840.94 293.01 842.44 295.65 C 843.94 298.30 845.45 304.12 846.95 300.41 C 848.45 296.71 849.96 279.52 851.46 273.44 C 852.96 267.36 854.46 261.01 855.97 263.92 C 857.47 266.83 858.97 284.81 860.48 290.89 C 861.98 296.98 863.48 298.83 864.98 300.41 C 866.49 302.00 867.99 300.28 869.49 300.41 C 870.99 300.55 873.25 301.07 874.00 301.21" fill="none" stroke="#22C55E" stroke-opacity="0.20" stroke-width="7" stroke-linecap="round" stroke-linejoin="round"/>
<path d="M 58.00 267.09 C 58.75 267.89 61.01 268.42 62.51 271.85 C 64.01 275.29 65.51 284.55 67.02 287.72 C 68.52 290.89 70.02 288.78 71.52 290.89 C 73.03 293.01 74.53 298.96 76.03 300.41 C 77.54 301.87 79.04 299.49 80.54 299.62 C 82.04 299.75 83.55 300.81 85.05 301.21 C 86.55 301.60 88.06 301.87 89.56 302.00 C 91.06 302.13 92.56 302.00 94.07 302.00 C 95.57 302.00 97.07 305.44 98.57 302.00 C 100.08 298.56 101.58 282.43 103.08 281.37 C 104.59 280.32 106.09 296.98 107.59 295.65 C 109.09 294.33 110.60 273.57 112.10 273.44 C 113.60 273.31 115.10 293.41 116.61 294.86 C 118.11 296.31 119.61 282.17 121.12 282.17 C 122.62 282.17 124.12 296.18 125.62 294.86 C 127.13 293.54 128.63 275.95 130.13 274.23 C 131.64 272.51 133.14 281.64 134.64 284.55 C 136.14 287.46 137.65 288.78 139.15 291.69 C 140.65 294.60 142.15 303.59 143.66 302.00 C 145.16 300.41 146.66 283.22 148.17 282.17 C 149.67 281.11 151.17 292.35 152.67 295.65 C 154.18 298.96 155.68 301.34 157.18 302.00 C 158.69 302.66 160.19 303.98 161.69 299.62 C 163.19 295.26 164.70 303.45 166.20 275.82 C 167.70 248.19 169.20 133.95 170.71 133.81 C 172.21 133.68 173.71 249.51 175.22 275.03 C 176.72 300.55 178.22 282.43 179.72 286.93 C 181.23 291.42 182.73 301.87 184.23 302.00 C 185.73 302.13 187.24 287.98 188.74 287.72 C 190.24 287.46 191.75 300.28 193.25 300.41 C 194.75 300.55 196.25 289.44 197.76 288.51 C 199.26 287.59 200.76 295.65 202.27 294.86 C 203.77 294.07 205.27 285.74 206.77 283.75 C 208.28 281.77 209.78 284.41 211.28 282.96 C 212.78 281.51 214.29 272.91 215.79 275.03 C 217.29 277.14 218.80 291.16 220.30 295.65 C 221.80 300.15 223.30 303.85 224.81 302.00 C 226.31 300.15 227.81 287.59 229.31 284.55 C 230.82 281.51 232.32 282.03 233.82 283.75 C 235.33 285.47 236.83 294.60 238.33 294.86 C 239.83 295.12 241.34 285.60 242.84 285.34 C 244.34 285.08 245.85 292.35 247.35 293.27 C 248.85 294.20 250.35 291.16 251.86 290.89 C 253.36 290.63 254.86 290.50 256.36 291.69 C 257.87 292.88 259.37 296.31 260.87 298.03 C 262.38 299.75 263.88 302.26 265.38 302.00 C 266.88 301.74 268.39 296.45 269.89 296.45 C 271.39 296.45 272.90 301.07 274.40 302.00 C 275.90 302.93 277.40 302.00 278.91 302.00 C 280.41 302.00 281.91 302.00 283.41 302.00 C 284.92 302.00 286.42 303.19 287.92 302.00 C 289.43 300.81 290.93 294.86 292.43 294.86 C 293.93 294.86 295.44 300.81 296.94 302.00 C 298.44 303.19 299.94 303.45 301.45 302.00 C 302.95 300.55 304.45 293.93 305.96 293.27 C 307.46 292.61 308.96 296.58 310.46 298.03 C 311.97 299.49 313.47 301.34 314.97 302.00 C 316.48 302.66 317.98 302.40 319.48 302.00 C 320.98 301.60 322.49 299.88 323.99 299.62 C 325.49 299.36 326.99 300.81 328.50 300.41 C 330.00 300.02 331.50 300.81 333.01 297.24 C 334.51 293.67 336.01 279.26 337.51 278.99 C 339.02 278.73 340.52 291.82 342.02 295.65 C 343.52 299.49 345.03 302.40 346.53 302.00 C 348.03 301.60 349.54 297.11 351.04 293.27 C 352.54 289.44 354.04 279.39 355.55 278.99 C 357.05 278.60 358.55 287.19 360.06 290.89 C 361.56 294.60 363.06 303.72 364.56 301.21 C 366.07 298.69 367.57 280.98 369.07 275.82 C 370.57 270.66 372.08 269.74 373.58 270.27 C 375.08 270.80 376.59 274.63 378.09 278.99 C 379.59 283.36 381.09 292.61 382.60 296.45 C 384.10 300.28 385.60 301.47 387.10 302.00 C 388.61 302.53 390.11 299.62 391.61 299.62 C 393.12 299.62 394.62 301.60 396.12 302.00 C 397.62 302.40 399.13 302.00 400.63 302.00 C 402.13 302.00 403.64 304.64 405.14 302.00 C 406.64 299.36 408.14 288.65 409.65 286.13 C 411.15 283.62 412.65 285.21 414.15 286.93 C 415.66 288.65 417.16 294.46 418.66 296.45 C 420.17 298.43 421.67 298.30 423.17 298.83 C 424.67 299.36 426.18 299.09 427.68 299.62 C 429.18 300.15 430.69 302.40 432.19 302.00 C 433.69 301.60 435.19 297.64 436.70 297.24 C 438.20 296.84 439.70 301.21 441.20 299.62 C 442.71 298.03 444.21 288.12 445.71 287.72 C 447.22 287.32 448.72 295.92 450.22 297.24 C 451.72 298.56 453.23 296.58 454.73 295.65 C 456.23 294.73 457.73 299.75 459.24 291.69 C 460.74 283.62 462.24 251.49 463.75 247.26 C 465.25 243.03 466.75 294.46 468.25 266.30 C 469.76 238.14 471.26 100.49 472.76 78.28 C 474.27 56.07 475.77 108.29 477.27 133.02 C 478.77 157.75 480.28 207.06 481.78 226.63 C 483.28 246.20 484.78 249.11 486.29 250.43 C 487.79 251.76 489.29 230.47 490.80 234.57 C 492.30 238.67 493.80 263.79 495.30 275.03 C 496.81 286.27 498.31 298.30 499.81 302.00 C 501.31 305.70 502.82 297.77 504.32 297.24 C 505.82 296.71 507.33 301.87 508.83 298.83 C 510.33 295.79 511.83 278.99 513.34 278.99 C 514.84 278.99 516.34 300.28 517.85 298.83 C 519.35 297.37 520.85 275.82 522.35 270.27 C 523.86 264.71 525.36 260.22 526.86 265.51 C 528.36 270.80 529.87 297.24 531.37 302.00 C 532.87 306.76 534.38 294.07 535.88 294.07 C 537.38 294.07 538.88 302.53 540.39 302.00 C 541.89 301.47 543.39 292.22 544.90 290.89 C 546.40 289.57 547.90 303.59 549.40 294.07 C 550.91 284.55 552.41 238.40 553.91 233.77 C 555.41 229.15 556.92 267.62 558.42 266.30 C 559.92 264.98 561.43 228.75 562.93 225.84 C 564.43 222.93 565.93 249.24 567.44 248.85 C 568.94 248.45 570.44 222.80 571.94 223.46 C 573.45 224.12 574.95 249.11 576.45 252.81 C 577.96 256.52 579.46 238.00 580.96 245.67 C 582.46 253.34 583.97 292.22 585.47 298.83 C 586.97 305.44 588.48 289.70 589.98 285.34 C 591.48 280.98 592.98 287.72 594.49 272.65 C 595.99 257.57 597.49 195.30 598.99 194.90 C 600.50 194.50 602.00 253.08 603.50 270.27 C 605.01 287.46 606.51 293.80 608.01 298.03 C 609.51 302.26 611.02 296.18 612.52 295.65 C 614.02 295.12 615.52 297.50 617.03 294.86 C 618.53 292.22 620.03 281.24 621.54 279.79 C 623.04 278.33 624.54 282.96 626.04 286.13 C 627.55 289.31 629.05 297.50 630.55 298.83 C 632.06 300.15 633.56 294.86 635.06 294.07 C 636.56 293.27 638.07 293.01 639.57 294.07 C 641.07 295.12 642.57 299.88 644.08 300.41 C 645.58 300.94 647.08 297.24 648.59 297.24 C 650.09 297.24 651.59 299.88 653.09 300.41 C 654.60 300.94 656.10 309.54 657.60 300.41 C 659.10 291.29 660.61 248.19 662.11 245.67 C 663.61 243.16 665.12 282.83 666.62 285.34 C 668.12 287.85 669.62 260.09 671.13 260.75 C 672.63 261.41 674.13 285.21 675.64 289.31 C 677.14 293.41 678.64 283.62 680.14 285.34 C 681.65 287.06 683.15 297.11 684.65 299.62 C 686.15 302.13 687.66 300.28 689.16 300.41 C 690.66 300.55 692.17 300.41 693.67 300.41 C 695.17 300.41 696.67 300.81 698.18 300.41 C 699.68 300.02 701.18 305.57 702.69 298.03 C 704.19 290.50 705.69 255.99 707.19 255.19 C 708.70 254.40 710.20 289.57 711.70 293.27 C 713.20 296.98 714.71 277.67 716.21 277.41 C 717.71 277.14 719.22 291.55 720.72 291.69 C 722.22 291.82 723.72 279.13 725.23 278.20 C 726.73 277.27 728.23 282.70 729.73 286.13 C 731.24 289.57 732.74 296.45 734.24 298.83 C 735.75 301.21 737.25 300.15 738.75 300.41 C 740.25 300.68 741.76 300.41 743.26 300.41 C 744.76 300.41 746.27 300.55 747.77 300.41 C 749.27 300.28 750.77 302.93 752.28 299.62 C 753.78 296.31 755.28 280.71 756.78 280.58 C 758.29 280.45 759.79 299.49 761.29 298.83 C 762.80 298.17 764.30 276.35 765.80 276.61 C 767.30 276.88 768.81 298.03 770.31 300.41 C 771.81 302.79 773.31 302.66 774.82 290.89 C 776.32 279.13 777.82 237.08 779.33 229.81 C 780.83 222.53 782.33 241.44 783.83 247.26 C 785.34 253.08 786.84 260.09 788.34 264.71 C 789.85 269.34 791.35 269.34 792.85 275.03 C 794.35 280.71 795.86 299.49 797.36 298.83 C 798.86 298.17 800.36 274.37 801.87 271.06 C 803.37 267.75 804.87 277.80 806.38 278.99 C 807.88 280.18 809.38 276.35 810.88 278.20 C 812.39 280.05 813.89 287.72 815.39 290.10 C 816.90 292.48 818.40 291.03 819.90 292.48 C 821.40 293.93 822.91 300.28 824.41 298.83 C 825.91 297.37 827.41 284.55 828.92 283.75 C 830.42 282.96 831.92 293.93 833.43 294.07 C 834.93 294.20 836.43 284.28 837.93 284.55 C 839.44 284.81 840.94 293.01 842.44 295.65 C 843.94 298.30 845.45 304.12 846.95 300.41 C 848.45 296.71 849.96 279.52 851.46 273.44 C 852.96 267.36 854.46 261.01 855.97 263.92 C 857.47 266.83 858.97 284.81 860.48 290.89 C 861.98 296.98 863.48 298.83 864.98 300.41 C 866.49 302.00 867.99 300.28 869.49 300.41 C 870.99 300.55 873.25 301.07 874.00 301.21" fill="none" stroke="#22C55E" stroke-width="2.4" stroke-linecap="round" stroke-linejoin="round"/>
<circle cx="472.8" cy="78.3" r="4.5" fill="#4ADE80" stroke="#0B1120" stroke-width="2"/>
<text x="472.8" y="68.3" text-anchor="middle" font-family="ui-monospace,Menlo,monospace" font-size="10" font-weight="700" fill="#4ADE80">282</text>
<circle cx="874.0" cy="301.2" r="3.5" fill="#F8FAFC"/>
<text x="16" y="183" text-anchor="middle" font-family="ui-monospace,Menlo,monospace" font-size="10" fill="#94A3B8" transform="rotate(-90 16 183)">Contributions</text>
</svg>