<svg xmlns="http://www.w3.org/2000/svg" width="900" height="340" viewBox="0 0 900 340" role="img" aria-label="Contribution activity, last 6 months">
<defs>
<linearGradient id="bg" x1="0" y1="0" x2="0" y2="1"><stop offset="0" stop-color="#0F172A"/><stop offset="1" stop-color="#0B1120"/></linearGradient>
<linearGradient id="area" x1="0" y1="0" x2="0" y2="1"><stop offset="0" stop-color="#22C55E" stop-opacity="0.42"/><stop offset="0.7" stop-color="#22C55E" stop-opacity="0.08"/><stop offset="1" stop-color="#22C55E" stop-opacity="0"/></linearGradient>
</defs>
<rect x="0" y="0" width="900" height="340" rx="14" fill="url(#bg)"/>
<text x="450" y="32" text-anchor="middle" font-family="ui-monospace,Menlo,monospace" font-size="17" font-weight="700" fill="#F8FAFC" letter-spacing="0.5">last 6 months</text>
<text x="450" y="50" text-anchor="middle" font-family="ui-monospace,Menlo,monospace" font-size="11" fill="#94A3B8">3,931 contributions · peak 282</text>
<line x1="58" y1="302.0" x2="874" y2="302.0" stroke="#1E293B" stroke-width="1" stroke-dasharray="2 4"/>
<text x="48" y="305.5" text-anchor="end" font-family="ui-monospace,Menlo,monospace" font-size="10" fill="#94A3B8">0</text>
<line x1="58" y1="242.5" x2="874" y2="242.5" stroke="#1E293B" stroke-width="1" stroke-dasharray="2 4"/>
<text x="48" y="246.0" text-anchor="end" font-family="ui-monospace,Menlo,monospace" font-size="10" fill="#94A3B8">75</text>
<line x1="58" y1="183.0" x2="874" y2="183.0" stroke="#1E293B" stroke-width="1" stroke-dasharray="2 4"/>
<text x="48" y="186.5" text-anchor="end" font-family="ui-monospace,Menlo,monospace" font-size="10" fill="#94A3B8">150</text>
<line x1="58" y1="123.5" x2="874" y2="123.5" stroke="#1E293B" stroke-width="1" stroke-dasharray="2 4"/>
<text x="48" y="127.0" text-anchor="end" font-family="ui-monospace,Menlo,monospace" font-size="10" fill="#94A3B8">225</text>
<line x1="58" y1="64.0" x2="874" y2="64.0" stroke="#1E293B" stroke-width="1" stroke-dasharray="2 4"/>
<text x="48" y="67.5" text-anchor="end" font-family="ui-monospace,Menlo,monospace" font-size="10" fill="#94A3B8">300</text>
<line x1="67.0" y1="64" x2="67.0" y2="302" stroke="#1E293B" stroke-width="1" stroke-opacity="0.6"/>
<text x="67.0" y="322" text-anchor="middle" font-family="ui-monospace,Menlo,monospace" font-size="10" fill="#94A3B8">Jan</text>
<line x1="206.8" y1="64" x2="206.8" y2="302" stroke="#1E293B" stroke-width="1" stroke-opacity="0.6"/>
<text x="206.8" y="322" text-anchor="middle" font-family="ui-monospace,Menlo,monospace" font-size="10" fill="#94A3B8">Feb</text>
<line x1="333.0" y1="64" x2="333.0" y2="302" stroke="#1E293B" stroke-width="1" stroke-opacity="0.6"/>
<text x="333.0" y="322" text-anchor="middle" font-family="ui-monospace,Menlo,monospace" font-size="10" fill="#94A3B8">Mar</text>
<line x1="472.8" y1="64" x2="472.8" y2="302" stroke="#1E293B" stroke-width="1" stroke-opacity="0.6"/>
<text x="472.8" y="322" text-anchor="middle" font-family="ui-monospace,Menlo,monospace" font-size="10" fill="#94A3B8">Apr</text>
<line x1="608.0" y1="64" x2="608.0" y2="302" stroke="#1E293B" stroke-width="1" stroke-opacity="0.6"/>
<text x="608.0" y="322" text-anchor="middle" font-family="ui-monospace,Menlo,monospace" font-size="10" fill="#94A3B8">May</text>
<line x1="747.8" y1="64" x2="747.8" y2="302" stroke="#1E293B" stroke-width="1" stroke-opacity="0.6"/>
<text x="747.8" y="322" text-anchor="middle" font-family="ui-monospace,Menlo,monospace" font-size="10" fill="#94A3B8">Jun</text>
<path d="M 58.00 302.00 C 58.75 302.00 61.01 302.00 62.51 302.00 C 64.01 302.00 65.51 302.00 67.02 302.00 C 68.52 302.00 70.02 302.00 71.52 302.00 C 73.03 302.00 74.53 302.00 76.03 302.00 C 77.54 302.00 79.04 302.00 80.54 302.00 C 82.04 302.00 83.55 302.93 85.05 302.00 C 86.55 301.07 88.06 299.49 89.56 296.45 C 91.06 293.41 92.56 287.06 94.07 283.75 C 95.57 280.45 97.07 273.70 98.57 276.61 C 100.08 279.52 101.58 296.98 103.08 301.21 C 104.59 305.44 106.09 301.87 107.59 302.00 C 109.09 302.13 110.60 302.26 112.10 302.00 C 113.60 301.74 115.10 300.41 116.61 300.41 C 118.11 300.41 119.61 302.93 121.12 302.00 C 122.62 301.07 124.12 295.26 125.62 294.86 C 127.13 294.46 128.63 299.49 130.13 299.62 C 131.64 299.75 133.14 301.07 134.64 295.65 C 136.14 290.23 137.65 271.06 139.15 267.09 C 140.65 263.13 142.15 268.42 143.66 271.85 C 145.16 275.29 146.66 284.55 148.17 287.72 C 149.67 290.89 151.17 288.78 152.67 290.89 C 154.18 293.01 155.68 298.96 157.18 300.41 C 158.69 301.87 160.19 299.49 161.69 299.62 C 163.19 299.75 164.70 300.81 166.20 301.21 C 167.70 301.60 169.20 301.87 170.71 302.00 C 172.21 302.13 173.71 302.00 175.22 302.00 C 176.72 302.00 178.22 305.44 179.72 302.00 C 181.23 298.56 182.73 282.43 184.23 281.37 C 185.73 280.32 187.24 296.98 188.74 295.65 C 190.24 294.33 191.75 273.57 193.25 273.44 C 194.75 273.31 196.25 293.41 197.76 294.86 C 199.26 296.31 200.76 282.17 202.27 282.17 C 203.77 282.17 205.27 296.18 206.77 294.86 C 208.28 293.54 209.78 275.95 211.28 274.23 C 212.78 272.51 214.29 281.64 215.79 284.55 C 217.29 287.46 218.80 288.78 220.30 291.69 C 221.80 294.60 223.30 303.59 224.81 302.00 C 226.31 300.41 227.81 283.22 229.31 282.17 C 230.82 281.11 232.32 292.35 233.82 295.65 C 235.33 298.96 236.83 301.34 238.33 302.00 C 239.83 302.66 241.34 303.98 242.84 299.62 C 244.34 295.26 245.85 303.45 247.35 275.82 C 248.85 248.19 250.35 133.95 251.86 133.81 C 253.36 133.68 254.86 249.51 256.36 275.03 C 257.87 300.55 259.37 282.43 260.87 286.93 C 262.38 291.42 263.88 301.87 265.38 302.00 C 266.88 302.13 268.39 287.98 269.89 287.72 C 271.39 287.46 272.90 300.28 274.40 300.41 C 275.90 300.55 277.40 289.44 278.91 288.51 C 280.41 287.59 281.91 295.65 283.41 294.86 C 284.92 294.07 286.42 285.74 287.92 283.75 C 289.43 281.77 290.93 284.41 292.43 282.96 C 293.93 281.51 295.44 272.91 296.94 275.03 C 298.44 277.14 299.94 291.16 301.45 295.65 C 302.95 300.15 304.45 303.85 305.96 302.00 C 307.46 300.15 308.96 287.59 310.46 284.55 C 311.97 281.51 313.47 282.03 314.97 283.75 C 316.48 285.47 317.98 294.60 319.48 294.86 C 320.98 295.12 322.49 285.60 323.99 285.34 C 325.49 285.08 326.99 292.35 328.50 293.27 C 330.00 294.20 331.50 291.16 333.01 290.89 C 334.51 290.63 336.01 290.50 337.51 291.69 C 339.02 292.88 340.52 296.31 342.02 298.03 C 343.52 299.75 345.03 302.26 346.53 302.00 C 348.03 301.74 349.54 296.45 351.04 296.45 C 352.54 296.45 354.04 301.07 355.55 302.00 C 357.05 302.93 358.55 302.00 360.06 302.00 C 361.56 302.00 363.06 302.00 364.56 302.00 C 366.07 302.00 367.57 303.19 369.07 302.00 C 370.57 300.81 372.08 294.86 373.58 294.86 C 375.08 294.86 376.59 300.81 378.09 302.00 C 379.59 303.19 381.09 303.45 382.60 302.00 C 384.10 300.55 385.60 293.93 387.10 293.27 C 388.61 292.61 390.11 296.58 391.61 298.03 C 393.12 299.49 394.62 301.34 396.12 302.00 C 397.62 302.66 399.13 302.40 400.63 302.00 C 402.13 301.60 403.64 299.88 405.14 299.62 C 406.64 299.36 408.14 300.81 409.65 300.41 C 411.15 300.02 412.65 300.81 414.15 297.24 C 415.66 293.67 417.16 279.26 418.66 278.99 C 420.17 278.73 421.67 291.82 423.17 295.65 C 424.67 299.49 426.18 302.40 427.68 302.00 C 429.18 301.60 430.69 297.11 432.19 293.27 C 433.69 289.44 435.19 279.39 436.70 278.99 C 438.20 278.60 439.70 287.19 441.20 290.89 C 442.71 294.60 444.21 303.72 445.71 301.21 C 447.22 298.69 448.72 280.98 450.22 275.82 C 451.72 270.66 453.23 269.74 454.73 270.27 C 456.23 270.80 457.73 274.63 459.24 278.99 C 460.74 283.36 462.24 292.61 463.75 296.45 C 465.25 300.28 466.75 301.47 468.25 302.00 C 469.76 302.53 471.26 299.62 472.76 299.62 C 474.27 299.62 475.77 301.60 477.27 302.00 C 478.77 302.40 480.28 302.00 481.78 302.00 C 483.28 302.00 484.78 304.64 486.29 302.00 C 487.79 299.36 489.29 288.65 490.80 286.13 C 492.30 283.62 493.80 285.21 495.30 286.93 C 496.81 288.65 498.31 294.46 499.81 296.45 C 501.31 298.43 502.82 298.30 504.32 298.83 C 505.82 299.36 507.33 299.09 508.83 299.62 C 510.33 300.15 511.83 302.40 513.34 302.00 C 514.84 301.60 516.34 297.64 517.85 297.24 C 519.35 296.84 520.85 301.21 522.35 299.62 C 523.86 298.03 525.36 288.12 526.86 287.72 C 528.36 287.32 529.87 295.92 531.37 297.24 C 532.87 298.56 534.38 296.58 535.88 295.65 C 537.38 294.73 538.88 299.75 540.39 291.69 C 541.89 283.62 543.39 251.49 544.90 247.26 C 546.40 243.03 547.90 294.46 549.40 266.30 C 550.91 238.14 552.41 100.49 553.91 78.28 C 555.41 56.07 556.92 108.29 558.42 133.02 C 559.92 157.75 561.43 207.06 562.93 226.63 C 564.43 246.20 565.93 249.11 567.44 250.43 C 568.94 251.76 570.44 230.47 571.94 234.57 C 573.45 238.67 574.95 263.79 576.45 275.03 C 577.96 286.27 579.46 298.30 580.96 302.00 C 582.46 305.70 583.97 297.77 585.47 297.24 C 586.97 296.71 588.48 301.87 589.98 298.83 C 591.48 295.79 592.98 278.99 594.49 278.99 C 595.99 278.99 597.49 300.28 598.99 298.83 C 600.50 297.37 602.00 275.82 603.50 270.27 C 605.01 264.71 606.51 260.22 608.01 265.51 C 609.51 270.80 611.02 297.24 612.52 302.00 C 614.02 306.76 615.52 294.07 617.03 294.07 C 618.53 294.07 620.03 302.53 621.54 302.00 C 623.04 301.47 624.54 292.22 626.04 290.89 C 627.55 289.57 629.05 303.59 630.55 294.07 C 632.06 284.55 633.56 238.40 635.06 233.77 C 636.56 229.15 638.07 267.62 639.57 266.30 C 641.07 264.98 642.57 228.75 644.08 225.84 C 645.58 222.93 647.08 249.24 648.59 248.85 C 650.09 248.45 651.59 222.80 653.09 223.46 C 654.60 224.12 656.10 249.11 657.60 252.81 C 659.10 256.52 660.61 238.00 662.11 245.67 C 663.61 253.34 665.12 292.22 666.62 298.83 C 668.12 305.44 669.62 289.70 671.13 285.34 C 672.63 280.98 674.13 287.72 675.64 272.65 C 677.14 257.57 678.64 195.30 680.14 194.90 C 681.65 194.50 683.15 253.08 684.65 270.27 C 686.15 287.46 687.66 293.80 689.16 298.03 C 690.66 302.26 692.17 296.18 693.67 295.65 C 695.17 295.12 696.67 297.50 698.18 294.86 C 699.68 292.22 701.18 281.24 702.69 279.79 C 704.19 278.33 705.69 282.96 707.19 286.13 C 708.70 289.31 710.20 297.50 711.70 298.83 C 713.20 300.15 714.71 294.86 716.21 294.07 C 717.71 293.27 719.22 293.01 720.72 294.07 C 722.22 295.12 723.72 299.88 725.23 300.41 C 726.73 300.94 728.23 297.24 729.73 297.24 C 731.24 297.24 732.74 299.88 734.24 300.41 C 735.75 300.94 737.25 309.54 738.75 300.41 C 740.25 291.29 741.76 248.19 743.26 245.67 C 744.76 243.16 746.27 282.83 747.77 285.34 C 749.27 287.85 750.77 260.09 752.28 260.75 C 753.78 261.41 755.28 285.21 756.78 289.31 C 758.29 293.41 759.79 283.62 761.29 285.34 C 762.80 287.06 764.30 297.11 765.80 299.62 C 767.30 302.13 768.81 300.28 770.31 300.41 C 771.81 300.55 773.31 300.41 774.82 300.41 C 776.32 300.41 777.82 300.81 779.33 300.41 C 780.83 300.02 782.33 305.57 783.83 298.03 C 785.34 290.50 786.84 255.99 788.34 255.19 C 789.85 254.40 791.35 289.57 792.85 293.27 C 794.35 296.98 795.86 277.67 797.36 277.41 C 798.86 277.14 800.36 291.55 801.87 291.69 C 803.37 291.82 804.87 279.13 806.38 278.20 C 807.88 277.27 809.38 282.70 810.88 286.13 C 812.39 289.57 813.89 296.45 815.39 298.83 C 816.90 301.21 818.40 300.15 819.90 300.41 C 821.40 300.68 822.91 300.41 824.41 300.41 C 825.91 300.41 827.41 300.55 828.92 300.41 C 830.42 300.28 831.92 302.93 833.43 299.62 C 834.93 296.31 836.43 280.71 837.93 280.58 C 839.44 280.45 840.94 299.49 842.44 298.83 C 843.94 298.17 845.45 276.35 846.95 276.61 C 848.45 276.88 849.96 298.03 851.46 300.41 C 852.96 302.79 854.46 302.66 855.97 290.89 C 857.47 279.13 858.97 237.08 860.48 229.81 C 861.98 222.53 863.48 241.44 864.98 247.26 C 866.49 253.08 867.99 258.76 869.49 264.71 C 870.99 270.66 873.25 279.92 874.00 282.96 L 874.00 302.00 L 58.00 302.00 Z" fill="url(#area)"/>
<path d="M 58.00 302.00 C 58.75 302.00 61.01 302.00 62.51 302.00 C 64.01 302.00 65.51 302.00 67.02 302.00 C 68.52 302.00 70.02 302.00 71.52 302.00 C 73.03 302.00 74.53 302.00 76.03 302.00 C 77.54 302.00 79.04 302.00 80.54 302.00 C 82.04 302.00 83.55 302.93 85.05 302.00 C 86.55 301.07 88.06 299.49 89.56 296.45 C 91.06 293.41 92.56 287.06 94.07 283.75 C 95.57 280.45 97.07 273.70 98.57 276.61 C 100.08 279.52 101.58 296.98 103.08 301.21 C 104.59 305.44 106.09 301.87 107.59 302.00 C 109.09 302.13 110.60 302.26 112.10 302.00 C 113.60 301.74 115.10 300.41 116.61 300.41 C 118.11 300.41 119.61 302.93 121.12 302.00 C 122.62 301.07 124.12 295.26 125.62 294.86 C 127.13 294.46 128.63 299.49 130.13 299.62 C 131.64 299.75 133.14 301.07 134.64 295.65 C 136.14 290.23 137.65 271.06 139.15 267.09 C 140.65 263.13 142.15 268.42 143.66 271.85 C 145.16 275.29 146.66 284.55 148.17 287.72 C 149.67 290.89 151.17 288.78 152.67 290.89 C 154.18 293.01 155.68 298.96 157.18 300.41 C 158.69 301.87 160.19 299.49 161.69 299.62 C 163.19 299.75 164.70 300.81 166.20 301.21 C 167.70 301.60 169.20 301.87 170.71 302.00 C 172.21 302.13 173.71 302.00 175.22 302.00 C 176.72 302.00 178.22 305.44 179.72 302.00 C 181.23 298.56 182.73 282.43 184.23 281.37 C 185.73 280.32 187.24 296.98 188.74 295.65 C 190.24 294.33 191.75 273.57 193.25 273.44 C 194.75 273.31 196.25 293.41 197.76 294.86 C 199.26 296.31 200.76 282.17 202.27 282.17 C 203.77 282.17 205.27 296.18 206.77 294.86 C 208.28 293.54 209.78 275.95 211.28 274.23 C 212.78 272.51 214.29 281.64 215.79 284.55 C 217.29 287.46 218.80 288.78 220.30 291.69 C 221.80 294.60 223.30 303.59 224.81 302.00 C 226.31 300.41 227.81 283.22 229.31 282.17 C 230.82 281.11 232.32 292.35 233.82 295.65 C 235.33 298.96 236.83 301.34 238.33 302.00 C 239.83 302.66 241.34 303.98 242.84 299.62 C 244.34 295.26 245.85 303.45 247.35 275.82 C 248.85 248.19 250.35 133.95 251.86 133.81 C 253.36 133.68 254.86 249.51 256.36 275.03 C 257.87 300.55 259.37 282.43 260.87 286.93 C 262.38 291.42 263.88 301.87 265.38 302.00 C 266.88 302.13 268.39 287.98 269.89 287.72 C 271.39 287.46 272.90 300.28 274.40 300.41 C 275.90 300.55 277.40 289.44 278.91 288.51 C 280.41 287.59 281.91 295.65 283.41 294.86 C 284.92 294.07 286.42 285.74 287.92 283.75 C 289.43 281.77 290.93 284.41 292.43 282.96 C 293.93 281.51 295.44 272.91 296.94 275.03 C 298.44 277.14 299.94 291.16 301.45 295.65 C 302.95 300.15 304.45 303.85 305.96 302.00 C 307.46 300.15 308.96 287.59 310.46 284.55 C 311.97 281.51 313.47 282.03 314.97 283.75 C 316.48 285.47 317.98 294.60 319.48 294.86 C 320.98 295.12 322.49 285.60 323.99 285.34 C 325.49 285.08 326.99 292.35 328.50 293.27 C 330.00 294.20 331.50 291.16 333.01 290.89 C 334.51 290.63 336.01 290.50 337.51 291.69 C 339.02 292.88 340.52 296.31 342.02 298.03 C 343.52 299.75 345.03 302.26 346.53 302.00 C 348.03 301.74 349.54 296.45 351.04 296.45 C 352.54 296.45 354.04 301.07 355.55 302.00 C 357.05 302.93 358.55 302.00 360.06 302.00 C 361.56 302.00 363.06 302.00 364.56 302.00 C 366.07 302.00 367.57 303.19 369.07 302.00 C 370.57 300.81 372.08 294.86 373.58 294.86 C 375.08 294.86 376.59 300.81 378.09 302.00 C 379.59 303.19 381.09 303.45 382.60 302.00 C 384.10 300.55 385.60 293.93 387.10 293.27 C 388.61 292.61 390.11 296.58 391.61 298.03 C 393.12 299.49 394.62 301.34 396.12 302.00 C 397.62 302.66 399.13 302.40 400.63 302.00 C 402.13 301.60 403.64 299.88 405.14 299.62 C 406.64 299.36 408.14 300.81 409.65 300.41 C 411.15 300.02 412.65 300.81 414.15 297.24 C 415.66 293.67 417.16 279.26 418.66 278.99 C 420.17 278.73 421.67 291.82 423.17 295.65 C 424.67 299.49 426.18 302.40 427.68 302.00 C 429.18 301.60 430.69 297.11 432.19 293.27 C 433.69 289.44 435.19 279.39 436.70 278.99 C 438.20 278.60 439.70 287.19 441.20 290.89 C 442.71 294.60 444.21 303.72 445.71 301.21 C 447.22 298.69 448.72 280.98 450.22 275.82 C 451.72 270.66 453.23 269.74 454.73 270.27 C 456.23 270.80 457.73 274.63 459.24 278.99 C 460.74 283.36 462.24 292.61 463.75 296.45 C 465.25 300.28 466.75 301.47 468.25 302.00 C 469.76 302.53 471.26 299.62 472.76 299.62 C 474.27 299.62 475.77 301.60 477.27 302.00 C 478.77 302.40 480.28 302.00 481.78 302.00 C 483.28 302.00 484.78 304.64 486.29 302.00 C 487.79 299.36 489.29 288.65 490.80 286.13 C 492.30 283.62 493.80 285.21 495.30 286.93 C 496.81 288.65 498.31 294.46 499.81 296.45 C 501.31 298.43 502.82 298.30 504.32 298.83 C 505.82 299.36 507.33 299.09 508.83 299.62 C 510.33 300.15 511.83 302.40 513.34 302.00 C 514.84 301.60 516.34 297.64 517.85 297.24 C 519.35 296.84 520.85 301.21 522.35 299.62 C 523.86 298.03 525.36 288.12 526.86 287.72 C 528.36 287.32 529.87 295.92 531.37 297.24 C 532.87 298.56 534.38 296.58 535.88 295.65 C 537.38 294.73 538.88 299.75 540.39 291.69 C 541.89 283.62 543.39 251.49 544.90 247.26 C 546.40 243.03 547.90 294.46 549.40 266.30 C 550.91 238.14 552.41 100.49 553.91 78.28 C 555.41 56.07 556.92 108.29 558.42 133.02 C 559.92 157.75 561.43 207.06 562.93 226.63 C 564.43 246.20 565.93 249.11 567.44 250.43 C 568.94 251.76 570.44 230.47 571.94 234.57 C 573.45 238.67 574.95 263.79 576.45 275.03 C 577.96 286.27 579.46 298.30 580.96 302.00 C 582.46 305.70 583.97 297.77 585.47 297.24 C 586.97 296.71 588.48 301.87 589.98 298.83 C 591.48 295.79 592.98 278.99 594.49 278.99 C 595.99 278.99 597.49 300.28 598.99 298.83 C 600.50 297.37 602.00 275.82 603.50 270.27 C 605.01 264.71 606.51 260.22 608.01 265.51 C 609.51 270.80 611.02 297.24 612.52 302.00 C 614.02 306.76 615.52 294.07 617.03 294.07 C 618.53 294.07 620.03 302.53 621.54 302.00 C 623.04 301.47 624.54 292.22 626.04 290.89 C 627.55 289.57 629.05 303.59 630.55 294.07 C 632.06 284.55 633.56 238.40 635.06 233.77 C 636.56 229.15 638.07 267.62 639.57 266.30 C 641.07 264.98 642.57 228.75 644.08 225.84 C 645.58 222.93 647.08 249.24 648.59 248.85 C 650.09 248.45 651.59 222.80 653.09 223.46 C 654.60 224.12 656.10 249.11 657.60 252.81 C 659.10 256.52 660.61 238.00 662.11 245.67 C 663.61 253.34 665.12 292.22 666.62 298.83 C 668.12 305.44 669.62 289.70 671.13 285.34 C 672.63 280.98 674.13 287.72 675.64 272.65 C 677.14 257.57 678.64 195.30 680.14 194.90 C 681.65 194.50 683.15 253.08 684.65 270.27 C 686.15 287.46 687.66 293.80 689.16 298.03 C 690.66 302.26 692.17 296.18 693.67 295.65 C 695.17 295.12 696.67 297.50 698.18 294.86 C 699.68 292.22 701.18 281.24 702.69 279.79 C 704.19 278.33 705.69 282.96 707.19 286.13 C 708.70 289.31 710.20 297.50 711.70 298.83 C 713.20 300.15 714.71 294.86 716.21 294.07 C 717.71 293.27 719.22 293.01 720.72 294.07 C 722.22 295.12 723.72 299.88 725.23 300.41 C 726.73 300.94 728.23 297.24 729.73 297.24 C 731.24 297.24 732.74 299.88 734.24 300.41 C 735.75 300.94 737.25 309.54 738.75 300.41 C 740.25 291.29 741.76 248.19 743.26 245.67 C 744.76 243.16 746.27 282.83 747.77 285.34 C 749.27 287.85 750.77 260.09 752.28 260.75 C 753.78 261.41 755.28 285.21 756.78 289.31 C 758.29 293.41 759.79 283.62 761.29 285.34 C 762.80 287.06 764.30 297.11 765.80 299.62 C 767.30 302.13 768.81 300.28 770.31 300.41 C 771.81 300.55 773.31 300.41 774.82 300.41 C 776.32 300.41 777.82 300.81 779.33 300.41 C 780.83 300.02 782.33 305.57 783.83 298.03 C 785.34 290.50 786.84 255.99 788.34 255.19 C 789.85 254.40 791.35 289.57 792.85 293.27 C 794.35 296.98 795.86 277.67 797.36 277.41 C 798.86 277.14 800.36 291.55 801.87 291.69 C 803.37 291.82 804.87 279.13 806.38 278.20 C 807.88 277.27 809.38 282.70 810.88 286.13 C 812.39 289.57 813.89 296.45 815.39 298.83 C 816.90 301.21 818.40 300.15 819.90 300.41 C 821.40 300.68 822.91 300.41 824.41 300.41 C 825.91 300.41 827.41 300.55 828.92 300.41 C 830.42 300.28 831.92 302.93 833.43 299.62 C 834.93 296.31 836.43 280.71 837.93 280.58 C 839.44 280.45 840.94 299.49 842.44 298.83 C 843.94 298.17 845.45 276.35 846.95 276.61 C 848.45 276.88 849.96 298.03 851.46 300.41 C 852.96 302.79 854.46 302.66 855.97 290.89 C 857.47 279.13 858.97 237.08 860.48 229.81 C 861.98 222.53 863.48 241.44 864.98 247.26 C 866.49 253.08 867.99 258.76 869.49 264.71 C 870.99 270.66 873.25 279.92 874.00 282.96" fill="none" stroke="#22C55E" stroke-opacity="0.20" stroke-width="7" stroke-linecap="round" stroke-linejoin="round"/>
<path d="M 58.00 302.00 C 58.75 302.00 61.01 302.00 62.51 302.00 C 64.01 302.00 65.51 302.00 67.02 302.00 C 68.52 302.00 70.02 302.00 71.52 302.00 C 73.03 302.00 74.53 302.00 76.03 302.00 C 77.54 302.00 79.04 302.00 80.54 302.00 C 82.04 302.00 83.55 302.93 85.05 302.00 C 86.55 301.07 88.06 299.49 89.56 296.45 C 91.06 293.41 92.56 287.06 94.07 283.75 C 95.57 280.45 97.07 273.70 98.57 276.61 C 100.08 279.52 101.58 296.98 103.08 301.21 C 104.59 305.44 106.09 301.87 107.59 302.00 C 109.09 302.13 110.60 302.26 112.10 302.00 C 113.60 301.74 115.10 300.41 116.61 300.41 C 118.11 300.41 119.61 302.93 121.12 302.00 C 122.62 301.07 124.12 295.26 125.62 294.86 C 127.13 294.46 128.63 299.49 130.13 299.62 C 131.64 299.75 133.14 301.07 134.64 295.65 C 136.14 290.23 137.65 271.06 139.15 267.09 C 140.65 263.13 142.15 268.42 143.66 271.85 C 145.16 275.29 146.66 284.55 148.17 287.72 C 149.67 290.89 151.17 288.78 152.67 290.89 C 154.18 293.01 155.68 298.96 157.18 300.41 C 158.69 301.87 160.19 299.49 161.69 299.62 C 163.19 299.75 164.70 300.81 166.20 301.21 C 167.70 301.60 169.20 301.87 170.71 302.00 C 172.21 302.13 173.71 302.00 175.22 302.00 C 176.72 302.00 178.22 305.44 179.72 302.00 C 181.23 298.56 182.73 282.43 184.23 281.37 C 185.73 280.32 187.24 296.98 188.74 295.65 C 190.24 294.33 191.75 273.57 193.25 273.44 C 194.75 273.31 196.25 293.41 197.76 294.86 C 199.26 296.31 200.76 282.17 202.27 282.17 C 203.77 282.17 205.27 296.18 206.77 294.86 C 208.28 293.54 209.78 275.95 211.28 274.23 C 212.78 272.51 214.29 281.64 215.79 284.55 C 217.29 287.46 218.80 288.78 220.30 291.69 C 221.80 294.60 223.30 303.59 224.81 302.00 C 226.31 300.41 227.81 283.22 229.31 282.17 C 230.82 281.11 232.32 292.35 233.82 295.65 C 235.33 298.96 236.83 301.34 238.33 302.00 C 239.83 302.66 241.34 303.98 242.84 299.62 C 244.34 295.26 245.85 303.45 247.35 275.82 C 248.85 248.19 250.35 133.95 251.86 133.81 C 253.36 133.68 254.86 249.51 256.36 275.03 C 257.87 300.55 259.37 282.43 260.87 286.93 C 262.38 291.42 263.88 301.87 265.38 302.00 C 266.88 302.13 268.39 287.98 269.89 287.72 C 271.39 287.46 272.90 300.28 274.40 300.41 C 275.90 300.55 277.40 289.44 278.91 288.51 C 280.41 287.59 281.91 295.65 283.41 294.86 C 284.92 294.07 286.42 285.74 287.92 283.75 C 289.43 281.77 290.93 284.41 292.43 282.96 C 293.93 281.51 295.44 272.91 296.94 275.03 C 298.44 277.14 299.94 291.16 301.45 295.65 C 302.95 300.15 304.45 303.85 305.96 302.00 C 307.46 300.15 308.96 287.59 310.46 284.55 C 311.97 281.51 313.47 282.03 314.97 283.75 C 316.48 285.47 317.98 294.60 319.48 294.86 C 320.98 295.12 322.49 285.60 323.99 285.34 C 325.49 285.08 326.99 292.35 328.50 293.27 C 330.00 294.20 331.50 291.16 333.01 290.89 C 334.51 290.63 336.01 290.50 337.51 291.69 C 339.02 292.88 340.52 296.31 342.02 298.03 C 343.52 299.75 345.03 302.26 346.53 302.00 C 348.03 301.74 349.54 296.45 351.04 296.45 C 352.54 296.45 354.04 301.07 355.55 302.00 C 357.05 302.93 358.55 302.00 360.06 302.00 C 361.56 302.00 363.06 302.00 364.56 302.00 C 366.07 302.00 367.57 303.19 369.07 302.00 C 370.57 300.81 372.08 294.86 373.58 294.86 C 375.08 294.86 376.59 300.81 378.09 302.00 C 379.59 303.19 381.09 303.45 382.60 302.00 C 384.10 300.55 385.60 293.93 387.10 293.27 C 388.61 292.61 390.11 296.58 391.61 298.03 C 393.12 299.49 394.62 301.34 396.12 302.00 C 397.62 302.66 399.13 302.40 400.63 302.00 C 402.13 301.60 403.64 299.88 405.14 299.62 C 406.64 299.36 408.14 300.81 409.65 300.41 C 411.15 300.02 412.65 300.81 414.15 297.24 C 415.66 293.67 417.16 279.26 418.66 278.99 C 420.17 278.73 421.67 291.82 423.17 295.65 C 424.67 299.49 426.18 302.40 427.68 302.00 C 429.18 301.60 430.69 297.11 432.19 293.27 C 433.69 289.44 435.19 279.39 436.70 278.99 C 438.20 278.60 439.70 287.19 441.20 290.89 C 442.71 294.60 444.21 303.72 445.71 301.21 C 447.22 298.69 448.72 280.98 450.22 275.82 C 451.72 270.66 453.23 269.74 454.73 270.27 C 456.23 270.80 457.73 274.63 459.24 278.99 C 460.74 283.36 462.24 292.61 463.75 296.45 C 465.25 300.28 466.75 301.47 468.25 302.00 C 469.76 302.53 471.26 299.62 472.76 299.62 C 474.27 299.62 475.77 301.60 477.27 302.00 C 478.77 302.40 480.28 302.00 481.78 302.00 C 483.28 302.00 484.78 304.64 486.29 302.00 C 487.79 299.36 489.29 288.65 490.80 286.13 C 492.30 283.62 493.80 285.21 495.30 286.93 C 496.81 288.65 498.31 294.46 499.81 296.45 C 501.31 298.43 502.82 298.30 504.32 298.83 C 505.82 299.36 507.33 299.09 508.83 299.62 C 510.33 300.15 511.83 302.40 513.34 302.00 C 514.84 301.60 516.34 297.64 517.85 297.24 C 519.35 296.84 520.85 301.21 522.35 299.62 C 523.86 298.03 525.36 288.12 526.86 287.72 C 528.36 287.32 529.87 295.92 531.37 297.24 C 532.87 298.56 534.38 296.58 535.88 295.65 C 537.38 294.73 538.88 299.75 540.39 291.69 C 541.89 283.62 543.39 251.49 544.90 247.26 C 546.40 243.03 547.90 294.46 549.40 266.30 C 550.91 238.14 552.41 100.49 553.91 78.28 C 555.41 56.07 556.92 108.29 558.42 133.02 C 559.92 157.75 561.43 207.06 562.93 226.63 C 564.43 246.20 565.93 249.11 567.44 250.43 C 568.94 251.76 570.44 230.47 571.94 234.57 C 573.45 238.67 574.95 263.79 576.45 275.03 C 577.96 286.27 579.46 298.30 580.96 302.00 C 582.46 305.70 583.97 297.77 585.47 297.24 C 586.97 296.71 588.48 301.87 589.98 298.83 C 591.48 295.79 592.98 278.99 594.49 278.99 C 595.99 278.99 597.49 300.28 598.99 298.83 C 600.50 297.37 602.00 275.82 603.50 270.27 C 605.01 264.71 606.51 260.22 608.01 265.51 C 609.51 270.80 611.02 297.24 612.52 302.00 C 614.02 306.76 615.52 294.07 617.03 294.07 C 618.53 294.07 620.03 302.53 621.54 302.00 C 623.04 301.47 624.54 292.22 626.04 290.89 C 627.55 289.57 629.05 303.59 630.55 294.07 C 632.06 284.55 633.56 238.40 635.06 233.77 C 636.56 229.15 638.07 267.62 639.57 266.30 C 641.07 264.98 642.57 228.75 644.08 225.84 C 645.58 222.93 647.08 249.24 648.59 248.85 C 650.09 248.45 651.59 222.80 653.09 223.46 C 654.60 224.12 656.10 249.11 657.60 252.81 C 659.10 256.52 660.61 238.00 662.11 245.67 C 663.61 253.34 665.12 292.22 666.62 298.83 C 668.12 305.44 669.62 289.70 671.13 285.34 C 672.63 280.98 674.13 287.72 675.64 272.65 C 677.14 257.57 678.64 195.30 680.14 194.90 C 681.65 194.50 683.15 253.08 684.65 270.27 C 686.15 287.46 687.66 293.80 689.16 298.03 C 690.66 302.26 692.17 296.18 693.67 295.65 C 695.17 295.12 696.67 297.50 698.18 294.86 C 699.68 292.22 701.18 281.24 702.69 279.79 C 704.19 278.33 705.69 282.96 707.19 286.13 C 708.70 289.31 710.20 297.50 711.70 298.83 C 713.20 300.15 714.71 294.86 716.21 294.07 C 717.71 293.27 719.22 293.01 720.72 294.07 C 722.22 295.12 723.72 299.88 725.23 300.41 C 726.73 300.94 728.23 297.24 729.73 297.24 C 731.24 297.24 732.74 299.88 734.24 300.41 C 735.75 300.94 737.25 309.54 738.75 300.41 C 740.25 291.29 741.76 248.19 743.26 245.67 C 744.76 243.16 746.27 282.83 747.77 285.34 C 749.27 287.85 750.77 260.09 752.28 260.75 C 753.78 261.41 755.28 285.21 756.78 289.31 C 758.29 293.41 759.79 283.62 761.29 285.34 C 762.80 287.06 764.30 297.11 765.80 299.62 C 767.30 302.13 768.81 300.28 770.31 300.41 C 771.81 300.55 773.31 300.41 774.82 300.41 C 776.32 300.41 777.82 300.81 779.33 300.41 C 780.83 300.02 782.33 305.57 783.83 298.03 C 785.34 290.50 786.84 255.99 788.34 255.19 C 789.85 254.40 791.35 289.57 792.85 293.27 C 794.35 296.98 795.86 277.67 797.36 277.41 C 798.86 277.14 800.36 291.55 801.87 291.69 C 803.37 291.82 804.87 279.13 806.38 278.20 C 807.88 277.27 809.38 282.70 810.88 286.13 C 812.39 289.57 813.89 296.45 815.39 298.83 C 816.90 301.21 818.40 300.15 819.90 300.41 C 821.40 300.68 822.91 300.41 824.41 300.41 C 825.91 300.41 827.41 300.55 828.92 300.41 C 830.42 300.28 831.92 302.93 833.43 299.62 C 834.93 296.31 836.43 280.71 837.93 280.58 C 839.44 280.45 840.94 299.49 842.44 298.83 C 843.94 298.17 845.45 276.35 846.95 276.61 C 848.45 276.88 849.96 298.03 851.46 300.41 C 852.96 302.79 854.46 302.66 855.97 290.89 C 857.47 279.13 858.97 237.08 860.48 229.81 C 861.98 222.53 863.48 241.44 864.98 247.26 C 866.49 253.08 867.99 258.76 869.49 264.71 C 870.99 270.66 873.25 279.92 874.00 282.96" fill="none" stroke="#22C55E" stroke-width="2.4" stroke-linecap="round" stroke-linejoin="round"/>
<circle cx="553.9" cy="78.3" r="4.5" fill="#4ADE80" stroke="#0B1120" stroke-width="2"/>
<text x="553.9" y="68.3" text-anchor="middle" font-family="ui-monospace,Menlo,monospace" font-size="10" font-weight="700" fill="#4ADE80">282</text>
<circle cx="874.0" cy="283.0" r="3.5" fill="#F8FAFC"/>
<text x="16" y="183" text-anchor="middle" font-family="ui-monospace,Menlo,monospace" font-size="10" fill="#94A3B8" transform="rotate(-90 16 183)">Contributions</text>
</svg>