<svg xmlns="http://www.w3.org/2000/svg" width="900" height="340" viewBox="0 0 900 340" role="img" aria-label="Contribution activity, last 6 months">
<defs>
<linearGradient id="bg" x1="0" y1="0" x2="0" y2="1"><stop offset="0" stop-color="#0F172A"/><stop offset="1" stop-color="#0B1120"/></linearGradient>
<linearGradient id="area" x1="0" y1="0" x2="0" y2="1"><stop offset="0" stop-color="#22C55E" stop-opacity="0.42"/><stop offset="0.7" stop-color="#22C55E" stop-opacity="0.08"/><stop offset="1" stop-color="#22C55E" stop-opacity="0"/></linearGradient>
</defs>
<rect x="0" y="0" width="900" height="340" rx="14" fill="url(#bg)"/>
<text x="450" y="32" text-anchor="middle" font-family="ui-monospace,Menlo,monospace" font-size="17" font-weight="700" fill="#F8FAFC" letter-spacing="0.5">last 6 months</text>
<text x="450" y="50" text-anchor="middle" font-family="ui-monospace,Menlo,monospace" font-size="11" fill="#94A3B8">4,077 contributions · peak 282</text>
<line x1="58" y1="302.0" x2="874" y2="302.0" stroke="#1E293B" stroke-width="1" stroke-dasharray="2 4"/>
<text x="48" y="305.5" text-anchor="end" font-family="ui-monospace,Menlo,monospace" font-size="10" fill="#94A3B8">0</text>
<line x1="58" y1="242.5" x2="874" y2="242.5" stroke="#1E293B" stroke-width="1" stroke-dasharray="2 4"/>
<text x="48" y="246.0" text-anchor="end" font-family="ui-monospace,Menlo,monospace" font-size="10" fill="#94A3B8">75</text>
<line x1="58" y1="183.0" x2="874" y2="183.0" stroke="#1E293B" stroke-width="1" stroke-dasharray="2 4"/>
<text x="48" y="186.5" text-anchor="end" font-family="ui-monospace,Menlo,monospace" font-size="10" fill="#94A3B8">150</text>
<line x1="58" y1="123.5" x2="874" y2="123.5" stroke="#1E293B" stroke-width="1" stroke-dasharray="2 4"/>
<text x="48" y="127.0" text-anchor="end" font-family="ui-monospace,Menlo,monospace" font-size="10" fill="#94A3B8">225</text>
<line x1="58" y1="64.0" x2="874" y2="64.0" stroke="#1E293B" stroke-width="1" stroke-dasharray="2 4"/>
<text x="48" y="67.5" text-anchor="end" font-family="ui-monospace,Menlo,monospace" font-size="10" fill="#94A3B8">300</text>
<line x1="148.2" y1="64" x2="148.2" y2="302" stroke="#1E293B" stroke-width="1" stroke-opacity="0.6"/>
<text x="148.2" y="322" text-anchor="middle" font-family="ui-monospace,Menlo,monospace" font-size="10" fill="#94A3B8">Feb</text>
<line x1="274.4" y1="64" x2="274.4" y2="302" stroke="#1E293B" stroke-width="1" stroke-opacity="0.6"/>
<text x="274.4" y="322" text-anchor="middle" font-family="ui-monospace,Menlo,monospace" font-size="10" fill="#94A3B8">Mar</text>
<line x1="414.2" y1="64" x2="414.2" y2="302" stroke="#1E293B" stroke-width="1" stroke-opacity="0.6"/>
<text x="414.2" y="322" text-anchor="middle" font-family="ui-monospace,Menlo,monospace" font-size="10" fill="#94A3B8">Apr</text>
<line x1="549.4" y1="64" x2="549.4" y2="302" stroke="#1E293B" stroke-width="1" stroke-opacity="0.6"/>
<text x="549.4" y="322" text-anchor="middle" font-family="ui-monospace,Menlo,monospace" font-size="10" fill="#94A3B8">May</text>
<line x1="689.2" y1="64" x2="689.2" y2="302" stroke="#1E293B" stroke-width="1" stroke-opacity="0.6"/>
<text x="689.2" y="322" text-anchor="middle" font-family="ui-monospace,Menlo,monospace" font-size="10" fill="#94A3B8">Jun</text>
<line x1="824.4" y1="64" x2="824.4" y2="302" stroke="#1E293B" stroke-width="1" stroke-opacity="0.6"/>
<text x="824.4" y="322" text-anchor="middle" font-family="ui-monospace,Menlo,monospace" font-size="10" fill="#94A3B8">Jul</text>
<path d="M 58.00 300.41 C 58.75 300.68 61.01 302.93 62.51 302.00 C 64.01 301.07 65.51 295.26 67.02 294.86 C 68.52 294.46 70.02 299.49 71.52 299.62 C 73.03 299.75 74.53 301.07 76.03 295.65 C 77.54 290.23 79.04 271.06 80.54 267.09 C 82.04 263.13 83.55 268.42 85.05 271.85 C 86.55 275.29 88.06 284.55 89.56 287.72 C 91.06 290.89 92.56 288.78 94.07 290.89 C 95.57 293.01 97.07 298.96 98.57 300.41 C 100.08 301.87 101.58 299.49 103.08 299.62 C 104.59 299.75 106.09 300.81 107.59 301.21 C 109.09 301.60 110.60 301.87 112.10 302.00 C 113.60 302.13 115.10 302.00 116.61 302.00 C 118.11 302.00 119.61 305.44 121.12 302.00 C 122.62 298.56 124.12 282.43 125.62 281.37 C 127.13 280.32 128.63 296.98 130.13 295.65 C 131.64 294.33 133.14 273.57 134.64 273.44 C 136.14 273.31 137.65 293.41 139.15 294.86 C 140.65 296.31 142.15 282.17 143.66 282.17 C 145.16 282.17 146.66 296.18 148.17 294.86 C 149.67 293.54 151.17 275.95 152.67 274.23 C 154.18 272.51 155.68 281.64 157.18 284.55 C 158.69 287.46 160.19 288.78 161.69 291.69 C 163.19 294.60 164.70 303.59 166.20 302.00 C 167.70 300.41 169.20 283.22 170.71 282.17 C 172.21 281.11 173.71 292.35 175.22 295.65 C 176.72 298.96 178.22 301.34 179.72 302.00 C 181.23 302.66 182.73 303.98 184.23 299.62 C 185.73 295.26 187.24 303.45 188.74 275.82 C 190.24 248.19 191.75 133.95 193.25 133.81 C 194.75 133.68 196.25 249.51 197.76 275.03 C 199.26 300.55 200.76 282.43 202.27 286.93 C 203.77 291.42 205.27 301.87 206.77 302.00 C 208.28 302.13 209.78 287.98 211.28 287.72 C 212.78 287.46 214.29 300.28 215.79 300.41 C 217.29 300.55 218.80 289.44 220.30 288.51 C 221.80 287.59 223.30 295.65 224.81 294.86 C 226.31 294.07 227.81 285.74 229.31 283.75 C 230.82 281.77 232.32 284.41 233.82 282.96 C 235.33 281.51 236.83 272.91 238.33 275.03 C 239.83 277.14 241.34 291.16 242.84 295.65 C 244.34 300.15 245.85 303.85 247.35 302.00 C 248.85 300.15 250.35 287.59 251.86 284.55 C 253.36 281.51 254.86 282.03 256.36 283.75 C 257.87 285.47 259.37 294.60 260.87 294.86 C 262.38 295.12 263.88 285.60 265.38 285.34 C 266.88 285.08 268.39 292.35 269.89 293.27 C 271.39 294.20 272.90 291.16 274.40 290.89 C 275.90 290.63 277.40 290.50 278.91 291.69 C 280.41 292.88 281.91 296.31 283.41 298.03 C 284.92 299.75 286.42 302.26 287.92 302.00 C 289.43 301.74 290.93 296.45 292.43 296.45 C 293.93 296.45 295.44 301.07 296.94 302.00 C 298.44 302.93 299.94 302.00 301.45 302.00 C 302.95 302.00 304.45 302.00 305.96 302.00 C 307.46 302.00 308.96 303.19 310.46 302.00 C 311.97 300.81 313.47 294.86 314.97 294.86 C 316.48 294.86 317.98 300.81 319.48 302.00 C 320.98 303.19 322.49 303.45 323.99 302.00 C 325.49 300.55 326.99 293.93 328.50 293.27 C 330.00 292.61 331.50 296.58 333.01 298.03 C 334.51 299.49 336.01 301.34 337.51 302.00 C 339.02 302.66 340.52 302.40 342.02 302.00 C 343.52 301.60 345.03 299.88 346.53 299.62 C 348.03 299.36 349.54 300.81 351.04 300.41 C 352.54 300.02 354.04 300.81 355.55 297.24 C 357.05 293.67 358.55 279.26 360.06 278.99 C 361.56 278.73 363.06 291.82 364.56 295.65 C 366.07 299.49 367.57 302.40 369.07 302.00 C 370.57 301.60 372.08 297.11 373.58 293.27 C 375.08 289.44 376.59 279.39 378.09 278.99 C 379.59 278.60 381.09 287.19 382.60 290.89 C 384.10 294.60 385.60 303.72 387.10 301.21 C 388.61 298.69 390.11 280.98 391.61 275.82 C 393.12 270.66 394.62 269.74 396.12 270.27 C 397.62 270.80 399.13 274.63 400.63 278.99 C 402.13 283.36 403.64 292.61 405.14 296.45 C 406.64 300.28 408.14 301.47 409.65 302.00 C 411.15 302.53 412.65 299.62 414.15 299.62 C 415.66 299.62 417.16 301.60 418.66 302.00 C 420.17 302.40 421.67 302.00 423.17 302.00 C 424.67 302.00 426.18 304.64 427.68 302.00 C 429.18 299.36 430.69 288.65 432.19 286.13 C 433.69 283.62 435.19 285.21 436.70 286.93 C 438.20 288.65 439.70 294.46 441.20 296.45 C 442.71 298.43 444.21 298.30 445.71 298.83 C 447.22 299.36 448.72 299.09 450.22 299.62 C 451.72 300.15 453.23 302.40 454.73 302.00 C 456.23 301.60 457.73 297.64 459.24 297.24 C 460.74 296.84 462.24 301.21 463.75 299.62 C 465.25 298.03 466.75 288.12 468.25 287.72 C 469.76 287.32 471.26 295.92 472.76 297.24 C 474.27 298.56 475.77 296.58 477.27 295.65 C 478.77 294.73 480.28 299.75 481.78 291.69 C 483.28 283.62 484.78 251.49 486.29 247.26 C 487.79 243.03 489.29 294.46 490.80 266.30 C 492.30 238.14 493.80 100.49 495.30 78.28 C 496.81 56.07 498.31 108.29 499.81 133.02 C 501.31 157.75 502.82 207.06 504.32 226.63 C 505.82 246.20 507.33 249.11 508.83 250.43 C 510.33 251.76 511.83 230.47 513.34 234.57 C 514.84 238.67 516.34 263.79 517.85 275.03 C 519.35 286.27 520.85 298.30 522.35 302.00 C 523.86 305.70 525.36 297.77 526.86 297.24 C 528.36 296.71 529.87 301.87 531.37 298.83 C 532.87 295.79 534.38 278.99 535.88 278.99 C 537.38 278.99 538.88 300.28 540.39 298.83 C 541.89 297.37 543.39 275.82 544.90 270.27 C 546.40 264.71 547.90 260.22 549.40 265.51 C 550.91 270.80 552.41 297.24 553.91 302.00 C 555.41 306.76 556.92 294.07 558.42 294.07 C 559.92 294.07 561.43 302.53 562.93 302.00 C 564.43 301.47 565.93 292.22 567.44 290.89 C 568.94 289.57 570.44 303.59 571.94 294.07 C 573.45 284.55 574.95 238.40 576.45 233.77 C 577.96 229.15 579.46 267.62 580.96 266.30 C 582.46 264.98 583.97 228.75 585.47 225.84 C 586.97 222.93 588.48 249.24 589.98 248.85 C 591.48 248.45 592.98 222.80 594.49 223.46 C 595.99 224.12 597.49 249.11 598.99 252.81 C 600.50 256.52 602.00 238.00 603.50 245.67 C 605.01 253.34 606.51 292.22 608.01 298.83 C 609.51 305.44 611.02 289.70 612.52 285.34 C 614.02 280.98 615.52 287.72 617.03 272.65 C 618.53 257.57 620.03 195.30 621.54 194.90 C 623.04 194.50 624.54 253.08 626.04 270.27 C 627.55 287.46 629.05 293.80 630.55 298.03 C 632.06 302.26 633.56 296.18 635.06 295.65 C 636.56 295.12 638.07 297.50 639.57 294.86 C 641.07 292.22 642.57 281.24 644.08 279.79 C 645.58 278.33 647.08 282.96 648.59 286.13 C 650.09 289.31 651.59 297.50 653.09 298.83 C 654.60 300.15 656.10 294.86 657.60 294.07 C 659.10 293.27 660.61 293.01 662.11 294.07 C 663.61 295.12 665.12 299.88 666.62 300.41 C 668.12 300.94 669.62 297.24 671.13 297.24 C 672.63 297.24 674.13 299.88 675.64 300.41 C 677.14 300.94 678.64 309.54 680.14 300.41 C 681.65 291.29 683.15 248.19 684.65 245.67 C 686.15 243.16 687.66 282.83 689.16 285.34 C 690.66 287.85 692.17 260.09 693.67 260.75 C 695.17 261.41 696.67 285.21 698.18 289.31 C 699.68 293.41 701.18 283.62 702.69 285.34 C 704.19 287.06 705.69 297.11 707.19 299.62 C 708.70 302.13 710.20 300.28 711.70 300.41 C 713.20 300.55 714.71 300.41 716.21 300.41 C 717.71 300.41 719.22 300.81 720.72 300.41 C 722.22 300.02 723.72 305.57 725.23 298.03 C 726.73 290.50 728.23 255.99 729.73 255.19 C 731.24 254.40 732.74 289.57 734.24 293.27 C 735.75 296.98 737.25 277.67 738.75 277.41 C 740.25 277.14 741.76 291.55 743.26 291.69 C 744.76 291.82 746.27 279.13 747.77 278.20 C 749.27 277.27 750.77 282.70 752.28 286.13 C 753.78 289.57 755.28 296.45 756.78 298.83 C 758.29 301.21 759.79 300.15 761.29 300.41 C 762.80 300.68 764.30 300.41 765.80 300.41 C 767.30 300.41 768.81 300.55 770.31 300.41 C 771.81 300.28 773.31 302.93 774.82 299.62 C 776.32 296.31 777.82 280.71 779.33 280.58 C 780.83 280.45 782.33 299.49 783.83 298.83 C 785.34 298.17 786.84 276.35 788.34 276.61 C 789.85 276.88 791.35 298.03 792.85 300.41 C 794.35 302.79 795.86 302.66 797.36 290.89 C 798.86 279.13 800.36 237.08 801.87 229.81 C 803.37 222.53 804.87 241.44 806.38 247.26 C 807.88 253.08 809.38 260.09 810.88 264.71 C 812.39 269.34 813.89 269.34 815.39 275.03 C 816.90 280.71 818.40 299.49 819.90 298.83 C 821.40 298.17 822.91 274.37 824.41 271.06 C 825.91 267.75 827.41 277.80 828.92 278.99 C 830.42 280.18 831.92 276.35 833.43 278.20 C 834.93 280.05 836.43 287.72 837.93 290.10 C 839.44 292.48 840.94 291.03 842.44 292.48 C 843.94 293.93 845.45 300.28 846.95 298.83 C 848.45 297.37 849.96 284.55 851.46 283.75 C 852.96 282.96 854.46 293.93 855.97 294.07 C 857.47 294.20 858.97 284.28 860.48 284.55 C 861.98 284.81 863.48 293.01 864.98 295.65 C 866.49 298.30 867.99 299.49 869.49 300.41 C 870.99 301.34 873.25 301.07 874.00 301.21 L 874.00 302.00 L 58.00 302.00 Z" fill="url(#area)"/>
<path d="M 58.00 300.41 C 58.75 300.68 61.01 302.93 62.51 302.00 C 64.01 301.07 65.51 295.26 67.02 294.86 C 68.52 294.46 70.02 299.49 71.52 299.62 C 73.03 299.75 74.53 301.07 76.03 295.65 C 77.54 290.23 79.04 271.06 80.54 267.09 C 82.04 263.13 83.55 268.42 85.05 271.85 C 86.55 275.29 88.06 284.55 89.56 287.72 C 91.06 290.89 92.56 288.78 94.07 290.89 C 95.57 293.01 97.07 298.96 98.57 300.41 C 100.08 301.87 101.58 299.49 103.08 299.62 C 104.59 299.75 106.09 300.81 107.59 301.21 C 109.09 301.60 110.60 301.87 112.10 302.00 C 113.60 302.13 115.10 302.00 116.61 302.00 C 118.11 302.00 119.61 305.44 121.12 302.00 C 122.62 298.56 124.12 282.43 125.62 281.37 C 127.13 280.32 128.63 296.98 130.13 295.65 C 131.64 294.33 133.14 273.57 134.64 273.44 C 136.14 273.31 137.65 293.41 139.15 294.86 C 140.65 296.31 142.15 282.17 143.66 282.17 C 145.16 282.17 146.66 296.18 148.17 294.86 C 149.67 293.54 151.17 275.95 152.67 274.23 C 154.18 272.51 155.68 281.64 157.18 284.55 C 158.69 287.46 160.19 288.78 161.69 291.69 C 163.19 294.60 164.70 303.59 166.20 302.00 C 167.70 300.41 169.20 283.22 170.71 282.17 C 172.21 281.11 173.71 292.35 175.22 295.65 C 176.72 298.96 178.22 301.34 179.72 302.00 C 181.23 302.66 182.73 303.98 184.23 299.62 C 185.73 295.26 187.24 303.45 188.74 275.82 C 190.24 248.19 191.75 133.95 193.25 133.81 C 194.75 133.68 196.25 249.51 197.76 275.03 C 199.26 300.55 200.76 282.43 202.27 286.93 C 203.77 291.42 205.27 301.87 206.77 302.00 C 208.28 302.13 209.78 287.98 211.28 287.72 C 212.78 287.46 214.29 300.28 215.79 300.41 C 217.29 300.55 218.80 289.44 220.30 288.51 C 221.80 287.59 223.30 295.65 224.81 294.86 C 226.31 294.07 227.81 285.74 229.31 283.75 C 230.82 281.77 232.32 284.41 233.82 282.96 C 235.33 281.51 236.83 272.91 238.33 275.03 C 239.83 277.14 241.34 291.16 242.84 295.65 C 244.34 300.15 245.85 303.85 247.35 302.00 C 248.85 300.15 250.35 287.59 251.86 284.55 C 253.36 281.51 254.86 282.03 256.36 283.75 C 257.87 285.47 259.37 294.60 260.87 294.86 C 262.38 295.12 263.88 285.60 265.38 285.34 C 266.88 285.08 268.39 292.35 269.89 293.27 C 271.39 294.20 272.90 291.16 274.40 290.89 C 275.90 290.63 277.40 290.50 278.91 291.69 C 280.41 292.88 281.91 296.31 283.41 298.03 C 284.92 299.75 286.42 302.26 287.92 302.00 C 289.43 301.74 290.93 296.45 292.43 296.45 C 293.93 296.45 295.44 301.07 296.94 302.00 C 298.44 302.93 299.94 302.00 301.45 302.00 C 302.95 302.00 304.45 302.00 305.96 302.00 C 307.46 302.00 308.96 303.19 310.46 302.00 C 311.97 300.81 313.47 294.86 314.97 294.86 C 316.48 294.86 317.98 300.81 319.48 302.00 C 320.98 303.19 322.49 303.45 323.99 302.00 C 325.49 300.55 326.99 293.93 328.50 293.27 C 330.00 292.61 331.50 296.58 333.01 298.03 C 334.51 299.49 336.01 301.34 337.51 302.00 C 339.02 302.66 340.52 302.40 342.02 302.00 C 343.52 301.60 345.03 299.88 346.53 299.62 C 348.03 299.36 349.54 300.81 351.04 300.41 C 352.54 300.02 354.04 300.81 355.55 297.24 C 357.05 293.67 358.55 279.26 360.06 278.99 C 361.56 278.73 363.06 291.82 364.56 295.65 C 366.07 299.49 367.57 302.40 369.07 302.00 C 370.57 301.60 372.08 297.11 373.58 293.27 C 375.08 289.44 376.59 279.39 378.09 278.99 C 379.59 278.60 381.09 287.19 382.60 290.89 C 384.10 294.60 385.60 303.72 387.10 301.21 C 388.61 298.69 390.11 280.98 391.61 275.82 C 393.12 270.66 394.62 269.74 396.12 270.27 C 397.62 270.80 399.13 274.63 400.63 278.99 C 402.13 283.36 403.64 292.61 405.14 296.45 C 406.64 300.28 408.14 301.47 409.65 302.00 C 411.15 302.53 412.65 299.62 414.15 299.62 C 415.66 299.62 417.16 301.60 418.66 302.00 C 420.17 302.40 421.67 302.00 423.17 302.00 C 424.67 302.00 426.18 304.64 427.68 302.00 C 429.18 299.36 430.69 288.65 432.19 286.13 C 433.69 283.62 435.19 285.21 436.70 286.93 C 438.20 288.65 439.70 294.46 441.20 296.45 C 442.71 298.43 444.21 298.30 445.71 298.83 C 447.22 299.36 448.72 299.09 450.22 299.62 C 451.72 300.15 453.23 302.40 454.73 302.00 C 456.23 301.60 457.73 297.64 459.24 297.24 C 460.74 296.84 462.24 301.21 463.75 299.62 C 465.25 298.03 466.75 288.12 468.25 287.72 C 469.76 287.32 471.26 295.92 472.76 297.24 C 474.27 298.56 475.77 296.58 477.27 295.65 C 478.77 294.73 480.28 299.75 481.78 291.69 C 483.28 283.62 484.78 251.49 486.29 247.26 C 487.79 243.03 489.29 294.46 490.80 266.30 C 492.30 238.14 493.80 100.49 495.30 78.28 C 496.81 56.07 498.31 108.29 499.81 133.02 C 501.31 157.75 502.82 207.06 504.32 226.63 C 505.82 246.20 507.33 249.11 508.83 250.43 C 510.33 251.76 511.83 230.47 513.34 234.57 C 514.84 238.67 516.34 263.79 517.85 275.03 C 519.35 286.27 520.85 298.30 522.35 302.00 C 523.86 305.70 525.36 297.77 526.86 297.24 C 528.36 296.71 529.87 301.87 531.37 298.83 C 532.87 295.79 534.38 278.99 535.88 278.99 C 537.38 278.99 538.88 300.28 540.39 298.83 C 541.89 297.37 543.39 275.82 544.90 270.27 C 546.40 264.71 547.90 260.22 549.40 265.51 C 550.91 270.80 552.41 297.24 553.91 302.00 C 555.41 306.76 556.92 294.07 558.42 294.07 C 559.92 294.07 561.43 302.53 562.93 302.00 C 564.43 301.47 565.93 292.22 567.44 290.89 C 568.94 289.57 570.44 303.59 571.94 294.07 C 573.45 284.55 574.95 238.40 576.45 233.77 C 577.96 229.15 579.46 267.62 580.96 266.30 C 582.46 264.98 583.97 228.75 585.47 225.84 C 586.97 222.93 588.48 249.24 589.98 248.85 C 591.48 248.45 592.98 222.80 594.49 223.46 C 595.99 224.12 597.49 249.11 598.99 252.81 C 600.50 256.52 602.00 238.00 603.50 245.67 C 605.01 253.34 606.51 292.22 608.01 298.83 C 609.51 305.44 611.02 289.70 612.52 285.34 C 614.02 280.98 615.52 287.72 617.03 272.65 C 618.53 257.57 620.03 195.30 621.54 194.90 C 623.04 194.50 624.54 253.08 626.04 270.27 C 627.55 287.46 629.05 293.80 630.55 298.03 C 632.06 302.26 633.56 296.18 635.06 295.65 C 636.56 295.12 638.07 297.50 639.57 294.86 C 641.07 292.22 642.57 281.24 644.08 279.79 C 645.58 278.33 647.08 282.96 648.59 286.13 C 650.09 289.31 651.59 297.50 653.09 298.83 C 654.60 300.15 656.10 294.86 657.60 294.07 C 659.10 293.27 660.61 293.01 662.11 294.07 C 663.61 295.12 665.12 299.88 666.62 300.41 C 668.12 300.94 669.62 297.24 671.13 297.24 C 672.63 297.24 674.13 299.88 675.64 300.41 C 677.14 300.94 678.64 309.54 680.14 300.41 C 681.65 291.29 683.15 248.19 684.65 245.67 C 686.15 243.16 687.66 282.83 689.16 285.34 C 690.66 287.85 692.17 260.09 693.67 260.75 C 695.17 261.41 696.67 285.21 698.18 289.31 C 699.68 293.41 701.18 283.62 702.69 285.34 C 704.19 287.06 705.69 297.11 707.19 299.62 C 708.70 302.13 710.20 300.28 711.70 300.41 C 713.20 300.55 714.71 300.41 716.21 300.41 C 717.71 300.41 719.22 300.81 720.72 300.41 C 722.22 300.02 723.72 305.57 725.23 298.03 C 726.73 290.50 728.23 255.99 729.73 255.19 C 731.24 254.40 732.74 289.57 734.24 293.27 C 735.75 296.98 737.25 277.67 738.75 277.41 C 740.25 277.14 741.76 291.55 743.26 291.69 C 744.76 291.82 746.27 279.13 747.77 278.20 C 749.27 277.27 750.77 282.70 752.28 286.13 C 753.78 289.57 755.28 296.45 756.78 298.83 C 758.29 301.21 759.79 300.15 761.29 300.41 C 762.80 300.68 764.30 300.41 765.80 300.41 C 767.30 300.41 768.81 300.55 770.31 300.41 C 771.81 300.28 773.31 302.93 774.82 299.62 C 776.32 296.31 777.82 280.71 779.33 280.58 C 780.83 280.45 782.33 299.49 783.83 298.83 C 785.34 298.17 786.84 276.35 788.34 276.61 C 789.85 276.88 791.35 298.03 792.85 300.41 C 794.35 302.79 795.86 302.66 797.36 290.89 C 798.86 279.13 800.36 237.08 801.87 229.81 C 803.37 222.53 804.87 241.44 806.38 247.26 C 807.88 253.08 809.38 260.09 810.88 264.71 C 812.39 269.34 813.89 269.34 815.39 275.03 C 816.90 280.71 818.40 299.49 819.90 298.83 C 821.40 298.17 822.91 274.37 824.41 271.06 C 825.91 267.75 827.41 277.80 828.92 278.99 C 830.42 280.18 831.92 276.35 833.43 278.20 C 834.93 280.05 836.43 287.72 837.93 290.10 C 839.44 292.48 840.94 291.03 842.44 292.48 C 843.94 293.93 845.45 300.28 846.95 298.83 C 848.45 297.37 849.96 284.55 851.46 283.75 C 852.96 282.96 854.46 293.93 855.97 294.07 C 857.47 294.20 858.97 284.28 860.48 284.55 C 861.98 284.81 863.48 293.01 864.98 295.65 C 866.49 298.30 867.99 299.49 869.49 300.41 C 870.99 301.34 873.25 301.07 874.00 301.21" fill="none" stroke="#22C55E" stroke-opacity="0.20" stroke-width="7" stroke-linecap="round" stroke-linejoin="round"/>
<path d="M 58.00 300.41 C 58.75 300.68 61.01 302.93 62.51 302.00 C 64.01 301.07 65.51 295.26 67.02 294.86 C 68.52 294.46 70.02 299.49 71.52 299.62 C 73.03 299.75 74.53 301.07 76.03 295.65 C 77.54 290.23 79.04 271.06 80.54 267.09 C 82.04 263.13 83.55 268.42 85.05 271.85 C 86.55 275.29 88.06 284.55 89.56 287.72 C 91.06 290.89 92.56 288.78 94.07 290.89 C 95.57 293.01 97.07 298.96 98.57 300.41 C 100.08 301.87 101.58 299.49 103.08 299.62 C 104.59 299.75 106.09 300.81 107.59 301.21 C 109.09 301.60 110.60 301.87 112.10 302.00 C 113.60 302.13 115.10 302.00 116.61 302.00 C 118.11 302.00 119.61 305.44 121.12 302.00 C 122.62 298.56 124.12 282.43 125.62 281.37 C 127.13 280.32 128.63 296.98 130.13 295.65 C 131.64 294.33 133.14 273.57 134.64 273.44 C 136.14 273.31 137.65 293.41 139.15 294.86 C 140.65 296.31 142.15 282.17 143.66 282.17 C 145.16 282.17 146.66 296.18 148.17 294.86 C 149.67 293.54 151.17 275.95 152.67 274.23 C 154.18 272.51 155.68 281.64 157.18 284.55 C 158.69 287.46 160.19 288.78 161.69 291.69 C 163.19 294.60 164.70 303.59 166.20 302.00 C 167.70 300.41 169.20 283.22 170.71 282.17 C 172.21 281.11 173.71 292.35 175.22 295.65 C 176.72 298.96 178.22 301.34 179.72 302.00 C 181.23 302.66 182.73 303.98 184.23 299.62 C 185.73 295.26 187.24 303.45 188.74 275.82 C 190.24 248.19 191.75 133.95 193.25 133.81 C 194.75 133.68 196.25 249.51 197.76 275.03 C 199.26 300.55 200.76 282.43 202.27 286.93 C 203.77 291.42 205.27 301.87 206.77 302.00 C 208.28 302.13 209.78 287.98 211.28 287.72 C 212.78 287.46 214.29 300.28 215.79 300.41 C 217.29 300.55 218.80 289.44 220.30 288.51 C 221.80 287.59 223.30 295.65 224.81 294.86 C 226.31 294.07 227.81 285.74 229.31 283.75 C 230.82 281.77 232.32 284.41 233.82 282.96 C 235.33 281.51 236.83 272.91 238.33 275.03 C 239.83 277.14 241.34 291.16 242.84 295.65 C 244.34 300.15 245.85 303.85 247.35 302.00 C 248.85 300.15 250.35 287.59 251.86 284.55 C 253.36 281.51 254.86 282.03 256.36 283.75 C 257.87 285.47 259.37 294.60 260.87 294.86 C 262.38 295.12 263.88 285.60 265.38 285.34 C 266.88 285.08 268.39 292.35 269.89 293.27 C 271.39 294.20 272.90 291.16 274.40 290.89 C 275.90 290.63 277.40 290.50 278.91 291.69 C 280.41 292.88 281.91 296.31 283.41 298.03 C 284.92 299.75 286.42 302.26 287.92 302.00 C 289.43 301.74 290.93 296.45 292.43 296.45 C 293.93 296.45 295.44 301.07 296.94 302.00 C 298.44 302.93 299.94 302.00 301.45 302.00 C 302.95 302.00 304.45 302.00 305.96 302.00 C 307.46 302.00 308.96 303.19 310.46 302.00 C 311.97 300.81 313.47 294.86 314.97 294.86 C 316.48 294.86 317.98 300.81 319.48 302.00 C 320.98 303.19 322.49 303.45 323.99 302.00 C 325.49 300.55 326.99 293.93 328.50 293.27 C 330.00 292.61 331.50 296.58 333.01 298.03 C 334.51 299.49 336.01 301.34 337.51 302.00 C 339.02 302.66 340.52 302.40 342.02 302.00 C 343.52 301.60 345.03 299.88 346.53 299.62 C 348.03 299.36 349.54 300.81 351.04 300.41 C 352.54 300.02 354.04 300.81 355.55 297.24 C 357.05 293.67 358.55 279.26 360.06 278.99 C 361.56 278.73 363.06 291.82 364.56 295.65 C 366.07 299.49 367.57 302.40 369.07 302.00 C 370.57 301.60 372.08 297.11 373.58 293.27 C 375.08 289.44 376.59 279.39 378.09 278.99 C 379.59 278.60 381.09 287.19 382.60 290.89 C 384.10 294.60 385.60 303.72 387.10 301.21 C 388.61 298.69 390.11 280.98 391.61 275.82 C 393.12 270.66 394.62 269.74 396.12 270.27 C 397.62 270.80 399.13 274.63 400.63 278.99 C 402.13 283.36 403.64 292.61 405.14 296.45 C 406.64 300.28 408.14 301.47 409.65 302.00 C 411.15 302.53 412.65 299.62 414.15 299.62 C 415.66 299.62 417.16 301.60 418.66 302.00 C 420.17 302.40 421.67 302.00 423.17 302.00 C 424.67 302.00 426.18 304.64 427.68 302.00 C 429.18 299.36 430.69 288.65 432.19 286.13 C 433.69 283.62 435.19 285.21 436.70 286.93 C 438.20 288.65 439.70 294.46 441.20 296.45 C 442.71 298.43 444.21 298.30 445.71 298.83 C 447.22 299.36 448.72 299.09 450.22 299.62 C 451.72 300.15 453.23 302.40 454.73 302.00 C 456.23 301.60 457.73 297.64 459.24 297.24 C 460.74 296.84 462.24 301.21 463.75 299.62 C 465.25 298.03 466.75 288.12 468.25 287.72 C 469.76 287.32 471.26 295.92 472.76 297.24 C 474.27 298.56 475.77 296.58 477.27 295.65 C 478.77 294.73 480.28 299.75 481.78 291.69 C 483.28 283.62 484.78 251.49 486.29 247.26 C 487.79 243.03 489.29 294.46 490.80 266.30 C 492.30 238.14 493.80 100.49 495.30 78.28 C 496.81 56.07 498.31 108.29 499.81 133.02 C 501.31 157.75 502.82 207.06 504.32 226.63 C 505.82 246.20 507.33 249.11 508.83 250.43 C 510.33 251.76 511.83 230.47 513.34 234.57 C 514.84 238.67 516.34 263.79 517.85 275.03 C 519.35 286.27 520.85 298.30 522.35 302.00 C 523.86 305.70 525.36 297.77 526.86 297.24 C 528.36 296.71 529.87 301.87 531.37 298.83 C 532.87 295.79 534.38 278.99 535.88 278.99 C 537.38 278.99 538.88 300.28 540.39 298.83 C 541.89 297.37 543.39 275.82 544.90 270.27 C 546.40 264.71 547.90 260.22 549.40 265.51 C 550.91 270.80 552.41 297.24 553.91 302.00 C 555.41 306.76 556.92 294.07 558.42 294.07 C 559.92 294.07 561.43 302.53 562.93 302.00 C 564.43 301.47 565.93 292.22 567.44 290.89 C 568.94 289.57 570.44 303.59 571.94 294.07 C 573.45 284.55 574.95 238.40 576.45 233.77 C 577.96 229.15 579.46 267.62 580.96 266.30 C 582.46 264.98 583.97 228.75 585.47 225.84 C 586.97 222.93 588.48 249.24 589.98 248.85 C 591.48 248.45 592.98 222.80 594.49 223.46 C 595.99 224.12 597.49 249.11 598.99 252.81 C 600.50 256.52 602.00 238.00 603.50 245.67 C 605.01 253.34 606.51 292.22 608.01 298.83 C 609.51 305.44 611.02 289.70 612.52 285.34 C 614.02 280.98 615.52 287.72 617.03 272.65 C 618.53 257.57 620.03 195.30 621.54 194.90 C 623.04 194.50 624.54 253.08 626.04 270.27 C 627.55 287.46 629.05 293.80 630.55 298.03 C 632.06 302.26 633.56 296.18 635.06 295.65 C 636.56 295.12 638.07 297.50 639.57 294.86 C 641.07 292.22 642.57 281.24 644.08 279.79 C 645.58 278.33 647.08 282.96 648.59 286.13 C 650.09 289.31 651.59 297.50 653.09 298.83 C 654.60 300.15 656.10 294.86 657.60 294.07 C 659.10 293.27 660.61 293.01 662.11 294.07 C 663.61 295.12 665.12 299.88 666.62 300.41 C 668.12 300.94 669.62 297.24 671.13 297.24 C 672.63 297.24 674.13 299.88 675.64 300.41 C 677.14 300.94 678.64 309.54 680.14 300.41 C 681.65 291.29 683.15 248.19 684.65 245.67 C 686.15 243.16 687.66 282.83 689.16 285.34 C 690.66 287.85 692.17 260.09 693.67 260.75 C 695.17 261.41 696.67 285.21 698.18 289.31 C 699.68 293.41 701.18 283.62 702.69 285.34 C 704.19 287.06 705.69 297.11 707.19 299.62 C 708.70 302.13 710.20 300.28 711.70 300.41 C 713.20 300.55 714.71 300.41 716.21 300.41 C 717.71 300.41 719.22 300.81 720.72 300.41 C 722.22 300.02 723.72 305.57 725.23 298.03 C 726.73 290.50 728.23 255.99 729.73 255.19 C 731.24 254.40 732.74 289.57 734.24 293.27 C 735.75 296.98 737.25 277.67 738.75 277.41 C 740.25 277.14 741.76 291.55 743.26 291.69 C 744.76 291.82 746.27 279.13 747.77 278.20 C 749.27 277.27 750.77 282.70 752.28 286.13 C 753.78 289.57 755.28 296.45 756.78 298.83 C 758.29 301.21 759.79 300.15 761.29 300.41 C 762.80 300.68 764.30 300.41 765.80 300.41 C 767.30 300.41 768.81 300.55 770.31 300.41 C 771.81 300.28 773.31 302.93 774.82 299.62 C 776.32 296.31 777.82 280.71 779.33 280.58 C 780.83 280.45 782.33 299.49 783.83 298.83 C 785.34 298.17 786.84 276.35 788.34 276.61 C 789.85 276.88 791.35 298.03 792.85 300.41 C 794.35 302.79 795.86 302.66 797.36 290.89 C 798.86 279.13 800.36 237.08 801.87 229.81 C 803.37 222.53 804.87 241.44 806.38 247.26 C 807.88 253.08 809.38 260.09 810.88 264.71 C 812.39 269.34 813.89 269.34 815.39 275.03 C 816.90 280.71 818.40 299.49 819.90 298.83 C 821.40 298.17 822.91 274.37 824.41 271.06 C 825.91 267.75 827.41 277.80 828.92 278.99 C 830.42 280.18 831.92 276.35 833.43 278.20 C 834.93 280.05 836.43 287.72 837.93 290.10 C 839.44 292.48 840.94 291.03 842.44 292.48 C 843.94 293.93 845.45 300.28 846.95 298.83 C 848.45 297.37 849.96 284.55 851.46 283.75 C 852.96 282.96 854.46 293.93 855.97 294.07 C 857.47 294.20 858.97 284.28 860.48 284.55 C 861.98 284.81 863.48 293.01 864.98 295.65 C 866.49 298.30 867.99 299.49 869.49 300.41 C 870.99 301.34 873.25 301.07 874.00 301.21" fill="none" stroke="#22C55E" stroke-width="2.4" stroke-linecap="round" stroke-linejoin="round"/>
<circle cx="495.3" cy="78.3" r="4.5" fill="#4ADE80" stroke="#0B1120" stroke-width="2"/>
<text x="495.3" y="68.3" text-anchor="middle" font-family="ui-monospace,Menlo,monospace" font-size="10" font-weight="700" fill="#4ADE80">282</text>
<circle cx="874.0" cy="301.2" r="3.5" fill="#F8FAFC"/>
<text x="16" y="183" text-anchor="middle" font-family="ui-monospace,Menlo,monospace" font-size="10" fill="#94A3B8" transform="rotate(-90 16 183)">Contributions</text>
</svg>