<svg xmlns="http://www.w3.org/2000/svg" width="900" height="340" viewBox="0 0 900 340" role="img" aria-label="Contribution activity, last 6 months">
<defs>
<linearGradient id="bg" x1="0" y1="0" x2="0" y2="1"><stop offset="0" stop-color="#0F172A"/><stop offset="1" stop-color="#0B1120"/></linearGradient>
<linearGradient id="area" x1="0" y1="0" x2="0" y2="1"><stop offset="0" stop-color="#22C55E" stop-opacity="0.42"/><stop offset="0.7" stop-color="#22C55E" stop-opacity="0.08"/><stop offset="1" stop-color="#22C55E" stop-opacity="0"/></linearGradient>
</defs>
<rect x="0" y="0" width="900" height="340" rx="14" fill="url(#bg)"/>
<text x="450" y="32" text-anchor="middle" font-family="ui-monospace,Menlo,monospace" font-size="17" font-weight="700" fill="#F8FAFC" letter-spacing="0.5">last 6 months</text>
<text x="450" y="50" text-anchor="middle" font-family="ui-monospace,Menlo,monospace" font-size="11" fill="#94A3B8">3,944 contributions · peak 282</text>
<line x1="58" y1="302.0" x2="874" y2="302.0" stroke="#1E293B" stroke-width="1" stroke-dasharray="2 4"/>
<text x="48" y="305.5" text-anchor="end" font-family="ui-monospace,Menlo,monospace" font-size="10" fill="#94A3B8">0</text>
<line x1="58" y1="242.5" x2="874" y2="242.5" stroke="#1E293B" stroke-width="1" stroke-dasharray="2 4"/>
<text x="48" y="246.0" text-anchor="end" font-family="ui-monospace,Menlo,monospace" font-size="10" fill="#94A3B8">75</text>
<line x1="58" y1="183.0" x2="874" y2="183.0" stroke="#1E293B" stroke-width="1" stroke-dasharray="2 4"/>
<text x="48" y="186.5" text-anchor="end" font-family="ui-monospace,Menlo,monospace" font-size="10" fill="#94A3B8">150</text>
<line x1="58" y1="123.5" x2="874" y2="123.5" stroke="#1E293B" stroke-width="1" stroke-dasharray="2 4"/>
<text x="48" y="127.0" text-anchor="end" font-family="ui-monospace,Menlo,monospace" font-size="10" fill="#94A3B8">225</text>
<line x1="58" y1="64.0" x2="874" y2="64.0" stroke="#1E293B" stroke-width="1" stroke-dasharray="2 4"/>
<text x="48" y="67.5" text-anchor="end" font-family="ui-monospace,Menlo,monospace" font-size="10" fill="#94A3B8">300</text>
<line x1="62.5" y1="64" x2="62.5" y2="302" stroke="#1E293B" stroke-width="1" stroke-opacity="0.6"/>
<text x="62.5" y="322" text-anchor="middle" font-family="ui-monospace,Menlo,monospace" font-size="10" fill="#94A3B8">Jan</text>
<line x1="202.3" y1="64" x2="202.3" y2="302" stroke="#1E293B" stroke-width="1" stroke-opacity="0.6"/>
<text x="202.3" y="322" text-anchor="middle" font-family="ui-monospace,Menlo,monospace" font-size="10" fill="#94A3B8">Feb</text>
<line x1="328.5" y1="64" x2="328.5" y2="302" stroke="#1E293B" stroke-width="1" stroke-opacity="0.6"/>
<text x="328.5" y="322" text-anchor="middle" font-family="ui-monospace,Menlo,monospace" font-size="10" fill="#94A3B8">Mar</text>
<line x1="468.3" y1="64" x2="468.3" y2="302" stroke="#1E293B" stroke-width="1" stroke-opacity="0.6"/>
<text x="468.3" y="322" text-anchor="middle" font-family="ui-monospace,Menlo,monospace" font-size="10" fill="#94A3B8">Apr</text>
<line x1="603.5" y1="64" x2="603.5" y2="302" stroke="#1E293B" stroke-width="1" stroke-opacity="0.6"/>
<text x="603.5" y="322" text-anchor="middle" font-family="ui-monospace,Menlo,monospace" font-size="10" fill="#94A3B8">May</text>
<line x1="743.3" y1="64" x2="743.3" y2="302" stroke="#1E293B" stroke-width="1" stroke-opacity="0.6"/>
<text x="743.3" y="322" text-anchor="middle" font-family="ui-monospace,Menlo,monospace" font-size="10" fill="#94A3B8">Jun</text>
<path d="M 58.00 302.00 C 58.75 302.00 61.01 302.00 62.51 302.00 C 64.01 302.00 65.51 302.00 67.02 302.00 C 68.52 302.00 70.02 302.00 71.52 302.00 C 73.03 302.00 74.53 302.00 76.03 302.00 C 77.54 302.00 79.04 302.93 80.54 302.00 C 82.04 301.07 83.55 299.49 85.05 296.45 C 86.55 293.41 88.06 287.06 89.56 283.75 C 91.06 280.45 92.56 273.70 94.07 276.61 C 95.57 279.52 97.07 296.98 98.57 301.21 C 100.08 305.44 101.58 301.87 103.08 302.00 C 104.59 302.13 106.09 302.26 107.59 302.00 C 109.09 301.74 110.60 300.41 112.10 300.41 C 113.60 300.41 115.10 302.93 116.61 302.00 C 118.11 301.07 119.61 295.26 121.12 294.86 C 122.62 294.46 124.12 299.49 125.62 299.62 C 127.13 299.75 128.63 301.07 130.13 295.65 C 131.64 290.23 133.14 271.06 134.64 267.09 C 136.14 263.13 137.65 268.42 139.15 271.85 C 140.65 275.29 142.15 284.55 143.66 287.72 C 145.16 290.89 146.66 288.78 148.17 290.89 C 149.67 293.01 151.17 298.96 152.67 300.41 C 154.18 301.87 155.68 299.49 157.18 299.62 C 158.69 299.75 160.19 300.81 161.69 301.21 C 163.19 301.60 164.70 301.87 166.20 302.00 C 167.70 302.13 169.20 302.00 170.71 302.00 C 172.21 302.00 173.71 305.44 175.22 302.00 C 176.72 298.56 178.22 282.43 179.72 281.37 C 181.23 280.32 182.73 296.98 184.23 295.65 C 185.73 294.33 187.24 273.57 188.74 273.44 C 190.24 273.31 191.75 293.41 193.25 294.86 C 194.75 296.31 196.25 282.17 197.76 282.17 C 199.26 282.17 200.76 296.18 202.27 294.86 C 203.77 293.54 205.27 275.95 206.77 274.23 C 208.28 272.51 209.78 281.64 211.28 284.55 C 212.78 287.46 214.29 288.78 215.79 291.69 C 217.29 294.60 218.80 303.59 220.30 302.00 C 221.80 300.41 223.30 283.22 224.81 282.17 C 226.31 281.11 227.81 292.35 229.31 295.65 C 230.82 298.96 232.32 301.34 233.82 302.00 C 235.33 302.66 236.83 303.98 238.33 299.62 C 239.83 295.26 241.34 303.45 242.84 275.82 C 244.34 248.19 245.85 133.95 247.35 133.81 C 248.85 133.68 250.35 249.51 251.86 275.03 C 253.36 300.55 254.86 282.43 256.36 286.93 C 257.87 291.42 259.37 301.87 260.87 302.00 C 262.38 302.13 263.88 287.98 265.38 287.72 C 266.88 287.46 268.39 300.28 269.89 300.41 C 271.39 300.55 272.90 289.44 274.40 288.51 C 275.90 287.59 277.40 295.65 278.91 294.86 C 280.41 294.07 281.91 285.74 283.41 283.75 C 284.92 281.77 286.42 284.41 287.92 282.96 C 289.43 281.51 290.93 272.91 292.43 275.03 C 293.93 277.14 295.44 291.16 296.94 295.65 C 298.44 300.15 299.94 303.85 301.45 302.00 C 302.95 300.15 304.45 287.59 305.96 284.55 C 307.46 281.51 308.96 282.03 310.46 283.75 C 311.97 285.47 313.47 294.60 314.97 294.86 C 316.48 295.12 317.98 285.60 319.48 285.34 C 320.98 285.08 322.49 292.35 323.99 293.27 C 325.49 294.20 326.99 291.16 328.50 290.89 C 330.00 290.63 331.50 290.50 333.01 291.69 C 334.51 292.88 336.01 296.31 337.51 298.03 C 339.02 299.75 340.52 302.26 342.02 302.00 C 343.52 301.74 345.03 296.45 346.53 296.45 C 348.03 296.45 349.54 301.07 351.04 302.00 C 352.54 302.93 354.04 302.00 355.55 302.00 C 357.05 302.00 358.55 302.00 360.06 302.00 C 361.56 302.00 363.06 303.19 364.56 302.00 C 366.07 300.81 367.57 294.86 369.07 294.86 C 370.57 294.86 372.08 300.81 373.58 302.00 C 375.08 303.19 376.59 303.45 378.09 302.00 C 379.59 300.55 381.09 293.93 382.60 293.27 C 384.10 292.61 385.60 296.58 387.10 298.03 C 388.61 299.49 390.11 301.34 391.61 302.00 C 393.12 302.66 394.62 302.40 396.12 302.00 C 397.62 301.60 399.13 299.88 400.63 299.62 C 402.13 299.36 403.64 300.81 405.14 300.41 C 406.64 300.02 408.14 300.81 409.65 297.24 C 411.15 293.67 412.65 279.26 414.15 278.99 C 415.66 278.73 417.16 291.82 418.66 295.65 C 420.17 299.49 421.67 302.40 423.17 302.00 C 424.67 301.60 426.18 297.11 427.68 293.27 C 429.18 289.44 430.69 279.39 432.19 278.99 C 433.69 278.60 435.19 287.19 436.70 290.89 C 438.20 294.60 439.70 303.72 441.20 301.21 C 442.71 298.69 444.21 280.98 445.71 275.82 C 447.22 270.66 448.72 269.74 450.22 270.27 C 451.72 270.80 453.23 274.63 454.73 278.99 C 456.23 283.36 457.73 292.61 459.24 296.45 C 460.74 300.28 462.24 301.47 463.75 302.00 C 465.25 302.53 466.75 299.62 468.25 299.62 C 469.76 299.62 471.26 301.60 472.76 302.00 C 474.27 302.40 475.77 302.00 477.27 302.00 C 478.77 302.00 480.28 304.64 481.78 302.00 C 483.28 299.36 484.78 288.65 486.29 286.13 C 487.79 283.62 489.29 285.21 490.80 286.93 C 492.30 288.65 493.80 294.46 495.30 296.45 C 496.81 298.43 498.31 298.30 499.81 298.83 C 501.31 299.36 502.82 299.09 504.32 299.62 C 505.82 300.15 507.33 302.40 508.83 302.00 C 510.33 301.60 511.83 297.64 513.34 297.24 C 514.84 296.84 516.34 301.21 517.85 299.62 C 519.35 298.03 520.85 288.12 522.35 287.72 C 523.86 287.32 525.36 295.92 526.86 297.24 C 528.36 298.56 529.87 296.58 531.37 295.65 C 532.87 294.73 534.38 299.75 535.88 291.69 C 537.38 283.62 538.88 251.49 540.39 247.26 C 541.89 243.03 543.39 294.46 544.90 266.30 C 546.40 238.14 547.90 100.49 549.40 78.28 C 550.91 56.07 552.41 108.29 553.91 133.02 C 555.41 157.75 556.92 207.06 558.42 226.63 C 559.92 246.20 561.43 249.11 562.93 250.43 C 564.43 251.76 565.93 230.47 567.44 234.57 C 568.94 238.67 570.44 263.79 571.94 275.03 C 573.45 286.27 574.95 298.30 576.45 302.00 C 577.96 305.70 579.46 297.77 580.96 297.24 C 582.46 296.71 583.97 301.87 585.47 298.83 C 586.97 295.79 588.48 278.99 589.98 278.99 C 591.48 278.99 592.98 300.28 594.49 298.83 C 595.99 297.37 597.49 275.82 598.99 270.27 C 600.50 264.71 602.00 260.22 603.50 265.51 C 605.01 270.80 606.51 297.24 608.01 302.00 C 609.51 306.76 611.02 294.07 612.52 294.07 C 614.02 294.07 615.52 302.53 617.03 302.00 C 618.53 301.47 620.03 292.22 621.54 290.89 C 623.04 289.57 624.54 303.59 626.04 294.07 C 627.55 284.55 629.05 238.40 630.55 233.77 C 632.06 229.15 633.56 267.62 635.06 266.30 C 636.56 264.98 638.07 228.75 639.57 225.84 C 641.07 222.93 642.57 249.24 644.08 248.85 C 645.58 248.45 647.08 222.80 648.59 223.46 C 650.09 224.12 651.59 249.11 653.09 252.81 C 654.60 256.52 656.10 238.00 657.60 245.67 C 659.10 253.34 660.61 292.22 662.11 298.83 C 663.61 305.44 665.12 289.70 666.62 285.34 C 668.12 280.98 669.62 287.72 671.13 272.65 C 672.63 257.57 674.13 195.30 675.64 194.90 C 677.14 194.50 678.64 253.08 680.14 270.27 C 681.65 287.46 683.15 293.80 684.65 298.03 C 686.15 302.26 687.66 296.18 689.16 295.65 C 690.66 295.12 692.17 297.50 693.67 294.86 C 695.17 292.22 696.67 281.24 698.18 279.79 C 699.68 278.33 701.18 282.96 702.69 286.13 C 704.19 289.31 705.69 297.50 707.19 298.83 C 708.70 300.15 710.20 294.86 711.70 294.07 C 713.20 293.27 714.71 293.01 716.21 294.07 C 717.71 295.12 719.22 299.88 720.72 300.41 C 722.22 300.94 723.72 297.24 725.23 297.24 C 726.73 297.24 728.23 299.88 729.73 300.41 C 731.24 300.94 732.74 309.54 734.24 300.41 C 735.75 291.29 737.25 248.19 738.75 245.67 C 740.25 243.16 741.76 282.83 743.26 285.34 C 744.76 287.85 746.27 260.09 747.77 260.75 C 749.27 261.41 750.77 285.21 752.28 289.31 C 753.78 293.41 755.28 283.62 756.78 285.34 C 758.29 287.06 759.79 297.11 761.29 299.62 C 762.80 302.13 764.30 300.28 765.80 300.41 C 767.30 300.55 768.81 300.41 770.31 300.41 C 771.81 300.41 773.31 300.81 774.82 300.41 C 776.32 300.02 777.82 305.57 779.33 298.03 C 780.83 290.50 782.33 255.99 783.83 255.19 C 785.34 254.40 786.84 289.57 788.34 293.27 C 789.85 296.98 791.35 277.67 792.85 277.41 C 794.35 277.14 795.86 291.55 797.36 291.69 C 798.86 291.82 800.36 279.13 801.87 278.20 C 803.37 277.27 804.87 282.70 806.38 286.13 C 807.88 289.57 809.38 296.45 810.88 298.83 C 812.39 301.21 813.89 300.15 815.39 300.41 C 816.90 300.68 818.40 300.41 819.90 300.41 C 821.40 300.41 822.91 300.55 824.41 300.41 C 825.91 300.28 827.41 302.93 828.92 299.62 C 830.42 296.31 831.92 280.71 833.43 280.58 C 834.93 280.45 836.43 299.49 837.93 298.83 C 839.44 298.17 840.94 276.35 842.44 276.61 C 843.94 276.88 845.45 298.03 846.95 300.41 C 848.45 302.79 849.96 302.66 851.46 290.89 C 852.96 279.13 854.46 237.08 855.97 229.81 C 857.47 222.53 858.97 241.44 860.48 247.26 C 861.98 253.08 863.48 260.09 864.98 264.71 C 866.49 269.34 867.99 269.21 869.49 275.03 C 870.99 280.84 873.25 295.52 874.00 299.62 L 874.00 302.00 L 58.00 302.00 Z" fill="url(#area)"/>
<path d="M 58.00 302.00 C 58.75 302.00 61.01 302.00 62.51 302.00 C 64.01 302.00 65.51 302.00 67.02 302.00 C 68.52 302.00 70.02 302.00 71.52 302.00 C 73.03 302.00 74.53 302.00 76.03 302.00 C 77.54 302.00 79.04 302.93 80.54 302.00 C 82.04 301.07 83.55 299.49 85.05 296.45 C 86.55 293.41 88.06 287.06 89.56 283.75 C 91.06 280.45 92.56 273.70 94.07 276.61 C 95.57 279.52 97.07 296.98 98.57 301.21 C 100.08 305.44 101.58 301.87 103.08 302.00 C 104.59 302.13 106.09 302.26 107.59 302.00 C 109.09 301.74 110.60 300.41 112.10 300.41 C 113.60 300.41 115.10 302.93 116.61 302.00 C 118.11 301.07 119.61 295.26 121.12 294.86 C 122.62 294.46 124.12 299.49 125.62 299.62 C 127.13 299.75 128.63 301.07 130.13 295.65 C 131.64 290.23 133.14 271.06 134.64 267.09 C 136.14 263.13 137.65 268.42 139.15 271.85 C 140.65 275.29 142.15 284.55 143.66 287.72 C 145.16 290.89 146.66 288.78 148.17 290.89 C 149.67 293.01 151.17 298.96 152.67 300.41 C 154.18 301.87 155.68 299.49 157.18 299.62 C 158.69 299.75 160.19 300.81 161.69 301.21 C 163.19 301.60 164.70 301.87 166.20 302.00 C 167.70 302.13 169.20 302.00 170.71 302.00 C 172.21 302.00 173.71 305.44 175.22 302.00 C 176.72 298.56 178.22 282.43 179.72 281.37 C 181.23 280.32 182.73 296.98 184.23 295.65 C 185.73 294.33 187.24 273.57 188.74 273.44 C 190.24 273.31 191.75 293.41 193.25 294.86 C 194.75 296.31 196.25 282.17 197.76 282.17 C 199.26 282.17 200.76 296.18 202.27 294.86 C 203.77 293.54 205.27 275.95 206.77 274.23 C 208.28 272.51 209.78 281.64 211.28 284.55 C 212.78 287.46 214.29 288.78 215.79 291.69 C 217.29 294.60 218.80 303.59 220.30 302.00 C 221.80 300.41 223.30 283.22 224.81 282.17 C 226.31 281.11 227.81 292.35 229.31 295.65 C 230.82 298.96 232.32 301.34 233.82 302.00 C 235.33 302.66 236.83 303.98 238.33 299.62 C 239.83 295.26 241.34 303.45 242.84 275.82 C 244.34 248.19 245.85 133.95 247.35 133.81 C 248.85 133.68 250.35 249.51 251.86 275.03 C 253.36 300.55 254.86 282.43 256.36 286.93 C 257.87 291.42 259.37 301.87 260.87 302.00 C 262.38 302.13 263.88 287.98 265.38 287.72 C 266.88 287.46 268.39 300.28 269.89 300.41 C 271.39 300.55 272.90 289.44 274.40 288.51 C 275.90 287.59 277.40 295.65 278.91 294.86 C 280.41 294.07 281.91 285.74 283.41 283.75 C 284.92 281.77 286.42 284.41 287.92 282.96 C 289.43 281.51 290.93 272.91 292.43 275.03 C 293.93 277.14 295.44 291.16 296.94 295.65 C 298.44 300.15 299.94 303.85 301.45 302.00 C 302.95 300.15 304.45 287.59 305.96 284.55 C 307.46 281.51 308.96 282.03 310.46 283.75 C 311.97 285.47 313.47 294.60 314.97 294.86 C 316.48 295.12 317.98 285.60 319.48 285.34 C 320.98 285.08 322.49 292.35 323.99 293.27 C 325.49 294.20 326.99 291.16 328.50 290.89 C 330.00 290.63 331.50 290.50 333.01 291.69 C 334.51 292.88 336.01 296.31 337.51 298.03 C 339.02 299.75 340.52 302.26 342.02 302.00 C 343.52 301.74 345.03 296.45 346.53 296.45 C 348.03 296.45 349.54 301.07 351.04 302.00 C 352.54 302.93 354.04 302.00 355.55 302.00 C 357.05 302.00 358.55 302.00 360.06 302.00 C 361.56 302.00 363.06 303.19 364.56 302.00 C 366.07 300.81 367.57 294.86 369.07 294.86 C 370.57 294.86 372.08 300.81 373.58 302.00 C 375.08 303.19 376.59 303.45 378.09 302.00 C 379.59 300.55 381.09 293.93 382.60 293.27 C 384.10 292.61 385.60 296.58 387.10 298.03 C 388.61 299.49 390.11 301.34 391.61 302.00 C 393.12 302.66 394.62 302.40 396.12 302.00 C 397.62 301.60 399.13 299.88 400.63 299.62 C 402.13 299.36 403.64 300.81 405.14 300.41 C 406.64 300.02 408.14 300.81 409.65 297.24 C 411.15 293.67 412.65 279.26 414.15 278.99 C 415.66 278.73 417.16 291.82 418.66 295.65 C 420.17 299.49 421.67 302.40 423.17 302.00 C 424.67 301.60 426.18 297.11 427.68 293.27 C 429.18 289.44 430.69 279.39 432.19 278.99 C 433.69 278.60 435.19 287.19 436.70 290.89 C 438.20 294.60 439.70 303.72 441.20 301.21 C 442.71 298.69 444.21 280.98 445.71 275.82 C 447.22 270.66 448.72 269.74 450.22 270.27 C 451.72 270.80 453.23 274.63 454.73 278.99 C 456.23 283.36 457.73 292.61 459.24 296.45 C 460.74 300.28 462.24 301.47 463.75 302.00 C 465.25 302.53 466.75 299.62 468.25 299.62 C 469.76 299.62 471.26 301.60 472.76 302.00 C 474.27 302.40 475.77 302.00 477.27 302.00 C 478.77 302.00 480.28 304.64 481.78 302.00 C 483.28 299.36 484.78 288.65 486.29 286.13 C 487.79 283.62 489.29 285.21 490.80 286.93 C 492.30 288.65 493.80 294.46 495.30 296.45 C 496.81 298.43 498.31 298.30 499.81 298.83 C 501.31 299.36 502.82 299.09 504.32 299.62 C 505.82 300.15 507.33 302.40 508.83 302.00 C 510.33 301.60 511.83 297.64 513.34 297.24 C 514.84 296.84 516.34 301.21 517.85 299.62 C 519.35 298.03 520.85 288.12 522.35 287.72 C 523.86 287.32 525.36 295.92 526.86 297.24 C 528.36 298.56 529.87 296.58 531.37 295.65 C 532.87 294.73 534.38 299.75 535.88 291.69 C 537.38 283.62 538.88 251.49 540.39 247.26 C 541.89 243.03 543.39 294.46 544.90 266.30 C 546.40 238.14 547.90 100.49 549.40 78.28 C 550.91 56.07 552.41 108.29 553.91 133.02 C 555.41 157.75 556.92 207.06 558.42 226.63 C 559.92 246.20 561.43 249.11 562.93 250.43 C 564.43 251.76 565.93 230.47 567.44 234.57 C 568.94 238.67 570.44 263.79 571.94 275.03 C 573.45 286.27 574.95 298.30 576.45 302.00 C 577.96 305.70 579.46 297.77 580.96 297.24 C 582.46 296.71 583.97 301.87 585.47 298.83 C 586.97 295.79 588.48 278.99 589.98 278.99 C 591.48 278.99 592.98 300.28 594.49 298.83 C 595.99 297.37 597.49 275.82 598.99 270.27 C 600.50 264.71 602.00 260.22 603.50 265.51 C 605.01 270.80 606.51 297.24 608.01 302.00 C 609.51 306.76 611.02 294.07 612.52 294.07 C 614.02 294.07 615.52 302.53 617.03 302.00 C 618.53 301.47 620.03 292.22 621.54 290.89 C 623.04 289.57 624.54 303.59 626.04 294.07 C 627.55 284.55 629.05 238.40 630.55 233.77 C 632.06 229.15 633.56 267.62 635.06 266.30 C 636.56 264.98 638.07 228.75 639.57 225.84 C 641.07 222.93 642.57 249.24 644.08 248.85 C 645.58 248.45 647.08 222.80 648.59 223.46 C 650.09 224.12 651.59 249.11 653.09 252.81 C 654.60 256.52 656.10 238.00 657.60 245.67 C 659.10 253.34 660.61 292.22 662.11 298.83 C 663.61 305.44 665.12 289.70 666.62 285.34 C 668.12 280.98 669.62 287.72 671.13 272.65 C 672.63 257.57 674.13 195.30 675.64 194.90 C 677.14 194.50 678.64 253.08 680.14 270.27 C 681.65 287.46 683.15 293.80 684.65 298.03 C 686.15 302.26 687.66 296.18 689.16 295.65 C 690.66 295.12 692.17 297.50 693.67 294.86 C 695.17 292.22 696.67 281.24 698.18 279.79 C 699.68 278.33 701.18 282.96 702.69 286.13 C 704.19 289.31 705.69 297.50 707.19 298.83 C 708.70 300.15 710.20 294.86 711.70 294.07 C 713.20 293.27 714.71 293.01 716.21 294.07 C 717.71 295.12 719.22 299.88 720.72 300.41 C 722.22 300.94 723.72 297.24 725.23 297.24 C 726.73 297.24 728.23 299.88 729.73 300.41 C 731.24 300.94 732.74 309.54 734.24 300.41 C 735.75 291.29 737.25 248.19 738.75 245.67 C 740.25 243.16 741.76 282.83 743.26 285.34 C 744.76 287.85 746.27 260.09 747.77 260.75 C 749.27 261.41 750.77 285.21 752.28 289.31 C 753.78 293.41 755.28 283.62 756.78 285.34 C 758.29 287.06 759.79 297.11 761.29 299.62 C 762.80 302.13 764.30 300.28 765.80 300.41 C 767.30 300.55 768.81 300.41 770.31 300.41 C 771.81 300.41 773.31 300.81 774.82 300.41 C 776.32 300.02 777.82 305.57 779.33 298.03 C 780.83 290.50 782.33 255.99 783.83 255.19 C 785.34 254.40 786.84 289.57 788.34 293.27 C 789.85 296.98 791.35 277.67 792.85 277.41 C 794.35 277.14 795.86 291.55 797.36 291.69 C 798.86 291.82 800.36 279.13 801.87 278.20 C 803.37 277.27 804.87 282.70 806.38 286.13 C 807.88 289.57 809.38 296.45 810.88 298.83 C 812.39 301.21 813.89 300.15 815.39 300.41 C 816.90 300.68 818.40 300.41 819.90 300.41 C 821.40 300.41 822.91 300.55 824.41 300.41 C 825.91 300.28 827.41 302.93 828.92 299.62 C 830.42 296.31 831.92 280.71 833.43 280.58 C 834.93 280.45 836.43 299.49 837.93 298.83 C 839.44 298.17 840.94 276.35 842.44 276.61 C 843.94 276.88 845.45 298.03 846.95 300.41 C 848.45 302.79 849.96 302.66 851.46 290.89 C 852.96 279.13 854.46 237.08 855.97 229.81 C 857.47 222.53 858.97 241.44 860.48 247.26 C 861.98 253.08 863.48 260.09 864.98 264.71 C 866.49 269.34 867.99 269.21 869.49 275.03 C 870.99 280.84 873.25 295.52 874.00 299.62" fill="none" stroke="#22C55E" stroke-opacity="0.20" stroke-width="7" stroke-linecap="round" stroke-linejoin="round"/>
<path d="M 58.00 302.00 C 58.75 302.00 61.01 302.00 62.51 302.00 C 64.01 302.00 65.51 302.00 67.02 302.00 C 68.52 302.00 70.02 302.00 71.52 302.00 C 73.03 302.00 74.53 302.00 76.03 302.00 C 77.54 302.00 79.04 302.93 80.54 302.00 C 82.04 301.07 83.55 299.49 85.05 296.45 C 86.55 293.41 88.06 287.06 89.56 283.75 C 91.06 280.45 92.56 273.70 94.07 276.61 C 95.57 279.52 97.07 296.98 98.57 301.21 C 100.08 305.44 101.58 301.87 103.08 302.00 C 104.59 302.13 106.09 302.26 107.59 302.00 C 109.09 301.74 110.60 300.41 112.10 300.41 C 113.60 300.41 115.10 302.93 116.61 302.00 C 118.11 301.07 119.61 295.26 121.12 294.86 C 122.62 294.46 124.12 299.49 125.62 299.62 C 127.13 299.75 128.63 301.07 130.13 295.65 C 131.64 290.23 133.14 271.06 134.64 267.09 C 136.14 263.13 137.65 268.42 139.15 271.85 C 140.65 275.29 142.15 284.55 143.66 287.72 C 145.16 290.89 146.66 288.78 148.17 290.89 C 149.67 293.01 151.17 298.96 152.67 300.41 C 154.18 301.87 155.68 299.49 157.18 299.62 C 158.69 299.75 160.19 300.81 161.69 301.21 C 163.19 301.60 164.70 301.87 166.20 302.00 C 167.70 302.13 169.20 302.00 170.71 302.00 C 172.21 302.00 173.71 305.44 175.22 302.00 C 176.72 298.56 178.22 282.43 179.72 281.37 C 181.23 280.32 182.73 296.98 184.23 295.65 C 185.73 294.33 187.24 273.57 188.74 273.44 C 190.24 273.31 191.75 293.41 193.25 294.86 C 194.75 296.31 196.25 282.17 197.76 282.17 C 199.26 282.17 200.76 296.18 202.27 294.86 C 203.77 293.54 205.27 275.95 206.77 274.23 C 208.28 272.51 209.78 281.64 211.28 284.55 C 212.78 287.46 214.29 288.78 215.79 291.69 C 217.29 294.60 218.80 303.59 220.30 302.00 C 221.80 300.41 223.30 283.22 224.81 282.17 C 226.31 281.11 227.81 292.35 229.31 295.65 C 230.82 298.96 232.32 301.34 233.82 302.00 C 235.33 302.66 236.83 303.98 238.33 299.62 C 239.83 295.26 241.34 303.45 242.84 275.82 C 244.34 248.19 245.85 133.95 247.35 133.81 C 248.85 133.68 250.35 249.51 251.86 275.03 C 253.36 300.55 254.86 282.43 256.36 286.93 C 257.87 291.42 259.37 301.87 260.87 302.00 C 262.38 302.13 263.88 287.98 265.38 287.72 C 266.88 287.46 268.39 300.28 269.89 300.41 C 271.39 300.55 272.90 289.44 274.40 288.51 C 275.90 287.59 277.40 295.65 278.91 294.86 C 280.41 294.07 281.91 285.74 283.41 283.75 C 284.92 281.77 286.42 284.41 287.92 282.96 C 289.43 281.51 290.93 272.91 292.43 275.03 C 293.93 277.14 295.44 291.16 296.94 295.65 C 298.44 300.15 299.94 303.85 301.45 302.00 C 302.95 300.15 304.45 287.59 305.96 284.55 C 307.46 281.51 308.96 282.03 310.46 283.75 C 311.97 285.47 313.47 294.60 314.97 294.86 C 316.48 295.12 317.98 285.60 319.48 285.34 C 320.98 285.08 322.49 292.35 323.99 293.27 C 325.49 294.20 326.99 291.16 328.50 290.89 C 330.00 290.63 331.50 290.50 333.01 291.69 C 334.51 292.88 336.01 296.31 337.51 298.03 C 339.02 299.75 340.52 302.26 342.02 302.00 C 343.52 301.74 345.03 296.45 346.53 296.45 C 348.03 296.45 349.54 301.07 351.04 302.00 C 352.54 302.93 354.04 302.00 355.55 302.00 C 357.05 302.00 358.55 302.00 360.06 302.00 C 361.56 302.00 363.06 303.19 364.56 302.00 C 366.07 300.81 367.57 294.86 369.07 294.86 C 370.57 294.86 372.08 300.81 373.58 302.00 C 375.08 303.19 376.59 303.45 378.09 302.00 C 379.59 300.55 381.09 293.93 382.60 293.27 C 384.10 292.61 385.60 296.58 387.10 298.03 C 388.61 299.49 390.11 301.34 391.61 302.00 C 393.12 302.66 394.62 302.40 396.12 302.00 C 397.62 301.60 399.13 299.88 400.63 299.62 C 402.13 299.36 403.64 300.81 405.14 300.41 C 406.64 300.02 408.14 300.81 409.65 297.24 C 411.15 293.67 412.65 279.26 414.15 278.99 C 415.66 278.73 417.16 291.82 418.66 295.65 C 420.17 299.49 421.67 302.40 423.17 302.00 C 424.67 301.60 426.18 297.11 427.68 293.27 C 429.18 289.44 430.69 279.39 432.19 278.99 C 433.69 278.60 435.19 287.19 436.70 290.89 C 438.20 294.60 439.70 303.72 441.20 301.21 C 442.71 298.69 444.21 280.98 445.71 275.82 C 447.22 270.66 448.72 269.74 450.22 270.27 C 451.72 270.80 453.23 274.63 454.73 278.99 C 456.23 283.36 457.73 292.61 459.24 296.45 C 460.74 300.28 462.24 301.47 463.75 302.00 C 465.25 302.53 466.75 299.62 468.25 299.62 C 469.76 299.62 471.26 301.60 472.76 302.00 C 474.27 302.40 475.77 302.00 477.27 302.00 C 478.77 302.00 480.28 304.64 481.78 302.00 C 483.28 299.36 484.78 288.65 486.29 286.13 C 487.79 283.62 489.29 285.21 490.80 286.93 C 492.30 288.65 493.80 294.46 495.30 296.45 C 496.81 298.43 498.31 298.30 499.81 298.83 C 501.31 299.36 502.82 299.09 504.32 299.62 C 505.82 300.15 507.33 302.40 508.83 302.00 C 510.33 301.60 511.83 297.64 513.34 297.24 C 514.84 296.84 516.34 301.21 517.85 299.62 C 519.35 298.03 520.85 288.12 522.35 287.72 C 523.86 287.32 525.36 295.92 526.86 297.24 C 528.36 298.56 529.87 296.58 531.37 295.65 C 532.87 294.73 534.38 299.75 535.88 291.69 C 537.38 283.62 538.88 251.49 540.39 247.26 C 541.89 243.03 543.39 294.46 544.90 266.30 C 546.40 238.14 547.90 100.49 549.40 78.28 C 550.91 56.07 552.41 108.29 553.91 133.02 C 555.41 157.75 556.92 207.06 558.42 226.63 C 559.92 246.20 561.43 249.11 562.93 250.43 C 564.43 251.76 565.93 230.47 567.44 234.57 C 568.94 238.67 570.44 263.79 571.94 275.03 C 573.45 286.27 574.95 298.30 576.45 302.00 C 577.96 305.70 579.46 297.77 580.96 297.24 C 582.46 296.71 583.97 301.87 585.47 298.83 C 586.97 295.79 588.48 278.99 589.98 278.99 C 591.48 278.99 592.98 300.28 594.49 298.83 C 595.99 297.37 597.49 275.82 598.99 270.27 C 600.50 264.71 602.00 260.22 603.50 265.51 C 605.01 270.80 606.51 297.24 608.01 302.00 C 609.51 306.76 611.02 294.07 612.52 294.07 C 614.02 294.07 615.52 302.53 617.03 302.00 C 618.53 301.47 620.03 292.22 621.54 290.89 C 623.04 289.57 624.54 303.59 626.04 294.07 C 627.55 284.55 629.05 238.40 630.55 233.77 C 632.06 229.15 633.56 267.62 635.06 266.30 C 636.56 264.98 638.07 228.75 639.57 225.84 C 641.07 222.93 642.57 249.24 644.08 248.85 C 645.58 248.45 647.08 222.80 648.59 223.46 C 650.09 224.12 651.59 249.11 653.09 252.81 C 654.60 256.52 656.10 238.00 657.60 245.67 C 659.10 253.34 660.61 292.22 662.11 298.83 C 663.61 305.44 665.12 289.70 666.62 285.34 C 668.12 280.98 669.62 287.72 671.13 272.65 C 672.63 257.57 674.13 195.30 675.64 194.90 C 677.14 194.50 678.64 253.08 680.14 270.27 C 681.65 287.46 683.15 293.80 684.65 298.03 C 686.15 302.26 687.66 296.18 689.16 295.65 C 690.66 295.12 692.17 297.50 693.67 294.86 C 695.17 292.22 696.67 281.24 698.18 279.79 C 699.68 278.33 701.18 282.96 702.69 286.13 C 704.19 289.31 705.69 297.50 707.19 298.83 C 708.70 300.15 710.20 294.86 711.70 294.07 C 713.20 293.27 714.71 293.01 716.21 294.07 C 717.71 295.12 719.22 299.88 720.72 300.41 C 722.22 300.94 723.72 297.24 725.23 297.24 C 726.73 297.24 728.23 299.88 729.73 300.41 C 731.24 300.94 732.74 309.54 734.24 300.41 C 735.75 291.29 737.25 248.19 738.75 245.67 C 740.25 243.16 741.76 282.83 743.26 285.34 C 744.76 287.85 746.27 260.09 747.77 260.75 C 749.27 261.41 750.77 285.21 752.28 289.31 C 753.78 293.41 755.28 283.62 756.78 285.34 C 758.29 287.06 759.79 297.11 761.29 299.62 C 762.80 302.13 764.30 300.28 765.80 300.41 C 767.30 300.55 768.81 300.41 770.31 300.41 C 771.81 300.41 773.31 300.81 774.82 300.41 C 776.32 300.02 777.82 305.57 779.33 298.03 C 780.83 290.50 782.33 255.99 783.83 255.19 C 785.34 254.40 786.84 289.57 788.34 293.27 C 789.85 296.98 791.35 277.67 792.85 277.41 C 794.35 277.14 795.86 291.55 797.36 291.69 C 798.86 291.82 800.36 279.13 801.87 278.20 C 803.37 277.27 804.87 282.70 806.38 286.13 C 807.88 289.57 809.38 296.45 810.88 298.83 C 812.39 301.21 813.89 300.15 815.39 300.41 C 816.90 300.68 818.40 300.41 819.90 300.41 C 821.40 300.41 822.91 300.55 824.41 300.41 C 825.91 300.28 827.41 302.93 828.92 299.62 C 830.42 296.31 831.92 280.71 833.43 280.58 C 834.93 280.45 836.43 299.49 837.93 298.83 C 839.44 298.17 840.94 276.35 842.44 276.61 C 843.94 276.88 845.45 298.03 846.95 300.41 C 848.45 302.79 849.96 302.66 851.46 290.89 C 852.96 279.13 854.46 237.08 855.97 229.81 C 857.47 222.53 858.97 241.44 860.48 247.26 C 861.98 253.08 863.48 260.09 864.98 264.71 C 866.49 269.34 867.99 269.21 869.49 275.03 C 870.99 280.84 873.25 295.52 874.00 299.62" fill="none" stroke="#22C55E" stroke-width="2.4" stroke-linecap="round" stroke-linejoin="round"/>
<circle cx="549.4" cy="78.3" r="4.5" fill="#4ADE80" stroke="#0B1120" stroke-width="2"/>
<text x="549.4" y="68.3" text-anchor="middle" font-family="ui-monospace,Menlo,monospace" font-size="10" font-weight="700" fill="#4ADE80">282</text>
<circle cx="874.0" cy="299.6" r="3.5" fill="#F8FAFC"/>
<text x="16" y="183" text-anchor="middle" font-family="ui-monospace,Menlo,monospace" font-size="10" fill="#94A3B8" transform="rotate(-90 16 183)">Contributions</text>
</svg>