<svg xmlns="http://www.w3.org/2000/svg" width="900" height="340" viewBox="0 0 900 340" role="img" aria-label="Contribution activity, last 6 months">
<defs>
<linearGradient id="bg" x1="0" y1="0" x2="0" y2="1"><stop offset="0" stop-color="#0F172A"/><stop offset="1" stop-color="#0B1120"/></linearGradient>
<linearGradient id="area" x1="0" y1="0" x2="0" y2="1"><stop offset="0" stop-color="#22C55E" stop-opacity="0.42"/><stop offset="0.7" stop-color="#22C55E" stop-opacity="0.08"/><stop offset="1" stop-color="#22C55E" stop-opacity="0"/></linearGradient>
</defs>
<rect x="0" y="0" width="900" height="340" rx="14" fill="url(#bg)"/>
<text x="450" y="32" text-anchor="middle" font-family="ui-monospace,Menlo,monospace" font-size="17" font-weight="700" fill="#F8FAFC" letter-spacing="0.5">last 6 months</text>
<text x="450" y="50" text-anchor="middle" font-family="ui-monospace,Menlo,monospace" font-size="11" fill="#94A3B8">4,058 contributions · peak 282</text>
<line x1="58" y1="302.0" x2="874" y2="302.0" stroke="#1E293B" stroke-width="1" stroke-dasharray="2 4"/>
<text x="48" y="305.5" text-anchor="end" font-family="ui-monospace,Menlo,monospace" font-size="10" fill="#94A3B8">0</text>
<line x1="58" y1="242.5" x2="874" y2="242.5" stroke="#1E293B" stroke-width="1" stroke-dasharray="2 4"/>
<text x="48" y="246.0" text-anchor="end" font-family="ui-monospace,Menlo,monospace" font-size="10" fill="#94A3B8">75</text>
<line x1="58" y1="183.0" x2="874" y2="183.0" stroke="#1E293B" stroke-width="1" stroke-dasharray="2 4"/>
<text x="48" y="186.5" text-anchor="end" font-family="ui-monospace,Menlo,monospace" font-size="10" fill="#94A3B8">150</text>
<line x1="58" y1="123.5" x2="874" y2="123.5" stroke="#1E293B" stroke-width="1" stroke-dasharray="2 4"/>
<text x="48" y="127.0" text-anchor="end" font-family="ui-monospace,Menlo,monospace" font-size="10" fill="#94A3B8">225</text>
<line x1="58" y1="64.0" x2="874" y2="64.0" stroke="#1E293B" stroke-width="1" stroke-dasharray="2 4"/>
<text x="48" y="67.5" text-anchor="end" font-family="ui-monospace,Menlo,monospace" font-size="10" fill="#94A3B8">300</text>
<line x1="179.7" y1="64" x2="179.7" y2="302" stroke="#1E293B" stroke-width="1" stroke-opacity="0.6"/>
<text x="179.7" y="322" text-anchor="middle" font-family="ui-monospace,Menlo,monospace" font-size="10" fill="#94A3B8">Feb</text>
<line x1="306.0" y1="64" x2="306.0" y2="302" stroke="#1E293B" stroke-width="1" stroke-opacity="0.6"/>
<text x="306.0" y="322" text-anchor="middle" font-family="ui-monospace,Menlo,monospace" font-size="10" fill="#94A3B8">Mar</text>
<line x1="445.7" y1="64" x2="445.7" y2="302" stroke="#1E293B" stroke-width="1" stroke-opacity="0.6"/>
<text x="445.7" y="322" text-anchor="middle" font-family="ui-monospace,Menlo,monospace" font-size="10" fill="#94A3B8">Apr</text>
<line x1="581.0" y1="64" x2="581.0" y2="302" stroke="#1E293B" stroke-width="1" stroke-opacity="0.6"/>
<text x="581.0" y="322" text-anchor="middle" font-family="ui-monospace,Menlo,monospace" font-size="10" fill="#94A3B8">May</text>
<line x1="720.7" y1="64" x2="720.7" y2="302" stroke="#1E293B" stroke-width="1" stroke-opacity="0.6"/>
<text x="720.7" y="322" text-anchor="middle" font-family="ui-monospace,Menlo,monospace" font-size="10" fill="#94A3B8">Jun</text>
<line x1="856.0" y1="64" x2="856.0" y2="302" stroke="#1E293B" stroke-width="1" stroke-opacity="0.6"/>
<text x="856.0" y="322" text-anchor="middle" font-family="ui-monospace,Menlo,monospace" font-size="10" fill="#94A3B8">Jul</text>
<path d="M 58.00 302.00 C 58.75 301.07 61.01 299.49 62.51 296.45 C 64.01 293.41 65.51 287.06 67.02 283.75 C 68.52 280.45 70.02 273.70 71.52 276.61 C 73.03 279.52 74.53 296.98 76.03 301.21 C 77.54 305.44 79.04 301.87 80.54 302.00 C 82.04 302.13 83.55 302.26 85.05 302.00 C 86.55 301.74 88.06 300.41 89.56 300.41 C 91.06 300.41 92.56 302.93 94.07 302.00 C 95.57 301.07 97.07 295.26 98.57 294.86 C 100.08 294.46 101.58 299.49 103.08 299.62 C 104.59 299.75 106.09 301.07 107.59 295.65 C 109.09 290.23 110.60 271.06 112.10 267.09 C 113.60 263.13 115.10 268.42 116.61 271.85 C 118.11 275.29 119.61 284.55 121.12 287.72 C 122.62 290.89 124.12 288.78 125.62 290.89 C 127.13 293.01 128.63 298.96 130.13 300.41 C 131.64 301.87 133.14 299.49 134.64 299.62 C 136.14 299.75 137.65 300.81 139.15 301.21 C 140.65 301.60 142.15 301.87 143.66 302.00 C 145.16 302.13 146.66 302.00 148.17 302.00 C 149.67 302.00 151.17 305.44 152.67 302.00 C 154.18 298.56 155.68 282.43 157.18 281.37 C 158.69 280.32 160.19 296.98 161.69 295.65 C 163.19 294.33 164.70 273.57 166.20 273.44 C 167.70 273.31 169.20 293.41 170.71 294.86 C 172.21 296.31 173.71 282.17 175.22 282.17 C 176.72 282.17 178.22 296.18 179.72 294.86 C 181.23 293.54 182.73 275.95 184.23 274.23 C 185.73 272.51 187.24 281.64 188.74 284.55 C 190.24 287.46 191.75 288.78 193.25 291.69 C 194.75 294.60 196.25 303.59 197.76 302.00 C 199.26 300.41 200.76 283.22 202.27 282.17 C 203.77 281.11 205.27 292.35 206.77 295.65 C 208.28 298.96 209.78 301.34 211.28 302.00 C 212.78 302.66 214.29 303.98 215.79 299.62 C 217.29 295.26 218.80 303.45 220.30 275.82 C 221.80 248.19 223.30 133.95 224.81 133.81 C 226.31 133.68 227.81 249.51 229.31 275.03 C 230.82 300.55 232.32 282.43 233.82 286.93 C 235.33 291.42 236.83 301.87 238.33 302.00 C 239.83 302.13 241.34 287.98 242.84 287.72 C 244.34 287.46 245.85 300.28 247.35 300.41 C 248.85 300.55 250.35 289.44 251.86 288.51 C 253.36 287.59 254.86 295.65 256.36 294.86 C 257.87 294.07 259.37 285.74 260.87 283.75 C 262.38 281.77 263.88 284.41 265.38 282.96 C 266.88 281.51 268.39 272.91 269.89 275.03 C 271.39 277.14 272.90 291.16 274.40 295.65 C 275.90 300.15 277.40 303.85 278.91 302.00 C 280.41 300.15 281.91 287.59 283.41 284.55 C 284.92 281.51 286.42 282.03 287.92 283.75 C 289.43 285.47 290.93 294.60 292.43 294.86 C 293.93 295.12 295.44 285.60 296.94 285.34 C 298.44 285.08 299.94 292.35 301.45 293.27 C 302.95 294.20 304.45 291.16 305.96 290.89 C 307.46 290.63 308.96 290.50 310.46 291.69 C 311.97 292.88 313.47 296.31 314.97 298.03 C 316.48 299.75 317.98 302.26 319.48 302.00 C 320.98 301.74 322.49 296.45 323.99 296.45 C 325.49 296.45 326.99 301.07 328.50 302.00 C 330.00 302.93 331.50 302.00 333.01 302.00 C 334.51 302.00 336.01 302.00 337.51 302.00 C 339.02 302.00 340.52 303.19 342.02 302.00 C 343.52 300.81 345.03 294.86 346.53 294.86 C 348.03 294.86 349.54 300.81 351.04 302.00 C 352.54 303.19 354.04 303.45 355.55 302.00 C 357.05 300.55 358.55 293.93 360.06 293.27 C 361.56 292.61 363.06 296.58 364.56 298.03 C 366.07 299.49 367.57 301.34 369.07 302.00 C 370.57 302.66 372.08 302.40 373.58 302.00 C 375.08 301.60 376.59 299.88 378.09 299.62 C 379.59 299.36 381.09 300.81 382.60 300.41 C 384.10 300.02 385.60 300.81 387.10 297.24 C 388.61 293.67 390.11 279.26 391.61 278.99 C 393.12 278.73 394.62 291.82 396.12 295.65 C 397.62 299.49 399.13 302.40 400.63 302.00 C 402.13 301.60 403.64 297.11 405.14 293.27 C 406.64 289.44 408.14 279.39 409.65 278.99 C 411.15 278.60 412.65 287.19 414.15 290.89 C 415.66 294.60 417.16 303.72 418.66 301.21 C 420.17 298.69 421.67 280.98 423.17 275.82 C 424.67 270.66 426.18 269.74 427.68 270.27 C 429.18 270.80 430.69 274.63 432.19 278.99 C 433.69 283.36 435.19 292.61 436.70 296.45 C 438.20 300.28 439.70 301.47 441.20 302.00 C 442.71 302.53 444.21 299.62 445.71 299.62 C 447.22 299.62 448.72 301.60 450.22 302.00 C 451.72 302.40 453.23 302.00 454.73 302.00 C 456.23 302.00 457.73 304.64 459.24 302.00 C 460.74 299.36 462.24 288.65 463.75 286.13 C 465.25 283.62 466.75 285.21 468.25 286.93 C 469.76 288.65 471.26 294.46 472.76 296.45 C 474.27 298.43 475.77 298.30 477.27 298.83 C 478.77 299.36 480.28 299.09 481.78 299.62 C 483.28 300.15 484.78 302.40 486.29 302.00 C 487.79 301.60 489.29 297.64 490.80 297.24 C 492.30 296.84 493.80 301.21 495.30 299.62 C 496.81 298.03 498.31 288.12 499.81 287.72 C 501.31 287.32 502.82 295.92 504.32 297.24 C 505.82 298.56 507.33 296.58 508.83 295.65 C 510.33 294.73 511.83 299.75 513.34 291.69 C 514.84 283.62 516.34 251.49 517.85 247.26 C 519.35 243.03 520.85 294.46 522.35 266.30 C 523.86 238.14 525.36 100.49 526.86 78.28 C 528.36 56.07 529.87 108.29 531.37 133.02 C 532.87 157.75 534.38 207.06 535.88 226.63 C 537.38 246.20 538.88 249.11 540.39 250.43 C 541.89 251.76 543.39 230.47 544.90 234.57 C 546.40 238.67 547.90 263.79 549.40 275.03 C 550.91 286.27 552.41 298.30 553.91 302.00 C 555.41 305.70 556.92 297.77 558.42 297.24 C 559.92 296.71 561.43 301.87 562.93 298.83 C 564.43 295.79 565.93 278.99 567.44 278.99 C 568.94 278.99 570.44 300.28 571.94 298.83 C 573.45 297.37 574.95 275.82 576.45 270.27 C 577.96 264.71 579.46 260.22 580.96 265.51 C 582.46 270.80 583.97 297.24 585.47 302.00 C 586.97 306.76 588.48 294.07 589.98 294.07 C 591.48 294.07 592.98 302.53 594.49 302.00 C 595.99 301.47 597.49 292.22 598.99 290.89 C 600.50 289.57 602.00 303.59 603.50 294.07 C 605.01 284.55 606.51 238.40 608.01 233.77 C 609.51 229.15 611.02 267.62 612.52 266.30 C 614.02 264.98 615.52 228.75 617.03 225.84 C 618.53 222.93 620.03 249.24 621.54 248.85 C 623.04 248.45 624.54 222.80 626.04 223.46 C 627.55 224.12 629.05 249.11 630.55 252.81 C 632.06 256.52 633.56 238.00 635.06 245.67 C 636.56 253.34 638.07 292.22 639.57 298.83 C 641.07 305.44 642.57 289.70 644.08 285.34 C 645.58 280.98 647.08 287.72 648.59 272.65 C 650.09 257.57 651.59 195.30 653.09 194.90 C 654.60 194.50 656.10 253.08 657.60 270.27 C 659.10 287.46 660.61 293.80 662.11 298.03 C 663.61 302.26 665.12 296.18 666.62 295.65 C 668.12 295.12 669.62 297.50 671.13 294.86 C 672.63 292.22 674.13 281.24 675.64 279.79 C 677.14 278.33 678.64 282.96 680.14 286.13 C 681.65 289.31 683.15 297.50 684.65 298.83 C 686.15 300.15 687.66 294.86 689.16 294.07 C 690.66 293.27 692.17 293.01 693.67 294.07 C 695.17 295.12 696.67 299.88 698.18 300.41 C 699.68 300.94 701.18 297.24 702.69 297.24 C 704.19 297.24 705.69 299.88 707.19 300.41 C 708.70 300.94 710.20 309.54 711.70 300.41 C 713.20 291.29 714.71 248.19 716.21 245.67 C 717.71 243.16 719.22 282.83 720.72 285.34 C 722.22 287.85 723.72 260.09 725.23 260.75 C 726.73 261.41 728.23 285.21 729.73 289.31 C 731.24 293.41 732.74 283.62 734.24 285.34 C 735.75 287.06 737.25 297.11 738.75 299.62 C 740.25 302.13 741.76 300.28 743.26 300.41 C 744.76 300.55 746.27 300.41 747.77 300.41 C 749.27 300.41 750.77 300.81 752.28 300.41 C 753.78 300.02 755.28 305.57 756.78 298.03 C 758.29 290.50 759.79 255.99 761.29 255.19 C 762.80 254.40 764.30 289.57 765.80 293.27 C 767.30 296.98 768.81 277.67 770.31 277.41 C 771.81 277.14 773.31 291.55 774.82 291.69 C 776.32 291.82 777.82 279.13 779.33 278.20 C 780.83 277.27 782.33 282.70 783.83 286.13 C 785.34 289.57 786.84 296.45 788.34 298.83 C 789.85 301.21 791.35 300.15 792.85 300.41 C 794.35 300.68 795.86 300.41 797.36 300.41 C 798.86 300.41 800.36 300.55 801.87 300.41 C 803.37 300.28 804.87 302.93 806.38 299.62 C 807.88 296.31 809.38 280.71 810.88 280.58 C 812.39 280.45 813.89 299.49 815.39 298.83 C 816.90 298.17 818.40 276.35 819.90 276.61 C 821.40 276.88 822.91 298.03 824.41 300.41 C 825.91 302.79 827.41 302.66 828.92 290.89 C 830.42 279.13 831.92 237.08 833.43 229.81 C 834.93 222.53 836.43 241.44 837.93 247.26 C 839.44 253.08 840.94 260.09 842.44 264.71 C 843.94 269.34 845.45 269.34 846.95 275.03 C 848.45 280.71 849.96 299.49 851.46 298.83 C 852.96 298.17 854.46 274.37 855.97 271.06 C 857.47 267.75 858.97 277.80 860.48 278.99 C 861.98 280.18 863.48 276.35 864.98 278.20 C 866.49 280.05 867.99 286.13 869.49 290.10 C 870.99 294.07 873.25 300.02 874.00 302.00 L 874.00 302.00 L 58.00 302.00 Z" fill="url(#area)"/>
<path d="M 58.00 302.00 C 58.75 301.07 61.01 299.49 62.51 296.45 C 64.01 293.41 65.51 287.06 67.02 283.75 C 68.52 280.45 70.02 273.70 71.52 276.61 C 73.03 279.52 74.53 296.98 76.03 301.21 C 77.54 305.44 79.04 301.87 80.54 302.00 C 82.04 302.13 83.55 302.26 85.05 302.00 C 86.55 301.74 88.06 300.41 89.56 300.41 C 91.06 300.41 92.56 302.93 94.07 302.00 C 95.57 301.07 97.07 295.26 98.57 294.86 C 100.08 294.46 101.58 299.49 103.08 299.62 C 104.59 299.75 106.09 301.07 107.59 295.65 C 109.09 290.23 110.60 271.06 112.10 267.09 C 113.60 263.13 115.10 268.42 116.61 271.85 C 118.11 275.29 119.61 284.55 121.12 287.72 C 122.62 290.89 124.12 288.78 125.62 290.89 C 127.13 293.01 128.63 298.96 130.13 300.41 C 131.64 301.87 133.14 299.49 134.64 299.62 C 136.14 299.75 137.65 300.81 139.15 301.21 C 140.65 301.60 142.15 301.87 143.66 302.00 C 145.16 302.13 146.66 302.00 148.17 302.00 C 149.67 302.00 151.17 305.44 152.67 302.00 C 154.18 298.56 155.68 282.43 157.18 281.37 C 158.69 280.32 160.19 296.98 161.69 295.65 C 163.19 294.33 164.70 273.57 166.20 273.44 C 167.70 273.31 169.20 293.41 170.71 294.86 C 172.21 296.31 173.71 282.17 175.22 282.17 C 176.72 282.17 178.22 296.18 179.72 294.86 C 181.23 293.54 182.73 275.95 184.23 274.23 C 185.73 272.51 187.24 281.64 188.74 284.55 C 190.24 287.46 191.75 288.78 193.25 291.69 C 194.75 294.60 196.25 303.59 197.76 302.00 C 199.26 300.41 200.76 283.22 202.27 282.17 C 203.77 281.11 205.27 292.35 206.77 295.65 C 208.28 298.96 209.78 301.34 211.28 302.00 C 212.78 302.66 214.29 303.98 215.79 299.62 C 217.29 295.26 218.80 303.45 220.30 275.82 C 221.80 248.19 223.30 133.95 224.81 133.81 C 226.31 133.68 227.81 249.51 229.31 275.03 C 230.82 300.55 232.32 282.43 233.82 286.93 C 235.33 291.42 236.83 301.87 238.33 302.00 C 239.83 302.13 241.34 287.98 242.84 287.72 C 244.34 287.46 245.85 300.28 247.35 300.41 C 248.85 300.55 250.35 289.44 251.86 288.51 C 253.36 287.59 254.86 295.65 256.36 294.86 C 257.87 294.07 259.37 285.74 260.87 283.75 C 262.38 281.77 263.88 284.41 265.38 282.96 C 266.88 281.51 268.39 272.91 269.89 275.03 C 271.39 277.14 272.90 291.16 274.40 295.65 C 275.90 300.15 277.40 303.85 278.91 302.00 C 280.41 300.15 281.91 287.59 283.41 284.55 C 284.92 281.51 286.42 282.03 287.92 283.75 C 289.43 285.47 290.93 294.60 292.43 294.86 C 293.93 295.12 295.44 285.60 296.94 285.34 C 298.44 285.08 299.94 292.35 301.45 293.27 C 302.95 294.20 304.45 291.16 305.96 290.89 C 307.46 290.63 308.96 290.50 310.46 291.69 C 311.97 292.88 313.47 296.31 314.97 298.03 C 316.48 299.75 317.98 302.26 319.48 302.00 C 320.98 301.74 322.49 296.45 323.99 296.45 C 325.49 296.45 326.99 301.07 328.50 302.00 C 330.00 302.93 331.50 302.00 333.01 302.00 C 334.51 302.00 336.01 302.00 337.51 302.00 C 339.02 302.00 340.52 303.19 342.02 302.00 C 343.52 300.81 345.03 294.86 346.53 294.86 C 348.03 294.86 349.54 300.81 351.04 302.00 C 352.54 303.19 354.04 303.45 355.55 302.00 C 357.05 300.55 358.55 293.93 360.06 293.27 C 361.56 292.61 363.06 296.58 364.56 298.03 C 366.07 299.49 367.57 301.34 369.07 302.00 C 370.57 302.66 372.08 302.40 373.58 302.00 C 375.08 301.60 376.59 299.88 378.09 299.62 C 379.59 299.36 381.09 300.81 382.60 300.41 C 384.10 300.02 385.60 300.81 387.10 297.24 C 388.61 293.67 390.11 279.26 391.61 278.99 C 393.12 278.73 394.62 291.82 396.12 295.65 C 397.62 299.49 399.13 302.40 400.63 302.00 C 402.13 301.60 403.64 297.11 405.14 293.27 C 406.64 289.44 408.14 279.39 409.65 278.99 C 411.15 278.60 412.65 287.19 414.15 290.89 C 415.66 294.60 417.16 303.72 418.66 301.21 C 420.17 298.69 421.67 280.98 423.17 275.82 C 424.67 270.66 426.18 269.74 427.68 270.27 C 429.18 270.80 430.69 274.63 432.19 278.99 C 433.69 283.36 435.19 292.61 436.70 296.45 C 438.20 300.28 439.70 301.47 441.20 302.00 C 442.71 302.53 444.21 299.62 445.71 299.62 C 447.22 299.62 448.72 301.60 450.22 302.00 C 451.72 302.40 453.23 302.00 454.73 302.00 C 456.23 302.00 457.73 304.64 459.24 302.00 C 460.74 299.36 462.24 288.65 463.75 286.13 C 465.25 283.62 466.75 285.21 468.25 286.93 C 469.76 288.65 471.26 294.46 472.76 296.45 C 474.27 298.43 475.77 298.30 477.27 298.83 C 478.77 299.36 480.28 299.09 481.78 299.62 C 483.28 300.15 484.78 302.40 486.29 302.00 C 487.79 301.60 489.29 297.64 490.80 297.24 C 492.30 296.84 493.80 301.21 495.30 299.62 C 496.81 298.03 498.31 288.12 499.81 287.72 C 501.31 287.32 502.82 295.92 504.32 297.24 C 505.82 298.56 507.33 296.58 508.83 295.65 C 510.33 294.73 511.83 299.75 513.34 291.69 C 514.84 283.62 516.34 251.49 517.85 247.26 C 519.35 243.03 520.85 294.46 522.35 266.30 C 523.86 238.14 525.36 100.49 526.86 78.28 C 528.36 56.07 529.87 108.29 531.37 133.02 C 532.87 157.75 534.38 207.06 535.88 226.63 C 537.38 246.20 538.88 249.11 540.39 250.43 C 541.89 251.76 543.39 230.47 544.90 234.57 C 546.40 238.67 547.90 263.79 549.40 275.03 C 550.91 286.27 552.41 298.30 553.91 302.00 C 555.41 305.70 556.92 297.77 558.42 297.24 C 559.92 296.71 561.43 301.87 562.93 298.83 C 564.43 295.79 565.93 278.99 567.44 278.99 C 568.94 278.99 570.44 300.28 571.94 298.83 C 573.45 297.37 574.95 275.82 576.45 270.27 C 577.96 264.71 579.46 260.22 580.96 265.51 C 582.46 270.80 583.97 297.24 585.47 302.00 C 586.97 306.76 588.48 294.07 589.98 294.07 C 591.48 294.07 592.98 302.53 594.49 302.00 C 595.99 301.47 597.49 292.22 598.99 290.89 C 600.50 289.57 602.00 303.59 603.50 294.07 C 605.01 284.55 606.51 238.40 608.01 233.77 C 609.51 229.15 611.02 267.62 612.52 266.30 C 614.02 264.98 615.52 228.75 617.03 225.84 C 618.53 222.93 620.03 249.24 621.54 248.85 C 623.04 248.45 624.54 222.80 626.04 223.46 C 627.55 224.12 629.05 249.11 630.55 252.81 C 632.06 256.52 633.56 238.00 635.06 245.67 C 636.56 253.34 638.07 292.22 639.57 298.83 C 641.07 305.44 642.57 289.70 644.08 285.34 C 645.58 280.98 647.08 287.72 648.59 272.65 C 650.09 257.57 651.59 195.30 653.09 194.90 C 654.60 194.50 656.10 253.08 657.60 270.27 C 659.10 287.46 660.61 293.80 662.11 298.03 C 663.61 302.26 665.12 296.18 666.62 295.65 C 668.12 295.12 669.62 297.50 671.13 294.86 C 672.63 292.22 674.13 281.24 675.64 279.79 C 677.14 278.33 678.64 282.96 680.14 286.13 C 681.65 289.31 683.15 297.50 684.65 298.83 C 686.15 300.15 687.66 294.86 689.16 294.07 C 690.66 293.27 692.17 293.01 693.67 294.07 C 695.17 295.12 696.67 299.88 698.18 300.41 C 699.68 300.94 701.18 297.24 702.69 297.24 C 704.19 297.24 705.69 299.88 707.19 300.41 C 708.70 300.94 710.20 309.54 711.70 300.41 C 713.20 291.29 714.71 248.19 716.21 245.67 C 717.71 243.16 719.22 282.83 720.72 285.34 C 722.22 287.85 723.72 260.09 725.23 260.75 C 726.73 261.41 728.23 285.21 729.73 289.31 C 731.24 293.41 732.74 283.62 734.24 285.34 C 735.75 287.06 737.25 297.11 738.75 299.62 C 740.25 302.13 741.76 300.28 743.26 300.41 C 744.76 300.55 746.27 300.41 747.77 300.41 C 749.27 300.41 750.77 300.81 752.28 300.41 C 753.78 300.02 755.28 305.57 756.78 298.03 C 758.29 290.50 759.79 255.99 761.29 255.19 C 762.80 254.40 764.30 289.57 765.80 293.27 C 767.30 296.98 768.81 277.67 770.31 277.41 C 771.81 277.14 773.31 291.55 774.82 291.69 C 776.32 291.82 777.82 279.13 779.33 278.20 C 780.83 277.27 782.33 282.70 783.83 286.13 C 785.34 289.57 786.84 296.45 788.34 298.83 C 789.85 301.21 791.35 300.15 792.85 300.41 C 794.35 300.68 795.86 300.41 797.36 300.41 C 798.86 300.41 800.36 300.55 801.87 300.41 C 803.37 300.28 804.87 302.93 806.38 299.62 C 807.88 296.31 809.38 280.71 810.88 280.58 C 812.39 280.45 813.89 299.49 815.39 298.83 C 816.90 298.17 818.40 276.35 819.90 276.61 C 821.40 276.88 822.91 298.03 824.41 300.41 C 825.91 302.79 827.41 302.66 828.92 290.89 C 830.42 279.13 831.92 237.08 833.43 229.81 C 834.93 222.53 836.43 241.44 837.93 247.26 C 839.44 253.08 840.94 260.09 842.44 264.71 C 843.94 269.34 845.45 269.34 846.95 275.03 C 848.45 280.71 849.96 299.49 851.46 298.83 C 852.96 298.17 854.46 274.37 855.97 271.06 C 857.47 267.75 858.97 277.80 860.48 278.99 C 861.98 280.18 863.48 276.35 864.98 278.20 C 866.49 280.05 867.99 286.13 869.49 290.10 C 870.99 294.07 873.25 300.02 874.00 302.00" fill="none" stroke="#22C55E" stroke-opacity="0.20" stroke-width="7" stroke-linecap="round" stroke-linejoin="round"/>
<path d="M 58.00 302.00 C 58.75 301.07 61.01 299.49 62.51 296.45 C 64.01 293.41 65.51 287.06 67.02 283.75 C 68.52 280.45 70.02 273.70 71.52 276.61 C 73.03 279.52 74.53 296.98 76.03 301.21 C 77.54 305.44 79.04 301.87 80.54 302.00 C 82.04 302.13 83.55 302.26 85.05 302.00 C 86.55 301.74 88.06 300.41 89.56 300.41 C 91.06 300.41 92.56 302.93 94.07 302.00 C 95.57 301.07 97.07 295.26 98.57 294.86 C 100.08 294.46 101.58 299.49 103.08 299.62 C 104.59 299.75 106.09 301.07 107.59 295.65 C 109.09 290.23 110.60 271.06 112.10 267.09 C 113.60 263.13 115.10 268.42 116.61 271.85 C 118.11 275.29 119.61 284.55 121.12 287.72 C 122.62 290.89 124.12 288.78 125.62 290.89 C 127.13 293.01 128.63 298.96 130.13 300.41 C 131.64 301.87 133.14 299.49 134.64 299.62 C 136.14 299.75 137.65 300.81 139.15 301.21 C 140.65 301.60 142.15 301.87 143.66 302.00 C 145.16 302.13 146.66 302.00 148.17 302.00 C 149.67 302.00 151.17 305.44 152.67 302.00 C 154.18 298.56 155.68 282.43 157.18 281.37 C 158.69 280.32 160.19 296.98 161.69 295.65 C 163.19 294.33 164.70 273.57 166.20 273.44 C 167.70 273.31 169.20 293.41 170.71 294.86 C 172.21 296.31 173.71 282.17 175.22 282.17 C 176.72 282.17 178.22 296.18 179.72 294.86 C 181.23 293.54 182.73 275.95 184.23 274.23 C 185.73 272.51 187.24 281.64 188.74 284.55 C 190.24 287.46 191.75 288.78 193.25 291.69 C 194.75 294.60 196.25 303.59 197.76 302.00 C 199.26 300.41 200.76 283.22 202.27 282.17 C 203.77 281.11 205.27 292.35 206.77 295.65 C 208.28 298.96 209.78 301.34 211.28 302.00 C 212.78 302.66 214.29 303.98 215.79 299.62 C 217.29 295.26 218.80 303.45 220.30 275.82 C 221.80 248.19 223.30 133.95 224.81 133.81 C 226.31 133.68 227.81 249.51 229.31 275.03 C 230.82 300.55 232.32 282.43 233.82 286.93 C 235.33 291.42 236.83 301.87 238.33 302.00 C 239.83 302.13 241.34 287.98 242.84 287.72 C 244.34 287.46 245.85 300.28 247.35 300.41 C 248.85 300.55 250.35 289.44 251.86 288.51 C 253.36 287.59 254.86 295.65 256.36 294.86 C 257.87 294.07 259.37 285.74 260.87 283.75 C 262.38 281.77 263.88 284.41 265.38 282.96 C 266.88 281.51 268.39 272.91 269.89 275.03 C 271.39 277.14 272.90 291.16 274.40 295.65 C 275.90 300.15 277.40 303.85 278.91 302.00 C 280.41 300.15 281.91 287.59 283.41 284.55 C 284.92 281.51 286.42 282.03 287.92 283.75 C 289.43 285.47 290.93 294.60 292.43 294.86 C 293.93 295.12 295.44 285.60 296.94 285.34 C 298.44 285.08 299.94 292.35 301.45 293.27 C 302.95 294.20 304.45 291.16 305.96 290.89 C 307.46 290.63 308.96 290.50 310.46 291.69 C 311.97 292.88 313.47 296.31 314.97 298.03 C 316.48 299.75 317.98 302.26 319.48 302.00 C 320.98 301.74 322.49 296.45 323.99 296.45 C 325.49 296.45 326.99 301.07 328.50 302.00 C 330.00 302.93 331.50 302.00 333.01 302.00 C 334.51 302.00 336.01 302.00 337.51 302.00 C 339.02 302.00 340.52 303.19 342.02 302.00 C 343.52 300.81 345.03 294.86 346.53 294.86 C 348.03 294.86 349.54 300.81 351.04 302.00 C 352.54 303.19 354.04 303.45 355.55 302.00 C 357.05 300.55 358.55 293.93 360.06 293.27 C 361.56 292.61 363.06 296.58 364.56 298.03 C 366.07 299.49 367.57 301.34 369.07 302.00 C 370.57 302.66 372.08 302.40 373.58 302.00 C 375.08 301.60 376.59 299.88 378.09 299.62 C 379.59 299.36 381.09 300.81 382.60 300.41 C 384.10 300.02 385.60 300.81 387.10 297.24 C 388.61 293.67 390.11 279.26 391.61 278.99 C 393.12 278.73 394.62 291.82 396.12 295.65 C 397.62 299.49 399.13 302.40 400.63 302.00 C 402.13 301.60 403.64 297.11 405.14 293.27 C 406.64 289.44 408.14 279.39 409.65 278.99 C 411.15 278.60 412.65 287.19 414.15 290.89 C 415.66 294.60 417.16 303.72 418.66 301.21 C 420.17 298.69 421.67 280.98 423.17 275.82 C 424.67 270.66 426.18 269.74 427.68 270.27 C 429.18 270.80 430.69 274.63 432.19 278.99 C 433.69 283.36 435.19 292.61 436.70 296.45 C 438.20 300.28 439.70 301.47 441.20 302.00 C 442.71 302.53 444.21 299.62 445.71 299.62 C 447.22 299.62 448.72 301.60 450.22 302.00 C 451.72 302.40 453.23 302.00 454.73 302.00 C 456.23 302.00 457.73 304.64 459.24 302.00 C 460.74 299.36 462.24 288.65 463.75 286.13 C 465.25 283.62 466.75 285.21 468.25 286.93 C 469.76 288.65 471.26 294.46 472.76 296.45 C 474.27 298.43 475.77 298.30 477.27 298.83 C 478.77 299.36 480.28 299.09 481.78 299.62 C 483.28 300.15 484.78 302.40 486.29 302.00 C 487.79 301.60 489.29 297.64 490.80 297.24 C 492.30 296.84 493.80 301.21 495.30 299.62 C 496.81 298.03 498.31 288.12 499.81 287.72 C 501.31 287.32 502.82 295.92 504.32 297.24 C 505.82 298.56 507.33 296.58 508.83 295.65 C 510.33 294.73 511.83 299.75 513.34 291.69 C 514.84 283.62 516.34 251.49 517.85 247.26 C 519.35 243.03 520.85 294.46 522.35 266.30 C 523.86 238.14 525.36 100.49 526.86 78.28 C 528.36 56.07 529.87 108.29 531.37 133.02 C 532.87 157.75 534.38 207.06 535.88 226.63 C 537.38 246.20 538.88 249.11 540.39 250.43 C 541.89 251.76 543.39 230.47 544.90 234.57 C 546.40 238.67 547.90 263.79 549.40 275.03 C 550.91 286.27 552.41 298.30 553.91 302.00 C 555.41 305.70 556.92 297.77 558.42 297.24 C 559.92 296.71 561.43 301.87 562.93 298.83 C 564.43 295.79 565.93 278.99 567.44 278.99 C 568.94 278.99 570.44 300.28 571.94 298.83 C 573.45 297.37 574.95 275.82 576.45 270.27 C 577.96 264.71 579.46 260.22 580.96 265.51 C 582.46 270.80 583.97 297.24 585.47 302.00 C 586.97 306.76 588.48 294.07 589.98 294.07 C 591.48 294.07 592.98 302.53 594.49 302.00 C 595.99 301.47 597.49 292.22 598.99 290.89 C 600.50 289.57 602.00 303.59 603.50 294.07 C 605.01 284.55 606.51 238.40 608.01 233.77 C 609.51 229.15 611.02 267.62 612.52 266.30 C 614.02 264.98 615.52 228.75 617.03 225.84 C 618.53 222.93 620.03 249.24 621.54 248.85 C 623.04 248.45 624.54 222.80 626.04 223.46 C 627.55 224.12 629.05 249.11 630.55 252.81 C 632.06 256.52 633.56 238.00 635.06 245.67 C 636.56 253.34 638.07 292.22 639.57 298.83 C 641.07 305.44 642.57 289.70 644.08 285.34 C 645.58 280.98 647.08 287.72 648.59 272.65 C 650.09 257.57 651.59 195.30 653.09 194.90 C 654.60 194.50 656.10 253.08 657.60 270.27 C 659.10 287.46 660.61 293.80 662.11 298.03 C 663.61 302.26 665.12 296.18 666.62 295.65 C 668.12 295.12 669.62 297.50 671.13 294.86 C 672.63 292.22 674.13 281.24 675.64 279.79 C 677.14 278.33 678.64 282.96 680.14 286.13 C 681.65 289.31 683.15 297.50 684.65 298.83 C 686.15 300.15 687.66 294.86 689.16 294.07 C 690.66 293.27 692.17 293.01 693.67 294.07 C 695.17 295.12 696.67 299.88 698.18 300.41 C 699.68 300.94 701.18 297.24 702.69 297.24 C 704.19 297.24 705.69 299.88 707.19 300.41 C 708.70 300.94 710.20 309.54 711.70 300.41 C 713.20 291.29 714.71 248.19 716.21 245.67 C 717.71 243.16 719.22 282.83 720.72 285.34 C 722.22 287.85 723.72 260.09 725.23 260.75 C 726.73 261.41 728.23 285.21 729.73 289.31 C 731.24 293.41 732.74 283.62 734.24 285.34 C 735.75 287.06 737.25 297.11 738.75 299.62 C 740.25 302.13 741.76 300.28 743.26 300.41 C 744.76 300.55 746.27 300.41 747.77 300.41 C 749.27 300.41 750.77 300.81 752.28 300.41 C 753.78 300.02 755.28 305.57 756.78 298.03 C 758.29 290.50 759.79 255.99 761.29 255.19 C 762.80 254.40 764.30 289.57 765.80 293.27 C 767.30 296.98 768.81 277.67 770.31 277.41 C 771.81 277.14 773.31 291.55 774.82 291.69 C 776.32 291.82 777.82 279.13 779.33 278.20 C 780.83 277.27 782.33 282.70 783.83 286.13 C 785.34 289.57 786.84 296.45 788.34 298.83 C 789.85 301.21 791.35 300.15 792.85 300.41 C 794.35 300.68 795.86 300.41 797.36 300.41 C 798.86 300.41 800.36 300.55 801.87 300.41 C 803.37 300.28 804.87 302.93 806.38 299.62 C 807.88 296.31 809.38 280.71 810.88 280.58 C 812.39 280.45 813.89 299.49 815.39 298.83 C 816.90 298.17 818.40 276.35 819.90 276.61 C 821.40 276.88 822.91 298.03 824.41 300.41 C 825.91 302.79 827.41 302.66 828.92 290.89 C 830.42 279.13 831.92 237.08 833.43 229.81 C 834.93 222.53 836.43 241.44 837.93 247.26 C 839.44 253.08 840.94 260.09 842.44 264.71 C 843.94 269.34 845.45 269.34 846.95 275.03 C 848.45 280.71 849.96 299.49 851.46 298.83 C 852.96 298.17 854.46 274.37 855.97 271.06 C 857.47 267.75 858.97 277.80 860.48 278.99 C 861.98 280.18 863.48 276.35 864.98 278.20 C 866.49 280.05 867.99 286.13 869.49 290.10 C 870.99 294.07 873.25 300.02 874.00 302.00" fill="none" stroke="#22C55E" stroke-width="2.4" stroke-linecap="round" stroke-linejoin="round"/>
<circle cx="526.9" cy="78.3" r="4.5" fill="#4ADE80" stroke="#0B1120" stroke-width="2"/>
<text x="526.9" y="68.3" text-anchor="middle" font-family="ui-monospace,Menlo,monospace" font-size="10" font-weight="700" fill="#4ADE80">282</text>
<circle cx="874.0" cy="302.0" r="3.5" fill="#F8FAFC"/>
<text x="16" y="183" text-anchor="middle" font-family="ui-monospace,Menlo,monospace" font-size="10" fill="#94A3B8" transform="rotate(-90 16 183)">Contributions</text>
</svg>