<svg xmlns="http://www.w3.org/2000/svg" width="900" height="340" viewBox="0 0 900 340" role="img" aria-label="Contribution activity, last 6 months">
<defs>
<linearGradient id="bg" x1="0" y1="0" x2="0" y2="1"><stop offset="0" stop-color="#0F172A"/><stop offset="1" stop-color="#0B1120"/></linearGradient>
<linearGradient id="area" x1="0" y1="0" x2="0" y2="1"><stop offset="0" stop-color="#22C55E" stop-opacity="0.42"/><stop offset="0.7" stop-color="#22C55E" stop-opacity="0.08"/><stop offset="1" stop-color="#22C55E" stop-opacity="0"/></linearGradient>
</defs>
<rect x="0" y="0" width="900" height="340" rx="14" fill="url(#bg)"/>
<text x="450" y="32" text-anchor="middle" font-family="ui-monospace,Menlo,monospace" font-size="17" font-weight="700" fill="#F8FAFC" letter-spacing="0.5">last 6 months</text>
<text x="450" y="50" text-anchor="middle" font-family="ui-monospace,Menlo,monospace" font-size="11" fill="#94A3B8">3,827 contributions · peak 282</text>
<line x1="58" y1="302.0" x2="874" y2="302.0" stroke="#1E293B" stroke-width="1" stroke-dasharray="2 4"/>
<text x="48" y="305.5" text-anchor="end" font-family="ui-monospace,Menlo,monospace" font-size="10" fill="#94A3B8">0</text>
<line x1="58" y1="242.5" x2="874" y2="242.5" stroke="#1E293B" stroke-width="1" stroke-dasharray="2 4"/>
<text x="48" y="246.0" text-anchor="end" font-family="ui-monospace,Menlo,monospace" font-size="10" fill="#94A3B8">75</text>
<line x1="58" y1="183.0" x2="874" y2="183.0" stroke="#1E293B" stroke-width="1" stroke-dasharray="2 4"/>
<text x="48" y="186.5" text-anchor="end" font-family="ui-monospace,Menlo,monospace" font-size="10" fill="#94A3B8">150</text>
<line x1="58" y1="123.5" x2="874" y2="123.5" stroke="#1E293B" stroke-width="1" stroke-dasharray="2 4"/>
<text x="48" y="127.0" text-anchor="end" font-family="ui-monospace,Menlo,monospace" font-size="10" fill="#94A3B8">225</text>
<line x1="58" y1="64.0" x2="874" y2="64.0" stroke="#1E293B" stroke-width="1" stroke-dasharray="2 4"/>
<text x="48" y="67.5" text-anchor="end" font-family="ui-monospace,Menlo,monospace" font-size="10" fill="#94A3B8">300</text>
<line x1="76.0" y1="64" x2="76.0" y2="302" stroke="#1E293B" stroke-width="1" stroke-opacity="0.6"/>
<text x="76.0" y="322" text-anchor="middle" font-family="ui-monospace,Menlo,monospace" font-size="10" fill="#94A3B8">Jan</text>
<line x1="215.8" y1="64" x2="215.8" y2="302" stroke="#1E293B" stroke-width="1" stroke-opacity="0.6"/>
<text x="215.8" y="322" text-anchor="middle" font-family="ui-monospace,Menlo,monospace" font-size="10" fill="#94A3B8">Feb</text>
<line x1="342.0" y1="64" x2="342.0" y2="302" stroke="#1E293B" stroke-width="1" stroke-opacity="0.6"/>
<text x="342.0" y="322" text-anchor="middle" font-family="ui-monospace,Menlo,monospace" font-size="10" fill="#94A3B8">Mar</text>
<line x1="481.8" y1="64" x2="481.8" y2="302" stroke="#1E293B" stroke-width="1" stroke-opacity="0.6"/>
<text x="481.8" y="322" text-anchor="middle" font-family="ui-monospace,Menlo,monospace" font-size="10" fill="#94A3B8">Apr</text>
<line x1="617.0" y1="64" x2="617.0" y2="302" stroke="#1E293B" stroke-width="1" stroke-opacity="0.6"/>
<text x="617.0" y="322" text-anchor="middle" font-family="ui-monospace,Menlo,monospace" font-size="10" fill="#94A3B8">May</text>
<line x1="756.8" y1="64" x2="756.8" y2="302" stroke="#1E293B" stroke-width="1" stroke-opacity="0.6"/>
<text x="756.8" y="322" text-anchor="middle" font-family="ui-monospace,Menlo,monospace" font-size="10" fill="#94A3B8">Jun</text>
<path d="M 58.00 302.00 C 58.75 301.34 61.01 298.03 62.51 298.03 C 64.01 298.03 65.51 301.34 67.02 302.00 C 68.52 302.66 70.02 302.00 71.52 302.00 C 73.03 302.00 74.53 302.00 76.03 302.00 C 77.54 302.00 79.04 302.00 80.54 302.00 C 82.04 302.00 83.55 302.00 85.05 302.00 C 86.55 302.00 88.06 302.00 89.56 302.00 C 91.06 302.00 92.56 302.93 94.07 302.00 C 95.57 301.07 97.07 299.49 98.57 296.45 C 100.08 293.41 101.58 287.06 103.08 283.75 C 104.59 280.45 106.09 273.70 107.59 276.61 C 109.09 279.52 110.60 296.98 112.10 301.21 C 113.60 305.44 115.10 301.87 116.61 302.00 C 118.11 302.13 119.61 302.26 121.12 302.00 C 122.62 301.74 124.12 300.41 125.62 300.41 C 127.13 300.41 128.63 302.93 130.13 302.00 C 131.64 301.07 133.14 295.26 134.64 294.86 C 136.14 294.46 137.65 299.49 139.15 299.62 C 140.65 299.75 142.15 301.07 143.66 295.65 C 145.16 290.23 146.66 271.06 148.17 267.09 C 149.67 263.13 151.17 268.42 152.67 271.85 C 154.18 275.29 155.68 284.55 157.18 287.72 C 158.69 290.89 160.19 288.78 161.69 290.89 C 163.19 293.01 164.70 298.96 166.20 300.41 C 167.70 301.87 169.20 299.49 170.71 299.62 C 172.21 299.75 173.71 300.81 175.22 301.21 C 176.72 301.60 178.22 301.87 179.72 302.00 C 181.23 302.13 182.73 302.00 184.23 302.00 C 185.73 302.00 187.24 305.44 188.74 302.00 C 190.24 298.56 191.75 282.43 193.25 281.37 C 194.75 280.32 196.25 296.98 197.76 295.65 C 199.26 294.33 200.76 273.57 202.27 273.44 C 203.77 273.31 205.27 293.41 206.77 294.86 C 208.28 296.31 209.78 282.17 211.28 282.17 C 212.78 282.17 214.29 296.18 215.79 294.86 C 217.29 293.54 218.80 275.95 220.30 274.23 C 221.80 272.51 223.30 281.64 224.81 284.55 C 226.31 287.46 227.81 288.78 229.31 291.69 C 230.82 294.60 232.32 303.59 233.82 302.00 C 235.33 300.41 236.83 283.22 238.33 282.17 C 239.83 281.11 241.34 292.35 242.84 295.65 C 244.34 298.96 245.85 301.34 247.35 302.00 C 248.85 302.66 250.35 303.98 251.86 299.62 C 253.36 295.26 254.86 303.45 256.36 275.82 C 257.87 248.19 259.37 133.95 260.87 133.81 C 262.38 133.68 263.88 249.51 265.38 275.03 C 266.88 300.55 268.39 282.43 269.89 286.93 C 271.39 291.42 272.90 301.87 274.40 302.00 C 275.90 302.13 277.40 287.98 278.91 287.72 C 280.41 287.46 281.91 300.28 283.41 300.41 C 284.92 300.55 286.42 289.44 287.92 288.51 C 289.43 287.59 290.93 295.65 292.43 294.86 C 293.93 294.07 295.44 285.74 296.94 283.75 C 298.44 281.77 299.94 284.41 301.45 282.96 C 302.95 281.51 304.45 272.91 305.96 275.03 C 307.46 277.14 308.96 291.16 310.46 295.65 C 311.97 300.15 313.47 303.85 314.97 302.00 C 316.48 300.15 317.98 287.59 319.48 284.55 C 320.98 281.51 322.49 282.03 323.99 283.75 C 325.49 285.47 326.99 294.60 328.50 294.86 C 330.00 295.12 331.50 285.60 333.01 285.34 C 334.51 285.08 336.01 292.35 337.51 293.27 C 339.02 294.20 340.52 291.16 342.02 290.89 C 343.52 290.63 345.03 290.50 346.53 291.69 C 348.03 292.88 349.54 296.31 351.04 298.03 C 352.54 299.75 354.04 302.26 355.55 302.00 C 357.05 301.74 358.55 296.45 360.06 296.45 C 361.56 296.45 363.06 301.07 364.56 302.00 C 366.07 302.93 367.57 302.00 369.07 302.00 C 370.57 302.00 372.08 302.00 373.58 302.00 C 375.08 302.00 376.59 303.19 378.09 302.00 C 379.59 300.81 381.09 294.86 382.60 294.86 C 384.10 294.86 385.60 300.81 387.10 302.00 C 388.61 303.19 390.11 303.45 391.61 302.00 C 393.12 300.55 394.62 293.93 396.12 293.27 C 397.62 292.61 399.13 296.58 400.63 298.03 C 402.13 299.49 403.64 301.34 405.14 302.00 C 406.64 302.66 408.14 302.40 409.65 302.00 C 411.15 301.60 412.65 299.88 414.15 299.62 C 415.66 299.36 417.16 300.81 418.66 300.41 C 420.17 300.02 421.67 300.81 423.17 297.24 C 424.67 293.67 426.18 279.26 427.68 278.99 C 429.18 278.73 430.69 291.82 432.19 295.65 C 433.69 299.49 435.19 302.40 436.70 302.00 C 438.20 301.60 439.70 297.11 441.20 293.27 C 442.71 289.44 444.21 279.39 445.71 278.99 C 447.22 278.60 448.72 287.19 450.22 290.89 C 451.72 294.60 453.23 303.72 454.73 301.21 C 456.23 298.69 457.73 280.98 459.24 275.82 C 460.74 270.66 462.24 269.74 463.75 270.27 C 465.25 270.80 466.75 274.63 468.25 278.99 C 469.76 283.36 471.26 292.61 472.76 296.45 C 474.27 300.28 475.77 301.47 477.27 302.00 C 478.77 302.53 480.28 299.62 481.78 299.62 C 483.28 299.62 484.78 301.60 486.29 302.00 C 487.79 302.40 489.29 302.00 490.80 302.00 C 492.30 302.00 493.80 304.64 495.30 302.00 C 496.81 299.36 498.31 288.65 499.81 286.13 C 501.31 283.62 502.82 285.21 504.32 286.93 C 505.82 288.65 507.33 294.46 508.83 296.45 C 510.33 298.43 511.83 298.30 513.34 298.83 C 514.84 299.36 516.34 299.09 517.85 299.62 C 519.35 300.15 520.85 302.40 522.35 302.00 C 523.86 301.60 525.36 297.64 526.86 297.24 C 528.36 296.84 529.87 301.21 531.37 299.62 C 532.87 298.03 534.38 288.12 535.88 287.72 C 537.38 287.32 538.88 295.92 540.39 297.24 C 541.89 298.56 543.39 296.58 544.90 295.65 C 546.40 294.73 547.90 299.75 549.40 291.69 C 550.91 283.62 552.41 251.49 553.91 247.26 C 555.41 243.03 556.92 294.46 558.42 266.30 C 559.92 238.14 561.43 100.49 562.93 78.28 C 564.43 56.07 565.93 108.29 567.44 133.02 C 568.94 157.75 570.44 207.06 571.94 226.63 C 573.45 246.20 574.95 249.11 576.45 250.43 C 577.96 251.76 579.46 230.47 580.96 234.57 C 582.46 238.67 583.97 263.79 585.47 275.03 C 586.97 286.27 588.48 298.30 589.98 302.00 C 591.48 305.70 592.98 297.77 594.49 297.24 C 595.99 296.71 597.49 301.87 598.99 298.83 C 600.50 295.79 602.00 278.99 603.50 278.99 C 605.01 278.99 606.51 300.28 608.01 298.83 C 609.51 297.37 611.02 275.82 612.52 270.27 C 614.02 264.71 615.52 260.22 617.03 265.51 C 618.53 270.80 620.03 297.24 621.54 302.00 C 623.04 306.76 624.54 294.07 626.04 294.07 C 627.55 294.07 629.05 302.53 630.55 302.00 C 632.06 301.47 633.56 292.22 635.06 290.89 C 636.56 289.57 638.07 303.59 639.57 294.07 C 641.07 284.55 642.57 238.40 644.08 233.77 C 645.58 229.15 647.08 267.62 648.59 266.30 C 650.09 264.98 651.59 228.75 653.09 225.84 C 654.60 222.93 656.10 249.24 657.60 248.85 C 659.10 248.45 660.61 222.80 662.11 223.46 C 663.61 224.12 665.12 249.11 666.62 252.81 C 668.12 256.52 669.62 238.00 671.13 245.67 C 672.63 253.34 674.13 292.22 675.64 298.83 C 677.14 305.44 678.64 289.70 680.14 285.34 C 681.65 280.98 683.15 287.72 684.65 272.65 C 686.15 257.57 687.66 195.30 689.16 194.90 C 690.66 194.50 692.17 253.08 693.67 270.27 C 695.17 287.46 696.67 293.80 698.18 298.03 C 699.68 302.26 701.18 296.05 702.69 295.65 C 704.19 295.26 705.69 298.30 707.19 295.65 C 708.70 293.01 710.20 281.37 711.70 279.79 C 713.20 278.20 714.71 282.96 716.21 286.13 C 717.71 289.31 719.22 297.50 720.72 298.83 C 722.22 300.15 723.72 294.86 725.23 294.07 C 726.73 293.27 728.23 293.01 729.73 294.07 C 731.24 295.12 732.74 299.88 734.24 300.41 C 735.75 300.94 737.25 297.24 738.75 297.24 C 740.25 297.24 741.76 299.88 743.26 300.41 C 744.76 300.94 746.27 309.54 747.77 300.41 C 749.27 291.29 750.77 248.19 752.28 245.67 C 753.78 243.16 755.28 282.83 756.78 285.34 C 758.29 287.85 759.79 260.09 761.29 260.75 C 762.80 261.41 764.30 285.08 765.80 289.31 C 767.30 293.54 768.81 284.28 770.31 286.13 C 771.81 287.98 773.31 298.03 774.82 300.41 C 776.32 302.79 777.82 300.41 779.33 300.41 C 780.83 300.41 782.33 300.41 783.83 300.41 C 785.34 300.41 786.84 300.81 788.34 300.41 C 789.85 300.02 791.35 305.57 792.85 298.03 C 794.35 290.50 795.86 255.99 797.36 255.19 C 798.86 254.40 800.36 289.57 801.87 293.27 C 803.37 296.98 804.87 277.67 806.38 277.41 C 807.88 277.14 809.38 291.55 810.88 291.69 C 812.39 291.82 813.89 279.13 815.39 278.20 C 816.90 277.27 818.40 282.70 819.90 286.13 C 821.40 289.57 822.91 296.45 824.41 298.83 C 825.91 301.21 827.41 300.15 828.92 300.41 C 830.42 300.68 831.92 300.41 833.43 300.41 C 834.93 300.41 836.43 300.55 837.93 300.41 C 839.44 300.28 840.94 302.93 842.44 299.62 C 843.94 296.31 845.45 280.71 846.95 280.58 C 848.45 280.45 849.96 299.49 851.46 298.83 C 852.96 298.17 854.46 276.35 855.97 276.61 C 857.47 276.88 858.97 298.03 860.48 300.41 C 861.98 302.79 863.48 302.66 864.98 290.89 C 866.49 279.13 867.99 232.45 869.49 229.81 C 870.99 227.16 873.25 267.49 874.00 275.03 L 874.00 302.00 L 58.00 302.00 Z" fill="url(#area)"/>
<path d="M 58.00 302.00 C 58.75 301.34 61.01 298.03 62.51 298.03 C 64.01 298.03 65.51 301.34 67.02 302.00 C 68.52 302.66 70.02 302.00 71.52 302.00 C 73.03 302.00 74.53 302.00 76.03 302.00 C 77.54 302.00 79.04 302.00 80.54 302.00 C 82.04 302.00 83.55 302.00 85.05 302.00 C 86.55 302.00 88.06 302.00 89.56 302.00 C 91.06 302.00 92.56 302.93 94.07 302.00 C 95.57 301.07 97.07 299.49 98.57 296.45 C 100.08 293.41 101.58 287.06 103.08 283.75 C 104.59 280.45 106.09 273.70 107.59 276.61 C 109.09 279.52 110.60 296.98 112.10 301.21 C 113.60 305.44 115.10 301.87 116.61 302.00 C 118.11 302.13 119.61 302.26 121.12 302.00 C 122.62 301.74 124.12 300.41 125.62 300.41 C 127.13 300.41 128.63 302.93 130.13 302.00 C 131.64 301.07 133.14 295.26 134.64 294.86 C 136.14 294.46 137.65 299.49 139.15 299.62 C 140.65 299.75 142.15 301.07 143.66 295.65 C 145.16 290.23 146.66 271.06 148.17 267.09 C 149.67 263.13 151.17 268.42 152.67 271.85 C 154.18 275.29 155.68 284.55 157.18 287.72 C 158.69 290.89 160.19 288.78 161.69 290.89 C 163.19 293.01 164.70 298.96 166.20 300.41 C 167.70 301.87 169.20 299.49 170.71 299.62 C 172.21 299.75 173.71 300.81 175.22 301.21 C 176.72 301.60 178.22 301.87 179.72 302.00 C 181.23 302.13 182.73 302.00 184.23 302.00 C 185.73 302.00 187.24 305.44 188.74 302.00 C 190.24 298.56 191.75 282.43 193.25 281.37 C 194.75 280.32 196.25 296.98 197.76 295.65 C 199.26 294.33 200.76 273.57 202.27 273.44 C 203.77 273.31 205.27 293.41 206.77 294.86 C 208.28 296.31 209.78 282.17 211.28 282.17 C 212.78 282.17 214.29 296.18 215.79 294.86 C 217.29 293.54 218.80 275.95 220.30 274.23 C 221.80 272.51 223.30 281.64 224.81 284.55 C 226.31 287.46 227.81 288.78 229.31 291.69 C 230.82 294.60 232.32 303.59 233.82 302.00 C 235.33 300.41 236.83 283.22 238.33 282.17 C 239.83 281.11 241.34 292.35 242.84 295.65 C 244.34 298.96 245.85 301.34 247.35 302.00 C 248.85 302.66 250.35 303.98 251.86 299.62 C 253.36 295.26 254.86 303.45 256.36 275.82 C 257.87 248.19 259.37 133.95 260.87 133.81 C 262.38 133.68 263.88 249.51 265.38 275.03 C 266.88 300.55 268.39 282.43 269.89 286.93 C 271.39 291.42 272.90 301.87 274.40 302.00 C 275.90 302.13 277.40 287.98 278.91 287.72 C 280.41 287.46 281.91 300.28 283.41 300.41 C 284.92 300.55 286.42 289.44 287.92 288.51 C 289.43 287.59 290.93 295.65 292.43 294.86 C 293.93 294.07 295.44 285.74 296.94 283.75 C 298.44 281.77 299.94 284.41 301.45 282.96 C 302.95 281.51 304.45 272.91 305.96 275.03 C 307.46 277.14 308.96 291.16 310.46 295.65 C 311.97 300.15 313.47 303.85 314.97 302.00 C 316.48 300.15 317.98 287.59 319.48 284.55 C 320.98 281.51 322.49 282.03 323.99 283.75 C 325.49 285.47 326.99 294.60 328.50 294.86 C 330.00 295.12 331.50 285.60 333.01 285.34 C 334.51 285.08 336.01 292.35 337.51 293.27 C 339.02 294.20 340.52 291.16 342.02 290.89 C 343.52 290.63 345.03 290.50 346.53 291.69 C 348.03 292.88 349.54 296.31 351.04 298.03 C 352.54 299.75 354.04 302.26 355.55 302.00 C 357.05 301.74 358.55 296.45 360.06 296.45 C 361.56 296.45 363.06 301.07 364.56 302.00 C 366.07 302.93 367.57 302.00 369.07 302.00 C 370.57 302.00 372.08 302.00 373.58 302.00 C 375.08 302.00 376.59 303.19 378.09 302.00 C 379.59 300.81 381.09 294.86 382.60 294.86 C 384.10 294.86 385.60 300.81 387.10 302.00 C 388.61 303.19 390.11 303.45 391.61 302.00 C 393.12 300.55 394.62 293.93 396.12 293.27 C 397.62 292.61 399.13 296.58 400.63 298.03 C 402.13 299.49 403.64 301.34 405.14 302.00 C 406.64 302.66 408.14 302.40 409.65 302.00 C 411.15 301.60 412.65 299.88 414.15 299.62 C 415.66 299.36 417.16 300.81 418.66 300.41 C 420.17 300.02 421.67 300.81 423.17 297.24 C 424.67 293.67 426.18 279.26 427.68 278.99 C 429.18 278.73 430.69 291.82 432.19 295.65 C 433.69 299.49 435.19 302.40 436.70 302.00 C 438.20 301.60 439.70 297.11 441.20 293.27 C 442.71 289.44 444.21 279.39 445.71 278.99 C 447.22 278.60 448.72 287.19 450.22 290.89 C 451.72 294.60 453.23 303.72 454.73 301.21 C 456.23 298.69 457.73 280.98 459.24 275.82 C 460.74 270.66 462.24 269.74 463.75 270.27 C 465.25 270.80 466.75 274.63 468.25 278.99 C 469.76 283.36 471.26 292.61 472.76 296.45 C 474.27 300.28 475.77 301.47 477.27 302.00 C 478.77 302.53 480.28 299.62 481.78 299.62 C 483.28 299.62 484.78 301.60 486.29 302.00 C 487.79 302.40 489.29 302.00 490.80 302.00 C 492.30 302.00 493.80 304.64 495.30 302.00 C 496.81 299.36 498.31 288.65 499.81 286.13 C 501.31 283.62 502.82 285.21 504.32 286.93 C 505.82 288.65 507.33 294.46 508.83 296.45 C 510.33 298.43 511.83 298.30 513.34 298.83 C 514.84 299.36 516.34 299.09 517.85 299.62 C 519.35 300.15 520.85 302.40 522.35 302.00 C 523.86 301.60 525.36 297.64 526.86 297.24 C 528.36 296.84 529.87 301.21 531.37 299.62 C 532.87 298.03 534.38 288.12 535.88 287.72 C 537.38 287.32 538.88 295.92 540.39 297.24 C 541.89 298.56 543.39 296.58 544.90 295.65 C 546.40 294.73 547.90 299.75 549.40 291.69 C 550.91 283.62 552.41 251.49 553.91 247.26 C 555.41 243.03 556.92 294.46 558.42 266.30 C 559.92 238.14 561.43 100.49 562.93 78.28 C 564.43 56.07 565.93 108.29 567.44 133.02 C 568.94 157.75 570.44 207.06 571.94 226.63 C 573.45 246.20 574.95 249.11 576.45 250.43 C 577.96 251.76 579.46 230.47 580.96 234.57 C 582.46 238.67 583.97 263.79 585.47 275.03 C 586.97 286.27 588.48 298.30 589.98 302.00 C 591.48 305.70 592.98 297.77 594.49 297.24 C 595.99 296.71 597.49 301.87 598.99 298.83 C 600.50 295.79 602.00 278.99 603.50 278.99 C 605.01 278.99 606.51 300.28 608.01 298.83 C 609.51 297.37 611.02 275.82 612.52 270.27 C 614.02 264.71 615.52 260.22 617.03 265.51 C 618.53 270.80 620.03 297.24 621.54 302.00 C 623.04 306.76 624.54 294.07 626.04 294.07 C 627.55 294.07 629.05 302.53 630.55 302.00 C 632.06 301.47 633.56 292.22 635.06 290.89 C 636.56 289.57 638.07 303.59 639.57 294.07 C 641.07 284.55 642.57 238.40 644.08 233.77 C 645.58 229.15 647.08 267.62 648.59 266.30 C 650.09 264.98 651.59 228.75 653.09 225.84 C 654.60 222.93 656.10 249.24 657.60 248.85 C 659.10 248.45 660.61 222.80 662.11 223.46 C 663.61 224.12 665.12 249.11 666.62 252.81 C 668.12 256.52 669.62 238.00 671.13 245.67 C 672.63 253.34 674.13 292.22 675.64 298.83 C 677.14 305.44 678.64 289.70 680.14 285.34 C 681.65 280.98 683.15 287.72 684.65 272.65 C 686.15 257.57 687.66 195.30 689.16 194.90 C 690.66 194.50 692.17 253.08 693.67 270.27 C 695.17 287.46 696.67 293.80 698.18 298.03 C 699.68 302.26 701.18 296.05 702.69 295.65 C 704.19 295.26 705.69 298.30 707.19 295.65 C 708.70 293.01 710.20 281.37 711.70 279.79 C 713.20 278.20 714.71 282.96 716.21 286.13 C 717.71 289.31 719.22 297.50 720.72 298.83 C 722.22 300.15 723.72 294.86 725.23 294.07 C 726.73 293.27 728.23 293.01 729.73 294.07 C 731.24 295.12 732.74 299.88 734.24 300.41 C 735.75 300.94 737.25 297.24 738.75 297.24 C 740.25 297.24 741.76 299.88 743.26 300.41 C 744.76 300.94 746.27 309.54 747.77 300.41 C 749.27 291.29 750.77 248.19 752.28 245.67 C 753.78 243.16 755.28 282.83 756.78 285.34 C 758.29 287.85 759.79 260.09 761.29 260.75 C 762.80 261.41 764.30 285.08 765.80 289.31 C 767.30 293.54 768.81 284.28 770.31 286.13 C 771.81 287.98 773.31 298.03 774.82 300.41 C 776.32 302.79 777.82 300.41 779.33 300.41 C 780.83 300.41 782.33 300.41 783.83 300.41 C 785.34 300.41 786.84 300.81 788.34 300.41 C 789.85 300.02 791.35 305.57 792.85 298.03 C 794.35 290.50 795.86 255.99 797.36 255.19 C 798.86 254.40 800.36 289.57 801.87 293.27 C 803.37 296.98 804.87 277.67 806.38 277.41 C 807.88 277.14 809.38 291.55 810.88 291.69 C 812.39 291.82 813.89 279.13 815.39 278.20 C 816.90 277.27 818.40 282.70 819.90 286.13 C 821.40 289.57 822.91 296.45 824.41 298.83 C 825.91 301.21 827.41 300.15 828.92 300.41 C 830.42 300.68 831.92 300.41 833.43 300.41 C 834.93 300.41 836.43 300.55 837.93 300.41 C 839.44 300.28 840.94 302.93 842.44 299.62 C 843.94 296.31 845.45 280.71 846.95 280.58 C 848.45 280.45 849.96 299.49 851.46 298.83 C 852.96 298.17 854.46 276.35 855.97 276.61 C 857.47 276.88 858.97 298.03 860.48 300.41 C 861.98 302.79 863.48 302.66 864.98 290.89 C 866.49 279.13 867.99 232.45 869.49 229.81 C 870.99 227.16 873.25 267.49 874.00 275.03" fill="none" stroke="#22C55E" stroke-opacity="0.20" stroke-width="7" stroke-linecap="round" stroke-linejoin="round"/>
<path d="M 58.00 302.00 C 58.75 301.34 61.01 298.03 62.51 298.03 C 64.01 298.03 65.51 301.34 67.02 302.00 C 68.52 302.66 70.02 302.00 71.52 302.00 C 73.03 302.00 74.53 302.00 76.03 302.00 C 77.54 302.00 79.04 302.00 80.54 302.00 C 82.04 302.00 83.55 302.00 85.05 302.00 C 86.55 302.00 88.06 302.00 89.56 302.00 C 91.06 302.00 92.56 302.93 94.07 302.00 C 95.57 301.07 97.07 299.49 98.57 296.45 C 100.08 293.41 101.58 287.06 103.08 283.75 C 104.59 280.45 106.09 273.70 107.59 276.61 C 109.09 279.52 110.60 296.98 112.10 301.21 C 113.60 305.44 115.10 301.87 116.61 302.00 C 118.11 302.13 119.61 302.26 121.12 302.00 C 122.62 301.74 124.12 300.41 125.62 300.41 C 127.13 300.41 128.63 302.93 130.13 302.00 C 131.64 301.07 133.14 295.26 134.64 294.86 C 136.14 294.46 137.65 299.49 139.15 299.62 C 140.65 299.75 142.15 301.07 143.66 295.65 C 145.16 290.23 146.66 271.06 148.17 267.09 C 149.67 263.13 151.17 268.42 152.67 271.85 C 154.18 275.29 155.68 284.55 157.18 287.72 C 158.69 290.89 160.19 288.78 161.69 290.89 C 163.19 293.01 164.70 298.96 166.20 300.41 C 167.70 301.87 169.20 299.49 170.71 299.62 C 172.21 299.75 173.71 300.81 175.22 301.21 C 176.72 301.60 178.22 301.87 179.72 302.00 C 181.23 302.13 182.73 302.00 184.23 302.00 C 185.73 302.00 187.24 305.44 188.74 302.00 C 190.24 298.56 191.75 282.43 193.25 281.37 C 194.75 280.32 196.25 296.98 197.76 295.65 C 199.26 294.33 200.76 273.57 202.27 273.44 C 203.77 273.31 205.27 293.41 206.77 294.86 C 208.28 296.31 209.78 282.17 211.28 282.17 C 212.78 282.17 214.29 296.18 215.79 294.86 C 217.29 293.54 218.80 275.95 220.30 274.23 C 221.80 272.51 223.30 281.64 224.81 284.55 C 226.31 287.46 227.81 288.78 229.31 291.69 C 230.82 294.60 232.32 303.59 233.82 302.00 C 235.33 300.41 236.83 283.22 238.33 282.17 C 239.83 281.11 241.34 292.35 242.84 295.65 C 244.34 298.96 245.85 301.34 247.35 302.00 C 248.85 302.66 250.35 303.98 251.86 299.62 C 253.36 295.26 254.86 303.45 256.36 275.82 C 257.87 248.19 259.37 133.95 260.87 133.81 C 262.38 133.68 263.88 249.51 265.38 275.03 C 266.88 300.55 268.39 282.43 269.89 286.93 C 271.39 291.42 272.90 301.87 274.40 302.00 C 275.90 302.13 277.40 287.98 278.91 287.72 C 280.41 287.46 281.91 300.28 283.41 300.41 C 284.92 300.55 286.42 289.44 287.92 288.51 C 289.43 287.59 290.93 295.65 292.43 294.86 C 293.93 294.07 295.44 285.74 296.94 283.75 C 298.44 281.77 299.94 284.41 301.45 282.96 C 302.95 281.51 304.45 272.91 305.96 275.03 C 307.46 277.14 308.96 291.16 310.46 295.65 C 311.97 300.15 313.47 303.85 314.97 302.00 C 316.48 300.15 317.98 287.59 319.48 284.55 C 320.98 281.51 322.49 282.03 323.99 283.75 C 325.49 285.47 326.99 294.60 328.50 294.86 C 330.00 295.12 331.50 285.60 333.01 285.34 C 334.51 285.08 336.01 292.35 337.51 293.27 C 339.02 294.20 340.52 291.16 342.02 290.89 C 343.52 290.63 345.03 290.50 346.53 291.69 C 348.03 292.88 349.54 296.31 351.04 298.03 C 352.54 299.75 354.04 302.26 355.55 302.00 C 357.05 301.74 358.55 296.45 360.06 296.45 C 361.56 296.45 363.06 301.07 364.56 302.00 C 366.07 302.93 367.57 302.00 369.07 302.00 C 370.57 302.00 372.08 302.00 373.58 302.00 C 375.08 302.00 376.59 303.19 378.09 302.00 C 379.59 300.81 381.09 294.86 382.60 294.86 C 384.10 294.86 385.60 300.81 387.10 302.00 C 388.61 303.19 390.11 303.45 391.61 302.00 C 393.12 300.55 394.62 293.93 396.12 293.27 C 397.62 292.61 399.13 296.58 400.63 298.03 C 402.13 299.49 403.64 301.34 405.14 302.00 C 406.64 302.66 408.14 302.40 409.65 302.00 C 411.15 301.60 412.65 299.88 414.15 299.62 C 415.66 299.36 417.16 300.81 418.66 300.41 C 420.17 300.02 421.67 300.81 423.17 297.24 C 424.67 293.67 426.18 279.26 427.68 278.99 C 429.18 278.73 430.69 291.82 432.19 295.65 C 433.69 299.49 435.19 302.40 436.70 302.00 C 438.20 301.60 439.70 297.11 441.20 293.27 C 442.71 289.44 444.21 279.39 445.71 278.99 C 447.22 278.60 448.72 287.19 450.22 290.89 C 451.72 294.60 453.23 303.72 454.73 301.21 C 456.23 298.69 457.73 280.98 459.24 275.82 C 460.74 270.66 462.24 269.74 463.75 270.27 C 465.25 270.80 466.75 274.63 468.25 278.99 C 469.76 283.36 471.26 292.61 472.76 296.45 C 474.27 300.28 475.77 301.47 477.27 302.00 C 478.77 302.53 480.28 299.62 481.78 299.62 C 483.28 299.62 484.78 301.60 486.29 302.00 C 487.79 302.40 489.29 302.00 490.80 302.00 C 492.30 302.00 493.80 304.64 495.30 302.00 C 496.81 299.36 498.31 288.65 499.81 286.13 C 501.31 283.62 502.82 285.21 504.32 286.93 C 505.82 288.65 507.33 294.46 508.83 296.45 C 510.33 298.43 511.83 298.30 513.34 298.83 C 514.84 299.36 516.34 299.09 517.85 299.62 C 519.35 300.15 520.85 302.40 522.35 302.00 C 523.86 301.60 525.36 297.64 526.86 297.24 C 528.36 296.84 529.87 301.21 531.37 299.62 C 532.87 298.03 534.38 288.12 535.88 287.72 C 537.38 287.32 538.88 295.92 540.39 297.24 C 541.89 298.56 543.39 296.58 544.90 295.65 C 546.40 294.73 547.90 299.75 549.40 291.69 C 550.91 283.62 552.41 251.49 553.91 247.26 C 555.41 243.03 556.92 294.46 558.42 266.30 C 559.92 238.14 561.43 100.49 562.93 78.28 C 564.43 56.07 565.93 108.29 567.44 133.02 C 568.94 157.75 570.44 207.06 571.94 226.63 C 573.45 246.20 574.95 249.11 576.45 250.43 C 577.96 251.76 579.46 230.47 580.96 234.57 C 582.46 238.67 583.97 263.79 585.47 275.03 C 586.97 286.27 588.48 298.30 589.98 302.00 C 591.48 305.70 592.98 297.77 594.49 297.24 C 595.99 296.71 597.49 301.87 598.99 298.83 C 600.50 295.79 602.00 278.99 603.50 278.99 C 605.01 278.99 606.51 300.28 608.01 298.83 C 609.51 297.37 611.02 275.82 612.52 270.27 C 614.02 264.71 615.52 260.22 617.03 265.51 C 618.53 270.80 620.03 297.24 621.54 302.00 C 623.04 306.76 624.54 294.07 626.04 294.07 C 627.55 294.07 629.05 302.53 630.55 302.00 C 632.06 301.47 633.56 292.22 635.06 290.89 C 636.56 289.57 638.07 303.59 639.57 294.07 C 641.07 284.55 642.57 238.40 644.08 233.77 C 645.58 229.15 647.08 267.62 648.59 266.30 C 650.09 264.98 651.59 228.75 653.09 225.84 C 654.60 222.93 656.10 249.24 657.60 248.85 C 659.10 248.45 660.61 222.80 662.11 223.46 C 663.61 224.12 665.12 249.11 666.62 252.81 C 668.12 256.52 669.62 238.00 671.13 245.67 C 672.63 253.34 674.13 292.22 675.64 298.83 C 677.14 305.44 678.64 289.70 680.14 285.34 C 681.65 280.98 683.15 287.72 684.65 272.65 C 686.15 257.57 687.66 195.30 689.16 194.90 C 690.66 194.50 692.17 253.08 693.67 270.27 C 695.17 287.46 696.67 293.80 698.18 298.03 C 699.68 302.26 701.18 296.05 702.69 295.65 C 704.19 295.26 705.69 298.30 707.19 295.65 C 708.70 293.01 710.20 281.37 711.70 279.79 C 713.20 278.20 714.71 282.96 716.21 286.13 C 717.71 289.31 719.22 297.50 720.72 298.83 C 722.22 300.15 723.72 294.86 725.23 294.07 C 726.73 293.27 728.23 293.01 729.73 294.07 C 731.24 295.12 732.74 299.88 734.24 300.41 C 735.75 300.94 737.25 297.24 738.75 297.24 C 740.25 297.24 741.76 299.88 743.26 300.41 C 744.76 300.94 746.27 309.54 747.77 300.41 C 749.27 291.29 750.77 248.19 752.28 245.67 C 753.78 243.16 755.28 282.83 756.78 285.34 C 758.29 287.85 759.79 260.09 761.29 260.75 C 762.80 261.41 764.30 285.08 765.80 289.31 C 767.30 293.54 768.81 284.28 770.31 286.13 C 771.81 287.98 773.31 298.03 774.82 300.41 C 776.32 302.79 777.82 300.41 779.33 300.41 C 780.83 300.41 782.33 300.41 783.83 300.41 C 785.34 300.41 786.84 300.81 788.34 300.41 C 789.85 300.02 791.35 305.57 792.85 298.03 C 794.35 290.50 795.86 255.99 797.36 255.19 C 798.86 254.40 800.36 289.57 801.87 293.27 C 803.37 296.98 804.87 277.67 806.38 277.41 C 807.88 277.14 809.38 291.55 810.88 291.69 C 812.39 291.82 813.89 279.13 815.39 278.20 C 816.90 277.27 818.40 282.70 819.90 286.13 C 821.40 289.57 822.91 296.45 824.41 298.83 C 825.91 301.21 827.41 300.15 828.92 300.41 C 830.42 300.68 831.92 300.41 833.43 300.41 C 834.93 300.41 836.43 300.55 837.93 300.41 C 839.44 300.28 840.94 302.93 842.44 299.62 C 843.94 296.31 845.45 280.71 846.95 280.58 C 848.45 280.45 849.96 299.49 851.46 298.83 C 852.96 298.17 854.46 276.35 855.97 276.61 C 857.47 276.88 858.97 298.03 860.48 300.41 C 861.98 302.79 863.48 302.66 864.98 290.89 C 866.49 279.13 867.99 232.45 869.49 229.81 C 870.99 227.16 873.25 267.49 874.00 275.03" fill="none" stroke="#22C55E" stroke-width="2.4" stroke-linecap="round" stroke-linejoin="round"/>
<circle cx="562.9" cy="78.3" r="4.5" fill="#4ADE80" stroke="#0B1120" stroke-width="2"/>
<text x="562.9" y="68.3" text-anchor="middle" font-family="ui-monospace,Menlo,monospace" font-size="10" font-weight="700" fill="#4ADE80">282</text>
<circle cx="874.0" cy="275.0" r="3.5" fill="#F8FAFC"/>
<text x="16" y="183" text-anchor="middle" font-family="ui-monospace,Menlo,monospace" font-size="10" fill="#94A3B8" transform="rotate(-90 16 183)">Contributions</text>
</svg>