<svg xmlns="http://www.w3.org/2000/svg" width="900" height="340" viewBox="0 0 900 340" role="img" aria-label="Contribution activity, last 6 months">
<defs>
<linearGradient id="bg" x1="0" y1="0" x2="0" y2="1"><stop offset="0" stop-color="#0F172A"/><stop offset="1" stop-color="#0B1120"/></linearGradient>
<linearGradient id="area" x1="0" y1="0" x2="0" y2="1"><stop offset="0" stop-color="#22C55E" stop-opacity="0.42"/><stop offset="0.7" stop-color="#22C55E" stop-opacity="0.08"/><stop offset="1" stop-color="#22C55E" stop-opacity="0"/></linearGradient>
</defs>
<rect x="0" y="0" width="900" height="340" rx="14" fill="url(#bg)"/>
<text x="450" y="32" text-anchor="middle" font-family="ui-monospace,Menlo,monospace" font-size="17" font-weight="700" fill="#F8FAFC" letter-spacing="0.5">last 6 months</text>
<text x="450" y="50" text-anchor="middle" font-family="ui-monospace,Menlo,monospace" font-size="11" fill="#94A3B8">4,112 contributions · peak 282</text>
<line x1="58" y1="302.0" x2="874" y2="302.0" stroke="#1E293B" stroke-width="1" stroke-dasharray="2 4"/>
<text x="48" y="305.5" text-anchor="end" font-family="ui-monospace,Menlo,monospace" font-size="10" fill="#94A3B8">0</text>
<line x1="58" y1="242.5" x2="874" y2="242.5" stroke="#1E293B" stroke-width="1" stroke-dasharray="2 4"/>
<text x="48" y="246.0" text-anchor="end" font-family="ui-monospace,Menlo,monospace" font-size="10" fill="#94A3B8">75</text>
<line x1="58" y1="183.0" x2="874" y2="183.0" stroke="#1E293B" stroke-width="1" stroke-dasharray="2 4"/>
<text x="48" y="186.5" text-anchor="end" font-family="ui-monospace,Menlo,monospace" font-size="10" fill="#94A3B8">150</text>
<line x1="58" y1="123.5" x2="874" y2="123.5" stroke="#1E293B" stroke-width="1" stroke-dasharray="2 4"/>
<text x="48" y="127.0" text-anchor="end" font-family="ui-monospace,Menlo,monospace" font-size="10" fill="#94A3B8">225</text>
<line x1="58" y1="64.0" x2="874" y2="64.0" stroke="#1E293B" stroke-width="1" stroke-dasharray="2 4"/>
<text x="48" y="67.5" text-anchor="end" font-family="ui-monospace,Menlo,monospace" font-size="10" fill="#94A3B8">300</text>
<line x1="94.1" y1="64" x2="94.1" y2="302" stroke="#1E293B" stroke-width="1" stroke-opacity="0.6"/>
<text x="94.1" y="322" text-anchor="middle" font-family="ui-monospace,Menlo,monospace" font-size="10" fill="#94A3B8">Feb</text>
<line x1="220.3" y1="64" x2="220.3" y2="302" stroke="#1E293B" stroke-width="1" stroke-opacity="0.6"/>
<text x="220.3" y="322" text-anchor="middle" font-family="ui-monospace,Menlo,monospace" font-size="10" fill="#94A3B8">Mar</text>
<line x1="360.1" y1="64" x2="360.1" y2="302" stroke="#1E293B" stroke-width="1" stroke-opacity="0.6"/>
<text x="360.1" y="322" text-anchor="middle" font-family="ui-monospace,Menlo,monospace" font-size="10" fill="#94A3B8">Apr</text>
<line x1="495.3" y1="64" x2="495.3" y2="302" stroke="#1E293B" stroke-width="1" stroke-opacity="0.6"/>
<text x="495.3" y="322" text-anchor="middle" font-family="ui-monospace,Menlo,monospace" font-size="10" fill="#94A3B8">May</text>
<line x1="635.1" y1="64" x2="635.1" y2="302" stroke="#1E293B" stroke-width="1" stroke-opacity="0.6"/>
<text x="635.1" y="322" text-anchor="middle" font-family="ui-monospace,Menlo,monospace" font-size="10" fill="#94A3B8">Jun</text>
<line x1="770.3" y1="64" x2="770.3" y2="302" stroke="#1E293B" stroke-width="1" stroke-opacity="0.6"/>
<text x="770.3" y="322" text-anchor="middle" font-family="ui-monospace,Menlo,monospace" font-size="10" fill="#94A3B8">Jul</text>
<path d="M 58.00 302.00 C 58.75 302.00 61.01 302.00 62.51 302.00 C 64.01 302.00 65.51 305.44 67.02 302.00 C 68.52 298.56 70.02 282.43 71.52 281.37 C 73.03 280.32 74.53 296.98 76.03 295.65 C 77.54 294.33 79.04 273.57 80.54 273.44 C 82.04 273.31 83.55 293.41 85.05 294.86 C 86.55 296.31 88.06 282.17 89.56 282.17 C 91.06 282.17 92.56 296.18 94.07 294.86 C 95.57 293.54 97.07 275.95 98.57 274.23 C 100.08 272.51 101.58 281.64 103.08 284.55 C 104.59 287.46 106.09 288.78 107.59 291.69 C 109.09 294.60 110.60 303.59 112.10 302.00 C 113.60 300.41 115.10 283.22 116.61 282.17 C 118.11 281.11 119.61 292.35 121.12 295.65 C 122.62 298.96 124.12 301.34 125.62 302.00 C 127.13 302.66 128.63 303.98 130.13 299.62 C 131.64 295.26 133.14 303.45 134.64 275.82 C 136.14 248.19 137.65 133.95 139.15 133.81 C 140.65 133.68 142.15 249.51 143.66 275.03 C 145.16 300.55 146.66 282.43 148.17 286.93 C 149.67 291.42 151.17 301.87 152.67 302.00 C 154.18 302.13 155.68 287.98 157.18 287.72 C 158.69 287.46 160.19 300.28 161.69 300.41 C 163.19 300.55 164.70 289.44 166.20 288.51 C 167.70 287.59 169.20 295.65 170.71 294.86 C 172.21 294.07 173.71 285.74 175.22 283.75 C 176.72 281.77 178.22 284.41 179.72 282.96 C 181.23 281.51 182.73 272.91 184.23 275.03 C 185.73 277.14 187.24 291.16 188.74 295.65 C 190.24 300.15 191.75 303.85 193.25 302.00 C 194.75 300.15 196.25 287.59 197.76 284.55 C 199.26 281.51 200.76 282.03 202.27 283.75 C 203.77 285.47 205.27 294.60 206.77 294.86 C 208.28 295.12 209.78 285.60 211.28 285.34 C 212.78 285.08 214.29 292.35 215.79 293.27 C 217.29 294.20 218.80 291.16 220.30 290.89 C 221.80 290.63 223.30 290.50 224.81 291.69 C 226.31 292.88 227.81 296.31 229.31 298.03 C 230.82 299.75 232.32 302.26 233.82 302.00 C 235.33 301.74 236.83 296.45 238.33 296.45 C 239.83 296.45 241.34 301.07 242.84 302.00 C 244.34 302.93 245.85 302.00 247.35 302.00 C 248.85 302.00 250.35 302.00 251.86 302.00 C 253.36 302.00 254.86 303.19 256.36 302.00 C 257.87 300.81 259.37 294.86 260.87 294.86 C 262.38 294.86 263.88 300.81 265.38 302.00 C 266.88 303.19 268.39 303.45 269.89 302.00 C 271.39 300.55 272.90 293.93 274.40 293.27 C 275.90 292.61 277.40 296.58 278.91 298.03 C 280.41 299.49 281.91 301.34 283.41 302.00 C 284.92 302.66 286.42 302.40 287.92 302.00 C 289.43 301.60 290.93 299.88 292.43 299.62 C 293.93 299.36 295.44 300.81 296.94 300.41 C 298.44 300.02 299.94 300.81 301.45 297.24 C 302.95 293.67 304.45 279.26 305.96 278.99 C 307.46 278.73 308.96 291.82 310.46 295.65 C 311.97 299.49 313.47 302.40 314.97 302.00 C 316.48 301.60 317.98 297.11 319.48 293.27 C 320.98 289.44 322.49 279.39 323.99 278.99 C 325.49 278.60 326.99 287.19 328.50 290.89 C 330.00 294.60 331.50 303.72 333.01 301.21 C 334.51 298.69 336.01 280.98 337.51 275.82 C 339.02 270.66 340.52 269.74 342.02 270.27 C 343.52 270.80 345.03 274.63 346.53 278.99 C 348.03 283.36 349.54 292.61 351.04 296.45 C 352.54 300.28 354.04 301.47 355.55 302.00 C 357.05 302.53 358.55 299.62 360.06 299.62 C 361.56 299.62 363.06 301.60 364.56 302.00 C 366.07 302.40 367.57 302.00 369.07 302.00 C 370.57 302.00 372.08 304.64 373.58 302.00 C 375.08 299.36 376.59 288.65 378.09 286.13 C 379.59 283.62 381.09 285.21 382.60 286.93 C 384.10 288.65 385.60 294.46 387.10 296.45 C 388.61 298.43 390.11 298.30 391.61 298.83 C 393.12 299.36 394.62 299.09 396.12 299.62 C 397.62 300.15 399.13 302.40 400.63 302.00 C 402.13 301.60 403.64 297.64 405.14 297.24 C 406.64 296.84 408.14 301.21 409.65 299.62 C 411.15 298.03 412.65 288.12 414.15 287.72 C 415.66 287.32 417.16 295.92 418.66 297.24 C 420.17 298.56 421.67 296.58 423.17 295.65 C 424.67 294.73 426.18 299.75 427.68 291.69 C 429.18 283.62 430.69 251.49 432.19 247.26 C 433.69 243.03 435.19 294.46 436.70 266.30 C 438.20 238.14 439.70 100.49 441.20 78.28 C 442.71 56.07 444.21 108.29 445.71 133.02 C 447.22 157.75 448.72 207.06 450.22 226.63 C 451.72 246.20 453.23 249.11 454.73 250.43 C 456.23 251.76 457.73 230.47 459.24 234.57 C 460.74 238.67 462.24 263.79 463.75 275.03 C 465.25 286.27 466.75 298.30 468.25 302.00 C 469.76 305.70 471.26 297.77 472.76 297.24 C 474.27 296.71 475.77 301.87 477.27 298.83 C 478.77 295.79 480.28 278.99 481.78 278.99 C 483.28 278.99 484.78 300.28 486.29 298.83 C 487.79 297.37 489.29 275.82 490.80 270.27 C 492.30 264.71 493.80 260.22 495.30 265.51 C 496.81 270.80 498.31 297.24 499.81 302.00 C 501.31 306.76 502.82 294.07 504.32 294.07 C 505.82 294.07 507.33 302.53 508.83 302.00 C 510.33 301.47 511.83 292.22 513.34 290.89 C 514.84 289.57 516.34 303.59 517.85 294.07 C 519.35 284.55 520.85 238.40 522.35 233.77 C 523.86 229.15 525.36 267.62 526.86 266.30 C 528.36 264.98 529.87 228.75 531.37 225.84 C 532.87 222.93 534.38 249.24 535.88 248.85 C 537.38 248.45 538.88 222.80 540.39 223.46 C 541.89 224.12 543.39 249.11 544.90 252.81 C 546.40 256.52 547.90 238.00 549.40 245.67 C 550.91 253.34 552.41 292.22 553.91 298.83 C 555.41 305.44 556.92 289.70 558.42 285.34 C 559.92 280.98 561.43 287.72 562.93 272.65 C 564.43 257.57 565.93 195.30 567.44 194.90 C 568.94 194.50 570.44 253.08 571.94 270.27 C 573.45 287.46 574.95 293.80 576.45 298.03 C 577.96 302.26 579.46 296.18 580.96 295.65 C 582.46 295.12 583.97 297.50 585.47 294.86 C 586.97 292.22 588.48 281.24 589.98 279.79 C 591.48 278.33 592.98 282.96 594.49 286.13 C 595.99 289.31 597.49 297.50 598.99 298.83 C 600.50 300.15 602.00 294.86 603.50 294.07 C 605.01 293.27 606.51 293.01 608.01 294.07 C 609.51 295.12 611.02 299.88 612.52 300.41 C 614.02 300.94 615.52 297.24 617.03 297.24 C 618.53 297.24 620.03 299.88 621.54 300.41 C 623.04 300.94 624.54 309.54 626.04 300.41 C 627.55 291.29 629.05 248.19 630.55 245.67 C 632.06 243.16 633.56 282.83 635.06 285.34 C 636.56 287.85 638.07 260.09 639.57 260.75 C 641.07 261.41 642.57 285.21 644.08 289.31 C 645.58 293.41 647.08 283.62 648.59 285.34 C 650.09 287.06 651.59 297.11 653.09 299.62 C 654.60 302.13 656.10 300.28 657.60 300.41 C 659.10 300.55 660.61 300.41 662.11 300.41 C 663.61 300.41 665.12 300.81 666.62 300.41 C 668.12 300.02 669.62 305.57 671.13 298.03 C 672.63 290.50 674.13 255.99 675.64 255.19 C 677.14 254.40 678.64 289.57 680.14 293.27 C 681.65 296.98 683.15 277.67 684.65 277.41 C 686.15 277.14 687.66 291.55 689.16 291.69 C 690.66 291.82 692.17 279.13 693.67 278.20 C 695.17 277.27 696.67 282.70 698.18 286.13 C 699.68 289.57 701.18 296.45 702.69 298.83 C 704.19 301.21 705.69 300.15 707.19 300.41 C 708.70 300.68 710.20 300.41 711.70 300.41 C 713.20 300.41 714.71 300.55 716.21 300.41 C 717.71 300.28 719.22 302.93 720.72 299.62 C 722.22 296.31 723.72 280.71 725.23 280.58 C 726.73 280.45 728.23 299.49 729.73 298.83 C 731.24 298.17 732.74 276.35 734.24 276.61 C 735.75 276.88 737.25 298.03 738.75 300.41 C 740.25 302.79 741.76 302.66 743.26 290.89 C 744.76 279.13 746.27 237.08 747.77 229.81 C 749.27 222.53 750.77 241.44 752.28 247.26 C 753.78 253.08 755.28 260.09 756.78 264.71 C 758.29 269.34 759.79 269.34 761.29 275.03 C 762.80 280.71 764.30 299.49 765.80 298.83 C 767.30 298.17 768.81 274.37 770.31 271.06 C 771.81 267.75 773.31 277.80 774.82 278.99 C 776.32 280.18 777.82 276.35 779.33 278.20 C 780.83 280.05 782.33 287.72 783.83 290.10 C 785.34 292.48 786.84 291.03 788.34 292.48 C 789.85 293.93 791.35 300.28 792.85 298.83 C 794.35 297.37 795.86 284.55 797.36 283.75 C 798.86 282.96 800.36 293.93 801.87 294.07 C 803.37 294.20 804.87 284.28 806.38 284.55 C 807.88 284.81 809.38 293.01 810.88 295.65 C 812.39 298.30 813.89 304.12 815.39 300.41 C 816.90 296.71 818.40 279.52 819.90 273.44 C 821.40 267.36 822.91 261.01 824.41 263.92 C 825.91 266.83 827.41 284.81 828.92 290.89 C 830.42 296.98 831.92 298.83 833.43 300.41 C 834.93 302.00 836.43 302.66 837.93 300.41 C 839.44 298.17 840.94 289.57 842.44 286.93 C 843.94 284.28 845.45 282.30 846.95 284.55 C 848.45 286.79 849.96 297.50 851.46 300.41 C 852.96 303.32 854.46 301.74 855.97 302.00 C 857.47 302.26 858.97 302.00 860.48 302.00 C 861.98 302.00 863.48 303.59 864.98 302.00 C 866.49 300.41 867.99 295.26 869.49 292.48 C 870.99 289.70 873.25 286.53 874.00 285.34 L 874.00 302.00 L 58.00 302.00 Z" fill="url(#area)"/>
<path d="M 58.00 302.00 C 58.75 302.00 61.01 302.00 62.51 302.00 C 64.01 302.00 65.51 305.44 67.02 302.00 C 68.52 298.56 70.02 282.43 71.52 281.37 C 73.03 280.32 74.53 296.98 76.03 295.65 C 77.54 294.33 79.04 273.57 80.54 273.44 C 82.04 273.31 83.55 293.41 85.05 294.86 C 86.55 296.31 88.06 282.17 89.56 282.17 C 91.06 282.17 92.56 296.18 94.07 294.86 C 95.57 293.54 97.07 275.95 98.57 274.23 C 100.08 272.51 101.58 281.64 103.08 284.55 C 104.59 287.46 106.09 288.78 107.59 291.69 C 109.09 294.60 110.60 303.59 112.10 302.00 C 113.60 300.41 115.10 283.22 116.61 282.17 C 118.11 281.11 119.61 292.35 121.12 295.65 C 122.62 298.96 124.12 301.34 125.62 302.00 C 127.13 302.66 128.63 303.98 130.13 299.62 C 131.64 295.26 133.14 303.45 134.64 275.82 C 136.14 248.19 137.65 133.95 139.15 133.81 C 140.65 133.68 142.15 249.51 143.66 275.03 C 145.16 300.55 146.66 282.43 148.17 286.93 C 149.67 291.42 151.17 301.87 152.67 302.00 C 154.18 302.13 155.68 287.98 157.18 287.72 C 158.69 287.46 160.19 300.28 161.69 300.41 C 163.19 300.55 164.70 289.44 166.20 288.51 C 167.70 287.59 169.20 295.65 170.71 294.86 C 172.21 294.07 173.71 285.74 175.22 283.75 C 176.72 281.77 178.22 284.41 179.72 282.96 C 181.23 281.51 182.73 272.91 184.23 275.03 C 185.73 277.14 187.24 291.16 188.74 295.65 C 190.24 300.15 191.75 303.85 193.25 302.00 C 194.75 300.15 196.25 287.59 197.76 284.55 C 199.26 281.51 200.76 282.03 202.27 283.75 C 203.77 285.47 205.27 294.60 206.77 294.86 C 208.28 295.12 209.78 285.60 211.28 285.34 C 212.78 285.08 214.29 292.35 215.79 293.27 C 217.29 294.20 218.80 291.16 220.30 290.89 C 221.80 290.63 223.30 290.50 224.81 291.69 C 226.31 292.88 227.81 296.31 229.31 298.03 C 230.82 299.75 232.32 302.26 233.82 302.00 C 235.33 301.74 236.83 296.45 238.33 296.45 C 239.83 296.45 241.34 301.07 242.84 302.00 C 244.34 302.93 245.85 302.00 247.35 302.00 C 248.85 302.00 250.35 302.00 251.86 302.00 C 253.36 302.00 254.86 303.19 256.36 302.00 C 257.87 300.81 259.37 294.86 260.87 294.86 C 262.38 294.86 263.88 300.81 265.38 302.00 C 266.88 303.19 268.39 303.45 269.89 302.00 C 271.39 300.55 272.90 293.93 274.40 293.27 C 275.90 292.61 277.40 296.58 278.91 298.03 C 280.41 299.49 281.91 301.34 283.41 302.00 C 284.92 302.66 286.42 302.40 287.92 302.00 C 289.43 301.60 290.93 299.88 292.43 299.62 C 293.93 299.36 295.44 300.81 296.94 300.41 C 298.44 300.02 299.94 300.81 301.45 297.24 C 302.95 293.67 304.45 279.26 305.96 278.99 C 307.46 278.73 308.96 291.82 310.46 295.65 C 311.97 299.49 313.47 302.40 314.97 302.00 C 316.48 301.60 317.98 297.11 319.48 293.27 C 320.98 289.44 322.49 279.39 323.99 278.99 C 325.49 278.60 326.99 287.19 328.50 290.89 C 330.00 294.60 331.50 303.72 333.01 301.21 C 334.51 298.69 336.01 280.98 337.51 275.82 C 339.02 270.66 340.52 269.74 342.02 270.27 C 343.52 270.80 345.03 274.63 346.53 278.99 C 348.03 283.36 349.54 292.61 351.04 296.45 C 352.54 300.28 354.04 301.47 355.55 302.00 C 357.05 302.53 358.55 299.62 360.06 299.62 C 361.56 299.62 363.06 301.60 364.56 302.00 C 366.07 302.40 367.57 302.00 369.07 302.00 C 370.57 302.00 372.08 304.64 373.58 302.00 C 375.08 299.36 376.59 288.65 378.09 286.13 C 379.59 283.62 381.09 285.21 382.60 286.93 C 384.10 288.65 385.60 294.46 387.10 296.45 C 388.61 298.43 390.11 298.30 391.61 298.83 C 393.12 299.36 394.62 299.09 396.12 299.62 C 397.62 300.15 399.13 302.40 400.63 302.00 C 402.13 301.60 403.64 297.64 405.14 297.24 C 406.64 296.84 408.14 301.21 409.65 299.62 C 411.15 298.03 412.65 288.12 414.15 287.72 C 415.66 287.32 417.16 295.92 418.66 297.24 C 420.17 298.56 421.67 296.58 423.17 295.65 C 424.67 294.73 426.18 299.75 427.68 291.69 C 429.18 283.62 430.69 251.49 432.19 247.26 C 433.69 243.03 435.19 294.46 436.70 266.30 C 438.20 238.14 439.70 100.49 441.20 78.28 C 442.71 56.07 444.21 108.29 445.71 133.02 C 447.22 157.75 448.72 207.06 450.22 226.63 C 451.72 246.20 453.23 249.11 454.73 250.43 C 456.23 251.76 457.73 230.47 459.24 234.57 C 460.74 238.67 462.24 263.79 463.75 275.03 C 465.25 286.27 466.75 298.30 468.25 302.00 C 469.76 305.70 471.26 297.77 472.76 297.24 C 474.27 296.71 475.77 301.87 477.27 298.83 C 478.77 295.79 480.28 278.99 481.78 278.99 C 483.28 278.99 484.78 300.28 486.29 298.83 C 487.79 297.37 489.29 275.82 490.80 270.27 C 492.30 264.71 493.80 260.22 495.30 265.51 C 496.81 270.80 498.31 297.24 499.81 302.00 C 501.31 306.76 502.82 294.07 504.32 294.07 C 505.82 294.07 507.33 302.53 508.83 302.00 C 510.33 301.47 511.83 292.22 513.34 290.89 C 514.84 289.57 516.34 303.59 517.85 294.07 C 519.35 284.55 520.85 238.40 522.35 233.77 C 523.86 229.15 525.36 267.62 526.86 266.30 C 528.36 264.98 529.87 228.75 531.37 225.84 C 532.87 222.93 534.38 249.24 535.88 248.85 C 537.38 248.45 538.88 222.80 540.39 223.46 C 541.89 224.12 543.39 249.11 544.90 252.81 C 546.40 256.52 547.90 238.00 549.40 245.67 C 550.91 253.34 552.41 292.22 553.91 298.83 C 555.41 305.44 556.92 289.70 558.42 285.34 C 559.92 280.98 561.43 287.72 562.93 272.65 C 564.43 257.57 565.93 195.30 567.44 194.90 C 568.94 194.50 570.44 253.08 571.94 270.27 C 573.45 287.46 574.95 293.80 576.45 298.03 C 577.96 302.26 579.46 296.18 580.96 295.65 C 582.46 295.12 583.97 297.50 585.47 294.86 C 586.97 292.22 588.48 281.24 589.98 279.79 C 591.48 278.33 592.98 282.96 594.49 286.13 C 595.99 289.31 597.49 297.50 598.99 298.83 C 600.50 300.15 602.00 294.86 603.50 294.07 C 605.01 293.27 606.51 293.01 608.01 294.07 C 609.51 295.12 611.02 299.88 612.52 300.41 C 614.02 300.94 615.52 297.24 617.03 297.24 C 618.53 297.24 620.03 299.88 621.54 300.41 C 623.04 300.94 624.54 309.54 626.04 300.41 C 627.55 291.29 629.05 248.19 630.55 245.67 C 632.06 243.16 633.56 282.83 635.06 285.34 C 636.56 287.85 638.07 260.09 639.57 260.75 C 641.07 261.41 642.57 285.21 644.08 289.31 C 645.58 293.41 647.08 283.62 648.59 285.34 C 650.09 287.06 651.59 297.11 653.09 299.62 C 654.60 302.13 656.10 300.28 657.60 300.41 C 659.10 300.55 660.61 300.41 662.11 300.41 C 663.61 300.41 665.12 300.81 666.62 300.41 C 668.12 300.02 669.62 305.57 671.13 298.03 C 672.63 290.50 674.13 255.99 675.64 255.19 C 677.14 254.40 678.64 289.57 680.14 293.27 C 681.65 296.98 683.15 277.67 684.65 277.41 C 686.15 277.14 687.66 291.55 689.16 291.69 C 690.66 291.82 692.17 279.13 693.67 278.20 C 695.17 277.27 696.67 282.70 698.18 286.13 C 699.68 289.57 701.18 296.45 702.69 298.83 C 704.19 301.21 705.69 300.15 707.19 300.41 C 708.70 300.68 710.20 300.41 711.70 300.41 C 713.20 300.41 714.71 300.55 716.21 300.41 C 717.71 300.28 719.22 302.93 720.72 299.62 C 722.22 296.31 723.72 280.71 725.23 280.58 C 726.73 280.45 728.23 299.49 729.73 298.83 C 731.24 298.17 732.74 276.35 734.24 276.61 C 735.75 276.88 737.25 298.03 738.75 300.41 C 740.25 302.79 741.76 302.66 743.26 290.89 C 744.76 279.13 746.27 237.08 747.77 229.81 C 749.27 222.53 750.77 241.44 752.28 247.26 C 753.78 253.08 755.28 260.09 756.78 264.71 C 758.29 269.34 759.79 269.34 761.29 275.03 C 762.80 280.71 764.30 299.49 765.80 298.83 C 767.30 298.17 768.81 274.37 770.31 271.06 C 771.81 267.75 773.31 277.80 774.82 278.99 C 776.32 280.18 777.82 276.35 779.33 278.20 C 780.83 280.05 782.33 287.72 783.83 290.10 C 785.34 292.48 786.84 291.03 788.34 292.48 C 789.85 293.93 791.35 300.28 792.85 298.83 C 794.35 297.37 795.86 284.55 797.36 283.75 C 798.86 282.96 800.36 293.93 801.87 294.07 C 803.37 294.20 804.87 284.28 806.38 284.55 C 807.88 284.81 809.38 293.01 810.88 295.65 C 812.39 298.30 813.89 304.12 815.39 300.41 C 816.90 296.71 818.40 279.52 819.90 273.44 C 821.40 267.36 822.91 261.01 824.41 263.92 C 825.91 266.83 827.41 284.81 828.92 290.89 C 830.42 296.98 831.92 298.83 833.43 300.41 C 834.93 302.00 836.43 302.66 837.93 300.41 C 839.44 298.17 840.94 289.57 842.44 286.93 C 843.94 284.28 845.45 282.30 846.95 284.55 C 848.45 286.79 849.96 297.50 851.46 300.41 C 852.96 303.32 854.46 301.74 855.97 302.00 C 857.47 302.26 858.97 302.00 860.48 302.00 C 861.98 302.00 863.48 303.59 864.98 302.00 C 866.49 300.41 867.99 295.26 869.49 292.48 C 870.99 289.70 873.25 286.53 874.00 285.34" fill="none" stroke="#22C55E" stroke-opacity="0.20" stroke-width="7" stroke-linecap="round" stroke-linejoin="round"/>
<path d="M 58.00 302.00 C 58.75 302.00 61.01 302.00 62.51 302.00 C 64.01 302.00 65.51 305.44 67.02 302.00 C 68.52 298.56 70.02 282.43 71.52 281.37 C 73.03 280.32 74.53 296.98 76.03 295.65 C 77.54 294.33 79.04 273.57 80.54 273.44 C 82.04 273.31 83.55 293.41 85.05 294.86 C 86.55 296.31 88.06 282.17 89.56 282.17 C 91.06 282.17 92.56 296.18 94.07 294.86 C 95.57 293.54 97.07 275.95 98.57 274.23 C 100.08 272.51 101.58 281.64 103.08 284.55 C 104.59 287.46 106.09 288.78 107.59 291.69 C 109.09 294.60 110.60 303.59 112.10 302.00 C 113.60 300.41 115.10 283.22 116.61 282.17 C 118.11 281.11 119.61 292.35 121.12 295.65 C 122.62 298.96 124.12 301.34 125.62 302.00 C 127.13 302.66 128.63 303.98 130.13 299.62 C 131.64 295.26 133.14 303.45 134.64 275.82 C 136.14 248.19 137.65 133.95 139.15 133.81 C 140.65 133.68 142.15 249.51 143.66 275.03 C 145.16 300.55 146.66 282.43 148.17 286.93 C 149.67 291.42 151.17 301.87 152.67 302.00 C 154.18 302.13 155.68 287.98 157.18 287.72 C 158.69 287.46 160.19 300.28 161.69 300.41 C 163.19 300.55 164.70 289.44 166.20 288.51 C 167.70 287.59 169.20 295.65 170.71 294.86 C 172.21 294.07 173.71 285.74 175.22 283.75 C 176.72 281.77 178.22 284.41 179.72 282.96 C 181.23 281.51 182.73 272.91 184.23 275.03 C 185.73 277.14 187.24 291.16 188.74 295.65 C 190.24 300.15 191.75 303.85 193.25 302.00 C 194.75 300.15 196.25 287.59 197.76 284.55 C 199.26 281.51 200.76 282.03 202.27 283.75 C 203.77 285.47 205.27 294.60 206.77 294.86 C 208.28 295.12 209.78 285.60 211.28 285.34 C 212.78 285.08 214.29 292.35 215.79 293.27 C 217.29 294.20 218.80 291.16 220.30 290.89 C 221.80 290.63 223.30 290.50 224.81 291.69 C 226.31 292.88 227.81 296.31 229.31 298.03 C 230.82 299.75 232.32 302.26 233.82 302.00 C 235.33 301.74 236.83 296.45 238.33 296.45 C 239.83 296.45 241.34 301.07 242.84 302.00 C 244.34 302.93 245.85 302.00 247.35 302.00 C 248.85 302.00 250.35 302.00 251.86 302.00 C 253.36 302.00 254.86 303.19 256.36 302.00 C 257.87 300.81 259.37 294.86 260.87 294.86 C 262.38 294.86 263.88 300.81 265.38 302.00 C 266.88 303.19 268.39 303.45 269.89 302.00 C 271.39 300.55 272.90 293.93 274.40 293.27 C 275.90 292.61 277.40 296.58 278.91 298.03 C 280.41 299.49 281.91 301.34 283.41 302.00 C 284.92 302.66 286.42 302.40 287.92 302.00 C 289.43 301.60 290.93 299.88 292.43 299.62 C 293.93 299.36 295.44 300.81 296.94 300.41 C 298.44 300.02 299.94 300.81 301.45 297.24 C 302.95 293.67 304.45 279.26 305.96 278.99 C 307.46 278.73 308.96 291.82 310.46 295.65 C 311.97 299.49 313.47 302.40 314.97 302.00 C 316.48 301.60 317.98 297.11 319.48 293.27 C 320.98 289.44 322.49 279.39 323.99 278.99 C 325.49 278.60 326.99 287.19 328.50 290.89 C 330.00 294.60 331.50 303.72 333.01 301.21 C 334.51 298.69 336.01 280.98 337.51 275.82 C 339.02 270.66 340.52 269.74 342.02 270.27 C 343.52 270.80 345.03 274.63 346.53 278.99 C 348.03 283.36 349.54 292.61 351.04 296.45 C 352.54 300.28 354.04 301.47 355.55 302.00 C 357.05 302.53 358.55 299.62 360.06 299.62 C 361.56 299.62 363.06 301.60 364.56 302.00 C 366.07 302.40 367.57 302.00 369.07 302.00 C 370.57 302.00 372.08 304.64 373.58 302.00 C 375.08 299.36 376.59 288.65 378.09 286.13 C 379.59 283.62 381.09 285.21 382.60 286.93 C 384.10 288.65 385.60 294.46 387.10 296.45 C 388.61 298.43 390.11 298.30 391.61 298.83 C 393.12 299.36 394.62 299.09 396.12 299.62 C 397.62 300.15 399.13 302.40 400.63 302.00 C 402.13 301.60 403.64 297.64 405.14 297.24 C 406.64 296.84 408.14 301.21 409.65 299.62 C 411.15 298.03 412.65 288.12 414.15 287.72 C 415.66 287.32 417.16 295.92 418.66 297.24 C 420.17 298.56 421.67 296.58 423.17 295.65 C 424.67 294.73 426.18 299.75 427.68 291.69 C 429.18 283.62 430.69 251.49 432.19 247.26 C 433.69 243.03 435.19 294.46 436.70 266.30 C 438.20 238.14 439.70 100.49 441.20 78.28 C 442.71 56.07 444.21 108.29 445.71 133.02 C 447.22 157.75 448.72 207.06 450.22 226.63 C 451.72 246.20 453.23 249.11 454.73 250.43 C 456.23 251.76 457.73 230.47 459.24 234.57 C 460.74 238.67 462.24 263.79 463.75 275.03 C 465.25 286.27 466.75 298.30 468.25 302.00 C 469.76 305.70 471.26 297.77 472.76 297.24 C 474.27 296.71 475.77 301.87 477.27 298.83 C 478.77 295.79 480.28 278.99 481.78 278.99 C 483.28 278.99 484.78 300.28 486.29 298.83 C 487.79 297.37 489.29 275.82 490.80 270.27 C 492.30 264.71 493.80 260.22 495.30 265.51 C 496.81 270.80 498.31 297.24 499.81 302.00 C 501.31 306.76 502.82 294.07 504.32 294.07 C 505.82 294.07 507.33 302.53 508.83 302.00 C 510.33 301.47 511.83 292.22 513.34 290.89 C 514.84 289.57 516.34 303.59 517.85 294.07 C 519.35 284.55 520.85 238.40 522.35 233.77 C 523.86 229.15 525.36 267.62 526.86 266.30 C 528.36 264.98 529.87 228.75 531.37 225.84 C 532.87 222.93 534.38 249.24 535.88 248.85 C 537.38 248.45 538.88 222.80 540.39 223.46 C 541.89 224.12 543.39 249.11 544.90 252.81 C 546.40 256.52 547.90 238.00 549.40 245.67 C 550.91 253.34 552.41 292.22 553.91 298.83 C 555.41 305.44 556.92 289.70 558.42 285.34 C 559.92 280.98 561.43 287.72 562.93 272.65 C 564.43 257.57 565.93 195.30 567.44 194.90 C 568.94 194.50 570.44 253.08 571.94 270.27 C 573.45 287.46 574.95 293.80 576.45 298.03 C 577.96 302.26 579.46 296.18 580.96 295.65 C 582.46 295.12 583.97 297.50 585.47 294.86 C 586.97 292.22 588.48 281.24 589.98 279.79 C 591.48 278.33 592.98 282.96 594.49 286.13 C 595.99 289.31 597.49 297.50 598.99 298.83 C 600.50 300.15 602.00 294.86 603.50 294.07 C 605.01 293.27 606.51 293.01 608.01 294.07 C 609.51 295.12 611.02 299.88 612.52 300.41 C 614.02 300.94 615.52 297.24 617.03 297.24 C 618.53 297.24 620.03 299.88 621.54 300.41 C 623.04 300.94 624.54 309.54 626.04 300.41 C 627.55 291.29 629.05 248.19 630.55 245.67 C 632.06 243.16 633.56 282.83 635.06 285.34 C 636.56 287.85 638.07 260.09 639.57 260.75 C 641.07 261.41 642.57 285.21 644.08 289.31 C 645.58 293.41 647.08 283.62 648.59 285.34 C 650.09 287.06 651.59 297.11 653.09 299.62 C 654.60 302.13 656.10 300.28 657.60 300.41 C 659.10 300.55 660.61 300.41 662.11 300.41 C 663.61 300.41 665.12 300.81 666.62 300.41 C 668.12 300.02 669.62 305.57 671.13 298.03 C 672.63 290.50 674.13 255.99 675.64 255.19 C 677.14 254.40 678.64 289.57 680.14 293.27 C 681.65 296.98 683.15 277.67 684.65 277.41 C 686.15 277.14 687.66 291.55 689.16 291.69 C 690.66 291.82 692.17 279.13 693.67 278.20 C 695.17 277.27 696.67 282.70 698.18 286.13 C 699.68 289.57 701.18 296.45 702.69 298.83 C 704.19 301.21 705.69 300.15 707.19 300.41 C 708.70 300.68 710.20 300.41 711.70 300.41 C 713.20 300.41 714.71 300.55 716.21 300.41 C 717.71 300.28 719.22 302.93 720.72 299.62 C 722.22 296.31 723.72 280.71 725.23 280.58 C 726.73 280.45 728.23 299.49 729.73 298.83 C 731.24 298.17 732.74 276.35 734.24 276.61 C 735.75 276.88 737.25 298.03 738.75 300.41 C 740.25 302.79 741.76 302.66 743.26 290.89 C 744.76 279.13 746.27 237.08 747.77 229.81 C 749.27 222.53 750.77 241.44 752.28 247.26 C 753.78 253.08 755.28 260.09 756.78 264.71 C 758.29 269.34 759.79 269.34 761.29 275.03 C 762.80 280.71 764.30 299.49 765.80 298.83 C 767.30 298.17 768.81 274.37 770.31 271.06 C 771.81 267.75 773.31 277.80 774.82 278.99 C 776.32 280.18 777.82 276.35 779.33 278.20 C 780.83 280.05 782.33 287.72 783.83 290.10 C 785.34 292.48 786.84 291.03 788.34 292.48 C 789.85 293.93 791.35 300.28 792.85 298.83 C 794.35 297.37 795.86 284.55 797.36 283.75 C 798.86 282.96 800.36 293.93 801.87 294.07 C 803.37 294.20 804.87 284.28 806.38 284.55 C 807.88 284.81 809.38 293.01 810.88 295.65 C 812.39 298.30 813.89 304.12 815.39 300.41 C 816.90 296.71 818.40 279.52 819.90 273.44 C 821.40 267.36 822.91 261.01 824.41 263.92 C 825.91 266.83 827.41 284.81 828.92 290.89 C 830.42 296.98 831.92 298.83 833.43 300.41 C 834.93 302.00 836.43 302.66 837.93 300.41 C 839.44 298.17 840.94 289.57 842.44 286.93 C 843.94 284.28 845.45 282.30 846.95 284.55 C 848.45 286.79 849.96 297.50 851.46 300.41 C 852.96 303.32 854.46 301.74 855.97 302.00 C 857.47 302.26 858.97 302.00 860.48 302.00 C 861.98 302.00 863.48 303.59 864.98 302.00 C 866.49 300.41 867.99 295.26 869.49 292.48 C 870.99 289.70 873.25 286.53 874.00 285.34" fill="none" stroke="#22C55E" stroke-width="2.4" stroke-linecap="round" stroke-linejoin="round"/>
<circle cx="441.2" cy="78.3" r="4.5" fill="#4ADE80" stroke="#0B1120" stroke-width="2"/>
<text x="441.2" y="68.3" text-anchor="middle" font-family="ui-monospace,Menlo,monospace" font-size="10" font-weight="700" fill="#4ADE80">282</text>
<circle cx="874.0" cy="285.3" r="3.5" fill="#F8FAFC"/>
<text x="16" y="183" text-anchor="middle" font-family="ui-monospace,Menlo,monospace" font-size="10" fill="#94A3B8" transform="rotate(-90 16 183)">Contributions</text>
</svg>