<svg xmlns="http://www.w3.org/2000/svg" width="900" height="340" viewBox="0 0 900 340" role="img" aria-label="Contribution activity, last 6 months">
<defs>
<linearGradient id="bg" x1="0" y1="0" x2="0" y2="1"><stop offset="0" stop-color="#0F172A"/><stop offset="1" stop-color="#0B1120"/></linearGradient>
<linearGradient id="area" x1="0" y1="0" x2="0" y2="1"><stop offset="0" stop-color="#22C55E" stop-opacity="0.42"/><stop offset="0.7" stop-color="#22C55E" stop-opacity="0.08"/><stop offset="1" stop-color="#22C55E" stop-opacity="0"/></linearGradient>
</defs>
<rect x="0" y="0" width="900" height="340" rx="14" fill="url(#bg)"/>
<text x="450" y="32" text-anchor="middle" font-family="ui-monospace,Menlo,monospace" font-size="17" font-weight="700" fill="#F8FAFC" letter-spacing="0.5">last 6 months</text>
<text x="450" y="50" text-anchor="middle" font-family="ui-monospace,Menlo,monospace" font-size="11" fill="#94A3B8">4,097 contributions · peak 282</text>
<line x1="58" y1="302.0" x2="874" y2="302.0" stroke="#1E293B" stroke-width="1" stroke-dasharray="2 4"/>
<text x="48" y="305.5" text-anchor="end" font-family="ui-monospace,Menlo,monospace" font-size="10" fill="#94A3B8">0</text>
<line x1="58" y1="242.5" x2="874" y2="242.5" stroke="#1E293B" stroke-width="1" stroke-dasharray="2 4"/>
<text x="48" y="246.0" text-anchor="end" font-family="ui-monospace,Menlo,monospace" font-size="10" fill="#94A3B8">75</text>
<line x1="58" y1="183.0" x2="874" y2="183.0" stroke="#1E293B" stroke-width="1" stroke-dasharray="2 4"/>
<text x="48" y="186.5" text-anchor="end" font-family="ui-monospace,Menlo,monospace" font-size="10" fill="#94A3B8">150</text>
<line x1="58" y1="123.5" x2="874" y2="123.5" stroke="#1E293B" stroke-width="1" stroke-dasharray="2 4"/>
<text x="48" y="127.0" text-anchor="end" font-family="ui-monospace,Menlo,monospace" font-size="10" fill="#94A3B8">225</text>
<line x1="58" y1="64.0" x2="874" y2="64.0" stroke="#1E293B" stroke-width="1" stroke-dasharray="2 4"/>
<text x="48" y="67.5" text-anchor="end" font-family="ui-monospace,Menlo,monospace" font-size="10" fill="#94A3B8">300</text>
<line x1="175.2" y1="64" x2="175.2" y2="302" stroke="#1E293B" stroke-width="1" stroke-opacity="0.6"/>
<text x="175.2" y="322" text-anchor="middle" font-family="ui-monospace,Menlo,monospace" font-size="10" fill="#94A3B8">Mar</text>
<line x1="315.0" y1="64" x2="315.0" y2="302" stroke="#1E293B" stroke-width="1" stroke-opacity="0.6"/>
<text x="315.0" y="322" text-anchor="middle" font-family="ui-monospace,Menlo,monospace" font-size="10" fill="#94A3B8">Apr</text>
<line x1="450.2" y1="64" x2="450.2" y2="302" stroke="#1E293B" stroke-width="1" stroke-opacity="0.6"/>
<text x="450.2" y="322" text-anchor="middle" font-family="ui-monospace,Menlo,monospace" font-size="10" fill="#94A3B8">May</text>
<line x1="590.0" y1="64" x2="590.0" y2="302" stroke="#1E293B" stroke-width="1" stroke-opacity="0.6"/>
<text x="590.0" y="322" text-anchor="middle" font-family="ui-monospace,Menlo,monospace" font-size="10" fill="#94A3B8">Jun</text>
<line x1="725.2" y1="64" x2="725.2" y2="302" stroke="#1E293B" stroke-width="1" stroke-opacity="0.6"/>
<text x="725.2" y="322" text-anchor="middle" font-family="ui-monospace,Menlo,monospace" font-size="10" fill="#94A3B8">Jul</text>
<line x1="865.0" y1="64" x2="865.0" y2="302" stroke="#1E293B" stroke-width="1" stroke-opacity="0.6"/>
<text x="865.0" y="322" text-anchor="middle" font-family="ui-monospace,Menlo,monospace" font-size="10" fill="#94A3B8">Aug</text>
<path d="M 58.00 284.55 C 58.75 285.74 61.01 288.78 62.51 291.69 C 64.01 294.60 65.51 303.59 67.02 302.00 C 68.52 300.41 70.02 283.22 71.52 282.17 C 73.03 281.11 74.53 292.35 76.03 295.65 C 77.54 298.96 79.04 301.34 80.54 302.00 C 82.04 302.66 83.55 303.98 85.05 299.62 C 86.55 295.26 88.06 303.45 89.56 275.82 C 91.06 248.19 92.56 133.95 94.07 133.81 C 95.57 133.68 97.07 249.51 98.57 275.03 C 100.08 300.55 101.58 282.43 103.08 286.93 C 104.59 291.42 106.09 301.87 107.59 302.00 C 109.09 302.13 110.60 287.98 112.10 287.72 C 113.60 287.46 115.10 300.28 116.61 300.41 C 118.11 300.55 119.61 289.44 121.12 288.51 C 122.62 287.59 124.12 295.65 125.62 294.86 C 127.13 294.07 128.63 285.74 130.13 283.75 C 131.64 281.77 133.14 284.41 134.64 282.96 C 136.14 281.51 137.65 272.91 139.15 275.03 C 140.65 277.14 142.15 291.16 143.66 295.65 C 145.16 300.15 146.66 303.85 148.17 302.00 C 149.67 300.15 151.17 287.59 152.67 284.55 C 154.18 281.51 155.68 282.03 157.18 283.75 C 158.69 285.47 160.19 294.60 161.69 294.86 C 163.19 295.12 164.70 285.60 166.20 285.34 C 167.70 285.08 169.20 292.35 170.71 293.27 C 172.21 294.20 173.71 291.16 175.22 290.89 C 176.72 290.63 178.22 290.50 179.72 291.69 C 181.23 292.88 182.73 296.31 184.23 298.03 C 185.73 299.75 187.24 302.26 188.74 302.00 C 190.24 301.74 191.75 296.45 193.25 296.45 C 194.75 296.45 196.25 301.07 197.76 302.00 C 199.26 302.93 200.76 302.00 202.27 302.00 C 203.77 302.00 205.27 302.00 206.77 302.00 C 208.28 302.00 209.78 303.19 211.28 302.00 C 212.78 300.81 214.29 294.86 215.79 294.86 C 217.29 294.86 218.80 300.81 220.30 302.00 C 221.80 303.19 223.30 303.45 224.81 302.00 C 226.31 300.55 227.81 293.93 229.31 293.27 C 230.82 292.61 232.32 296.58 233.82 298.03 C 235.33 299.49 236.83 301.34 238.33 302.00 C 239.83 302.66 241.34 302.40 242.84 302.00 C 244.34 301.60 245.85 299.88 247.35 299.62 C 248.85 299.36 250.35 300.81 251.86 300.41 C 253.36 300.02 254.86 300.81 256.36 297.24 C 257.87 293.67 259.37 279.26 260.87 278.99 C 262.38 278.73 263.88 291.82 265.38 295.65 C 266.88 299.49 268.39 302.40 269.89 302.00 C 271.39 301.60 272.90 297.11 274.40 293.27 C 275.90 289.44 277.40 279.39 278.91 278.99 C 280.41 278.60 281.91 287.19 283.41 290.89 C 284.92 294.60 286.42 303.72 287.92 301.21 C 289.43 298.69 290.93 280.98 292.43 275.82 C 293.93 270.66 295.44 269.74 296.94 270.27 C 298.44 270.80 299.94 274.63 301.45 278.99 C 302.95 283.36 304.45 292.61 305.96 296.45 C 307.46 300.28 308.96 301.47 310.46 302.00 C 311.97 302.53 313.47 299.62 314.97 299.62 C 316.48 299.62 317.98 301.60 319.48 302.00 C 320.98 302.40 322.49 302.00 323.99 302.00 C 325.49 302.00 326.99 304.64 328.50 302.00 C 330.00 299.36 331.50 288.65 333.01 286.13 C 334.51 283.62 336.01 285.21 337.51 286.93 C 339.02 288.65 340.52 294.46 342.02 296.45 C 343.52 298.43 345.03 298.30 346.53 298.83 C 348.03 299.36 349.54 299.09 351.04 299.62 C 352.54 300.15 354.04 302.40 355.55 302.00 C 357.05 301.60 358.55 297.64 360.06 297.24 C 361.56 296.84 363.06 301.21 364.56 299.62 C 366.07 298.03 367.57 288.12 369.07 287.72 C 370.57 287.32 372.08 295.92 373.58 297.24 C 375.08 298.56 376.59 296.58 378.09 295.65 C 379.59 294.73 381.09 299.75 382.60 291.69 C 384.10 283.62 385.60 251.49 387.10 247.26 C 388.61 243.03 390.11 294.46 391.61 266.30 C 393.12 238.14 394.62 100.49 396.12 78.28 C 397.62 56.07 399.13 108.29 400.63 133.02 C 402.13 157.75 403.64 207.06 405.14 226.63 C 406.64 246.20 408.14 249.11 409.65 250.43 C 411.15 251.76 412.65 230.47 414.15 234.57 C 415.66 238.67 417.16 263.79 418.66 275.03 C 420.17 286.27 421.67 298.30 423.17 302.00 C 424.67 305.70 426.18 297.77 427.68 297.24 C 429.18 296.71 430.69 301.87 432.19 298.83 C 433.69 295.79 435.19 278.99 436.70 278.99 C 438.20 278.99 439.70 300.28 441.20 298.83 C 442.71 297.37 444.21 275.82 445.71 270.27 C 447.22 264.71 448.72 260.22 450.22 265.51 C 451.72 270.80 453.23 297.24 454.73 302.00 C 456.23 306.76 457.73 294.07 459.24 294.07 C 460.74 294.07 462.24 302.53 463.75 302.00 C 465.25 301.47 466.75 292.22 468.25 290.89 C 469.76 289.57 471.26 303.59 472.76 294.07 C 474.27 284.55 475.77 238.40 477.27 233.77 C 478.77 229.15 480.28 267.62 481.78 266.30 C 483.28 264.98 484.78 228.75 486.29 225.84 C 487.79 222.93 489.29 249.24 490.80 248.85 C 492.30 248.45 493.80 222.80 495.30 223.46 C 496.81 224.12 498.31 249.11 499.81 252.81 C 501.31 256.52 502.82 238.00 504.32 245.67 C 505.82 253.34 507.33 292.22 508.83 298.83 C 510.33 305.44 511.83 289.70 513.34 285.34 C 514.84 280.98 516.34 287.72 517.85 272.65 C 519.35 257.57 520.85 195.30 522.35 194.90 C 523.86 194.50 525.36 253.08 526.86 270.27 C 528.36 287.46 529.87 293.80 531.37 298.03 C 532.87 302.26 534.38 296.18 535.88 295.65 C 537.38 295.12 538.88 297.50 540.39 294.86 C 541.89 292.22 543.39 281.24 544.90 279.79 C 546.40 278.33 547.90 282.96 549.40 286.13 C 550.91 289.31 552.41 297.50 553.91 298.83 C 555.41 300.15 556.92 294.86 558.42 294.07 C 559.92 293.27 561.43 293.01 562.93 294.07 C 564.43 295.12 565.93 299.88 567.44 300.41 C 568.94 300.94 570.44 297.24 571.94 297.24 C 573.45 297.24 574.95 299.88 576.45 300.41 C 577.96 300.94 579.46 309.54 580.96 300.41 C 582.46 291.29 583.97 248.19 585.47 245.67 C 586.97 243.16 588.48 282.83 589.98 285.34 C 591.48 287.85 592.98 260.09 594.49 260.75 C 595.99 261.41 597.49 285.21 598.99 289.31 C 600.50 293.41 602.00 283.62 603.50 285.34 C 605.01 287.06 606.51 297.11 608.01 299.62 C 609.51 302.13 611.02 300.28 612.52 300.41 C 614.02 300.55 615.52 300.41 617.03 300.41 C 618.53 300.41 620.03 300.81 621.54 300.41 C 623.04 300.02 624.54 305.57 626.04 298.03 C 627.55 290.50 629.05 255.99 630.55 255.19 C 632.06 254.40 633.56 289.57 635.06 293.27 C 636.56 296.98 638.07 277.67 639.57 277.41 C 641.07 277.14 642.57 291.55 644.08 291.69 C 645.58 291.82 647.08 279.13 648.59 278.20 C 650.09 277.27 651.59 282.70 653.09 286.13 C 654.60 289.57 656.10 296.45 657.60 298.83 C 659.10 301.21 660.61 300.15 662.11 300.41 C 663.61 300.68 665.12 300.41 666.62 300.41 C 668.12 300.41 669.62 300.55 671.13 300.41 C 672.63 300.28 674.13 302.93 675.64 299.62 C 677.14 296.31 678.64 280.71 680.14 280.58 C 681.65 280.45 683.15 299.49 684.65 298.83 C 686.15 298.17 687.66 276.35 689.16 276.61 C 690.66 276.88 692.17 298.03 693.67 300.41 C 695.17 302.79 696.67 302.66 698.18 290.89 C 699.68 279.13 701.18 237.08 702.69 229.81 C 704.19 222.53 705.69 241.44 707.19 247.26 C 708.70 253.08 710.20 260.09 711.70 264.71 C 713.20 269.34 714.71 269.34 716.21 275.03 C 717.71 280.71 719.22 299.49 720.72 298.83 C 722.22 298.17 723.72 274.37 725.23 271.06 C 726.73 267.75 728.23 277.80 729.73 278.99 C 731.24 280.18 732.74 276.35 734.24 278.20 C 735.75 280.05 737.25 287.72 738.75 290.10 C 740.25 292.48 741.76 291.03 743.26 292.48 C 744.76 293.93 746.27 300.28 747.77 298.83 C 749.27 297.37 750.77 284.55 752.28 283.75 C 753.78 282.96 755.28 293.93 756.78 294.07 C 758.29 294.20 759.79 284.28 761.29 284.55 C 762.80 284.81 764.30 293.01 765.80 295.65 C 767.30 298.30 768.81 304.12 770.31 300.41 C 771.81 296.71 773.31 279.52 774.82 273.44 C 776.32 267.36 777.82 261.01 779.33 263.92 C 780.83 266.83 782.33 284.81 783.83 290.89 C 785.34 296.98 786.84 298.83 788.34 300.41 C 789.85 302.00 791.35 302.66 792.85 300.41 C 794.35 298.17 795.86 289.57 797.36 286.93 C 798.86 284.28 800.36 282.30 801.87 284.55 C 803.37 286.79 804.87 297.50 806.38 300.41 C 807.88 303.32 809.38 301.74 810.88 302.00 C 812.39 302.26 813.89 302.00 815.39 302.00 C 816.90 302.00 818.40 303.59 819.90 302.00 C 821.40 300.41 822.91 296.71 824.41 292.48 C 825.91 288.25 827.41 275.42 828.92 276.61 C 830.42 277.80 831.92 296.58 833.43 299.62 C 834.93 302.66 836.43 294.73 837.93 294.86 C 839.44 294.99 840.94 299.88 842.44 300.41 C 843.94 300.94 845.45 298.03 846.95 298.03 C 848.45 298.03 849.96 300.15 851.46 300.41 C 852.96 300.68 854.46 301.47 855.97 299.62 C 857.47 297.77 858.97 295.79 860.48 289.31 C 861.98 282.83 863.48 259.16 864.98 260.75 C 866.49 262.33 867.99 295.39 869.49 298.83 C 870.99 302.26 873.25 284.28 874.00 281.37 L 874.00 302.00 L 58.00 302.00 Z" fill="url(#area)"/>
<path d="M 58.00 284.55 C 58.75 285.74 61.01 288.78 62.51 291.69 C 64.01 294.60 65.51 303.59 67.02 302.00 C 68.52 300.41 70.02 283.22 71.52 282.17 C 73.03 281.11 74.53 292.35 76.03 295.65 C 77.54 298.96 79.04 301.34 80.54 302.00 C 82.04 302.66 83.55 303.98 85.05 299.62 C 86.55 295.26 88.06 303.45 89.56 275.82 C 91.06 248.19 92.56 133.95 94.07 133.81 C 95.57 133.68 97.07 249.51 98.57 275.03 C 100.08 300.55 101.58 282.43 103.08 286.93 C 104.59 291.42 106.09 301.87 107.59 302.00 C 109.09 302.13 110.60 287.98 112.10 287.72 C 113.60 287.46 115.10 300.28 116.61 300.41 C 118.11 300.55 119.61 289.44 121.12 288.51 C 122.62 287.59 124.12 295.65 125.62 294.86 C 127.13 294.07 128.63 285.74 130.13 283.75 C 131.64 281.77 133.14 284.41 134.64 282.96 C 136.14 281.51 137.65 272.91 139.15 275.03 C 140.65 277.14 142.15 291.16 143.66 295.65 C 145.16 300.15 146.66 303.85 148.17 302.00 C 149.67 300.15 151.17 287.59 152.67 284.55 C 154.18 281.51 155.68 282.03 157.18 283.75 C 158.69 285.47 160.19 294.60 161.69 294.86 C 163.19 295.12 164.70 285.60 166.20 285.34 C 167.70 285.08 169.20 292.35 170.71 293.27 C 172.21 294.20 173.71 291.16 175.22 290.89 C 176.72 290.63 178.22 290.50 179.72 291.69 C 181.23 292.88 182.73 296.31 184.23 298.03 C 185.73 299.75 187.24 302.26 188.74 302.00 C 190.24 301.74 191.75 296.45 193.25 296.45 C 194.75 296.45 196.25 301.07 197.76 302.00 C 199.26 302.93 200.76 302.00 202.27 302.00 C 203.77 302.00 205.27 302.00 206.77 302.00 C 208.28 302.00 209.78 303.19 211.28 302.00 C 212.78 300.81 214.29 294.86 215.79 294.86 C 217.29 294.86 218.80 300.81 220.30 302.00 C 221.80 303.19 223.30 303.45 224.81 302.00 C 226.31 300.55 227.81 293.93 229.31 293.27 C 230.82 292.61 232.32 296.58 233.82 298.03 C 235.33 299.49 236.83 301.34 238.33 302.00 C 239.83 302.66 241.34 302.40 242.84 302.00 C 244.34 301.60 245.85 299.88 247.35 299.62 C 248.85 299.36 250.35 300.81 251.86 300.41 C 253.36 300.02 254.86 300.81 256.36 297.24 C 257.87 293.67 259.37 279.26 260.87 278.99 C 262.38 278.73 263.88 291.82 265.38 295.65 C 266.88 299.49 268.39 302.40 269.89 302.00 C 271.39 301.60 272.90 297.11 274.40 293.27 C 275.90 289.44 277.40 279.39 278.91 278.99 C 280.41 278.60 281.91 287.19 283.41 290.89 C 284.92 294.60 286.42 303.72 287.92 301.21 C 289.43 298.69 290.93 280.98 292.43 275.82 C 293.93 270.66 295.44 269.74 296.94 270.27 C 298.44 270.80 299.94 274.63 301.45 278.99 C 302.95 283.36 304.45 292.61 305.96 296.45 C 307.46 300.28 308.96 301.47 310.46 302.00 C 311.97 302.53 313.47 299.62 314.97 299.62 C 316.48 299.62 317.98 301.60 319.48 302.00 C 320.98 302.40 322.49 302.00 323.99 302.00 C 325.49 302.00 326.99 304.64 328.50 302.00 C 330.00 299.36 331.50 288.65 333.01 286.13 C 334.51 283.62 336.01 285.21 337.51 286.93 C 339.02 288.65 340.52 294.46 342.02 296.45 C 343.52 298.43 345.03 298.30 346.53 298.83 C 348.03 299.36 349.54 299.09 351.04 299.62 C 352.54 300.15 354.04 302.40 355.55 302.00 C 357.05 301.60 358.55 297.64 360.06 297.24 C 361.56 296.84 363.06 301.21 364.56 299.62 C 366.07 298.03 367.57 288.12 369.07 287.72 C 370.57 287.32 372.08 295.92 373.58 297.24 C 375.08 298.56 376.59 296.58 378.09 295.65 C 379.59 294.73 381.09 299.75 382.60 291.69 C 384.10 283.62 385.60 251.49 387.10 247.26 C 388.61 243.03 390.11 294.46 391.61 266.30 C 393.12 238.14 394.62 100.49 396.12 78.28 C 397.62 56.07 399.13 108.29 400.63 133.02 C 402.13 157.75 403.64 207.06 405.14 226.63 C 406.64 246.20 408.14 249.11 409.65 250.43 C 411.15 251.76 412.65 230.47 414.15 234.57 C 415.66 238.67 417.16 263.79 418.66 275.03 C 420.17 286.27 421.67 298.30 423.17 302.00 C 424.67 305.70 426.18 297.77 427.68 297.24 C 429.18 296.71 430.69 301.87 432.19 298.83 C 433.69 295.79 435.19 278.99 436.70 278.99 C 438.20 278.99 439.70 300.28 441.20 298.83 C 442.71 297.37 444.21 275.82 445.71 270.27 C 447.22 264.71 448.72 260.22 450.22 265.51 C 451.72 270.80 453.23 297.24 454.73 302.00 C 456.23 306.76 457.73 294.07 459.24 294.07 C 460.74 294.07 462.24 302.53 463.75 302.00 C 465.25 301.47 466.75 292.22 468.25 290.89 C 469.76 289.57 471.26 303.59 472.76 294.07 C 474.27 284.55 475.77 238.40 477.27 233.77 C 478.77 229.15 480.28 267.62 481.78 266.30 C 483.28 264.98 484.78 228.75 486.29 225.84 C 487.79 222.93 489.29 249.24 490.80 248.85 C 492.30 248.45 493.80 222.80 495.30 223.46 C 496.81 224.12 498.31 249.11 499.81 252.81 C 501.31 256.52 502.82 238.00 504.32 245.67 C 505.82 253.34 507.33 292.22 508.83 298.83 C 510.33 305.44 511.83 289.70 513.34 285.34 C 514.84 280.98 516.34 287.72 517.85 272.65 C 519.35 257.57 520.85 195.30 522.35 194.90 C 523.86 194.50 525.36 253.08 526.86 270.27 C 528.36 287.46 529.87 293.80 531.37 298.03 C 532.87 302.26 534.38 296.18 535.88 295.65 C 537.38 295.12 538.88 297.50 540.39 294.86 C 541.89 292.22 543.39 281.24 544.90 279.79 C 546.40 278.33 547.90 282.96 549.40 286.13 C 550.91 289.31 552.41 297.50 553.91 298.83 C 555.41 300.15 556.92 294.86 558.42 294.07 C 559.92 293.27 561.43 293.01 562.93 294.07 C 564.43 295.12 565.93 299.88 567.44 300.41 C 568.94 300.94 570.44 297.24 571.94 297.24 C 573.45 297.24 574.95 299.88 576.45 300.41 C 577.96 300.94 579.46 309.54 580.96 300.41 C 582.46 291.29 583.97 248.19 585.47 245.67 C 586.97 243.16 588.48 282.83 589.98 285.34 C 591.48 287.85 592.98 260.09 594.49 260.75 C 595.99 261.41 597.49 285.21 598.99 289.31 C 600.50 293.41 602.00 283.62 603.50 285.34 C 605.01 287.06 606.51 297.11 608.01 299.62 C 609.51 302.13 611.02 300.28 612.52 300.41 C 614.02 300.55 615.52 300.41 617.03 300.41 C 618.53 300.41 620.03 300.81 621.54 300.41 C 623.04 300.02 624.54 305.57 626.04 298.03 C 627.55 290.50 629.05 255.99 630.55 255.19 C 632.06 254.40 633.56 289.57 635.06 293.27 C 636.56 296.98 638.07 277.67 639.57 277.41 C 641.07 277.14 642.57 291.55 644.08 291.69 C 645.58 291.82 647.08 279.13 648.59 278.20 C 650.09 277.27 651.59 282.70 653.09 286.13 C 654.60 289.57 656.10 296.45 657.60 298.83 C 659.10 301.21 660.61 300.15 662.11 300.41 C 663.61 300.68 665.12 300.41 666.62 300.41 C 668.12 300.41 669.62 300.55 671.13 300.41 C 672.63 300.28 674.13 302.93 675.64 299.62 C 677.14 296.31 678.64 280.71 680.14 280.58 C 681.65 280.45 683.15 299.49 684.65 298.83 C 686.15 298.17 687.66 276.35 689.16 276.61 C 690.66 276.88 692.17 298.03 693.67 300.41 C 695.17 302.79 696.67 302.66 698.18 290.89 C 699.68 279.13 701.18 237.08 702.69 229.81 C 704.19 222.53 705.69 241.44 707.19 247.26 C 708.70 253.08 710.20 260.09 711.70 264.71 C 713.20 269.34 714.71 269.34 716.21 275.03 C 717.71 280.71 719.22 299.49 720.72 298.83 C 722.22 298.17 723.72 274.37 725.23 271.06 C 726.73 267.75 728.23 277.80 729.73 278.99 C 731.24 280.18 732.74 276.35 734.24 278.20 C 735.75 280.05 737.25 287.72 738.75 290.10 C 740.25 292.48 741.76 291.03 743.26 292.48 C 744.76 293.93 746.27 300.28 747.77 298.83 C 749.27 297.37 750.77 284.55 752.28 283.75 C 753.78 282.96 755.28 293.93 756.78 294.07 C 758.29 294.20 759.79 284.28 761.29 284.55 C 762.80 284.81 764.30 293.01 765.80 295.65 C 767.30 298.30 768.81 304.12 770.31 300.41 C 771.81 296.71 773.31 279.52 774.82 273.44 C 776.32 267.36 777.82 261.01 779.33 263.92 C 780.83 266.83 782.33 284.81 783.83 290.89 C 785.34 296.98 786.84 298.83 788.34 300.41 C 789.85 302.00 791.35 302.66 792.85 300.41 C 794.35 298.17 795.86 289.57 797.36 286.93 C 798.86 284.28 800.36 282.30 801.87 284.55 C 803.37 286.79 804.87 297.50 806.38 300.41 C 807.88 303.32 809.38 301.74 810.88 302.00 C 812.39 302.26 813.89 302.00 815.39 302.00 C 816.90 302.00 818.40 303.59 819.90 302.00 C 821.40 300.41 822.91 296.71 824.41 292.48 C 825.91 288.25 827.41 275.42 828.92 276.61 C 830.42 277.80 831.92 296.58 833.43 299.62 C 834.93 302.66 836.43 294.73 837.93 294.86 C 839.44 294.99 840.94 299.88 842.44 300.41 C 843.94 300.94 845.45 298.03 846.95 298.03 C 848.45 298.03 849.96 300.15 851.46 300.41 C 852.96 300.68 854.46 301.47 855.97 299.62 C 857.47 297.77 858.97 295.79 860.48 289.31 C 861.98 282.83 863.48 259.16 864.98 260.75 C 866.49 262.33 867.99 295.39 869.49 298.83 C 870.99 302.26 873.25 284.28 874.00 281.37" fill="none" stroke="#22C55E" stroke-opacity="0.20" stroke-width="7" stroke-linecap="round" stroke-linejoin="round"/>
<path d="M 58.00 284.55 C 58.75 285.74 61.01 288.78 62.51 291.69 C 64.01 294.60 65.51 303.59 67.02 302.00 C 68.52 300.41 70.02 283.22 71.52 282.17 C 73.03 281.11 74.53 292.35 76.03 295.65 C 77.54 298.96 79.04 301.34 80.54 302.00 C 82.04 302.66 83.55 303.98 85.05 299.62 C 86.55 295.26 88.06 303.45 89.56 275.82 C 91.06 248.19 92.56 133.95 94.07 133.81 C 95.57 133.68 97.07 249.51 98.57 275.03 C 100.08 300.55 101.58 282.43 103.08 286.93 C 104.59 291.42 106.09 301.87 107.59 302.00 C 109.09 302.13 110.60 287.98 112.10 287.72 C 113.60 287.46 115.10 300.28 116.61 300.41 C 118.11 300.55 119.61 289.44 121.12 288.51 C 122.62 287.59 124.12 295.65 125.62 294.86 C 127.13 294.07 128.63 285.74 130.13 283.75 C 131.64 281.77 133.14 284.41 134.64 282.96 C 136.14 281.51 137.65 272.91 139.15 275.03 C 140.65 277.14 142.15 291.16 143.66 295.65 C 145.16 300.15 146.66 303.85 148.17 302.00 C 149.67 300.15 151.17 287.59 152.67 284.55 C 154.18 281.51 155.68 282.03 157.18 283.75 C 158.69 285.47 160.19 294.60 161.69 294.86 C 163.19 295.12 164.70 285.60 166.20 285.34 C 167.70 285.08 169.20 292.35 170.71 293.27 C 172.21 294.20 173.71 291.16 175.22 290.89 C 176.72 290.63 178.22 290.50 179.72 291.69 C 181.23 292.88 182.73 296.31 184.23 298.03 C 185.73 299.75 187.24 302.26 188.74 302.00 C 190.24 301.74 191.75 296.45 193.25 296.45 C 194.75 296.45 196.25 301.07 197.76 302.00 C 199.26 302.93 200.76 302.00 202.27 302.00 C 203.77 302.00 205.27 302.00 206.77 302.00 C 208.28 302.00 209.78 303.19 211.28 302.00 C 212.78 300.81 214.29 294.86 215.79 294.86 C 217.29 294.86 218.80 300.81 220.30 302.00 C 221.80 303.19 223.30 303.45 224.81 302.00 C 226.31 300.55 227.81 293.93 229.31 293.27 C 230.82 292.61 232.32 296.58 233.82 298.03 C 235.33 299.49 236.83 301.34 238.33 302.00 C 239.83 302.66 241.34 302.40 242.84 302.00 C 244.34 301.60 245.85 299.88 247.35 299.62 C 248.85 299.36 250.35 300.81 251.86 300.41 C 253.36 300.02 254.86 300.81 256.36 297.24 C 257.87 293.67 259.37 279.26 260.87 278.99 C 262.38 278.73 263.88 291.82 265.38 295.65 C 266.88 299.49 268.39 302.40 269.89 302.00 C 271.39 301.60 272.90 297.11 274.40 293.27 C 275.90 289.44 277.40 279.39 278.91 278.99 C 280.41 278.60 281.91 287.19 283.41 290.89 C 284.92 294.60 286.42 303.72 287.92 301.21 C 289.43 298.69 290.93 280.98 292.43 275.82 C 293.93 270.66 295.44 269.74 296.94 270.27 C 298.44 270.80 299.94 274.63 301.45 278.99 C 302.95 283.36 304.45 292.61 305.96 296.45 C 307.46 300.28 308.96 301.47 310.46 302.00 C 311.97 302.53 313.47 299.62 314.97 299.62 C 316.48 299.62 317.98 301.60 319.48 302.00 C 320.98 302.40 322.49 302.00 323.99 302.00 C 325.49 302.00 326.99 304.64 328.50 302.00 C 330.00 299.36 331.50 288.65 333.01 286.13 C 334.51 283.62 336.01 285.21 337.51 286.93 C 339.02 288.65 340.52 294.46 342.02 296.45 C 343.52 298.43 345.03 298.30 346.53 298.83 C 348.03 299.36 349.54 299.09 351.04 299.62 C 352.54 300.15 354.04 302.40 355.55 302.00 C 357.05 301.60 358.55 297.64 360.06 297.24 C 361.56 296.84 363.06 301.21 364.56 299.62 C 366.07 298.03 367.57 288.12 369.07 287.72 C 370.57 287.32 372.08 295.92 373.58 297.24 C 375.08 298.56 376.59 296.58 378.09 295.65 C 379.59 294.73 381.09 299.75 382.60 291.69 C 384.10 283.62 385.60 251.49 387.10 247.26 C 388.61 243.03 390.11 294.46 391.61 266.30 C 393.12 238.14 394.62 100.49 396.12 78.28 C 397.62 56.07 399.13 108.29 400.63 133.02 C 402.13 157.75 403.64 207.06 405.14 226.63 C 406.64 246.20 408.14 249.11 409.65 250.43 C 411.15 251.76 412.65 230.47 414.15 234.57 C 415.66 238.67 417.16 263.79 418.66 275.03 C 420.17 286.27 421.67 298.30 423.17 302.00 C 424.67 305.70 426.18 297.77 427.68 297.24 C 429.18 296.71 430.69 301.87 432.19 298.83 C 433.69 295.79 435.19 278.99 436.70 278.99 C 438.20 278.99 439.70 300.28 441.20 298.83 C 442.71 297.37 444.21 275.82 445.71 270.27 C 447.22 264.71 448.72 260.22 450.22 265.51 C 451.72 270.80 453.23 297.24 454.73 302.00 C 456.23 306.76 457.73 294.07 459.24 294.07 C 460.74 294.07 462.24 302.53 463.75 302.00 C 465.25 301.47 466.75 292.22 468.25 290.89 C 469.76 289.57 471.26 303.59 472.76 294.07 C 474.27 284.55 475.77 238.40 477.27 233.77 C 478.77 229.15 480.28 267.62 481.78 266.30 C 483.28 264.98 484.78 228.75 486.29 225.84 C 487.79 222.93 489.29 249.24 490.80 248.85 C 492.30 248.45 493.80 222.80 495.30 223.46 C 496.81 224.12 498.31 249.11 499.81 252.81 C 501.31 256.52 502.82 238.00 504.32 245.67 C 505.82 253.34 507.33 292.22 508.83 298.83 C 510.33 305.44 511.83 289.70 513.34 285.34 C 514.84 280.98 516.34 287.72 517.85 272.65 C 519.35 257.57 520.85 195.30 522.35 194.90 C 523.86 194.50 525.36 253.08 526.86 270.27 C 528.36 287.46 529.87 293.80 531.37 298.03 C 532.87 302.26 534.38 296.18 535.88 295.65 C 537.38 295.12 538.88 297.50 540.39 294.86 C 541.89 292.22 543.39 281.24 544.90 279.79 C 546.40 278.33 547.90 282.96 549.40 286.13 C 550.91 289.31 552.41 297.50 553.91 298.83 C 555.41 300.15 556.92 294.86 558.42 294.07 C 559.92 293.27 561.43 293.01 562.93 294.07 C 564.43 295.12 565.93 299.88 567.44 300.41 C 568.94 300.94 570.44 297.24 571.94 297.24 C 573.45 297.24 574.95 299.88 576.45 300.41 C 577.96 300.94 579.46 309.54 580.96 300.41 C 582.46 291.29 583.97 248.19 585.47 245.67 C 586.97 243.16 588.48 282.83 589.98 285.34 C 591.48 287.85 592.98 260.09 594.49 260.75 C 595.99 261.41 597.49 285.21 598.99 289.31 C 600.50 293.41 602.00 283.62 603.50 285.34 C 605.01 287.06 606.51 297.11 608.01 299.62 C 609.51 302.13 611.02 300.28 612.52 300.41 C 614.02 300.55 615.52 300.41 617.03 300.41 C 618.53 300.41 620.03 300.81 621.54 300.41 C 623.04 300.02 624.54 305.57 626.04 298.03 C 627.55 290.50 629.05 255.99 630.55 255.19 C 632.06 254.40 633.56 289.57 635.06 293.27 C 636.56 296.98 638.07 277.67 639.57 277.41 C 641.07 277.14 642.57 291.55 644.08 291.69 C 645.58 291.82 647.08 279.13 648.59 278.20 C 650.09 277.27 651.59 282.70 653.09 286.13 C 654.60 289.57 656.10 296.45 657.60 298.83 C 659.10 301.21 660.61 300.15 662.11 300.41 C 663.61 300.68 665.12 300.41 666.62 300.41 C 668.12 300.41 669.62 300.55 671.13 300.41 C 672.63 300.28 674.13 302.93 675.64 299.62 C 677.14 296.31 678.64 280.71 680.14 280.58 C 681.65 280.45 683.15 299.49 684.65 298.83 C 686.15 298.17 687.66 276.35 689.16 276.61 C 690.66 276.88 692.17 298.03 693.67 300.41 C 695.17 302.79 696.67 302.66 698.18 290.89 C 699.68 279.13 701.18 237.08 702.69 229.81 C 704.19 222.53 705.69 241.44 707.19 247.26 C 708.70 253.08 710.20 260.09 711.70 264.71 C 713.20 269.34 714.71 269.34 716.21 275.03 C 717.71 280.71 719.22 299.49 720.72 298.83 C 722.22 298.17 723.72 274.37 725.23 271.06 C 726.73 267.75 728.23 277.80 729.73 278.99 C 731.24 280.18 732.74 276.35 734.24 278.20 C 735.75 280.05 737.25 287.72 738.75 290.10 C 740.25 292.48 741.76 291.03 743.26 292.48 C 744.76 293.93 746.27 300.28 747.77 298.83 C 749.27 297.37 750.77 284.55 752.28 283.75 C 753.78 282.96 755.28 293.93 756.78 294.07 C 758.29 294.20 759.79 284.28 761.29 284.55 C 762.80 284.81 764.30 293.01 765.80 295.65 C 767.30 298.30 768.81 304.12 770.31 300.41 C 771.81 296.71 773.31 279.52 774.82 273.44 C 776.32 267.36 777.82 261.01 779.33 263.92 C 780.83 266.83 782.33 284.81 783.83 290.89 C 785.34 296.98 786.84 298.83 788.34 300.41 C 789.85 302.00 791.35 302.66 792.85 300.41 C 794.35 298.17 795.86 289.57 797.36 286.93 C 798.86 284.28 800.36 282.30 801.87 284.55 C 803.37 286.79 804.87 297.50 806.38 300.41 C 807.88 303.32 809.38 301.74 810.88 302.00 C 812.39 302.26 813.89 302.00 815.39 302.00 C 816.90 302.00 818.40 303.59 819.90 302.00 C 821.40 300.41 822.91 296.71 824.41 292.48 C 825.91 288.25 827.41 275.42 828.92 276.61 C 830.42 277.80 831.92 296.58 833.43 299.62 C 834.93 302.66 836.43 294.73 837.93 294.86 C 839.44 294.99 840.94 299.88 842.44 300.41 C 843.94 300.94 845.45 298.03 846.95 298.03 C 848.45 298.03 849.96 300.15 851.46 300.41 C 852.96 300.68 854.46 301.47 855.97 299.62 C 857.47 297.77 858.97 295.79 860.48 289.31 C 861.98 282.83 863.48 259.16 864.98 260.75 C 866.49 262.33 867.99 295.39 869.49 298.83 C 870.99 302.26 873.25 284.28 874.00 281.37" fill="none" stroke="#22C55E" stroke-width="2.4" stroke-linecap="round" stroke-linejoin="round"/>
<circle cx="396.1" cy="78.3" r="4.5" fill="#4ADE80" stroke="#0B1120" stroke-width="2"/>
<text x="396.1" y="68.3" text-anchor="middle" font-family="ui-monospace,Menlo,monospace" font-size="10" font-weight="700" fill="#4ADE80">282</text>
<circle cx="874.0" cy="281.4" r="3.5" fill="#F8FAFC"/>
<text x="16" y="183" text-anchor="middle" font-family="ui-monospace,Menlo,monospace" font-size="10" fill="#94A3B8" transform="rotate(-90 16 183)">Contributions</text>
</svg>