<svg xmlns="http://www.w3.org/2000/svg" width="900" height="340" viewBox="0 0 900 340" role="img" aria-label="Contribution activity, last 6 months">
<defs>
<linearGradient id="bg" x1="0" y1="0" x2="0" y2="1"><stop offset="0" stop-color="#0F172A"/><stop offset="1" stop-color="#0B1120"/></linearGradient>
<linearGradient id="area" x1="0" y1="0" x2="0" y2="1"><stop offset="0" stop-color="#22C55E" stop-opacity="0.42"/><stop offset="0.7" stop-color="#22C55E" stop-opacity="0.08"/><stop offset="1" stop-color="#22C55E" stop-opacity="0"/></linearGradient>
</defs>
<rect x="0" y="0" width="900" height="340" rx="14" fill="url(#bg)"/>
<text x="450" y="32" text-anchor="middle" font-family="ui-monospace,Menlo,monospace" font-size="17" font-weight="700" fill="#F8FAFC" letter-spacing="0.5">last 6 months</text>
<text x="450" y="50" text-anchor="middle" font-family="ui-monospace,Menlo,monospace" font-size="11" fill="#94A3B8">4,091 contributions · peak 282</text>
<line x1="58" y1="302.0" x2="874" y2="302.0" stroke="#1E293B" stroke-width="1" stroke-dasharray="2 4"/>
<text x="48" y="305.5" text-anchor="end" font-family="ui-monospace,Menlo,monospace" font-size="10" fill="#94A3B8">0</text>
<line x1="58" y1="242.5" x2="874" y2="242.5" stroke="#1E293B" stroke-width="1" stroke-dasharray="2 4"/>
<text x="48" y="246.0" text-anchor="end" font-family="ui-monospace,Menlo,monospace" font-size="10" fill="#94A3B8">75</text>
<line x1="58" y1="183.0" x2="874" y2="183.0" stroke="#1E293B" stroke-width="1" stroke-dasharray="2 4"/>
<text x="48" y="186.5" text-anchor="end" font-family="ui-monospace,Menlo,monospace" font-size="10" fill="#94A3B8">150</text>
<line x1="58" y1="123.5" x2="874" y2="123.5" stroke="#1E293B" stroke-width="1" stroke-dasharray="2 4"/>
<text x="48" y="127.0" text-anchor="end" font-family="ui-monospace,Menlo,monospace" font-size="10" fill="#94A3B8">225</text>
<line x1="58" y1="64.0" x2="874" y2="64.0" stroke="#1E293B" stroke-width="1" stroke-dasharray="2 4"/>
<text x="48" y="67.5" text-anchor="end" font-family="ui-monospace,Menlo,monospace" font-size="10" fill="#94A3B8">300</text>
<line x1="98.6" y1="64" x2="98.6" y2="302" stroke="#1E293B" stroke-width="1" stroke-opacity="0.6"/>
<text x="98.6" y="322" text-anchor="middle" font-family="ui-monospace,Menlo,monospace" font-size="10" fill="#94A3B8">Feb</text>
<line x1="224.8" y1="64" x2="224.8" y2="302" stroke="#1E293B" stroke-width="1" stroke-opacity="0.6"/>
<text x="224.8" y="322" text-anchor="middle" font-family="ui-monospace,Menlo,monospace" font-size="10" fill="#94A3B8">Mar</text>
<line x1="364.6" y1="64" x2="364.6" y2="302" stroke="#1E293B" stroke-width="1" stroke-opacity="0.6"/>
<text x="364.6" y="322" text-anchor="middle" font-family="ui-monospace,Menlo,monospace" font-size="10" fill="#94A3B8">Apr</text>
<line x1="499.8" y1="64" x2="499.8" y2="302" stroke="#1E293B" stroke-width="1" stroke-opacity="0.6"/>
<text x="499.8" y="322" text-anchor="middle" font-family="ui-monospace,Menlo,monospace" font-size="10" fill="#94A3B8">May</text>
<line x1="639.6" y1="64" x2="639.6" y2="302" stroke="#1E293B" stroke-width="1" stroke-opacity="0.6"/>
<text x="639.6" y="322" text-anchor="middle" font-family="ui-monospace,Menlo,monospace" font-size="10" fill="#94A3B8">Jun</text>
<line x1="774.8" y1="64" x2="774.8" y2="302" stroke="#1E293B" stroke-width="1" stroke-opacity="0.6"/>
<text x="774.8" y="322" text-anchor="middle" font-family="ui-monospace,Menlo,monospace" font-size="10" fill="#94A3B8">Jul</text>
<path d="M 58.00 301.21 C 58.75 301.34 61.01 301.87 62.51 302.00 C 64.01 302.13 65.51 302.00 67.02 302.00 C 68.52 302.00 70.02 305.44 71.52 302.00 C 73.03 298.56 74.53 282.43 76.03 281.37 C 77.54 280.32 79.04 296.98 80.54 295.65 C 82.04 294.33 83.55 273.57 85.05 273.44 C 86.55 273.31 88.06 293.41 89.56 294.86 C 91.06 296.31 92.56 282.17 94.07 282.17 C 95.57 282.17 97.07 296.18 98.57 294.86 C 100.08 293.54 101.58 275.95 103.08 274.23 C 104.59 272.51 106.09 281.64 107.59 284.55 C 109.09 287.46 110.60 288.78 112.10 291.69 C 113.60 294.60 115.10 303.59 116.61 302.00 C 118.11 300.41 119.61 283.22 121.12 282.17 C 122.62 281.11 124.12 292.35 125.62 295.65 C 127.13 298.96 128.63 301.34 130.13 302.00 C 131.64 302.66 133.14 303.98 134.64 299.62 C 136.14 295.26 137.65 303.45 139.15 275.82 C 140.65 248.19 142.15 133.95 143.66 133.81 C 145.16 133.68 146.66 249.51 148.17 275.03 C 149.67 300.55 151.17 282.43 152.67 286.93 C 154.18 291.42 155.68 301.87 157.18 302.00 C 158.69 302.13 160.19 287.98 161.69 287.72 C 163.19 287.46 164.70 300.28 166.20 300.41 C 167.70 300.55 169.20 289.44 170.71 288.51 C 172.21 287.59 173.71 295.65 175.22 294.86 C 176.72 294.07 178.22 285.74 179.72 283.75 C 181.23 281.77 182.73 284.41 184.23 282.96 C 185.73 281.51 187.24 272.91 188.74 275.03 C 190.24 277.14 191.75 291.16 193.25 295.65 C 194.75 300.15 196.25 303.85 197.76 302.00 C 199.26 300.15 200.76 287.59 202.27 284.55 C 203.77 281.51 205.27 282.03 206.77 283.75 C 208.28 285.47 209.78 294.60 211.28 294.86 C 212.78 295.12 214.29 285.60 215.79 285.34 C 217.29 285.08 218.80 292.35 220.30 293.27 C 221.80 294.20 223.30 291.16 224.81 290.89 C 226.31 290.63 227.81 290.50 229.31 291.69 C 230.82 292.88 232.32 296.31 233.82 298.03 C 235.33 299.75 236.83 302.26 238.33 302.00 C 239.83 301.74 241.34 296.45 242.84 296.45 C 244.34 296.45 245.85 301.07 247.35 302.00 C 248.85 302.93 250.35 302.00 251.86 302.00 C 253.36 302.00 254.86 302.00 256.36 302.00 C 257.87 302.00 259.37 303.19 260.87 302.00 C 262.38 300.81 263.88 294.86 265.38 294.86 C 266.88 294.86 268.39 300.81 269.89 302.00 C 271.39 303.19 272.90 303.45 274.40 302.00 C 275.90 300.55 277.40 293.93 278.91 293.27 C 280.41 292.61 281.91 296.58 283.41 298.03 C 284.92 299.49 286.42 301.34 287.92 302.00 C 289.43 302.66 290.93 302.40 292.43 302.00 C 293.93 301.60 295.44 299.88 296.94 299.62 C 298.44 299.36 299.94 300.81 301.45 300.41 C 302.95 300.02 304.45 300.81 305.96 297.24 C 307.46 293.67 308.96 279.26 310.46 278.99 C 311.97 278.73 313.47 291.82 314.97 295.65 C 316.48 299.49 317.98 302.40 319.48 302.00 C 320.98 301.60 322.49 297.11 323.99 293.27 C 325.49 289.44 326.99 279.39 328.50 278.99 C 330.00 278.60 331.50 287.19 333.01 290.89 C 334.51 294.60 336.01 303.72 337.51 301.21 C 339.02 298.69 340.52 280.98 342.02 275.82 C 343.52 270.66 345.03 269.74 346.53 270.27 C 348.03 270.80 349.54 274.63 351.04 278.99 C 352.54 283.36 354.04 292.61 355.55 296.45 C 357.05 300.28 358.55 301.47 360.06 302.00 C 361.56 302.53 363.06 299.62 364.56 299.62 C 366.07 299.62 367.57 301.60 369.07 302.00 C 370.57 302.40 372.08 302.00 373.58 302.00 C 375.08 302.00 376.59 304.64 378.09 302.00 C 379.59 299.36 381.09 288.65 382.60 286.13 C 384.10 283.62 385.60 285.21 387.10 286.93 C 388.61 288.65 390.11 294.46 391.61 296.45 C 393.12 298.43 394.62 298.30 396.12 298.83 C 397.62 299.36 399.13 299.09 400.63 299.62 C 402.13 300.15 403.64 302.40 405.14 302.00 C 406.64 301.60 408.14 297.64 409.65 297.24 C 411.15 296.84 412.65 301.21 414.15 299.62 C 415.66 298.03 417.16 288.12 418.66 287.72 C 420.17 287.32 421.67 295.92 423.17 297.24 C 424.67 298.56 426.18 296.58 427.68 295.65 C 429.18 294.73 430.69 299.75 432.19 291.69 C 433.69 283.62 435.19 251.49 436.70 247.26 C 438.20 243.03 439.70 294.46 441.20 266.30 C 442.71 238.14 444.21 100.49 445.71 78.28 C 447.22 56.07 448.72 108.29 450.22 133.02 C 451.72 157.75 453.23 207.06 454.73 226.63 C 456.23 246.20 457.73 249.11 459.24 250.43 C 460.74 251.76 462.24 230.47 463.75 234.57 C 465.25 238.67 466.75 263.79 468.25 275.03 C 469.76 286.27 471.26 298.30 472.76 302.00 C 474.27 305.70 475.77 297.77 477.27 297.24 C 478.77 296.71 480.28 301.87 481.78 298.83 C 483.28 295.79 484.78 278.99 486.29 278.99 C 487.79 278.99 489.29 300.28 490.80 298.83 C 492.30 297.37 493.80 275.82 495.30 270.27 C 496.81 264.71 498.31 260.22 499.81 265.51 C 501.31 270.80 502.82 297.24 504.32 302.00 C 505.82 306.76 507.33 294.07 508.83 294.07 C 510.33 294.07 511.83 302.53 513.34 302.00 C 514.84 301.47 516.34 292.22 517.85 290.89 C 519.35 289.57 520.85 303.59 522.35 294.07 C 523.86 284.55 525.36 238.40 526.86 233.77 C 528.36 229.15 529.87 267.62 531.37 266.30 C 532.87 264.98 534.38 228.75 535.88 225.84 C 537.38 222.93 538.88 249.24 540.39 248.85 C 541.89 248.45 543.39 222.80 544.90 223.46 C 546.40 224.12 547.90 249.11 549.40 252.81 C 550.91 256.52 552.41 238.00 553.91 245.67 C 555.41 253.34 556.92 292.22 558.42 298.83 C 559.92 305.44 561.43 289.70 562.93 285.34 C 564.43 280.98 565.93 287.72 567.44 272.65 C 568.94 257.57 570.44 195.30 571.94 194.90 C 573.45 194.50 574.95 253.08 576.45 270.27 C 577.96 287.46 579.46 293.80 580.96 298.03 C 582.46 302.26 583.97 296.18 585.47 295.65 C 586.97 295.12 588.48 297.50 589.98 294.86 C 591.48 292.22 592.98 281.24 594.49 279.79 C 595.99 278.33 597.49 282.96 598.99 286.13 C 600.50 289.31 602.00 297.50 603.50 298.83 C 605.01 300.15 606.51 294.86 608.01 294.07 C 609.51 293.27 611.02 293.01 612.52 294.07 C 614.02 295.12 615.52 299.88 617.03 300.41 C 618.53 300.94 620.03 297.24 621.54 297.24 C 623.04 297.24 624.54 299.88 626.04 300.41 C 627.55 300.94 629.05 309.54 630.55 300.41 C 632.06 291.29 633.56 248.19 635.06 245.67 C 636.56 243.16 638.07 282.83 639.57 285.34 C 641.07 287.85 642.57 260.09 644.08 260.75 C 645.58 261.41 647.08 285.21 648.59 289.31 C 650.09 293.41 651.59 283.62 653.09 285.34 C 654.60 287.06 656.10 297.11 657.60 299.62 C 659.10 302.13 660.61 300.28 662.11 300.41 C 663.61 300.55 665.12 300.41 666.62 300.41 C 668.12 300.41 669.62 300.81 671.13 300.41 C 672.63 300.02 674.13 305.57 675.64 298.03 C 677.14 290.50 678.64 255.99 680.14 255.19 C 681.65 254.40 683.15 289.57 684.65 293.27 C 686.15 296.98 687.66 277.67 689.16 277.41 C 690.66 277.14 692.17 291.55 693.67 291.69 C 695.17 291.82 696.67 279.13 698.18 278.20 C 699.68 277.27 701.18 282.70 702.69 286.13 C 704.19 289.57 705.69 296.45 707.19 298.83 C 708.70 301.21 710.20 300.15 711.70 300.41 C 713.20 300.68 714.71 300.41 716.21 300.41 C 717.71 300.41 719.22 300.55 720.72 300.41 C 722.22 300.28 723.72 302.93 725.23 299.62 C 726.73 296.31 728.23 280.71 729.73 280.58 C 731.24 280.45 732.74 299.49 734.24 298.83 C 735.75 298.17 737.25 276.35 738.75 276.61 C 740.25 276.88 741.76 298.03 743.26 300.41 C 744.76 302.79 746.27 302.66 747.77 290.89 C 749.27 279.13 750.77 237.08 752.28 229.81 C 753.78 222.53 755.28 241.44 756.78 247.26 C 758.29 253.08 759.79 260.09 761.29 264.71 C 762.80 269.34 764.30 269.34 765.80 275.03 C 767.30 280.71 768.81 299.49 770.31 298.83 C 771.81 298.17 773.31 274.37 774.82 271.06 C 776.32 267.75 777.82 277.80 779.33 278.99 C 780.83 280.18 782.33 276.35 783.83 278.20 C 785.34 280.05 786.84 287.72 788.34 290.10 C 789.85 292.48 791.35 291.03 792.85 292.48 C 794.35 293.93 795.86 300.28 797.36 298.83 C 798.86 297.37 800.36 284.55 801.87 283.75 C 803.37 282.96 804.87 293.93 806.38 294.07 C 807.88 294.20 809.38 284.28 810.88 284.55 C 812.39 284.81 813.89 293.01 815.39 295.65 C 816.90 298.30 818.40 304.12 819.90 300.41 C 821.40 296.71 822.91 279.52 824.41 273.44 C 825.91 267.36 827.41 261.01 828.92 263.92 C 830.42 266.83 831.92 284.81 833.43 290.89 C 834.93 296.98 836.43 298.83 837.93 300.41 C 839.44 302.00 840.94 302.66 842.44 300.41 C 843.94 298.17 845.45 289.57 846.95 286.93 C 848.45 284.28 849.96 282.30 851.46 284.55 C 852.96 286.79 854.46 297.50 855.97 300.41 C 857.47 303.32 858.97 301.74 860.48 302.00 C 861.98 302.26 863.48 302.00 864.98 302.00 C 866.49 302.00 867.99 303.45 869.49 302.00 C 870.99 300.55 873.25 294.73 874.00 293.27 L 874.00 302.00 L 58.00 302.00 Z" fill="url(#area)"/>
<path d="M 58.00 301.21 C 58.75 301.34 61.01 301.87 62.51 302.00 C 64.01 302.13 65.51 302.00 67.02 302.00 C 68.52 302.00 70.02 305.44 71.52 302.00 C 73.03 298.56 74.53 282.43 76.03 281.37 C 77.54 280.32 79.04 296.98 80.54 295.65 C 82.04 294.33 83.55 273.57 85.05 273.44 C 86.55 273.31 88.06 293.41 89.56 294.86 C 91.06 296.31 92.56 282.17 94.07 282.17 C 95.57 282.17 97.07 296.18 98.57 294.86 C 100.08 293.54 101.58 275.95 103.08 274.23 C 104.59 272.51 106.09 281.64 107.59 284.55 C 109.09 287.46 110.60 288.78 112.10 291.69 C 113.60 294.60 115.10 303.59 116.61 302.00 C 118.11 300.41 119.61 283.22 121.12 282.17 C 122.62 281.11 124.12 292.35 125.62 295.65 C 127.13 298.96 128.63 301.34 130.13 302.00 C 131.64 302.66 133.14 303.98 134.64 299.62 C 136.14 295.26 137.65 303.45 139.15 275.82 C 140.65 248.19 142.15 133.95 143.66 133.81 C 145.16 133.68 146.66 249.51 148.17 275.03 C 149.67 300.55 151.17 282.43 152.67 286.93 C 154.18 291.42 155.68 301.87 157.18 302.00 C 158.69 302.13 160.19 287.98 161.69 287.72 C 163.19 287.46 164.70 300.28 166.20 300.41 C 167.70 300.55 169.20 289.44 170.71 288.51 C 172.21 287.59 173.71 295.65 175.22 294.86 C 176.72 294.07 178.22 285.74 179.72 283.75 C 181.23 281.77 182.73 284.41 184.23 282.96 C 185.73 281.51 187.24 272.91 188.74 275.03 C 190.24 277.14 191.75 291.16 193.25 295.65 C 194.75 300.15 196.25 303.85 197.76 302.00 C 199.26 300.15 200.76 287.59 202.27 284.55 C 203.77 281.51 205.27 282.03 206.77 283.75 C 208.28 285.47 209.78 294.60 211.28 294.86 C 212.78 295.12 214.29 285.60 215.79 285.34 C 217.29 285.08 218.80 292.35 220.30 293.27 C 221.80 294.20 223.30 291.16 224.81 290.89 C 226.31 290.63 227.81 290.50 229.31 291.69 C 230.82 292.88 232.32 296.31 233.82 298.03 C 235.33 299.75 236.83 302.26 238.33 302.00 C 239.83 301.74 241.34 296.45 242.84 296.45 C 244.34 296.45 245.85 301.07 247.35 302.00 C 248.85 302.93 250.35 302.00 251.86 302.00 C 253.36 302.00 254.86 302.00 256.36 302.00 C 257.87 302.00 259.37 303.19 260.87 302.00 C 262.38 300.81 263.88 294.86 265.38 294.86 C 266.88 294.86 268.39 300.81 269.89 302.00 C 271.39 303.19 272.90 303.45 274.40 302.00 C 275.90 300.55 277.40 293.93 278.91 293.27 C 280.41 292.61 281.91 296.58 283.41 298.03 C 284.92 299.49 286.42 301.34 287.92 302.00 C 289.43 302.66 290.93 302.40 292.43 302.00 C 293.93 301.60 295.44 299.88 296.94 299.62 C 298.44 299.36 299.94 300.81 301.45 300.41 C 302.95 300.02 304.45 300.81 305.96 297.24 C 307.46 293.67 308.96 279.26 310.46 278.99 C 311.97 278.73 313.47 291.82 314.97 295.65 C 316.48 299.49 317.98 302.40 319.48 302.00 C 320.98 301.60 322.49 297.11 323.99 293.27 C 325.49 289.44 326.99 279.39 328.50 278.99 C 330.00 278.60 331.50 287.19 333.01 290.89 C 334.51 294.60 336.01 303.72 337.51 301.21 C 339.02 298.69 340.52 280.98 342.02 275.82 C 343.52 270.66 345.03 269.74 346.53 270.27 C 348.03 270.80 349.54 274.63 351.04 278.99 C 352.54 283.36 354.04 292.61 355.55 296.45 C 357.05 300.28 358.55 301.47 360.06 302.00 C 361.56 302.53 363.06 299.62 364.56 299.62 C 366.07 299.62 367.57 301.60 369.07 302.00 C 370.57 302.40 372.08 302.00 373.58 302.00 C 375.08 302.00 376.59 304.64 378.09 302.00 C 379.59 299.36 381.09 288.65 382.60 286.13 C 384.10 283.62 385.60 285.21 387.10 286.93 C 388.61 288.65 390.11 294.46 391.61 296.45 C 393.12 298.43 394.62 298.30 396.12 298.83 C 397.62 299.36 399.13 299.09 400.63 299.62 C 402.13 300.15 403.64 302.40 405.14 302.00 C 406.64 301.60 408.14 297.64 409.65 297.24 C 411.15 296.84 412.65 301.21 414.15 299.62 C 415.66 298.03 417.16 288.12 418.66 287.72 C 420.17 287.32 421.67 295.92 423.17 297.24 C 424.67 298.56 426.18 296.58 427.68 295.65 C 429.18 294.73 430.69 299.75 432.19 291.69 C 433.69 283.62 435.19 251.49 436.70 247.26 C 438.20 243.03 439.70 294.46 441.20 266.30 C 442.71 238.14 444.21 100.49 445.71 78.28 C 447.22 56.07 448.72 108.29 450.22 133.02 C 451.72 157.75 453.23 207.06 454.73 226.63 C 456.23 246.20 457.73 249.11 459.24 250.43 C 460.74 251.76 462.24 230.47 463.75 234.57 C 465.25 238.67 466.75 263.79 468.25 275.03 C 469.76 286.27 471.26 298.30 472.76 302.00 C 474.27 305.70 475.77 297.77 477.27 297.24 C 478.77 296.71 480.28 301.87 481.78 298.83 C 483.28 295.79 484.78 278.99 486.29 278.99 C 487.79 278.99 489.29 300.28 490.80 298.83 C 492.30 297.37 493.80 275.82 495.30 270.27 C 496.81 264.71 498.31 260.22 499.81 265.51 C 501.31 270.80 502.82 297.24 504.32 302.00 C 505.82 306.76 507.33 294.07 508.83 294.07 C 510.33 294.07 511.83 302.53 513.34 302.00 C 514.84 301.47 516.34 292.22 517.85 290.89 C 519.35 289.57 520.85 303.59 522.35 294.07 C 523.86 284.55 525.36 238.40 526.86 233.77 C 528.36 229.15 529.87 267.62 531.37 266.30 C 532.87 264.98 534.38 228.75 535.88 225.84 C 537.38 222.93 538.88 249.24 540.39 248.85 C 541.89 248.45 543.39 222.80 544.90 223.46 C 546.40 224.12 547.90 249.11 549.40 252.81 C 550.91 256.52 552.41 238.00 553.91 245.67 C 555.41 253.34 556.92 292.22 558.42 298.83 C 559.92 305.44 561.43 289.70 562.93 285.34 C 564.43 280.98 565.93 287.72 567.44 272.65 C 568.94 257.57 570.44 195.30 571.94 194.90 C 573.45 194.50 574.95 253.08 576.45 270.27 C 577.96 287.46 579.46 293.80 580.96 298.03 C 582.46 302.26 583.97 296.18 585.47 295.65 C 586.97 295.12 588.48 297.50 589.98 294.86 C 591.48 292.22 592.98 281.24 594.49 279.79 C 595.99 278.33 597.49 282.96 598.99 286.13 C 600.50 289.31 602.00 297.50 603.50 298.83 C 605.01 300.15 606.51 294.86 608.01 294.07 C 609.51 293.27 611.02 293.01 612.52 294.07 C 614.02 295.12 615.52 299.88 617.03 300.41 C 618.53 300.94 620.03 297.24 621.54 297.24 C 623.04 297.24 624.54 299.88 626.04 300.41 C 627.55 300.94 629.05 309.54 630.55 300.41 C 632.06 291.29 633.56 248.19 635.06 245.67 C 636.56 243.16 638.07 282.83 639.57 285.34 C 641.07 287.85 642.57 260.09 644.08 260.75 C 645.58 261.41 647.08 285.21 648.59 289.31 C 650.09 293.41 651.59 283.62 653.09 285.34 C 654.60 287.06 656.10 297.11 657.60 299.62 C 659.10 302.13 660.61 300.28 662.11 300.41 C 663.61 300.55 665.12 300.41 666.62 300.41 C 668.12 300.41 669.62 300.81 671.13 300.41 C 672.63 300.02 674.13 305.57 675.64 298.03 C 677.14 290.50 678.64 255.99 680.14 255.19 C 681.65 254.40 683.15 289.57 684.65 293.27 C 686.15 296.98 687.66 277.67 689.16 277.41 C 690.66 277.14 692.17 291.55 693.67 291.69 C 695.17 291.82 696.67 279.13 698.18 278.20 C 699.68 277.27 701.18 282.70 702.69 286.13 C 704.19 289.57 705.69 296.45 707.19 298.83 C 708.70 301.21 710.20 300.15 711.70 300.41 C 713.20 300.68 714.71 300.41 716.21 300.41 C 717.71 300.41 719.22 300.55 720.72 300.41 C 722.22 300.28 723.72 302.93 725.23 299.62 C 726.73 296.31 728.23 280.71 729.73 280.58 C 731.24 280.45 732.74 299.49 734.24 298.83 C 735.75 298.17 737.25 276.35 738.75 276.61 C 740.25 276.88 741.76 298.03 743.26 300.41 C 744.76 302.79 746.27 302.66 747.77 290.89 C 749.27 279.13 750.77 237.08 752.28 229.81 C 753.78 222.53 755.28 241.44 756.78 247.26 C 758.29 253.08 759.79 260.09 761.29 264.71 C 762.80 269.34 764.30 269.34 765.80 275.03 C 767.30 280.71 768.81 299.49 770.31 298.83 C 771.81 298.17 773.31 274.37 774.82 271.06 C 776.32 267.75 777.82 277.80 779.33 278.99 C 780.83 280.18 782.33 276.35 783.83 278.20 C 785.34 280.05 786.84 287.72 788.34 290.10 C 789.85 292.48 791.35 291.03 792.85 292.48 C 794.35 293.93 795.86 300.28 797.36 298.83 C 798.86 297.37 800.36 284.55 801.87 283.75 C 803.37 282.96 804.87 293.93 806.38 294.07 C 807.88 294.20 809.38 284.28 810.88 284.55 C 812.39 284.81 813.89 293.01 815.39 295.65 C 816.90 298.30 818.40 304.12 819.90 300.41 C 821.40 296.71 822.91 279.52 824.41 273.44 C 825.91 267.36 827.41 261.01 828.92 263.92 C 830.42 266.83 831.92 284.81 833.43 290.89 C 834.93 296.98 836.43 298.83 837.93 300.41 C 839.44 302.00 840.94 302.66 842.44 300.41 C 843.94 298.17 845.45 289.57 846.95 286.93 C 848.45 284.28 849.96 282.30 851.46 284.55 C 852.96 286.79 854.46 297.50 855.97 300.41 C 857.47 303.32 858.97 301.74 860.48 302.00 C 861.98 302.26 863.48 302.00 864.98 302.00 C 866.49 302.00 867.99 303.45 869.49 302.00 C 870.99 300.55 873.25 294.73 874.00 293.27" fill="none" stroke="#22C55E" stroke-opacity="0.20" stroke-width="7" stroke-linecap="round" stroke-linejoin="round"/>
<path d="M 58.00 301.21 C 58.75 301.34 61.01 301.87 62.51 302.00 C 64.01 302.13 65.51 302.00 67.02 302.00 C 68.52 302.00 70.02 305.44 71.52 302.00 C 73.03 298.56 74.53 282.43 76.03 281.37 C 77.54 280.32 79.04 296.98 80.54 295.65 C 82.04 294.33 83.55 273.57 85.05 273.44 C 86.55 273.31 88.06 293.41 89.56 294.86 C 91.06 296.31 92.56 282.17 94.07 282.17 C 95.57 282.17 97.07 296.18 98.57 294.86 C 100.08 293.54 101.58 275.95 103.08 274.23 C 104.59 272.51 106.09 281.64 107.59 284.55 C 109.09 287.46 110.60 288.78 112.10 291.69 C 113.60 294.60 115.10 303.59 116.61 302.00 C 118.11 300.41 119.61 283.22 121.12 282.17 C 122.62 281.11 124.12 292.35 125.62 295.65 C 127.13 298.96 128.63 301.34 130.13 302.00 C 131.64 302.66 133.14 303.98 134.64 299.62 C 136.14 295.26 137.65 303.45 139.15 275.82 C 140.65 248.19 142.15 133.95 143.66 133.81 C 145.16 133.68 146.66 249.51 148.17 275.03 C 149.67 300.55 151.17 282.43 152.67 286.93 C 154.18 291.42 155.68 301.87 157.18 302.00 C 158.69 302.13 160.19 287.98 161.69 287.72 C 163.19 287.46 164.70 300.28 166.20 300.41 C 167.70 300.55 169.20 289.44 170.71 288.51 C 172.21 287.59 173.71 295.65 175.22 294.86 C 176.72 294.07 178.22 285.74 179.72 283.75 C 181.23 281.77 182.73 284.41 184.23 282.96 C 185.73 281.51 187.24 272.91 188.74 275.03 C 190.24 277.14 191.75 291.16 193.25 295.65 C 194.75 300.15 196.25 303.85 197.76 302.00 C 199.26 300.15 200.76 287.59 202.27 284.55 C 203.77 281.51 205.27 282.03 206.77 283.75 C 208.28 285.47 209.78 294.60 211.28 294.86 C 212.78 295.12 214.29 285.60 215.79 285.34 C 217.29 285.08 218.80 292.35 220.30 293.27 C 221.80 294.20 223.30 291.16 224.81 290.89 C 226.31 290.63 227.81 290.50 229.31 291.69 C 230.82 292.88 232.32 296.31 233.82 298.03 C 235.33 299.75 236.83 302.26 238.33 302.00 C 239.83 301.74 241.34 296.45 242.84 296.45 C 244.34 296.45 245.85 301.07 247.35 302.00 C 248.85 302.93 250.35 302.00 251.86 302.00 C 253.36 302.00 254.86 302.00 256.36 302.00 C 257.87 302.00 259.37 303.19 260.87 302.00 C 262.38 300.81 263.88 294.86 265.38 294.86 C 266.88 294.86 268.39 300.81 269.89 302.00 C 271.39 303.19 272.90 303.45 274.40 302.00 C 275.90 300.55 277.40 293.93 278.91 293.27 C 280.41 292.61 281.91 296.58 283.41 298.03 C 284.92 299.49 286.42 301.34 287.92 302.00 C 289.43 302.66 290.93 302.40 292.43 302.00 C 293.93 301.60 295.44 299.88 296.94 299.62 C 298.44 299.36 299.94 300.81 301.45 300.41 C 302.95 300.02 304.45 300.81 305.96 297.24 C 307.46 293.67 308.96 279.26 310.46 278.99 C 311.97 278.73 313.47 291.82 314.97 295.65 C 316.48 299.49 317.98 302.40 319.48 302.00 C 320.98 301.60 322.49 297.11 323.99 293.27 C 325.49 289.44 326.99 279.39 328.50 278.99 C 330.00 278.60 331.50 287.19 333.01 290.89 C 334.51 294.60 336.01 303.72 337.51 301.21 C 339.02 298.69 340.52 280.98 342.02 275.82 C 343.52 270.66 345.03 269.74 346.53 270.27 C 348.03 270.80 349.54 274.63 351.04 278.99 C 352.54 283.36 354.04 292.61 355.55 296.45 C 357.05 300.28 358.55 301.47 360.06 302.00 C 361.56 302.53 363.06 299.62 364.56 299.62 C 366.07 299.62 367.57 301.60 369.07 302.00 C 370.57 302.40 372.08 302.00 373.58 302.00 C 375.08 302.00 376.59 304.64 378.09 302.00 C 379.59 299.36 381.09 288.65 382.60 286.13 C 384.10 283.62 385.60 285.21 387.10 286.93 C 388.61 288.65 390.11 294.46 391.61 296.45 C 393.12 298.43 394.62 298.30 396.12 298.83 C 397.62 299.36 399.13 299.09 400.63 299.62 C 402.13 300.15 403.64 302.40 405.14 302.00 C 406.64 301.60 408.14 297.64 409.65 297.24 C 411.15 296.84 412.65 301.21 414.15 299.62 C 415.66 298.03 417.16 288.12 418.66 287.72 C 420.17 287.32 421.67 295.92 423.17 297.24 C 424.67 298.56 426.18 296.58 427.68 295.65 C 429.18 294.73 430.69 299.75 432.19 291.69 C 433.69 283.62 435.19 251.49 436.70 247.26 C 438.20 243.03 439.70 294.46 441.20 266.30 C 442.71 238.14 444.21 100.49 445.71 78.28 C 447.22 56.07 448.72 108.29 450.22 133.02 C 451.72 157.75 453.23 207.06 454.73 226.63 C 456.23 246.20 457.73 249.11 459.24 250.43 C 460.74 251.76 462.24 230.47 463.75 234.57 C 465.25 238.67 466.75 263.79 468.25 275.03 C 469.76 286.27 471.26 298.30 472.76 302.00 C 474.27 305.70 475.77 297.77 477.27 297.24 C 478.77 296.71 480.28 301.87 481.78 298.83 C 483.28 295.79 484.78 278.99 486.29 278.99 C 487.79 278.99 489.29 300.28 490.80 298.83 C 492.30 297.37 493.80 275.82 495.30 270.27 C 496.81 264.71 498.31 260.22 499.81 265.51 C 501.31 270.80 502.82 297.24 504.32 302.00 C 505.82 306.76 507.33 294.07 508.83 294.07 C 510.33 294.07 511.83 302.53 513.34 302.00 C 514.84 301.47 516.34 292.22 517.85 290.89 C 519.35 289.57 520.85 303.59 522.35 294.07 C 523.86 284.55 525.36 238.40 526.86 233.77 C 528.36 229.15 529.87 267.62 531.37 266.30 C 532.87 264.98 534.38 228.75 535.88 225.84 C 537.38 222.93 538.88 249.24 540.39 248.85 C 541.89 248.45 543.39 222.80 544.90 223.46 C 546.40 224.12 547.90 249.11 549.40 252.81 C 550.91 256.52 552.41 238.00 553.91 245.67 C 555.41 253.34 556.92 292.22 558.42 298.83 C 559.92 305.44 561.43 289.70 562.93 285.34 C 564.43 280.98 565.93 287.72 567.44 272.65 C 568.94 257.57 570.44 195.30 571.94 194.90 C 573.45 194.50 574.95 253.08 576.45 270.27 C 577.96 287.46 579.46 293.80 580.96 298.03 C 582.46 302.26 583.97 296.18 585.47 295.65 C 586.97 295.12 588.48 297.50 589.98 294.86 C 591.48 292.22 592.98 281.24 594.49 279.79 C 595.99 278.33 597.49 282.96 598.99 286.13 C 600.50 289.31 602.00 297.50 603.50 298.83 C 605.01 300.15 606.51 294.86 608.01 294.07 C 609.51 293.27 611.02 293.01 612.52 294.07 C 614.02 295.12 615.52 299.88 617.03 300.41 C 618.53 300.94 620.03 297.24 621.54 297.24 C 623.04 297.24 624.54 299.88 626.04 300.41 C 627.55 300.94 629.05 309.54 630.55 300.41 C 632.06 291.29 633.56 248.19 635.06 245.67 C 636.56 243.16 638.07 282.83 639.57 285.34 C 641.07 287.85 642.57 260.09 644.08 260.75 C 645.58 261.41 647.08 285.21 648.59 289.31 C 650.09 293.41 651.59 283.62 653.09 285.34 C 654.60 287.06 656.10 297.11 657.60 299.62 C 659.10 302.13 660.61 300.28 662.11 300.41 C 663.61 300.55 665.12 300.41 666.62 300.41 C 668.12 300.41 669.62 300.81 671.13 300.41 C 672.63 300.02 674.13 305.57 675.64 298.03 C 677.14 290.50 678.64 255.99 680.14 255.19 C 681.65 254.40 683.15 289.57 684.65 293.27 C 686.15 296.98 687.66 277.67 689.16 277.41 C 690.66 277.14 692.17 291.55 693.67 291.69 C 695.17 291.82 696.67 279.13 698.18 278.20 C 699.68 277.27 701.18 282.70 702.69 286.13 C 704.19 289.57 705.69 296.45 707.19 298.83 C 708.70 301.21 710.20 300.15 711.70 300.41 C 713.20 300.68 714.71 300.41 716.21 300.41 C 717.71 300.41 719.22 300.55 720.72 300.41 C 722.22 300.28 723.72 302.93 725.23 299.62 C 726.73 296.31 728.23 280.71 729.73 280.58 C 731.24 280.45 732.74 299.49 734.24 298.83 C 735.75 298.17 737.25 276.35 738.75 276.61 C 740.25 276.88 741.76 298.03 743.26 300.41 C 744.76 302.79 746.27 302.66 747.77 290.89 C 749.27 279.13 750.77 237.08 752.28 229.81 C 753.78 222.53 755.28 241.44 756.78 247.26 C 758.29 253.08 759.79 260.09 761.29 264.71 C 762.80 269.34 764.30 269.34 765.80 275.03 C 767.30 280.71 768.81 299.49 770.31 298.83 C 771.81 298.17 773.31 274.37 774.82 271.06 C 776.32 267.75 777.82 277.80 779.33 278.99 C 780.83 280.18 782.33 276.35 783.83 278.20 C 785.34 280.05 786.84 287.72 788.34 290.10 C 789.85 292.48 791.35 291.03 792.85 292.48 C 794.35 293.93 795.86 300.28 797.36 298.83 C 798.86 297.37 800.36 284.55 801.87 283.75 C 803.37 282.96 804.87 293.93 806.38 294.07 C 807.88 294.20 809.38 284.28 810.88 284.55 C 812.39 284.81 813.89 293.01 815.39 295.65 C 816.90 298.30 818.40 304.12 819.90 300.41 C 821.40 296.71 822.91 279.52 824.41 273.44 C 825.91 267.36 827.41 261.01 828.92 263.92 C 830.42 266.83 831.92 284.81 833.43 290.89 C 834.93 296.98 836.43 298.83 837.93 300.41 C 839.44 302.00 840.94 302.66 842.44 300.41 C 843.94 298.17 845.45 289.57 846.95 286.93 C 848.45 284.28 849.96 282.30 851.46 284.55 C 852.96 286.79 854.46 297.50 855.97 300.41 C 857.47 303.32 858.97 301.74 860.48 302.00 C 861.98 302.26 863.48 302.00 864.98 302.00 C 866.49 302.00 867.99 303.45 869.49 302.00 C 870.99 300.55 873.25 294.73 874.00 293.27" fill="none" stroke="#22C55E" stroke-width="2.4" stroke-linecap="round" stroke-linejoin="round"/>
<circle cx="445.7" cy="78.3" r="4.5" fill="#4ADE80" stroke="#0B1120" stroke-width="2"/>
<text x="445.7" y="68.3" text-anchor="middle" font-family="ui-monospace,Menlo,monospace" font-size="10" font-weight="700" fill="#4ADE80">282</text>
<circle cx="874.0" cy="293.3" r="3.5" fill="#F8FAFC"/>
<text x="16" y="183" text-anchor="middle" font-family="ui-monospace,Menlo,monospace" font-size="10" fill="#94A3B8" transform="rotate(-90 16 183)">Contributions</text>
</svg>