<svg xmlns="http://www.w3.org/2000/svg" width="900" height="340" viewBox="0 0 900 340" role="img" aria-label="Contribution activity, last 6 months">
<defs>
<linearGradient id="bg" x1="0" y1="0" x2="0" y2="1"><stop offset="0" stop-color="#0F172A"/><stop offset="1" stop-color="#0B1120"/></linearGradient>
<linearGradient id="area" x1="0" y1="0" x2="0" y2="1"><stop offset="0" stop-color="#22C55E" stop-opacity="0.42"/><stop offset="0.7" stop-color="#22C55E" stop-opacity="0.08"/><stop offset="1" stop-color="#22C55E" stop-opacity="0"/></linearGradient>
</defs>
<rect x="0" y="0" width="900" height="340" rx="14" fill="url(#bg)"/>
<text x="450" y="32" text-anchor="middle" font-family="ui-monospace,Menlo,monospace" font-size="17" font-weight="700" fill="#F8FAFC" letter-spacing="0.5">last 6 months</text>
<text x="450" y="50" text-anchor="middle" font-family="ui-monospace,Menlo,monospace" font-size="11" fill="#94A3B8">4,070 contributions · peak 282</text>
<line x1="58" y1="302.0" x2="874" y2="302.0" stroke="#1E293B" stroke-width="1" stroke-dasharray="2 4"/>
<text x="48" y="305.5" text-anchor="end" font-family="ui-monospace,Menlo,monospace" font-size="10" fill="#94A3B8">0</text>
<line x1="58" y1="242.5" x2="874" y2="242.5" stroke="#1E293B" stroke-width="1" stroke-dasharray="2 4"/>
<text x="48" y="246.0" text-anchor="end" font-family="ui-monospace,Menlo,monospace" font-size="10" fill="#94A3B8">75</text>
<line x1="58" y1="183.0" x2="874" y2="183.0" stroke="#1E293B" stroke-width="1" stroke-dasharray="2 4"/>
<text x="48" y="186.5" text-anchor="end" font-family="ui-monospace,Menlo,monospace" font-size="10" fill="#94A3B8">150</text>
<line x1="58" y1="123.5" x2="874" y2="123.5" stroke="#1E293B" stroke-width="1" stroke-dasharray="2 4"/>
<text x="48" y="127.0" text-anchor="end" font-family="ui-monospace,Menlo,monospace" font-size="10" fill="#94A3B8">225</text>
<line x1="58" y1="64.0" x2="874" y2="64.0" stroke="#1E293B" stroke-width="1" stroke-dasharray="2 4"/>
<text x="48" y="67.5" text-anchor="end" font-family="ui-monospace,Menlo,monospace" font-size="10" fill="#94A3B8">300</text>
<line x1="175.2" y1="64" x2="175.2" y2="302" stroke="#1E293B" stroke-width="1" stroke-opacity="0.6"/>
<text x="175.2" y="322" text-anchor="middle" font-family="ui-monospace,Menlo,monospace" font-size="10" fill="#94A3B8">Feb</text>
<line x1="301.4" y1="64" x2="301.4" y2="302" stroke="#1E293B" stroke-width="1" stroke-opacity="0.6"/>
<text x="301.4" y="322" text-anchor="middle" font-family="ui-monospace,Menlo,monospace" font-size="10" fill="#94A3B8">Mar</text>
<line x1="441.2" y1="64" x2="441.2" y2="302" stroke="#1E293B" stroke-width="1" stroke-opacity="0.6"/>
<text x="441.2" y="322" text-anchor="middle" font-family="ui-monospace,Menlo,monospace" font-size="10" fill="#94A3B8">Apr</text>
<line x1="576.5" y1="64" x2="576.5" y2="302" stroke="#1E293B" stroke-width="1" stroke-opacity="0.6"/>
<text x="576.5" y="322" text-anchor="middle" font-family="ui-monospace,Menlo,monospace" font-size="10" fill="#94A3B8">May</text>
<line x1="716.2" y1="64" x2="716.2" y2="302" stroke="#1E293B" stroke-width="1" stroke-opacity="0.6"/>
<text x="716.2" y="322" text-anchor="middle" font-family="ui-monospace,Menlo,monospace" font-size="10" fill="#94A3B8">Jun</text>
<line x1="851.5" y1="64" x2="851.5" y2="302" stroke="#1E293B" stroke-width="1" stroke-opacity="0.6"/>
<text x="851.5" y="322" text-anchor="middle" font-family="ui-monospace,Menlo,monospace" font-size="10" fill="#94A3B8">Jul</text>
<path d="M 58.00 296.45 C 58.75 294.33 61.01 287.06 62.51 283.75 C 64.01 280.45 65.51 273.70 67.02 276.61 C 68.52 279.52 70.02 296.98 71.52 301.21 C 73.03 305.44 74.53 301.87 76.03 302.00 C 77.54 302.13 79.04 302.26 80.54 302.00 C 82.04 301.74 83.55 300.41 85.05 300.41 C 86.55 300.41 88.06 302.93 89.56 302.00 C 91.06 301.07 92.56 295.26 94.07 294.86 C 95.57 294.46 97.07 299.49 98.57 299.62 C 100.08 299.75 101.58 301.07 103.08 295.65 C 104.59 290.23 106.09 271.06 107.59 267.09 C 109.09 263.13 110.60 268.42 112.10 271.85 C 113.60 275.29 115.10 284.55 116.61 287.72 C 118.11 290.89 119.61 288.78 121.12 290.89 C 122.62 293.01 124.12 298.96 125.62 300.41 C 127.13 301.87 128.63 299.49 130.13 299.62 C 131.64 299.75 133.14 300.81 134.64 301.21 C 136.14 301.60 137.65 301.87 139.15 302.00 C 140.65 302.13 142.15 302.00 143.66 302.00 C 145.16 302.00 146.66 305.44 148.17 302.00 C 149.67 298.56 151.17 282.43 152.67 281.37 C 154.18 280.32 155.68 296.98 157.18 295.65 C 158.69 294.33 160.19 273.57 161.69 273.44 C 163.19 273.31 164.70 293.41 166.20 294.86 C 167.70 296.31 169.20 282.17 170.71 282.17 C 172.21 282.17 173.71 296.18 175.22 294.86 C 176.72 293.54 178.22 275.95 179.72 274.23 C 181.23 272.51 182.73 281.64 184.23 284.55 C 185.73 287.46 187.24 288.78 188.74 291.69 C 190.24 294.60 191.75 303.59 193.25 302.00 C 194.75 300.41 196.25 283.22 197.76 282.17 C 199.26 281.11 200.76 292.35 202.27 295.65 C 203.77 298.96 205.27 301.34 206.77 302.00 C 208.28 302.66 209.78 303.98 211.28 299.62 C 212.78 295.26 214.29 303.45 215.79 275.82 C 217.29 248.19 218.80 133.95 220.30 133.81 C 221.80 133.68 223.30 249.51 224.81 275.03 C 226.31 300.55 227.81 282.43 229.31 286.93 C 230.82 291.42 232.32 301.87 233.82 302.00 C 235.33 302.13 236.83 287.98 238.33 287.72 C 239.83 287.46 241.34 300.28 242.84 300.41 C 244.34 300.55 245.85 289.44 247.35 288.51 C 248.85 287.59 250.35 295.65 251.86 294.86 C 253.36 294.07 254.86 285.74 256.36 283.75 C 257.87 281.77 259.37 284.41 260.87 282.96 C 262.38 281.51 263.88 272.91 265.38 275.03 C 266.88 277.14 268.39 291.16 269.89 295.65 C 271.39 300.15 272.90 303.85 274.40 302.00 C 275.90 300.15 277.40 287.59 278.91 284.55 C 280.41 281.51 281.91 282.03 283.41 283.75 C 284.92 285.47 286.42 294.60 287.92 294.86 C 289.43 295.12 290.93 285.60 292.43 285.34 C 293.93 285.08 295.44 292.35 296.94 293.27 C 298.44 294.20 299.94 291.16 301.45 290.89 C 302.95 290.63 304.45 290.50 305.96 291.69 C 307.46 292.88 308.96 296.31 310.46 298.03 C 311.97 299.75 313.47 302.26 314.97 302.00 C 316.48 301.74 317.98 296.45 319.48 296.45 C 320.98 296.45 322.49 301.07 323.99 302.00 C 325.49 302.93 326.99 302.00 328.50 302.00 C 330.00 302.00 331.50 302.00 333.01 302.00 C 334.51 302.00 336.01 303.19 337.51 302.00 C 339.02 300.81 340.52 294.86 342.02 294.86 C 343.52 294.86 345.03 300.81 346.53 302.00 C 348.03 303.19 349.54 303.45 351.04 302.00 C 352.54 300.55 354.04 293.93 355.55 293.27 C 357.05 292.61 358.55 296.58 360.06 298.03 C 361.56 299.49 363.06 301.34 364.56 302.00 C 366.07 302.66 367.57 302.40 369.07 302.00 C 370.57 301.60 372.08 299.88 373.58 299.62 C 375.08 299.36 376.59 300.81 378.09 300.41 C 379.59 300.02 381.09 300.81 382.60 297.24 C 384.10 293.67 385.60 279.26 387.10 278.99 C 388.61 278.73 390.11 291.82 391.61 295.65 C 393.12 299.49 394.62 302.40 396.12 302.00 C 397.62 301.60 399.13 297.11 400.63 293.27 C 402.13 289.44 403.64 279.39 405.14 278.99 C 406.64 278.60 408.14 287.19 409.65 290.89 C 411.15 294.60 412.65 303.72 414.15 301.21 C 415.66 298.69 417.16 280.98 418.66 275.82 C 420.17 270.66 421.67 269.74 423.17 270.27 C 424.67 270.80 426.18 274.63 427.68 278.99 C 429.18 283.36 430.69 292.61 432.19 296.45 C 433.69 300.28 435.19 301.47 436.70 302.00 C 438.20 302.53 439.70 299.62 441.20 299.62 C 442.71 299.62 444.21 301.60 445.71 302.00 C 447.22 302.40 448.72 302.00 450.22 302.00 C 451.72 302.00 453.23 304.64 454.73 302.00 C 456.23 299.36 457.73 288.65 459.24 286.13 C 460.74 283.62 462.24 285.21 463.75 286.93 C 465.25 288.65 466.75 294.46 468.25 296.45 C 469.76 298.43 471.26 298.30 472.76 298.83 C 474.27 299.36 475.77 299.09 477.27 299.62 C 478.77 300.15 480.28 302.40 481.78 302.00 C 483.28 301.60 484.78 297.64 486.29 297.24 C 487.79 296.84 489.29 301.21 490.80 299.62 C 492.30 298.03 493.80 288.12 495.30 287.72 C 496.81 287.32 498.31 295.92 499.81 297.24 C 501.31 298.56 502.82 296.58 504.32 295.65 C 505.82 294.73 507.33 299.75 508.83 291.69 C 510.33 283.62 511.83 251.49 513.34 247.26 C 514.84 243.03 516.34 294.46 517.85 266.30 C 519.35 238.14 520.85 100.49 522.35 78.28 C 523.86 56.07 525.36 108.29 526.86 133.02 C 528.36 157.75 529.87 207.06 531.37 226.63 C 532.87 246.20 534.38 249.11 535.88 250.43 C 537.38 251.76 538.88 230.47 540.39 234.57 C 541.89 238.67 543.39 263.79 544.90 275.03 C 546.40 286.27 547.90 298.30 549.40 302.00 C 550.91 305.70 552.41 297.77 553.91 297.24 C 555.41 296.71 556.92 301.87 558.42 298.83 C 559.92 295.79 561.43 278.99 562.93 278.99 C 564.43 278.99 565.93 300.28 567.44 298.83 C 568.94 297.37 570.44 275.82 571.94 270.27 C 573.45 264.71 574.95 260.22 576.45 265.51 C 577.96 270.80 579.46 297.24 580.96 302.00 C 582.46 306.76 583.97 294.07 585.47 294.07 C 586.97 294.07 588.48 302.53 589.98 302.00 C 591.48 301.47 592.98 292.22 594.49 290.89 C 595.99 289.57 597.49 303.59 598.99 294.07 C 600.50 284.55 602.00 238.40 603.50 233.77 C 605.01 229.15 606.51 267.62 608.01 266.30 C 609.51 264.98 611.02 228.75 612.52 225.84 C 614.02 222.93 615.52 249.24 617.03 248.85 C 618.53 248.45 620.03 222.80 621.54 223.46 C 623.04 224.12 624.54 249.11 626.04 252.81 C 627.55 256.52 629.05 238.00 630.55 245.67 C 632.06 253.34 633.56 292.22 635.06 298.83 C 636.56 305.44 638.07 289.70 639.57 285.34 C 641.07 280.98 642.57 287.72 644.08 272.65 C 645.58 257.57 647.08 195.30 648.59 194.90 C 650.09 194.50 651.59 253.08 653.09 270.27 C 654.60 287.46 656.10 293.80 657.60 298.03 C 659.10 302.26 660.61 296.18 662.11 295.65 C 663.61 295.12 665.12 297.50 666.62 294.86 C 668.12 292.22 669.62 281.24 671.13 279.79 C 672.63 278.33 674.13 282.96 675.64 286.13 C 677.14 289.31 678.64 297.50 680.14 298.83 C 681.65 300.15 683.15 294.86 684.65 294.07 C 686.15 293.27 687.66 293.01 689.16 294.07 C 690.66 295.12 692.17 299.88 693.67 300.41 C 695.17 300.94 696.67 297.24 698.18 297.24 C 699.68 297.24 701.18 299.88 702.69 300.41 C 704.19 300.94 705.69 309.54 707.19 300.41 C 708.70 291.29 710.20 248.19 711.70 245.67 C 713.20 243.16 714.71 282.83 716.21 285.34 C 717.71 287.85 719.22 260.09 720.72 260.75 C 722.22 261.41 723.72 285.21 725.23 289.31 C 726.73 293.41 728.23 283.62 729.73 285.34 C 731.24 287.06 732.74 297.11 734.24 299.62 C 735.75 302.13 737.25 300.28 738.75 300.41 C 740.25 300.55 741.76 300.41 743.26 300.41 C 744.76 300.41 746.27 300.81 747.77 300.41 C 749.27 300.02 750.77 305.57 752.28 298.03 C 753.78 290.50 755.28 255.99 756.78 255.19 C 758.29 254.40 759.79 289.57 761.29 293.27 C 762.80 296.98 764.30 277.67 765.80 277.41 C 767.30 277.14 768.81 291.55 770.31 291.69 C 771.81 291.82 773.31 279.13 774.82 278.20 C 776.32 277.27 777.82 282.70 779.33 286.13 C 780.83 289.57 782.33 296.45 783.83 298.83 C 785.34 301.21 786.84 300.15 788.34 300.41 C 789.85 300.68 791.35 300.41 792.85 300.41 C 794.35 300.41 795.86 300.55 797.36 300.41 C 798.86 300.28 800.36 302.93 801.87 299.62 C 803.37 296.31 804.87 280.71 806.38 280.58 C 807.88 280.45 809.38 299.49 810.88 298.83 C 812.39 298.17 813.89 276.35 815.39 276.61 C 816.90 276.88 818.40 298.03 819.90 300.41 C 821.40 302.79 822.91 302.66 824.41 290.89 C 825.91 279.13 827.41 237.08 828.92 229.81 C 830.42 222.53 831.92 241.44 833.43 247.26 C 834.93 253.08 836.43 260.09 837.93 264.71 C 839.44 269.34 840.94 269.34 842.44 275.03 C 843.94 280.71 845.45 299.49 846.95 298.83 C 848.45 298.17 849.96 274.37 851.46 271.06 C 852.96 267.75 854.46 277.80 855.97 278.99 C 857.47 280.18 858.97 276.35 860.48 278.20 C 861.98 280.05 863.48 287.72 864.98 290.10 C 866.49 292.48 867.99 290.50 869.49 292.48 C 870.99 294.46 873.25 300.41 874.00 302.00 L 874.00 302.00 L 58.00 302.00 Z" fill="url(#area)"/>
<path d="M 58.00 296.45 C 58.75 294.33 61.01 287.06 62.51 283.75 C 64.01 280.45 65.51 273.70 67.02 276.61 C 68.52 279.52 70.02 296.98 71.52 301.21 C 73.03 305.44 74.53 301.87 76.03 302.00 C 77.54 302.13 79.04 302.26 80.54 302.00 C 82.04 301.74 83.55 300.41 85.05 300.41 C 86.55 300.41 88.06 302.93 89.56 302.00 C 91.06 301.07 92.56 295.26 94.07 294.86 C 95.57 294.46 97.07 299.49 98.57 299.62 C 100.08 299.75 101.58 301.07 103.08 295.65 C 104.59 290.23 106.09 271.06 107.59 267.09 C 109.09 263.13 110.60 268.42 112.10 271.85 C 113.60 275.29 115.10 284.55 116.61 287.72 C 118.11 290.89 119.61 288.78 121.12 290.89 C 122.62 293.01 124.12 298.96 125.62 300.41 C 127.13 301.87 128.63 299.49 130.13 299.62 C 131.64 299.75 133.14 300.81 134.64 301.21 C 136.14 301.60 137.65 301.87 139.15 302.00 C 140.65 302.13 142.15 302.00 143.66 302.00 C 145.16 302.00 146.66 305.44 148.17 302.00 C 149.67 298.56 151.17 282.43 152.67 281.37 C 154.18 280.32 155.68 296.98 157.18 295.65 C 158.69 294.33 160.19 273.57 161.69 273.44 C 163.19 273.31 164.70 293.41 166.20 294.86 C 167.70 296.31 169.20 282.17 170.71 282.17 C 172.21 282.17 173.71 296.18 175.22 294.86 C 176.72 293.54 178.22 275.95 179.72 274.23 C 181.23 272.51 182.73 281.64 184.23 284.55 C 185.73 287.46 187.24 288.78 188.74 291.69 C 190.24 294.60 191.75 303.59 193.25 302.00 C 194.75 300.41 196.25 283.22 197.76 282.17 C 199.26 281.11 200.76 292.35 202.27 295.65 C 203.77 298.96 205.27 301.34 206.77 302.00 C 208.28 302.66 209.78 303.98 211.28 299.62 C 212.78 295.26 214.29 303.45 215.79 275.82 C 217.29 248.19 218.80 133.95 220.30 133.81 C 221.80 133.68 223.30 249.51 224.81 275.03 C 226.31 300.55 227.81 282.43 229.31 286.93 C 230.82 291.42 232.32 301.87 233.82 302.00 C 235.33 302.13 236.83 287.98 238.33 287.72 C 239.83 287.46 241.34 300.28 242.84 300.41 C 244.34 300.55 245.85 289.44 247.35 288.51 C 248.85 287.59 250.35 295.65 251.86 294.86 C 253.36 294.07 254.86 285.74 256.36 283.75 C 257.87 281.77 259.37 284.41 260.87 282.96 C 262.38 281.51 263.88 272.91 265.38 275.03 C 266.88 277.14 268.39 291.16 269.89 295.65 C 271.39 300.15 272.90 303.85 274.40 302.00 C 275.90 300.15 277.40 287.59 278.91 284.55 C 280.41 281.51 281.91 282.03 283.41 283.75 C 284.92 285.47 286.42 294.60 287.92 294.86 C 289.43 295.12 290.93 285.60 292.43 285.34 C 293.93 285.08 295.44 292.35 296.94 293.27 C 298.44 294.20 299.94 291.16 301.45 290.89 C 302.95 290.63 304.45 290.50 305.96 291.69 C 307.46 292.88 308.96 296.31 310.46 298.03 C 311.97 299.75 313.47 302.26 314.97 302.00 C 316.48 301.74 317.98 296.45 319.48 296.45 C 320.98 296.45 322.49 301.07 323.99 302.00 C 325.49 302.93 326.99 302.00 328.50 302.00 C 330.00 302.00 331.50 302.00 333.01 302.00 C 334.51 302.00 336.01 303.19 337.51 302.00 C 339.02 300.81 340.52 294.86 342.02 294.86 C 343.52 294.86 345.03 300.81 346.53 302.00 C 348.03 303.19 349.54 303.45 351.04 302.00 C 352.54 300.55 354.04 293.93 355.55 293.27 C 357.05 292.61 358.55 296.58 360.06 298.03 C 361.56 299.49 363.06 301.34 364.56 302.00 C 366.07 302.66 367.57 302.40 369.07 302.00 C 370.57 301.60 372.08 299.88 373.58 299.62 C 375.08 299.36 376.59 300.81 378.09 300.41 C 379.59 300.02 381.09 300.81 382.60 297.24 C 384.10 293.67 385.60 279.26 387.10 278.99 C 388.61 278.73 390.11 291.82 391.61 295.65 C 393.12 299.49 394.62 302.40 396.12 302.00 C 397.62 301.60 399.13 297.11 400.63 293.27 C 402.13 289.44 403.64 279.39 405.14 278.99 C 406.64 278.60 408.14 287.19 409.65 290.89 C 411.15 294.60 412.65 303.72 414.15 301.21 C 415.66 298.69 417.16 280.98 418.66 275.82 C 420.17 270.66 421.67 269.74 423.17 270.27 C 424.67 270.80 426.18 274.63 427.68 278.99 C 429.18 283.36 430.69 292.61 432.19 296.45 C 433.69 300.28 435.19 301.47 436.70 302.00 C 438.20 302.53 439.70 299.62 441.20 299.62 C 442.71 299.62 444.21 301.60 445.71 302.00 C 447.22 302.40 448.72 302.00 450.22 302.00 C 451.72 302.00 453.23 304.64 454.73 302.00 C 456.23 299.36 457.73 288.65 459.24 286.13 C 460.74 283.62 462.24 285.21 463.75 286.93 C 465.25 288.65 466.75 294.46 468.25 296.45 C 469.76 298.43 471.26 298.30 472.76 298.83 C 474.27 299.36 475.77 299.09 477.27 299.62 C 478.77 300.15 480.28 302.40 481.78 302.00 C 483.28 301.60 484.78 297.64 486.29 297.24 C 487.79 296.84 489.29 301.21 490.80 299.62 C 492.30 298.03 493.80 288.12 495.30 287.72 C 496.81 287.32 498.31 295.92 499.81 297.24 C 501.31 298.56 502.82 296.58 504.32 295.65 C 505.82 294.73 507.33 299.75 508.83 291.69 C 510.33 283.62 511.83 251.49 513.34 247.26 C 514.84 243.03 516.34 294.46 517.85 266.30 C 519.35 238.14 520.85 100.49 522.35 78.28 C 523.86 56.07 525.36 108.29 526.86 133.02 C 528.36 157.75 529.87 207.06 531.37 226.63 C 532.87 246.20 534.38 249.11 535.88 250.43 C 537.38 251.76 538.88 230.47 540.39 234.57 C 541.89 238.67 543.39 263.79 544.90 275.03 C 546.40 286.27 547.90 298.30 549.40 302.00 C 550.91 305.70 552.41 297.77 553.91 297.24 C 555.41 296.71 556.92 301.87 558.42 298.83 C 559.92 295.79 561.43 278.99 562.93 278.99 C 564.43 278.99 565.93 300.28 567.44 298.83 C 568.94 297.37 570.44 275.82 571.94 270.27 C 573.45 264.71 574.95 260.22 576.45 265.51 C 577.96 270.80 579.46 297.24 580.96 302.00 C 582.46 306.76 583.97 294.07 585.47 294.07 C 586.97 294.07 588.48 302.53 589.98 302.00 C 591.48 301.47 592.98 292.22 594.49 290.89 C 595.99 289.57 597.49 303.59 598.99 294.07 C 600.50 284.55 602.00 238.40 603.50 233.77 C 605.01 229.15 606.51 267.62 608.01 266.30 C 609.51 264.98 611.02 228.75 612.52 225.84 C 614.02 222.93 615.52 249.24 617.03 248.85 C 618.53 248.45 620.03 222.80 621.54 223.46 C 623.04 224.12 624.54 249.11 626.04 252.81 C 627.55 256.52 629.05 238.00 630.55 245.67 C 632.06 253.34 633.56 292.22 635.06 298.83 C 636.56 305.44 638.07 289.70 639.57 285.34 C 641.07 280.98 642.57 287.72 644.08 272.65 C 645.58 257.57 647.08 195.30 648.59 194.90 C 650.09 194.50 651.59 253.08 653.09 270.27 C 654.60 287.46 656.10 293.80 657.60 298.03 C 659.10 302.26 660.61 296.18 662.11 295.65 C 663.61 295.12 665.12 297.50 666.62 294.86 C 668.12 292.22 669.62 281.24 671.13 279.79 C 672.63 278.33 674.13 282.96 675.64 286.13 C 677.14 289.31 678.64 297.50 680.14 298.83 C 681.65 300.15 683.15 294.86 684.65 294.07 C 686.15 293.27 687.66 293.01 689.16 294.07 C 690.66 295.12 692.17 299.88 693.67 300.41 C 695.17 300.94 696.67 297.24 698.18 297.24 C 699.68 297.24 701.18 299.88 702.69 300.41 C 704.19 300.94 705.69 309.54 707.19 300.41 C 708.70 291.29 710.20 248.19 711.70 245.67 C 713.20 243.16 714.71 282.83 716.21 285.34 C 717.71 287.85 719.22 260.09 720.72 260.75 C 722.22 261.41 723.72 285.21 725.23 289.31 C 726.73 293.41 728.23 283.62 729.73 285.34 C 731.24 287.06 732.74 297.11 734.24 299.62 C 735.75 302.13 737.25 300.28 738.75 300.41 C 740.25 300.55 741.76 300.41 743.26 300.41 C 744.76 300.41 746.27 300.81 747.77 300.41 C 749.27 300.02 750.77 305.57 752.28 298.03 C 753.78 290.50 755.28 255.99 756.78 255.19 C 758.29 254.40 759.79 289.57 761.29 293.27 C 762.80 296.98 764.30 277.67 765.80 277.41 C 767.30 277.14 768.81 291.55 770.31 291.69 C 771.81 291.82 773.31 279.13 774.82 278.20 C 776.32 277.27 777.82 282.70 779.33 286.13 C 780.83 289.57 782.33 296.45 783.83 298.83 C 785.34 301.21 786.84 300.15 788.34 300.41 C 789.85 300.68 791.35 300.41 792.85 300.41 C 794.35 300.41 795.86 300.55 797.36 300.41 C 798.86 300.28 800.36 302.93 801.87 299.62 C 803.37 296.31 804.87 280.71 806.38 280.58 C 807.88 280.45 809.38 299.49 810.88 298.83 C 812.39 298.17 813.89 276.35 815.39 276.61 C 816.90 276.88 818.40 298.03 819.90 300.41 C 821.40 302.79 822.91 302.66 824.41 290.89 C 825.91 279.13 827.41 237.08 828.92 229.81 C 830.42 222.53 831.92 241.44 833.43 247.26 C 834.93 253.08 836.43 260.09 837.93 264.71 C 839.44 269.34 840.94 269.34 842.44 275.03 C 843.94 280.71 845.45 299.49 846.95 298.83 C 848.45 298.17 849.96 274.37 851.46 271.06 C 852.96 267.75 854.46 277.80 855.97 278.99 C 857.47 280.18 858.97 276.35 860.48 278.20 C 861.98 280.05 863.48 287.72 864.98 290.10 C 866.49 292.48 867.99 290.50 869.49 292.48 C 870.99 294.46 873.25 300.41 874.00 302.00" fill="none" stroke="#22C55E" stroke-opacity="0.20" stroke-width="7" stroke-linecap="round" stroke-linejoin="round"/>
<path d="M 58.00 296.45 C 58.75 294.33 61.01 287.06 62.51 283.75 C 64.01 280.45 65.51 273.70 67.02 276.61 C 68.52 279.52 70.02 296.98 71.52 301.21 C 73.03 305.44 74.53 301.87 76.03 302.00 C 77.54 302.13 79.04 302.26 80.54 302.00 C 82.04 301.74 83.55 300.41 85.05 300.41 C 86.55 300.41 88.06 302.93 89.56 302.00 C 91.06 301.07 92.56 295.26 94.07 294.86 C 95.57 294.46 97.07 299.49 98.57 299.62 C 100.08 299.75 101.58 301.07 103.08 295.65 C 104.59 290.23 106.09 271.06 107.59 267.09 C 109.09 263.13 110.60 268.42 112.10 271.85 C 113.60 275.29 115.10 284.55 116.61 287.72 C 118.11 290.89 119.61 288.78 121.12 290.89 C 122.62 293.01 124.12 298.96 125.62 300.41 C 127.13 301.87 128.63 299.49 130.13 299.62 C 131.64 299.75 133.14 300.81 134.64 301.21 C 136.14 301.60 137.65 301.87 139.15 302.00 C 140.65 302.13 142.15 302.00 143.66 302.00 C 145.16 302.00 146.66 305.44 148.17 302.00 C 149.67 298.56 151.17 282.43 152.67 281.37 C 154.18 280.32 155.68 296.98 157.18 295.65 C 158.69 294.33 160.19 273.57 161.69 273.44 C 163.19 273.31 164.70 293.41 166.20 294.86 C 167.70 296.31 169.20 282.17 170.71 282.17 C 172.21 282.17 173.71 296.18 175.22 294.86 C 176.72 293.54 178.22 275.95 179.72 274.23 C 181.23 272.51 182.73 281.64 184.23 284.55 C 185.73 287.46 187.24 288.78 188.74 291.69 C 190.24 294.60 191.75 303.59 193.25 302.00 C 194.75 300.41 196.25 283.22 197.76 282.17 C 199.26 281.11 200.76 292.35 202.27 295.65 C 203.77 298.96 205.27 301.34 206.77 302.00 C 208.28 302.66 209.78 303.98 211.28 299.62 C 212.78 295.26 214.29 303.45 215.79 275.82 C 217.29 248.19 218.80 133.95 220.30 133.81 C 221.80 133.68 223.30 249.51 224.81 275.03 C 226.31 300.55 227.81 282.43 229.31 286.93 C 230.82 291.42 232.32 301.87 233.82 302.00 C 235.33 302.13 236.83 287.98 238.33 287.72 C 239.83 287.46 241.34 300.28 242.84 300.41 C 244.34 300.55 245.85 289.44 247.35 288.51 C 248.85 287.59 250.35 295.65 251.86 294.86 C 253.36 294.07 254.86 285.74 256.36 283.75 C 257.87 281.77 259.37 284.41 260.87 282.96 C 262.38 281.51 263.88 272.91 265.38 275.03 C 266.88 277.14 268.39 291.16 269.89 295.65 C 271.39 300.15 272.90 303.85 274.40 302.00 C 275.90 300.15 277.40 287.59 278.91 284.55 C 280.41 281.51 281.91 282.03 283.41 283.75 C 284.92 285.47 286.42 294.60 287.92 294.86 C 289.43 295.12 290.93 285.60 292.43 285.34 C 293.93 285.08 295.44 292.35 296.94 293.27 C 298.44 294.20 299.94 291.16 301.45 290.89 C 302.95 290.63 304.45 290.50 305.96 291.69 C 307.46 292.88 308.96 296.31 310.46 298.03 C 311.97 299.75 313.47 302.26 314.97 302.00 C 316.48 301.74 317.98 296.45 319.48 296.45 C 320.98 296.45 322.49 301.07 323.99 302.00 C 325.49 302.93 326.99 302.00 328.50 302.00 C 330.00 302.00 331.50 302.00 333.01 302.00 C 334.51 302.00 336.01 303.19 337.51 302.00 C 339.02 300.81 340.52 294.86 342.02 294.86 C 343.52 294.86 345.03 300.81 346.53 302.00 C 348.03 303.19 349.54 303.45 351.04 302.00 C 352.54 300.55 354.04 293.93 355.55 293.27 C 357.05 292.61 358.55 296.58 360.06 298.03 C 361.56 299.49 363.06 301.34 364.56 302.00 C 366.07 302.66 367.57 302.40 369.07 302.00 C 370.57 301.60 372.08 299.88 373.58 299.62 C 375.08 299.36 376.59 300.81 378.09 300.41 C 379.59 300.02 381.09 300.81 382.60 297.24 C 384.10 293.67 385.60 279.26 387.10 278.99 C 388.61 278.73 390.11 291.82 391.61 295.65 C 393.12 299.49 394.62 302.40 396.12 302.00 C 397.62 301.60 399.13 297.11 400.63 293.27 C 402.13 289.44 403.64 279.39 405.14 278.99 C 406.64 278.60 408.14 287.19 409.65 290.89 C 411.15 294.60 412.65 303.72 414.15 301.21 C 415.66 298.69 417.16 280.98 418.66 275.82 C 420.17 270.66 421.67 269.74 423.17 270.27 C 424.67 270.80 426.18 274.63 427.68 278.99 C 429.18 283.36 430.69 292.61 432.19 296.45 C 433.69 300.28 435.19 301.47 436.70 302.00 C 438.20 302.53 439.70 299.62 441.20 299.62 C 442.71 299.62 444.21 301.60 445.71 302.00 C 447.22 302.40 448.72 302.00 450.22 302.00 C 451.72 302.00 453.23 304.64 454.73 302.00 C 456.23 299.36 457.73 288.65 459.24 286.13 C 460.74 283.62 462.24 285.21 463.75 286.93 C 465.25 288.65 466.75 294.46 468.25 296.45 C 469.76 298.43 471.26 298.30 472.76 298.83 C 474.27 299.36 475.77 299.09 477.27 299.62 C 478.77 300.15 480.28 302.40 481.78 302.00 C 483.28 301.60 484.78 297.64 486.29 297.24 C 487.79 296.84 489.29 301.21 490.80 299.62 C 492.30 298.03 493.80 288.12 495.30 287.72 C 496.81 287.32 498.31 295.92 499.81 297.24 C 501.31 298.56 502.82 296.58 504.32 295.65 C 505.82 294.73 507.33 299.75 508.83 291.69 C 510.33 283.62 511.83 251.49 513.34 247.26 C 514.84 243.03 516.34 294.46 517.85 266.30 C 519.35 238.14 520.85 100.49 522.35 78.28 C 523.86 56.07 525.36 108.29 526.86 133.02 C 528.36 157.75 529.87 207.06 531.37 226.63 C 532.87 246.20 534.38 249.11 535.88 250.43 C 537.38 251.76 538.88 230.47 540.39 234.57 C 541.89 238.67 543.39 263.79 544.90 275.03 C 546.40 286.27 547.90 298.30 549.40 302.00 C 550.91 305.70 552.41 297.77 553.91 297.24 C 555.41 296.71 556.92 301.87 558.42 298.83 C 559.92 295.79 561.43 278.99 562.93 278.99 C 564.43 278.99 565.93 300.28 567.44 298.83 C 568.94 297.37 570.44 275.82 571.94 270.27 C 573.45 264.71 574.95 260.22 576.45 265.51 C 577.96 270.80 579.46 297.24 580.96 302.00 C 582.46 306.76 583.97 294.07 585.47 294.07 C 586.97 294.07 588.48 302.53 589.98 302.00 C 591.48 301.47 592.98 292.22 594.49 290.89 C 595.99 289.57 597.49 303.59 598.99 294.07 C 600.50 284.55 602.00 238.40 603.50 233.77 C 605.01 229.15 606.51 267.62 608.01 266.30 C 609.51 264.98 611.02 228.75 612.52 225.84 C 614.02 222.93 615.52 249.24 617.03 248.85 C 618.53 248.45 620.03 222.80 621.54 223.46 C 623.04 224.12 624.54 249.11 626.04 252.81 C 627.55 256.52 629.05 238.00 630.55 245.67 C 632.06 253.34 633.56 292.22 635.06 298.83 C 636.56 305.44 638.07 289.70 639.57 285.34 C 641.07 280.98 642.57 287.72 644.08 272.65 C 645.58 257.57 647.08 195.30 648.59 194.90 C 650.09 194.50 651.59 253.08 653.09 270.27 C 654.60 287.46 656.10 293.80 657.60 298.03 C 659.10 302.26 660.61 296.18 662.11 295.65 C 663.61 295.12 665.12 297.50 666.62 294.86 C 668.12 292.22 669.62 281.24 671.13 279.79 C 672.63 278.33 674.13 282.96 675.64 286.13 C 677.14 289.31 678.64 297.50 680.14 298.83 C 681.65 300.15 683.15 294.86 684.65 294.07 C 686.15 293.27 687.66 293.01 689.16 294.07 C 690.66 295.12 692.17 299.88 693.67 300.41 C 695.17 300.94 696.67 297.24 698.18 297.24 C 699.68 297.24 701.18 299.88 702.69 300.41 C 704.19 300.94 705.69 309.54 707.19 300.41 C 708.70 291.29 710.20 248.19 711.70 245.67 C 713.20 243.16 714.71 282.83 716.21 285.34 C 717.71 287.85 719.22 260.09 720.72 260.75 C 722.22 261.41 723.72 285.21 725.23 289.31 C 726.73 293.41 728.23 283.62 729.73 285.34 C 731.24 287.06 732.74 297.11 734.24 299.62 C 735.75 302.13 737.25 300.28 738.75 300.41 C 740.25 300.55 741.76 300.41 743.26 300.41 C 744.76 300.41 746.27 300.81 747.77 300.41 C 749.27 300.02 750.77 305.57 752.28 298.03 C 753.78 290.50 755.28 255.99 756.78 255.19 C 758.29 254.40 759.79 289.57 761.29 293.27 C 762.80 296.98 764.30 277.67 765.80 277.41 C 767.30 277.14 768.81 291.55 770.31 291.69 C 771.81 291.82 773.31 279.13 774.82 278.20 C 776.32 277.27 777.82 282.70 779.33 286.13 C 780.83 289.57 782.33 296.45 783.83 298.83 C 785.34 301.21 786.84 300.15 788.34 300.41 C 789.85 300.68 791.35 300.41 792.85 300.41 C 794.35 300.41 795.86 300.55 797.36 300.41 C 798.86 300.28 800.36 302.93 801.87 299.62 C 803.37 296.31 804.87 280.71 806.38 280.58 C 807.88 280.45 809.38 299.49 810.88 298.83 C 812.39 298.17 813.89 276.35 815.39 276.61 C 816.90 276.88 818.40 298.03 819.90 300.41 C 821.40 302.79 822.91 302.66 824.41 290.89 C 825.91 279.13 827.41 237.08 828.92 229.81 C 830.42 222.53 831.92 241.44 833.43 247.26 C 834.93 253.08 836.43 260.09 837.93 264.71 C 839.44 269.34 840.94 269.34 842.44 275.03 C 843.94 280.71 845.45 299.49 846.95 298.83 C 848.45 298.17 849.96 274.37 851.46 271.06 C 852.96 267.75 854.46 277.80 855.97 278.99 C 857.47 280.18 858.97 276.35 860.48 278.20 C 861.98 280.05 863.48 287.72 864.98 290.10 C 866.49 292.48 867.99 290.50 869.49 292.48 C 870.99 294.46 873.25 300.41 874.00 302.00" fill="none" stroke="#22C55E" stroke-width="2.4" stroke-linecap="round" stroke-linejoin="round"/>
<circle cx="522.4" cy="78.3" r="4.5" fill="#4ADE80" stroke="#0B1120" stroke-width="2"/>
<text x="522.4" y="68.3" text-anchor="middle" font-family="ui-monospace,Menlo,monospace" font-size="10" font-weight="700" fill="#4ADE80">282</text>
<circle cx="874.0" cy="302.0" r="3.5" fill="#F8FAFC"/>
<text x="16" y="183" text-anchor="middle" font-family="ui-monospace,Menlo,monospace" font-size="10" fill="#94A3B8" transform="rotate(-90 16 183)">Contributions</text>
</svg>