<svg xmlns="http://www.w3.org/2000/svg" width="900" height="340" aria-label="Contribution activity, last 6 months" role="img" viewBox="0 0 900 340"><defs><linearGradient id="bg" x1="0" x2="0" y1="0" y2="1"><stop offset="0" stop-color="#0F172A"/><stop offset="1" stop-color="#0B1120"/></linearGradient><linearGradient id="area" x1="0" x2="0" y1="0" y2="1"><stop offset="0" stop-color="#22C55E" stop-opacity=".42"/><stop offset=".7" stop-color="#22C55E" stop-opacity=".08"/><stop offset="1" stop-color="#22C55E" stop-opacity="0"/></linearGradient></defs><rect width="900" height="340" x="0" y="0" fill="url(#bg)" rx="14"/><text x="450" y="32" fill="#F8FAFC" font-family="ui-monospace,Menlo,monospace" font-size="17" font-weight="700" letter-spacing=".5" text-anchor="middle">last 6 months</text><text x="450" y="50" fill="#94A3B8" font-family="ui-monospace,Menlo,monospace" font-size="11" text-anchor="middle">3,985 contributions · peak 282</text><line x1="58" x2="874" y1="302" y2="302" stroke="#1E293B" stroke-dasharray="2 4" stroke-width="1"/><text x="48" y="305.5" fill="#94A3B8" font-family="ui-monospace,Menlo,monospace" font-size="10" text-anchor="end">0</text><line x1="58" x2="874" y1="242.5" y2="242.5" stroke="#1E293B" stroke-dasharray="2 4" stroke-width="1"/><text x="48" y="246" fill="#94A3B8" font-family="ui-monospace,Menlo,monospace" font-size="10" text-anchor="end">75</text><line x1="58" x2="874" y1="183" y2="183" stroke="#1E293B" stroke-dasharray="2 4" stroke-width="1"/><text x="48" y="186.5" fill="#94A3B8" font-family="ui-monospace,Menlo,monospace" font-size="10" text-anchor="end">150</text><line x1="58" x2="874" y1="123.5" y2="123.5" stroke="#1E293B" stroke-dasharray="2 4" stroke-width="1"/><text x="48" y="127" fill="#94A3B8" font-family="ui-monospace,Menlo,monospace" font-size="10" text-anchor="end">225</text><line x1="58" x2="874" y1="64" y2="64" stroke="#1E293B" stroke-dasharray="2 4" stroke-width="1"/><text x="48" y="67.5" fill="#94A3B8" font-family="ui-monospace,Menlo,monospace" font-size="10" text-anchor="end">300</text><line x1="193.2" x2="193.2" y1="64" y2="302" stroke="#1E293B" stroke-opacity=".6" stroke-width="1"/><text x="193.2" y="322" fill="#94A3B8" font-family="ui-monospace,Menlo,monospace" font-size="10" text-anchor="middle">Feb</text><line x1="319.5" x2="319.5" y1="64" y2="302" stroke="#1E293B" stroke-opacity=".6" stroke-width="1"/><text x="319.5" y="322" fill="#94A3B8" font-family="ui-monospace,Menlo,monospace" font-size="10" text-anchor="middle">Mar</text><line x1="459.2" x2="459.2" y1="64" y2="302" stroke="#1E293B" stroke-opacity=".6" stroke-width="1"/><text x="459.2" y="322" fill="#94A3B8" font-family="ui-monospace,Menlo,monospace" font-size="10" text-anchor="middle">Apr</text><line x1="594.5" x2="594.5" y1="64" y2="302" stroke="#1E293B" stroke-opacity=".6" stroke-width="1"/><text x="594.5" y="322" fill="#94A3B8" font-family="ui-monospace,Menlo,monospace" font-size="10" text-anchor="middle">May</text><line x1="734.2" x2="734.2" y1="64" y2="302" stroke="#1E293B" stroke-opacity=".6" stroke-width="1"/><text x="734.2" y="322" fill="#94A3B8" font-family="ui-monospace,Menlo,monospace" font-size="10" text-anchor="middle">Jun</text><line x1="869.5" x2="869.5" y1="64" y2="302" stroke="#1E293B" stroke-opacity=".6" stroke-width="1"/><text x="869.5" y="322" fill="#94A3B8" font-family="ui-monospace,Menlo,monospace" font-size="10" text-anchor="middle">Jul</text><path fill="url(#area)" d="M 58.00 302.00 C 58.75 302.00 61.01 302.00 62.51 302.00 C 64.01 302.00 65.51 302.00 67.02 302.00 C 68.52 302.00 70.02 302.93 71.52 302.00 C 73.03 301.07 74.53 299.49 76.03 296.45 C 77.54 293.41 79.04 287.06 80.54 283.75 C 82.04 280.45 83.55 273.70 85.05 276.61 C 86.55 279.52 88.06 296.98 89.56 301.21 C 91.06 305.44 92.56 301.87 94.07 302.00 C 95.57 302.13 97.07 302.26 98.57 302.00 C 100.08 301.74 101.58 300.41 103.08 300.41 C 104.59 300.41 106.09 302.93 107.59 302.00 C 109.09 301.07 110.60 295.26 112.10 294.86 C 113.60 294.46 115.10 299.49 116.61 299.62 C 118.11 299.75 119.61 301.07 121.12 295.65 C 122.62 290.23 124.12 271.06 125.62 267.09 C 127.13 263.13 128.63 268.42 130.13 271.85 C 131.64 275.29 133.14 284.55 134.64 287.72 C 136.14 290.89 137.65 288.78 139.15 290.89 C 140.65 293.01 142.15 298.96 143.66 300.41 C 145.16 301.87 146.66 299.49 148.17 299.62 C 149.67 299.75 151.17 300.81 152.67 301.21 C 154.18 301.60 155.68 301.87 157.18 302.00 C 158.69 302.13 160.19 302.00 161.69 302.00 C 163.19 302.00 164.70 305.44 166.20 302.00 C 167.70 298.56 169.20 282.43 170.71 281.37 C 172.21 280.32 173.71 296.98 175.22 295.65 C 176.72 294.33 178.22 273.57 179.72 273.44 C 181.23 273.31 182.73 293.41 184.23 294.86 C 185.73 296.31 187.24 282.17 188.74 282.17 C 190.24 282.17 191.75 296.18 193.25 294.86 C 194.75 293.54 196.25 275.95 197.76 274.23 C 199.26 272.51 200.76 281.64 202.27 284.55 C 203.77 287.46 205.27 288.78 206.77 291.69 C 208.28 294.60 209.78 303.59 211.28 302.00 C 212.78 300.41 214.29 283.22 215.79 282.17 C 217.29 281.11 218.80 292.35 220.30 295.65 C 221.80 298.96 223.30 301.34 224.81 302.00 C 226.31 302.66 227.81 303.98 229.31 299.62 C 230.82 295.26 232.32 303.45 233.82 275.82 C 235.33 248.19 236.83 133.95 238.33 133.81 C 239.83 133.68 241.34 249.51 242.84 275.03 C 244.34 300.55 245.85 282.43 247.35 286.93 C 248.85 291.42 250.35 301.87 251.86 302.00 C 253.36 302.13 254.86 287.98 256.36 287.72 C 257.87 287.46 259.37 300.28 260.87 300.41 C 262.38 300.55 263.88 289.44 265.38 288.51 C 266.88 287.59 268.39 295.65 269.89 294.86 C 271.39 294.07 272.90 285.74 274.40 283.75 C 275.90 281.77 277.40 284.41 278.91 282.96 C 280.41 281.51 281.91 272.91 283.41 275.03 C 284.92 277.14 286.42 291.16 287.92 295.65 C 289.43 300.15 290.93 303.85 292.43 302.00 C 293.93 300.15 295.44 287.59 296.94 284.55 C 298.44 281.51 299.94 282.03 301.45 283.75 C 302.95 285.47 304.45 294.60 305.96 294.86 C 307.46 295.12 308.96 285.60 310.46 285.34 C 311.97 285.08 313.47 292.35 314.97 293.27 C 316.48 294.20 317.98 291.16 319.48 290.89 C 320.98 290.63 322.49 290.50 323.99 291.69 C 325.49 292.88 326.99 296.31 328.50 298.03 C 330.00 299.75 331.50 302.26 333.01 302.00 C 334.51 301.74 336.01 296.45 337.51 296.45 C 339.02 296.45 340.52 301.07 342.02 302.00 C 343.52 302.93 345.03 302.00 346.53 302.00 C 348.03 302.00 349.54 302.00 351.04 302.00 C 352.54 302.00 354.04 303.19 355.55 302.00 C 357.05 300.81 358.55 294.86 360.06 294.86 C 361.56 294.86 363.06 300.81 364.56 302.00 C 366.07 303.19 367.57 303.45 369.07 302.00 C 370.57 300.55 372.08 293.93 373.58 293.27 C 375.08 292.61 376.59 296.58 378.09 298.03 C 379.59 299.49 381.09 301.34 382.60 302.00 C 384.10 302.66 385.60 302.40 387.10 302.00 C 388.61 301.60 390.11 299.88 391.61 299.62 C 393.12 299.36 394.62 300.81 396.12 300.41 C 397.62 300.02 399.13 300.81 400.63 297.24 C 402.13 293.67 403.64 279.26 405.14 278.99 C 406.64 278.73 408.14 291.82 409.65 295.65 C 411.15 299.49 412.65 302.40 414.15 302.00 C 415.66 301.60 417.16 297.11 418.66 293.27 C 420.17 289.44 421.67 279.39 423.17 278.99 C 424.67 278.60 426.18 287.19 427.68 290.89 C 429.18 294.60 430.69 303.72 432.19 301.21 C 433.69 298.69 435.19 280.98 436.70 275.82 C 438.20 270.66 439.70 269.74 441.20 270.27 C 442.71 270.80 444.21 274.63 445.71 278.99 C 447.22 283.36 448.72 292.61 450.22 296.45 C 451.72 300.28 453.23 301.47 454.73 302.00 C 456.23 302.53 457.73 299.62 459.24 299.62 C 460.74 299.62 462.24 301.60 463.75 302.00 C 465.25 302.40 466.75 302.00 468.25 302.00 C 469.76 302.00 471.26 304.64 472.76 302.00 C 474.27 299.36 475.77 288.65 477.27 286.13 C 478.77 283.62 480.28 285.21 481.78 286.93 C 483.28 288.65 484.78 294.46 486.29 296.45 C 487.79 298.43 489.29 298.30 490.80 298.83 C 492.30 299.36 493.80 299.09 495.30 299.62 C 496.81 300.15 498.31 302.40 499.81 302.00 C 501.31 301.60 502.82 297.64 504.32 297.24 C 505.82 296.84 507.33 301.21 508.83 299.62 C 510.33 298.03 511.83 288.12 513.34 287.72 C 514.84 287.32 516.34 295.92 517.85 297.24 C 519.35 298.56 520.85 296.58 522.35 295.65 C 523.86 294.73 525.36 299.75 526.86 291.69 C 528.36 283.62 529.87 251.49 531.37 247.26 C 532.87 243.03 534.38 294.46 535.88 266.30 C 537.38 238.14 538.88 100.49 540.39 78.28 C 541.89 56.07 543.39 108.29 544.90 133.02 C 546.40 157.75 547.90 207.06 549.40 226.63 C 550.91 246.20 552.41 249.11 553.91 250.43 C 555.41 251.76 556.92 230.47 558.42 234.57 C 559.92 238.67 561.43 263.79 562.93 275.03 C 564.43 286.27 565.93 298.30 567.44 302.00 C 568.94 305.70 570.44 297.77 571.94 297.24 C 573.45 296.71 574.95 301.87 576.45 298.83 C 577.96 295.79 579.46 278.99 580.96 278.99 C 582.46 278.99 583.97 300.28 585.47 298.83 C 586.97 297.37 588.48 275.82 589.98 270.27 C 591.48 264.71 592.98 260.22 594.49 265.51 C 595.99 270.80 597.49 297.24 598.99 302.00 C 600.50 306.76 602.00 294.07 603.50 294.07 C 605.01 294.07 606.51 302.53 608.01 302.00 C 609.51 301.47 611.02 292.22 612.52 290.89 C 614.02 289.57 615.52 303.59 617.03 294.07 C 618.53 284.55 620.03 238.40 621.54 233.77 C 623.04 229.15 624.54 267.62 626.04 266.30 C 627.55 264.98 629.05 228.75 630.55 225.84 C 632.06 222.93 633.56 249.24 635.06 248.85 C 636.56 248.45 638.07 222.80 639.57 223.46 C 641.07 224.12 642.57 249.11 644.08 252.81 C 645.58 256.52 647.08 238.00 648.59 245.67 C 650.09 253.34 651.59 292.22 653.09 298.83 C 654.60 305.44 656.10 289.70 657.60 285.34 C 659.10 280.98 660.61 287.72 662.11 272.65 C 663.61 257.57 665.12 195.30 666.62 194.90 C 668.12 194.50 669.62 253.08 671.13 270.27 C 672.63 287.46 674.13 293.80 675.64 298.03 C 677.14 302.26 678.64 296.18 680.14 295.65 C 681.65 295.12 683.15 297.50 684.65 294.86 C 686.15 292.22 687.66 281.24 689.16 279.79 C 690.66 278.33 692.17 282.96 693.67 286.13 C 695.17 289.31 696.67 297.50 698.18 298.83 C 699.68 300.15 701.18 294.86 702.69 294.07 C 704.19 293.27 705.69 293.01 707.19 294.07 C 708.70 295.12 710.20 299.88 711.70 300.41 C 713.20 300.94 714.71 297.24 716.21 297.24 C 717.71 297.24 719.22 299.88 720.72 300.41 C 722.22 300.94 723.72 309.54 725.23 300.41 C 726.73 291.29 728.23 248.19 729.73 245.67 C 731.24 243.16 732.74 282.83 734.24 285.34 C 735.75 287.85 737.25 260.09 738.75 260.75 C 740.25 261.41 741.76 285.21 743.26 289.31 C 744.76 293.41 746.27 283.62 747.77 285.34 C 749.27 287.06 750.77 297.11 752.28 299.62 C 753.78 302.13 755.28 300.28 756.78 300.41 C 758.29 300.55 759.79 300.41 761.29 300.41 C 762.80 300.41 764.30 300.81 765.80 300.41 C 767.30 300.02 768.81 305.57 770.31 298.03 C 771.81 290.50 773.31 255.99 774.82 255.19 C 776.32 254.40 777.82 289.57 779.33 293.27 C 780.83 296.98 782.33 277.67 783.83 277.41 C 785.34 277.14 786.84 291.55 788.34 291.69 C 789.85 291.82 791.35 279.13 792.85 278.20 C 794.35 277.27 795.86 282.70 797.36 286.13 C 798.86 289.57 800.36 296.45 801.87 298.83 C 803.37 301.21 804.87 300.15 806.38 300.41 C 807.88 300.68 809.38 300.41 810.88 300.41 C 812.39 300.41 813.89 300.55 815.39 300.41 C 816.90 300.28 818.40 302.93 819.90 299.62 C 821.40 296.31 822.91 280.71 824.41 280.58 C 825.91 280.45 827.41 299.49 828.92 298.83 C 830.42 298.17 831.92 276.35 833.43 276.61 C 834.93 276.88 836.43 298.03 837.93 300.41 C 839.44 302.79 840.94 302.66 842.44 290.89 C 843.94 279.13 845.45 237.08 846.95 229.81 C 848.45 222.53 849.96 241.44 851.46 247.26 C 852.96 253.08 854.46 260.09 855.97 264.71 C 857.47 269.34 858.97 269.34 860.48 275.03 C 861.98 280.71 863.48 299.49 864.98 298.83 C 866.49 298.17 867.99 270.66 869.49 271.06 C 870.99 271.46 873.25 296.18 874.00 301.21 L 874.00 302.00 L 58.00 302.00 Z"/><path fill="none" stroke="#22C55E" stroke-linecap="round" stroke-linejoin="round" stroke-opacity=".2" stroke-width="7" d="M 58.00 302.00 C 58.75 302.00 61.01 302.00 62.51 302.00 C 64.01 302.00 65.51 302.00 67.02 302.00 C 68.52 302.00 70.02 302.93 71.52 302.00 C 73.03 301.07 74.53 299.49 76.03 296.45 C 77.54 293.41 79.04 287.06 80.54 283.75 C 82.04 280.45 83.55 273.70 85.05 276.61 C 86.55 279.52 88.06 296.98 89.56 301.21 C 91.06 305.44 92.56 301.87 94.07 302.00 C 95.57 302.13 97.07 302.26 98.57 302.00 C 100.08 301.74 101.58 300.41 103.08 300.41 C 104.59 300.41 106.09 302.93 107.59 302.00 C 109.09 301.07 110.60 295.26 112.10 294.86 C 113.60 294.46 115.10 299.49 116.61 299.62 C 118.11 299.75 119.61 301.07 121.12 295.65 C 122.62 290.23 124.12 271.06 125.62 267.09 C 127.13 263.13 128.63 268.42 130.13 271.85 C 131.64 275.29 133.14 284.55 134.64 287.72 C 136.14 290.89 137.65 288.78 139.15 290.89 C 140.65 293.01 142.15 298.96 143.66 300.41 C 145.16 301.87 146.66 299.49 148.17 299.62 C 149.67 299.75 151.17 300.81 152.67 301.21 C 154.18 301.60 155.68 301.87 157.18 302.00 C 158.69 302.13 160.19 302.00 161.69 302.00 C 163.19 302.00 164.70 305.44 166.20 302.00 C 167.70 298.56 169.20 282.43 170.71 281.37 C 172.21 280.32 173.71 296.98 175.22 295.65 C 176.72 294.33 178.22 273.57 179.72 273.44 C 181.23 273.31 182.73 293.41 184.23 294.86 C 185.73 296.31 187.24 282.17 188.74 282.17 C 190.24 282.17 191.75 296.18 193.25 294.86 C 194.75 293.54 196.25 275.95 197.76 274.23 C 199.26 272.51 200.76 281.64 202.27 284.55 C 203.77 287.46 205.27 288.78 206.77 291.69 C 208.28 294.60 209.78 303.59 211.28 302.00 C 212.78 300.41 214.29 283.22 215.79 282.17 C 217.29 281.11 218.80 292.35 220.30 295.65 C 221.80 298.96 223.30 301.34 224.81 302.00 C 226.31 302.66 227.81 303.98 229.31 299.62 C 230.82 295.26 232.32 303.45 233.82 275.82 C 235.33 248.19 236.83 133.95 238.33 133.81 C 239.83 133.68 241.34 249.51 242.84 275.03 C 244.34 300.55 245.85 282.43 247.35 286.93 C 248.85 291.42 250.35 301.87 251.86 302.00 C 253.36 302.13 254.86 287.98 256.36 287.72 C 257.87 287.46 259.37 300.28 260.87 300.41 C 262.38 300.55 263.88 289.44 265.38 288.51 C 266.88 287.59 268.39 295.65 269.89 294.86 C 271.39 294.07 272.90 285.74 274.40 283.75 C 275.90 281.77 277.40 284.41 278.91 282.96 C 280.41 281.51 281.91 272.91 283.41 275.03 C 284.92 277.14 286.42 291.16 287.92 295.65 C 289.43 300.15 290.93 303.85 292.43 302.00 C 293.93 300.15 295.44 287.59 296.94 284.55 C 298.44 281.51 299.94 282.03 301.45 283.75 C 302.95 285.47 304.45 294.60 305.96 294.86 C 307.46 295.12 308.96 285.60 310.46 285.34 C 311.97 285.08 313.47 292.35 314.97 293.27 C 316.48 294.20 317.98 291.16 319.48 290.89 C 320.98 290.63 322.49 290.50 323.99 291.69 C 325.49 292.88 326.99 296.31 328.50 298.03 C 330.00 299.75 331.50 302.26 333.01 302.00 C 334.51 301.74 336.01 296.45 337.51 296.45 C 339.02 296.45 340.52 301.07 342.02 302.00 C 343.52 302.93 345.03 302.00 346.53 302.00 C 348.03 302.00 349.54 302.00 351.04 302.00 C 352.54 302.00 354.04 303.19 355.55 302.00 C 357.05 300.81 358.55 294.86 360.06 294.86 C 361.56 294.86 363.06 300.81 364.56 302.00 C 366.07 303.19 367.57 303.45 369.07 302.00 C 370.57 300.55 372.08 293.93 373.58 293.27 C 375.08 292.61 376.59 296.58 378.09 298.03 C 379.59 299.49 381.09 301.34 382.60 302.00 C 384.10 302.66 385.60 302.40 387.10 302.00 C 388.61 301.60 390.11 299.88 391.61 299.62 C 393.12 299.36 394.62 300.81 396.12 300.41 C 397.62 300.02 399.13 300.81 400.63 297.24 C 402.13 293.67 403.64 279.26 405.14 278.99 C 406.64 278.73 408.14 291.82 409.65 295.65 C 411.15 299.49 412.65 302.40 414.15 302.00 C 415.66 301.60 417.16 297.11 418.66 293.27 C 420.17 289.44 421.67 279.39 423.17 278.99 C 424.67 278.60 426.18 287.19 427.68 290.89 C 429.18 294.60 430.69 303.72 432.19 301.21 C 433.69 298.69 435.19 280.98 436.70 275.82 C 438.20 270.66 439.70 269.74 441.20 270.27 C 442.71 270.80 444.21 274.63 445.71 278.99 C 447.22 283.36 448.72 292.61 450.22 296.45 C 451.72 300.28 453.23 301.47 454.73 302.00 C 456.23 302.53 457.73 299.62 459.24 299.62 C 460.74 299.62 462.24 301.60 463.75 302.00 C 465.25 302.40 466.75 302.00 468.25 302.00 C 469.76 302.00 471.26 304.64 472.76 302.00 C 474.27 299.36 475.77 288.65 477.27 286.13 C 478.77 283.62 480.28 285.21 481.78 286.93 C 483.28 288.65 484.78 294.46 486.29 296.45 C 487.79 298.43 489.29 298.30 490.80 298.83 C 492.30 299.36 493.80 299.09 495.30 299.62 C 496.81 300.15 498.31 302.40 499.81 302.00 C 501.31 301.60 502.82 297.64 504.32 297.24 C 505.82 296.84 507.33 301.21 508.83 299.62 C 510.33 298.03 511.83 288.12 513.34 287.72 C 514.84 287.32 516.34 295.92 517.85 297.24 C 519.35 298.56 520.85 296.58 522.35 295.65 C 523.86 294.73 525.36 299.75 526.86 291.69 C 528.36 283.62 529.87 251.49 531.37 247.26 C 532.87 243.03 534.38 294.46 535.88 266.30 C 537.38 238.14 538.88 100.49 540.39 78.28 C 541.89 56.07 543.39 108.29 544.90 133.02 C 546.40 157.75 547.90 207.06 549.40 226.63 C 550.91 246.20 552.41 249.11 553.91 250.43 C 555.41 251.76 556.92 230.47 558.42 234.57 C 559.92 238.67 561.43 263.79 562.93 275.03 C 564.43 286.27 565.93 298.30 567.44 302.00 C 568.94 305.70 570.44 297.77 571.94 297.24 C 573.45 296.71 574.95 301.87 576.45 298.83 C 577.96 295.79 579.46 278.99 580.96 278.99 C 582.46 278.99 583.97 300.28 585.47 298.83 C 586.97 297.37 588.48 275.82 589.98 270.27 C 591.48 264.71 592.98 260.22 594.49 265.51 C 595.99 270.80 597.49 297.24 598.99 302.00 C 600.50 306.76 602.00 294.07 603.50 294.07 C 605.01 294.07 606.51 302.53 608.01 302.00 C 609.51 301.47 611.02 292.22 612.52 290.89 C 614.02 289.57 615.52 303.59 617.03 294.07 C 618.53 284.55 620.03 238.40 621.54 233.77 C 623.04 229.15 624.54 267.62 626.04 266.30 C 627.55 264.98 629.05 228.75 630.55 225.84 C 632.06 222.93 633.56 249.24 635.06 248.85 C 636.56 248.45 638.07 222.80 639.57 223.46 C 641.07 224.12 642.57 249.11 644.08 252.81 C 645.58 256.52 647.08 238.00 648.59 245.67 C 650.09 253.34 651.59 292.22 653.09 298.83 C 654.60 305.44 656.10 289.70 657.60 285.34 C 659.10 280.98 660.61 287.72 662.11 272.65 C 663.61 257.57 665.12 195.30 666.62 194.90 C 668.12 194.50 669.62 253.08 671.13 270.27 C 672.63 287.46 674.13 293.80 675.64 298.03 C 677.14 302.26 678.64 296.18 680.14 295.65 C 681.65 295.12 683.15 297.50 684.65 294.86 C 686.15 292.22 687.66 281.24 689.16 279.79 C 690.66 278.33 692.17 282.96 693.67 286.13 C 695.17 289.31 696.67 297.50 698.18 298.83 C 699.68 300.15 701.18 294.86 702.69 294.07 C 704.19 293.27 705.69 293.01 707.19 294.07 C 708.70 295.12 710.20 299.88 711.70 300.41 C 713.20 300.94 714.71 297.24 716.21 297.24 C 717.71 297.24 719.22 299.88 720.72 300.41 C 722.22 300.94 723.72 309.54 725.23 300.41 C 726.73 291.29 728.23 248.19 729.73 245.67 C 731.24 243.16 732.74 282.83 734.24 285.34 C 735.75 287.85 737.25 260.09 738.75 260.75 C 740.25 261.41 741.76 285.21 743.26 289.31 C 744.76 293.41 746.27 283.62 747.77 285.34 C 749.27 287.06 750.77 297.11 752.28 299.62 C 753.78 302.13 755.28 300.28 756.78 300.41 C 758.29 300.55 759.79 300.41 761.29 300.41 C 762.80 300.41 764.30 300.81 765.80 300.41 C 767.30 300.02 768.81 305.57 770.31 298.03 C 771.81 290.50 773.31 255.99 774.82 255.19 C 776.32 254.40 777.82 289.57 779.33 293.27 C 780.83 296.98 782.33 277.67 783.83 277.41 C 785.34 277.14 786.84 291.55 788.34 291.69 C 789.85 291.82 791.35 279.13 792.85 278.20 C 794.35 277.27 795.86 282.70 797.36 286.13 C 798.86 289.57 800.36 296.45 801.87 298.83 C 803.37 301.21 804.87 300.15 806.38 300.41 C 807.88 300.68 809.38 300.41 810.88 300.41 C 812.39 300.41 813.89 300.55 815.39 300.41 C 816.90 300.28 818.40 302.93 819.90 299.62 C 821.40 296.31 822.91 280.71 824.41 280.58 C 825.91 280.45 827.41 299.49 828.92 298.83 C 830.42 298.17 831.92 276.35 833.43 276.61 C 834.93 276.88 836.43 298.03 837.93 300.41 C 839.44 302.79 840.94 302.66 842.44 290.89 C 843.94 279.13 845.45 237.08 846.95 229.81 C 848.45 222.53 849.96 241.44 851.46 247.26 C 852.96 253.08 854.46 260.09 855.97 264.71 C 857.47 269.34 858.97 269.34 860.48 275.03 C 861.98 280.71 863.48 299.49 864.98 298.83 C 866.49 298.17 867.99 270.66 869.49 271.06 C 870.99 271.46 873.25 296.18 874.00 301.21"/><path fill="none" stroke="#22C55E" stroke-linecap="round" stroke-linejoin="round" stroke-width="2.4" d="M 58.00 302.00 C 58.75 302.00 61.01 302.00 62.51 302.00 C 64.01 302.00 65.51 302.00 67.02 302.00 C 68.52 302.00 70.02 302.93 71.52 302.00 C 73.03 301.07 74.53 299.49 76.03 296.45 C 77.54 293.41 79.04 287.06 80.54 283.75 C 82.04 280.45 83.55 273.70 85.05 276.61 C 86.55 279.52 88.06 296.98 89.56 301.21 C 91.06 305.44 92.56 301.87 94.07 302.00 C 95.57 302.13 97.07 302.26 98.57 302.00 C 100.08 301.74 101.58 300.41 103.08 300.41 C 104.59 300.41 106.09 302.93 107.59 302.00 C 109.09 301.07 110.60 295.26 112.10 294.86 C 113.60 294.46 115.10 299.49 116.61 299.62 C 118.11 299.75 119.61 301.07 121.12 295.65 C 122.62 290.23 124.12 271.06 125.62 267.09 C 127.13 263.13 128.63 268.42 130.13 271.85 C 131.64 275.29 133.14 284.55 134.64 287.72 C 136.14 290.89 137.65 288.78 139.15 290.89 C 140.65 293.01 142.15 298.96 143.66 300.41 C 145.16 301.87 146.66 299.49 148.17 299.62 C 149.67 299.75 151.17 300.81 152.67 301.21 C 154.18 301.60 155.68 301.87 157.18 302.00 C 158.69 302.13 160.19 302.00 161.69 302.00 C 163.19 302.00 164.70 305.44 166.20 302.00 C 167.70 298.56 169.20 282.43 170.71 281.37 C 172.21 280.32 173.71 296.98 175.22 295.65 C 176.72 294.33 178.22 273.57 179.72 273.44 C 181.23 273.31 182.73 293.41 184.23 294.86 C 185.73 296.31 187.24 282.17 188.74 282.17 C 190.24 282.17 191.75 296.18 193.25 294.86 C 194.75 293.54 196.25 275.95 197.76 274.23 C 199.26 272.51 200.76 281.64 202.27 284.55 C 203.77 287.46 205.27 288.78 206.77 291.69 C 208.28 294.60 209.78 303.59 211.28 302.00 C 212.78 300.41 214.29 283.22 215.79 282.17 C 217.29 281.11 218.80 292.35 220.30 295.65 C 221.80 298.96 223.30 301.34 224.81 302.00 C 226.31 302.66 227.81 303.98 229.31 299.62 C 230.82 295.26 232.32 303.45 233.82 275.82 C 235.33 248.19 236.83 133.95 238.33 133.81 C 239.83 133.68 241.34 249.51 242.84 275.03 C 244.34 300.55 245.85 282.43 247.35 286.93 C 248.85 291.42 250.35 301.87 251.86 302.00 C 253.36 302.13 254.86 287.98 256.36 287.72 C 257.87 287.46 259.37 300.28 260.87 300.41 C 262.38 300.55 263.88 289.44 265.38 288.51 C 266.88 287.59 268.39 295.65 269.89 294.86 C 271.39 294.07 272.90 285.74 274.40 283.75 C 275.90 281.77 277.40 284.41 278.91 282.96 C 280.41 281.51 281.91 272.91 283.41 275.03 C 284.92 277.14 286.42 291.16 287.92 295.65 C 289.43 300.15 290.93 303.85 292.43 302.00 C 293.93 300.15 295.44 287.59 296.94 284.55 C 298.44 281.51 299.94 282.03 301.45 283.75 C 302.95 285.47 304.45 294.60 305.96 294.86 C 307.46 295.12 308.96 285.60 310.46 285.34 C 311.97 285.08 313.47 292.35 314.97 293.27 C 316.48 294.20 317.98 291.16 319.48 290.89 C 320.98 290.63 322.49 290.50 323.99 291.69 C 325.49 292.88 326.99 296.31 328.50 298.03 C 330.00 299.75 331.50 302.26 333.01 302.00 C 334.51 301.74 336.01 296.45 337.51 296.45 C 339.02 296.45 340.52 301.07 342.02 302.00 C 343.52 302.93 345.03 302.00 346.53 302.00 C 348.03 302.00 349.54 302.00 351.04 302.00 C 352.54 302.00 354.04 303.19 355.55 302.00 C 357.05 300.81 358.55 294.86 360.06 294.86 C 361.56 294.86 363.06 300.81 364.56 302.00 C 366.07 303.19 367.57 303.45 369.07 302.00 C 370.57 300.55 372.08 293.93 373.58 293.27 C 375.08 292.61 376.59 296.58 378.09 298.03 C 379.59 299.49 381.09 301.34 382.60 302.00 C 384.10 302.66 385.60 302.40 387.10 302.00 C 388.61 301.60 390.11 299.88 391.61 299.62 C 393.12 299.36 394.62 300.81 396.12 300.41 C 397.62 300.02 399.13 300.81 400.63 297.24 C 402.13 293.67 403.64 279.26 405.14 278.99 C 406.64 278.73 408.14 291.82 409.65 295.65 C 411.15 299.49 412.65 302.40 414.15 302.00 C 415.66 301.60 417.16 297.11 418.66 293.27 C 420.17 289.44 421.67 279.39 423.17 278.99 C 424.67 278.60 426.18 287.19 427.68 290.89 C 429.18 294.60 430.69 303.72 432.19 301.21 C 433.69 298.69 435.19 280.98 436.70 275.82 C 438.20 270.66 439.70 269.74 441.20 270.27 C 442.71 270.80 444.21 274.63 445.71 278.99 C 447.22 283.36 448.72 292.61 450.22 296.45 C 451.72 300.28 453.23 301.47 454.73 302.00 C 456.23 302.53 457.73 299.62 459.24 299.62 C 460.74 299.62 462.24 301.60 463.75 302.00 C 465.25 302.40 466.75 302.00 468.25 302.00 C 469.76 302.00 471.26 304.64 472.76 302.00 C 474.27 299.36 475.77 288.65 477.27 286.13 C 478.77 283.62 480.28 285.21 481.78 286.93 C 483.28 288.65 484.78 294.46 486.29 296.45 C 487.79 298.43 489.29 298.30 490.80 298.83 C 492.30 299.36 493.80 299.09 495.30 299.62 C 496.81 300.15 498.31 302.40 499.81 302.00 C 501.31 301.60 502.82 297.64 504.32 297.24 C 505.82 296.84 507.33 301.21 508.83 299.62 C 510.33 298.03 511.83 288.12 513.34 287.72 C 514.84 287.32 516.34 295.92 517.85 297.24 C 519.35 298.56 520.85 296.58 522.35 295.65 C 523.86 294.73 525.36 299.75 526.86 291.69 C 528.36 283.62 529.87 251.49 531.37 247.26 C 532.87 243.03 534.38 294.46 535.88 266.30 C 537.38 238.14 538.88 100.49 540.39 78.28 C 541.89 56.07 543.39 108.29 544.90 133.02 C 546.40 157.75 547.90 207.06 549.40 226.63 C 550.91 246.20 552.41 249.11 553.91 250.43 C 555.41 251.76 556.92 230.47 558.42 234.57 C 559.92 238.67 561.43 263.79 562.93 275.03 C 564.43 286.27 565.93 298.30 567.44 302.00 C 568.94 305.70 570.44 297.77 571.94 297.24 C 573.45 296.71 574.95 301.87 576.45 298.83 C 577.96 295.79 579.46 278.99 580.96 278.99 C 582.46 278.99 583.97 300.28 585.47 298.83 C 586.97 297.37 588.48 275.82 589.98 270.27 C 591.48 264.71 592.98 260.22 594.49 265.51 C 595.99 270.80 597.49 297.24 598.99 302.00 C 600.50 306.76 602.00 294.07 603.50 294.07 C 605.01 294.07 606.51 302.53 608.01 302.00 C 609.51 301.47 611.02 292.22 612.52 290.89 C 614.02 289.57 615.52 303.59 617.03 294.07 C 618.53 284.55 620.03 238.40 621.54 233.77 C 623.04 229.15 624.54 267.62 626.04 266.30 C 627.55 264.98 629.05 228.75 630.55 225.84 C 632.06 222.93 633.56 249.24 635.06 248.85 C 636.56 248.45 638.07 222.80 639.57 223.46 C 641.07 224.12 642.57 249.11 644.08 252.81 C 645.58 256.52 647.08 238.00 648.59 245.67 C 650.09 253.34 651.59 292.22 653.09 298.83 C 654.60 305.44 656.10 289.70 657.60 285.34 C 659.10 280.98 660.61 287.72 662.11 272.65 C 663.61 257.57 665.12 195.30 666.62 194.90 C 668.12 194.50 669.62 253.08 671.13 270.27 C 672.63 287.46 674.13 293.80 675.64 298.03 C 677.14 302.26 678.64 296.18 680.14 295.65 C 681.65 295.12 683.15 297.50 684.65 294.86 C 686.15 292.22 687.66 281.24 689.16 279.79 C 690.66 278.33 692.17 282.96 693.67 286.13 C 695.17 289.31 696.67 297.50 698.18 298.83 C 699.68 300.15 701.18 294.86 702.69 294.07 C 704.19 293.27 705.69 293.01 707.19 294.07 C 708.70 295.12 710.20 299.88 711.70 300.41 C 713.20 300.94 714.71 297.24 716.21 297.24 C 717.71 297.24 719.22 299.88 720.72 300.41 C 722.22 300.94 723.72 309.54 725.23 300.41 C 726.73 291.29 728.23 248.19 729.73 245.67 C 731.24 243.16 732.74 282.83 734.24 285.34 C 735.75 287.85 737.25 260.09 738.75 260.75 C 740.25 261.41 741.76 285.21 743.26 289.31 C 744.76 293.41 746.27 283.62 747.77 285.34 C 749.27 287.06 750.77 297.11 752.28 299.62 C 753.78 302.13 755.28 300.28 756.78 300.41 C 758.29 300.55 759.79 300.41 761.29 300.41 C 762.80 300.41 764.30 300.81 765.80 300.41 C 767.30 300.02 768.81 305.57 770.31 298.03 C 771.81 290.50 773.31 255.99 774.82 255.19 C 776.32 254.40 777.82 289.57 779.33 293.27 C 780.83 296.98 782.33 277.67 783.83 277.41 C 785.34 277.14 786.84 291.55 788.34 291.69 C 789.85 291.82 791.35 279.13 792.85 278.20 C 794.35 277.27 795.86 282.70 797.36 286.13 C 798.86 289.57 800.36 296.45 801.87 298.83 C 803.37 301.21 804.87 300.15 806.38 300.41 C 807.88 300.68 809.38 300.41 810.88 300.41 C 812.39 300.41 813.89 300.55 815.39 300.41 C 816.90 300.28 818.40 302.93 819.90 299.62 C 821.40 296.31 822.91 280.71 824.41 280.58 C 825.91 280.45 827.41 299.49 828.92 298.83 C 830.42 298.17 831.92 276.35 833.43 276.61 C 834.93 276.88 836.43 298.03 837.93 300.41 C 839.44 302.79 840.94 302.66 842.44 290.89 C 843.94 279.13 845.45 237.08 846.95 229.81 C 848.45 222.53 849.96 241.44 851.46 247.26 C 852.96 253.08 854.46 260.09 855.97 264.71 C 857.47 269.34 858.97 269.34 860.48 275.03 C 861.98 280.71 863.48 299.49 864.98 298.83 C 866.49 298.17 867.99 270.66 869.49 271.06 C 870.99 271.46 873.25 296.18 874.00 301.21"/><circle cx="540.4" cy="78.3" r="4.5" fill="#4ADE80" stroke="#0B1120" stroke-width="2"/><text x="540.4" y="68.3" fill="#4ADE80" font-family="ui-monospace,Menlo,monospace" font-size="10" font-weight="700" text-anchor="middle">282</text><circle cx="874" cy="301.2" r="3.5" fill="#F8FAFC"/><text x="16" y="183" fill="#94A3B8" font-family="ui-monospace,Menlo,monospace" font-size="10" text-anchor="middle" transform="rotate(-90 16 183)">Contributions</text></svg>