<svg xmlns="http://www.w3.org/2000/svg" width="900" height="340" viewBox="0 0 900 340" role="img" aria-label="Contribution activity, last 6 months">
<defs>
<linearGradient id="bg" x1="0" y1="0" x2="0" y2="1"><stop offset="0" stop-color="#0F172A"/><stop offset="1" stop-color="#0B1120"/></linearGradient>
<linearGradient id="area" x1="0" y1="0" x2="0" y2="1"><stop offset="0" stop-color="#22C55E" stop-opacity="0.42"/><stop offset="0.7" stop-color="#22C55E" stop-opacity="0.08"/><stop offset="1" stop-color="#22C55E" stop-opacity="0"/></linearGradient>
</defs>
<rect x="0" y="0" width="900" height="340" rx="14" fill="url(#bg)"/>
<text x="450" y="32" text-anchor="middle" font-family="ui-monospace,Menlo,monospace" font-size="17" font-weight="700" fill="#F8FAFC" letter-spacing="0.5">last 6 months</text>
<text x="450" y="50" text-anchor="middle" font-family="ui-monospace,Menlo,monospace" font-size="11" fill="#94A3B8">3,876 contributions · peak 282</text>
<line x1="58" y1="302.0" x2="874" y2="302.0" stroke="#1E293B" stroke-width="1" stroke-dasharray="2 4"/>
<text x="48" y="305.5" text-anchor="end" font-family="ui-monospace,Menlo,monospace" font-size="10" fill="#94A3B8">0</text>
<line x1="58" y1="242.5" x2="874" y2="242.5" stroke="#1E293B" stroke-width="1" stroke-dasharray="2 4"/>
<text x="48" y="246.0" text-anchor="end" font-family="ui-monospace,Menlo,monospace" font-size="10" fill="#94A3B8">75</text>
<line x1="58" y1="183.0" x2="874" y2="183.0" stroke="#1E293B" stroke-width="1" stroke-dasharray="2 4"/>
<text x="48" y="186.5" text-anchor="end" font-family="ui-monospace,Menlo,monospace" font-size="10" fill="#94A3B8">150</text>
<line x1="58" y1="123.5" x2="874" y2="123.5" stroke="#1E293B" stroke-width="1" stroke-dasharray="2 4"/>
<text x="48" y="127.0" text-anchor="end" font-family="ui-monospace,Menlo,monospace" font-size="10" fill="#94A3B8">225</text>
<line x1="58" y1="64.0" x2="874" y2="64.0" stroke="#1E293B" stroke-width="1" stroke-dasharray="2 4"/>
<text x="48" y="67.5" text-anchor="end" font-family="ui-monospace,Menlo,monospace" font-size="10" fill="#94A3B8">300</text>
<line x1="71.5" y1="64" x2="71.5" y2="302" stroke="#1E293B" stroke-width="1" stroke-opacity="0.6"/>
<text x="71.5" y="322" text-anchor="middle" font-family="ui-monospace,Menlo,monospace" font-size="10" fill="#94A3B8">Jan</text>
<line x1="211.3" y1="64" x2="211.3" y2="302" stroke="#1E293B" stroke-width="1" stroke-opacity="0.6"/>
<text x="211.3" y="322" text-anchor="middle" font-family="ui-monospace,Menlo,monospace" font-size="10" fill="#94A3B8">Feb</text>
<line x1="337.5" y1="64" x2="337.5" y2="302" stroke="#1E293B" stroke-width="1" stroke-opacity="0.6"/>
<text x="337.5" y="322" text-anchor="middle" font-family="ui-monospace,Menlo,monospace" font-size="10" fill="#94A3B8">Mar</text>
<line x1="477.3" y1="64" x2="477.3" y2="302" stroke="#1E293B" stroke-width="1" stroke-opacity="0.6"/>
<text x="477.3" y="322" text-anchor="middle" font-family="ui-monospace,Menlo,monospace" font-size="10" fill="#94A3B8">Apr</text>
<line x1="612.5" y1="64" x2="612.5" y2="302" stroke="#1E293B" stroke-width="1" stroke-opacity="0.6"/>
<text x="612.5" y="322" text-anchor="middle" font-family="ui-monospace,Menlo,monospace" font-size="10" fill="#94A3B8">May</text>
<line x1="752.3" y1="64" x2="752.3" y2="302" stroke="#1E293B" stroke-width="1" stroke-opacity="0.6"/>
<text x="752.3" y="322" text-anchor="middle" font-family="ui-monospace,Menlo,monospace" font-size="10" fill="#94A3B8">Jun</text>
<path d="M 58.00 298.03 C 58.75 298.69 61.01 301.34 62.51 302.00 C 64.01 302.66 65.51 302.00 67.02 302.00 C 68.52 302.00 70.02 302.00 71.52 302.00 C 73.03 302.00 74.53 302.00 76.03 302.00 C 77.54 302.00 79.04 302.00 80.54 302.00 C 82.04 302.00 83.55 302.00 85.05 302.00 C 86.55 302.00 88.06 302.93 89.56 302.00 C 91.06 301.07 92.56 299.49 94.07 296.45 C 95.57 293.41 97.07 287.06 98.57 283.75 C 100.08 280.45 101.58 273.70 103.08 276.61 C 104.59 279.52 106.09 296.98 107.59 301.21 C 109.09 305.44 110.60 301.87 112.10 302.00 C 113.60 302.13 115.10 302.26 116.61 302.00 C 118.11 301.74 119.61 300.41 121.12 300.41 C 122.62 300.41 124.12 302.93 125.62 302.00 C 127.13 301.07 128.63 295.26 130.13 294.86 C 131.64 294.46 133.14 299.49 134.64 299.62 C 136.14 299.75 137.65 301.07 139.15 295.65 C 140.65 290.23 142.15 271.06 143.66 267.09 C 145.16 263.13 146.66 268.42 148.17 271.85 C 149.67 275.29 151.17 284.55 152.67 287.72 C 154.18 290.89 155.68 288.78 157.18 290.89 C 158.69 293.01 160.19 298.96 161.69 300.41 C 163.19 301.87 164.70 299.49 166.20 299.62 C 167.70 299.75 169.20 300.81 170.71 301.21 C 172.21 301.60 173.71 301.87 175.22 302.00 C 176.72 302.13 178.22 302.00 179.72 302.00 C 181.23 302.00 182.73 305.44 184.23 302.00 C 185.73 298.56 187.24 282.43 188.74 281.37 C 190.24 280.32 191.75 296.98 193.25 295.65 C 194.75 294.33 196.25 273.57 197.76 273.44 C 199.26 273.31 200.76 293.41 202.27 294.86 C 203.77 296.31 205.27 282.17 206.77 282.17 C 208.28 282.17 209.78 296.18 211.28 294.86 C 212.78 293.54 214.29 275.95 215.79 274.23 C 217.29 272.51 218.80 281.64 220.30 284.55 C 221.80 287.46 223.30 288.78 224.81 291.69 C 226.31 294.60 227.81 303.59 229.31 302.00 C 230.82 300.41 232.32 283.22 233.82 282.17 C 235.33 281.11 236.83 292.35 238.33 295.65 C 239.83 298.96 241.34 301.34 242.84 302.00 C 244.34 302.66 245.85 303.98 247.35 299.62 C 248.85 295.26 250.35 303.45 251.86 275.82 C 253.36 248.19 254.86 133.95 256.36 133.81 C 257.87 133.68 259.37 249.51 260.87 275.03 C 262.38 300.55 263.88 282.43 265.38 286.93 C 266.88 291.42 268.39 301.87 269.89 302.00 C 271.39 302.13 272.90 287.98 274.40 287.72 C 275.90 287.46 277.40 300.28 278.91 300.41 C 280.41 300.55 281.91 289.44 283.41 288.51 C 284.92 287.59 286.42 295.65 287.92 294.86 C 289.43 294.07 290.93 285.74 292.43 283.75 C 293.93 281.77 295.44 284.41 296.94 282.96 C 298.44 281.51 299.94 272.91 301.45 275.03 C 302.95 277.14 304.45 291.16 305.96 295.65 C 307.46 300.15 308.96 303.85 310.46 302.00 C 311.97 300.15 313.47 287.59 314.97 284.55 C 316.48 281.51 317.98 282.03 319.48 283.75 C 320.98 285.47 322.49 294.60 323.99 294.86 C 325.49 295.12 326.99 285.60 328.50 285.34 C 330.00 285.08 331.50 292.35 333.01 293.27 C 334.51 294.20 336.01 291.16 337.51 290.89 C 339.02 290.63 340.52 290.50 342.02 291.69 C 343.52 292.88 345.03 296.31 346.53 298.03 C 348.03 299.75 349.54 302.26 351.04 302.00 C 352.54 301.74 354.04 296.45 355.55 296.45 C 357.05 296.45 358.55 301.07 360.06 302.00 C 361.56 302.93 363.06 302.00 364.56 302.00 C 366.07 302.00 367.57 302.00 369.07 302.00 C 370.57 302.00 372.08 303.19 373.58 302.00 C 375.08 300.81 376.59 294.86 378.09 294.86 C 379.59 294.86 381.09 300.81 382.60 302.00 C 384.10 303.19 385.60 303.45 387.10 302.00 C 388.61 300.55 390.11 293.93 391.61 293.27 C 393.12 292.61 394.62 296.58 396.12 298.03 C 397.62 299.49 399.13 301.34 400.63 302.00 C 402.13 302.66 403.64 302.40 405.14 302.00 C 406.64 301.60 408.14 299.88 409.65 299.62 C 411.15 299.36 412.65 300.81 414.15 300.41 C 415.66 300.02 417.16 300.81 418.66 297.24 C 420.17 293.67 421.67 279.26 423.17 278.99 C 424.67 278.73 426.18 291.82 427.68 295.65 C 429.18 299.49 430.69 302.40 432.19 302.00 C 433.69 301.60 435.19 297.11 436.70 293.27 C 438.20 289.44 439.70 279.39 441.20 278.99 C 442.71 278.60 444.21 287.19 445.71 290.89 C 447.22 294.60 448.72 303.72 450.22 301.21 C 451.72 298.69 453.23 280.98 454.73 275.82 C 456.23 270.66 457.73 269.74 459.24 270.27 C 460.74 270.80 462.24 274.63 463.75 278.99 C 465.25 283.36 466.75 292.61 468.25 296.45 C 469.76 300.28 471.26 301.47 472.76 302.00 C 474.27 302.53 475.77 299.62 477.27 299.62 C 478.77 299.62 480.28 301.60 481.78 302.00 C 483.28 302.40 484.78 302.00 486.29 302.00 C 487.79 302.00 489.29 304.64 490.80 302.00 C 492.30 299.36 493.80 288.65 495.30 286.13 C 496.81 283.62 498.31 285.21 499.81 286.93 C 501.31 288.65 502.82 294.46 504.32 296.45 C 505.82 298.43 507.33 298.30 508.83 298.83 C 510.33 299.36 511.83 299.09 513.34 299.62 C 514.84 300.15 516.34 302.40 517.85 302.00 C 519.35 301.60 520.85 297.64 522.35 297.24 C 523.86 296.84 525.36 301.21 526.86 299.62 C 528.36 298.03 529.87 288.12 531.37 287.72 C 532.87 287.32 534.38 295.92 535.88 297.24 C 537.38 298.56 538.88 296.58 540.39 295.65 C 541.89 294.73 543.39 299.75 544.90 291.69 C 546.40 283.62 547.90 251.49 549.40 247.26 C 550.91 243.03 552.41 294.46 553.91 266.30 C 555.41 238.14 556.92 100.49 558.42 78.28 C 559.92 56.07 561.43 108.29 562.93 133.02 C 564.43 157.75 565.93 207.06 567.44 226.63 C 568.94 246.20 570.44 249.11 571.94 250.43 C 573.45 251.76 574.95 230.47 576.45 234.57 C 577.96 238.67 579.46 263.79 580.96 275.03 C 582.46 286.27 583.97 298.30 585.47 302.00 C 586.97 305.70 588.48 297.77 589.98 297.24 C 591.48 296.71 592.98 301.87 594.49 298.83 C 595.99 295.79 597.49 278.99 598.99 278.99 C 600.50 278.99 602.00 300.28 603.50 298.83 C 605.01 297.37 606.51 275.82 608.01 270.27 C 609.51 264.71 611.02 260.22 612.52 265.51 C 614.02 270.80 615.52 297.24 617.03 302.00 C 618.53 306.76 620.03 294.07 621.54 294.07 C 623.04 294.07 624.54 302.53 626.04 302.00 C 627.55 301.47 629.05 292.22 630.55 290.89 C 632.06 289.57 633.56 303.59 635.06 294.07 C 636.56 284.55 638.07 238.40 639.57 233.77 C 641.07 229.15 642.57 267.62 644.08 266.30 C 645.58 264.98 647.08 228.75 648.59 225.84 C 650.09 222.93 651.59 249.24 653.09 248.85 C 654.60 248.45 656.10 222.80 657.60 223.46 C 659.10 224.12 660.61 249.11 662.11 252.81 C 663.61 256.52 665.12 238.00 666.62 245.67 C 668.12 253.34 669.62 292.22 671.13 298.83 C 672.63 305.44 674.13 289.70 675.64 285.34 C 677.14 280.98 678.64 287.72 680.14 272.65 C 681.65 257.57 683.15 195.30 684.65 194.90 C 686.15 194.50 687.66 253.08 689.16 270.27 C 690.66 287.46 692.17 293.80 693.67 298.03 C 695.17 302.26 696.67 296.05 698.18 295.65 C 699.68 295.26 701.18 298.30 702.69 295.65 C 704.19 293.01 705.69 281.37 707.19 279.79 C 708.70 278.20 710.20 282.96 711.70 286.13 C 713.20 289.31 714.71 297.50 716.21 298.83 C 717.71 300.15 719.22 294.86 720.72 294.07 C 722.22 293.27 723.72 293.01 725.23 294.07 C 726.73 295.12 728.23 299.88 729.73 300.41 C 731.24 300.94 732.74 297.24 734.24 297.24 C 735.75 297.24 737.25 299.88 738.75 300.41 C 740.25 300.94 741.76 309.54 743.26 300.41 C 744.76 291.29 746.27 248.19 747.77 245.67 C 749.27 243.16 750.77 282.83 752.28 285.34 C 753.78 287.85 755.28 260.09 756.78 260.75 C 758.29 261.41 759.79 285.08 761.29 289.31 C 762.80 293.54 764.30 284.28 765.80 286.13 C 767.30 287.98 768.81 298.03 770.31 300.41 C 771.81 302.79 773.31 300.41 774.82 300.41 C 776.32 300.41 777.82 300.41 779.33 300.41 C 780.83 300.41 782.33 300.81 783.83 300.41 C 785.34 300.02 786.84 305.57 788.34 298.03 C 789.85 290.50 791.35 255.99 792.85 255.19 C 794.35 254.40 795.86 289.57 797.36 293.27 C 798.86 296.98 800.36 277.67 801.87 277.41 C 803.37 277.14 804.87 291.55 806.38 291.69 C 807.88 291.82 809.38 279.13 810.88 278.20 C 812.39 277.27 813.89 282.70 815.39 286.13 C 816.90 289.57 818.40 296.45 819.90 298.83 C 821.40 301.21 822.91 300.15 824.41 300.41 C 825.91 300.68 827.41 300.41 828.92 300.41 C 830.42 300.41 831.92 300.55 833.43 300.41 C 834.93 300.28 836.43 302.93 837.93 299.62 C 839.44 296.31 840.94 280.71 842.44 280.58 C 843.94 280.45 845.45 299.49 846.95 298.83 C 848.45 298.17 849.96 276.35 851.46 276.61 C 852.96 276.88 854.46 298.03 855.97 300.41 C 857.47 302.79 858.97 302.66 860.48 290.89 C 861.98 279.13 863.48 237.08 864.98 229.81 C 866.49 222.53 867.99 237.08 869.49 247.26 C 870.99 257.44 873.25 283.62 874.00 290.89 L 874.00 302.00 L 58.00 302.00 Z" fill="url(#area)"/>
<path d="M 58.00 298.03 C 58.75 298.69 61.01 301.34 62.51 302.00 C 64.01 302.66 65.51 302.00 67.02 302.00 C 68.52 302.00 70.02 302.00 71.52 302.00 C 73.03 302.00 74.53 302.00 76.03 302.00 C 77.54 302.00 79.04 302.00 80.54 302.00 C 82.04 302.00 83.55 302.00 85.05 302.00 C 86.55 302.00 88.06 302.93 89.56 302.00 C 91.06 301.07 92.56 299.49 94.07 296.45 C 95.57 293.41 97.07 287.06 98.57 283.75 C 100.08 280.45 101.58 273.70 103.08 276.61 C 104.59 279.52 106.09 296.98 107.59 301.21 C 109.09 305.44 110.60 301.87 112.10 302.00 C 113.60 302.13 115.10 302.26 116.61 302.00 C 118.11 301.74 119.61 300.41 121.12 300.41 C 122.62 300.41 124.12 302.93 125.62 302.00 C 127.13 301.07 128.63 295.26 130.13 294.86 C 131.64 294.46 133.14 299.49 134.64 299.62 C 136.14 299.75 137.65 301.07 139.15 295.65 C 140.65 290.23 142.15 271.06 143.66 267.09 C 145.16 263.13 146.66 268.42 148.17 271.85 C 149.67 275.29 151.17 284.55 152.67 287.72 C 154.18 290.89 155.68 288.78 157.18 290.89 C 158.69 293.01 160.19 298.96 161.69 300.41 C 163.19 301.87 164.70 299.49 166.20 299.62 C 167.70 299.75 169.20 300.81 170.71 301.21 C 172.21 301.60 173.71 301.87 175.22 302.00 C 176.72 302.13 178.22 302.00 179.72 302.00 C 181.23 302.00 182.73 305.44 184.23 302.00 C 185.73 298.56 187.24 282.43 188.74 281.37 C 190.24 280.32 191.75 296.98 193.25 295.65 C 194.75 294.33 196.25 273.57 197.76 273.44 C 199.26 273.31 200.76 293.41 202.27 294.86 C 203.77 296.31 205.27 282.17 206.77 282.17 C 208.28 282.17 209.78 296.18 211.28 294.86 C 212.78 293.54 214.29 275.95 215.79 274.23 C 217.29 272.51 218.80 281.64 220.30 284.55 C 221.80 287.46 223.30 288.78 224.81 291.69 C 226.31 294.60 227.81 303.59 229.31 302.00 C 230.82 300.41 232.32 283.22 233.82 282.17 C 235.33 281.11 236.83 292.35 238.33 295.65 C 239.83 298.96 241.34 301.34 242.84 302.00 C 244.34 302.66 245.85 303.98 247.35 299.62 C 248.85 295.26 250.35 303.45 251.86 275.82 C 253.36 248.19 254.86 133.95 256.36 133.81 C 257.87 133.68 259.37 249.51 260.87 275.03 C 262.38 300.55 263.88 282.43 265.38 286.93 C 266.88 291.42 268.39 301.87 269.89 302.00 C 271.39 302.13 272.90 287.98 274.40 287.72 C 275.90 287.46 277.40 300.28 278.91 300.41 C 280.41 300.55 281.91 289.44 283.41 288.51 C 284.92 287.59 286.42 295.65 287.92 294.86 C 289.43 294.07 290.93 285.74 292.43 283.75 C 293.93 281.77 295.44 284.41 296.94 282.96 C 298.44 281.51 299.94 272.91 301.45 275.03 C 302.95 277.14 304.45 291.16 305.96 295.65 C 307.46 300.15 308.96 303.85 310.46 302.00 C 311.97 300.15 313.47 287.59 314.97 284.55 C 316.48 281.51 317.98 282.03 319.48 283.75 C 320.98 285.47 322.49 294.60 323.99 294.86 C 325.49 295.12 326.99 285.60 328.50 285.34 C 330.00 285.08 331.50 292.35 333.01 293.27 C 334.51 294.20 336.01 291.16 337.51 290.89 C 339.02 290.63 340.52 290.50 342.02 291.69 C 343.52 292.88 345.03 296.31 346.53 298.03 C 348.03 299.75 349.54 302.26 351.04 302.00 C 352.54 301.74 354.04 296.45 355.55 296.45 C 357.05 296.45 358.55 301.07 360.06 302.00 C 361.56 302.93 363.06 302.00 364.56 302.00 C 366.07 302.00 367.57 302.00 369.07 302.00 C 370.57 302.00 372.08 303.19 373.58 302.00 C 375.08 300.81 376.59 294.86 378.09 294.86 C 379.59 294.86 381.09 300.81 382.60 302.00 C 384.10 303.19 385.60 303.45 387.10 302.00 C 388.61 300.55 390.11 293.93 391.61 293.27 C 393.12 292.61 394.62 296.58 396.12 298.03 C 397.62 299.49 399.13 301.34 400.63 302.00 C 402.13 302.66 403.64 302.40 405.14 302.00 C 406.64 301.60 408.14 299.88 409.65 299.62 C 411.15 299.36 412.65 300.81 414.15 300.41 C 415.66 300.02 417.16 300.81 418.66 297.24 C 420.17 293.67 421.67 279.26 423.17 278.99 C 424.67 278.73 426.18 291.82 427.68 295.65 C 429.18 299.49 430.69 302.40 432.19 302.00 C 433.69 301.60 435.19 297.11 436.70 293.27 C 438.20 289.44 439.70 279.39 441.20 278.99 C 442.71 278.60 444.21 287.19 445.71 290.89 C 447.22 294.60 448.72 303.72 450.22 301.21 C 451.72 298.69 453.23 280.98 454.73 275.82 C 456.23 270.66 457.73 269.74 459.24 270.27 C 460.74 270.80 462.24 274.63 463.75 278.99 C 465.25 283.36 466.75 292.61 468.25 296.45 C 469.76 300.28 471.26 301.47 472.76 302.00 C 474.27 302.53 475.77 299.62 477.27 299.62 C 478.77 299.62 480.28 301.60 481.78 302.00 C 483.28 302.40 484.78 302.00 486.29 302.00 C 487.79 302.00 489.29 304.64 490.80 302.00 C 492.30 299.36 493.80 288.65 495.30 286.13 C 496.81 283.62 498.31 285.21 499.81 286.93 C 501.31 288.65 502.82 294.46 504.32 296.45 C 505.82 298.43 507.33 298.30 508.83 298.83 C 510.33 299.36 511.83 299.09 513.34 299.62 C 514.84 300.15 516.34 302.40 517.85 302.00 C 519.35 301.60 520.85 297.64 522.35 297.24 C 523.86 296.84 525.36 301.21 526.86 299.62 C 528.36 298.03 529.87 288.12 531.37 287.72 C 532.87 287.32 534.38 295.92 535.88 297.24 C 537.38 298.56 538.88 296.58 540.39 295.65 C 541.89 294.73 543.39 299.75 544.90 291.69 C 546.40 283.62 547.90 251.49 549.40 247.26 C 550.91 243.03 552.41 294.46 553.91 266.30 C 555.41 238.14 556.92 100.49 558.42 78.28 C 559.92 56.07 561.43 108.29 562.93 133.02 C 564.43 157.75 565.93 207.06 567.44 226.63 C 568.94 246.20 570.44 249.11 571.94 250.43 C 573.45 251.76 574.95 230.47 576.45 234.57 C 577.96 238.67 579.46 263.79 580.96 275.03 C 582.46 286.27 583.97 298.30 585.47 302.00 C 586.97 305.70 588.48 297.77 589.98 297.24 C 591.48 296.71 592.98 301.87 594.49 298.83 C 595.99 295.79 597.49 278.99 598.99 278.99 C 600.50 278.99 602.00 300.28 603.50 298.83 C 605.01 297.37 606.51 275.82 608.01 270.27 C 609.51 264.71 611.02 260.22 612.52 265.51 C 614.02 270.80 615.52 297.24 617.03 302.00 C 618.53 306.76 620.03 294.07 621.54 294.07 C 623.04 294.07 624.54 302.53 626.04 302.00 C 627.55 301.47 629.05 292.22 630.55 290.89 C 632.06 289.57 633.56 303.59 635.06 294.07 C 636.56 284.55 638.07 238.40 639.57 233.77 C 641.07 229.15 642.57 267.62 644.08 266.30 C 645.58 264.98 647.08 228.75 648.59 225.84 C 650.09 222.93 651.59 249.24 653.09 248.85 C 654.60 248.45 656.10 222.80 657.60 223.46 C 659.10 224.12 660.61 249.11 662.11 252.81 C 663.61 256.52 665.12 238.00 666.62 245.67 C 668.12 253.34 669.62 292.22 671.13 298.83 C 672.63 305.44 674.13 289.70 675.64 285.34 C 677.14 280.98 678.64 287.72 680.14 272.65 C 681.65 257.57 683.15 195.30 684.65 194.90 C 686.15 194.50 687.66 253.08 689.16 270.27 C 690.66 287.46 692.17 293.80 693.67 298.03 C 695.17 302.26 696.67 296.05 698.18 295.65 C 699.68 295.26 701.18 298.30 702.69 295.65 C 704.19 293.01 705.69 281.37 707.19 279.79 C 708.70 278.20 710.20 282.96 711.70 286.13 C 713.20 289.31 714.71 297.50 716.21 298.83 C 717.71 300.15 719.22 294.86 720.72 294.07 C 722.22 293.27 723.72 293.01 725.23 294.07 C 726.73 295.12 728.23 299.88 729.73 300.41 C 731.24 300.94 732.74 297.24 734.24 297.24 C 735.75 297.24 737.25 299.88 738.75 300.41 C 740.25 300.94 741.76 309.54 743.26 300.41 C 744.76 291.29 746.27 248.19 747.77 245.67 C 749.27 243.16 750.77 282.83 752.28 285.34 C 753.78 287.85 755.28 260.09 756.78 260.75 C 758.29 261.41 759.79 285.08 761.29 289.31 C 762.80 293.54 764.30 284.28 765.80 286.13 C 767.30 287.98 768.81 298.03 770.31 300.41 C 771.81 302.79 773.31 300.41 774.82 300.41 C 776.32 300.41 777.82 300.41 779.33 300.41 C 780.83 300.41 782.33 300.81 783.83 300.41 C 785.34 300.02 786.84 305.57 788.34 298.03 C 789.85 290.50 791.35 255.99 792.85 255.19 C 794.35 254.40 795.86 289.57 797.36 293.27 C 798.86 296.98 800.36 277.67 801.87 277.41 C 803.37 277.14 804.87 291.55 806.38 291.69 C 807.88 291.82 809.38 279.13 810.88 278.20 C 812.39 277.27 813.89 282.70 815.39 286.13 C 816.90 289.57 818.40 296.45 819.90 298.83 C 821.40 301.21 822.91 300.15 824.41 300.41 C 825.91 300.68 827.41 300.41 828.92 300.41 C 830.42 300.41 831.92 300.55 833.43 300.41 C 834.93 300.28 836.43 302.93 837.93 299.62 C 839.44 296.31 840.94 280.71 842.44 280.58 C 843.94 280.45 845.45 299.49 846.95 298.83 C 848.45 298.17 849.96 276.35 851.46 276.61 C 852.96 276.88 854.46 298.03 855.97 300.41 C 857.47 302.79 858.97 302.66 860.48 290.89 C 861.98 279.13 863.48 237.08 864.98 229.81 C 866.49 222.53 867.99 237.08 869.49 247.26 C 870.99 257.44 873.25 283.62 874.00 290.89" fill="none" stroke="#22C55E" stroke-opacity="0.20" stroke-width="7" stroke-linecap="round" stroke-linejoin="round"/>
<path d="M 58.00 298.03 C 58.75 298.69 61.01 301.34 62.51 302.00 C 64.01 302.66 65.51 302.00 67.02 302.00 C 68.52 302.00 70.02 302.00 71.52 302.00 C 73.03 302.00 74.53 302.00 76.03 302.00 C 77.54 302.00 79.04 302.00 80.54 302.00 C 82.04 302.00 83.55 302.00 85.05 302.00 C 86.55 302.00 88.06 302.93 89.56 302.00 C 91.06 301.07 92.56 299.49 94.07 296.45 C 95.57 293.41 97.07 287.06 98.57 283.75 C 100.08 280.45 101.58 273.70 103.08 276.61 C 104.59 279.52 106.09 296.98 107.59 301.21 C 109.09 305.44 110.60 301.87 112.10 302.00 C 113.60 302.13 115.10 302.26 116.61 302.00 C 118.11 301.74 119.61 300.41 121.12 300.41 C 122.62 300.41 124.12 302.93 125.62 302.00 C 127.13 301.07 128.63 295.26 130.13 294.86 C 131.64 294.46 133.14 299.49 134.64 299.62 C 136.14 299.75 137.65 301.07 139.15 295.65 C 140.65 290.23 142.15 271.06 143.66 267.09 C 145.16 263.13 146.66 268.42 148.17 271.85 C 149.67 275.29 151.17 284.55 152.67 287.72 C 154.18 290.89 155.68 288.78 157.18 290.89 C 158.69 293.01 160.19 298.96 161.69 300.41 C 163.19 301.87 164.70 299.49 166.20 299.62 C 167.70 299.75 169.20 300.81 170.71 301.21 C 172.21 301.60 173.71 301.87 175.22 302.00 C 176.72 302.13 178.22 302.00 179.72 302.00 C 181.23 302.00 182.73 305.44 184.23 302.00 C 185.73 298.56 187.24 282.43 188.74 281.37 C 190.24 280.32 191.75 296.98 193.25 295.65 C 194.75 294.33 196.25 273.57 197.76 273.44 C 199.26 273.31 200.76 293.41 202.27 294.86 C 203.77 296.31 205.27 282.17 206.77 282.17 C 208.28 282.17 209.78 296.18 211.28 294.86 C 212.78 293.54 214.29 275.95 215.79 274.23 C 217.29 272.51 218.80 281.64 220.30 284.55 C 221.80 287.46 223.30 288.78 224.81 291.69 C 226.31 294.60 227.81 303.59 229.31 302.00 C 230.82 300.41 232.32 283.22 233.82 282.17 C 235.33 281.11 236.83 292.35 238.33 295.65 C 239.83 298.96 241.34 301.34 242.84 302.00 C 244.34 302.66 245.85 303.98 247.35 299.62 C 248.85 295.26 250.35 303.45 251.86 275.82 C 253.36 248.19 254.86 133.95 256.36 133.81 C 257.87 133.68 259.37 249.51 260.87 275.03 C 262.38 300.55 263.88 282.43 265.38 286.93 C 266.88 291.42 268.39 301.87 269.89 302.00 C 271.39 302.13 272.90 287.98 274.40 287.72 C 275.90 287.46 277.40 300.28 278.91 300.41 C 280.41 300.55 281.91 289.44 283.41 288.51 C 284.92 287.59 286.42 295.65 287.92 294.86 C 289.43 294.07 290.93 285.74 292.43 283.75 C 293.93 281.77 295.44 284.41 296.94 282.96 C 298.44 281.51 299.94 272.91 301.45 275.03 C 302.95 277.14 304.45 291.16 305.96 295.65 C 307.46 300.15 308.96 303.85 310.46 302.00 C 311.97 300.15 313.47 287.59 314.97 284.55 C 316.48 281.51 317.98 282.03 319.48 283.75 C 320.98 285.47 322.49 294.60 323.99 294.86 C 325.49 295.12 326.99 285.60 328.50 285.34 C 330.00 285.08 331.50 292.35 333.01 293.27 C 334.51 294.20 336.01 291.16 337.51 290.89 C 339.02 290.63 340.52 290.50 342.02 291.69 C 343.52 292.88 345.03 296.31 346.53 298.03 C 348.03 299.75 349.54 302.26 351.04 302.00 C 352.54 301.74 354.04 296.45 355.55 296.45 C 357.05 296.45 358.55 301.07 360.06 302.00 C 361.56 302.93 363.06 302.00 364.56 302.00 C 366.07 302.00 367.57 302.00 369.07 302.00 C 370.57 302.00 372.08 303.19 373.58 302.00 C 375.08 300.81 376.59 294.86 378.09 294.86 C 379.59 294.86 381.09 300.81 382.60 302.00 C 384.10 303.19 385.60 303.45 387.10 302.00 C 388.61 300.55 390.11 293.93 391.61 293.27 C 393.12 292.61 394.62 296.58 396.12 298.03 C 397.62 299.49 399.13 301.34 400.63 302.00 C 402.13 302.66 403.64 302.40 405.14 302.00 C 406.64 301.60 408.14 299.88 409.65 299.62 C 411.15 299.36 412.65 300.81 414.15 300.41 C 415.66 300.02 417.16 300.81 418.66 297.24 C 420.17 293.67 421.67 279.26 423.17 278.99 C 424.67 278.73 426.18 291.82 427.68 295.65 C 429.18 299.49 430.69 302.40 432.19 302.00 C 433.69 301.60 435.19 297.11 436.70 293.27 C 438.20 289.44 439.70 279.39 441.20 278.99 C 442.71 278.60 444.21 287.19 445.71 290.89 C 447.22 294.60 448.72 303.72 450.22 301.21 C 451.72 298.69 453.23 280.98 454.73 275.82 C 456.23 270.66 457.73 269.74 459.24 270.27 C 460.74 270.80 462.24 274.63 463.75 278.99 C 465.25 283.36 466.75 292.61 468.25 296.45 C 469.76 300.28 471.26 301.47 472.76 302.00 C 474.27 302.53 475.77 299.62 477.27 299.62 C 478.77 299.62 480.28 301.60 481.78 302.00 C 483.28 302.40 484.78 302.00 486.29 302.00 C 487.79 302.00 489.29 304.64 490.80 302.00 C 492.30 299.36 493.80 288.65 495.30 286.13 C 496.81 283.62 498.31 285.21 499.81 286.93 C 501.31 288.65 502.82 294.46 504.32 296.45 C 505.82 298.43 507.33 298.30 508.83 298.83 C 510.33 299.36 511.83 299.09 513.34 299.62 C 514.84 300.15 516.34 302.40 517.85 302.00 C 519.35 301.60 520.85 297.64 522.35 297.24 C 523.86 296.84 525.36 301.21 526.86 299.62 C 528.36 298.03 529.87 288.12 531.37 287.72 C 532.87 287.32 534.38 295.92 535.88 297.24 C 537.38 298.56 538.88 296.58 540.39 295.65 C 541.89 294.73 543.39 299.75 544.90 291.69 C 546.40 283.62 547.90 251.49 549.40 247.26 C 550.91 243.03 552.41 294.46 553.91 266.30 C 555.41 238.14 556.92 100.49 558.42 78.28 C 559.92 56.07 561.43 108.29 562.93 133.02 C 564.43 157.75 565.93 207.06 567.44 226.63 C 568.94 246.20 570.44 249.11 571.94 250.43 C 573.45 251.76 574.95 230.47 576.45 234.57 C 577.96 238.67 579.46 263.79 580.96 275.03 C 582.46 286.27 583.97 298.30 585.47 302.00 C 586.97 305.70 588.48 297.77 589.98 297.24 C 591.48 296.71 592.98 301.87 594.49 298.83 C 595.99 295.79 597.49 278.99 598.99 278.99 C 600.50 278.99 602.00 300.28 603.50 298.83 C 605.01 297.37 606.51 275.82 608.01 270.27 C 609.51 264.71 611.02 260.22 612.52 265.51 C 614.02 270.80 615.52 297.24 617.03 302.00 C 618.53 306.76 620.03 294.07 621.54 294.07 C 623.04 294.07 624.54 302.53 626.04 302.00 C 627.55 301.47 629.05 292.22 630.55 290.89 C 632.06 289.57 633.56 303.59 635.06 294.07 C 636.56 284.55 638.07 238.40 639.57 233.77 C 641.07 229.15 642.57 267.62 644.08 266.30 C 645.58 264.98 647.08 228.75 648.59 225.84 C 650.09 222.93 651.59 249.24 653.09 248.85 C 654.60 248.45 656.10 222.80 657.60 223.46 C 659.10 224.12 660.61 249.11 662.11 252.81 C 663.61 256.52 665.12 238.00 666.62 245.67 C 668.12 253.34 669.62 292.22 671.13 298.83 C 672.63 305.44 674.13 289.70 675.64 285.34 C 677.14 280.98 678.64 287.72 680.14 272.65 C 681.65 257.57 683.15 195.30 684.65 194.90 C 686.15 194.50 687.66 253.08 689.16 270.27 C 690.66 287.46 692.17 293.80 693.67 298.03 C 695.17 302.26 696.67 296.05 698.18 295.65 C 699.68 295.26 701.18 298.30 702.69 295.65 C 704.19 293.01 705.69 281.37 707.19 279.79 C 708.70 278.20 710.20 282.96 711.70 286.13 C 713.20 289.31 714.71 297.50 716.21 298.83 C 717.71 300.15 719.22 294.86 720.72 294.07 C 722.22 293.27 723.72 293.01 725.23 294.07 C 726.73 295.12 728.23 299.88 729.73 300.41 C 731.24 300.94 732.74 297.24 734.24 297.24 C 735.75 297.24 737.25 299.88 738.75 300.41 C 740.25 300.94 741.76 309.54 743.26 300.41 C 744.76 291.29 746.27 248.19 747.77 245.67 C 749.27 243.16 750.77 282.83 752.28 285.34 C 753.78 287.85 755.28 260.09 756.78 260.75 C 758.29 261.41 759.79 285.08 761.29 289.31 C 762.80 293.54 764.30 284.28 765.80 286.13 C 767.30 287.98 768.81 298.03 770.31 300.41 C 771.81 302.79 773.31 300.41 774.82 300.41 C 776.32 300.41 777.82 300.41 779.33 300.41 C 780.83 300.41 782.33 300.81 783.83 300.41 C 785.34 300.02 786.84 305.57 788.34 298.03 C 789.85 290.50 791.35 255.99 792.85 255.19 C 794.35 254.40 795.86 289.57 797.36 293.27 C 798.86 296.98 800.36 277.67 801.87 277.41 C 803.37 277.14 804.87 291.55 806.38 291.69 C 807.88 291.82 809.38 279.13 810.88 278.20 C 812.39 277.27 813.89 282.70 815.39 286.13 C 816.90 289.57 818.40 296.45 819.90 298.83 C 821.40 301.21 822.91 300.15 824.41 300.41 C 825.91 300.68 827.41 300.41 828.92 300.41 C 830.42 300.41 831.92 300.55 833.43 300.41 C 834.93 300.28 836.43 302.93 837.93 299.62 C 839.44 296.31 840.94 280.71 842.44 280.58 C 843.94 280.45 845.45 299.49 846.95 298.83 C 848.45 298.17 849.96 276.35 851.46 276.61 C 852.96 276.88 854.46 298.03 855.97 300.41 C 857.47 302.79 858.97 302.66 860.48 290.89 C 861.98 279.13 863.48 237.08 864.98 229.81 C 866.49 222.53 867.99 237.08 869.49 247.26 C 870.99 257.44 873.25 283.62 874.00 290.89" fill="none" stroke="#22C55E" stroke-width="2.4" stroke-linecap="round" stroke-linejoin="round"/>
<circle cx="558.4" cy="78.3" r="4.5" fill="#4ADE80" stroke="#0B1120" stroke-width="2"/>
<text x="558.4" y="68.3" text-anchor="middle" font-family="ui-monospace,Menlo,monospace" font-size="10" font-weight="700" fill="#4ADE80">282</text>
<circle cx="874.0" cy="290.9" r="3.5" fill="#F8FAFC"/>
<text x="16" y="183" text-anchor="middle" font-family="ui-monospace,Menlo,monospace" font-size="10" fill="#94A3B8" transform="rotate(-90 16 183)">Contributions</text>
</svg>