<svg xmlns="http://www.w3.org/2000/svg" width="900" height="340" viewBox="0 0 900 340" role="img" aria-label="Contribution activity, last 6 months">
<defs>
<linearGradient id="bg" x1="0" y1="0" x2="0" y2="1"><stop offset="0" stop-color="#0F172A"/><stop offset="1" stop-color="#0B1120"/></linearGradient>
<linearGradient id="area" x1="0" y1="0" x2="0" y2="1"><stop offset="0" stop-color="#22C55E" stop-opacity="0.42"/><stop offset="0.7" stop-color="#22C55E" stop-opacity="0.08"/><stop offset="1" stop-color="#22C55E" stop-opacity="0"/></linearGradient>
</defs>
<rect x="0" y="0" width="900" height="340" rx="14" fill="url(#bg)"/>
<text x="450" y="32" text-anchor="middle" font-family="ui-monospace,Menlo,monospace" font-size="17" font-weight="700" fill="#F8FAFC" letter-spacing="0.5">last 6 months</text>
<text x="450" y="50" text-anchor="middle" font-family="ui-monospace,Menlo,monospace" font-size="11" fill="#94A3B8">4,076 contributions · peak 282</text>
<line x1="58" y1="302.0" x2="874" y2="302.0" stroke="#1E293B" stroke-width="1" stroke-dasharray="2 4"/>
<text x="48" y="305.5" text-anchor="end" font-family="ui-monospace,Menlo,monospace" font-size="10" fill="#94A3B8">0</text>
<line x1="58" y1="242.5" x2="874" y2="242.5" stroke="#1E293B" stroke-width="1" stroke-dasharray="2 4"/>
<text x="48" y="246.0" text-anchor="end" font-family="ui-monospace,Menlo,monospace" font-size="10" fill="#94A3B8">75</text>
<line x1="58" y1="183.0" x2="874" y2="183.0" stroke="#1E293B" stroke-width="1" stroke-dasharray="2 4"/>
<text x="48" y="186.5" text-anchor="end" font-family="ui-monospace,Menlo,monospace" font-size="10" fill="#94A3B8">150</text>
<line x1="58" y1="123.5" x2="874" y2="123.5" stroke="#1E293B" stroke-width="1" stroke-dasharray="2 4"/>
<text x="48" y="127.0" text-anchor="end" font-family="ui-monospace,Menlo,monospace" font-size="10" fill="#94A3B8">225</text>
<line x1="58" y1="64.0" x2="874" y2="64.0" stroke="#1E293B" stroke-width="1" stroke-dasharray="2 4"/>
<text x="48" y="67.5" text-anchor="end" font-family="ui-monospace,Menlo,monospace" font-size="10" fill="#94A3B8">300</text>
<line x1="166.2" y1="64" x2="166.2" y2="302" stroke="#1E293B" stroke-width="1" stroke-opacity="0.6"/>
<text x="166.2" y="322" text-anchor="middle" font-family="ui-monospace,Menlo,monospace" font-size="10" fill="#94A3B8">Feb</text>
<line x1="292.4" y1="64" x2="292.4" y2="302" stroke="#1E293B" stroke-width="1" stroke-opacity="0.6"/>
<text x="292.4" y="322" text-anchor="middle" font-family="ui-monospace,Menlo,monospace" font-size="10" fill="#94A3B8">Mar</text>
<line x1="432.2" y1="64" x2="432.2" y2="302" stroke="#1E293B" stroke-width="1" stroke-opacity="0.6"/>
<text x="432.2" y="322" text-anchor="middle" font-family="ui-monospace,Menlo,monospace" font-size="10" fill="#94A3B8">Apr</text>
<line x1="567.4" y1="64" x2="567.4" y2="302" stroke="#1E293B" stroke-width="1" stroke-opacity="0.6"/>
<text x="567.4" y="322" text-anchor="middle" font-family="ui-monospace,Menlo,monospace" font-size="10" fill="#94A3B8">May</text>
<line x1="707.2" y1="64" x2="707.2" y2="302" stroke="#1E293B" stroke-width="1" stroke-opacity="0.6"/>
<text x="707.2" y="322" text-anchor="middle" font-family="ui-monospace,Menlo,monospace" font-size="10" fill="#94A3B8">Jun</text>
<line x1="842.4" y1="64" x2="842.4" y2="302" stroke="#1E293B" stroke-width="1" stroke-opacity="0.6"/>
<text x="842.4" y="322" text-anchor="middle" font-family="ui-monospace,Menlo,monospace" font-size="10" fill="#94A3B8">Jul</text>
<path d="M 58.00 276.61 C 58.75 280.71 61.01 296.98 62.51 301.21 C 64.01 305.44 65.51 301.87 67.02 302.00 C 68.52 302.13 70.02 302.26 71.52 302.00 C 73.03 301.74 74.53 300.41 76.03 300.41 C 77.54 300.41 79.04 302.93 80.54 302.00 C 82.04 301.07 83.55 295.26 85.05 294.86 C 86.55 294.46 88.06 299.49 89.56 299.62 C 91.06 299.75 92.56 301.07 94.07 295.65 C 95.57 290.23 97.07 271.06 98.57 267.09 C 100.08 263.13 101.58 268.42 103.08 271.85 C 104.59 275.29 106.09 284.55 107.59 287.72 C 109.09 290.89 110.60 288.78 112.10 290.89 C 113.60 293.01 115.10 298.96 116.61 300.41 C 118.11 301.87 119.61 299.49 121.12 299.62 C 122.62 299.75 124.12 300.81 125.62 301.21 C 127.13 301.60 128.63 301.87 130.13 302.00 C 131.64 302.13 133.14 302.00 134.64 302.00 C 136.14 302.00 137.65 305.44 139.15 302.00 C 140.65 298.56 142.15 282.43 143.66 281.37 C 145.16 280.32 146.66 296.98 148.17 295.65 C 149.67 294.33 151.17 273.57 152.67 273.44 C 154.18 273.31 155.68 293.41 157.18 294.86 C 158.69 296.31 160.19 282.17 161.69 282.17 C 163.19 282.17 164.70 296.18 166.20 294.86 C 167.70 293.54 169.20 275.95 170.71 274.23 C 172.21 272.51 173.71 281.64 175.22 284.55 C 176.72 287.46 178.22 288.78 179.72 291.69 C 181.23 294.60 182.73 303.59 184.23 302.00 C 185.73 300.41 187.24 283.22 188.74 282.17 C 190.24 281.11 191.75 292.35 193.25 295.65 C 194.75 298.96 196.25 301.34 197.76 302.00 C 199.26 302.66 200.76 303.98 202.27 299.62 C 203.77 295.26 205.27 303.45 206.77 275.82 C 208.28 248.19 209.78 133.95 211.28 133.81 C 212.78 133.68 214.29 249.51 215.79 275.03 C 217.29 300.55 218.80 282.43 220.30 286.93 C 221.80 291.42 223.30 301.87 224.81 302.00 C 226.31 302.13 227.81 287.98 229.31 287.72 C 230.82 287.46 232.32 300.28 233.82 300.41 C 235.33 300.55 236.83 289.44 238.33 288.51 C 239.83 287.59 241.34 295.65 242.84 294.86 C 244.34 294.07 245.85 285.74 247.35 283.75 C 248.85 281.77 250.35 284.41 251.86 282.96 C 253.36 281.51 254.86 272.91 256.36 275.03 C 257.87 277.14 259.37 291.16 260.87 295.65 C 262.38 300.15 263.88 303.85 265.38 302.00 C 266.88 300.15 268.39 287.59 269.89 284.55 C 271.39 281.51 272.90 282.03 274.40 283.75 C 275.90 285.47 277.40 294.60 278.91 294.86 C 280.41 295.12 281.91 285.60 283.41 285.34 C 284.92 285.08 286.42 292.35 287.92 293.27 C 289.43 294.20 290.93 291.16 292.43 290.89 C 293.93 290.63 295.44 290.50 296.94 291.69 C 298.44 292.88 299.94 296.31 301.45 298.03 C 302.95 299.75 304.45 302.26 305.96 302.00 C 307.46 301.74 308.96 296.45 310.46 296.45 C 311.97 296.45 313.47 301.07 314.97 302.00 C 316.48 302.93 317.98 302.00 319.48 302.00 C 320.98 302.00 322.49 302.00 323.99 302.00 C 325.49 302.00 326.99 303.19 328.50 302.00 C 330.00 300.81 331.50 294.86 333.01 294.86 C 334.51 294.86 336.01 300.81 337.51 302.00 C 339.02 303.19 340.52 303.45 342.02 302.00 C 343.52 300.55 345.03 293.93 346.53 293.27 C 348.03 292.61 349.54 296.58 351.04 298.03 C 352.54 299.49 354.04 301.34 355.55 302.00 C 357.05 302.66 358.55 302.40 360.06 302.00 C 361.56 301.60 363.06 299.88 364.56 299.62 C 366.07 299.36 367.57 300.81 369.07 300.41 C 370.57 300.02 372.08 300.81 373.58 297.24 C 375.08 293.67 376.59 279.26 378.09 278.99 C 379.59 278.73 381.09 291.82 382.60 295.65 C 384.10 299.49 385.60 302.40 387.10 302.00 C 388.61 301.60 390.11 297.11 391.61 293.27 C 393.12 289.44 394.62 279.39 396.12 278.99 C 397.62 278.60 399.13 287.19 400.63 290.89 C 402.13 294.60 403.64 303.72 405.14 301.21 C 406.64 298.69 408.14 280.98 409.65 275.82 C 411.15 270.66 412.65 269.74 414.15 270.27 C 415.66 270.80 417.16 274.63 418.66 278.99 C 420.17 283.36 421.67 292.61 423.17 296.45 C 424.67 300.28 426.18 301.47 427.68 302.00 C 429.18 302.53 430.69 299.62 432.19 299.62 C 433.69 299.62 435.19 301.60 436.70 302.00 C 438.20 302.40 439.70 302.00 441.20 302.00 C 442.71 302.00 444.21 304.64 445.71 302.00 C 447.22 299.36 448.72 288.65 450.22 286.13 C 451.72 283.62 453.23 285.21 454.73 286.93 C 456.23 288.65 457.73 294.46 459.24 296.45 C 460.74 298.43 462.24 298.30 463.75 298.83 C 465.25 299.36 466.75 299.09 468.25 299.62 C 469.76 300.15 471.26 302.40 472.76 302.00 C 474.27 301.60 475.77 297.64 477.27 297.24 C 478.77 296.84 480.28 301.21 481.78 299.62 C 483.28 298.03 484.78 288.12 486.29 287.72 C 487.79 287.32 489.29 295.92 490.80 297.24 C 492.30 298.56 493.80 296.58 495.30 295.65 C 496.81 294.73 498.31 299.75 499.81 291.69 C 501.31 283.62 502.82 251.49 504.32 247.26 C 505.82 243.03 507.33 294.46 508.83 266.30 C 510.33 238.14 511.83 100.49 513.34 78.28 C 514.84 56.07 516.34 108.29 517.85 133.02 C 519.35 157.75 520.85 207.06 522.35 226.63 C 523.86 246.20 525.36 249.11 526.86 250.43 C 528.36 251.76 529.87 230.47 531.37 234.57 C 532.87 238.67 534.38 263.79 535.88 275.03 C 537.38 286.27 538.88 298.30 540.39 302.00 C 541.89 305.70 543.39 297.77 544.90 297.24 C 546.40 296.71 547.90 301.87 549.40 298.83 C 550.91 295.79 552.41 278.99 553.91 278.99 C 555.41 278.99 556.92 300.28 558.42 298.83 C 559.92 297.37 561.43 275.82 562.93 270.27 C 564.43 264.71 565.93 260.22 567.44 265.51 C 568.94 270.80 570.44 297.24 571.94 302.00 C 573.45 306.76 574.95 294.07 576.45 294.07 C 577.96 294.07 579.46 302.53 580.96 302.00 C 582.46 301.47 583.97 292.22 585.47 290.89 C 586.97 289.57 588.48 303.59 589.98 294.07 C 591.48 284.55 592.98 238.40 594.49 233.77 C 595.99 229.15 597.49 267.62 598.99 266.30 C 600.50 264.98 602.00 228.75 603.50 225.84 C 605.01 222.93 606.51 249.24 608.01 248.85 C 609.51 248.45 611.02 222.80 612.52 223.46 C 614.02 224.12 615.52 249.11 617.03 252.81 C 618.53 256.52 620.03 238.00 621.54 245.67 C 623.04 253.34 624.54 292.22 626.04 298.83 C 627.55 305.44 629.05 289.70 630.55 285.34 C 632.06 280.98 633.56 287.72 635.06 272.65 C 636.56 257.57 638.07 195.30 639.57 194.90 C 641.07 194.50 642.57 253.08 644.08 270.27 C 645.58 287.46 647.08 293.80 648.59 298.03 C 650.09 302.26 651.59 296.18 653.09 295.65 C 654.60 295.12 656.10 297.50 657.60 294.86 C 659.10 292.22 660.61 281.24 662.11 279.79 C 663.61 278.33 665.12 282.96 666.62 286.13 C 668.12 289.31 669.62 297.50 671.13 298.83 C 672.63 300.15 674.13 294.86 675.64 294.07 C 677.14 293.27 678.64 293.01 680.14 294.07 C 681.65 295.12 683.15 299.88 684.65 300.41 C 686.15 300.94 687.66 297.24 689.16 297.24 C 690.66 297.24 692.17 299.88 693.67 300.41 C 695.17 300.94 696.67 309.54 698.18 300.41 C 699.68 291.29 701.18 248.19 702.69 245.67 C 704.19 243.16 705.69 282.83 707.19 285.34 C 708.70 287.85 710.20 260.09 711.70 260.75 C 713.20 261.41 714.71 285.21 716.21 289.31 C 717.71 293.41 719.22 283.62 720.72 285.34 C 722.22 287.06 723.72 297.11 725.23 299.62 C 726.73 302.13 728.23 300.28 729.73 300.41 C 731.24 300.55 732.74 300.41 734.24 300.41 C 735.75 300.41 737.25 300.81 738.75 300.41 C 740.25 300.02 741.76 305.57 743.26 298.03 C 744.76 290.50 746.27 255.99 747.77 255.19 C 749.27 254.40 750.77 289.57 752.28 293.27 C 753.78 296.98 755.28 277.67 756.78 277.41 C 758.29 277.14 759.79 291.55 761.29 291.69 C 762.80 291.82 764.30 279.13 765.80 278.20 C 767.30 277.27 768.81 282.70 770.31 286.13 C 771.81 289.57 773.31 296.45 774.82 298.83 C 776.32 301.21 777.82 300.15 779.33 300.41 C 780.83 300.68 782.33 300.41 783.83 300.41 C 785.34 300.41 786.84 300.55 788.34 300.41 C 789.85 300.28 791.35 302.93 792.85 299.62 C 794.35 296.31 795.86 280.71 797.36 280.58 C 798.86 280.45 800.36 299.49 801.87 298.83 C 803.37 298.17 804.87 276.35 806.38 276.61 C 807.88 276.88 809.38 298.03 810.88 300.41 C 812.39 302.79 813.89 302.66 815.39 290.89 C 816.90 279.13 818.40 237.08 819.90 229.81 C 821.40 222.53 822.91 241.44 824.41 247.26 C 825.91 253.08 827.41 260.09 828.92 264.71 C 830.42 269.34 831.92 269.34 833.43 275.03 C 834.93 280.71 836.43 299.49 837.93 298.83 C 839.44 298.17 840.94 274.37 842.44 271.06 C 843.94 267.75 845.45 277.80 846.95 278.99 C 848.45 280.18 849.96 276.35 851.46 278.20 C 852.96 280.05 854.46 287.72 855.97 290.10 C 857.47 292.48 858.97 291.03 860.48 292.48 C 861.98 293.93 863.48 300.28 864.98 298.83 C 866.49 297.37 867.99 284.41 869.49 283.75 C 870.99 283.09 873.25 293.01 874.00 294.86 L 874.00 302.00 L 58.00 302.00 Z" fill="url(#area)"/>
<path d="M 58.00 276.61 C 58.75 280.71 61.01 296.98 62.51 301.21 C 64.01 305.44 65.51 301.87 67.02 302.00 C 68.52 302.13 70.02 302.26 71.52 302.00 C 73.03 301.74 74.53 300.41 76.03 300.41 C 77.54 300.41 79.04 302.93 80.54 302.00 C 82.04 301.07 83.55 295.26 85.05 294.86 C 86.55 294.46 88.06 299.49 89.56 299.62 C 91.06 299.75 92.56 301.07 94.07 295.65 C 95.57 290.23 97.07 271.06 98.57 267.09 C 100.08 263.13 101.58 268.42 103.08 271.85 C 104.59 275.29 106.09 284.55 107.59 287.72 C 109.09 290.89 110.60 288.78 112.10 290.89 C 113.60 293.01 115.10 298.96 116.61 300.41 C 118.11 301.87 119.61 299.49 121.12 299.62 C 122.62 299.75 124.12 300.81 125.62 301.21 C 127.13 301.60 128.63 301.87 130.13 302.00 C 131.64 302.13 133.14 302.00 134.64 302.00 C 136.14 302.00 137.65 305.44 139.15 302.00 C 140.65 298.56 142.15 282.43 143.66 281.37 C 145.16 280.32 146.66 296.98 148.17 295.65 C 149.67 294.33 151.17 273.57 152.67 273.44 C 154.18 273.31 155.68 293.41 157.18 294.86 C 158.69 296.31 160.19 282.17 161.69 282.17 C 163.19 282.17 164.70 296.18 166.20 294.86 C 167.70 293.54 169.20 275.95 170.71 274.23 C 172.21 272.51 173.71 281.64 175.22 284.55 C 176.72 287.46 178.22 288.78 179.72 291.69 C 181.23 294.60 182.73 303.59 184.23 302.00 C 185.73 300.41 187.24 283.22 188.74 282.17 C 190.24 281.11 191.75 292.35 193.25 295.65 C 194.75 298.96 196.25 301.34 197.76 302.00 C 199.26 302.66 200.76 303.98 202.27 299.62 C 203.77 295.26 205.27 303.45 206.77 275.82 C 208.28 248.19 209.78 133.95 211.28 133.81 C 212.78 133.68 214.29 249.51 215.79 275.03 C 217.29 300.55 218.80 282.43 220.30 286.93 C 221.80 291.42 223.30 301.87 224.81 302.00 C 226.31 302.13 227.81 287.98 229.31 287.72 C 230.82 287.46 232.32 300.28 233.82 300.41 C 235.33 300.55 236.83 289.44 238.33 288.51 C 239.83 287.59 241.34 295.65 242.84 294.86 C 244.34 294.07 245.85 285.74 247.35 283.75 C 248.85 281.77 250.35 284.41 251.86 282.96 C 253.36 281.51 254.86 272.91 256.36 275.03 C 257.87 277.14 259.37 291.16 260.87 295.65 C 262.38 300.15 263.88 303.85 265.38 302.00 C 266.88 300.15 268.39 287.59 269.89 284.55 C 271.39 281.51 272.90 282.03 274.40 283.75 C 275.90 285.47 277.40 294.60 278.91 294.86 C 280.41 295.12 281.91 285.60 283.41 285.34 C 284.92 285.08 286.42 292.35 287.92 293.27 C 289.43 294.20 290.93 291.16 292.43 290.89 C 293.93 290.63 295.44 290.50 296.94 291.69 C 298.44 292.88 299.94 296.31 301.45 298.03 C 302.95 299.75 304.45 302.26 305.96 302.00 C 307.46 301.74 308.96 296.45 310.46 296.45 C 311.97 296.45 313.47 301.07 314.97 302.00 C 316.48 302.93 317.98 302.00 319.48 302.00 C 320.98 302.00 322.49 302.00 323.99 302.00 C 325.49 302.00 326.99 303.19 328.50 302.00 C 330.00 300.81 331.50 294.86 333.01 294.86 C 334.51 294.86 336.01 300.81 337.51 302.00 C 339.02 303.19 340.52 303.45 342.02 302.00 C 343.52 300.55 345.03 293.93 346.53 293.27 C 348.03 292.61 349.54 296.58 351.04 298.03 C 352.54 299.49 354.04 301.34 355.55 302.00 C 357.05 302.66 358.55 302.40 360.06 302.00 C 361.56 301.60 363.06 299.88 364.56 299.62 C 366.07 299.36 367.57 300.81 369.07 300.41 C 370.57 300.02 372.08 300.81 373.58 297.24 C 375.08 293.67 376.59 279.26 378.09 278.99 C 379.59 278.73 381.09 291.82 382.60 295.65 C 384.10 299.49 385.60 302.40 387.10 302.00 C 388.61 301.60 390.11 297.11 391.61 293.27 C 393.12 289.44 394.62 279.39 396.12 278.99 C 397.62 278.60 399.13 287.19 400.63 290.89 C 402.13 294.60 403.64 303.72 405.14 301.21 C 406.64 298.69 408.14 280.98 409.65 275.82 C 411.15 270.66 412.65 269.74 414.15 270.27 C 415.66 270.80 417.16 274.63 418.66 278.99 C 420.17 283.36 421.67 292.61 423.17 296.45 C 424.67 300.28 426.18 301.47 427.68 302.00 C 429.18 302.53 430.69 299.62 432.19 299.62 C 433.69 299.62 435.19 301.60 436.70 302.00 C 438.20 302.40 439.70 302.00 441.20 302.00 C 442.71 302.00 444.21 304.64 445.71 302.00 C 447.22 299.36 448.72 288.65 450.22 286.13 C 451.72 283.62 453.23 285.21 454.73 286.93 C 456.23 288.65 457.73 294.46 459.24 296.45 C 460.74 298.43 462.24 298.30 463.75 298.83 C 465.25 299.36 466.75 299.09 468.25 299.62 C 469.76 300.15 471.26 302.40 472.76 302.00 C 474.27 301.60 475.77 297.64 477.27 297.24 C 478.77 296.84 480.28 301.21 481.78 299.62 C 483.28 298.03 484.78 288.12 486.29 287.72 C 487.79 287.32 489.29 295.92 490.80 297.24 C 492.30 298.56 493.80 296.58 495.30 295.65 C 496.81 294.73 498.31 299.75 499.81 291.69 C 501.31 283.62 502.82 251.49 504.32 247.26 C 505.82 243.03 507.33 294.46 508.83 266.30 C 510.33 238.14 511.83 100.49 513.34 78.28 C 514.84 56.07 516.34 108.29 517.85 133.02 C 519.35 157.75 520.85 207.06 522.35 226.63 C 523.86 246.20 525.36 249.11 526.86 250.43 C 528.36 251.76 529.87 230.47 531.37 234.57 C 532.87 238.67 534.38 263.79 535.88 275.03 C 537.38 286.27 538.88 298.30 540.39 302.00 C 541.89 305.70 543.39 297.77 544.90 297.24 C 546.40 296.71 547.90 301.87 549.40 298.83 C 550.91 295.79 552.41 278.99 553.91 278.99 C 555.41 278.99 556.92 300.28 558.42 298.83 C 559.92 297.37 561.43 275.82 562.93 270.27 C 564.43 264.71 565.93 260.22 567.44 265.51 C 568.94 270.80 570.44 297.24 571.94 302.00 C 573.45 306.76 574.95 294.07 576.45 294.07 C 577.96 294.07 579.46 302.53 580.96 302.00 C 582.46 301.47 583.97 292.22 585.47 290.89 C 586.97 289.57 588.48 303.59 589.98 294.07 C 591.48 284.55 592.98 238.40 594.49 233.77 C 595.99 229.15 597.49 267.62 598.99 266.30 C 600.50 264.98 602.00 228.75 603.50 225.84 C 605.01 222.93 606.51 249.24 608.01 248.85 C 609.51 248.45 611.02 222.80 612.52 223.46 C 614.02 224.12 615.52 249.11 617.03 252.81 C 618.53 256.52 620.03 238.00 621.54 245.67 C 623.04 253.34 624.54 292.22 626.04 298.83 C 627.55 305.44 629.05 289.70 630.55 285.34 C 632.06 280.98 633.56 287.72 635.06 272.65 C 636.56 257.57 638.07 195.30 639.57 194.90 C 641.07 194.50 642.57 253.08 644.08 270.27 C 645.58 287.46 647.08 293.80 648.59 298.03 C 650.09 302.26 651.59 296.18 653.09 295.65 C 654.60 295.12 656.10 297.50 657.60 294.86 C 659.10 292.22 660.61 281.24 662.11 279.79 C 663.61 278.33 665.12 282.96 666.62 286.13 C 668.12 289.31 669.62 297.50 671.13 298.83 C 672.63 300.15 674.13 294.86 675.64 294.07 C 677.14 293.27 678.64 293.01 680.14 294.07 C 681.65 295.12 683.15 299.88 684.65 300.41 C 686.15 300.94 687.66 297.24 689.16 297.24 C 690.66 297.24 692.17 299.88 693.67 300.41 C 695.17 300.94 696.67 309.54 698.18 300.41 C 699.68 291.29 701.18 248.19 702.69 245.67 C 704.19 243.16 705.69 282.83 707.19 285.34 C 708.70 287.85 710.20 260.09 711.70 260.75 C 713.20 261.41 714.71 285.21 716.21 289.31 C 717.71 293.41 719.22 283.62 720.72 285.34 C 722.22 287.06 723.72 297.11 725.23 299.62 C 726.73 302.13 728.23 300.28 729.73 300.41 C 731.24 300.55 732.74 300.41 734.24 300.41 C 735.75 300.41 737.25 300.81 738.75 300.41 C 740.25 300.02 741.76 305.57 743.26 298.03 C 744.76 290.50 746.27 255.99 747.77 255.19 C 749.27 254.40 750.77 289.57 752.28 293.27 C 753.78 296.98 755.28 277.67 756.78 277.41 C 758.29 277.14 759.79 291.55 761.29 291.69 C 762.80 291.82 764.30 279.13 765.80 278.20 C 767.30 277.27 768.81 282.70 770.31 286.13 C 771.81 289.57 773.31 296.45 774.82 298.83 C 776.32 301.21 777.82 300.15 779.33 300.41 C 780.83 300.68 782.33 300.41 783.83 300.41 C 785.34 300.41 786.84 300.55 788.34 300.41 C 789.85 300.28 791.35 302.93 792.85 299.62 C 794.35 296.31 795.86 280.71 797.36 280.58 C 798.86 280.45 800.36 299.49 801.87 298.83 C 803.37 298.17 804.87 276.35 806.38 276.61 C 807.88 276.88 809.38 298.03 810.88 300.41 C 812.39 302.79 813.89 302.66 815.39 290.89 C 816.90 279.13 818.40 237.08 819.90 229.81 C 821.40 222.53 822.91 241.44 824.41 247.26 C 825.91 253.08 827.41 260.09 828.92 264.71 C 830.42 269.34 831.92 269.34 833.43 275.03 C 834.93 280.71 836.43 299.49 837.93 298.83 C 839.44 298.17 840.94 274.37 842.44 271.06 C 843.94 267.75 845.45 277.80 846.95 278.99 C 848.45 280.18 849.96 276.35 851.46 278.20 C 852.96 280.05 854.46 287.72 855.97 290.10 C 857.47 292.48 858.97 291.03 860.48 292.48 C 861.98 293.93 863.48 300.28 864.98 298.83 C 866.49 297.37 867.99 284.41 869.49 283.75 C 870.99 283.09 873.25 293.01 874.00 294.86" fill="none" stroke="#22C55E" stroke-opacity="0.20" stroke-width="7" stroke-linecap="round" stroke-linejoin="round"/>
<path d="M 58.00 276.61 C 58.75 280.71 61.01 296.98 62.51 301.21 C 64.01 305.44 65.51 301.87 67.02 302.00 C 68.52 302.13 70.02 302.26 71.52 302.00 C 73.03 301.74 74.53 300.41 76.03 300.41 C 77.54 300.41 79.04 302.93 80.54 302.00 C 82.04 301.07 83.55 295.26 85.05 294.86 C 86.55 294.46 88.06 299.49 89.56 299.62 C 91.06 299.75 92.56 301.07 94.07 295.65 C 95.57 290.23 97.07 271.06 98.57 267.09 C 100.08 263.13 101.58 268.42 103.08 271.85 C 104.59 275.29 106.09 284.55 107.59 287.72 C 109.09 290.89 110.60 288.78 112.10 290.89 C 113.60 293.01 115.10 298.96 116.61 300.41 C 118.11 301.87 119.61 299.49 121.12 299.62 C 122.62 299.75 124.12 300.81 125.62 301.21 C 127.13 301.60 128.63 301.87 130.13 302.00 C 131.64 302.13 133.14 302.00 134.64 302.00 C 136.14 302.00 137.65 305.44 139.15 302.00 C 140.65 298.56 142.15 282.43 143.66 281.37 C 145.16 280.32 146.66 296.98 148.17 295.65 C 149.67 294.33 151.17 273.57 152.67 273.44 C 154.18 273.31 155.68 293.41 157.18 294.86 C 158.69 296.31 160.19 282.17 161.69 282.17 C 163.19 282.17 164.70 296.18 166.20 294.86 C 167.70 293.54 169.20 275.95 170.71 274.23 C 172.21 272.51 173.71 281.64 175.22 284.55 C 176.72 287.46 178.22 288.78 179.72 291.69 C 181.23 294.60 182.73 303.59 184.23 302.00 C 185.73 300.41 187.24 283.22 188.74 282.17 C 190.24 281.11 191.75 292.35 193.25 295.65 C 194.75 298.96 196.25 301.34 197.76 302.00 C 199.26 302.66 200.76 303.98 202.27 299.62 C 203.77 295.26 205.27 303.45 206.77 275.82 C 208.28 248.19 209.78 133.95 211.28 133.81 C 212.78 133.68 214.29 249.51 215.79 275.03 C 217.29 300.55 218.80 282.43 220.30 286.93 C 221.80 291.42 223.30 301.87 224.81 302.00 C 226.31 302.13 227.81 287.98 229.31 287.72 C 230.82 287.46 232.32 300.28 233.82 300.41 C 235.33 300.55 236.83 289.44 238.33 288.51 C 239.83 287.59 241.34 295.65 242.84 294.86 C 244.34 294.07 245.85 285.74 247.35 283.75 C 248.85 281.77 250.35 284.41 251.86 282.96 C 253.36 281.51 254.86 272.91 256.36 275.03 C 257.87 277.14 259.37 291.16 260.87 295.65 C 262.38 300.15 263.88 303.85 265.38 302.00 C 266.88 300.15 268.39 287.59 269.89 284.55 C 271.39 281.51 272.90 282.03 274.40 283.75 C 275.90 285.47 277.40 294.60 278.91 294.86 C 280.41 295.12 281.91 285.60 283.41 285.34 C 284.92 285.08 286.42 292.35 287.92 293.27 C 289.43 294.20 290.93 291.16 292.43 290.89 C 293.93 290.63 295.44 290.50 296.94 291.69 C 298.44 292.88 299.94 296.31 301.45 298.03 C 302.95 299.75 304.45 302.26 305.96 302.00 C 307.46 301.74 308.96 296.45 310.46 296.45 C 311.97 296.45 313.47 301.07 314.97 302.00 C 316.48 302.93 317.98 302.00 319.48 302.00 C 320.98 302.00 322.49 302.00 323.99 302.00 C 325.49 302.00 326.99 303.19 328.50 302.00 C 330.00 300.81 331.50 294.86 333.01 294.86 C 334.51 294.86 336.01 300.81 337.51 302.00 C 339.02 303.19 340.52 303.45 342.02 302.00 C 343.52 300.55 345.03 293.93 346.53 293.27 C 348.03 292.61 349.54 296.58 351.04 298.03 C 352.54 299.49 354.04 301.34 355.55 302.00 C 357.05 302.66 358.55 302.40 360.06 302.00 C 361.56 301.60 363.06 299.88 364.56 299.62 C 366.07 299.36 367.57 300.81 369.07 300.41 C 370.57 300.02 372.08 300.81 373.58 297.24 C 375.08 293.67 376.59 279.26 378.09 278.99 C 379.59 278.73 381.09 291.82 382.60 295.65 C 384.10 299.49 385.60 302.40 387.10 302.00 C 388.61 301.60 390.11 297.11 391.61 293.27 C 393.12 289.44 394.62 279.39 396.12 278.99 C 397.62 278.60 399.13 287.19 400.63 290.89 C 402.13 294.60 403.64 303.72 405.14 301.21 C 406.64 298.69 408.14 280.98 409.65 275.82 C 411.15 270.66 412.65 269.74 414.15 270.27 C 415.66 270.80 417.16 274.63 418.66 278.99 C 420.17 283.36 421.67 292.61 423.17 296.45 C 424.67 300.28 426.18 301.47 427.68 302.00 C 429.18 302.53 430.69 299.62 432.19 299.62 C 433.69 299.62 435.19 301.60 436.70 302.00 C 438.20 302.40 439.70 302.00 441.20 302.00 C 442.71 302.00 444.21 304.64 445.71 302.00 C 447.22 299.36 448.72 288.65 450.22 286.13 C 451.72 283.62 453.23 285.21 454.73 286.93 C 456.23 288.65 457.73 294.46 459.24 296.45 C 460.74 298.43 462.24 298.30 463.75 298.83 C 465.25 299.36 466.75 299.09 468.25 299.62 C 469.76 300.15 471.26 302.40 472.76 302.00 C 474.27 301.60 475.77 297.64 477.27 297.24 C 478.77 296.84 480.28 301.21 481.78 299.62 C 483.28 298.03 484.78 288.12 486.29 287.72 C 487.79 287.32 489.29 295.92 490.80 297.24 C 492.30 298.56 493.80 296.58 495.30 295.65 C 496.81 294.73 498.31 299.75 499.81 291.69 C 501.31 283.62 502.82 251.49 504.32 247.26 C 505.82 243.03 507.33 294.46 508.83 266.30 C 510.33 238.14 511.83 100.49 513.34 78.28 C 514.84 56.07 516.34 108.29 517.85 133.02 C 519.35 157.75 520.85 207.06 522.35 226.63 C 523.86 246.20 525.36 249.11 526.86 250.43 C 528.36 251.76 529.87 230.47 531.37 234.57 C 532.87 238.67 534.38 263.79 535.88 275.03 C 537.38 286.27 538.88 298.30 540.39 302.00 C 541.89 305.70 543.39 297.77 544.90 297.24 C 546.40 296.71 547.90 301.87 549.40 298.83 C 550.91 295.79 552.41 278.99 553.91 278.99 C 555.41 278.99 556.92 300.28 558.42 298.83 C 559.92 297.37 561.43 275.82 562.93 270.27 C 564.43 264.71 565.93 260.22 567.44 265.51 C 568.94 270.80 570.44 297.24 571.94 302.00 C 573.45 306.76 574.95 294.07 576.45 294.07 C 577.96 294.07 579.46 302.53 580.96 302.00 C 582.46 301.47 583.97 292.22 585.47 290.89 C 586.97 289.57 588.48 303.59 589.98 294.07 C 591.48 284.55 592.98 238.40 594.49 233.77 C 595.99 229.15 597.49 267.62 598.99 266.30 C 600.50 264.98 602.00 228.75 603.50 225.84 C 605.01 222.93 606.51 249.24 608.01 248.85 C 609.51 248.45 611.02 222.80 612.52 223.46 C 614.02 224.12 615.52 249.11 617.03 252.81 C 618.53 256.52 620.03 238.00 621.54 245.67 C 623.04 253.34 624.54 292.22 626.04 298.83 C 627.55 305.44 629.05 289.70 630.55 285.34 C 632.06 280.98 633.56 287.72 635.06 272.65 C 636.56 257.57 638.07 195.30 639.57 194.90 C 641.07 194.50 642.57 253.08 644.08 270.27 C 645.58 287.46 647.08 293.80 648.59 298.03 C 650.09 302.26 651.59 296.18 653.09 295.65 C 654.60 295.12 656.10 297.50 657.60 294.86 C 659.10 292.22 660.61 281.24 662.11 279.79 C 663.61 278.33 665.12 282.96 666.62 286.13 C 668.12 289.31 669.62 297.50 671.13 298.83 C 672.63 300.15 674.13 294.86 675.64 294.07 C 677.14 293.27 678.64 293.01 680.14 294.07 C 681.65 295.12 683.15 299.88 684.65 300.41 C 686.15 300.94 687.66 297.24 689.16 297.24 C 690.66 297.24 692.17 299.88 693.67 300.41 C 695.17 300.94 696.67 309.54 698.18 300.41 C 699.68 291.29 701.18 248.19 702.69 245.67 C 704.19 243.16 705.69 282.83 707.19 285.34 C 708.70 287.85 710.20 260.09 711.70 260.75 C 713.20 261.41 714.71 285.21 716.21 289.31 C 717.71 293.41 719.22 283.62 720.72 285.34 C 722.22 287.06 723.72 297.11 725.23 299.62 C 726.73 302.13 728.23 300.28 729.73 300.41 C 731.24 300.55 732.74 300.41 734.24 300.41 C 735.75 300.41 737.25 300.81 738.75 300.41 C 740.25 300.02 741.76 305.57 743.26 298.03 C 744.76 290.50 746.27 255.99 747.77 255.19 C 749.27 254.40 750.77 289.57 752.28 293.27 C 753.78 296.98 755.28 277.67 756.78 277.41 C 758.29 277.14 759.79 291.55 761.29 291.69 C 762.80 291.82 764.30 279.13 765.80 278.20 C 767.30 277.27 768.81 282.70 770.31 286.13 C 771.81 289.57 773.31 296.45 774.82 298.83 C 776.32 301.21 777.82 300.15 779.33 300.41 C 780.83 300.68 782.33 300.41 783.83 300.41 C 785.34 300.41 786.84 300.55 788.34 300.41 C 789.85 300.28 791.35 302.93 792.85 299.62 C 794.35 296.31 795.86 280.71 797.36 280.58 C 798.86 280.45 800.36 299.49 801.87 298.83 C 803.37 298.17 804.87 276.35 806.38 276.61 C 807.88 276.88 809.38 298.03 810.88 300.41 C 812.39 302.79 813.89 302.66 815.39 290.89 C 816.90 279.13 818.40 237.08 819.90 229.81 C 821.40 222.53 822.91 241.44 824.41 247.26 C 825.91 253.08 827.41 260.09 828.92 264.71 C 830.42 269.34 831.92 269.34 833.43 275.03 C 834.93 280.71 836.43 299.49 837.93 298.83 C 839.44 298.17 840.94 274.37 842.44 271.06 C 843.94 267.75 845.45 277.80 846.95 278.99 C 848.45 280.18 849.96 276.35 851.46 278.20 C 852.96 280.05 854.46 287.72 855.97 290.10 C 857.47 292.48 858.97 291.03 860.48 292.48 C 861.98 293.93 863.48 300.28 864.98 298.83 C 866.49 297.37 867.99 284.41 869.49 283.75 C 870.99 283.09 873.25 293.01 874.00 294.86" fill="none" stroke="#22C55E" stroke-width="2.4" stroke-linecap="round" stroke-linejoin="round"/>
<circle cx="513.3" cy="78.3" r="4.5" fill="#4ADE80" stroke="#0B1120" stroke-width="2"/>
<text x="513.3" y="68.3" text-anchor="middle" font-family="ui-monospace,Menlo,monospace" font-size="10" font-weight="700" fill="#4ADE80">282</text>
<circle cx="874.0" cy="294.9" r="3.5" fill="#F8FAFC"/>
<text x="16" y="183" text-anchor="middle" font-family="ui-monospace,Menlo,monospace" font-size="10" fill="#94A3B8" transform="rotate(-90 16 183)">Contributions</text>
</svg>