<svg xmlns="http://www.w3.org/2000/svg" width="467" height="195" aria-label="Emmi GitHub stats" role="img" viewBox="0 0 467 195"><defs><linearGradient id="bg" x1="0" x2="0" y1="0" y2="1"><stop offset="0" stop-color="#0F172A"/><stop offset="1" stop-color="#0B1120"/></linearGradient></defs><rect width="466" height="194" x=".5" y=".5" fill="url(#bg)" stroke="#1E293B" stroke-width="1" rx="12"/><text x="25" y="34" fill="#22C55E" font-family="ui-monospace,'JetBrains Mono',Menlo,monospace" font-size="18" font-weight="700">Emmi’s GitHub Stats</text><g><path fill="#22C55E" d="M7 0.6 L8.9 4.9 L13.6 5.3 L10 8.4 L11.1 13 L7 10.5 L2.9 13 L4 8.4 L0.4 5.3 L5.1 4.9 Z" transform="translate(26,55)"/></g><text x="50" y="66" fill="#94A3B8" font-family="ui-monospace,'JetBrains Mono',Menlo,monospace" font-size="14">Total Stars Earned:</text><text x="300" y="66" fill="#F8FAFC" font-family="ui-monospace,'JetBrains Mono',Menlo,monospace" font-size="14" font-weight="700">15</text><g transform="translate(26,85)"><circle cx="3" cy="3" r="2" fill="none" stroke="#22C55E" stroke-width="1.6"/><circle cx="3" cy="11" r="2" fill="none" stroke="#22C55E" stroke-width="1.6"/><circle cx="11" cy="11" r="2" fill="none" stroke="#22C55E" stroke-width="1.6"/><path fill="none" stroke="#22C55E" stroke-width="1.6" d="M3 5 V9 M11 9 V7 a4 4 0 0 0 -4 -4 H5.2"/></g><text x="50" y="96" fill="#94A3B8" font-family="ui-monospace,'JetBrains Mono',Menlo,monospace" font-size="14">Total PRs:</text><text x="300" y="96" fill="#F8FAFC" font-family="ui-monospace,'JetBrains Mono',Menlo,monospace" font-size="14" font-weight="700">654</text><g transform="translate(26,115)"><circle cx="7" cy="7" r="6" fill="none" stroke="#22C55E" stroke-width="1.6"/><circle cx="7" cy="7" r="1.6" fill="#22C55E"/></g><text x="50" y="126" fill="#94A3B8" font-family="ui-monospace,'JetBrains Mono',Menlo,monospace" font-size="14">Total Issues:</text><text x="300" y="126" fill="#F8FAFC" font-family="ui-monospace,'JetBrains Mono',Menlo,monospace" font-size="14" font-weight="700">283</text><g><path fill="none" stroke="#22C55E" stroke-width="1.6" d="M2 1 H10 a1.2 1.2 0 0 1 1.2 1.2 V13 L7 11 L2.8 13 V2.2 a1.2 1.2 0 0 1 1.2 -1.2 Z" transform="translate(26,145)"/></g><text x="50" y="156" fill="#94A3B8" font-family="ui-monospace,'JetBrains Mono',Menlo,monospace" font-size="14">Contributed to (last year):</text><text x="300" y="156" fill="#F8FAFC" font-family="ui-monospace,'JetBrains Mono',Menlo,monospace" font-size="14" font-weight="700">58</text><circle cx="393" cy="98" r="40" fill="none" stroke="#1E293B" stroke-width="6"/><circle cx="393" cy="98" r="40" fill="none" stroke="#22C55E" stroke-dasharray="176.9 251.3" stroke-linecap="round" stroke-width="6" transform="rotate(-90 393 98)"/><text x="393" y="105" fill="#F8FAFC" font-family="ui-monospace,'JetBrains Mono',Menlo,monospace" font-size="26" font-weight="700" text-anchor="middle">A-</text></svg>