<svg xmlns="http://www.w3.org/2000/svg" width="360" height="195" aria-label="Most used languages" role="img" viewBox="0 0 360 195"><defs><linearGradient id="bg" x1="0" x2="0" y1="0" y2="1"><stop offset="0" stop-color="#0F172A"/><stop offset="1" stop-color="#0B1120"/></linearGradient></defs><rect width="359" height="194" x=".5" y=".5" fill="url(#bg)" stroke="#1E293B" stroke-width="1" rx="12"/><text x="22" y="32" fill="#22C55E" font-family="ui-monospace,'JetBrains Mono',Menlo,monospace" font-size="16" font-weight="700">Most Used Languages</text><rect width="174.118" height="11" x="22" y="48" fill="#3178c6" rx="5"/><rect width="36.296" height="11" x="196.118" y="48" fill="#e34c26"/><rect width="30.327" height="11" x="232.414" y="48" fill="#3572A5"/><rect width="29.779" height="11" x="262.741" y="48" fill="#dea584"/><rect width="14.726" height="11" x="292.52" y="48" fill="#f1e05a"/><rect width="14.53" height="11" x="307.246" y="48" fill="#89e051"/><rect width="11.738" height="11" x="321.776" y="48" fill="#639"/><rect width="4.486" height="11" x="333.514" y="48" fill="#f34b7d"/><circle cx="27" cy="82" r="5" fill="#3178c6"/><text x="38" y="86" fill="#94A3B8" font-family="ui-monospace,'JetBrains Mono',Menlo,monospace" font-size="12">TypeScript <tspan fill="#F8FAFC" font-weight="700">55.1%</tspan></text><circle cx="201" cy="82" r="5" fill="#e34c26"/><text x="212" y="86" fill="#94A3B8" font-family="ui-monospace,'JetBrains Mono',Menlo,monospace" font-size="12">HTML <tspan fill="#F8FAFC" font-weight="700">11.5%</tspan></text><circle cx="27" cy="108" r="5" fill="#3572A5"/><text x="38" y="112" fill="#94A3B8" font-family="ui-monospace,'JetBrains Mono',Menlo,monospace" font-size="12">Python <tspan fill="#F8FAFC" font-weight="700">9.6%</tspan></text><circle cx="201" cy="108" r="5" fill="#dea584"/><text x="212" y="112" fill="#94A3B8" font-family="ui-monospace,'JetBrains Mono',Menlo,monospace" font-size="12">Rust <tspan fill="#F8FAFC" font-weight="700">9.4%</tspan></text><circle cx="27" cy="134" r="5" fill="#f1e05a"/><text x="38" y="138" fill="#94A3B8" font-family="ui-monospace,'JetBrains Mono',Menlo,monospace" font-size="12">JavaScript <tspan fill="#F8FAFC" font-weight="700">4.7%</tspan></text><circle cx="201" cy="134" r="5" fill="#89e051"/><text x="212" y="138" fill="#94A3B8" font-family="ui-monospace,'JetBrains Mono',Menlo,monospace" font-size="12">Shell <tspan fill="#F8FAFC" font-weight="700">4.6%</tspan></text><circle cx="27" cy="160" r="5" fill="#639"/><text x="38" y="164" fill="#94A3B8" font-family="ui-monospace,'JetBrains Mono',Menlo,monospace" font-size="12">CSS <tspan fill="#F8FAFC" font-weight="700">3.7%</tspan></text><circle cx="201" cy="160" r="5" fill="#f34b7d"/><text x="212" y="164" fill="#94A3B8" font-family="ui-monospace,'JetBrains Mono',Menlo,monospace" font-size="12">C++ <tspan fill="#F8FAFC" font-weight="700">1.4%</tspan></text></svg>