<svg xmlns="http://www.w3.org/2000/svg" width="360" height="195" viewBox="0 0 360 195" role="img" aria-label="Most used languages">
<defs><linearGradient id="bg" x1="0" y1="0" x2="0" y2="1"><stop offset="0" stop-color="#0F172A"/><stop offset="1" stop-color="#0B1120"/></linearGradient></defs><rect x="0.5" y="0.5" width="359" height="194" rx="12" fill="url(#bg)" stroke="#1E293B" stroke-width="1"/>
<text x="22" y="32" font-family="ui-monospace,'JetBrains Mono',Menlo,monospace" font-size="16" font-weight="700" fill="#22C55E">Most Used Languages</text>
<rect x="22.000" y="48" width="182.367" height="11" fill="#3178c6" rx="5"/>
<rect x="204.367" y="48" width="74.589" height="11" fill="#3572A5"/>
<rect x="278.955" y="48" width="48.483" height="11" fill="#f1e05a"/>
<rect x="327.438" y="48" width="5.715" height="11" fill="#663399"/>
<rect x="333.153" y="48" width="2.303" height="11" fill="#89e051"/>
<rect x="335.456" y="48" width="1.415" height="11" fill="#dea584"/>
<rect x="336.871" y="48" width="0.699" height="11" fill="#336790"/>
<rect x="337.570" y="48" width="0.500" height="11" fill="#384d54"/>
<circle cx="27" cy="82" r="5" fill="#3178c6"/>
<text x="38" y="86" font-family="ui-monospace,'JetBrains Mono',Menlo,monospace" font-size="12" fill="#94A3B8">TypeScript <tspan fill="#F8FAFC" font-weight="700">57.7%</tspan></text>
<circle cx="201" cy="82" r="5" fill="#3572A5"/>
<text x="212" y="86" font-family="ui-monospace,'JetBrains Mono',Menlo,monospace" font-size="12" fill="#94A3B8">Python <tspan fill="#F8FAFC" font-weight="700">23.6%</tspan></text>
<circle cx="27" cy="108" r="5" fill="#f1e05a"/>
<text x="38" y="112" font-family="ui-monospace,'JetBrains Mono',Menlo,monospace" font-size="12" fill="#94A3B8">JavaScript <tspan fill="#F8FAFC" font-weight="700">15.3%</tspan></text>
<circle cx="201" cy="108" r="5" fill="#663399"/>
<text x="212" y="112" font-family="ui-monospace,'JetBrains Mono',Menlo,monospace" font-size="12" fill="#94A3B8">CSS <tspan fill="#F8FAFC" font-weight="700">1.8%</tspan></text>
<circle cx="27" cy="134" r="5" fill="#89e051"/>
<text x="38" y="138" font-family="ui-monospace,'JetBrains Mono',Menlo,monospace" font-size="12" fill="#94A3B8">Shell <tspan fill="#F8FAFC" font-weight="700">0.7%</tspan></text>
<circle cx="201" cy="134" r="5" fill="#dea584"/>
<text x="212" y="138" font-family="ui-monospace,'JetBrains Mono',Menlo,monospace" font-size="12" fill="#94A3B8">Rust <tspan fill="#F8FAFC" font-weight="700">0.4%</tspan></text>
<circle cx="27" cy="160" r="5" fill="#336790"/>
<text x="38" y="164" font-family="ui-monospace,'JetBrains Mono',Menlo,monospace" font-size="12" fill="#94A3B8">PLpgSQL <tspan fill="#F8FAFC" font-weight="700">0.2%</tspan></text>
<circle cx="201" cy="160" r="5" fill="#384d54"/>
<text x="212" y="164" font-family="ui-monospace,'JetBrains Mono',Menlo,monospace" font-size="12" fill="#94A3B8">Dockerfile <tspan fill="#F8FAFC" font-weight="700">0.1%</tspan></text>
</svg>